<svg xmlns="http://www.w3.org/2000/svg" viewBox="0 0 500 500"><g id="freepik--background-complete--inject-187"><circle cx="126.63" cy="123.11" r="26.86" style="fill:#ebebeb;opacity:0.5"></circle><circle cx="126.63" cy="123.11" r="19.35" transform="translate(-35.91 192.18) rotate(-67.22)" style="fill:#ebebeb"></circle><path d="M446.11,152.27H338.44s10.68-29.16,27.11-29.16,21.57,20.13,21.57,20.13,11.09-10.94,20.2-10.94,17,14.45,17,14.45S437.21,139,446.11,152.27Z" style="fill:#ebebeb"></path><path d="M317.34,185.91H267s11.25-16.29,20.1-16.29,11.48,10.86,11.48,10.86,6.25-5.06,12-4.16S317.34,185.91,317.34,185.91Z" style="fill:#ebebeb;opacity:0.5"></path><path d="M151.9,170.07h-98s13.42-30,27.78-31.84,21.22,22.26,21.22,22.26,9.26-8.53,16.54-8.53,12.91,11.24,12.91,11.24S146.9,155.5,151.9,170.07Z" style="fill:#ebebeb"></path><path d="M245.05,115.45H178.84s11.37-21.71,23.71-22,18.82,16.43,18.82,16.43S240.56,94.45,245.05,115.45Z" style="fill:#ebebeb;opacity:0.5"></path><path d="M165.23,133.22a18.34,18.34,0,0,1,2.37-1,9.71,9.71,0,0,1,2.59-.6,2.14,2.14,0,0,1,.8.09,1.39,1.39,0,0,1,.25.12l.16.11a3,3,0,0,1,.27.23,9.35,9.35,0,0,1,.94,1,24.57,24.57,0,0,1,1.62,2l-.64-.23a21.74,21.74,0,0,1,2.64-.56,10.43,10.43,0,0,1,1.38-.09,4.56,4.56,0,0,1,.73,0,2,2,0,0,1,.4.1,2.76,2.76,0,0,1,.39.18,5,5,0,0,1,1.05,1c.28.36.53.73.78,1.1a17,17,0,0,1,1.22,2.36c-.56-.68-1.11-1.36-1.69-2-.29-.33-.58-.64-.89-.93a4.25,4.25,0,0,0-.93-.72,2.31,2.31,0,0,0-1-.1,11.09,11.09,0,0,0-1.24.16c-.82.15-1.67.36-2.48.58l-.41.11-.24-.33c-.47-.69-1-1.36-1.5-2a10.19,10.19,0,0,0-.8-.91,1.19,1.19,0,0,0-.2-.19l-.09-.08s0,0,0,0a1.24,1.24,0,0,0-.46-.09,12.37,12.37,0,0,0-2.44.24C166.91,132.89,166.07,133.07,165.23,133.22Z" style="fill:#263238"></path><path d="M174.56,158.42a28.84,28.84,0,0,1,3.18-2.18,15.16,15.16,0,0,1,3.63-1.63,3.47,3.47,0,0,1,1.21-.11,2.24,2.24,0,0,1,.39.1l.27.12a4.13,4.13,0,0,1,.47.26,17.17,17.17,0,0,1,1.66,1.12c1,.79,2,1.64,3,2.52l-1-.14a28.17,28.17,0,0,1,3.71-1.59,15.86,15.86,0,0,1,2-.54,6.36,6.36,0,0,1,1.1-.14,4.1,4.1,0,0,1,.6,0c.21,0,.43.11.64.16a6.87,6.87,0,0,1,1.82,1.17,17.7,17.7,0,0,1,1.47,1.39,25.41,25.41,0,0,1,2.49,3.1c-1-.83-2-1.67-3.08-2.44a16.56,16.56,0,0,0-1.57-1.11,6.66,6.66,0,0,0-1.58-.79,3.62,3.62,0,0,0-1.54.15,17.66,17.66,0,0,0-1.77.61c-1.17.46-2.35,1-3.48,1.57l-.57.29-.44-.43c-.9-.86-1.85-1.7-2.8-2.5a16.44,16.44,0,0,0-1.44-1.12l-.35-.22-.16-.09s0,0-.07,0a1.92,1.92,0,0,0-.69,0,18.54,18.54,0,0,0-3.52,1.07C176.93,157.45,175.75,158,174.56,158.42Z" style="fill:#263238"></path><path d="M337.91,204.65a18.29,18.29,0,0,1,2.18-1.39,10.09,10.09,0,0,1,2.45-1,2.11,2.11,0,0,1,.81,0,1,1,0,0,1,.26.07l.17.09a3.3,3.3,0,0,1,.32.18,11,11,0,0,1,1.08.78c.68.55,1.3,1.14,1.93,1.75l-.67-.12a20.08,20.08,0,0,1,2.51-1,9.84,9.84,0,0,1,1.35-.32,4.21,4.21,0,0,1,.73-.07,3,3,0,0,1,.41,0,3.86,3.86,0,0,1,.42.12,4.81,4.81,0,0,1,1.19.82,12.28,12.28,0,0,1,.95,1,16.28,16.28,0,0,1,1.59,2.12c-.67-.58-1.32-1.16-2-1.7a12.39,12.39,0,0,0-1-.77,4.44,4.44,0,0,0-1-.56,2.52,2.52,0,0,0-1,.07,8.6,8.6,0,0,0-1.19.37c-.8.28-1.6.62-2.36,1l-.39.18-.28-.3c-.58-.59-1.2-1.17-1.82-1.72a11,11,0,0,0-.93-.78l-.23-.15-.11-.07,0,0a1.35,1.35,0,0,0-.46,0,12.08,12.08,0,0,0-2.37.63C339.52,204.05,338.72,204.36,337.91,204.65Z" style="fill:#263238"></path><path d="M316.78,201.23a28,28,0,0,1,2.4-3,14.66,14.66,0,0,1,3-2.64,3.43,3.43,0,0,1,1.12-.46,2.55,2.55,0,0,1,.41,0l.29,0c.19,0,.35.07.52.1a17.94,17.94,0,0,1,1.92.58c1.24.44,2.41,1,3.59,1.52l-1,.17a28.42,28.42,0,0,1,3.08-2.62,16.32,16.32,0,0,1,1.75-1.12,8.38,8.38,0,0,1,1-.45,4.59,4.59,0,0,1,.59-.16,3.5,3.5,0,0,1,.65,0,6.89,6.89,0,0,1,2.09.57,19.16,19.16,0,0,1,1.82.89,26.16,26.16,0,0,1,3.3,2.23c-1.23-.49-2.44-1-3.67-1.43-.61-.22-1.22-.43-1.83-.59a6.35,6.35,0,0,0-1.74-.28,3.57,3.57,0,0,0-1.43.6,15.35,15.35,0,0,0-1.51,1.11c-1,.78-2,1.66-2.86,2.53l-.46.44-.55-.27c-1.11-.56-2.27-1.08-3.41-1.56a13.64,13.64,0,0,0-1.7-.64,3.59,3.59,0,0,0-.41-.11l-.18,0h-.07a2.05,2.05,0,0,0-.66.2,19.4,19.4,0,0,0-3,2.06C318.76,199.59,317.78,200.42,316.78,201.23Z" style="fill:#263238"></path><path d="M144.41,152.24a28,28,0,0,1,2.39-3,15.21,15.21,0,0,1,3-2.63,3.31,3.31,0,0,1,1.12-.46,2.62,2.62,0,0,1,.41,0l.29,0a4.51,4.51,0,0,1,.53.1,16.47,16.47,0,0,1,1.92.58c1.23.44,2.4,1,3.58,1.52l-1,.16a30.87,30.87,0,0,1,3.08-2.62,16.68,16.68,0,0,1,1.74-1.11,7.59,7.59,0,0,1,1-.45,3.65,3.65,0,0,1,.59-.16,4.78,4.78,0,0,1,.66,0,7.21,7.21,0,0,1,2.08.57c.64.27,1.23.58,1.82.9a25.72,25.72,0,0,1,3.3,2.22c-1.23-.49-2.44-1-3.67-1.42-.6-.22-1.22-.43-1.83-.59a6.29,6.29,0,0,0-1.74-.28,3.43,3.43,0,0,0-1.43.6,15.12,15.12,0,0,0-1.5,1.1c-1,.79-1.95,1.67-2.87,2.54l-.45.44-.55-.28c-1.11-.55-2.27-1.07-3.41-1.56a17.92,17.92,0,0,0-1.71-.64c-.13,0-.28-.08-.4-.1l-.18,0h-.07a2,2,0,0,0-.66.21,19,19,0,0,0-3.05,2.06C146.38,150.6,145.41,151.43,144.41,152.24Z" style="fill:#263238"></path></g><g id="freepik--Shadow--inject-187"><ellipse cx="197.86" cy="457.97" rx="136.73" ry="16.06" style="fill:#ebebeb"></ellipse></g><g id="freepik--Floor--inject-187"><polygon points="37.79 349.73 90.84 349.49 143.9 349.4 250 349.23 356.1 349.4 409.15 349.49 462.21 349.73 409.15 349.98 356.1 350.06 250 350.23 143.9 350.06 90.84 349.98 37.79 349.73" style="fill:#263238"></polygon></g><g id="freepik--canadian-national-tower--inject-187"><polygon points="361.09 61.93 358.31 61.93 357.9 95.53 361.49 95.53 361.09 61.93" style="fill:#FFC727"></polygon><rect x="357.72" y="61.25" width="3.95" height="1.42" style="fill:#263238"></rect><polygon points="360.47 44.36 358.93 44.36 358.7 61.25 360.69 61.25 360.47 44.36" style="fill:#FFC727"></polygon><rect x="358.6" y="43.98" width="2.19" height="0.79" style="fill:#263238"></rect><polygon points="359.9 33.5 359.49 33.5 359.08 43.98 360.32 43.98 359.9 33.5" style="fill:#FFC727"></polygon><polygon points="373.96 349.74 359.53 349.74 345.09 349.74 354.48 161.83 364.58 161.83 373.96 349.74" style="fill:#FFC727"></polygon><polygon points="361.15 349.74 357.9 349.74 358.72 161.83 360.34 161.83 361.15 349.74" style="fill:#263238"></polygon><rect x="347.08" y="157.03" width="24.9" height="4.8" style="fill:#FFC727"></rect><polygon points="371.98 158.74 347.08 159.43 347.08 157.03 371.98 157.03 371.98 158.74" style="opacity:0.1"></polygon><rect x="347.08" y="130.52" width="24.9" height="4.8" style="fill:#FFC727"></rect><polygon points="347.08 133.61 371.98 132.92 371.98 135.32 347.08 135.32 347.08 133.61" style="opacity:0.1"></polygon><rect x="352.18" y="122.71" width="14.71" height="7.81" transform="translate(719.06 253.23) rotate(180)" style="fill:#FFC727"></rect><polygon points="366.88 127.74 352.18 126.62 352.18 130.52 366.88 130.52 366.88 127.74" style="opacity:0.1"></polygon><polygon points="377.47 142.19 377.47 150.16 371.98 157.03 347.08 157.03 341.58 150.16 341.58 142.19 347.08 135.32 371.98 135.32 377.47 142.19" style="fill:#FFC727"></polygon><rect x="341.58" y="142.19" width="35.89" height="1.12" style="fill:#263238"></rect><rect x="341.58" y="149.05" width="35.89" height="1.12" style="fill:#263238"></rect><rect x="341.58" y="145" width="35.89" height="2.35" style="fill:#263238"></rect><polygon points="362.3 98.1 356.75 98.1 355.94 122.7 363.12 122.7 362.3 98.1" style="fill:#FFC727"></polygon><rect x="353.66" y="94.77" width="11.73" height="5.96" rx="1.83" style="fill:#263238"></rect></g><g id="freepik--Buildings--inject-187"><polygon points="462.2 244.31 462.2 349.68 263.71 349.68 263.71 283.75 280.93 283.75 280.93 304.66 285.36 304.66 285.36 292.82 307.25 292.82 307.25 311.57 310.15 311.57 310.15 237.57 329.18 237.57 329.18 279.65 338.94 279.65 338.94 294.67 341.9 294.67 341.9 285.22 359.2 285.22 359.2 313.42 364.25 313.42 364.25 290.5 380.08 290.5 380.08 273.09 390.83 273.09 390.83 263.17 403.28 263.17 403.28 307.15 407.47 307.15 407.47 258.8 427.97 258.8 427.97 285.07 430.8 285.07 430.8 263.63 451.6 263.63 451.6 244.31 462.2 244.31" style="fill:#c7c7c7"></polygon><rect x="265.82" y="286.38" width="2.91" height="4" style="fill:#fff"></rect><rect x="270.87" y="286.38" width="2.91" height="4" style="fill:#fff"></rect><rect x="275.92" y="286.38" width="2.91" height="4" style="fill:#fff"></rect><rect x="265.82" y="292.39" width="2.91" height="4" style="fill:#fff"></rect><rect x="270.87" y="292.39" width="2.91" height="4" style="fill:#fff"></rect><rect x="275.92" y="292.39" width="2.91" height="4" style="fill:#fff"></rect><rect x="265.82" y="298.41" width="2.91" height="4" style="fill:#fff"></rect><rect x="270.87" y="298.41" width="2.91" height="4" style="fill:#fff"></rect><rect x="275.92" y="298.41" width="2.91" height="4" style="fill:#fff"></rect><rect x="265.82" y="304.42" width="2.91" height="4" style="fill:#fff"></rect><rect x="270.87" y="304.42" width="2.91" height="4" style="fill:#fff"></rect><rect x="275.92" y="304.42" width="2.91" height="4" style="fill:#fff"></rect><rect x="366.69" y="293.36" width="2.91" height="3.34" style="fill:#fff"></rect><rect x="371.74" y="293.36" width="2.91" height="3.34" style="fill:#fff"></rect><rect x="376.79" y="293.36" width="2.91" height="3.34" style="fill:#fff"></rect><rect x="366.69" y="298.37" width="2.91" height="3.34" style="fill:#fff"></rect><rect x="371.74" y="298.37" width="2.91" height="3.34" style="fill:#fff"></rect><rect x="376.79" y="298.37" width="2.91" height="3.34" style="fill:#fff"></rect><rect x="366.69" y="303.39" width="2.91" height="3.34" style="fill:#fff"></rect><rect x="371.74" y="303.39" width="2.91" height="3.34" style="fill:#fff"></rect><rect x="376.79" y="303.39" width="2.91" height="3.34" style="fill:#fff"></rect><rect x="366.69" y="308.41" width="2.91" height="3.34" style="fill:#fff"></rect><rect x="371.74" y="308.41" width="2.91" height="3.34" style="fill:#fff"></rect><rect x="376.79" y="308.41" width="2.91" height="3.34" style="fill:#fff"></rect><rect x="366.69" y="313.56" width="2.91" height="3.34" style="fill:#fff"></rect><rect x="371.74" y="313.56" width="2.91" height="3.34" style="fill:#fff"></rect><rect x="376.79" y="313.56" width="2.91" height="3.34" style="fill:#fff"></rect><rect x="366.69" y="318.7" width="2.91" height="3.34" style="fill:#fff"></rect><rect x="371.74" y="318.7" width="2.91" height="3.34" style="fill:#fff"></rect><rect x="376.79" y="318.7" width="2.91" height="3.34" style="fill:#fff"></rect><rect x="366.69" y="323.84" width="2.91" height="3.34" style="fill:#fff"></rect><rect x="371.74" y="323.84" width="2.91" height="3.34" style="fill:#fff"></rect><rect x="376.79" y="323.84" width="2.91" height="3.34" style="fill:#fff"></rect><rect x="366.69" y="328.98" width="2.91" height="3.34" style="fill:#fff"></rect><rect x="371.74" y="328.98" width="2.91" height="3.34" style="fill:#fff"></rect><rect x="376.79" y="328.98" width="2.91" height="3.34" style="fill:#fff"></rect><rect x="287.84" y="295.39" width="16.77" height="2.5" style="fill:#fff"></rect><rect x="287.84" y="300.24" width="16.77" height="2.5" style="fill:#fff"></rect><rect x="287.84" y="305.09" width="16.77" height="2.5" style="fill:#fff"></rect><rect x="287.84" y="309.94" width="16.77" height="2.5" style="fill:#fff"></rect><rect x="287.84" y="314.79" width="16.77" height="2.5" style="fill:#fff"></rect><rect x="287.84" y="319.64" width="16.77" height="2.5" style="fill:#fff"></rect><rect x="287.84" y="324.5" width="16.77" height="2.5" style="fill:#fff"></rect><rect x="287.84" y="329.35" width="16.77" height="2.5" style="fill:#fff"></rect><rect x="409.95" y="261.13" width="15.42" height="2.5" style="fill:#fff"></rect><rect x="409.95" y="265.98" width="15.42" height="2.5" style="fill:#fff"></rect><rect x="409.95" y="270.83" width="15.42" height="2.5" style="fill:#fff"></rect><rect x="409.95" y="275.69" width="15.42" height="2.5" style="fill:#fff"></rect><rect x="409.95" y="280.54" width="15.42" height="2.5" style="fill:#fff"></rect><rect x="409.95" y="285.39" width="15.42" height="2.5" style="fill:#fff"></rect><rect x="409.95" y="290.24" width="15.42" height="2.5" style="fill:#fff"></rect><rect x="409.95" y="295.09" width="15.42" height="2.5" style="fill:#fff"></rect><rect x="409.95" y="299.7" width="15.42" height="2.5" style="fill:#fff"></rect><rect x="409.95" y="304.31" width="15.42" height="2.5" style="fill:#fff"></rect><rect x="409.95" y="308.92" width="15.42" height="2.5" style="fill:#fff"></rect><rect x="409.95" y="313.53" width="15.42" height="2.5" style="fill:#fff"></rect><rect x="434.01" y="266.99" width="16.29" height="2.5" style="fill:#fff"></rect><rect x="434.01" y="271.84" width="16.29" height="2.5" style="fill:#fff"></rect><rect x="434.01" y="276.69" width="16.29" height="2.5" style="fill:#fff"></rect><rect x="434.01" y="281.55" width="16.29" height="2.5" style="fill:#fff"></rect><rect x="434.01" y="286.4" width="16.29" height="2.5" style="fill:#fff"></rect><rect x="434.01" y="291.25" width="16.29" height="2.5" style="fill:#fff"></rect><rect x="434.01" y="296.1" width="16.29" height="2.5" style="fill:#fff"></rect><rect x="434.01" y="300.95" width="16.29" height="2.5" style="fill:#fff"></rect><rect x="434.01" y="305.3" width="16.29" height="2.5" style="fill:#fff"></rect><rect x="434.01" y="309.64" width="16.29" height="2.5" style="fill:#fff"></rect><rect x="434.01" y="313.98" width="16.29" height="2.5" style="fill:#fff"></rect><rect x="346.96" y="287.49" width="5.18" height="2.41" style="fill:#fff"></rect><rect x="346.96" y="292.17" width="5.18" height="2.41" style="fill:#fff"></rect><rect x="346.96" y="296.86" width="5.18" height="2.41" style="fill:#fff"></rect><rect x="346.96" y="301.54" width="5.18" height="2.41" style="fill:#fff"></rect><rect x="346.96" y="306.23" width="5.18" height="2.41" style="fill:#fff"></rect><rect x="346.96" y="310.92" width="5.18" height="2.41" style="fill:#fff"></rect><rect x="346.96" y="315.6" width="5.18" height="2.41" style="fill:#fff"></rect><rect x="346.96" y="320.29" width="5.18" height="2.41" style="fill:#fff"></rect><rect x="354" y="287.49" width="5.18" height="2.41" style="fill:#fff"></rect><rect x="354" y="292.17" width="5.18" height="2.41" style="fill:#fff"></rect><rect x="354" y="296.86" width="5.18" height="2.41" style="fill:#fff"></rect><rect x="354" y="301.54" width="5.18" height="2.41" style="fill:#fff"></rect><rect x="354" y="306.23" width="5.18" height="2.41" style="fill:#fff"></rect><rect x="354" y="310.92" width="5.18" height="2.41" style="fill:#fff"></rect><rect x="354" y="315.6" width="5.18" height="2.41" style="fill:#fff"></rect><rect x="354" y="320.29" width="5.18" height="2.41" style="fill:#fff"></rect><rect x="313.04" y="240.11" width="5.4" height="3.81" style="fill:#fff"></rect><rect x="321.08" y="240.11" width="5.4" height="3.81" style="fill:#fff"></rect><rect x="313.04" y="245.7" width="5.4" height="3.81" style="fill:#fff"></rect><rect x="321.08" y="245.7" width="5.4" height="3.81" style="fill:#fff"></rect><rect x="313.04" y="251.29" width="5.4" height="3.81" style="fill:#fff"></rect><rect x="321.08" y="251.29" width="5.4" height="3.81" style="fill:#fff"></rect><rect x="313.04" y="256.89" width="5.4" height="3.81" style="fill:#fff"></rect><rect x="321.08" y="256.89" width="5.4" height="3.81" style="fill:#fff"></rect><rect x="313.04" y="262.48" width="5.4" height="3.81" style="fill:#fff"></rect><rect x="321.08" y="262.48" width="5.4" height="3.81" style="fill:#fff"></rect><rect x="313.04" y="268.08" width="5.4" height="3.81" style="fill:#fff"></rect><rect x="321.08" y="268.08" width="5.4" height="3.81" style="fill:#fff"></rect><rect x="313.04" y="273.67" width="5.4" height="3.81" style="fill:#fff"></rect><rect x="321.08" y="273.67" width="5.4" height="3.81" style="fill:#fff"></rect><rect x="313.04" y="279.26" width="5.4" height="3.81" style="fill:#fff"></rect><rect x="321.08" y="279.26" width="5.4" height="3.81" style="fill:#fff"></rect><rect x="331.06" y="281.29" width="5.4" height="3.81" style="fill:#fff"></rect><rect x="331.06" y="286.89" width="5.4" height="3.81" style="fill:#fff"></rect><rect x="331.06" y="292.48" width="5.4" height="3.81" style="fill:#fff"></rect><rect x="331.06" y="298.08" width="5.4" height="3.81" style="fill:#fff"></rect><rect x="331.06" y="303.67" width="5.4" height="3.81" style="fill:#fff"></rect><rect x="331.06" y="309.26" width="5.4" height="3.81" style="fill:#fff"></rect><rect x="313.04" y="284.79" width="5.4" height="3.81" style="fill:#fff"></rect><rect x="321.08" y="284.79" width="5.4" height="3.81" style="fill:#fff"></rect><rect x="331.06" y="314.79" width="5.4" height="3.81" style="fill:#fff"></rect><rect x="313.04" y="290.32" width="5.4" height="3.81" style="fill:#fff"></rect><rect x="321.08" y="290.32" width="5.4" height="3.81" style="fill:#fff"></rect><rect x="331.06" y="320.32" width="5.4" height="3.81" style="fill:#fff"></rect><rect x="313.04" y="295.85" width="5.4" height="3.81" style="fill:#fff"></rect><rect x="321.08" y="295.85" width="5.4" height="3.81" style="fill:#fff"></rect><rect x="331.06" y="325.85" width="5.4" height="3.81" style="fill:#fff"></rect><rect x="313.04" y="301.37" width="5.4" height="3.81" style="fill:#fff"></rect><rect x="321.08" y="301.37" width="5.4" height="3.81" style="fill:#fff"></rect><rect x="331.06" y="331.37" width="5.4" height="3.81" style="fill:#fff"></rect><rect x="313.04" y="306.9" width="5.4" height="3.81" style="fill:#fff"></rect><rect x="321.08" y="306.9" width="5.4" height="3.81" style="fill:#fff"></rect><rect x="331.06" y="336.9" width="5.4" height="3.81" style="fill:#fff"></rect><rect x="382.28" y="275.54" width="2.91" height="3.34" style="fill:#fff"></rect><rect x="387.33" y="275.54" width="2.91" height="3.34" style="fill:#fff"></rect><rect x="382.28" y="280.56" width="2.91" height="3.34" style="fill:#fff"></rect><rect x="387.33" y="280.56" width="2.91" height="3.34" style="fill:#fff"></rect><rect x="382.28" y="285.58" width="2.91" height="3.34" style="fill:#fff"></rect><rect x="387.33" y="285.58" width="2.91" height="3.34" style="fill:#fff"></rect><rect x="382.28" y="290.6" width="2.91" height="3.34" style="fill:#fff"></rect><rect x="387.33" y="290.6" width="2.91" height="3.34" style="fill:#fff"></rect><rect x="382.28" y="295.74" width="2.91" height="3.34" style="fill:#fff"></rect><rect x="387.33" y="295.74" width="2.91" height="3.34" style="fill:#fff"></rect><rect x="382.28" y="300.88" width="2.91" height="3.34" style="fill:#fff"></rect><rect x="387.33" y="300.88" width="2.91" height="3.34" style="fill:#fff"></rect><rect x="382.28" y="306.03" width="2.91" height="3.34" style="fill:#fff"></rect><rect x="387.33" y="306.03" width="2.91" height="3.34" style="fill:#fff"></rect><rect x="382.28" y="311.17" width="2.91" height="3.34" style="fill:#fff"></rect><rect x="387.33" y="311.17" width="2.91" height="3.34" style="fill:#fff"></rect><rect x="382.28" y="316.37" width="2.91" height="3.34" style="fill:#fff"></rect><rect x="387.33" y="316.37" width="2.91" height="3.34" style="fill:#fff"></rect><rect x="382.28" y="321.57" width="2.91" height="3.34" style="fill:#fff"></rect><rect x="387.33" y="321.57" width="2.91" height="3.34" style="fill:#fff"></rect><rect x="382.28" y="326.76" width="2.91" height="3.34" style="fill:#fff"></rect><rect x="387.33" y="326.76" width="2.91" height="3.34" style="fill:#fff"></rect><rect x="382.28" y="331.96" width="2.91" height="3.34" style="fill:#fff"></rect><rect x="387.33" y="331.96" width="2.91" height="3.34" style="fill:#fff"></rect><rect x="453.42" y="246.08" width="2.91" height="3.93" style="fill:#fff"></rect><rect x="458.47" y="246.08" width="2.91" height="3.93" style="fill:#fff"></rect><rect x="453.42" y="252" width="2.91" height="3.93" style="fill:#fff"></rect><rect x="458.47" y="252" width="2.91" height="3.93" style="fill:#fff"></rect><rect x="453.42" y="257.91" width="2.91" height="3.93" style="fill:#fff"></rect><rect x="458.47" y="257.91" width="2.91" height="3.93" style="fill:#fff"></rect><rect x="453.42" y="263.82" width="2.91" height="3.93" style="fill:#fff"></rect><rect x="458.47" y="263.82" width="2.91" height="3.93" style="fill:#fff"></rect><rect x="453.42" y="269.88" width="2.91" height="3.93" style="fill:#fff"></rect><rect x="458.47" y="269.88" width="2.91" height="3.93" style="fill:#fff"></rect><rect x="453.42" y="275.94" width="2.91" height="3.93" style="fill:#fff"></rect><rect x="458.47" y="275.94" width="2.91" height="3.93" style="fill:#fff"></rect><rect x="453.42" y="282" width="2.91" height="3.93" style="fill:#fff"></rect><rect x="458.47" y="282" width="2.91" height="3.93" style="fill:#fff"></rect><rect x="453.42" y="288.06" width="2.91" height="3.93" style="fill:#fff"></rect><rect x="458.47" y="288.06" width="2.91" height="3.93" style="fill:#fff"></rect><rect x="453.42" y="294.18" width="2.91" height="3.93" style="fill:#fff"></rect><rect x="458.47" y="294.18" width="2.91" height="3.93" style="fill:#fff"></rect><rect x="453.42" y="300.31" width="2.91" height="3.93" style="fill:#fff"></rect><rect x="458.47" y="300.31" width="2.91" height="3.93" style="fill:#fff"></rect><rect x="453.42" y="306.43" width="2.91" height="3.93" style="fill:#fff"></rect><rect x="458.47" y="306.43" width="2.91" height="3.93" style="fill:#fff"></rect><rect x="453.42" y="312.55" width="2.91" height="3.93" style="fill:#fff"></rect><rect x="458.47" y="312.55" width="2.91" height="3.93" style="fill:#fff"></rect><rect x="393.08" y="275.54" width="2.91" height="3.34" style="fill:#fff"></rect><rect x="398.13" y="275.54" width="2.91" height="3.34" style="fill:#fff"></rect><rect x="393.08" y="270.4" width="2.91" height="3.34" style="fill:#fff"></rect><rect x="398.13" y="270.4" width="2.91" height="3.34" style="fill:#fff"></rect><rect x="393.08" y="265.25" width="2.91" height="3.34" style="fill:#fff"></rect><rect x="398.13" y="265.25" width="2.91" height="3.34" style="fill:#fff"></rect><rect x="393.08" y="280.56" width="2.91" height="3.34" style="fill:#fff"></rect><rect x="398.13" y="280.56" width="2.91" height="3.34" style="fill:#fff"></rect><rect x="393.08" y="285.58" width="2.91" height="3.34" style="fill:#fff"></rect><rect x="398.13" y="285.58" width="2.91" height="3.34" style="fill:#fff"></rect><rect x="393.08" y="290.6" width="2.91" height="3.34" style="fill:#fff"></rect><rect x="398.13" y="290.6" width="2.91" height="3.34" style="fill:#fff"></rect><rect x="393.08" y="295.74" width="2.91" height="3.34" style="fill:#fff"></rect><rect x="398.13" y="295.74" width="2.91" height="3.34" style="fill:#fff"></rect><rect x="393.08" y="300.88" width="2.91" height="3.34" style="fill:#fff"></rect><rect x="398.13" y="300.88" width="2.91" height="3.34" style="fill:#fff"></rect><rect x="393.08" y="306.03" width="2.91" height="3.34" style="fill:#fff"></rect><rect x="398.13" y="306.03" width="2.91" height="3.34" style="fill:#fff"></rect><rect x="393.08" y="311.17" width="2.91" height="3.34" style="fill:#fff"></rect><rect x="398.13" y="311.17" width="2.91" height="3.34" style="fill:#fff"></rect><rect x="393.08" y="316.37" width="2.91" height="3.34" style="fill:#fff"></rect><rect x="398.13" y="316.37" width="2.91" height="3.34" style="fill:#fff"></rect><rect x="393.08" y="321.57" width="2.91" height="3.34" style="fill:#fff"></rect><rect x="398.13" y="321.57" width="2.91" height="3.34" style="fill:#fff"></rect><rect x="393.08" y="326.76" width="2.91" height="3.34" style="fill:#fff"></rect><rect x="398.13" y="326.76" width="2.91" height="3.34" style="fill:#fff"></rect><rect x="393.08" y="331.96" width="2.91" height="3.34" style="fill:#fff"></rect><rect x="398.13" y="331.96" width="2.91" height="3.34" style="fill:#fff"></rect><polygon points="177.58 349.68 37.8 349.68 37.8 233.75 55.02 233.75 55.02 284.66 59.45 284.66 59.45 272.82 81.35 272.82 81.35 291.57 84.25 291.57 84.25 247.57 103.28 247.57 103.28 259.65 113.04 259.65 113.04 274.67 115.99 274.67 115.99 225.22 133.29 225.22 133.29 293.42 138.35 293.42 138.35 281.5 154.17 281.5 154.17 264.09 164.93 264.09 177.38 264.15 177.38 298.15 177.58 298.15 177.58 349.68" style="fill:#c7c7c7"></polygon><rect x="39.91" y="236.38" width="2.91" height="4" style="fill:#fff"></rect><rect x="44.96" y="236.38" width="2.91" height="4" style="fill:#fff"></rect><rect x="50.01" y="236.38" width="2.91" height="4" style="fill:#fff"></rect><rect x="39.91" y="242.39" width="2.91" height="4" style="fill:#fff"></rect><rect x="44.96" y="242.39" width="2.91" height="4" style="fill:#fff"></rect><rect x="50.01" y="242.39" width="2.91" height="4" style="fill:#fff"></rect><rect x="39.91" y="248.41" width="2.91" height="4" style="fill:#fff"></rect><rect x="44.96" y="248.41" width="2.91" height="4" style="fill:#fff"></rect><rect x="50.01" y="248.41" width="2.91" height="4" style="fill:#fff"></rect><rect x="39.91" y="254.42" width="2.91" height="4" style="fill:#fff"></rect><rect x="44.96" y="254.42" width="2.91" height="4" style="fill:#fff"></rect><rect x="50.01" y="254.42" width="2.91" height="4" style="fill:#fff"></rect><rect x="39.91" y="260.44" width="2.91" height="4" style="fill:#fff"></rect><rect x="44.96" y="260.44" width="2.91" height="4" style="fill:#fff"></rect><rect x="50.01" y="260.44" width="2.91" height="4" style="fill:#fff"></rect><rect x="39.91" y="266.46" width="2.91" height="4" style="fill:#fff"></rect><rect x="44.96" y="266.46" width="2.91" height="4" style="fill:#fff"></rect><rect x="50.01" y="266.46" width="2.91" height="4" style="fill:#fff"></rect><rect x="39.91" y="272.47" width="2.91" height="4" style="fill:#fff"></rect><rect x="44.96" y="272.47" width="2.91" height="4" style="fill:#fff"></rect><rect x="50.01" y="272.47" width="2.91" height="4" style="fill:#fff"></rect><rect x="39.91" y="278.49" width="2.91" height="4" style="fill:#fff"></rect><rect x="44.96" y="278.49" width="2.91" height="4" style="fill:#fff"></rect><rect x="50.01" y="278.49" width="2.91" height="4" style="fill:#fff"></rect><rect x="39.91" y="284.5" width="2.91" height="4" style="fill:#fff"></rect><rect x="44.96" y="284.5" width="2.91" height="4" style="fill:#fff"></rect><rect x="50.01" y="284.5" width="2.91" height="4" style="fill:#fff"></rect><rect x="39.91" y="290.52" width="2.91" height="4" style="fill:#fff"></rect><rect x="44.96" y="290.52" width="2.91" height="4" style="fill:#fff"></rect><rect x="50.01" y="290.52" width="2.91" height="4" style="fill:#fff"></rect><rect x="39.91" y="296.54" width="2.91" height="4" style="fill:#fff"></rect><rect x="44.96" y="296.54" width="2.91" height="4" style="fill:#fff"></rect><rect x="50.01" y="296.54" width="2.91" height="4" style="fill:#fff"></rect><rect x="140.78" y="284.36" width="2.91" height="3.34" style="fill:#fff"></rect><rect x="145.83" y="284.36" width="2.91" height="3.34" style="fill:#fff"></rect><rect x="150.88" y="284.36" width="2.91" height="3.34" style="fill:#fff"></rect><rect x="140.78" y="289.37" width="2.91" height="3.34" style="fill:#fff"></rect><rect x="145.83" y="289.37" width="2.91" height="3.34" style="fill:#fff"></rect><rect x="150.88" y="289.37" width="2.91" height="3.34" style="fill:#fff"></rect><rect x="140.78" y="294.39" width="2.91" height="3.34" style="fill:#fff"></rect><rect x="145.83" y="294.39" width="2.91" height="3.34" style="fill:#fff"></rect><rect x="150.88" y="294.39" width="2.91" height="3.34" style="fill:#fff"></rect><rect x="140.78" y="299.41" width="2.91" height="3.34" style="fill:#fff"></rect><rect x="145.83" y="299.41" width="2.91" height="3.34" style="fill:#fff"></rect><rect x="150.88" y="299.41" width="2.91" height="3.34" style="fill:#fff"></rect><rect x="140.78" y="304.56" width="2.91" height="3.34" style="fill:#fff"></rect><rect x="145.83" y="304.56" width="2.91" height="3.34" style="fill:#fff"></rect><rect x="150.88" y="304.56" width="2.91" height="3.34" style="fill:#fff"></rect><rect x="140.78" y="309.7" width="2.91" height="3.34" style="fill:#fff"></rect><rect x="145.83" y="309.7" width="2.91" height="3.34" style="fill:#fff"></rect><rect x="150.88" y="309.7" width="2.91" height="3.34" style="fill:#fff"></rect><rect x="140.78" y="314.84" width="2.91" height="3.34" style="fill:#fff"></rect><rect x="145.83" y="314.84" width="2.91" height="3.34" style="fill:#fff"></rect><rect x="150.88" y="314.84" width="2.91" height="3.34" style="fill:#fff"></rect><rect x="140.78" y="319.98" width="2.91" height="3.34" style="fill:#fff"></rect><rect x="145.83" y="319.98" width="2.91" height="3.34" style="fill:#fff"></rect><rect x="150.88" y="319.98" width="2.91" height="3.34" style="fill:#fff"></rect><rect x="61.94" y="275.39" width="16.77" height="2.5" style="fill:#fff"></rect><rect x="61.94" y="280.24" width="16.77" height="2.5" style="fill:#fff"></rect><rect x="61.94" y="285.09" width="16.77" height="2.5" style="fill:#fff"></rect><rect x="61.94" y="289.94" width="16.77" height="2.5" style="fill:#fff"></rect><rect x="61.94" y="294.79" width="16.77" height="2.5" style="fill:#fff"></rect><rect x="61.94" y="299.64" width="16.77" height="2.5" style="fill:#fff"></rect><rect x="61.94" y="304.5" width="16.77" height="2.5" style="fill:#fff"></rect><rect x="61.94" y="309.35" width="16.77" height="2.5" style="fill:#fff"></rect><rect x="121.05" y="227.49" width="5.18" height="2.41" style="fill:#fff"></rect><rect x="121.05" y="232.17" width="5.18" height="2.41" style="fill:#fff"></rect><rect x="121.05" y="236.86" width="5.18" height="2.41" style="fill:#fff"></rect><rect x="121.05" y="241.54" width="5.18" height="2.41" style="fill:#fff"></rect><rect x="121.05" y="246.23" width="5.18" height="2.41" style="fill:#fff"></rect><rect x="121.05" y="250.92" width="5.18" height="2.41" style="fill:#fff"></rect><rect x="121.05" y="255.6" width="5.18" height="2.41" style="fill:#fff"></rect><rect x="121.05" y="260.29" width="5.18" height="2.41" style="fill:#fff"></rect><rect x="128.1" y="227.49" width="5.18" height="2.41" style="fill:#fff"></rect><rect x="128.1" y="232.17" width="5.18" height="2.41" style="fill:#fff"></rect><rect x="128.1" y="236.86" width="5.18" height="2.41" style="fill:#fff"></rect><rect x="128.1" y="241.54" width="5.18" height="2.41" style="fill:#fff"></rect><rect x="128.1" y="246.23" width="5.18" height="2.41" style="fill:#fff"></rect><rect x="128.1" y="250.92" width="5.18" height="2.41" style="fill:#fff"></rect><rect x="128.1" y="255.6" width="5.18" height="2.41" style="fill:#fff"></rect><rect x="128.1" y="260.29" width="5.18" height="2.41" style="fill:#fff"></rect><rect x="87.13" y="250.11" width="5.4" height="3.81" style="fill:#fff"></rect><rect x="95.18" y="250.11" width="5.4" height="3.81" style="fill:#fff"></rect><rect x="87.13" y="255.7" width="5.4" height="3.81" style="fill:#fff"></rect><rect x="95.18" y="255.7" width="5.4" height="3.81" style="fill:#fff"></rect><rect x="87.13" y="261.29" width="5.4" height="3.81" style="fill:#fff"></rect><rect x="95.18" y="261.29" width="5.4" height="3.81" style="fill:#fff"></rect><rect x="87.13" y="266.89" width="5.4" height="3.81" style="fill:#fff"></rect><rect x="95.18" y="266.89" width="5.4" height="3.81" style="fill:#fff"></rect><rect x="87.13" y="272.48" width="5.4" height="3.81" style="fill:#fff"></rect><rect x="95.18" y="272.48" width="5.4" height="3.81" style="fill:#fff"></rect><rect x="87.13" y="278.08" width="5.4" height="3.81" style="fill:#fff"></rect><rect x="95.18" y="278.08" width="5.4" height="3.81" style="fill:#fff"></rect><rect x="87.13" y="283.67" width="5.4" height="3.81" style="fill:#fff"></rect><rect x="95.18" y="283.67" width="5.4" height="3.81" style="fill:#fff"></rect><rect x="87.13" y="289.26" width="5.4" height="3.81" style="fill:#fff"></rect><rect x="95.18" y="289.26" width="5.4" height="3.81" style="fill:#fff"></rect><rect x="105.15" y="261.29" width="5.4" height="3.81" style="fill:#fff"></rect><rect x="105.15" y="266.89" width="5.4" height="3.81" style="fill:#fff"></rect><rect x="105.15" y="272.48" width="5.4" height="3.81" style="fill:#fff"></rect><rect x="105.15" y="278.08" width="5.4" height="3.81" style="fill:#fff"></rect><rect x="105.15" y="283.67" width="5.4" height="3.81" style="fill:#fff"></rect><rect x="105.15" y="289.26" width="5.4" height="3.81" style="fill:#fff"></rect><rect x="87.13" y="294.79" width="5.4" height="3.81" style="fill:#fff"></rect><rect x="95.18" y="294.79" width="5.4" height="3.81" style="fill:#fff"></rect><rect x="105.15" y="294.79" width="5.4" height="3.81" style="fill:#fff"></rect><rect x="87.13" y="300.32" width="5.4" height="3.81" style="fill:#fff"></rect><rect x="95.18" y="300.32" width="5.4" height="3.81" style="fill:#fff"></rect><rect x="105.15" y="300.32" width="5.4" height="3.81" style="fill:#fff"></rect><rect x="87.13" y="305.85" width="5.4" height="3.81" style="fill:#fff"></rect><rect x="95.18" y="305.85" width="5.4" height="3.81" style="fill:#fff"></rect><rect x="105.15" y="305.85" width="5.4" height="3.81" style="fill:#fff"></rect><rect x="87.13" y="311.37" width="5.4" height="3.81" style="fill:#fff"></rect><rect x="95.18" y="311.37" width="5.4" height="3.81" style="fill:#fff"></rect><rect x="105.15" y="311.37" width="5.4" height="3.81" style="fill:#fff"></rect><rect x="87.13" y="316.9" width="5.4" height="3.81" style="fill:#fff"></rect><rect x="95.18" y="316.9" width="5.4" height="3.81" style="fill:#fff"></rect><rect x="105.15" y="316.9" width="5.4" height="3.81" style="fill:#fff"></rect><rect x="156.37" y="266.54" width="2.91" height="3.34" style="fill:#fff"></rect><rect x="161.42" y="266.54" width="2.91" height="3.34" style="fill:#fff"></rect><rect x="156.37" y="271.56" width="2.91" height="3.34" style="fill:#fff"></rect><rect x="161.42" y="271.56" width="2.91" height="3.34" style="fill:#fff"></rect><rect x="156.37" y="276.58" width="2.91" height="3.34" style="fill:#fff"></rect><rect x="161.42" y="276.58" width="2.91" height="3.34" style="fill:#fff"></rect><rect x="156.37" y="281.6" width="2.91" height="3.34" style="fill:#fff"></rect><rect x="161.42" y="281.6" width="2.91" height="3.34" style="fill:#fff"></rect><rect x="156.37" y="286.74" width="2.91" height="3.34" style="fill:#fff"></rect><rect x="161.42" y="286.74" width="2.91" height="3.34" style="fill:#fff"></rect><rect x="156.37" y="291.88" width="2.91" height="3.34" style="fill:#fff"></rect><rect x="161.42" y="291.88" width="2.91" height="3.34" style="fill:#fff"></rect><rect x="156.37" y="297.03" width="2.91" height="3.34" style="fill:#fff"></rect><rect x="161.42" y="297.03" width="2.91" height="3.34" style="fill:#fff"></rect><rect x="156.37" y="302.17" width="2.91" height="3.34" style="fill:#fff"></rect><rect x="161.42" y="302.17" width="2.91" height="3.34" style="fill:#fff"></rect><rect x="156.37" y="307.37" width="2.91" height="3.34" style="fill:#fff"></rect><rect x="161.42" y="307.37" width="2.91" height="3.34" style="fill:#fff"></rect><rect x="156.37" y="312.57" width="2.91" height="3.34" style="fill:#fff"></rect><rect x="161.42" y="312.57" width="2.91" height="3.34" style="fill:#fff"></rect><rect x="156.37" y="317.76" width="2.91" height="3.34" style="fill:#fff"></rect><rect x="161.42" y="317.76" width="2.91" height="3.34" style="fill:#fff"></rect><rect x="156.37" y="322.96" width="2.91" height="3.34" style="fill:#fff"></rect><rect x="161.42" y="322.96" width="2.91" height="3.34" style="fill:#fff"></rect><rect x="167.17" y="266.54" width="2.91" height="3.34" style="fill:#fff"></rect><rect x="172.22" y="266.54" width="2.91" height="3.34" style="fill:#fff"></rect><rect x="167.17" y="271.56" width="2.91" height="3.34" style="fill:#fff"></rect><rect x="172.22" y="271.56" width="2.91" height="3.34" style="fill:#fff"></rect><rect x="167.17" y="276.58" width="2.91" height="3.34" style="fill:#fff"></rect><rect x="172.22" y="276.58" width="2.91" height="3.34" style="fill:#fff"></rect><rect x="167.17" y="281.6" width="2.91" height="3.34" style="fill:#fff"></rect><rect x="172.22" y="281.6" width="2.91" height="3.34" style="fill:#fff"></rect><rect x="167.17" y="286.74" width="2.91" height="3.34" style="fill:#fff"></rect><rect x="172.22" y="286.74" width="2.91" height="3.34" style="fill:#fff"></rect><rect x="167.17" y="291.88" width="2.91" height="3.34" style="fill:#fff"></rect><rect x="172.22" y="291.88" width="2.91" height="3.34" style="fill:#fff"></rect><rect x="167.17" y="297.03" width="2.91" height="3.34" style="fill:#fff"></rect><rect x="172.22" y="297.03" width="2.91" height="3.34" style="fill:#fff"></rect><rect x="167.17" y="302.17" width="2.91" height="3.34" style="fill:#fff"></rect><rect x="172.22" y="302.17" width="2.91" height="3.34" style="fill:#fff"></rect><rect x="167.17" y="307.37" width="2.91" height="3.34" style="fill:#fff"></rect><rect x="172.22" y="307.37" width="2.91" height="3.34" style="fill:#fff"></rect><rect x="167.17" y="312.57" width="2.91" height="3.34" style="fill:#fff"></rect><rect x="172.22" y="312.57" width="2.91" height="3.34" style="fill:#fff"></rect><rect x="167.17" y="317.76" width="2.91" height="3.34" style="fill:#fff"></rect><rect x="172.22" y="317.76" width="2.91" height="3.34" style="fill:#fff"></rect><rect x="167.17" y="322.96" width="2.91" height="3.34" style="fill:#fff"></rect><rect x="172.22" y="322.96" width="2.91" height="3.34" style="fill:#fff"></rect></g><g id="freepik--Boats--inject-187"><path d="M450.3,373.06c-10.32.21-20.64.31-30.95.39l-31,.11-31-.11L342,373.31l-15.48-.25,15.48-.24,15.47-.14,31-.11,31,.11C429.66,372.76,440,372.86,450.3,373.06Z" style="fill:#ebebeb"></path><path d="M164.8,373.06c-10.32.21-20.64.31-31,.39l-31,.11-30.95-.11-15.48-.14L41,373.06l15.48-.24,15.48-.14,31-.11,31,.11C144.16,372.76,154.48,372.86,164.8,373.06Z" style="fill:#ebebeb"></path><path d="M358.14,384.58c-10.32.2-20.64.3-30.95.38l-31,.12-31-.12-15.48-.14-15.48-.24,15.48-.25,15.48-.14,31-.11,31,.11C337.5,384.27,347.82,384.37,358.14,384.58Z" style="fill:#ebebeb"></path><polygon points="456.33 399.86 436.5 400.1 416.65 400.24 376.98 400.36 337.3 400.24 317.46 400.1 297.62 399.86 317.46 399.61 337.3 399.47 376.98 399.36 416.65 399.47 436.5 399.61 456.33 399.86" style="fill:#ebebeb"></polygon><polygon points="402.26 369.31 399.89 372.93 378.98 372.93 376.61 369.31 402.26 369.31" style="fill:#263238"></polygon><polygon points="388.65 368.91 388.65 349.12 400.95 368.91 388.65 368.91" style="fill:#ebebeb"></polygon><polygon points="388.14 368.91 388.14 352.47 377.92 368.91 388.14 368.91" style="fill:#ebebeb"></polygon><polygon points="304.62 379.92 302.07 384.21 279.54 384.21 276.99 379.92 304.62 379.92" style="fill:#FFC727"></polygon><polygon points="289.96 379.44 289.96 356 303.21 379.44 289.96 379.44" style="fill:#ebebeb"></polygon><polygon points="289.4 379.44 289.4 359.96 278.39 379.44 289.4 379.44" style="fill:#ebebeb"></polygon></g><g id="freepik--rogers-centre--inject-187"><path d="M298.46,324H154.87c0-2.82,26.79-34.73,71.79-34.73S298.46,321.13,298.46,324Z" style="fill:#ebebeb"></path><rect x="154.87" y="323.95" width="143.59" height="26.12" style="fill:#263238"></rect><path d="M290.14,324H163.19c0-2.5,23.68-30.7,63.47-30.7S290.14,321.45,290.14,324Z" style="fill:#263238"></path><path d="M282.7,324H170.63c0-2.2,20.9-27.11,56-27.11S282.7,321.75,282.7,324Z" style="fill:#ebebeb"></path><rect x="159.89" y="327.29" width="133.55" height="0.99" style="fill:#ebebeb"></rect><rect x="159.89" y="329.28" width="133.55" height="0.99" style="fill:#ebebeb"></rect><rect x="159.89" y="331.27" width="133.55" height="0.99" style="fill:#ebebeb"></rect><rect x="159.89" y="333.26" width="133.55" height="0.99" style="fill:#ebebeb"></rect><rect x="159.89" y="335.25" width="133.55" height="0.99" style="fill:#ebebeb"></rect><rect x="159.89" y="337.24" width="133.55" height="0.99" style="fill:#ebebeb"></rect><rect x="159.89" y="339.24" width="133.55" height="0.99" style="fill:#ebebeb"></rect><rect x="159.89" y="341.23" width="133.55" height="0.99" style="fill:#ebebeb"></rect><rect x="159.89" y="343.22" width="133.55" height="0.99" style="fill:#ebebeb"></rect><rect x="159.89" y="345.21" width="133.55" height="0.99" style="fill:#ebebeb"></rect><rect x="174.04" y="327.29" width="1.11" height="18.93" style="fill:#263238"></rect><rect x="194.87" y="327.29" width="1.11" height="18.93" style="fill:#263238"></rect><rect x="215.7" y="327.29" width="1.11" height="18.93" style="fill:#263238"></rect><rect x="236.52" y="327.29" width="1.11" height="18.93" style="fill:#263238"></rect><rect x="257.35" y="327.29" width="1.11" height="18.93" style="fill:#263238"></rect><rect x="278.17" y="327.29" width="1.11" height="18.93" style="fill:#263238"></rect></g><g id="freepik--Dock--inject-187"><rect x="37.8" y="414.9" width="424.4" height="15.05" style="fill:#dbdbdb"></rect><rect x="40.99" y="400.13" width="10.98" height="14.77" style="fill:#dbdbdb"></rect><rect x="40.99" y="391.54" width="10.98" height="6.89" style="fill:#dbdbdb"></rect><rect x="41.82" y="398.43" width="9.32" height="1.7" style="fill:#263238"></rect><polygon points="40.99 414.9 40.99 412.1 51.97 411.74 51.97 414.9 40.99 414.9" style="fill:#c7c7c7"></polygon><rect x="142.75" y="400.13" width="10.98" height="14.77" style="fill:#dbdbdb"></rect><rect x="142.75" y="391.54" width="10.98" height="6.89" style="fill:#dbdbdb"></rect><rect x="143.58" y="398.43" width="9.32" height="1.7" style="fill:#263238"></rect><polygon points="142.75 414.9 142.75 412.1 153.73 411.74 153.73 414.9 142.75 414.9" style="fill:#c7c7c7"></polygon><rect x="244.51" y="400.13" width="10.98" height="14.77" style="fill:#dbdbdb"></rect><rect x="244.51" y="391.54" width="10.98" height="6.89" style="fill:#dbdbdb"></rect><rect x="245.34" y="398.43" width="9.32" height="1.7" style="fill:#263238"></rect><polygon points="244.51 414.9 244.51 412.1 255.49 411.74 255.49 414.9 244.51 414.9" style="fill:#c7c7c7"></polygon><rect x="346.27" y="400.13" width="10.98" height="14.77" style="fill:#dbdbdb"></rect><rect x="346.27" y="391.54" width="10.98" height="6.89" style="fill:#dbdbdb"></rect><rect x="347.1" y="398.43" width="9.32" height="1.7" style="fill:#263238"></rect><polygon points="346.27 414.9 346.27 412.1 357.25 411.74 357.25 414.9 346.27 414.9" style="fill:#c7c7c7"></polygon><rect x="448.03" y="400.13" width="10.98" height="14.77" style="fill:#dbdbdb"></rect><rect x="448.03" y="391.54" width="10.98" height="6.89" style="fill:#dbdbdb"></rect><rect x="448.86" y="398.43" width="9.32" height="1.7" style="fill:#263238"></rect><polygon points="448.03 414.9 448.03 412.1 459.01 411.74 459.01 414.9 448.03 414.9" style="fill:#c7c7c7"></polygon></g><g id="freepik--Bench--inject-187"><polygon points="61.56 376.84 56.5 435.57 61.56 435.57 67.91 384.43 83.78 384.43 107.67 445.74 114.42 445.74 90.14 376.84 61.56 376.84" style="fill:#263238"></polygon><polygon points="229.08 376.84 224.02 435.57 229.08 435.57 235.43 384.43 251.31 384.43 275.2 445.74 281.94 445.74 257.66 376.84 229.08 376.84" style="fill:#263238"></polygon><polygon points="60.21 289.58 75.97 368.15 69.98 368.15 55.71 289.58 60.21 289.58" style="fill:#263238"></polygon><polygon points="133.7 289.58 149.46 368.15 143.47 368.15 129.2 289.58 133.7 289.58" style="fill:#263238"></polygon><polygon points="208.26 289.58 224.02 368.15 218.03 368.15 203.76 289.58 208.26 289.58" style="fill:#263238"></polygon><polygon points="232.62 309.86 40.86 309.86 38.06 295.9 229.82 295.9 232.62 309.86" style="fill:#FFC727"></polygon><polygon points="232.62 309.86 40.86 309.86 38.06 295.9 229.82 295.9 232.62 309.86" style="opacity:0.1"></polygon><polygon points="232.62 309.86 44.65 309.86 41.84 295.9 229.82 295.9 232.62 309.86" style="opacity:0.5"></polygon><polygon points="235.87 326.05 44.11 326.05 41.31 312.09 233.07 312.09 235.87 326.05" style="fill:#FFC727"></polygon><polygon points="235.87 326.05 44.11 326.05 41.31 312.09 233.07 312.09 235.87 326.05" style="opacity:0.1"></polygon><polygon points="235.87 326.05 47.9 326.05 45.1 312.09 233.07 312.09 235.87 326.05" style="opacity:0.5"></polygon><polygon points="239.11 342.24 47.35 342.24 44.55 328.28 236.31 328.28 239.11 342.24" style="fill:#FFC727"></polygon><polygon points="239.11 342.24 47.35 342.24 44.55 328.28 236.31 328.28 239.11 342.24" style="opacity:0.1"></polygon><polygon points="239.11 342.24 51.14 342.24 48.34 328.28 236.31 328.28 239.11 342.24" style="opacity:0.5"></polygon><polygon points="242.36 358.43 50.6 358.43 47.8 344.47 239.56 344.47 242.36 358.43" style="fill:#FFC727"></polygon><polygon points="242.36 358.43 50.6 358.43 47.8 344.47 239.56 344.47 242.36 358.43" style="opacity:0.1"></polygon><polygon points="242.36 358.43 54.39 358.43 51.59 344.47 239.56 344.47 242.36 358.43" style="opacity:0.5"></polygon><path d="M61.43,302.88a1,1,0,1,1-1-1A1,1,0,0,1,61.43,302.88Z" style="fill:#263238"></path><path d="M64.65,319.07a1,1,0,1,1-1-1A1,1,0,0,1,64.65,319.07Z" style="fill:#263238"></path><path d="M67.87,335.26a1,1,0,1,1-1-1A1,1,0,0,1,67.87,335.26Z" style="fill:#263238"></path><path d="M71.09,351.46a1,1,0,1,1-1-1A1,1,0,0,1,71.09,351.46Z" style="fill:#263238"></path><path d="M134.78,302.88a1,1,0,1,1-1-1A1,1,0,0,1,134.78,302.88Z" style="fill:#263238"></path><path d="M138,319.07a1,1,0,1,1-1-1A1,1,0,0,1,138,319.07Z" style="fill:#263238"></path><circle cx="140.2" cy="335.26" r="1.02" style="fill:#263238"></circle><path d="M144.44,351.46a1,1,0,1,1-1-1A1,1,0,0,1,144.44,351.46Z" style="fill:#263238"></path><path d="M209.56,302.88a1,1,0,1,1-1-1A1,1,0,0,1,209.56,302.88Z" style="fill:#263238"></path><path d="M212.78,319.07a1,1,0,1,1-1-1A1,1,0,0,1,212.78,319.07Z" style="fill:#263238"></path><path d="M216,335.26a1,1,0,1,1-2,0,1,1,0,0,1,2,0Z" style="fill:#263238"></path><path d="M219.22,351.46a1,1,0,1,1-1-1A1,1,0,0,1,219.22,351.46Z" style="fill:#263238"></path><polygon points="283.84 389.26 94.58 389.26 91.06 379.6 280.33 379.6 283.84 389.26" style="fill:#FFC727"></polygon><polygon points="283.84 389.26 94.58 389.26 91.06 379.6 280.33 379.6 283.84 389.26" style="opacity:0.1"></polygon><polygon points="283.84 389.26 98.37 389.26 94.85 379.6 280.33 379.6 283.84 389.26" style="opacity:0.5"></polygon><polygon points="279.55 376.84 56.5 376.84 56.5 368.15 275.42 368.15 279.55 376.84" style="fill:#FFC727"></polygon><polygon points="279.55 376.84 56.5 376.84 56.5 368.15 275.42 368.15 279.55 376.84" style="opacity:0.1"></polygon><polygon points="279.55 376.84 60.28 376.84 60.28 368.15 275.42 368.15 279.55 376.84" style="opacity:0.5"></polygon></g><g id="freepik--character-2--inject-187"><path d="M229.27,462.76c-1.79-.24-46.87-22.73-48-24.63-.14-.22,1.8-4.33,4.57-9.93,6.23-12.68,18.7-34.11,18.7-34.11l27.14,15.25-14.94,28.3s5,6.07,9.08,11.22v0a71.6,71.6,0,0,1,5.05,6.84C231.89,457.92,231.06,463,229.27,462.76Z" style="fill:#ad6359"></path><path d="M229.27,462.76c-1.8-.24-46.87-22.73-48-24.63-.15-.22,1.8-4.33,4.55-9.94,2.19-4.44,5.14-10,8.05-15.25l28.55,13.91-5.69,10.79s5,6.07,9.08,11.22c0,0,0,0,0,0a68,68,0,0,1,5.05,6.84C231.89,457.92,231.06,463,229.27,462.76Z" style="fill:#ebebeb"></path><path d="M229.78,463.91c-1.86-.28-47.26-23.62-48.43-25.6-.54-.92,4-10.78,9.05-21.08L220,432.32l-2.87,5.26s13.39,16.71,14.43,19S231.64,464.2,229.78,463.91Z" style="fill:#FFC727"></path><path d="M230.07,461.76c-7.52-4.1-38.21-19.92-45.95-23.4-.07,0-.09,0,0,.05,7.36,4.22,38.18,19.8,45.91,23.48C230.16,462,230.22,461.85,230.07,461.76Z" style="fill:#263238"></path><path d="M219.05,436.44c-2.71-2.1-6.61-3.52-10-2.56-.13,0-.08.22,0,.24a47.69,47.69,0,0,1,9.74,2.69A.22.22,0,0,0,219.05,436.44Z" style="fill:#263238"></path><path d="M220.54,438.86c-2.7-2.1-6.6-3.52-10-2.57-.13,0-.08.23,0,.25a46.7,46.7,0,0,1,9.75,2.69A.21.21,0,0,0,220.54,438.86Z" style="fill:#263238"></path><path d="M222,441.27c-2.7-2.1-6.6-3.52-10-2.56-.13,0-.07.22,0,.24a48,48,0,0,1,9.75,2.69A.21.21,0,0,0,222,441.27Z" style="fill:#263238"></path><path d="M223.53,443.68c-2.71-2.09-6.61-3.52-10-2.56-.14,0-.08.22,0,.24a47.35,47.35,0,0,1,9.75,2.7A.22.22,0,0,0,223.53,443.68Z" style="fill:#263238"></path><path d="M228.14,432.36c-.34-2.23-2.91-2.62-4.7-2.22a18.07,18.07,0,0,0-8.14,4.49.09.09,0,0,0,0,.15.41.41,0,0,0,.28.61c2.94.36,6,1.1,9,.55C226.34,435.61,228.47,434.47,228.14,432.36Zm-8,2.66c-1.45-.14-2.89-.35-4.35-.44,1.59-.87,3.14-1.8,4.81-2.51a18.24,18.24,0,0,1,2.47-.9c1.31-.36,5.72-.27,3.51,2.75C225.39,435.58,221.9,435.19,220.17,435Z" style="fill:#263238"></path><path d="M208.09,429.94c1.93,2.32,4.8,3.73,7.29,5.33a.42.42,0,0,0,.61-.3s.11,0,.1-.1a17.92,17.92,0,0,0-3.41-8.65c-1.12-1.45-3.35-2.78-5-1.29S207,428.59,208.09,429.94Zm-.25-2.83c.21-3.74,3.67-1,4.45.12a19.68,19.68,0,0,1,1.33,2.26c.84,1.62,1.43,3.33,2.1,5-1.18-.86-2.42-1.62-3.62-2.43C210.66,431.09,207.72,429.17,207.84,427.11Z" style="fill:#263238"></path><path d="M223.51,432.66l-32.74-16.53s23.85-44.6,23.22-45.42c-2.2-2.84-28.76-1.55-40.23-12.95-12.15-12.08-2.63-30.9-2.63-30.9h31.74s-.54,10.25.83,11.37c.9.75,47.57,5.26,49.39,17.57C256.26,377.12,223.51,432.66,223.51,432.66Z" style="fill:#37474f"></path><path d="M224.79,427.55c-3.78-2.28-7.65-4.39-11.54-6.48s-7.8-4.15-11.76-6.1c-2.23-1.11-4.51-2.11-6.74-3.21-.07,0-.13.07-.06.11,2,1.05,3.86,2.21,5.81,3.27s3.85,2.08,5.79,3.11c3.9,2.07,7.83,4.09,11.74,6.13,2.2,1.16,4.44,2.25,6.68,3.32A.09.09,0,0,0,224.79,427.55Z" style="fill:#263238"></path><path d="M226.49,365.49c-.78-1.61-2.85-1.85-4.39-2.24-4.22-1.05-8.44-2.11-12.66-3.15-7.48-1.85-15.19-3.6-21.89-7.56-3.2-1.89-6.3-4.29-7.9-7.74s-1.6-7.13-1.62-10.78c0-.9,0-1.8.1-2.7,0-.08-.12-.08-.12,0-.23,3.59-.6,7.19.2,10.74a14.43,14.43,0,0,0,2,4.84,16.63,16.63,0,0,0,3.65,3.84c5.92,4.65,13.35,6.87,20.54,8.71,4.06,1,8.14,2,12.21,3l6.29,1.54a5.7,5.7,0,0,1,2.58,1,2.7,2.7,0,0,1,.78,2.28,8.68,8.68,0,0,1-.64,2.5c-.37,1-.77,2-1.17,2.94q-1.16,2.87-2.39,5.7-2.46,5.73-5.12,11.36c-3.53,7.49-7.3,14.87-11.14,22.2-.48.92-.95,1.84-1.42,2.76,0,.05.06.1.09,0,4.12-7.25,8-14.66,11.63-22.15s7.09-15,10-22.73C226.67,368.57,227.17,366.89,226.49,365.49Z" style="fill:#263238"></path><path d="M241.37,398.12l-31.75-17.94c2.71-5.38,4.55-9.24,4.37-9.47-2.19-2.84-28.76-1.55-40.24-13-12.14-12.07-2.62-30.89-2.62-30.89h31.74s-.54,10.25.83,11.37c.9.76,47.57,5.25,49.39,17.57C254.55,365.59,248.43,382.59,241.37,398.12Z" style="fill:#263238"></path><path d="M300.54,464.44c-1.72.56-52.1,0-54-1.18-.22-.13-.23-10.93-.23-10.93-2.73-14.08-5.55-36.95-5.55-36.95l33.65,0,3.82,32s7.16,3.26,13.07,6.12h0a73.34,73.34,0,0,1,7.53,3.94C300.78,458.94,302.25,463.88,300.54,464.44Z" style="fill:#ad6359"></path><path d="M300.53,464.43c-1.71.57-52.09,0-53.95-1.17-.22-.13-.23-10.93-.23-10.93-1-5.07-2-11.28-2.85-17.15h33.31l1.46,12.14s7.16,3.28,13.07,6.13h0a73.34,73.34,0,0,1,7.53,3.94C300.78,458.94,302.25,463.88,300.53,464.43Z" style="fill:#ebebeb"></path><path d="M301.24,464.87c-1.79.59-52.84.29-54.78-1-.6-.38-1-5.39-1.2-12.1-.11-3.3-1.08-7-1.14-10.79l34.1.1-.19,6s19.49,8.86,21.47,10.45S303,464.29,301.24,464.87Z" style="fill:#FFC727"></path><path d="M300.52,462.83c-8.56-.26-43.09-.51-51.57-.12-.07,0-.07.05,0,.06,8.47.44,43,.41,51.57.2C300.7,463,300.7,462.83,300.52,462.83Z" style="fill:#263238"></path><path d="M279.25,445.22c-3.36-.65-7.49-.16-10.07,2.23-.1.09,0,.23.14.19a47.73,47.73,0,0,1,9.91-2A.21.21,0,0,0,279.25,445.22Z" style="fill:#263238"></path><path d="M281.67,446.7c-3.36-.65-7.48-.16-10.07,2.22-.1.1,0,.24.14.2a47.82,47.82,0,0,1,9.92-2A.21.21,0,0,0,281.67,446.7Z" style="fill:#263238"></path><path d="M284.09,448.18c-3.36-.65-7.48-.16-10.07,2.22-.1.1,0,.24.14.2a47.82,47.82,0,0,1,9.92-2A.21.21,0,0,0,284.09,448.18Z" style="fill:#263238"></path><path d="M286.51,449.66c-3.36-.65-7.48-.16-10.07,2.22-.1.1,0,.24.14.2a47.82,47.82,0,0,1,9.92-2A.21.21,0,0,0,286.51,449.66Z" style="fill:#263238"></path><path d="M285.51,437.47c-1.31-1.83-3.78-1-5.19.15a17.83,17.83,0,0,0-5.23,7.68.09.09,0,0,0,.08.12c0,.26.23.53.52.42,2.79-1,5.89-1.75,8.29-3.59C285.37,441.18,286.76,439.2,285.51,437.47Zm-5.91,6c-1.35.53-2.73,1-4.07,1.58,1-1.5,2-3,3.15-4.42a19.28,19.28,0,0,1,1.8-1.92c1-.9,5-2.82,4.37.87C284.51,441.58,281.22,442.81,279.6,443.44Z" style="fill:#263238"></path><path d="M266.54,444.37c2.76,1.2,6,1.16,8.9,1.46a.42.42,0,0,0,.41-.54.09.09,0,0,0,0-.14A18,18,0,0,0,269,439c-1.65-.8-4.25-1-5.07,1.12S264.92,443.67,266.54,444.37ZM265,442c-1.5-3.43,2.83-2.54,4-1.91a19.75,19.75,0,0,1,2.21,1.42c1.47,1.07,2.77,2.32,4.13,3.52-1.44-.24-2.89-.35-4.33-.54C269.34,444.23,265.85,443.85,265,442Z" style="fill:#263238"></path><path d="M278.83,439.1l-38-.28s-7.5-57.74-10.59-61.05c-1.56-1.67-51.75-1.89-64.06-13.62s0-37.29,0-37.29h32.39s.8,10-1.68,16.11c0,0,45.29.73,57.63,10.44C271.05,366.42,278.83,439.1,278.83,439.1Z" style="fill:#37474f"></path><path d="M275.73,433c-4.41-.33-8.82-.44-13.23-.55s-8.83-.15-13.25-.1c-2.49,0-5,.17-7.46.2-.08,0-.08.12,0,.12,2.23.05,4.45.22,6.67.28s4.38.11,6.57.15c4.41.07,8.83.09,13.24.14,2.49,0,5,0,7.46-.08C275.83,433.2,275.84,433,275.73,433Z" style="fill:#263238"></path><path d="M182.65,331.59a2.35,2.35,0,0,1-.19.43.06.06,0,0,0,0,.07c-.42,1.33-.6,2.74-1,4.07a6.42,6.42,0,0,1-2.46,3.51c-2.51,1.74-5.53,2.53-8.45,3.26-.1,0-.07.16,0,.16a16.29,16.29,0,0,0,5-.76,13.37,13.37,0,0,0,4.2-2,6.54,6.54,0,0,0,2.41-3.63,20.08,20.08,0,0,0,.42-2.34,17.94,17.94,0,0,0,.29-2.73A.12.12,0,0,0,182.65,331.59Z" style="fill:#263238"></path><path d="M202.78,340.75A37.67,37.67,0,0,0,197,343l-.09,0a1.39,1.39,0,0,0,.09-.35c0-.14,0-.28.07-.42s0-.29,0-.44l0-.22v0a1.73,1.73,0,0,0,1.25-.64,4.66,4.66,0,0,0,.78-1.83c.22-.83.42-1.66.6-2.5s.37-1.87.52-2.81a18.62,18.62,0,0,0,.32-2.79.13.13,0,0,0-.26,0c-.22.86-.32,1.75-.48,2.62s-.35,1.74-.55,2.6-.41,1.73-.65,2.59-.43,1.86-1.31,2.11c-1.82.52-1-3.56-.92-4.36.18-1.85.3-3.73.62-5.56a.06.06,0,0,0-.12,0c-.39,1.68-.84,3.33-1.14,5-.15.84-.26,1.68-.35,2.52a3.9,3.9,0,0,0,.17,2.17,1.59,1.59,0,0,0,1.2.89l-.06.19-.12.41-.09.41a1,1,0,0,0-.06.5.19.19,0,0,0,.09.11c-.78.34-1.55.67-2.32,1a20.11,20.11,0,0,0-2.8,1.36c-.1.05,0,.19.08.17a19.76,19.76,0,0,0,2.93-1.06c1-.37,1.93-.77,2.89-1.16a36.73,36.73,0,0,0,5.54-2.58A.1.1,0,0,0,202.78,340.75Z" style="fill:#263238"></path><path d="M165.47,342.08a48.85,48.85,0,0,1,2-9.42c.25-.79.51-1.58.79-2.36,0-.08.15,0,.12,0a52.17,52.17,0,0,0-2.16,9.47,37.63,37.63,0,0,0-.29,9.42,16.62,16.62,0,0,0,3,7.95,20.67,20.67,0,0,0,5.79,5.27c5.24,3.28,11.47,4.47,17.47,5.64Q202,370,212,371.54c7.47,1.17,22.11,2,22.76,3.29,1.25,2.54,3.22,14.38,4.49,21.63s2.3,14.47,3.08,21.76c.45,4.13.83,8.27,1.07,12.42,0,.27-.39.25-.42,0-.69-7.34-1.44-14.67-2.47-22s-2.25-14.42-3.7-21.57c-.8-4-2.32-11-2.8-11.67-.75-1-13.31-1.92-20-3s-13.57-2.22-20.32-3.51c-6.17-1.18-12.59-2.24-18.14-5.32-4.78-2.67-8.68-6.86-9.85-12.29A29,29,0,0,1,165.47,342.08Z" style="fill:#263238"></path><path d="M212,375.72c1.31,0,16.49,1.37,19.08,1.89.18,0,4.79,25.73,5.24,30.47.06.62-.18,1.2-.36,0-.35-2.33-5.67-29.8-5.68-29.82-2.59-.29-17-2.14-18.31-2.36C211.83,375.88,211.86,375.72,212,375.72Z" style="fill:#263238"></path><path d="M198.13,342.91A244.22,244.22,0,0,1,224.74,345c3.94.5,7.88,1.08,11.78,1.79a61.49,61.49,0,0,1,10.27,2.66,31.92,31.92,0,0,1,5.26,2.47,28.26,28.26,0,0,1,4.59,3.57c.06.05,0,.14-.09.09a31.87,31.87,0,0,0-9.15-5,59.47,59.47,0,0,0-10.07-2.73c-3.82-.73-7.67-1.27-11.52-1.79-4.16-.58-8.33-1.07-12.51-1.51-4.71-.5-10.46-.9-15.18-1.37A.14.14,0,0,1,198.13,342.91Z" style="fill:#263238"></path><path d="M175.88,257c-9.5,7.11-13.49,28.27-9.41,41.76,4.87,16.07,18.94,24.52,30.7,21,10.68-3.21,15.57-13.84,11.84-21.89-3.6-7.77-10.72-10.74-11.91-17.62-.57-3.29.91-8.73.47-13.66C197,260.57,186.29,249.23,175.88,257Z" style="fill:#b7483d"></path><path d="M210.39,299.73a16.84,16.84,0,0,0-2-4.76,20.91,20.91,0,0,0-3.06-4c-1.17-1.18-2.32-2.4-3.43-3.68a21.52,21.52,0,0,1-2.95-4.22,15.82,15.82,0,0,1-1-2.45,11.86,11.86,0,0,1-.42-2.71,50.94,50.94,0,0,1,.24-5.41,23.45,23.45,0,0,0-.15-5.3,15.67,15.67,0,0,0-2-4.88,14.49,14.49,0,0,1,2.25,4.8,23.14,23.14,0,0,1,.34,5.39c-.05,1.8-.24,3.59-.14,5.34a10.62,10.62,0,0,0,.41,2.54,14.87,14.87,0,0,0,1,2.32c1.55,3,4,5.38,6.18,7.86a21.91,21.91,0,0,1,3,4.17A16.35,16.35,0,0,1,210.39,299.73Z" style="fill:#b7483d"></path><path d="M187.94,292.84c6.88,7.68,18.59,17.43,28.47,19.5,4.75,1,10.49-2.23,11.64-3.31,7.15-6.78,15.21-20.16,17.91-29,.8-2.64-14.73-8.58-16.36-6.11-3.81,5.76-14.29,21.43-15.1,21.48-3,.19-11.82-5.64-22.77-8.55C180.17,283.75,184,288.44,187.94,292.84Z" style="fill:#ffc4c0"></path><path d="M219.84,251.33l19.92-9.88a.77.77,0,0,1,1.27.45l2.36,10.87a1.78,1.78,0,0,1-.79,1.75l-19.92,9.89a.77.77,0,0,1-1.27-.45l-2.36-10.87A1.79,1.79,0,0,1,219.84,251.33Z" style="fill:#37474f"></path><path d="M220.11,252.63,240,242.74a.77.77,0,0,1,1.27.45l2.36,10.87a1.79,1.79,0,0,1-.79,1.76L223,265.7a.77.77,0,0,1-1.27-.44l-2.37-10.88A1.8,1.8,0,0,1,220.11,252.63Z" style="fill:#455a64"></path><path d="M221.72,255.4a.94.94,0,0,0,.7-1.14,1,1,0,0,0-1.14-.7.95.95,0,1,0,.44,1.84Z" style="fill:#263238"></path><path d="M247.73,263.87c-1.12-5.58-2.27-6.84-.71-12.05,1-3.42-.73-5.54-3.32-2.88-4.24,4.34-4.31,11.85-3.58,14.45Z" style="fill:#ffc4c0"></path><path d="M246,280s2.84-7.56,2.23-13.62c-.42-4.2-2.35-13.22-13.77-18.5-2.71-1.25-7.46-1.12-3.77,2.54,2.61,2.59,5,3.45,6.3,5.23,0,0-6,.89-7.17,3.65a55.5,55.5,0,0,0-2.49,7.44,12.75,12.75,0,0,0,1.35.59s-.83,2.68,1,6.56Z" style="fill:#ffc4c0"></path><path d="M247.15,262.44c-1.61-1.51-5.08-4.66-8.81-6.24-4.15-1.77-12.61-4-13.88-1-.93,2.26,2.22,3.41,2.22,3.41s-3.69-.2-4.09,2c-.36,2,2.14,2.77,2.14,2.77s-2.27.26-2.24,2.27c0,2.43,4.77,1.48,6.93,3.91C229.9,270.15,247.15,262.44,247.15,262.44Z" style="fill:#ffc4c0"></path><path d="M237.21,260.89a18,18,0,0,0-10.45-2.31c-.09,0-.13.09,0,.1a44.08,44.08,0,0,1,10.48,2.25S237.23,260.9,237.21,260.89Z" style="fill:#263238"></path><path d="M235.31,265a20.23,20.23,0,0,0-10.57-1.68c-.09,0-.13.1,0,.1a47.56,47.56,0,0,1,10.59,1.62A0,0,0,0,0,235.31,265Z" style="fill:#263238"></path><path d="M207.93,292.47l-14.15,8.26a122.64,122.64,0,0,1-8.44-9.63c-3.59-4.92-2.6-7.41,4.68-5.76C194.89,286.44,207.93,292.47,207.93,292.47Z" style="fill:#FFC727"></path><path d="M195.9,291.46a5.06,5.06,0,0,1,.67-1.17,5.47,5.47,0,0,1-1,2.46A5,5,0,0,1,195.9,291.46Zm-7.15-.34a5.06,5.06,0,0,0-1.17-.67,5.48,5.48,0,0,0-1.29-.37,4.43,4.43,0,0,0,1.17.67A4.67,4.67,0,0,0,188.75,291.12Zm2.84,7.3.24.24a4.78,4.78,0,0,0,.95-.55A4.63,4.63,0,0,0,191.59,298.42Zm-1.13-10.7a5,5,0,0,0,1.29-.35,5.25,5.25,0,0,0,1.18-.65,5.09,5.09,0,0,0-1.3.35A5,5,0,0,0,190.46,287.72Zm12.43,4a5,5,0,0,0,.35,1.29,4.89,4.89,0,0,0,.66,1.18,5.2,5.2,0,0,0-.35-1.3A5,5,0,0,0,202.89,291.71Z" style="fill:#fff"></path><path d="M201.07,296.47l-7.29,4.26a122.64,122.64,0,0,1-8.44-9.63c-1.34-1.83-2-3.33-2-4.4Z" style="fill:#263238"></path><path d="M195.51,299.73c-.17.06-1.65.86-1.74.95-.66-.71-1.3-1.44-2-2.14-.33-.35-.67-.7-1-1s-.79-.83-1.13-1.16c0,0-.12,0-.07.07l1,1.23c.3.36.62.72.94,1.07.68.75,1.37,1.57,2.09,2.29a18.43,18.43,0,0,0,1.88-1.22S195.54,299.72,195.51,299.73Z" style="fill:#263238"></path><path d="M205.71,292c-2.14,1.06-4.26,2.14-6.34,3.33-1,.59-2.06,1.19-3.08,1.82s-2,1.35-3,1.95c-.06,0,0,.12,0,.09,1-.66,2.08-1.19,3.1-1.79s2.06-1.21,3.1-1.8c2.06-1.19,4.13-2.38,6.22-3.52C205.83,292,205.77,291.94,205.71,292Z" style="fill:#263238"></path><path d="M204.32,328.13s-14.26,5.65-42.6,7.3c0,0,5.86-36.53,13.31-47.23,3.39-4.86,7.4-4.78,11.12-2.51.93.57,13.11,12.12,14.64,16.54,1.35,3.91-1.27,8.84-1.27,8.84Z" style="fill:#FFC727"></path><path d="M173.79,317.12a4.77,4.77,0,0,1,.51-1.24,5.34,5.34,0,0,1-.19,1.33,5.15,5.15,0,0,1-.51,1.24A4.91,4.91,0,0,1,173.79,317.12Zm9.68-15.39a5.83,5.83,0,0,0,.7-2.58,5,5,0,0,0-.51,1.25A4.86,4.86,0,0,0,183.47,301.73Zm-17.42,31.66a5,5,0,0,0,.51-1.25,4.91,4.91,0,0,0,.19-1.33,5.39,5.39,0,0,0-.51,1.25A5.27,5.27,0,0,0,166.05,333.39Zm25.31-13.89a5.39,5.39,0,0,0,.51-1.25,4.91,4.91,0,0,0,.19-1.33,5,5,0,0,0-.51,1.25A5.27,5.27,0,0,0,191.36,319.5ZM177.86,288a5.12,5.12,0,0,0,.5-1.24,4.91,4.91,0,0,0,.19-1.33,5.57,5.57,0,0,0-.69,2.57ZM184,314.91a4.77,4.77,0,0,0-1.24-.51,4.91,4.91,0,0,0-1.33-.19,5.15,5.15,0,0,0,1.24.51A5.34,5.34,0,0,0,184,314.91Zm13.05-9.08a5.39,5.39,0,0,0-1.25-.51,4.91,4.91,0,0,0-1.33-.19,5,5,0,0,0,1.25.51A4.86,4.86,0,0,0,197.09,305.83ZM185.67,289.1a5.15,5.15,0,0,0-1.24-.51,4.91,4.91,0,0,0-1.33-.19,5.42,5.42,0,0,0,2.57.7Zm6.39,39.22a5.12,5.12,0,0,0-1.24-.5,4.91,4.91,0,0,0-1.33-.19,5.57,5.57,0,0,0,2.57.69ZM172.33,300.1a5.42,5.42,0,0,0-2.57-.7,4.77,4.77,0,0,0,1.24.51A4.91,4.91,0,0,0,172.33,300.1Zm1.41,27a5.83,5.83,0,0,0-2.58-.7,4.92,4.92,0,0,0,1.24.51A5,5,0,0,0,173.74,327.15Zm6.44-4.3a5.27,5.27,0,0,0,1.24-.53,5.12,5.12,0,0,0,1.08-.8,4.86,4.86,0,0,0-1.24.52A4.7,4.7,0,0,0,180.18,322.85Zm16.86-8.6a5.37,5.37,0,0,0,2.31-1.33,4.88,4.88,0,0,0-1.24.53A4.82,4.82,0,0,0,197,314.25Zm-21.16-8.11a5.48,5.48,0,0,0,2.32-1.33,5.24,5.24,0,0,0-1.24.52A5.54,5.54,0,0,0,175.88,306.14Zm12.41-9.33a5.17,5.17,0,0,0,1.23-.52,5,5,0,0,0,1.08-.81,5.37,5.37,0,0,0-2.31,1.33ZM164.92,322a4.86,4.86,0,0,0,1.24-.52,4.7,4.7,0,0,0,1.08-.81,4.88,4.88,0,0,0-1.24.53A5.12,5.12,0,0,0,164.92,322Zm3-13.3a5.37,5.37,0,0,0,1.33,2.31,5.27,5.27,0,0,0-.53-1.24A4.82,4.82,0,0,0,167.91,308.71ZM188,307.65a5.48,5.48,0,0,0,1.33,2.32,5.24,5.24,0,0,0-.52-1.24A5.54,5.54,0,0,0,188,307.65Zm10,16.14a5.78,5.78,0,0,0,1.33,2.32,5.24,5.24,0,0,0-.52-1.24A5.54,5.54,0,0,0,198,323.79Zm-18.74,5.58a5.24,5.24,0,0,0,.52,1.24,5,5,0,0,0,.81,1.08,4.88,4.88,0,0,0-.53-1.24A5.12,5.12,0,0,0,179.27,329.37Zm-2.41-35.12a5.49,5.49,0,0,0,1.32,2.31,4.86,4.86,0,0,0-.52-1.24A5.15,5.15,0,0,0,176.86,294.25Zm19.17,2.8a5.37,5.37,0,0,0,1.33,2.31,5.37,5.37,0,0,0-1.33-2.31Z" style="fill:#fff"></path><path d="M179.59,285.78c.15.77,3.59,5.85,7.07,5.82,1.14,0,1.35-6.21,1.35-6.21l.12-.45,1.68-6.35-7.34-5.12-1.06-.69s-.35,1.77-.76,4c0,.1,0,.2-.05.31s-.06.24-.08.36c-.06.33-.13.67-.18,1s-.09.51-.13.78-.08.53-.13.8A42.28,42.28,0,0,0,179.59,285.78Z" style="fill:#ffc4c0"></path><path d="M180.65,276.76a13.19,13.19,0,0,0,7.48,8.18l1.68-6.35-7.34-5.12-1.06-.69S181.06,274.55,180.65,276.76Z" style="fill:#263238"></path><path d="M198,266.34c3.67,10.94-2.47,14.37-4.82,15.16-2.15.71-9.53,2.88-14.31-7.62s-.85-15.66,4-17.55S194.33,255.41,198,266.34Z" style="fill:#ffc4c0"></path><path d="M180,274.46c1.15-.52,3-4.89.95-10.6,0,0,1.47,5.25,1.37,6.14s1-2.46-.55-7.08a19.76,19.76,0,0,0,5.6.66c2.39-.2,3.7-.72,3.8-.93s-3.46,0-4.69-.69c0,0,6.74.51,9.47-.29.31-.09-1.69-6.52-6.79-7.65s-10.49,4.19-11.6,6.53c0,0-1.94,1.06-3,4.92S178.73,275,180,274.46Z" style="fill:#b7483d"></path><path d="M180.21,277.92a2,2,0,0,0,.55,0,1.72,1.72,0,0,0,.53-.12,1.55,1.55,0,0,0,.6-.36,2,2,0,0,0,.34-.43,2.26,2.26,0,0,0,.27-.73l-1.34-2.85s-3.3-2.9-4.67-1.65S178.17,277.68,180.21,277.92Z" style="fill:#ffc4c0"></path><path d="M177.4,273.1s0,0,0,0a4.92,4.92,0,0,1,3.2,2.4,1.07,1.07,0,0,0-1.63.09s0,.08.05.06a1.21,1.21,0,0,1,1.38.1,5.64,5.64,0,0,1,.87.89c.09.1.28,0,.2-.14v0C181.09,274.85,179.23,272.83,177.4,273.1Z" style="fill:#263238"></path><path d="M180.25,277.41a.53.53,0,0,0,1-.45.54.54,0,0,0-.71-.26A.53.53,0,0,0,180.25,277.41Z" style="fill:#fff"></path><path d="M179,276.89a.38.38,0,0,0,.5.18.38.38,0,1,0-.32-.69A.38.38,0,0,0,179,276.89Z" style="fill:#fff"></path><path d="M195.58,264.76a7.17,7.17,0,0,1-.81.09,1.34,1.34,0,0,1-.84-.08.41.41,0,0,1-.16-.49,1.06,1.06,0,0,1,.91-.54,1.53,1.53,0,0,1,1.08.22A.45.45,0,0,1,195.58,264.76Z" style="fill:#b7483d"></path><path d="M188.55,267.39c.28,0,.53-.09.81-.14a1.3,1.3,0,0,0,.79-.29.42.42,0,0,0,0-.52,1,1,0,0,0-1-.28,1.51,1.51,0,0,0-1,.5A.45.45,0,0,0,188.55,267.39Z" style="fill:#b7483d"></path><path d="M195,268s.07,0,.08,0c.2.78.57,1.64,1.34,1.69,0,0,0,0,0,.05C195.54,270,195.07,268.81,195,268Z" style="fill:#263238"></path><path d="M195.45,267c1.22-.46,2.05,2,.92,2.43S194.43,267.42,195.45,267Z" style="fill:#263238"></path><path d="M196,267c.24.07.51.24.75.17s.38-.4.47-.72c0,0,0,0,0,0,.17.46.18,1-.24,1.25s-.83-.08-1.1-.51C195.9,267.15,195.92,267,196,267Z" style="fill:#263238"></path><path d="M192.53,275.93a1.17,1.17,0,0,0,.77.29,2.06,2.06,0,0,0,.79-.41s0,0,0,0a1.09,1.09,0,0,1-.88.68.85.85,0,0,1-.79-.53C192.44,275.94,192.49,275.91,192.53,275.93Z" style="fill:#263238"></path><path d="M194.79,271.86s.58,1.27.75,1.81a3.62,3.62,0,0,1-3.17-.15c-.06,0,0-.12.06-.1a4.07,4.07,0,0,0,2.56,0c0-.16-1-1.91-.88-1.94a5,5,0,0,1,1.32-.11c-1-2.31-2-3.72-3-6,0-.08.08-.15.13-.08a32.34,32.34,0,0,1,3.53,6.41C196.27,271.94,195,271.89,194.79,271.86Z" style="fill:#263238"></path><path d="M195.05,273.66a3.26,3.26,0,0,1-1,1.38,1.5,1.5,0,0,1-.84.33c-.67,0-.87-.53-.91-1.06a3.25,3.25,0,0,1,0-.83A4.25,4.25,0,0,0,195.05,273.66Z" style="fill:#263238"></path><path d="M194.1,275a1.5,1.5,0,0,1-.84.33c-.67,0-.87-.53-.91-1.06A1.53,1.53,0,0,1,194.1,275Z" style="fill:#ff98b9"></path><path d="M188.42,269.59a2.39,2.39,0,0,1,.7-.28,2.84,2.84,0,0,1,.77-.08,2.21,2.21,0,0,1,.79.21,1.85,1.85,0,0,1,.65.53l.31.41-.52,0a5.06,5.06,0,0,0-1.08.17,2.26,2.26,0,0,0-1,.52,1.68,1.68,0,0,1,.84-.9,3.16,3.16,0,0,1,1.21-.33l-.2.43a1.86,1.86,0,0,0-1.07-.61A5.39,5.39,0,0,0,188.42,269.59Z" style="fill:#263238"></path><path d="M190.18,271.38a4.79,4.79,0,0,0,1-.58c.07-.07.34-.34.32-.4a2.26,2.26,0,0,0-.29-.52,1.45,1.45,0,0,1,.4.48.75.75,0,0,1-.32.57A2.33,2.33,0,0,1,190.18,271.38Z" style="fill:#263238"></path><path d="M172.42,292c-6.88,12.75-14.83,33.87-9.85,38.57,6.39,6,27,16,33.47,17.29,2.49.51,12.18-17.24,9.75-18.45-3.52-1.74-28.65-9.56-29.09-11.16-.26-.91,1.72-12.28,2.73-22.56C180.6,283.79,174.38,288.31,172.42,292Z" style="fill:#ffc4c0"></path><path d="M202.07,329.15s7.72.22,12.76.6c2.81.21,7.59,1,9.59,2.1,3,1.64,14.4,10.42,12.34,13.24-1.88,2.55-10.74-6.24-10.74-6.24s9.73,8.08,6.91,10.73S221.42,341,221.42,341s9.8,8.53,6.46,10.81c-2.53,1.72-11-8-11-8s8.38,7.39,5.86,9.27c-2.79,2.08-11.15-6.44-11.15-6.44-7.21,3.7-12.16,2.52-15.58,1.25C195.21,347.52,202.07,329.15,202.07,329.15Z" style="fill:#ffc4c0"></path><path d="M222.84,335.84c1.18.9,2.37,1.82,3.47,2.83s2.14,2.05,3.14,3.16a25.53,25.53,0,0,1,3.45,4.67A55.27,55.27,0,0,0,226,339c-1.09-1-2.13-2.06-3.22-3.07A0,0,0,1,1,222.84,335.84Z" style="fill:#263238"></path><path d="M219.12,339.71c1.46,1.23,2.94,2.39,4.34,3.68s2.6,2.62,3.9,4c.1.11,0,.13-.1,0-1.35-1.33-2.7-2.44-4.07-3.75s-2.69-2.67-4.1-3.92A0,0,0,1,1,219.12,339.71Z" style="fill:#263238"></path><path d="M215.34,342.46a42.77,42.77,0,0,1,6.2,6.13c.09.11,0,.12-.13,0-2-2.08-3.6-3.72-6.14-6.07C215.24,342.51,215.29,342.43,215.34,342.46Z" style="fill:#263238"></path><path d="M163.48,306.61l16.17-2.68a125.21,125.21,0,0,0,.35-12.8c-.39-6.08-2.73-7.37-7.29-1.45C169.67,293.64,163.48,306.61,163.48,306.61Z" style="fill:#FFC727"></path><path d="M178.05,286.7a5.45,5.45,0,0,1,.21-.65,1.6,1.6,0,0,1,.23.16,4.76,4.76,0,0,1-.13.57,5,5,0,0,1-.5,1.25A4.8,4.8,0,0,1,178.05,286.7Zm-5.72,13.4a5.42,5.42,0,0,0-2.57-.7,4.77,4.77,0,0,0,1.24.51A4.91,4.91,0,0,0,172.33,300.1Zm4.53-5.85a5.49,5.49,0,0,0,1.32,2.31,4.86,4.86,0,0,0-.52-1.24A5.15,5.15,0,0,0,176.86,294.25Z" style="fill:#fff"></path><path d="M177.68,304.26c.17-.06,1.82-.39,1.94-.38,0-1,.09-1.93.15-2.9,0-.48.07-1,.12-1.45s.08-1.14.12-1.61c0-.07.1-.07.1,0,0,.62,0,1.08,0,1.61s0,1,0,1.44c-.05,1-.05,2.08-.15,3.08a15.3,15.3,0,0,1-2.23.27S177.65,304.27,177.68,304.26Z" style="fill:#263238"></path><path d="M164.87,304.8c2.32-.55,4.65-1.07,7-1.48,1.17-.21,2.35-.4,3.53-.57s2.38-.22,3.55-.41c.07,0,.08.1,0,.1-1.18.13-2.35.42-3.53.61s-2.35.38-3.53.59c-2.34.4-4.69.8-7,1.26C164.81,304.92,164.81,304.82,164.87,304.8Z" style="fill:#263238"></path></g><g id="freepik--character-1--inject-187"><path d="M177.36,467.39c-1.75.24-50-9.08-51.58-10.56-.19-.17.56-4.55,1.69-10.53l0-.12c.7-3.79,13.31-34.75,13.31-34.75l31.33,7.3L159.28,447.5s6,4,11.17,7.74l0,0a67.82,67.82,0,0,1,6.54,5.09C178.55,462.15,179.11,467.16,177.36,467.39Z" style="fill:#ffc4c0"></path><path d="M177.36,467.38c-1.74.25-50-9.07-51.58-10.55-.19-.17.57-4.55,1.69-10.53l0-.12c.26-1.41,2.18-6.6,4.48-12.56,5.15,1.15,23.63,5.3,30.35,7.06l-3,6.82s6,4,11.18,7.74h0a70.8,70.8,0,0,1,6.54,5.1C178.55,462.16,179.11,467.16,177.36,467.38Z" style="fill:#fff"></path><path d="M177.53,467.61c-1.8.23-50.1-9.22-51.71-10.74-.62-.58.12-8.17,2.39-16.27l31.13,6.13s16.27,11.78,17.86,13.64S179.33,467.37,177.53,467.61Z" style="fill:#FFC727"></path><path d="M177.21,465.54c-8.05-1.78-40.72-8.21-48.82-9.36-.07,0-.07,0,0,.05,8,1.94,40.67,8.1,48.81,9.44C177.36,465.7,177.38,465.58,177.21,465.54Z" style="fill:#263238"></path><path d="M174.44,458a6.66,6.66,0,0,0-5.24,1,6.41,6.41,0,0,0-2.65,4c0,.05.08.07.1,0a7.66,7.66,0,0,1,7.77-4.92A.05.05,0,0,0,174.44,458Z" style="fill:#263238"></path><path d="M161.72,448c-3.23-.68-7.21-.27-9.74,2-.1.09,0,.23.13.2a45.16,45.16,0,0,1,9.59-1.77A.21.21,0,0,0,161.72,448Z" style="fill:#263238"></path><path d="M164,449.5c-3.23-.68-7.21-.27-9.74,2-.1.08,0,.22.13.19a45.8,45.8,0,0,1,9.59-1.77A.21.21,0,0,0,164,449.5Z" style="fill:#263238"></path><path d="M166.34,451c-3.23-.68-7.21-.27-9.74,2-.1.09,0,.23.13.2a45.28,45.28,0,0,1,9.59-1.77A.21.21,0,0,0,166.34,451Z" style="fill:#263238"></path><path d="M168.65,452.43c-3.23-.68-7.21-.27-9.74,2-.1.08,0,.22.13.19a45.28,45.28,0,0,1,9.59-1.77A.21.21,0,0,0,168.65,452.43Z" style="fill:#263238"></path><path d="M132,448.89c-3.64-.7-4.74,4.95-1.09,5.65S135.6,449.59,132,448.89Z" style="fill:#263238"></path><path d="M166.91,440.07c-1.37-1.68-3.7-.75-5,.46a17.45,17.45,0,0,0-4.56,7.71.09.09,0,0,0,.08.12c0,.24.26.49.53.37,2.62-1.14,5.57-2,7.76-4C167,443.66,168.21,441.66,166.91,440.07Zm-5.32,6.11c-1.27.6-2.57,1.13-3.82,1.77a52.29,52.29,0,0,1,2.76-4.45,20.08,20.08,0,0,1,1.61-1.95c.92-.93,4.63-3,4.26.57C166.2,444.1,163.11,445.48,161.59,446.18Z" style="fill:#263238"></path><path d="M149.07,447.87c2.74,1,5.81.75,8.66.86a.4.4,0,0,0,.36-.54s.08-.08,0-.13a17.24,17.24,0,0,0-7.06-5.52c-1.64-.67-4.15-.68-4.81,1.39S147.48,447.29,149.07,447.87Zm-1.59-2.23c-1.65-3.21,2.56-2.61,3.75-2.08a18.51,18.51,0,0,1,2.22,1.24c1.48.93,2.81,2.06,4.19,3.13-1.4-.14-2.8-.16-4.2-.25C151.77,447.57,148.39,447.41,147.48,445.64Z" style="fill:#263238"></path><path d="M162.67,444.78l-33.6-8.49s24.82-58.16,23.83-61c-.66-1.91-41.65-.24-54.14-10.49-12.92-10.62-4.29-34.9-4.29-34.9l34.44-1.7s-.19,9.15,1.18,10.21c.9.71,48.19,2.77,58,19.7C197,373.45,162.67,444.78,162.67,444.78Z" style="fill:#263238"></path><path d="M163.18,437.72a20,20,0,0,0-2.75-.88l-2.91-.84c-1.92-.52-3.85-1-5.78-1.48-3.9-.92-7.81-1.81-11.73-2.63-2-.42-6.42-1.35-6.69-1.3a.15.15,0,0,0,0,.28C137.1,432,141,433,144.81,434s7.71,2,11.6,2.77c1.08.22,2.16.41,3.24.62a23.67,23.67,0,0,0,3.45.58C163.21,438,163.31,437.78,163.18,437.72Z" style="fill:#37474f"></path><path d="M96.69,338.29c.06-1.15.14-2.31.22-3.46,0-.13.21-.14.21,0-.26,4.68-.52,9.47.54,14.07a20.09,20.09,0,0,0,6.65,10.88c7.12,6.07,16.76,7.53,25.73,8.65,5.14.64,10.3,1.08,15.47,1.36q3.8.21,7.61.28c2.51,0,5-.05,7.54,0,.79,0,1.51.34,1.43,1.25a6.23,6.23,0,0,1-.54,1.61l-.72,1.86-2.73,7q-2.83,7.15-5.77,14.27-5.81,14.14-12.11,28.07l-1.57,3.46c0,.07-.14,0-.11-.07q6-14.08,11.8-28.24,2.9-7,5.75-14.07,1.42-3.51,2.83-7c.47-1.17.94-2.35,1.4-3.53.23-.58.47-1.17.7-1.76s.92-1.68.36-2.1c-.37-.29-1.11-.15-1.54-.14l-2,0c-1.26,0-2.53,0-3.8,0q-3.85,0-7.7-.19c-5-.21-10.05-.62-15.05-1.2-8.91-1-18.61-2.22-25.95-7.85a21.22,21.22,0,0,1-7.23-9.6C96.55,347.46,96.48,342.8,96.69,338.29Z" style="fill:#37474f"></path><path d="M153.09,475.27c-1.72-.37-44-25.49-44.94-27.42-.13-.22,2.06-4.08,5.15-9.33l.06-.1c1.94-3.33,17.65-32.3,17.65-32.3l26.63,15.4-14.82,28.91s4.31,5.76,7.89,11.07v0a67.57,67.57,0,0,1,4.42,7C156,470.75,154.81,475.64,153.09,475.27Z" style="fill:#ffc4c0"></path><path d="M153.1,475.27c-1.73-.37-44-25.49-44.95-27.42-.13-.21,2.06-4.09,5.15-9.33l.06-.1.4-.71c.1-.17.2-.34.29-.52s.28-.51.43-.76c1.24-2.24,3.24-5.89,5.42-9.89L147,442.28l-4.18,8.16s4.31,5.75,7.89,11.06v0a67.57,67.57,0,0,1,4.42,7C156,470.75,154.82,475.64,153.1,475.27Z" style="fill:#fff"></path><path d="M153.18,475.53c-1.77-.39-44-25.64-45-27.62-.38-.75,2.88-7.65,7.77-14.5l27.21,16.31s11.32,16.6,12.18,18.89S155,475.92,153.18,475.53Z" style="fill:#FFC727"></path><path d="M153.58,473.48c-7-4.41-35.53-21.53-42.76-25.35-.06,0-.08,0,0,0,6.82,4.52,35.51,21.41,42.72,25.43C153.66,473.68,153.73,473.57,153.58,473.48Z" style="fill:#263238"></path><path d="M153.51,465.47a6.61,6.61,0,0,0-5.27-.81,6.45,6.45,0,0,0-3.84,2.84s0,.09.09.05a7.66,7.66,0,0,1,9-2C153.52,465.58,153.57,465.5,153.51,465.47Z" style="fill:#263238"></path><path d="M144.93,451.76c-2.81-1.73-6.69-2.7-9.84-1.43-.12.05-.05.22.06.23a45.47,45.47,0,0,1,9.62,1.58A.21.21,0,0,0,144.93,451.76Z" style="fill:#263238"></path><path d="M146.61,453.92c-2.81-1.73-6.69-2.69-9.84-1.43-.12.05-.05.22.06.23a45.47,45.47,0,0,1,9.62,1.58A.21.21,0,0,0,146.61,453.92Z" style="fill:#263238"></path><path d="M148.29,456.08c-2.81-1.73-6.69-2.69-9.84-1.43-.12.05,0,.22.06.23a45.58,45.58,0,0,1,9.62,1.58A.21.21,0,0,0,148.29,456.08Z" style="fill:#263238"></path><path d="M150,458.25c-2.81-1.74-6.7-2.7-9.84-1.44-.13.05,0,.22.06.23a45.58,45.58,0,0,1,9.62,1.58A.2.2,0,0,0,150,458.25Z" style="fill:#263238"></path><path d="M116.64,442.48c-3.18-1.89-6.13,3-2.94,4.95S119.83,444.38,116.64,442.48Z" style="fill:#263238"></path><path d="M152.52,446c-.73-2-3.23-2-4.85-1.26a17.37,17.37,0,0,0-6.91,5.71.08.08,0,0,0,0,.13c-.06.24.08.56.37.54,2.86-.19,5.93,0,8.64-1.1C151.39,449.43,153.2,448,152.52,446Zm-7.08,4c-1.4.12-2.8.18-4.19.36,1.35-1.11,2.64-2.27,4.1-3.25a20.8,20.8,0,0,1,2.18-1.29c1.18-.57,5.38-1.27,3.81,2C150.48,449.57,147.11,449.82,145.44,450Z" style="fill:#263238"></path><path d="M133.09,447.32c2.24,1.85,5.21,2.67,7.86,3.75.27.11.5-.15.52-.39a.09.09,0,0,0,.08-.12,17.41,17.41,0,0,0-4.77-7.58c-1.32-1.18-3.67-2-5-.33S131.78,446.24,133.09,447.32Zm-.74-2.64c-.47-3.57,3.3-1.59,4.24-.68a18.93,18.93,0,0,1,1.66,1.91,50.68,50.68,0,0,1,2.88,4.37c-1.27-.61-2.58-1.1-3.87-1.66C135.73,448,132.6,446.66,132.35,444.68Z" style="fill:#263238"></path><path d="M146.64,448.49l-30-17.12s28.22-52.41,25.24-55.66c-4-4.34-36.51,1.13-47.74-10-13.69-13.56-3-35.7-3-35.7l37.41-1.68a44.83,44.83,0,0,1-1.76,12.34s43.79-1.3,52,11.07C194.39,375.56,146.64,448.49,146.64,448.49Z" style="fill:#263238"></path><path d="M148.46,441a21.38,21.38,0,0,0-2.4-1.61c-.86-.54-1.71-1.08-2.58-1.6-1.7-1-3.41-2-5.15-3-3.49-2-7-3.89-10.55-5.75-1.85-1-5.81-3.07-6.08-3.09s-.21.19-.1.26c3.33,2.17,6.77,4.18,10.21,6.19s6.87,4,10.39,5.85c1,.51,2,1,3,1.49a24.54,24.54,0,0,0,3.15,1.5C148.41,441.22,148.56,441,148.46,441Z" style="fill:#37474f"></path><path d="M126.57,340.44c5.22,0,24.44.62,29.58,1.57,2.38.43,17.13,1.43,23.26,10.34,2.13,3.09,2.56,7,2.58,10.67a60.11,60.11,0,0,1-1.23,11.88,133.69,133.69,0,0,1-7.15,22.94A222,222,0,0,1,164,419.18a177.52,177.52,0,0,1-12.06,20.14c-.52.75-1.06,1.5-1.61,2.23,0,.06-.14,0-.1-.07,2-3.29,4-6.53,5.95-9.85s3.79-6.68,5.58-10.07q5.35-10.11,9.7-20.7A163.61,163.61,0,0,0,179,378.59,70.33,70.33,0,0,0,181,366.88c.27-3.73.31-7.66-.92-11.24-2.19-6.34-8.52-9.53-14.54-11.33-.55-.13-1.11-.24-1.66-.35-2.36-.48-4.74-.84-7.13-1.13-10.47-1.26-27.34-1.73-30.18-2.12C126.39,340.69,126.42,340.44,126.57,340.44Z" style="fill:#37474f"></path><path d="M92,336.92c.29-1.12.59-2.23.94-3.33a.06.06,0,1,1,.11,0c-2.08,8.6-3.11,18.27,1.52,26.26a18.27,18.27,0,0,0,8.32,7.71c4.24,1.86,9.09,2,13.63,2.37,5,.39,10,.65,15,.83q3.75.15,7.52.19c1.86,0,4.14-.21,5.47,1.38,1.08,1.29,1,3.15.75,4.72a48.23,48.23,0,0,1-1.7,6.23c-1.38,4.41-3,8.74-4.84,13a270.24,270.24,0,0,1-12.49,25c-.55,1-1.14,2-1.71,3,0,.07-.14,0-.1-.06,4.2-8.31,8.52-16.58,12.31-25.08,1.9-4.25,3.65-8.57,5.17-13,.75-2.2,1.46-4.42,2.1-6.66.49-1.76,1.14-3.73.66-5.56a2.79,2.79,0,0,0-1.64-2,8.21,8.21,0,0,0-3.2-.31c-2.51,0-5,0-7.53,0-5-.09-10-.34-14.93-.7-2.38-.17-4.76-.35-7.13-.63a28.62,28.62,0,0,1-6.6-1.45,18.68,18.68,0,0,1-8.77-6.95C89.77,354.58,89.78,345.25,92,336.92Z" style="fill:#37474f"></path><path d="M107.49,333.77a2,2,0,0,1-.16.43.07.07,0,0,0,0,.08c-.36,1.31-.47,2.7-.81,4a6.26,6.26,0,0,1-2.26,3.54c-2.38,1.82-5.31,2.72-8.13,3.56a.08.08,0,0,0,0,.16,15.79,15.79,0,0,0,4.85-1,12.79,12.79,0,0,0,4-2.15,6.47,6.47,0,0,0,2.21-3.66,22.66,22.66,0,0,0,.31-2.3,17.35,17.35,0,0,0,.16-2.69A.12.12,0,0,0,107.49,333.77Z" style="fill:#37474f"></path><path d="M131.53,337.92a36.15,36.15,0,0,0-5.61,2.43l-.08,0a2,2,0,0,0,.07-.35l0-.41c0-.14,0-.29,0-.43V339a1.66,1.66,0,0,0,1.19-.68,4.41,4.41,0,0,0,.68-1.83c.18-.82.34-1.64.48-2.47s.29-1.84.39-2.77a18,18,0,0,0,.19-2.74.13.13,0,0,0-.25,0c-.18.85-.24,1.72-.36,2.58s-.26,1.72-.42,2.57-.33,1.71-.53,2.56-.33,1.85-1.19,2.13c-1.75.58-1.13-3.45-1.09-4.23.1-1.82.13-3.67.37-5.47a.06.06,0,0,0-.12,0c-.31,1.67-.68,3.3-.9,5-.11.82-.18,1.65-.23,2.48a3.84,3.84,0,0,0,.26,2.12,1.56,1.56,0,0,0,1.21.81l0,.19a3.06,3.06,0,0,0-.1.41c0,.13-.05.27-.08.4a1.07,1.07,0,0,0,0,.5.19.19,0,0,0,.1.1c-.75.37-1.49.73-2.23,1.11a20.34,20.34,0,0,0-2.68,1.45c-.1.05,0,.19.09.17a21,21,0,0,0,2.82-1.17c.93-.4,1.86-.83,2.78-1.27a36.12,36.12,0,0,0,5.31-2.76A.09.09,0,0,0,131.53,337.92Z" style="fill:#37474f"></path><path d="M104.26,276.77c-2.24-.39-7.87,1.45-9.65,4.49s-1.4,7.83-.4,8.26,5.21-.13,8-1.86S105.37,277,104.26,276.77Z" style="fill:#263238"></path><path d="M104.27,276.79c.07,0,.08-.15,0-.15a20.38,20.38,0,0,0-5.82,1.41,11.13,11.13,0,0,0-4.14,2.14,5.17,5.17,0,0,0-1.72,4,10.64,10.64,0,0,0,1.26,5.25s.11,0,.09,0c-1-3.2-2-7.11,1.12-9.46C97.69,278,101.18,277.6,104.27,276.79Z" style="fill:#263238"></path><path d="M94.5,288.66c-1.93.34-6.81,4.25-7.49,8s2.55,9,3.52,9.4,5.1-3.38,6.38-6c.86-1.77,0-3.76-.48-5.76C95.67,291.3,94.8,288.61,94.5,288.66Z" style="fill:#263238"></path><path d="M98.05,299.49c.41-3.79-1.88-7.41-3.31-10.75,0,0-.08,0-.07,0,.86,3.22,3,6.06,3.15,9.47a6.25,6.25,0,0,1-2.1,5.35A18.32,18.32,0,0,1,90.88,306c-.11,0,0,.2.08.16C94.25,304.88,97.63,303.39,98.05,299.49Z" style="fill:#263238"></path><path d="M94.09,289c.1-.06,0-.21-.07-.16-2.7,1.43-5.94,3.49-7.29,6.34-1.46,3.1.28,6.2,1.82,8.87,0,0,.08,0,.06,0-1.53-2.71-3.17-6.08-1.48-9.11C88.58,292.33,91.55,290.42,94.09,289Z" style="fill:#263238"></path><path d="M90.83,305.81c-2.9,1.28-6.63,3.39-6.71,6.29s2.2,7.78,2.51,7.86,6-1.83,7.79-4.9S91.21,305.64,90.83,305.81Z" style="fill:#263238"></path><path d="M86.81,320.23c-1.66-2.29-3.53-5.32-3-8.29S88,307.12,90.38,306a0,0,0,1,0,0,0c-2.57.91-6.05,2.85-6.72,5.73s1.13,6.58,3.09,8.59C86.78,320.34,86.85,320.28,86.81,320.23Z" style="fill:#263238"></path><path d="M86.66,319.67A8.25,8.25,0,0,0,83,325.1c-.82,4.44-2.48,3.54-7.37,4.64a4.84,4.84,0,0,0-2.92,7.83,3.19,3.19,0,0,1,1.57-4.2c3.34-1.61,10.85,2,14.71-2.62C93.93,324.78,86.66,319.67,86.66,319.67Z" style="fill:#263238"></path><path d="M84.88,321.7c.05-.06,0-.16-.11-.1a6.54,6.54,0,0,0-1.37,1.92c-.43.93-.47,2-.83,2.91-.93,2.42-3.88,2.29-6,2.41-2.87.15-5.2,1.87-5.43,4.88a0,0,0,0,0,.07,0,5.11,5.11,0,0,1,3.11-4.28c1.69-.68,3.57-.28,5.32-.67a4,4,0,0,0,3-1.9,10.21,10.21,0,0,0,.57-2A7,7,0,0,1,84.88,321.7Z" style="fill:#263238"></path><path d="M87.4,320.22s-.06,0,0,0c1.6,1.63,3.29,3.27,3.72,5.63a6.83,6.83,0,0,1-2.89,6.52c-2.25,1.67-4.61.82-7.09.29a10.23,10.23,0,0,0-5.38,0c-.06,0,0,.11,0,.1,2.84-.61,5.43.28,8.2.77a5.57,5.57,0,0,0,5.57-2.1C92.82,327.59,90.91,323.1,87.4,320.22Z" style="fill:#263238"></path><path d="M102.47,274.82c-.65-.76-1.81.27-1.15,1S103.13,275.57,102.47,274.82Z" style="fill:#FFC727"></path><path d="M103.13,276.1c-.65-.76-1.81.27-1.16,1S103.78,276.85,103.13,276.1Z" style="fill:#FFC727"></path><path d="M104,277.26c-.65-.76-1.81.27-1.16,1S104.66,278,104,277.26Z" style="fill:#FFC727"></path><path d="M105,278.26c-.65-.75-1.81.27-1.16,1S105.65,279,105,278.26Z" style="fill:#FFC727"></path><path d="M106.18,279.1c-.65-.75-1.81.27-1.16,1S106.83,279.86,106.18,279.1Z" style="fill:#FFC727"></path><path d="M107.44,279.69c-.65-.75-1.81.27-1.16,1S108.09,280.45,107.44,279.69Z" style="fill:#FFC727"></path><path d="M109.7,294.21c6.54,3.39,39.86,12.83,52.42,2.48,4.27-3.51-9-21.15-30.46-32.51-.63-.33-12.46,11.45-10,14.59.26.34,8.68,7.16,8.84,6.71s-7,.69-19,2.74C105.88,289.19,105.8,292.18,109.7,294.21Z" style="fill:#ad6359"></path><path d="M129.91,284.79c4.32,3.49,8.7,6.9,13.18,10.19l3.73,2.76s0,.1-.06.08a80.28,80.28,0,0,1-7-4.58c-2.22-1.62-4.43-3.32-6.48-5.15-1.18-1.06-2.34-2.13-3.48-3.23A0,0,0,1,1,129.91,284.79Z" style="fill:#263238"></path><path d="M135.34,266.51s-5.74-4.26-11-5.21c-3.67-.67-9.11-2-16.38,6.4-1.72,2-2.92,7.81-.78,8.21s2.51-5.14,5.43-7.48c0,0-.83,5.16,1.24,6.81a48.34,48.34,0,0,0,5.72,3.92,10.1,10.1,0,0,0,.83-1s2,1.48,5.72.9Z" style="fill:#ad6359"></path><path d="M120.69,261.22a29.25,29.25,0,0,0-7.45,6c-2.51,3.1-6.5,9.75-4.19,11.57,1.69,1.34,3.43-1.06,3.43-1.06s-1.07,3.1.73,4c1.63.8,2.87-1.14,2.87-1.14s-.33,2,1.39,2.45c2.07.56,2.81-4.82,5.4-6.06C123.45,276.65,120.69,261.22,120.69,261.22Z" style="fill:#ad6359"></path><path d="M117,269.31a15.89,15.89,0,0,0-4.5,8.32c0,.09,0,.14.07.07a39.05,39.05,0,0,1,4.46-8.37S117,269.29,117,269.31Z" style="fill:#263238"></path><path d="M113.21,266.78a15.89,15.89,0,0,0-4.5,8.32c0,.09,0,.14.07.07a39.05,39.05,0,0,1,4.46-8.37S113.23,266.76,113.21,266.78Z" style="fill:#263238"></path><path d="M120,271.93a17.8,17.8,0,0,0-4,8.58c0,.08,0,.13.08.06a41.45,41.45,0,0,1,4-8.62S120,271.91,120,271.93Z" style="fill:#263238"></path><path d="M121,278.7a7.62,7.62,0,0,1,3.13-3.45,0,0,0,0,1,0,.08c-.93.92-1.65,1.73-1.67,1.75,2.43.79,5.31-.07,6.48-.53.07,0,.11.09.05.13a6.65,6.65,0,0,1-6.64.53c-.19.23-1.18,1.42-1.34,1.52S121,278.73,121,278.7Z" style="fill:#263238"></path><path d="M132.19,301.17l-2.27-15.83A140.24,140.24,0,0,0,111,287.69c-9,1.88-6.2,5.73,1.31,8.45S132.19,301.17,132.19,301.17Z" style="fill:#455a64"></path><path d="M120.72,288.49a1,1,0,1,0,1.33-.34A1,1,0,0,0,120.72,288.49Zm1.5.9a.77.77,0,0,1-1.07.26.78.78,0,0,1-.27-1.07.77.77,0,0,1,1.07-.26A.78.78,0,0,1,122.22,289.39ZM116,296.82a.9.9,0,0,0-.13.47l.18.06a.75.75,0,0,1,.11-.43.77.77,0,0,1,1.06-.27.78.78,0,0,1,.27,1.07s0,0,0,0l.2.06a1,1,0,0,0-1.66-1Zm-7.52-3.89a1,1,0,1,0,1.33-.33A1,1,0,0,0,108.48,292.93Zm1.5.9a.78.78,0,1,1-.27-1.07A.78.78,0,0,1,110,293.83Zm-1.33-5.52-.48.17a.94.94,0,0,0,1-.34Zm6.33,2.14a1,1,0,1,0,1.33-.33A1,1,0,0,0,115,290.45Zm1.5.9a.78.78,0,1,1-.26-1.07A.77.77,0,0,1,116.48,291.35Zm5.22,2.8a1,1,0,1,0,1.33-.33A1,1,0,0,0,121.7,294.15Zm1.5.9a.78.78,0,1,1-.27-1.07A.78.78,0,0,1,123.2,295.05Zm4.17-3.9a1,1,0,1,0,1.33-.32A1,1,0,0,0,127.37,291.15Zm1.5.9a.78.78,0,1,1-.27-1.06A.77.77,0,0,1,128.87,292.05Zm.74,5.13a1,1,0,1,0,1.66,1,1,1,0,1,0-1.66-1Zm1.5.9a.78.78,0,1,1-1.34-.8.78.78,0,1,1,1.34.8Zm-3.47-12.7a.76.76,0,0,1,.18,1,.78.78,0,1,1-1.34-.8.36.36,0,0,1,.08-.09l-.25,0a1,1,0,1,0,1.58-.15Z" style="fill:#fff"></path><path d="M127.42,286.24a131.07,131.07,0,0,0,1.31,13.42c0,.07.12,0,.12,0a128.75,128.75,0,0,0-1.3-13.43C127.54,286.15,127.42,286.17,127.42,286.24Z" style="fill:#263238"></path><path d="M132.19,301.17s-12.36-2.31-19.87-5a17.09,17.09,0,0,1-6-3.3c4.59.39,18.64,1.62,25,2.19Z" style="fill:#263238"></path><path d="M130.15,332.11a224.91,224.91,0,0,1-43.27,8.58s5-37.42,12.32-48.53c3.33-5.06,7.43-5.08,11.29-2.86,1,.56,13.69,12,15.37,16.49,1.48,3.94-1.06,9-1.06,9Z" style="fill:#455a64"></path><path d="M106.76,289.29a1,1,0,0,0,0,1.94,1,1,0,0,0,0-1.94Zm0,1.75a.78.78,0,1,1,.78-.78A.78.78,0,0,1,106.76,291ZM103,294.42a1,1,0,1,0,1,1A1,1,0,0,0,103,294.42Zm0,1.75a.78.78,0,1,1,.78-.78A.78.78,0,0,1,103,296.17Zm-5,18a1,1,0,1,0,1,1A1,1,0,0,0,98,314.13Zm0,1.75a.78.78,0,1,1,.77-.78A.77.77,0,0,1,98,315.88Zm0-9.82a1,1,0,1,0,1,1A1,1,0,0,0,98,306.06Zm0,1.74a.78.78,0,1,1,.77-.78A.77.77,0,0,1,98,307.8Zm-.42-9.61a1,1,0,1,0,1,1A1,1,0,0,0,97.55,298.19Zm0,1.75a.78.78,0,1,1,.78-.78A.78.78,0,0,1,97.55,299.94Zm4.94,2.06a1,1,0,1,0,1,1A1,1,0,0,0,102.49,302Zm0,1.74a.78.78,0,1,1,.78-.78A.78.78,0,0,1,102.49,303.74Zm19.05-2a1,1,0,1,0,1,1A1,1,0,0,0,121.54,301.75Zm0,1.75a.78.78,0,1,1,.78-.78A.78.78,0,0,1,121.54,303.5ZM115.27,333a1,1,0,1,0,1,1A1,1,0,0,0,115.27,333Zm0,1.75a.78.78,0,1,1,.78-.78A.78.78,0,0,1,115.27,334.79Zm-10.9-1.35a1,1,0,1,0,1,1A1,1,0,0,0,104.37,333.44Zm0,1.75a.78.78,0,1,1,.78-.78A.78.78,0,0,1,104.37,335.19ZM112,302a1,1,0,0,0,0,1.93,1,1,0,1,0,0-1.93Zm0,1.74a.78.78,0,1,1,.78-.78A.77.77,0,0,1,112,303.74Zm.88,6.48a1,1,0,1,0,1,1A1,1,0,0,0,112.84,310.22Zm0,1.75a.78.78,0,1,1,.78-.78A.78.78,0,0,1,112.84,312Zm.34,5.79a1,1,0,1,0,1,1A1,1,0,0,0,113.18,317.76Zm0,1.74a.78.78,0,1,1,0-1.55.78.78,0,1,1,0,1.55Zm-1.75-25.95a1,1,0,1,0,1,1A1,1,0,0,0,111.43,293.55Zm0,1.75a.78.78,0,1,1,.78-.78A.77.77,0,0,1,111.43,295.3Zm-3.8,2.55a1,1,0,1,0,1,1A1,1,0,0,0,107.63,297.85Zm0,1.75a.78.78,0,0,1,0-1.56.78.78,0,0,1,0,1.56Zm-.23,6.79a1,1,0,1,0,1,1A1,1,0,0,0,107.4,306.39Zm0,1.75a.79.79,0,0,1-.77-.78.78.78,0,1,1,1.55,0A.79.79,0,0,1,107.4,308.14Zm-14.28,2.44a1,1,0,0,0-.64.24c-.09.36-.18.71-.26,1.06h0a1,1,0,0,0,.9.63,1,1,0,1,0,0-1.94Zm0,1.75a.78.78,0,1,1,.78-.78A.79.79,0,0,1,93.12,312.33Zm5.3,9.81a1,1,0,1,0,0,1.94,1,1,0,1,0,0-1.94Zm0,1.75a.78.78,0,1,1,.78-.78A.78.78,0,0,1,98.42,323.89Zm5.07,2.45a1,1,0,1,0,1,1A1,1,0,0,0,103.49,326.34Zm0,1.74a.78.78,0,1,1,0-1.55.78.78,0,1,1,0,1.55Zm5.42,1.81a1,1,0,1,0,1,1A1,1,0,0,0,108.91,329.89Zm0,1.75a.78.78,0,1,1,.78-.78A.77.77,0,0,1,108.91,331.64ZM98,336.86a1,1,0,1,0,1,1A1,1,0,0,0,98,336.86Zm0,1.74a.78.78,0,1,1,.77-.78A.77.77,0,0,1,98,338.6ZM108,314.13a1,1,0,1,0,1,1A1,1,0,0,0,108,314.13Zm0,1.75a.78.78,0,1,1,.78-.78A.77.77,0,0,1,108,315.88Zm-4.18,2.32a1,1,0,1,0,1,1A1,1,0,0,0,103.86,318.2Zm0,1.75a.78.78,0,1,1,.78-.78A.78.78,0,0,1,103.86,320Zm-5.58,9.94a1,1,0,1,0,1,1A1,1,0,0,0,98.28,329.89Zm0,1.75a.78.78,0,1,1,.78-.78A.78.78,0,0,1,98.28,331.64Zm-10.2,5.22a1,1,0,0,0-.67.27c0,.18-.06.34-.08.5a.76.76,0,1,1,0,.19c0,.16,0,.31-.08.45h0a1,1,0,0,0,.86.51,1,1,0,1,0,0-1.93Zm26.32-10.74a1,1,0,1,0,0,1.93,1,1,0,0,0,0-1.93Zm0,1.74a.78.78,0,1,1,.77-.77A.77.77,0,0,1,114.4,327.86Zm5.85.91a1,1,0,1,0,1,1A1,1,0,0,0,120.25,328.77Zm0,1.74a.78.78,0,1,1,.78-.77A.77.77,0,0,1,120.25,330.51Zm-3.34-32.66a1,1,0,1,0,1,1A1,1,0,0,0,116.91,297.85Zm0,1.75a.78.78,0,1,1,.78-.78A.78.78,0,0,1,116.91,299.6Zm.28,5.91a1,1,0,1,0,1,1A1,1,0,0,0,117.19,305.51Zm0,1.75a.78.78,0,1,1,.78-.78A.78.78,0,0,1,117.19,307.26Zm-14.7,3.32a1,1,0,1,0,1,1A1,1,0,0,0,102.49,310.58Zm0,1.75a.78.78,0,1,1,.78-.78A.79.79,0,0,1,102.49,312.33Zm-9.63,6.3a1,1,0,1,0,1,1A1,1,0,0,0,92.86,318.63Zm0,1.75a.78.78,0,1,1,0-1.56.78.78,0,1,1,0,1.56Zm0,5.84a1,1,0,1,0,1,1A1,1,0,0,0,92.86,326.22Zm0,1.75a.78.78,0,0,1,0-1.56.78.78,0,0,1,0,1.56ZM92.49,333a1,1,0,1,0,1,1A1,1,0,0,0,92.49,333Zm0,1.75a.78.78,0,1,1,.78-.78A.78.78,0,0,1,92.49,334.79Zm30.19-26a1,1,0,1,0,1,1A1,1,0,0,0,122.68,308.83Zm0,1.75a.78.78,0,1,1,.77-.78A.78.78,0,0,1,122.68,310.58Zm.87,6.3a1,1,0,1,0,1,1A1,1,0,0,0,123.55,316.88Zm0,1.75a.78.78,0,1,1,.78-.78A.78.78,0,0,1,123.55,318.63Zm-4.89-4.78a1,1,0,0,0,0,1.94,1,1,0,0,0,0-1.94Zm0,1.75a.78.78,0,1,1,.78-.78A.78.78,0,0,1,118.66,315.6Zm-9.75,6.54a1,1,0,1,0,1,1A1,1,0,0,0,108.91,322.14Zm0,1.75a.78.78,0,1,1,0-1.56.78.78,0,1,1,0,1.56Zm9.75-2.62a1,1,0,1,0,0,1.94,1,1,0,1,0,0-1.94Zm0,1.75a.78.78,0,1,1,.78-.78A.78.78,0,0,1,118.66,323Zm7.47,8.37a1,1,0,1,0,0,1.93h0l.47-.13h0a.94.94,0,0,0,.46-.82A1,1,0,0,0,126.13,331.39Zm0,1.74a.78.78,0,1,1,.78-.78A.77.77,0,0,1,126.13,333.13Zm-1.49-9.1a1,1,0,1,0,1,1A1,1,0,0,0,124.64,324Zm0,1.75a.79.79,0,0,1-.78-.78.78.78,0,1,1,1.56,0A.79.79,0,0,1,124.64,325.78Z" style="fill:#fff"></path><path d="M104.13,290.22c.23.76,4.26,5.56,7.79,5.16,1.15-.13.72-6.44.72-6.44l.07-.47,1-6.63-8-4.43-1.16-.58s-.16,1.83-.34,4.12l0,.32c0,.13,0,.25,0,.37,0,.34-.07.69-.09,1s0,.52-.05.8,0,.55,0,.83A43.85,43.85,0,0,0,104.13,290.22Z" style="fill:#ad6359"></path><path d="M104.27,281a13.46,13.46,0,0,0,8.44,7.52l1-6.63-8-4.43-1.16-.58S104.45,278.66,104.27,281Z" style="fill:#263238"></path><path d="M121.23,268.94c4.16,11-2,14.74-4.35,15.64-2.15.81-9.6,3.3-14.87-7.23s-1.47-15.93,3.37-18.05S117.07,257.93,121.23,268.94Z" style="fill:#ad6359"></path><path d="M119,267.86a7.11,7.11,0,0,1-.79.1,1.3,1.3,0,0,1-.83-.06.42.42,0,0,1-.16-.48,1,1,0,0,1,.88-.54,1.47,1.47,0,0,1,1.06.2A.44.44,0,0,1,119,267.86Z" style="fill:#263238"></path><path d="M111.47,270.37c.24-.12.45-.27.68-.41s.49-.25.62-.54a.4.4,0,0,0-.16-.48,1,1,0,0,0-1,.1,1.49,1.49,0,0,0-.72.8A.44.44,0,0,0,111.47,270.37Z" style="fill:#263238"></path><path d="M114.1,272.47s0,0,0,.08c.29.73.5,1.62-.07,2.1,0,0,0,.05,0,0C114.79,274.28,114.5,273.11,114.1,272.47Z" style="fill:#263238"></path><path d="M113.16,271.93c-1.22.35-.44,2.76.69,2.44S114.19,271.65,113.16,271.93Z" style="fill:#263238"></path><path d="M112.73,272.21c-.17.21-.3.52-.54.62a1,1,0,0,1-.86-.24s0,0,0,0c.14.47.47.88,1,.8s.66-.6.63-1.1C112.91,272.23,112.8,272.13,112.73,272.21Z" style="fill:#263238"></path><path d="M118.21,271s.07,0,.08,0c.21.75.58,1.58,1.33,1.62a0,0,0,0,1,0,.05C118.76,272.84,118.29,271.73,118.21,271Z" style="fill:#263238"></path><path d="M118.64,270c1.17-.47,2,1.92.93,2.35S117.65,270.38,118.64,270Z" style="fill:#263238"></path><path d="M119.19,270c.23.06.5.22.73.15s.37-.4.45-.71c0,0,0,0,0,0,.17.45.19,1-.22,1.22s-.8-.06-1.07-.48C119.08,270.09,119.1,269.94,119.19,270Z" style="fill:#263238"></path><path d="M116,278.63c.23.13.48.33.76.27a1.88,1.88,0,0,0,.76-.41s.06,0,0,0a1.08,1.08,0,0,1-.85.68.85.85,0,0,1-.78-.51S116,278.61,116,278.63Z" style="fill:#263238"></path><path d="M118.2,274.9s.52,1.06.7,1.59c0,.05-.1.11-.28.18h0a2.65,2.65,0,0,1-2.73-.12.06.06,0,0,1,0-.1,4,4,0,0,0,2.5-.11c0-.16-1-1.79-.88-1.82a5.09,5.09,0,0,1,1.28-.13c-1-2.24-2.41-4.3-3.4-6.55,0-.08.08-.15.13-.08a39.85,39.85,0,0,1,4,6.9C119.65,275,118.44,274.92,118.2,274.9Z" style="fill:#263238"></path><path d="M118.52,276.59a3.27,3.27,0,0,1-.91,1.4,1.45,1.45,0,0,1-.83.35c-.68.05-.89-.51-.94-1a3.25,3.25,0,0,1,0-.83A4.22,4.22,0,0,0,118.52,276.59Z" style="fill:#263238"></path><path d="M117.61,278a1.45,1.45,0,0,1-.83.35c-.68.05-.89-.51-.94-1A1.54,1.54,0,0,1,117.61,278Z" style="fill:#ff98b9"></path><path d="M102.84,277.34c2.78-.82,1.38-9.66,1.2-10.74.15.68,1,4.25,1.27,4.33a2.92,2.92,0,0,0,.84-.4h0a8.59,8.59,0,0,1-.22-1.3c0-.2.18.41.49,1.15l.48-.28a10.25,10.25,0,0,1-.43-2.76c0-.36.48,1.13,1.13,2.36a35.42,35.42,0,0,1,7-3.18c.69-.2,1.3-.35,1.84-.46a17.61,17.61,0,0,1-.53-1.91,10.54,10.54,0,0,1,.93,1.83l.82-.14c-.31-1.5-1.62-3.68-1.29-3.38a10.78,10.78,0,0,1,2.36,3.28c1.06-.07,1.39.06,1.35-.21a12.7,12.7,0,0,0-5.72-6.69c-4.35-2.4-11.56-1.44-14.2,4.66,0,0-2.7,2.95-2.34,6.5S101.23,277.81,102.84,277.34Z" style="fill:#263238"></path><path d="M103.52,281.42a2.57,2.57,0,0,0,.56,0,1.64,1.64,0,0,0,.54-.14,1.53,1.53,0,0,0,.6-.39,1.92,1.92,0,0,0,.33-.45,2.38,2.38,0,0,0,.25-.76l-1.48-2.85s-3.47-2.84-4.82-1.51S101.44,281.25,103.52,281.42Z" style="fill:#ad6359"></path><path d="M100.47,276.61s0,.05,0,.05a5.06,5.06,0,0,1,3.36,2.33,1.1,1.1,0,0,0-1.67.15s0,.08.06.06a1.23,1.23,0,0,1,1.41.05,6.29,6.29,0,0,1,.92.87c.09.11.29,0,.2-.14l0,0C104.3,278.26,102.33,276.27,100.47,276.61Z" style="fill:#263238"></path><path d="M118.64,283.64a9.13,9.13,0,0,0,3-3.41,10.38,10.38,0,0,0,1-4,16.77,16.77,0,0,0-2.11-8.32c-.77-1.58-1.66-3.08-2.5-4.62-.06-.11.1-.19.17-.09a28.75,28.75,0,0,1,4.48,8.72,12.78,12.78,0,0,1-.44,8.3,7.81,7.81,0,0,1-3.52,3.44C118.61,283.74,118.58,283.68,118.64,283.64Z" style="fill:#263238"></path><path d="M95.67,296.3c-10.13,22.26-16.15,51-18.74,56.47-1.77,3.7,17.55,13.44,18.37,10.75,1-3.44,7.13-44.24,8-64C103.71,290.33,98.21,290.72,95.67,296.3Z" style="fill:#ad6359"></path><path d="M95.82,361.08c-.42,3.17-2.57,9.56-4.18,10.53s-10,.77-14.27.77-5.07-1.18-5-2.65,9-1.74,9-1.74-11.89,3.41-14.88,4-9.89,2.3-10.88-.19c-.45-1.11,1.43-2.24,1.43-2.24s-2.89.84-3.35-.6c-.52-1.63,1.78-2.54,1.78-2.54s-1.81.37-1.85-1c-.09-3,11.22-4.45,11.22-4.45s-8.66,4.22-8.94,1.79c-.39-3.37,17.36-7.06,19.21-8.53a12.58,12.58,0,0,0,3-3.65Z" style="fill:#ad6359"></path><path d="M72.43,370.47a1.31,1.31,0,0,1,.4-1.13,3.64,3.64,0,0,1,1-.67,13.81,13.81,0,0,1,2.43-.79c1.67-.43,3.38-.73,5.09-1.17a21.07,21.07,0,0,0-5.24.59,9.78,9.78,0,0,0-2.5,1,3.44,3.44,0,0,0-1,.9A1.33,1.33,0,0,0,72.43,370.47Z" style="fill:#263238"></path><path d="M57,369.53c1.23-.3,2.43-.65,3.64-1s2.4-.71,3.6-1.08l3.58-1.12,3.59-1.1a27.45,27.45,0,0,0-3.71.66c-1.23.28-2.44.63-3.64,1s-2.39.76-3.57,1.21S58.16,369,57,369.53Z" style="fill:#263238"></path><path d="M68.55,362.26a23.38,23.38,0,0,0-3.43.47,30.71,30.71,0,0,0-3.36.87,28.65,28.65,0,0,0-3.24,1.21,22.92,22.92,0,0,0-3.08,1.58c1.09-.37,2.16-.79,3.24-1.15s2.17-.74,3.26-1.08,2.19-.66,3.29-1Z" style="fill:#263238"></path><path d="M66.8,359.42a21.26,21.26,0,0,0-5.46,1.15,21.56,21.56,0,0,0-5,2.43c1.76-.62,3.47-1.28,5.21-1.87S65,360,66.8,359.42Z" style="fill:#263238"></path><path d="M86.46,314.43l16,2.3A171.43,171.43,0,0,0,104,296.46c0-9.23-4.34-7.25-8.53-.46S86.46,314.43,86.46,314.43Z" style="fill:#455a64"></path><path d="M104,295.33a1,1,0,0,0-1-.91,1,1,0,0,0,0,1.94,1,1,0,0,0,1-.91v0h0v0A.13.13,0,0,0,104,295.33Zm-1,.84a.78.78,0,1,1,.78-.78A.78.78,0,0,1,103,296.17Zm-10.5,6.36a1,1,0,0,0,0,1.93,1,1,0,1,0,0-1.93Zm0,1.74a.78.78,0,0,1,0-1.56.78.78,0,1,1,0,1.56ZM98,314.13a1,1,0,1,0,1,1A1,1,0,0,0,98,314.13Zm0,1.75a.78.78,0,1,1,.77-.78A.77.77,0,0,1,98,315.88Zm.08-23.44-.2.22a.75.75,0,0,1-.46.56l-.19.24a1,1,0,0,0,.86-.95A.17.17,0,0,0,98.05,292.44ZM98,306.06a1,1,0,1,0,1,1A1,1,0,0,0,98,306.06Zm0,1.74a.78.78,0,1,1,.77-.78A.77.77,0,0,1,98,307.8Zm-8.92.71a.88.88,0,0,0,.2-.45C89.18,308.21,89.11,308.36,89.05,308.51Zm-1.19,5.89a.91.91,0,0,0-.52.16l.33.05a.62.62,0,0,1,.19,0,.76.76,0,0,1,.39.1l.34.05A.91.91,0,0,0,87.86,314.4Zm9.69-16.21a1,1,0,1,0,1,1A1,1,0,0,0,97.55,298.19Zm0,1.75a.78.78,0,1,1,.78-.78A.78.78,0,0,1,97.55,299.94Zm4.94,2.06a1,1,0,1,0,1,1A1,1,0,0,0,102.49,302Zm0,1.74a.78.78,0,1,1,.78-.78A.78.78,0,0,1,102.49,303.74Zm-9.37,6.84a1,1,0,1,0,0,1.94,1,1,0,1,0,0-1.94Zm0,1.75a.78.78,0,1,1,.78-.78A.79.79,0,0,1,93.12,312.33Zm9.37-1.56a.71.71,0,0,1,.6.3,2.29,2.29,0,0,0,0-.25.86.86,0,0,0-.62-.24,1,1,0,1,0,0,1.94,1,1,0,0,0,.46-.12c0-.08,0-.16,0-.24a.8.8,0,0,1-.48.17.78.78,0,1,1,0-1.56Z" style="fill:#fff"></path><path d="M104.41,304.34s0-.06-.06,0c-.15.54-.3,1.07-.44,1.61,0-1,.07-2.07.07-3.11a0,0,0,0,0-.06,0q-.4,3.44-.76,6.87c-.23,2.29-.57,4.58-.78,6.88-.44,0-.68,0-1,0-.08,0-.1.09,0,.11a5.15,5.15,0,0,0,1.31.19c.47-2.26.71-4.73,1-7,.12-1.12.21-2.25.27-3.38A20.25,20.25,0,0,0,104.41,304.34Z" style="fill:#263238"></path><path d="M101.9,313.87A130.41,130.41,0,0,0,88.55,312c-.06,0-.07.11,0,.12A130.44,130.44,0,0,0,101.89,314C102,314,102,313.88,101.9,313.87Z" style="fill:#263238"></path><path d="M114.13,291.82s0,0,0,0c.12,1.52.23,3.25-.58,4.6-.47.8-1.47.67-2.25.59a8.74,8.74,0,0,1-2.19-.52,14.89,14.89,0,0,1-6.75-5.86c0-.06-.14,0-.1.06,1.51,2.17,3.11,4.29,5.42,5.55a9,9,0,0,0,3.55,1.12,4.3,4.3,0,0,0,1.82-.12,1.87,1.87,0,0,0,1-1.23A8.26,8.26,0,0,0,114.13,291.82Z" style="fill:#263238"></path></g></svg>