<svg xmlns="http://www.w3.org/2000/svg" viewBox="0 0 500 500"><g id="freepik--background-simple--inject-67"><path d="M420.7,119.11s-34.06-48-95.65-47.91S225.93,114,183.78,138.83c-22.07,13-49.25,12.54-73.42,20.56C33.07,185,15.64,285.85,55.74,336.77c34.72,44.07,88.22,62.44,165.58,58.34s132-4.32,194.56-59.91S461.42,182.79,420.7,119.11Z" style="fill:#92E3A9"></path><path d="M420.7,119.11s-34.06-48-95.65-47.91S225.93,114,183.78,138.83c-22.07,13-49.25,12.54-73.42,20.56C33.07,185,15.64,285.85,55.74,336.77c34.72,44.07,88.22,62.44,165.58,58.34s132-4.32,194.56-59.91S461.42,182.79,420.7,119.11Z" style="fill:#fff;opacity:0.7000000000000001"></path></g><g id="freepik--Clouds--inject-67"><path d="M400.54,114.1a5.62,5.62,0,0,0-3.44,1.17,8.9,8.9,0,0,0-12.79-4.84A17.4,17.4,0,0,0,350,108.34a11.32,11.32,0,0,0-19,5.49,6.76,6.76,0,0,0-5.42-2.73,6.66,6.66,0,0,0-3.32.88,13.2,13.2,0,0,0-26-1.59,8.59,8.59,0,0,0-14.62,6.12c0,.11,0,.21,0,.32H405.37A5.65,5.65,0,0,0,400.54,114.1Z" style="fill:#fff"></path><path d="M284.76,310a5.62,5.62,0,0,0-3.43,1.17,8.9,8.9,0,0,0-12.79-4.84,17.41,17.41,0,0,0-34.35-2.09,11.3,11.3,0,0,0-18.95,5.49,6.75,6.75,0,0,0-8.74-1.86,13.2,13.2,0,0,0-26.06-1.58,8.58,8.58,0,0,0-14.61,6.12c0,.11,0,.21,0,.32H289.6A5.68,5.68,0,0,0,284.76,310Z" style="fill:#fff"></path><path d="M290.71,240.32a11.09,11.09,0,0,0-6.77,2.3,17.52,17.52,0,0,0-25.18-9.53A34.27,34.27,0,0,0,191.12,229a22.28,22.28,0,0,0-37.34,10.81,13.28,13.28,0,0,0-17.2-3.65A26,26,0,0,0,85.26,233a16.91,16.91,0,0,0-28.78,12.05c0,.21,0,.42,0,.63H300.23A11.12,11.12,0,0,0,290.71,240.32Z" style="fill:#fff"></path></g><g id="freepik--Airplane--inject-67"><path d="M231.29,181.37,172,169.91l-43.31-8.48a13.77,13.77,0,0,0-1.57-.21c-2.31-.18-8.68-.48-12.18,1.11-4.33,2-6.43,5-5.2,7s9.23,6.29,16.44,8.72,43,10.16,48,10.56,11.3.68,11.3.68,21.38,1.94,29.55,1.2,20-4.41,20.62-6S231.29,181.37,231.29,181.37Z" style="fill:#fff"></path><path d="M208.68,177.48s6.44.51,9.35-1.11,14.18-18.08,14.89-18.26a55.67,55.67,0,0,1,5.77.23L231,182.73l-23.21-5.1Z" style="fill:#fff"></path><path d="M224.68,188.72s1.67-.56,2.63-.95,3.1-1.14,4.3-1.74a4.22,4.22,0,0,0,1.76-1.71l29.44-3.2-3-.24L228.15,183C228.13,186.21,224.68,188.72,224.68,188.72Z" style="fill:#263238"></path><path d="M276.16,170.6l-18.78,1.57.63-.23-57.33,3.51-36,2.21s-4.39-.12-2.89,1.39l5.89,1.63s-11.1-.2-27.43-4.51S118.41,171,113.78,168a7.41,7.41,0,0,1-2.72-3.13h0c-1.56,1.55-2.09,3.21-1.32,4.43,1.15,1.81,8.16,5.71,15,8.19l-.31-.08-10.09-1.27s-2.5-3.44-2.56-2.75-1.48,4.05-.56,4.13,12,1.18,12,1.18l-.26,3.24a1.25,1.25,0,0,0-1.25,1.16,1.27,1.27,0,0,0,1.16,1.37,1.28,1.28,0,0,0,1.32-.9,1.53,1.53,0,0,0,.48.11h.15a4.92,4.92,0,0,0,4.12,4.51c3.19.72,12.36,1.92,15.25.53,2.09-1,1.21-4.32.56-6.07,3.88.88,7.93,1.76,11.76,2.58l-.21,2.61,2.48.89,1.81,3.39-1.53.53a1.76,1.76,0,0,0-1.52-1.47,2,2,0,0,0-.32,3.91,1.71,1.71,0,0,0,1.54-.8l2.33.18,0,.12a1.94,1.94,0,0,0-1.32,1.75,1.84,1.84,0,0,0,1.57,2.09,1.82,1.82,0,0,0,1.86-1.7l.17,0a1.68,1.68,0,0,0,1.38,1,2,2,0,0,0,.31-3.91,1.75,1.75,0,0,0-1.75,1.24l-.87-.3-.21-3.25-1.38-2.89.38-2.46c6.29,1.29,11.37,2.24,13,2.37,5.07.41,11.3.68,11.3.68s2.23.2,5.52.45l-.16,2.06h-1.71a1.72,1.72,0,0,0-1.44-1.18,2,2,0,0,0-.32,3.91,1.71,1.71,0,0,0,1.62-.94l1.68.28,0,.06a2,2,0,0,0-1,1.6,1.86,1.86,0,0,0,1.57,2.1,1.75,1.75,0,0,0,1.66-1l1.34.11a1.71,1.71,0,0,0,1.39,1,2,2,0,1,0-1.57-2.1l-.94.16.14-5.9c6.95.49,16.76,1,21.71.58,1.43-.13,3-.35,4.55-.63h0A130.43,130.43,0,0,1,205,189c-6.87-1-7-2-7-2s1.15.09,1.23-.83.18-2.3.18-2.3,3.13,1.41,4,1.71-1.25-1.72-1.25-1.72l9.37-1.33,3.08,2.1,1.17-.14-1.49-1.74,8.95-1.33.31,0,3.24,1.38,1.38.11L227,181.48l-.33-1,8.26-1.36s3.07,2.1,4.72,1.76-.1-1.62-.1-1.62l3.27-.32,2.56-.14.18-2.31,3.55-1.3,30.67-3.83,3.54-3.65Zm-147.33,9.05s-3.26-.45-4,1.78l-.08,0a1.45,1.45,0,0,0-.47,0l.2-2.53,9.65,1.29.89.22Z" style="fill:#263238"></path><path d="M192.15,178.47l-7.64.08s.84,1,1.08,3.8,1.8,3.61,4.08,4,5.61-.71,5.6-3.49S194.47,178.42,192.15,178.47Z" style="fill:#fff"></path><polygon points="114.13 163.19 113.24 165.04 114.96 165.2 115.95 163.34 114.13 163.19" style="fill:#263238"></polygon><polygon points="121.82 165.87 123.21 166 122.46 163.86 121.88 163.81 121.82 165.87" style="fill:#263238"></polygon><polygon points="118.76 163.56 118.33 165.53 121.25 165.81 121.31 163.77 118.76 163.56" style="fill:#263238"></polygon><polygon points="118.19 163.52 116.57 163.39 115.57 165.26 117.76 165.48 118.19 163.52" style="fill:#263238"></polygon><path d="M113.52,163.14h-.13a12.34,12.34,0,0,0-2.26,1.7l1.5.15Z" style="fill:#263238"></path></g><g id="freepik--Window--inject-67"><path d="M456.94,228.08q-.19-3.72-.54-7.45H436.77V204.09h17.41q-1-5.82-2.39-11.58H336.68v10.75h14.06L359,228.08h16.55V356.29h13.16a247.56,247.56,0,0,0,27.16-21.09,118.68,118.68,0,0,0,22.57-26.89H416.09V283.5H446.7v8.69a126.24,126.24,0,0,0,4.58-12.83h-.45V254.55h5.4q.22-2.07.39-4.14h-5.79V228.08Zm-68.15-24h22.34v16.54H388.79Zm-24,16.54-6.15-16.54h28.49v16.54ZM412,308.31h-30.6V283.5H412Zm0-28.95h-30.6V254.55H412Zm0-29h-30.6V228.08H412Zm.83-29.78V204.09h22.34v16.54Zm33.92,58.73H416.09V254.55H446.7Zm0-29H416.09V228.08H446.7Z" style="fill:#263238"></path><rect x="42.19" y="353.48" width="399.01" height="10.3" style="fill:#263238"></rect><path d="M354.54,359.1a.5.5,0,0,1-.5-.5V70.2a.5.5,0,1,1,1,0V358.6A.5.5,0,0,1,354.54,359.1Z" style="fill:#263238"></path><path d="M186.54,359.1a.5.5,0,0,1-.5-.5V71.37a.5.5,0,1,1,1,0V358.6A.5.5,0,0,1,186.54,359.1Z" style="fill:#263238"></path><path d="M472.07,252.54H29.33a.5.5,0,0,1-.5-.5.5.5,0,0,1,.5-.5H472.07a.5.5,0,0,1,.5.5A.5.5,0,0,1,472.07,252.54Z" style="fill:#263238"></path><path d="M455.56,136.84H42.84a.5.5,0,0,1-.5-.5.5.5,0,0,1,.5-.5H455.56a.5.5,0,0,1,.5.5A.5.5,0,0,1,455.56,136.84Z" style="fill:#263238"></path><path d="M241.6,199.74a.25.25,0,0,1-.13-.46l4.34-2.68a.26.26,0,0,1,.35.08.27.27,0,0,1-.08.35l-4.35,2.67A.22.22,0,0,1,241.6,199.74Z" style="fill:#263238"></path><path d="M251.79,193.46a.25.25,0,0,1-.14-.46l67.42-41.55a.27.27,0,0,1,.35.08.26.26,0,0,1-.09.35l-67.41,41.55A.31.31,0,0,1,251.79,193.46Z" style="fill:#263238"></path><path d="M274.08,188a.25.25,0,0,1-.21-.12.25.25,0,0,1,.08-.34l54-33.29a.24.24,0,0,1,.34.08.26.26,0,0,1-.08.35l-54,33.28A.25.25,0,0,1,274.08,188Z" style="fill:#263238"></path><path d="M335.38,150.24a.25.25,0,0,1-.22-.12.25.25,0,0,1,.09-.34l16.31-10.06a.25.25,0,0,1,.34.08.26.26,0,0,1-.08.35l-16.31,10A.22.22,0,0,1,335.38,150.24Z" style="fill:#263238"></path><path d="M64.59,343.08a.25.25,0,0,1-.14-.46l4.35-2.68a.24.24,0,0,1,.34.08.24.24,0,0,1-.08.34L64.72,343A.22.22,0,0,1,64.59,343.08Z" style="fill:#263238"></path><path d="M74.77,336.8a.25.25,0,0,1-.13-.46l67.42-41.55a.24.24,0,0,1,.34.08.26.26,0,0,1-.08.35L74.9,336.77A.28.28,0,0,1,74.77,336.8Z" style="fill:#263238"></path><path d="M97.07,331.35a.25.25,0,0,1-.21-.12.24.24,0,0,1,.08-.34l54-33.29a.26.26,0,0,1,.35.08.25.25,0,0,1-.08.34l-54,33.29A.2.2,0,0,1,97.07,331.35Z" style="fill:#263238"></path><path d="M158.36,293.58a.27.27,0,0,1-.21-.12.26.26,0,0,1,.08-.35l16.31-10.05a.26.26,0,0,1,.35.08.27.27,0,0,1-.08.35l-16.32,10.05A.28.28,0,0,1,158.36,293.58Z" style="fill:#263238"></path><path d="M311.54,346.53a.25.25,0,0,1-.13-.46l4.35-2.68a.25.25,0,0,1,.34.08.26.26,0,0,1-.08.35l-4.35,2.68A.28.28,0,0,1,311.54,346.53Z" style="fill:#263238"></path><path d="M321.73,340.26a.27.27,0,0,1-.22-.12.26.26,0,0,1,.09-.35L389,298.25a.25.25,0,0,1,.35.08.26.26,0,0,1-.08.34l-67.42,41.55A.33.33,0,0,1,321.73,340.26Z" style="fill:#263238"></path><path d="M344,334.8a.25.25,0,0,1-.13-.46l54-33.29a.25.25,0,0,1,.34.08.25.25,0,0,1-.08.35l-54,33.29A.31.31,0,0,1,344,334.8Z" style="fill:#263238"></path><path d="M405.32,297a.25.25,0,0,1-.22-.12.25.25,0,0,1,.09-.34l16.31-10.06a.25.25,0,0,1,.34.09.24.24,0,0,1-.08.34L405.45,297A.22.22,0,0,1,405.32,297Z" style="fill:#263238"></path></g><g id="freepik--Plants--inject-67"><path d="M59.14,356.39c3,4.47,7.22,10.29,9.46,14.95-.86-3.08-1.69-6-2.45-8.61-1.15-2.25-4.22-7.94-7.76-11.73-4.5-4.82-6.43-7.92-4-8.18,1.68-.19,6.59,6.36,9.67,12.86-.67-2.23-1.2-3.92-1.52-4.91-.14-.45-.29-.95-.43-1.47a131.09,131.09,0,0,1-8.69-13.94c-4.55-8.5-6-16.52-3-13.07,2.79,3.18,7.65,19,11.51,26.4-.32-1.28-.63-2.7-.91-4.09-.54-1.36-1.26-2.73-1.67-4-.63-1.91-1.18-3.85-1.63-5.82a40.63,40.63,0,0,1-1.11-9.38,19,19,0,0,1,2.91-10.49c.52-.79,3.72-5.56,4.7-3.1a2.51,2.51,0,0,1,.07,1.25c-.47,4.07-1.94,7.8-2.85,11.76-1.37,5.92-.46,15.86,0,20.09l.66,2.46c-.64-7.37,2.55-16.1,5.51-17.62,3.66-1.89.07,5.52-2.75,12a19.22,19.22,0,0,0-1.83,9.08c.57,2.13,1.23,4.52,1.92,6.94q.21.5.39,1A20.87,20.87,0,0,1,65,354c.28-4.22,5.07-12.69,8.25-11.5s-2.21,5.66-5.09,10.86a15.69,15.69,0,0,0-1.66,9.32l.09.57c.33,1.1.65,2.16,1,3.17.75,2.36,1.44,4.59,2.11,6.76a33.85,33.85,0,0,1-1.07-9.64c.4-6.2,4-12.05,7.06-12.85s-2.72,9.31-4.65,15a20.33,20.33,0,0,0-.51,10.25c.93,3.08,1.81,6.1,2.7,9.32a77.83,77.83,0,0,1,.27-12.6c.59-6.9,4.69-11.31,7.51-11.13s-.12,4.1-4.2,12.47A28.11,28.11,0,0,0,74,388.14c.37,1.36.74,2.75,1.13,4.2.43,1.65.79,3.45,1.09,5.29.41-1.64,1-4,1.73-6.69a61,61,0,0,0,1.79-9c.38-3.52,1.31-7.9,4.76-9.73a2,2,0,0,1,2.89.78,3.86,3.86,0,0,1,.21,2.38,26.25,26.25,0,0,1-2.35,6.89,8.09,8.09,0,0,1,.9,4.22c0,.55,0,1.1-.09,1.64q.45-.84.87-1.53a9.69,9.69,0,0,1,1.81-2.23,28.87,28.87,0,0,1-.27-3.94c0-1.71,2-6.07,3.81-2.84.73,1.3.59,3.83.66,5.52.5.46.64,1.42.23,2.92a37.48,37.48,0,0,1-.61,11.68l.62-1.09A86.82,86.82,0,0,0,94.73,383c.23-7.59-1-13.82,1.09-16.16s3.22,5.89,2.35,14.86a37.28,37.28,0,0,1-3.23,11.83c2-3.64,4-7.36,5.93-10.94a27.69,27.69,0,0,0,2.24-12.33c-.6-6.62-1-12,1.47-15.75s3-1.3,1.8,6.45c-.84,5.33-1.74,12.44-3.29,17.38,1.48-2.83,2.85-5.52,4.09-8,.7-2.43,2.34-8.68,2.33-13.87,0-6.6.71-10.17,2.66-8.72,1.36,1,.48,9.15-1.7,16,1-2.09,1.79-3.69,2.24-4.63.2-.43.43-.89.68-1.37a130.77,130.77,0,0,1,3.16-16.11c2.48-9.32,6.88-16.18,6.74-11.59-.12,4.22-7.34,19.08-9.59,27.15.63-1.16,1.37-2.41,2.12-3.62.53-1.36.94-2.85,1.49-4,.85-1.83,1.77-3.63,2.78-5.37a40.13,40.13,0,0,1,5.6-7.61A18.87,18.87,0,0,1,135,330.9c.92-.22,6.51-1.53,5.55.93a2.5,2.5,0,0,1-.8,1c-3.12,2.65-6.74,4.38-10.11,6.65-5,3.4-11.16,11.28-13.69,14.7l-1.21,2.25c4.57-5.82,12.86-10,16.06-9.12,4,1.11-3.72,4.08-10.2,6.88a19.38,19.38,0,0,0-7.53,5.39c-1,1.95-2.18,4.15-3.33,6.39l-.39,1a20.78,20.78,0,0,1,3-3.76c3.09-2.91,12.37-5.83,13.87-2.78s-5.47,2.63-11.12,4.46a15.65,15.65,0,0,0-7.58,5.68c-.1.16-.21.32-.32.47-.51,1-1,2-1.45,3-1.07,2.24-2.08,4.34-3.08,6.38a34.28,34.28,0,0,1,5.8-7.78c4.53-4.26,11.17-6.05,13.93-4.57S114,373,108.74,375.79a20.34,20.34,0,0,0-7.37,7.14c-1.43,2.88-2.85,5.7-4.39,8.66a76.47,76.47,0,0,1,8.8-9c5.13-4.64,11.14-5.06,13.07-3s-2.88,2.91-11.57,6.24a28,28,0,0,0-11.71,8.48c-.66,1.24-1.33,2.51-2,3.83-.81,1.5-1.78,3.06-2.82,4.61,1.42-.92,3.51-2.26,5.83-3.71a60.17,60.17,0,0,0,7.43-5.33c2.68-2.3,6.35-4.88,10.12-3.87a2,2,0,0,1,1.58,2.55,3.87,3.87,0,0,1-1.48,1.89c-3.56,2.75-8.34,4.08-12.48,5.71a94.26,94.26,0,0,1-11.65,3.72c-1,1.41-2,2.8-3,4.13l1.85.06c2.2.06,12.13-4.44,17.17-5.88s9.75,1.29,4.47,4.13-19.65,2.21-19.65,2.21l-4.15-.13c-1,1.25-1.92,2.43-2.82,3.52h19.68v5.45H99.69l-3.16,19.42H70.37l-3.16-19.42H63.33v-5.45h13a50,50,0,0,0-.2-7.08,17,17,0,0,0-2.87-2.33c-5.73-3.95-15.44-4.28-18-11.9-.62-1.84.09-4.19,2.28-4.09,1.58.07,3.26,1.46,4.24,2.6,3.27,3.78,5.74,7.7,10,10.57.19.13,2.88,2.27,4.21,3.59-.14-1.24-.33-2.56-.57-4a38.27,38.27,0,0,0-3.52-5.2c-3.48-4.33-8.78-6.87-12.56-11-1.15-1.26-2.67-5.81.85-4.68,1.57.51,3.42,2.88,4.64,4,3.47,3.09,7,6.44,9.29,10.55-.1-.41-.19-.81-.29-1.22a85.61,85.61,0,0,0-8.2-11.07c-5-5.7-10.15-9.43-10.23-12.55s6.38,2.11,11.86,9.26A37,37,0,0,1,73,388c-1-4.05-2.07-8.13-3.13-12.05-.72-1.95-2.85-7-6.78-10.54-5-4.42-9-8.07-9.67-12.51S54.75,349.88,59.14,356.39Zm27.72,50.19c.74-1,1.51-2.11,2.3-3.31a38.46,38.46,0,0,0,1-6.2,25.32,25.32,0,0,0-.25-5.36,59.66,59.66,0,0,1-4.23,4.73,22.89,22.89,0,0,0,.57,4.64C86.28,401.3,86.79,404.7,86.86,406.58Zm-4.25,5.14c1-1.07,2.11-2.35,3.3-3.89a16.78,16.78,0,0,0-.51-3.66,26.12,26.12,0,0,0-2.05-5.47c-1.84,1.76-3.2,2.92-3.2,2.92L77,404.36c.25,2.72.39,5.28.48,7.36ZM77,403.87l1.39-1.23c.8-.7,2.19-3.41,3.72-6.54a39.4,39.4,0,0,1-1.73-4.05c-1.65,3.06-3.14,5.44-4,6.73C76.63,400.48,76.83,402.2,77,403.87Z" style="fill:#92E3A9"></path><path d="M59.14,356.39c3,4.47,7.22,10.29,9.46,14.95-.86-3.08-1.69-6-2.45-8.61-1.15-2.25-4.22-7.94-7.76-11.73-4.5-4.82-6.43-7.92-4-8.18,1.68-.19,6.59,6.36,9.67,12.86-.67-2.23-1.2-3.92-1.52-4.91-.14-.45-.29-.95-.43-1.47a131.09,131.09,0,0,1-8.69-13.94c-4.55-8.5-6-16.52-3-13.07,2.79,3.18,7.65,19,11.51,26.4-.32-1.28-.63-2.7-.91-4.09-.54-1.36-1.26-2.73-1.67-4-.63-1.91-1.18-3.85-1.63-5.82a40.63,40.63,0,0,1-1.11-9.38,19,19,0,0,1,2.91-10.49c.52-.79,3.72-5.56,4.7-3.1a2.51,2.51,0,0,1,.07,1.25c-.47,4.07-1.94,7.8-2.85,11.76-1.37,5.92-.46,15.86,0,20.09l.66,2.46c-.64-7.37,2.55-16.1,5.51-17.62,3.66-1.89.07,5.52-2.75,12a19.22,19.22,0,0,0-1.83,9.08c.57,2.13,1.23,4.52,1.92,6.94q.21.5.39,1A20.87,20.87,0,0,1,65,354c.28-4.22,5.07-12.69,8.25-11.5s-2.21,5.66-5.09,10.86a15.69,15.69,0,0,0-1.66,9.32l.09.57c.33,1.1.65,2.16,1,3.17.75,2.36,1.44,4.59,2.11,6.76a33.85,33.85,0,0,1-1.07-9.64c.4-6.2,4-12.05,7.06-12.85s-2.72,9.31-4.65,15a20.33,20.33,0,0,0-.51,10.25c.93,3.08,1.81,6.1,2.7,9.32a77.83,77.83,0,0,1,.27-12.6c.59-6.9,4.69-11.31,7.51-11.13s-.12,4.1-4.2,12.47A28.11,28.11,0,0,0,74,388.14c.37,1.36.74,2.75,1.13,4.2.43,1.65.79,3.45,1.09,5.29.41-1.64,1-4,1.73-6.69a61,61,0,0,0,1.79-9c.38-3.52,1.31-7.9,4.76-9.73a2,2,0,0,1,2.89.78,3.86,3.86,0,0,1,.21,2.38,26.25,26.25,0,0,1-2.35,6.89,8.09,8.09,0,0,1,.9,4.22c0,.55,0,1.1-.09,1.64q.45-.84.87-1.53a9.69,9.69,0,0,1,1.81-2.23,28.87,28.87,0,0,1-.27-3.94c0-1.71,2-6.07,3.81-2.84.73,1.3.59,3.83.66,5.52.5.46.64,1.42.23,2.92a37.48,37.48,0,0,1-.61,11.68l.62-1.09A86.82,86.82,0,0,0,94.73,383c.23-7.59-1-13.82,1.09-16.16s3.22,5.89,2.35,14.86a37.28,37.28,0,0,1-3.23,11.83c2-3.64,4-7.36,5.93-10.94a27.69,27.69,0,0,0,2.24-12.33c-.6-6.62-1-12,1.47-15.75s3-1.3,1.8,6.45c-.84,5.33-1.74,12.44-3.29,17.38,1.48-2.83,2.85-5.52,4.09-8,.7-2.43,2.34-8.68,2.33-13.87,0-6.6.71-10.17,2.66-8.72,1.36,1,.48,9.15-1.7,16,1-2.09,1.79-3.69,2.24-4.63.2-.43.43-.89.68-1.37a130.77,130.77,0,0,1,3.16-16.11c2.48-9.32,6.88-16.18,6.74-11.59-.12,4.22-7.34,19.08-9.59,27.15.63-1.16,1.37-2.41,2.12-3.62.53-1.36.94-2.85,1.49-4,.85-1.83,1.77-3.63,2.78-5.37a40.13,40.13,0,0,1,5.6-7.61A18.87,18.87,0,0,1,135,330.9c.92-.22,6.51-1.53,5.55.93a2.5,2.5,0,0,1-.8,1c-3.12,2.65-6.74,4.38-10.11,6.65-5,3.4-11.16,11.28-13.69,14.7l-1.21,2.25c4.57-5.82,12.86-10,16.06-9.12,4,1.11-3.72,4.08-10.2,6.88a19.38,19.38,0,0,0-7.53,5.39c-1,1.95-2.18,4.15-3.33,6.39l-.39,1a20.78,20.78,0,0,1,3-3.76c3.09-2.91,12.37-5.83,13.87-2.78s-5.47,2.63-11.12,4.46a15.65,15.65,0,0,0-7.58,5.68c-.1.16-.21.32-.32.47-.51,1-1,2-1.45,3-1.07,2.24-2.08,4.34-3.08,6.38a34.28,34.28,0,0,1,5.8-7.78c4.53-4.26,11.17-6.05,13.93-4.57S114,373,108.74,375.79a20.34,20.34,0,0,0-7.37,7.14c-1.43,2.88-2.85,5.7-4.39,8.66a76.47,76.47,0,0,1,8.8-9c5.13-4.64,11.14-5.06,13.07-3s-2.88,2.91-11.57,6.24a28,28,0,0,0-11.71,8.48c-.66,1.24-1.33,2.51-2,3.83-.81,1.5-1.78,3.06-2.82,4.61,1.42-.92,3.51-2.26,5.83-3.71a60.17,60.17,0,0,0,7.43-5.33c2.68-2.3,6.35-4.88,10.12-3.87a2,2,0,0,1,1.58,2.55,3.87,3.87,0,0,1-1.48,1.89c-3.56,2.75-8.34,4.08-12.48,5.71a94.26,94.26,0,0,1-11.65,3.72c-1,1.41-2,2.8-3,4.13l1.85.06c2.2.06,12.13-4.44,17.17-5.88s9.75,1.29,4.47,4.13-19.65,2.21-19.65,2.21l-4.15-.13c-1,1.25-1.92,2.43-2.82,3.52h19.68v5.45H99.69l-3.16,19.42H70.37l-3.16-19.42H63.33v-5.45h13a50,50,0,0,0-.2-7.08,17,17,0,0,0-2.87-2.33c-5.73-3.95-15.44-4.28-18-11.9-.62-1.84.09-4.19,2.28-4.09,1.58.07,3.26,1.46,4.24,2.6,3.27,3.78,5.74,7.7,10,10.57.19.13,2.88,2.27,4.21,3.59-.14-1.24-.33-2.56-.57-4a38.27,38.27,0,0,0-3.52-5.2c-3.48-4.33-8.78-6.87-12.56-11-1.15-1.26-2.67-5.81.85-4.68,1.57.51,3.42,2.88,4.64,4,3.47,3.09,7,6.44,9.29,10.55-.1-.41-.19-.81-.29-1.22a85.61,85.61,0,0,0-8.2-11.07c-5-5.7-10.15-9.43-10.23-12.55s6.38,2.11,11.86,9.26A37,37,0,0,1,73,388c-1-4.05-2.07-8.13-3.13-12.05-.72-1.95-2.85-7-6.78-10.54-5-4.42-9-8.07-9.67-12.51S54.75,349.88,59.14,356.39Zm27.72,50.19c.74-1,1.51-2.11,2.3-3.31a38.46,38.46,0,0,0,1-6.2,25.32,25.32,0,0,0-.25-5.36,59.66,59.66,0,0,1-4.23,4.73,22.89,22.89,0,0,0,.57,4.64C86.28,401.3,86.79,404.7,86.86,406.58Zm-4.25,5.14c1-1.07,2.11-2.35,3.3-3.89a16.78,16.78,0,0,0-.51-3.66,26.12,26.12,0,0,0-2.05-5.47c-1.84,1.76-3.2,2.92-3.2,2.92L77,404.36c.25,2.72.39,5.28.48,7.36ZM77,403.87l1.39-1.23c.8-.7,2.19-3.41,3.72-6.54a39.4,39.4,0,0,1-1.73-4.05c-1.65,3.06-3.14,5.44-4,6.73C76.63,400.48,76.83,402.2,77,403.87Z" style="fill:#fff;opacity:0.4"></path></g><g id="freepik--Floor--inject-67"><path d="M457.82,437.09h-9a.5.5,0,0,1,0-1h9a.5.5,0,0,1,0,1Z" style="fill:#263238"></path><path d="M438.31,437.09H201.93a.5.5,0,0,1,0-1H438.31a.5.5,0,0,1,0,1Z" style="fill:#263238"></path><path d="M195.92,437.09H34.58a.5.5,0,1,1,0-1H195.92a.5.5,0,1,1,0,1Z" style="fill:#263238"></path></g><g id="freepik--Character--inject-67"><path d="M274.9,318s-4.67,42-5.56,53.51-5.1,40-5.1,44.63.44,10.44.44,10.44l-5.33.44s-2.88-19.54-2.88-28-2.89-24.65-2.67-30.42,1.78-14.43,1.78-19.54-5.11-17.76-4.66-35.3S274.9,318,274.9,318Z" style="fill:#263238"></path><path d="M259.35,427.54a.5.5,0,0,1-.49-.42c0-.2-2.89-19.68-2.89-28.05a163.09,163.09,0,0,0-1.47-16.59c-.67-5.65-1.31-11-1.2-13.85s.51-6.09.89-9.35a98,98,0,0,0,.89-10.17,42.9,42.9,0,0,0-1.33-7.57c-1.45-6.4-3.63-16.08-3.33-27.75.09-3.69,1.21-6,3.32-6.91,6.68-2.83,20.89,10.22,21.5,10.78a.49.49,0,0,1,.15.42c0,.42-4.67,42.09-5.55,53.49-.44,5.76-1.73,15.88-2.87,24.81s-2.23,17.47-2.23,19.78c0,4.59.44,10.34.44,10.4a.5.5,0,0,1-.46.54l-5.33.44ZM256,307.46a4.68,4.68,0,0,0-1.82.34c-1.72.72-2.63,2.75-2.71,6-.3,11.54,1.87,21.15,3.3,27.5a42.68,42.68,0,0,1,1.36,7.79,102.4,102.4,0,0,1-.89,10.29c-.39,3.24-.79,6.6-.89,9.27s.53,8.08,1.2,13.69A164.39,164.39,0,0,1,257,399.07c0,7.58,2.37,24.42,2.81,27.44l4.37-.37c-.11-1.5-.41-6.14-.41-10,0-2.37,1-10.5,2.24-19.91,1.13-8.91,2.42-19,2.87-24.75.84-11,5.13-49.75,5.52-53.28C272.83,316.84,262.19,307.46,256,307.46Z" style="fill:#263238"></path><path d="M264.68,426.6s5.33,4.22,7.55,5.55,6.22,2.22,6.22,3.11-1.78,1.33-1.78,1.33H258a32,32,0,0,1,.44-5.33c.45-2,.89-4.22.89-4.22Z" style="fill:#92E3A9"></path><path d="M276.67,437.09H258a.5.5,0,0,1-.5-.5,32,32,0,0,1,.46-5.44c.44-2,.88-4.2.88-4.2a.52.52,0,0,1,.45-.41l5.33-.44a.49.49,0,0,1,.35.11c.05,0,5.33,4.21,7.5,5.51a23.22,23.22,0,0,0,3.25,1.45c1.93.74,3.21,1.23,3.21,2.09,0,1.22-1.8,1.73-2.16,1.82Zm-18.14-1h18.08c.64-.17,1.34-.56,1.34-.83a12.14,12.14,0,0,0-2.57-1.16,23,23,0,0,1-3.41-1.52c-2-1.22-6.53-4.75-7.44-5.47l-4.76.4c-.15.71-.48,2.35-.82,3.86A29.07,29.07,0,0,0,258.53,436.09Z" style="fill:#263238"></path><path d="M264.24,430.37l.44-3.77-5.33.44s-.32,1.62-.69,3.33Z" style="fill:#fff"></path><path d="M264.24,430.87h-5.58a.5.5,0,0,1-.39-.18.49.49,0,0,1-.1-.42c.37-1.71.69-3.32.69-3.32a.52.52,0,0,1,.45-.41l5.33-.44a.49.49,0,0,1,.4.15.49.49,0,0,1,.14.41l-.45,3.77A.5.5,0,0,1,264.24,430.87Zm-5-1h4.51l.32-2.72-4.34.36C259.67,428,259.49,428.88,259.28,429.87Z" style="fill:#263238"></path><path d="M252.69,406.62s-6.44-2.22-7.33-.67.67,16.21,1.34,20.21,2.44,8.43,3.55,8,1.78-14,2.66-16,3.78-6.88,3.78-6.88Z" style="fill:#92E3A9"></path><path d="M250.09,434.68a1,1,0,0,1-.53-.15c-1.35-.76-2.79-4.89-3.36-8.29-.46-2.77-2.33-18.68-1.27-20.54s6.32-.11,7.92.44a.48.48,0,0,1,.22.15l4,4.66a.5.5,0,0,1,.05.58c0,.05-2.88,4.89-3.75,6.84a46.85,46.85,0,0,0-1.07,7.14c-.75,6.77-1.09,8.79-1.86,9.1A.91.91,0,0,1,250.09,434.68Zm-.11-.94Zm-3.09-27.85c-.57,0-1,.1-1.09.31-.75,1.31.63,15.3,1.39,19.87.68,4.09,2.22,7.28,2.84,7.59.45-.83.95-5.28,1.28-8.26.39-3.48.72-6.49,1.15-7.44.77-1.73,3-5.51,3.62-6.63L252.4,407A20.53,20.53,0,0,0,246.89,405.89Z" style="fill:#263238"></path><path d="M250.32,405.92c.24,2.75,1,6.91,1,6.91l4.53-.18.8-1.37-4-4.66S251.63,406.25,250.32,405.92Z" style="fill:#fff"></path><path d="M251.36,413.33a.49.49,0,0,1-.49-.4s-.81-4.22-1.05-7a.52.52,0,0,1,.18-.43.5.5,0,0,1,.44-.1c1.32.33,2.37.69,2.41.7a.48.48,0,0,1,.22.15l4,4.66a.5.5,0,0,1,.05.58l-.8,1.37a.47.47,0,0,1-.41.25l-4.53.18Zm-.47-6.74c.23,2.11.7,4.72.88,5.73l3.82-.16.49-.83-3.68-4.28C252.16,407,251.59,406.79,250.89,406.59Z" style="fill:#263238"></path><path d="M248.47,301.37s-6.21,6.89-6.66,14.88,8.88,18,12.88,22.2,26.87,30.42,26.87,30.42-8,5.11-11.77,12.88-17.1,24.87-17.1,24.87l4.22,6s26.87-26.86,30-29.75,10.43-11.77,10.43-13.55-10.66-20.64-13.32-28-17.54-27.53-17.54-27.53S257.13,303.37,248.47,301.37Z" style="fill:#263238"></path><path d="M256.91,413.11h0a.51.51,0,0,1-.37-.21l-4.22-6a.5.5,0,0,1,0-.59c.13-.17,13.33-17.14,17-24.78,3.3-6.8,9.66-11.51,11.47-12.76-3-3.41-22.82-26.11-26.48-30s-13.48-14.23-13-22.58c.45-8.08,6.53-14.9,6.79-15.18a.5.5,0,0,1,.49-.16c8.71,2,17.86,12.16,18.24,12.59.64.87,15,20.39,17.64,27.7,1.38,3.79,4.91,10.7,8,16.79,3.5,6.82,5.32,10.43,5.32,11.35,0,2.1-7.71,11.23-10.6,13.91-3.06,2.85-29.69,29.48-30,29.74A.47.47,0,0,1,256.91,413.11Zm-3.6-6.48,3.67,5.21c3.43-3.43,26.7-26.69,29.56-29.35,3.45-3.2,10.28-11.75,10.28-13.18,0-.76-2.78-6.15-5.21-10.9-3.13-6.11-6.68-13.05-8.08-16.9-2.61-7.18-17.33-27.21-17.47-27.41S257,304,248.65,301.93c-1,1.23-6,7.41-6.34,14.35-.44,7.92,9.14,18,12.74,21.83,4,4.18,26.65,30.17,26.88,30.43a.49.49,0,0,1,.12.4.51.51,0,0,1-.22.35c-.08,0-7.93,5.13-11.59,12.68C266.71,389.23,255.14,404.27,253.31,406.63Z" style="fill:#263238"></path><path d="M270.74,354.18a.5.5,0,0,1-.37-.16l-1.07-1.15a.5.5,0,0,1,0-.71.49.49,0,0,1,.7,0l1.08,1.15a.5.5,0,0,1,0,.7A.51.51,0,0,1,270.74,354.18Z" style="fill:#fff"></path><path d="M268,351.22a.52.52,0,0,1-.37-.16l-11.73-12.62a.5.5,0,0,1,0-.71.5.5,0,0,1,.7,0l11.73,12.62a.49.49,0,0,1,0,.7A.51.51,0,0,1,268,351.22Z" style="fill:#fff"></path><path d="M256.7,400.7a.51.51,0,0,1-.36-.15.51.51,0,0,1,0-.71c.09-.08.4-.44,1.51-1.87a.5.5,0,0,1,.79.61c-1.18,1.52-1.47,1.85-1.59,2A.5.5,0,0,1,256.7,400.7Z" style="fill:#fff"></path><path d="M260.33,396.07A.53.53,0,0,1,260,396a.51.51,0,0,1-.09-.7c3.35-4.39,7.78-10.28,7.78-10.28l.8.6s-4.43,5.9-7.78,10.29A.51.51,0,0,1,260.33,396.07Z" style="fill:#fff"></path><path d="M300.65,328s4.44,4.66,5.55,6.88,2.89,6.88,1.56,7.1-2.22-4-2.22-4,.88,4,.44,5.1-1.78-4-1.78-4,.23,4.66-.44,4-1.55-4.88-1.55-4.88-.45,5.11-1.11,4-.67-4.22-.67-4.22a51.69,51.69,0,0,1-3.33-5.78A10,10,0,0,1,296,328.9Z" style="fill:#fff"></path><path d="M305.82,343.77h0c-.22,0-.55,0-1.11-1.43-.12,1.1-.39,1.21-.56,1.29a.61.61,0,0,1-.71-.16,7.24,7.24,0,0,1-1.05-2.51c-.34,1.77-.72,1.86-.94,1.91a.67.67,0,0,1-.75-.39c-.66-1.08-.73-3.62-.74-4.32a51.65,51.65,0,0,1-3.29-5.72,10.11,10.11,0,0,1-1.15-3.54.5.5,0,0,1,.4-.49l4.67-.89a.5.5,0,0,1,.45.15c.19.19,4.51,4.74,5.64,7,0,.05,2.76,5.61,1.91,7.28a1,1,0,0,1-.72.54,1.35,1.35,0,0,1-1.24-.55,3.69,3.69,0,0,1-.16,1.35A.66.66,0,0,1,305.82,343.77Zm-1.62-5.15a.5.5,0,0,1,.49.37,28.86,28.86,0,0,0,.91,2.94,24,24,0,0,0-.51-3.62,1.77,1.77,0,0,1,0-.2.5.5,0,0,1,1-.21.8.8,0,0,1,0,.18c.41,1.83,1.19,3.47,1.61,3.43.36-.4-.47-3.49-1.92-6.39-.93-1.87-4.43-5.66-5.27-6.56l-3.92.74a14.65,14.65,0,0,0,1,2.73,52.55,52.55,0,0,0,3.29,5.7.47.47,0,0,1,.09.28,16.39,16.39,0,0,0,.33,3.28,26,26,0,0,0,.45-3.1.5.5,0,0,1,.46-.46.47.47,0,0,1,.52.4,32.8,32.8,0,0,0,1,3.78c0-.75,0-1.82,0-2.77a.51.51,0,0,1,.43-.52Z" style="fill:#263238"></path><path d="M300.25,332.51a3.43,3.43,0,0,0,.61,2.29,8.43,8.43,0,0,0,2.65,1.33s2.9,4.35,2.9,2.9a14.18,14.18,0,0,0-2.78-6.76" style="fill:#fff"></path><path d="M306.25,339.83c-.37,0-1.12-.39-3.06-3.28a8.05,8.05,0,0,1-2.69-1.39,3.88,3.88,0,0,1-.75-2.69.5.5,0,0,1,.54-.46.5.5,0,0,1,.46.54,2.87,2.87,0,0,0,.46,1.9,8,8,0,0,0,2.45,1.21.45.45,0,0,1,.27.2,25.06,25.06,0,0,0,1.91,2.53c-.31-1.68-1.49-4.7-2.56-5.77a.5.5,0,1,1,.71-.71c1.45,1.46,2.92,5.62,2.92,7.12a.71.71,0,0,1-.47.77A.5.5,0,0,1,306.25,339.83Zm.09-1h0Z" style="fill:#263238"></path><path d="M287.55,294.93s4.89,9.77,6.66,14.88,7.33,17.76,7.33,17.76l-5.33,3.11s-6.66-9.77-9.55-14.88a69.21,69.21,0,0,1-4.22-8.66Z" style="fill:#92E3A9"></path><path d="M296.21,331.18a.49.49,0,0,1-.41-.22c-.07-.1-6.71-9.84-9.57-14.91a68.94,68.94,0,0,1-4.25-8.73.48.48,0,0,1,0-.37l5.11-12.21a.52.52,0,0,1,.44-.31.53.53,0,0,1,.47.28c.05.1,4.92,9.86,6.68,14.94s7.26,17.6,7.32,17.72a.5.5,0,0,1-.21.63l-5.33,3.11A.45.45,0,0,1,296.21,331.18Zm-13.23-24a71.31,71.31,0,0,0,4.12,8.41c2.52,4.46,8,12.59,9.26,14.45l4.54-2.65c-1-2.21-5.58-12.84-7.16-17.39-1.42-4.07-4.87-11.23-6.15-13.83Z" style="fill:#263238"></path><path d="M285.59,309.6,284.7,320s-7.11-2.44-8.44-3.33-1.11-6.88.22-13.77,9.77-26.86,9.77-26.86Z" style="fill:#263238"></path><path d="M284.7,320.54a.41.41,0,0,1-.16,0c-.3-.1-7.19-2.47-8.56-3.38-1.8-1.21-1.12-8.45,0-14.28,1.33-6.86,9.46-26.15,9.8-27a.51.51,0,0,1,.57-.29.5.5,0,0,1,.39.5l-.66,33.52v0l-.89,10.43a.51.51,0,0,1-.23.38A.53.53,0,0,1,284.7,320.54Zm1-41.83c-2.28,5.54-7.69,19-8.72,24.33-1.61,8.27-1.22,12.73-.44,13.25a66.27,66.27,0,0,0,7.72,3.07l.83-9.78Zm-.11,30.89h0Z" style="fill:#263238"></path><path d="M280.89,249.86s4.66,9.33,5.11,13.1,2,10.66.22,17.32-6,16.43-6.66,24.2-2.22,16.43-2.22,16.43l-2.22,4.22-4-6.44v5.55a34.72,34.72,0,0,0-8-6c-4.89-2.67-11.1-11.33-11.1-11.33l-2.45-2.44s10.66-42.41,11.55-48.18,6.88-7.77,10.43-8.44S280.89,249.86,280.89,249.86Z" style="fill:#fff"></path><path d="M275.12,325.63a.5.5,0,0,1-.43-.24l-3.07-4.95v3.8a.51.51,0,0,1-.32.47.52.52,0,0,1-.55-.13,34.57,34.57,0,0,0-7.86-5.89c-4.93-2.69-11-11.12-11.27-11.48l-2.39-2.38a.48.48,0,0,1-.13-.47c.1-.43,10.66-42.45,11.53-48.14.95-6.11,7.2-8.17,10.84-8.85s9.39,1.92,9.63,2a.45.45,0,0,1,.24.23c.19.38,4.7,9.44,5.15,13.26.08.62.18,1.33.29,2.11.57,3.88,1.43,9.74-.08,15.4-.58,2.19-1.43,4.71-2.32,7.38-1.82,5.42-3.88,11.56-4.32,16.73-.66,7.71-2.21,16.39-2.23,16.48a.58.58,0,0,1-.05.14l-2.22,4.22a.51.51,0,0,1-.43.27Zm-4-7.44a.49.49,0,0,1,.42.24l3.54,5.69,1.78-3.37c.15-.87,1.58-9,2.2-16.31.45-5.29,2.53-11.5,4.37-17,.89-2.65,1.73-5.16,2.31-7.32,1.45-5.46.61-11.2.05-15-.11-.78-.22-1.5-.29-2.13-.4-3.38-4.37-11.53-5-12.78-.94-.41-5.83-2.46-8.86-1.89-3.39.64-9.19,2.52-10,8s-10.48,44-11.48,47.95l2.24,2.24c.11.15,6.26,8.66,11,11.24a36.17,36.17,0,0,1,7.25,5.24v-4.36a.5.5,0,0,1,.36-.48Z" style="fill:#263238"></path><path d="M281.59,254.54s2.8,5.85,2.49,11.22a60.26,60.26,0,0,0,.4,8.54s-.89,22.2-.22,26,1.33,9.32,1.33,9.32,1.77-22.87,2.88-27.75,2.67-9.55.89-14.88-3.11-10.65-4.88-12.87a17.62,17.62,0,0,0-4.67-3.78Z" style="fill:#92E3A9"></path><path d="M285.59,310.1a.49.49,0,0,1-.5-.44c0-.05-.67-5.58-1.33-9.29s.18-25.18.22-26.09a58.69,58.69,0,0,1-.4-8.55c.3-5.18-2.41-10.92-2.44-11v0l-1.78-4.22a.5.5,0,0,1,.7-.63,18,18,0,0,1,4.82,3.9c1.41,1.77,2.5,5.25,3.76,9.27.39,1.23.78,2.5,1.21,3.77,1.6,4.8.56,9.13-.45,13.33-.15.6-.29,1.2-.43,1.81-1.09,4.79-2.86,27.46-2.87,27.68a.49.49,0,0,1-.49.46Zm-3.54-55.77c.17.38,2.84,6.08,2.53,11.46a60.83,60.83,0,0,0,.39,8.45c0,.3-.87,22.27-.22,25.95.25,1.43.5,3.12.72,4.67.58-7,1.71-19.58,2.52-23.12.14-.61.28-1.22.43-1.83,1-4.24,2-8.25.47-12.78-.43-1.27-.83-2.55-1.21-3.78-1.18-3.77-2.3-7.32-3.59-8.94a14.92,14.92,0,0,0-3.21-2.84Z" style="fill:#263238"></path><path d="M277.78,258.52l-.77,4.94s-6.56-6.94-6.33-11.16,1.11-7.1,4.44-8,5.68,6.31,6.35,10.08-1.54,8.3-1.54,8.3Z" style="fill:#fff"></path><path d="M277,264a.52.52,0,0,1-.36-.16c-.27-.29-6.7-7.14-6.47-11.52.2-3.78.92-7.42,4.81-8.45a2.7,2.7,0,0,1,2.25.39c2.62,1.67,4.24,7.33,4.72,10.09.69,3.89-1.48,8.41-1.58,8.6a.49.49,0,0,1-.44.28.47.47,0,0,1-.45-.27L278,260.11l-.53,3.43a.51.51,0,0,1-.35.4Zm-1.33-19.23a1.59,1.59,0,0,0-.43.06c-2.69.72-3.83,2.83-4.07,7.54-.17,3.16,3.85,8.11,5.5,10l.61-3.9a.49.49,0,0,1,.41-.41.5.5,0,0,1,.53.26l1.66,3.23c.58-1.5,1.54-4.48,1.09-7-.54-3-2.12-8-4.27-9.42A1.92,1.92,0,0,0,275.68,244.73Z" style="fill:#263238"></path><path d="M286,243.64s-4.67,7.55-6.22,10.88a40.28,40.28,0,0,1-2,4s-2.66-8.66-2.66-11.32.22-6.67.22-6.67l5.33-7.1Z" style="fill:#fff"></path><path d="M277.78,259h-.07a.5.5,0,0,1-.41-.34c-.11-.36-2.68-8.77-2.68-11.47s.22-6.65.22-6.69a.48.48,0,0,1,.1-.28l5.33-7.1a.5.5,0,0,1,.44-.2.52.52,0,0,1,.4.27l5.33,10.21a.52.52,0,0,1,0,.5c0,.07-4.66,7.56-6.19,10.82a42.61,42.61,0,0,1-2,4.07A.51.51,0,0,1,277.78,259Zm-1.95-18.31c0,.76-.21,4.16-.21,6.49,0,2,1.58,7.6,2.3,10,.3-.6.75-1.52,1.41-2.92,1.41-3,5.27-9.35,6.09-10.69l-4.83-9.26Z" style="fill:#263238"></path><path d="M292.44,215.89s6.21,5.77,7.1,12.65a14.22,14.22,0,0,1-7.77,14.66c-4.66,2.22-8,2-10.21-1.78s.22-19.76,3.55-23.53A6.46,6.46,0,0,1,292.44,215.89Z" style="fill:#263238"></path><path d="M286.62,245.12a6.1,6.1,0,0,1-5.49-3.44c-2.32-3.93.11-20.16,3.6-24.12a7,7,0,0,1,7.91-2.13.42.42,0,0,1,.14.09c.26.24,6.36,6,7.26,13A14.79,14.79,0,0,1,292,243.65,12.7,12.7,0,0,1,286.62,245.12ZM290.15,216a6.09,6.09,0,0,0-4.67,2.26c-3.24,3.67-5.62,19.33-3.49,22.95,2,3.36,4.83,3.83,9.56,1.58A13.78,13.78,0,0,0,299,228.61c-.8-6.26-6.23-11.67-6.88-12.29A5.55,5.55,0,0,0,290.15,216Z" style="fill:#263238"></path><path d="M290,219s3.56,2,3.56,8.43c0,3.56-2.67,11.55-3.11,14a4.18,4.18,0,0,1-4.89,3.33c-2-.44-7.1-5.1-8.21-6s-2.44-4.44-2.22-9.77S281.56,215.67,290,219Z" style="fill:#fff"></path><path d="M286.34,245.34a3.94,3.94,0,0,1-.9-.1c-1.62-.36-4.7-2.92-7.47-5.29-.41-.36-.75-.64-.94-.8-1.37-1.09-2.63-4.94-2.41-10.18a12.88,12.88,0,0,1,5.78-9.54,10.33,10.33,0,0,1,9.78-.9l.06,0c.15.09,3.81,2.22,3.81,8.87,0,2.47-1.2,6.83-2.16,10.33-.44,1.6-.82,3-1,3.75a4.6,4.6,0,0,1-2,3A4.69,4.69,0,0,1,286.34,245.34Zm-.29-26.63a9.29,9.29,0,0,0-5.1,1.56,12,12,0,0,0-5.33,8.74c-.22,5.16,1.06,8.58,2,9.36.21.16.55.45,1,.82,1.79,1.54,5.52,4.74,7,5.08a3.69,3.69,0,0,0,4.29-2.94c.14-.81.53-2.21,1-3.83.9-3.26,2.13-7.73,2.13-10.07,0-5.79-3-7.8-3.28-8A10.07,10.07,0,0,0,286.05,218.71Z" style="fill:#263238"></path><path d="M291.77,217.67a167.6,167.6,0,0,0-12.43,16.87c-5.11,8.22-4.89,10.88-9.11,8.88S255.58,231,256.91,223.66s5.33-18.43,19.76-18.43S295.77,211,291.77,217.67Z" style="fill:#263238"></path><path d="M272.42,244.55a5.77,5.77,0,0,1-2.4-.68c-4.09-1.94-15-12.55-13.6-20.3,2.24-12.32,9.24-18.84,20.25-18.84,8.4,0,14.15,2,16.18,5.57,1.25,2.2,1,4.83-.65,7.62l-.05.07a171.11,171.11,0,0,0-12.39,16.81c-1.23,2-2.15,3.65-2.9,5C275.14,242.88,274.21,244.55,272.42,244.55Zm4.25-38.82c-10.61,0-17.09,6.06-19.27,18-1.24,6.81,8.63,17.13,13.05,19.22,2.77,1.31,3.19.55,5.54-3.67.75-1.35,1.68-3,2.92-5a171.05,171.05,0,0,1,12.45-16.91c1.46-2.44,1.67-4.72.62-6.58C290.13,207.53,284.7,205.73,276.67,205.73Zm15.1,11.94h0Z" style="fill:#263238"></path><path d="M271.56,247.86s1.34,10.22,3.34,16a41.45,41.45,0,0,0,5.1,10s-5.55,13.1-10.66,22-11.1,19.76-11.1,19.76L246,304.92s7.33-17.09,7.55-21.53,1.78-33.53,4-33.75S271.56,247.86,271.56,247.86Z" style="fill:#92E3A9"></path><path d="M258.24,316.08a.5.5,0,0,1-.33-.12L245.7,305.3a.51.51,0,0,1-.13-.57c.07-.17,7.3-17.07,7.51-21.37,1.13-22.52,2.62-34,4.45-34.22,2.18-.22,13.85-1.76,14-1.77a.46.46,0,0,1,.37.1.53.53,0,0,1,.19.33c0,.1,1.35,10.23,3.31,15.88a41.44,41.44,0,0,0,5,9.86.5.5,0,0,1,.06.5c0,.13-5.62,13.22-10.68,22s-11,19.64-11.1,19.75a.45.45,0,0,1-.35.25Zm-11.61-11.29,11.47,10c1.28-2.32,6.41-11.57,10.81-19.23,4.64-8.07,9.72-19.79,10.52-21.67a42.41,42.41,0,0,1-5-9.89c-1.74-5-3-13.46-3.28-15.59-2.29.3-11.54,1.52-13.51,1.72-1.26,1-2.76,17.49-3.55,33.27C253.87,287.6,247.69,302.3,246.63,304.79Z" style="fill:#263238"></path><path d="M241.75,287.25,261,252l2.55-3,3.59-.42A35.3,35.3,0,0,0,263,253.5c-1,1.75-18.75,34-18.75,34Z" style="fill:#fff"></path><path d="M244.25,288h-.05l-2.5-.25a.5.5,0,0,1-.39-.27.49.49,0,0,1,0-.47l19.25-35.25.06-.09,2.55-3a.56.56,0,0,1,.32-.17l3.59-.42a.5.5,0,0,1,.41.85,35.69,35.69,0,0,0-4.06,4.79c-1,1.72-18.56,33.67-18.74,34A.51.51,0,0,1,244.25,288Zm-1.7-1.17L244,287c1.78-3.22,17.66-32.07,18.6-33.72a26.18,26.18,0,0,1,3.24-4l-2,.23-2.39,2.79Z" style="fill:#263238"></path><path d="M236.42,333.93s-1.5,6.38-1.68,7.32-3,3.75-3.38,5.44-.37,3.37-1.12,2.81a3.43,3.43,0,0,1-.94-2.81s-6.19-3-6.38-4.13,9.38-8.81,9.38-8.81Z" style="fill:#fff"></path><path d="M230.5,350.11a.91.91,0,0,1-.56-.21,4,4,0,0,1-1.19-2.92c-2.42-1.19-6.13-3.19-6.32-4.34-.16-.93,3.06-4.06,9.56-9.28a.41.41,0,0,1,.33-.11l4.13.19a.45.45,0,0,1,.37.19.49.49,0,0,1,.09.42c0,.06-1.5,6.38-1.68,7.3a7.28,7.28,0,0,1-1.4,2.22,11.59,11.59,0,0,0-2,3.22c-.09.42-.16.83-.22,1.21-.19,1.11-.31,1.84-.86,2.06A.68.68,0,0,1,230.5,350.11Zm-7.06-7.6c.34.63,3.37,2.41,6.08,3.73a.49.49,0,0,1,.25.6,3.29,3.29,0,0,0,.64,2.14,9,9,0,0,0,.23-1.15c.07-.39.14-.82.23-1.25A11.71,11.71,0,0,1,233,343a9.35,9.35,0,0,0,1.22-1.82c.15-.78,1.17-5.14,1.55-6.74l-3.33-.16C228.24,337.66,223.81,341.59,223.44,342.51Z" style="fill:#263238"></path><path d="M229.3,346.69a15.71,15.71,0,0,1,1.87-5.25" style="fill:#fff"></path><path d="M229.3,347.19h-.08a.49.49,0,0,1-.41-.58,15.87,15.87,0,0,1,1.95-5.45.5.5,0,0,1,.7-.12.49.49,0,0,1,.12.69,15.5,15.5,0,0,0-1.79,5A.5.5,0,0,1,229.3,347.19Z" style="fill:#263238"></path><polygon points="239.95 286.91 262.31 289.78 257.2 323.65 249.53 324.29 228.76 312.79 239.95 286.91" style="fill:#fff"></polygon><path d="M249.53,324.79a.51.51,0,0,1-.24-.07l-20.77-11.5a.49.49,0,0,1-.21-.63l11.18-25.88a.5.5,0,0,1,.52-.3l22.36,2.88a.53.53,0,0,1,.34.19.52.52,0,0,1,.09.38l-5.11,33.86a.5.5,0,0,1-.45.43l-7.67.63ZM229.4,312.57l20.24,11.21,7.12-.6,5-33-21.48-2.76Z" style="fill:#263238"></path><polygon points="256.24 289.46 249.53 324.29 257.2 323.65 262.31 289.78 256.24 289.46" style="fill:#fff"></polygon><path d="M249.53,324.79a.48.48,0,0,1-.37-.17.49.49,0,0,1-.12-.43l6.71-34.82a.5.5,0,0,1,.52-.4l6.07.32a.47.47,0,0,1,.36.18.46.46,0,0,1,.1.39l-5.11,33.86a.5.5,0,0,1-.45.43l-7.67.63Zm7.12-34.8-6.5,33.74,6.61-.55,5-32.93Z" style="fill:#263238"></path><path d="M263.55,249s6.11,5.93,2.59,16.15-9.9,24.28-9.9,24.28h3.19l10.71-27.66a14.12,14.12,0,0,0-.5-7.77,30.78,30.78,0,0,0-2.5-5.42Z" style="fill:#fff"></path><path d="M259.43,290h-3.19a.5.5,0,0,1-.42-.22.49.49,0,0,1,0-.48c.06-.14,6.41-14.15,9.88-24.24,3.37-9.81-2.41-15.58-2.47-15.63a.5.5,0,0,1,.29-.86l3.59-.42a.51.51,0,0,1,.47.22,32.06,32.06,0,0,1,2.56,5.53,14.49,14.49,0,0,1,.52,8.06L259.9,289.65A.49.49,0,0,1,259.43,290ZM257,289h2.08l10.59-27.34h0a13.73,13.73,0,0,0-.5-7.41,37.15,37.15,0,0,0-2.29-5.07l-2.34.28c1.51,1.94,4.94,7.59,2.08,15.93C263.58,274.17,258.35,286,257,289Z" style="fill:#263238"></path><path d="M265.13,249s-10.22,0-10.44,1.56-9.33,38-10.44,40-5.32,8.44-6.21,13.32-6.66,30.42-6.66,30.42l6.21.89s12.22-26.86,13.33-31.53,2.66-13.54,2.66-13.54,14.21-28.87,14-31.53a17.91,17.91,0,0,0-.89-4.44" style="fill:#92E3A9"></path><path d="M237.59,335.62h-.07l-6.21-.89a.53.53,0,0,1-.35-.21.56.56,0,0,1-.07-.4c.06-.25,5.78-25.58,6.66-30.4.76-4.17,3.85-9.38,5.51-12.18.32-.53.58-1,.76-1.29,1-1.8,10.06-37.57,10.38-39.79.23-1.64,6.07-2,10.93-2a.51.51,0,0,1,.5.5.5.5,0,0,1-.5.5c-5,0-9.57.53-10,1.16,0,.25-9.2,37.81-10.48,40.11-.18.32-.45.77-.77,1.31-1.63,2.75-4.66,7.86-5.39,11.85-.81,4.45-5.71,26.23-6.55,29.92l5.31.75c1.42-3.13,12.12-26.81,13.14-31.09,1.09-4.6,2.64-13.43,2.66-13.52a.65.65,0,0,1,0-.13c5.69-11.56,14.09-29.42,13.94-31.27a17.64,17.64,0,0,0-.86-4.31.5.5,0,0,1,.94-.35,18.84,18.84,0,0,1,.92,4.58c.22,2.7-12.41,28.47-14,31.73-.15.84-1.61,9.09-2.66,13.5-1.11,4.65-12.85,30.52-13.35,31.62A.5.5,0,0,1,237.59,335.62Z" style="fill:#263238"></path><path d="M166.93,432.9a3.56,3.56,0,1,0-3.56,3.56A3.56,3.56,0,0,0,166.93,432.9Z" style="fill:#263238"></path><path d="M163.37,437a4.07,4.07,0,1,1,4.06-4.06A4.06,4.06,0,0,1,163.37,437Zm0-7.13a3.07,3.07,0,1,0,3.06,3.07A3.07,3.07,0,0,0,163.37,429.83Z" style="fill:#263238"></path><path d="M168.06,433a1,1,0,0,1-.56-.17,1,1,0,0,1-.27-1.39l52.65-77.56a1,1,0,0,1,1.66,1.12l-52.65,77.56A1,1,0,0,1,168.06,433Z" style="fill:#263238"></path><path d="M220.71,356.4a2.09,2.09,0,0,1-1.14-.35,2,2,0,0,1-.51-2.79l8.4-12.21a2,2,0,0,1,3.3,2.27l-8.4,12.21A2,2,0,0,1,220.71,356.4Z" style="fill:#263238"></path><rect x="157.31" y="373.3" width="25.88" height="54.57" rx="3.47" transform="translate(258.42 -25.65) rotate(34.71)" style="fill:#263238"></rect><path d="M164.46,429.52a4,4,0,0,1-2.25-.7h0L146.63,418a4,4,0,0,1-1-5.52l27.13-39.16a4,4,0,0,1,5.52-1l15.57,10.79a4,4,0,0,1,1,5.52l-27.13,39.16A4,4,0,0,1,164.46,429.52ZM162.78,428a3,3,0,0,0,4.13-.74L194,388.09a3,3,0,0,0-.75-4.13l-15.57-10.79a3,3,0,0,0-4.13.75l-27.12,39.16a2.87,2.87,0,0,0-.48,2.22,2.91,2.91,0,0,0,1.22,1.9Z" style="fill:#263238"></path><path d="M148.52,372h12.84a0,0,0,0,1,0,0v42.19a0,0,0,0,1,0,0H149.81a5,5,0,0,1-5-5V375.61a3.66,3.66,0,0,1,3.66-3.66Z" transform="matrix(0.82, 0.57, -0.57, 0.82, 251.08, -17.23)" style="fill:#263238"></path><path d="M147.88,415.59a.52.52,0,0,1-.29-.09l-9.49-6.58a5.46,5.46,0,0,1-1.38-7.59l19.12-27.6a4.18,4.18,0,0,1,5.8-1.05L172.19,380a.51.51,0,0,1,.13.7l-24,34.68A.5.5,0,0,1,147.88,415.59Zm11.39-42.65a3.17,3.17,0,0,0-2.6,1.36l-19.13,27.61a4.45,4.45,0,0,0,1.13,6.19l9.08,6.29,23.46-33.86-10.14-7A3.16,3.16,0,0,0,159.27,372.94Z" style="fill:#263238"></path><path d="M150.68,373.45h12.84a0,0,0,0,1,0,0v42.19a0,0,0,0,1,0,0H152a5,5,0,0,1-5-5V377.11A3.66,3.66,0,0,1,150.68,373.45Z" transform="matrix(0.82, 0.57, -0.57, 0.82, 252.31, -18.2)" style="fill:#92E3A9"></path><path d="M150,417.08a.52.52,0,0,1-.29-.09l-9.49-6.58a5.45,5.45,0,0,1-1.38-7.58L158,375.23a4.15,4.15,0,0,1,5.79-1.05l10.56,7.31a.51.51,0,0,1,.21.32.49.49,0,0,1-.09.37l-24,34.69a.52.52,0,0,1-.32.2Zm11.39-42.64a3.16,3.16,0,0,0-2.61,1.36L139.7,403.4a4.44,4.44,0,0,0,1.13,6.19h0l9.08,6.3L173.37,382l-10.15-7A3.11,3.11,0,0,0,161.43,374.44Z" style="fill:#263238"></path><path d="M164.59,375.33l-10.86,14.75a1.2,1.2,0,0,0,.26,1.68l2.64,1.95a1.2,1.2,0,0,0,1.68-.26l10.95-14.88Z" style="fill:#263238"></path><rect x="159.77" y="375.01" width="25.88" height="54.57" rx="3.47" transform="translate(259.83 -26.75) rotate(34.71)" style="fill:#92E3A9"></rect><path d="M166.93,431.23a4,4,0,0,1-2.25-.7h0L149.1,419.74a4,4,0,0,1-1-5.52l27.13-39.16a3.9,3.9,0,0,1,2.55-1.64,3.85,3.85,0,0,1,3,.64l15.58,10.79a4,4,0,0,1,1,5.52l-27.13,39.15A4,4,0,0,1,166.93,431.23Zm-1.68-1.53a3,3,0,0,0,4.12-.75l27.13-39.16a3,3,0,0,0-.75-4.12l-15.57-10.79a3,3,0,0,0-4.13.75l-27.13,39.16a3,3,0,0,0,.75,4.12Z" style="fill:#263238"></path><polygon points="164.87 426.33 162.25 433.64 163.56 434.39 168.43 428.58 164.87 426.33" style="fill:#fff"></polygon><path d="M163.56,434.9a.55.55,0,0,1-.25-.07l-1.31-.75a.49.49,0,0,1-.22-.6l2.62-7.32a.51.51,0,0,1,.31-.3.5.5,0,0,1,.43.05l3.56,2.25a.5.5,0,0,1,.23.34.51.51,0,0,1-.11.4l-4.88,5.82A.53.53,0,0,1,163.56,434.9Zm-.7-1.48.58.33,4.24-5.05-2.55-1.61Z" style="fill:#263238"></path><path d="M186,378.28l-12.11,16.24a1.28,1.28,0,0,0,.26,1.79l2.5,1.87a1.29,1.29,0,0,0,1.79-.26l12.24-16.4Z" style="fill:#263238"></path><rect x="156.42" y="401.39" width="19.04" height="19.89" rx="3.03" transform="translate(270.87 -19.62) rotate(35.65)" style="fill:#263238"></rect><path d="M167.18,424.27a3.55,3.55,0,0,1-2.05-.66h0L154.58,416a3.53,3.53,0,0,1-.81-4.93l8.06-11.23a3.52,3.52,0,0,1,4.92-.81l10.55,7.56a3.54,3.54,0,0,1,.81,4.93l-8.06,11.24A3.52,3.52,0,0,1,167.18,424.27Zm-1.47-1.48a2.52,2.52,0,0,0,3.53-.58L177.3,411a2.54,2.54,0,0,0-.58-3.53l-10.55-7.57a2.54,2.54,0,0,0-3.53.58l-8.06,11.24a2.54,2.54,0,0,0,.58,3.53Z" style="fill:#263238"></path><rect x="157.6" y="402.58" width="19.04" height="19.89" rx="3.03" transform="translate(271.79 -20.09) rotate(35.65)" style="fill:#92E3A9"></rect><path d="M168.36,425.45a3.48,3.48,0,0,1-2.05-.66h0l-10.55-7.56a3.52,3.52,0,0,1-1.42-2.3,3.46,3.46,0,0,1,.61-2.63L163,401.06a3.55,3.55,0,0,1,4.93-.81l10.54,7.57a3.54,3.54,0,0,1,.82,4.93L171.24,424A3.54,3.54,0,0,1,168.36,425.45ZM166.89,424a2.54,2.54,0,0,0,3.53-.58l8.06-11.24a2.52,2.52,0,0,0-.58-3.53l-10.54-7.56a2.51,2.51,0,0,0-1.89-.45,2.54,2.54,0,0,0-1.65,1l-8.06,11.23a2.52,2.52,0,0,0,.59,3.53Z" style="fill:#263238"></path></g></svg>