<svg xmlns="http://www.w3.org/2000/svg" viewBox="0 0 750 500"><g id="freepik--background-complete--inject-73"><path d="M206.69,377.5l-13.12.28-6.66.11c-2.23.05-4.47,0-6.7.06h-.44v-.45l-.06-11.19v-.5h.5l13.24.07c4.41,0,8.83.11,13.24.16H207v.27c0,1.9-.08,3.79-.13,5.66Zm0,0-.14-5.65c-.05-1.86-.11-3.7-.13-5.54l.27.28c-4.41.05-8.83.16-13.24.16l-13.24.06.5-.5-.05,11.19-.45-.44c2.18,0,4.36,0,6.55.05l6.58.12Z" style="fill:#ebebeb"></path><path d="M191.92,391.61l-13.13.28-6.66.11c-2.22.05-4.46,0-6.69.06H165v-.45l-.05-11.19v-.5h.5l13.24.07c4.41,0,8.83.11,13.24.16h.28v.27c0,1.9-.08,3.79-.13,5.66Zm0,0-.14-5.65c-.05-1.86-.11-3.7-.13-5.54l.27.28c-4.41.05-8.83.16-13.24.16l-13.24.06.5-.5-.06,11.19-.44-.44c2.18,0,4.36,0,6.54.05l6.58.11Z" style="fill:#ebebeb"></path><path d="M408.17,377.5l-13.12.28-6.66.11c-2.23.05-4.47,0-6.7.06h-.44v-.45l-.06-11.19v-.5h.5l13.24.07c4.42,0,8.83.11,13.24.16h.28v.27c0,1.9-.09,3.79-.14,5.66Zm0,0-.14-5.65c0-1.86-.11-3.7-.13-5.54l.27.28c-4.41.05-8.82.16-13.24.16l-13.24.06.5-.5-.05,11.19-.45-.44c2.18,0,4.36,0,6.55.05l6.58.12Z" style="fill:#ebebeb"></path><path d="M393.4,391.61l-13.12.28-6.66.11c-2.23.05-4.47,0-6.7.06h-.44v-.45l-.06-11.19v-.5h.5l13.24.07c4.41,0,8.83.11,13.24.16h.28v.27c0,1.9-.08,3.79-.13,5.66Zm0,0-.14-5.65c-.05-1.86-.11-3.7-.13-5.54l.27.28c-4.41.05-8.83.16-13.24.16l-13.24.06.5-.5-.05,11.19-.45-.44c2.18,0,4.36,0,6.55.05l6.58.11Z" style="fill:#ebebeb"></path><path d="M378.69,377.5l-13.13.28-6.66.11c-2.22.05-4.46,0-6.69.06h-.45v-.45l-.05-11.19v-.5h.5l13.24.07c4.41,0,8.82.11,13.24.16H379v.27c0,1.9-.09,3.79-.13,5.66Zm0,0-.14-5.65c-.05-1.86-.12-3.7-.14-5.54l.28.28c-4.42.05-8.83.16-13.24.16l-13.24.06.5-.5-.06,11.19-.44-.44c2.18,0,4.35,0,6.54.05l6.58.12Z" style="fill:#ebebeb"></path><path d="M585.06,391.61l-13.12.28-6.67.11c-2.22.05-4.46,0-6.69.06h-.44v-.45l0-11.19v-.5h.5l13.24.07c4.41,0,8.83.11,13.24.16h.28v.27c0,1.9-.08,3.79-.13,5.66Zm0,0-.14-5.65c0-1.86-.11-3.7-.13-5.54l.27.28c-4.41.05-8.83.16-13.24.16l-13.24.06.5-.5L559,391.61l-.45-.44c2.18,0,4.36,0,6.55.05l6.57.11Z" style="fill:#ebebeb"></path><path d="M78.34,211c-.6,0-.66-1.19,0-1.28,2.83-.35,5.66-2.88,8.48-3.26s5.61-.68,8.11-1.94c4.21-2.11,6.83-6.33,11.18-8.36,7.63-3.55,15.5-2,22.93,1.1a26.15,26.15,0,0,0,14,2.07c4.34-.55,8.57-1.75,12.89-2.37a25.47,25.47,0,0,1,11.58.56c3.88,1.25,7.21,3.68,10.86,5.44,4.81,2.32,9.56,1.93,14.74,2.08,3.73.11,11.53,2.47,11.53,5C204.72,211.72,85.74,211,78.34,211Z" style="fill:#ebebeb"></path><path d="M672,161.12c-5.21,0-135.27-.91-172-.91-2.57,0,.67-4.44,2.09-4.75,4.52-1,9.22-1.05,13.81-1.52a45,45,0,0,0,13.17-3.3c3.61-1.52,7.22-3.29,11.13-3.9,7.57-1.19,14.21,2.91,21.31,4.73a16.06,16.06,0,0,0,12.9-1.77c3.29-2,6.27-4.33,9.7-6.07a53.21,53.21,0,0,1,42.5-1.94,49.45,49.45,0,0,1,9.3,4.76c3.46,2.27,6.45,5.18,9.93,7.43,7.71,5,17.23,3.36,25.63,6.22C671.88,160.25,672.4,161.12,672,161.12Z" style="fill:#ebebeb"></path><path d="M300.14,310c-6.89,0-122.85.77-130.13.54-.53,0-.81-.79-.29-1.05,4.59-2.27,9.81-1.82,14.58-3.43,2.81-.94,4.53-2.78,6.48-4.88a13.4,13.4,0,0,1,6-3.94,12.73,12.73,0,0,1,6.57-.21c2.35.56,4.39,1.91,6.64,2.76,5.57,2.1,11,.1,15-4,3.28-3.4,6.5-6.6,11-8.43a14.54,14.54,0,0,1,11.62-.16c4.25,1.92,7.17,5.8,11.16,8.13,4.74,2.77,10.4,2.11,15.63,2.95s9.25,5.24,13.84,7.78a9.79,9.79,0,0,0,5,1.54,28.5,28.5,0,0,0,3-.43c1.58-.19,3.08-.15,4.14,1.17C300.64,308.59,300.59,310,300.14,310Z" style="fill:#ebebeb"></path><path d="M382.32,128.26c-5,0-89.69.56-95,.39a.41.41,0,0,1-.21-.76c3.35-1.66,7.16-1.33,10.64-2.5a11.52,11.52,0,0,0,4.74-3.57,9.79,9.79,0,0,1,4.4-2.88,9.41,9.41,0,0,1,4.8-.15,40.94,40.94,0,0,1,4.85,2c4.06,1.54,8,.08,10.92-2.93,2.39-2.48,4.75-4.82,8-6.16a10.6,10.6,0,0,1,8.48-.11c3.11,1.4,5.24,4.23,8.16,5.93,3.45,2,7.59,1.55,11.41,2.16s6.75,3.82,10.1,5.67a7,7,0,0,0,3.65,1.13,20.79,20.79,0,0,0,2.22-.31,3.06,3.06,0,0,1,3,.85C382.68,127.27,382.65,128.26,382.32,128.26Z" style="fill:#ebebeb"></path><path d="M591.86,236.44c-5,0-89.68.55-95,.39-.39,0-.59-.58-.21-.77,3.35-1.66,7.16-1.32,10.64-2.5A11.26,11.26,0,0,0,512,230a9.77,9.77,0,0,1,4.41-2.87,9.2,9.2,0,0,1,4.8-.15,40.8,40.8,0,0,1,4.84,2c4.07,1.53,8,.08,10.93-2.93,2.39-2.48,4.75-4.83,8-6.16a10.64,10.64,0,0,1,8.48-.12c3.11,1.41,5.24,4.24,8.15,5.94,3.46,2,7.6,1.54,11.42,2.15s6.75,3.83,10.1,5.68a7.19,7.19,0,0,0,3.65,1.13c.75,0,1.48-.22,2.22-.31a3,3,0,0,1,3,.85C592.23,235.44,592.19,236.44,591.86,236.44Z" style="fill:#ebebeb"></path><path d="M498.56,101.35H354.82c-.58,0-.8-.61-.21-.89,5.14-2.42,10.91-1.79,16.24-3.46,3.14-1,5.09-3,7.3-5.28a15,15,0,0,1,6.79-4.23,14.19,14.19,0,0,1,7.29-.07c2.59.67,4.83,2.21,7.3,3.21,6.13,2.46,12.17.37,16.68-4.11,3.72-3.7,7.37-7.18,12.35-9.1a16.14,16.14,0,0,1,12.89.09c4.67,2.23,7.82,6.6,12.19,9.27,5.19,3.18,11.49,2.59,17.27,3.63s10.6,3.55,15.63,6.46a10.94,10.94,0,0,0,5.51,1.84c1.14,0,2.26-.29,3.39-.41,1.75-.18,3.41-.1,4.56,1.39C500.28,100.05,502,101.35,498.56,101.35Z" style="fill:#ebebeb"></path></g><g id="freepik--Floor--inject-73"><polygon points="55.45 445.02 135.34 444.78 215.23 444.69 375 444.52 534.77 444.69 614.66 444.77 694.55 445.02 614.66 445.26 534.77 445.35 375 445.52 215.23 445.35 135.34 445.26 55.45 445.02" style="fill:#263238"></polygon></g><g id="freepik--Airplanes--inject-73"><path d="M222.75,173.46c-.28-.32-4.19-3.05-4.48-3.25l.67-.12S222.5,173.13,222.75,173.46Z" style="fill:#c7c7c7"></path><path d="M222.76,173.49h0a1.21,1.21,0,0,1-.6.17h0a2.54,2.54,0,0,1-.84,0c-.08-.06-2.9-1.47-4.63-2.33l-.06,0h0l-.24-.12-.71-.35-.28-.14,2.9-.5c.16.11,1.48,1,2.65,1.87l.12.09.32.23c.71.51,1.28.95,1.39,1.06v0Z" style="fill:#c7c7c7"></path><g style="opacity:0.5"><path d="M222.76,173.49h0a1.21,1.21,0,0,1-.6.17h0a2.54,2.54,0,0,1-.84,0c-.09-.06-3-1.5-4.69-2.36.28.14,4,1.92,4.74,1.07.71.51,1.28.95,1.39,1.06v0Z" style="fill:#c7c7c7"></path><path d="M221,172.17a2.06,2.06,0,0,1-.35.12,1.6,1.6,0,0,1-.49,0l-.24,0-.24,0c-.31-.05-.62-.13-.93-.21-.61-.18-1.22-.38-1.81-.61l-.62-.25-.71-.35,1.38.47c.6.19,1.2.39,1.81.56.3.08.61.17.91.22a2.34,2.34,0,0,0,.91.05l.26-.07Z" style="fill:#c7c7c7"></path></g><path d="M261,176.67h0c0,.39-2.14.51-2.43.43S235,167.86,235,167.86l8.56-3.39a1.91,1.91,0,0,0,.24.17l.11.08c1.58,1.09,6.29,4.36,10.4,7.23l.24.17.33.22C257.68,174.34,260.15,176.08,261,176.67Z" style="fill:#c7c7c7"></path><path d="M261,176.67c-2.09-1.56-15.67-11-17.44-12.2l1.08-.43s15.82,12,16.3,12.51A.19.19,0,0,1,261,176.67Z" style="fill:#c7c7c7"></path><g style="opacity:0.5"><path d="M261,176.67h0c0,.39-2.14.51-2.43.43S235,167.86,235,167.86l8.56-3.39s-2.12,2.42,2.9,6.14c3.42,2.54,7.06,3.07,8.42,1.73C257.68,174.34,260.15,176.08,261,176.67Z" style="fill:#c7c7c7"></path><path d="M254.5,172.12a3.22,3.22,0,0,1-.74.31,4.94,4.94,0,0,1-2.13.09,11.63,11.63,0,0,1-3.92-1.56,12.77,12.77,0,0,1-1.72-1.22,8,8,0,0,1-1.44-1.57,5,5,0,0,1-.85-2,3.61,3.61,0,0,1,.05-1.57l.11.08a3.66,3.66,0,0,0,.19,1.4,5.16,5.16,0,0,0,1,1.71c.1.13.21.25.32.37s.23.24.35.36.49.44.75.65a14.69,14.69,0,0,0,1.66,1.13,17.74,17.74,0,0,0,1.77.95,10.71,10.71,0,0,0,1.87.67,6.67,6.67,0,0,0,1,.16,4,4,0,0,0,1,0,4,4,0,0,0,.57-.14Z" style="fill:#c7c7c7"></path></g><path d="M241.56,170.86c-.66.32-1.38.57-1.43-.09,0-.27.19-.56,1.25-1.08.25-.12.86-.38,1,.17S241.81,170.74,241.56,170.86Z" style="fill:#c7c7c7"></path><path d="M247,173.07c-.66.32-1.38.57-1.43-.09,0-.27.19-.57,1.25-1.08.25-.12.86-.38,1,.17S247.2,173,247,173.07Z" style="fill:#c7c7c7"></path><path d="M252.35,175.28c-.66.32-1.38.57-1.43-.09,0-.28.19-.57,1.25-1.08.25-.12.86-.39,1,.17S252.6,175.16,252.35,175.28Z" style="fill:#c7c7c7"></path><path d="M250.58,169.48c-.65,1.15-2.12,1.57-3.06,1.94-2.48,1-4.27,1.55-5.16-.7a2.65,2.65,0,0,1-.2-.82c-.15-1.7,1.61-2.55,2.51-3h0c1.08-.57,1.84-.93,2.41-1.17a4.58,4.58,0,0,1,1.76-.46c.51,0,1.64.11,2,2.19A2.93,2.93,0,0,1,250.58,169.48Z" style="fill:#c7c7c7"></path><path d="M250.58,169.48c-.65,1.15-2.12,1.57-3.06,1.94-2.48,1-4.27,1.55-5.16-.7a2.65,2.65,0,0,1-.2-.82c.09.16.94,1.41,3.16,1.07s5.19-3.45,1.76-5.26a4.58,4.58,0,0,1,1.76-.46c.51,0,1.64.11,2,2.19A2.93,2.93,0,0,1,250.58,169.48Z" style="fill:#c7c7c7"></path><ellipse cx="248.85" cy="167.86" rx="1.77" ry="2.29" style="fill:#c7c7c7"></ellipse><path d="M250.41,167.86a1.62,1.62,0,1,1-1.56-2A1.84,1.84,0,0,1,250.41,167.86Z" style="fill:#c7c7c7"></path><path d="M213.57,167.25l-.41.15-.92.34-3.19-1.38c-3.09-1.33-6.75-2.88-7.45-3.12l.09,0,.08,0,.1,0,.07,0,.24.08.25.09.7.23.24.08.23.07.12,0,.38.13.25.08,3.28,1.11.32.1,1.22.41,2.11.72.29.1.92.31h0l.24.08.11,0h0Z" style="fill:#c7c7c7"></path><path d="M212.24,167.74l-2.47.9s-5.52-2.56-8.81-4.17h0l0,0-.95-.47a7.67,7.67,0,0,1-1.37-.75,6.8,6.8,0,0,1,3,0h0l.06,0c.68.23,4.12,1.69,7.14,3l.07,0,.24.1Z" style="fill:#c7c7c7"></path><g style="opacity:0.5"><path d="M212.24,167.74l-2.47.9s-5.52-2.56-8.81-4.17c.54.24,6.13,2.69,7.51,2.35a.77.77,0,0,0,.58-.46Z" style="fill:#c7c7c7"></path><path d="M208.81,166.26a.93.93,0,0,1-.36.26.78.78,0,0,1-.37.09l-.38,0c-.25,0-.49-.08-.73-.13-1-.22-1.9-.52-2.84-.83s-1.85-.65-2.77-1l-.48-.18-.95-.47,1.48.53c.93.32,1.85.66,2.78,1s1.86.62,2.81.86q.36.09.72.15a1.28,1.28,0,0,0,.7,0,.83.83,0,0,0,.32-.2Z" style="fill:#c7c7c7"></path></g><path d="M218.59,164.22l-6,2.88s.06-5.14.11-8.84v-.37c0-.1,0-.2,0-.3,0-1.27,0-2.29,0-2.75,0-1.49.19-1.79.58-1.55a19.47,19.47,0,0,1,2.67,2.44,38.84,38.84,0,0,1,2,6.26.09.09,0,0,1,0,0c0,.14.08.27.11.4C218.41,163.48,218.59,164.22,218.59,164.22Z" style="fill:#c7c7c7"></path><g style="opacity:0.5"><path d="M218.59,164.22l-6,2.88s.06-5.14.11-8.84c.88,2,2.62,4.66,5.42,4.18C218.41,163.48,218.59,164.22,218.59,164.22Z" style="fill:#c7c7c7"></path><path d="M218,162a2.93,2.93,0,0,1-1.79-.24,5.33,5.33,0,0,1-.92-.55,7.46,7.46,0,0,1-.79-.7,9.69,9.69,0,0,1-1.27-1.67c-.19-.32-.38-.65-.54-1,0-.1,0-.2,0-.3.24.38.5.76.77,1.13s.4.55.62.81.43.52.67.76a6.7,6.7,0,0,0,1.57,1.25A3.56,3.56,0,0,0,218,162,.09.09,0,0,1,218,162Z" style="fill:#c7c7c7"></path></g><path d="M208.41,170.24c-.61-1.54,2-2.94,5-4.28s32.29-14.26,36.54-15.41,9.2.42,10,2.85c1.25,3.64-4,6.69-23,14.57-2.49,1-13.62,3.7-19.88,3.72C210.37,171.71,208.72,171,208.41,170.24Z" style="fill:#c7c7c7"></path><path d="M236.94,168c-2.49,1-13.62,3.7-19.88,3.72-6.69,0-8.34-.69-8.65-1.45s.24-1.57,1.28-2.31a1,1,0,0,0,.08.45c.28.69,1.78,1.34,7.85,1.32,5.68,0,13.85-4.62,16.1-5.56,17.24-7.14,24-7.74,22.83-11-.5-1.44-2.59-2.55-5.05-2.85,3.82-.46,7.73,1,8.46,3.15C261.22,157,255.93,160.09,236.94,168Z" style="fill:#c7c7c7;opacity:0.2"></path><polygon points="217.71 165.16 218.38 164.86 218.38 165.85 217.71 166.15 217.71 165.16" style="fill:#c7c7c7"></polygon><polygon points="218.94 164.62 219.65 164.31 219.65 165.3 218.94 165.61 218.94 164.62" style="fill:#c7c7c7"></polygon><polygon points="220.21 164.07 220.93 163.76 220.93 164.75 220.21 165.06 220.21 164.07" style="fill:#c7c7c7"></polygon><polygon points="221.49 163.52 222.2 163.21 222.2 164.2 221.49 164.51 221.49 163.52" style="fill:#c7c7c7"></polygon><polygon points="222.76 162.97 223.48 162.66 223.48 163.65 222.76 163.96 222.76 162.97" style="fill:#c7c7c7"></polygon><polygon points="224.03 162.42 224.75 162.1 224.75 163.1 224.03 163.41 224.03 162.42" style="fill:#c7c7c7"></polygon><polygon points="225.31 161.87 226.03 161.55 226.03 162.54 225.31 162.85 225.31 161.87" style="fill:#c7c7c7"></polygon><polygon points="226.58 161.31 227.3 161 227.3 161.99 226.58 162.3 226.58 161.31" style="fill:#c7c7c7"></polygon><polygon points="227.86 160.76 228.58 160.45 228.58 161.44 227.86 161.75 227.86 160.76" style="fill:#c7c7c7"></polygon><polygon points="229.13 160.21 229.85 159.9 229.85 160.89 229.13 161.2 229.13 160.21" style="fill:#c7c7c7"></polygon><polygon points="230.41 159.66 231.13 159.35 231.13 160.34 230.41 160.65 230.41 159.66" style="fill:#c7c7c7"></polygon><polygon points="231.68 159.11 232.4 158.79 232.4 159.78 231.68 160.1 231.68 159.11" style="fill:#c7c7c7"></polygon><polygon points="232.96 158.55 233.68 158.24 233.68 159.23 232.96 159.54 232.96 158.55" style="fill:#c7c7c7"></polygon><polygon points="234.23 158 234.95 157.69 234.95 158.68 234.23 158.99 234.23 158" style="fill:#c7c7c7"></polygon><polygon points="235.51 157.45 236.22 157.14 236.22 158.13 235.51 158.44 235.51 157.45" style="fill:#c7c7c7"></polygon><polygon points="236.78 156.9 237.5 156.59 237.5 157.58 236.78 157.89 236.78 156.9" style="fill:#c7c7c7"></polygon><polygon points="238.06 156.35 238.78 156.04 238.78 157.03 238.06 157.34 238.06 156.35" style="fill:#c7c7c7"></polygon><polygon points="239.33 155.79 240.05 155.48 240.05 156.47 239.33 156.79 239.33 155.79" style="fill:#c7c7c7"></polygon><polygon points="240.6 155.24 241.32 154.93 241.32 155.92 240.6 156.23 240.6 155.24" style="fill:#c7c7c7"></polygon><polygon points="241.88 154.69 242.6 154.38 242.6 155.37 241.88 155.68 241.88 154.69" style="fill:#c7c7c7"></polygon><polygon points="243.15 154.14 243.87 153.83 243.87 154.82 243.15 155.13 243.15 154.14" style="fill:#c7c7c7"></polygon><polygon points="245.15 153.28 245.15 154.27 244.43 154.58 244.43 153.59 245.15 153.28" style="fill:#c7c7c7"></polygon><polygon points="246.42 152.72 246.42 153.72 245.7 154.03 245.7 153.04 246.42 152.72" style="fill:#c7c7c7"></polygon><polygon points="247.7 152.17 247.7 153.16 246.98 153.48 246.98 152.49 247.7 152.17" style="fill:#c7c7c7"></polygon><polygon points="248.97 151.62 248.97 152.61 248.25 152.92 248.25 151.93 248.97 151.62" style="fill:#c7c7c7"></polygon><path d="M252.3,151.22a3.59,3.59,0,0,1,1.34-.63v.66Z" style="fill:#c7c7c7"></path><path d="M255.21,150.44v.91l-1-.07v-.8A5.65,5.65,0,0,1,255.21,150.44Z" style="fill:#c7c7c7"></path><path d="M258.41,151.72a6.77,6.77,0,0,1-.8-.08c-.26,0-.51-.08-.76-.1s-.73-.1-1.09-.14v-.9a5.15,5.15,0,0,1,1.28.34,5.64,5.64,0,0,1,.73.38,3.29,3.29,0,0,1,.33.23Z" style="fill:#c7c7c7"></path><path d="M235.51,159.79l-8.45,4.07s-13.43-7.2-23.07-12.46h0c-5.15-2.81-9.07-5-9-5.08a12.46,12.46,0,0,1,3.77-.05,1.54,1.54,0,0,1,.3.05c.43.12,15.62,5.75,26.26,9.69Z" style="fill:#c7c7c7"></path><g style="opacity:0.5"><path d="M235.51,159.79l-8.45,4.07s-13.43-7.2-23.07-12.46c.76.38,18,9.09,20.29,7.78.85-.49,1.07-1.77,1-3.18Z" style="fill:#c7c7c7"></path><path d="M205.24,152.08h0l1.11.49q3.84,1.69,7.75,3.23c1.3.51,2.62,1,3.94,1.46.66.23,1.33.45,2,.66s1.35.39,2.05.53a4.77,4.77,0,0,0,1.08.13l.31,0a.91.91,0,0,0,.28-.13,2.25,2.25,0,0,0,.47-.34,2.68,2.68,0,0,0,.58-1,4.34,4.34,0,0,0,.25-1,.78.78,0,0,0,0-.16l-.26-.09,0,.21a3.09,3.09,0,0,1-.83,1.77,1.46,1.46,0,0,1-.38.27.87.87,0,0,1-.19.08l-.22,0a5,5,0,0,1-1-.16,38,38,0,0,1-4-1.25c-1.31-.47-2.61-1-3.91-1.48-2.61-1-5.2-2.06-7.79-3.11l-4.19-1.7h0Z" style="fill:#c7c7c7"></path></g><path d="M236.74,159.24l-2.51,1.2c-6.42-2.69-33.12-13.24-35.35-14.13l-.07,0h-.08a1.54,1.54,0,0,1,.3.05C199.69,146.49,236.74,159.24,236.74,159.24Z" style="fill:#c7c7c7"></path><path d="M218.65,159.43c-.83.4-1.73.72-1.79-.11,0-.34.23-.71,1.56-1.35.31-.15,1.07-.48,1.3.21S219,159.28,218.65,159.43Z" style="fill:#c7c7c7"></path><path d="M211.5,155.82c-.83.4-1.73.72-1.79-.11,0-.34.23-.71,1.56-1.35.31-.15,1.08-.48,1.3.21S211.81,155.67,211.5,155.82Z" style="fill:#c7c7c7"></path><path d="M204.32,152.16c-.77.38-1.6.67-1.66-.1,0-.32.22-.66,1.45-1.25.3-.14,1-.45,1.21.19S204.61,152,204.32,152.16Z" style="fill:#c7c7c7"></path><path d="M229.31,158.61c-.65,1.16-2.12,1.58-3.06,1.95-2.48,1-4.28,1.55-5.16-.7a2.79,2.79,0,0,1-.2-.82c-.15-1.7,1.61-2.55,2.51-3h0c1.08-.57,1.84-.94,2.41-1.17a4.2,4.2,0,0,1,1.76-.46c.5,0,1.64.11,2,2.19A3,3,0,0,1,229.31,158.61Z" style="fill:#c7c7c7"></path><path d="M229.31,158.61c-.65,1.16-2.12,1.58-3.06,1.95-2.48,1-4.28,1.55-5.16-.7a2.79,2.79,0,0,1-.2-.82c.09.15.93,1.41,3.16,1.07s5.19-3.46,1.76-5.26a4.2,4.2,0,0,1,1.76-.46c.5,0,1.64.11,2,2.19A3,3,0,0,1,229.31,158.61Z" style="fill:#c7c7c7"></path><ellipse cx="227.57" cy="157" rx="1.77" ry="2.29" style="fill:#c7c7c7"></ellipse><path d="M229.14,157a1.62,1.62,0,1,1-1.57-2A1.83,1.83,0,0,1,229.14,157Z" style="fill:#c7c7c7"></path><path d="M202.43,163.51l-.25-.09Z" style="fill:#c7c7c7"></path><rect x="408.15" y="300.39" width="7.86" height="34.37" style="fill:#c7c7c7"></rect><rect x="412.08" y="334.76" width="2.6" height="12.28" style="fill:#c7c7c7"></rect><rect x="412.08" y="341.58" width="2.6" height="12.28" transform="translate(761.11 -65.66) rotate(90)" style="fill:#c7c7c7"></rect><rect x="404.33" y="346.42" width="8.43" height="2.6" transform="translate(756.27 -60.82) rotate(90)" style="fill:#c7c7c7"></rect><rect x="414.01" y="346.42" width="8.43" height="2.6" transform="translate(765.95 -70.5) rotate(90)" style="fill:#c7c7c7"></rect><rect x="400.64" y="337.18" width="6.6" height="21.08" rx="2.06" style="fill:#c7c7c7"></rect><rect x="419.53" y="337.18" width="6.6" height="21.08" rx="2.06" style="fill:#c7c7c7"></rect><rect x="407.35" y="316.27" width="37.02" height="1.33" transform="translate(-79.95 478.07) rotate(-54.33)" style="fill:#c7c7c7"></rect><rect x="421.15" y="298.34" width="1.33" height="17.86" transform="translate(-77.57 458.77) rotate(-52.95)" style="fill:#c7c7c7"></rect><rect x="365.74" y="294.67" width="9" height="12.54" style="fill:#c7c7c7"></rect><ellipse cx="369.9" cy="329.7" rx="21.08" ry="21.42" style="fill:#c7c7c7"></ellipse><path d="M390.61,325.92a21.43,21.43,0,1,1-21.42-21.43A21.42,21.42,0,0,1,390.61,325.92Z" style="fill:#c7c7c7"></path><path d="M388.7,325.92a19.52,19.52,0,1,1-19.51-19.52A19.51,19.51,0,0,1,388.7,325.92Z" style="fill:#fff"></path><rect x="230.42" y="280.04" width="9" height="12.54" style="fill:#c7c7c7"></rect><ellipse cx="234.42" cy="305.49" rx="14.93" ry="15.17" style="fill:#c7c7c7"></ellipse><path d="M249.09,302.81a15.18,15.18,0,1,1-15.18-15.17A15.18,15.18,0,0,1,249.09,302.81Z" style="fill:#c7c7c7"></path><circle cx="233.91" cy="302.81" r="13.82" transform="translate(-145.61 254.09) rotate(-45)" style="fill:#fff"></circle><polygon points="458.52 287.88 109.74 270.54 109.74 275.21 458.52 304.98 458.52 287.88" style="fill:#c7c7c7"></polygon><polygon points="458.52 287.88 458.52 304.99 440.89 303.49 446.13 287.26 458.52 287.88" style="fill:#c7c7c7"></polygon><rect x="572.97" y="300.39" width="7.86" height="34.37" transform="translate(1153.8 635.15) rotate(180)" style="fill:#c7c7c7"></rect><rect x="574.29" y="334.76" width="2.6" height="12.28" transform="translate(1151.19 681.81) rotate(180)" style="fill:#c7c7c7"></rect><rect x="574.29" y="341.58" width="2.6" height="12.28" transform="translate(923.32 -227.87) rotate(90)" style="fill:#c7c7c7"></rect><rect x="576.22" y="346.42" width="8.43" height="2.6" transform="translate(928.16 -232.71) rotate(90)" style="fill:#c7c7c7"></rect><rect x="566.54" y="346.42" width="8.43" height="2.6" transform="translate(918.48 -223.03) rotate(90)" style="fill:#c7c7c7"></rect><rect x="581.74" y="337.18" width="6.6" height="21.08" rx="2.06" style="fill:#c7c7c7"></rect><rect x="562.85" y="337.18" width="6.6" height="21.08" rx="2.06" style="fill:#c7c7c7"></rect><rect x="562.45" y="298.42" width="1.33" height="37.02" transform="translate(-79.16 387.85) rotate(-35.67)" style="fill:#c7c7c7"></rect><rect x="558.24" y="306.6" width="17.86" height="1.33" transform="matrix(0.8, -0.6, 0.6, 0.8, -70.62, 403.78)" style="fill:#c7c7c7"></rect><rect x="614.24" y="294.67" width="9" height="12.54" transform="translate(1237.48 601.87) rotate(180)" style="fill:#c7c7c7"></rect><ellipse cx="619.08" cy="329.7" rx="21.08" ry="21.42" style="fill:#c7c7c7"></ellipse><path d="M598.37,325.92a21.43,21.43,0,1,0,21.42-21.43A21.42,21.42,0,0,0,598.37,325.92Z" style="fill:#c7c7c7"></path><path d="M600.28,325.92a19.52,19.52,0,1,0,19.51-19.52A19.51,19.51,0,0,0,600.28,325.92Z" style="fill:#fff"></path><path d="M683.35,280.28v11.65l-60.11,5.13-9,.77-33.41,2.85-7.86.67-19,1.63-1.55.13-4.29.37-11.61,1-6,.51v-4s0,0,0,0V287.88l4.39-.22,1.63-.08,6.37-.32Z" style="fill:#c7c7c7"></path><polygon points="530.46 287.88 530.46 304.99 548.09 303.49 542.86 287.26 530.46 287.88" style="fill:#c7c7c7"></polygon><polygon points="464.12 258.11 369.19 252.21 369.19 255.16 464.12 268.72 464.12 258.11" style="fill:#c7c7c7"></polygon><polygon points="464.12 258.11 464.12 268.71 449.5 266.62 450.97 257.29 464.12 258.11" style="fill:#c7c7c7"></polygon><polygon points="524.86 258.11 619.79 252.21 619.79 255.16 524.86 268.72 524.86 258.11" style="fill:#c7c7c7"></polygon><polygon points="524.86 258.11 524.86 268.71 539.49 266.62 538.01 257.29 524.86 258.11" style="fill:#c7c7c7"></polygon><rect x="452.49" y="278.74" width="33.91" height="45.7" rx="6.3" style="fill:#c7c7c7"></rect><rect x="502.58" y="278.74" width="33.91" height="45.7" rx="6.3" style="fill:#c7c7c7"></rect><rect x="491.88" y="319.01" width="5.21" height="22.79" style="fill:#c7c7c7"></rect><rect x="493.63" y="341.81" width="1.73" height="8.15" style="fill:#c7c7c7"></rect><rect x="493.63" y="346.33" width="1.73" height="8.15" transform="translate(844.89 -144.09) rotate(90)" style="fill:#c7c7c7"></rect><rect x="488.49" y="349.54" width="5.59" height="1.73" transform="translate(841.68 -140.88) rotate(90)" style="fill:#c7c7c7"></rect><rect x="494.91" y="349.54" width="5.59" height="1.73" transform="translate(848.1 -147.3) rotate(90)" style="fill:#c7c7c7"></rect><rect x="486.04" y="343.41" width="4.38" height="13.98" rx="1.37" style="fill:#c7c7c7"></rect><rect x="498.56" y="343.41" width="4.38" height="13.98" rx="1.37" style="fill:#c7c7c7"></rect><polygon points="496.5 221.26 492.48 221.26 493.77 117.67 495.19 117.67 496.5 221.26" style="fill:#c7c7c7"></polygon><path d="M494.48,320.31c-25.55,0-43.23-15.62-41.17-49.77,2-32.42,22.22-49.77,41.17-49.77s39.22,17.35,41.19,49.77C537.73,304.69,520,320.31,494.48,320.31Z" style="fill:#c7c7c7"></path><polygon points="465.03 252.65 476.36 246.92 475.74 257.36 461.6 260.77 465.03 252.65" style="fill:#fff"></polygon><polygon points="493.84 246.71 493.84 257.33 476.94 257.29 477.58 246.71 493.84 246.71" style="fill:#fff"></polygon><polygon points="523.96 252.65 512.62 246.92 513.24 257.36 527.38 260.77 523.96 252.65" style="fill:#fff"></polygon><polygon points="495.14 246.71 495.14 257.33 512.04 257.29 511.4 246.71 495.14 246.71" style="fill:#fff"></polygon><path d="M532,297.7c-6.36,15.38-20.1,22.61-37.5,22.61S463.36,313.08,457,297.7c12.3-7.51,23.79-9.71,37.48-9.71S519.68,290.19,532,297.7Z" style="fill:#c7c7c7"></path></g><g id="freepik--Window--inject-73"><g style="opacity:0.30000000000000004"><polygon points="286.82 0 55.45 161.76 55.45 122.13 230.13 0 286.82 0" style="fill:#ebebeb"></polygon><polygon points="694.55 222.25 694.55 261.89 569.31 349.43 512.61 349.43 694.55 222.25" style="fill:#ebebeb"></polygon><polygon points="164 0 55.45 75.9 55.45 62.91 145.46 0 164 0" style="fill:#ebebeb"></polygon><polygon points="694.55 78.83 694.55 91.79 326.04 349.43 307.46 349.43 694.55 78.83" style="fill:#ebebeb"></polygon><polygon points="694.55 282.92 694.55 295.89 617.97 349.43 599.39 349.43 694.55 282.92" style="fill:#ebebeb"></polygon><polygon points="614.24 0 114.41 349.43 95.83 349.43 595.67 0 614.24 0" style="fill:#ebebeb"></polygon><polygon points="423.01 0 55.45 256.97 55.45 253.94 418.7 0 423.01 0" style="fill:#ebebeb"></polygon><polygon points="694.55 111.75 694.55 114.78 358.9 349.43 354.58 349.43 694.55 111.75" style="fill:#ebebeb"></polygon></g><rect x="55.45" y="96" width="639.1" height="2.81" style="fill:#263238"></rect><rect x="88.48" y="172.86" width="349.43" height="3.72" transform="translate(437.91 -88.48) rotate(90)" style="fill:#263238"></rect><rect x="312.09" y="172.86" width="349.43" height="3.72" transform="translate(661.52 -312.09) rotate(90)" style="fill:#263238"></rect><rect x="55.45" y="349.43" width="639.1" height="8.84" style="fill:#37474f"></rect></g><g id="freepik--Chairs--inject-73"><polygon points="317.85 376.27 317.85 365.29 346.43 353.59 358.4 287.46 653.21 287.46 670.25 353.86 694.55 365.47 694.55 376.27 317.85 376.27" style="fill:#dbdbdb"></polygon><polygon points="363.37 292.37 352.19 355.31 326.21 365.43 684.38 365.43 664.3 355.61 648.6 292.37 363.37 292.37" style="fill:#FFC727"></polygon><polygon points="415.34 370.09 411.31 368.01 418.78 353.47 429.26 288.95 433.74 289.68 423.15 354.91 415.34 370.09" style="fill:#dbdbdb"></polygon><polygon points="504.83 369.32 500.32 368.79 501.82 355.85 506.87 288.18 511.4 288.52 506.34 356.32 504.83 369.32" style="fill:#dbdbdb"></polygon><polygon points="597.47 370.09 589.66 354.91 579.08 289.68 583.56 288.95 594.03 353.47 601.51 368.01 597.47 370.09" style="fill:#dbdbdb"></polygon><rect x="317.85" y="369.05" width="376.69" height="7.22" style="fill:#c7c7c7"></rect><polygon points="684.38 365.43 326.21 365.43 350.68 355.89 664.9 355.89 684.38 365.43" style="fill:#020100;opacity:0.1"></polygon><polygon points="344.95 376.28 343.03 398.96 339.18 444.52 331.64 444.52 331.64 376.28 344.95 376.28" style="fill:#dbdbdb"></polygon><polygon points="344.95 376.28 343.03 398.96 331.64 398.96 331.64 376.28 344.95 376.28" style="fill:#c7c7c7"></polygon><polygon points="667.45 376.28 669.37 398.96 673.22 444.52 680.76 444.52 680.76 376.28 667.45 376.28" style="fill:#dbdbdb"></polygon><polygon points="667.45 376.28 669.37 398.96 680.76 398.96 680.76 376.28 667.45 376.28" style="fill:#c7c7c7"></polygon></g><g id="freepik--Plant--inject-73"><path d="M99.29,276.3S75.61,273,81.15,244.39C81.15,244.39,107.61,250.33,99.29,276.3Z" style="fill:#FFC727"></path><path d="M99.29,276.3S75.61,273,81.15,244.39C81.15,244.39,107.61,250.33,99.29,276.3Z" style="opacity:0.1"></path><path d="M98.1,270.33a45.53,45.53,0,0,0-1.62-4.26c0-.18,0-.37-.06-.54l-.09-1.18c-.07-.85-.12-1.71-.18-2.56-.1-1.71-.21-3.42-.23-5.13,0-.09-.14-.09-.15,0,0,1.72,0,3.42,0,5.14,0,.85.08,1.7.14,2.56,0,.19,0,.38,0,.57a50.27,50.27,0,0,0-4.75-8.12c-.81-1.14-1.67-2.23-2.59-3.29s-1.94-2.11-2.89-3.18a.07.07,0,0,0-.1.11,42.22,42.22,0,0,1,4.56,6.07c.72,1.09,1.4,2.2,2.05,3.34l-.22-.09-.85-.34-1.93-.73c-1.27-.47-2.55-.93-3.81-1.42-.08,0-.13.11,0,.14,1.25.5,2.5,1,3.75,1.57l1.83.79.92.38a3,3,0,0,0,.63.22c.48.86,1,1.72,1.39,2.6a62,62,0,0,1,2.89,6.82c.06.16.12.33.17.49a13.84,13.84,0,0,0-1.94-.94l-2.45-1.11c-1.66-.77-3.31-1.54-4.9-2.44-.08-.05-.15.08-.07.13,1.63.89,3.22,1.83,4.85,2.72.82.44,1.64.87,2.47,1.27a7.6,7.6,0,0,0,2.22.89,27.7,27.7,0,0,1,1.56,6.72c.26,3.23.23,6.49.31,9.73a0,0,0,1,0,.08,0c.24-2.94.37-5.9.38-8.85A25.55,25.55,0,0,0,98.1,270.33Z" style="fill:#263238"></path><path d="M94.45,253.52a29.3,29.3,0,0,0-.24,5,0,0,0,0,0,.08,0c.09-1.67.11-3.34.3-5C94.6,253.46,94.46,253.43,94.45,253.52Z" style="fill:#263238"></path><path d="M87.68,255a18.36,18.36,0,0,1-3.05-1.5c-.07,0-.15.08-.07.13a11.48,11.48,0,0,0,3.08,1.47C87.7,255.06,87.74,255,87.68,255Z" style="fill:#263238"></path><path d="M100.05,321.69c0-2.62-.07-5.24-.1-7.85,0-8.69-.12-17.39-.28-26.08q-.18-10.35-.48-20.69a.1.1,0,0,0-.06-.09l0-5.65c0-.05,0-.07-.11-.07s-.11,0-.11.07c0,1.89,0,3.77,0,5.66a.1.1,0,0,0,0,.08c-.35,12.28-.66,24.56-.73,36.85,0,2.49,0,5,0,7.49q-.12,12-.09,24l0,3.82c0,7.33.08,14.66.08,22,0,.4.44.59.9.61s1.1-.19,1.1-.64c0-8.08.06-16.16.05-24.24C100.07,331.87,100.09,326.78,100.05,321.69Z" style="fill:#263238"></path><path d="M90.16,313.74S78.77,305.3,68,311s-12.51,27.68-12.51,27.68,15.88,2.28,25.87-7.24C91,322.27,90.16,313.74,90.16,313.74Z" style="fill:#FFC727"></path><path d="M90.16,313.74S78.77,305.3,68,311s-12.51,27.68-12.51,27.68,15.88,2.28,25.87-7.24C91,322.27,90.16,313.74,90.16,313.74Z" style="opacity:0.1"></path><path d="M93.27,314.26a13.6,13.6,0,0,0-6.6-.86,8.3,8.3,0,0,0-1.4-.14l-1.61-.12c-1.1-.09-2.21-.15-3.32-.24-2.24-.16-4.5-.3-6.74-.53-.08,0-.1.14,0,.15,2.22.28,4.43.6,6.66.82,1.14.12,2.29.23,3.44.32l.83.08c-.34.07-.68.15-1,.25a26.23,26.23,0,0,0-5.16,2.1c-.9.16-1.79.41-2.67.62-1.41.33-2.81.69-4.21,1.06-2.77.72-5.51,1.54-8.25,2.34a.07.07,0,1,0,0,.13c2.74-.67,5.5-1.29,8.25-1.94,1.33-.32,2.67-.63,4-1l1-.24a33.35,33.35,0,0,0-8.1,7A43.88,43.88,0,0,0,62.83,333c0,.09.07.16.12.08a43.51,43.51,0,0,1,6.81-8.94l-.15.46-.63,2c-.43,1.34-.85,2.68-1.25,4,0,.09.11.12.14,0,.48-1.3.93-2.61,1.39-3.92l.68-1.92c.12-.34.23-.67.34-1a2.83,2.83,0,0,1,.11-.31,38.66,38.66,0,0,1,4-3.44,30.5,30.5,0,0,1,6-3.47c0,.2-.08.4-.12.58-.11.52-.23,1-.33,1.56-.23,1.08-.44,2.16-.65,3.24-.43,2.21-.69,4.44-1.11,6.64a.08.08,0,0,0,.15,0c.51-2.22,1.16-4.4,1.66-6.62.25-1.11.5-2.22.73-3.34.1-.52.21-1,.31-1.56a8.85,8.85,0,0,0,.16-.87l.62-.26c3-1.1,6.29-1.91,9.48-1.3a9.33,9.33,0,0,1,6.86,5.5c.1.25.49.09.43-.16A8.79,8.79,0,0,0,93.27,314.26Z" style="fill:#263238"></path><path d="M75.83,323.64c-.33,1.45-.65,2.89-1,4.33a32,32,0,0,0-.8,4.22c0,.05.08.05.09,0a32.3,32.3,0,0,0,1-4.25l.84-4.27C76,323.59,75.85,323.55,75.83,323.64Z" style="fill:#263238"></path><path d="M64.81,327.31c-1.45.74-2.86,1.58-4.37,2.18a.07.07,0,1,0,.06.13,45.66,45.66,0,0,0,4.34-2.25A0,0,0,0,0,64.81,327.31Z" style="fill:#263238"></path><path d="M92.72,298.24s-13.92.89-20.4-8.3-5-22.29-5-22.29,14.62,1.78,20.43,8.37S92.72,298.24,92.72,298.24Z" style="fill:#FFC727"></path><path d="M99.26,312c-.49-1.49-1.08-3-1.65-4.42s-1.12-2.8-1.73-4.17a85.28,85.28,0,0,0-4.17-8.2c-1-1.7-2-3.34-3.12-5,0-.24-.07-.49-.11-.74-.06-.43-.13-.86-.19-1.29-.14-.88-.3-1.76-.44-2.64-.32-1.92-.72-3.83-1-5.76,0-.09-.15-.09-.14,0,.28,1.9.47,3.81.74,5.71.13.93.25,1.87.39,2.8,0,.34.11.67.16,1a98.74,98.74,0,0,0-6.89-8.93c-.33-.39-.67-.76-1-1.14,0-.11-.09-.21-.13-.32s-.21-.53-.3-.8c-.21-.55-.41-1.1-.61-1.66-.39-1.09-.74-2.19-1-3.31a.07.07,0,1,0-.14,0c.28,1.14.57,2.28.91,3.41.16.54.34,1.08.53,1.62,0,.08.07.17.1.26-1.78-1.94-3.63-3.81-5.51-5.65-.07-.07-.16,0-.1.1A100.5,100.5,0,0,1,83.66,285a9.34,9.34,0,0,0-1-.27c-1.07-.2-2.15-.36-3.23-.49-2.27-.29-4.53-.58-6.79-.93-.09,0-.13.12,0,.14,2.16.42,4.3.91,6.44,1.4,1,.23,2,.43,3,.63a20.59,20.59,0,0,1,2.44.7l.68,1c1,1.49,2,3,3,4.53l-1.42-.27c-1.07-.21-2.15-.41-3.23-.59-2.13-.34-4.25-.71-6.35-1.19-.09,0-.13.12,0,.14,2.13.5,4.24,1.08,6.36,1.64,1,.28,2,.52,3.07.75l1.55.34a3.73,3.73,0,0,0,.63.1q3,5,5.71,10.12,1.16,2.28,2.24,4.59c.75,1.58,1.39,3.19,2.07,4.8C98.86,312.46,99.37,312.32,99.26,312Z" style="fill:#263238"></path><path d="M85,280c-.27-1.33-.55-2.66-.84-4,0-.09-.16-.05-.14,0q.39,2,.75,3.93a36.89,36.89,0,0,0,.79,3.9,0,0,0,0,0,0,0A28.19,28.19,0,0,0,85,280Z" style="fill:#263238"></path><path d="M76.88,279.59c-.64-.32-1.32-.58-2-.84l-1-.42-.54-.21a3.11,3.11,0,0,1-.59-.26c-.1-.08-.17.11-.06.12a2.75,2.75,0,0,1,.59.25l.53.23,1,.46a21.47,21.47,0,0,0,2.06.81C76.91,279.76,77,279.63,76.88,279.59Z" style="fill:#263238"></path><path d="M107,287.29s8.43-15.74,21.25-18.18,20.66,10.76,20.66,10.76-9.35,11.94-21.11,14S107,287.29,107,287.29Z" style="fill:#FFC727"></path><path d="M136.81,276.17a34.62,34.62,0,0,0-10.06.12l.58-.31,2.84-1.46a65.61,65.61,0,0,1,6-2.94.07.07,0,1,0-.06-.13c-2,.93-4.08,1.71-6.1,2.64-1,.46-2,.94-3,1.46-.63.34-1.33.65-2,1.05a35.64,35.64,0,0,0-8.15,2.71c.53-.58,1.07-1.16,1.6-1.75,1.2-1.3,2.37-2.68,3.68-3.87.07-.06,0-.16-.1-.1-1.34,1.22-2.76,2.35-4.06,3.61-.63.62-1.23,1.26-1.82,1.91q-.45.5-.87,1a33.85,33.85,0,0,0-17.19,23.2c0,.09.11.14.14.05a38.76,38.76,0,0,1,9.42-15.95,37.06,37.06,0,0,1,17.18-9.93,37.55,37.55,0,0,1,11.85-1.08A.13.13,0,0,0,136.81,276.17Z" style="fill:#263238"></path><path d="M148.88,279.87s-9.35,11.94-21.11,14c-9,1.59-16.36-3.09-19.36-5.39l-.64-1.07s6.06-5.11,17.54-8.06S148.88,279.87,148.88,279.87Z" style="opacity:0.1"></path><path d="M129.36,270.56a31.61,31.61,0,0,0-2.84,1.87A17.82,17.82,0,0,0,124,274.7c-.06.07,0,.16.11.1.85-.74,1.71-1.48,2.59-2.18a28.83,28.83,0,0,1,2.7-1.94C129.52,270.63,129.44,270.51,129.36,270.56Z" style="fill:#263238"></path><path d="M136.4,273.22c-.48.2-1,.37-1.44.57l-1.42.59c-.11,0-.06.21.05.17L135,274c.47-.19.94-.41,1.42-.6C136.52,273.32,136.48,273.18,136.4,273.22Z" style="fill:#263238"></path><path d="M105.29,307.1s2.25,15.61,14,21.07,26.06,0,26.06,0S139.71,294.39,105.29,307.1Z" style="fill:#FFC727"></path><path d="M105.29,307.1s2.25,15.61,14,21.07,26.06,0,26.06,0S139.71,294.39,105.29,307.1Z" style="opacity:0.1"></path><path d="M137.25,318c-1.09-.13-2.16-.31-3.24-.51-.52-.09-1-.19-1.57-.3l-.83-.16c-.31-.3-.62-.6-1-.88a47.11,47.11,0,0,0-7.18-5.21,40.54,40.54,0,0,0-4.3-2.21h.22l3.86.17c2.58.12,5.16.18,7.73.34.1,0,.09-.14,0-.14-2.59-.18-5.16-.46-7.74-.68l-3.75-.34-1.94-.17-.49-.05c-.67-.25-1.35-.48-2-.7a18.28,18.28,0,0,0-9.94-.54c-3,.75-5.9,2.69-6.67,5.8a.1.1,0,0,0,.19.07c1.1-2.6,4-3.91,6.59-4.45a15.84,15.84,0,0,1,5.32-.1,13.15,13.15,0,0,0,.59,2.36c.33,1.1.65,2.2,1,3.29.67,2.2,1.4,4.37,2.05,6.56a.07.07,0,0,0,.14,0c-.55-2.19-1-4.4-1.54-6.59-.26-1.08-.53-2.16-.79-3.23a19.23,19.23,0,0,0-.59-2.22,28,28,0,0,1,3,.71,44.63,44.63,0,0,1,5.32,1.95c.17,1.12.42,2.22.68,3.32.32,1.37.68,2.74,1.11,4.09,0,.08.15,0,.14,0l-.06-.26h0c-.26-1.28-.54-2.55-.81-3.83-.22-1-.42-2.06-.64-3.08,1.45.65,2.89,1.37,4.28,2.16a8.8,8.8,0,0,0,.15.94c.08.53.18,1.07.28,1.6.22,1.2.46,2.4.75,3.59a54.64,54.64,0,0,0,2,6.79s0,.06,0,.09l.06.08c0,.06.14,0,.12-.07-.54-2.31-1.16-4.61-1.67-6.93-.25-1.16-.51-2.32-.74-3.48-.12-.58-.22-1.17-.33-1.75,0-.16-.06-.34-.09-.52a47.3,47.3,0,0,1,4.58,3.05,49.76,49.76,0,0,1,7,6.38c.09.1.25,0,.18-.14-.9-1.17-1.79-2.32-2.8-3.41-.59-.63-1.21-1.24-1.83-1.84l.19,0c.55.09,1.1.18,1.66.25,1.08.15,2.17.25,3.26.38C137.3,318.17,137.34,318,137.25,318Z" style="fill:#263238"></path><path d="M129,323.31h0c0-.14,0-.27-.06-.41a4.25,4.25,0,0,1-.14-.51h0c-.24-1.05-.44-2.1-.63-3.15,0-.08-.13-.05-.13,0a12.91,12.91,0,0,0,.89,4.07,0,0,0,0,0,.09,0Z" style="fill:#263238"></path><path d="M119.17,323.06a.07.07,0,0,0-.07-.07c-.33-1.38-.65-2.76-.93-4.16-.15-.73-.31-1.46-.45-2.19l-.21-1.19a3.5,3.5,0,0,0-.26-1c0-.06-.12,0-.13,0a6.53,6.53,0,0,0,.3,2.09c.14.76.29,1.53.46,2.28.34,1.54.72,3.08,1.16,4.59a.08.08,0,0,0,.15,0C119.18,323.29,119.18,323.17,119.17,323.06Z" style="fill:#263238"></path><path d="M136.18,313.52c-2.15-.3-4.29-.61-6.44-.87-.09,0-.13.13,0,.14,2.15.32,4.29.59,6.44.87C136.23,313.67,136.27,313.53,136.18,313.52Z" style="fill:#263238"></path><path d="M99.28,270.48S92.09,239,126,226.21C126,226.21,135.34,267.7,99.28,270.48Z" style="fill:#FFC727"></path><path d="M106.59,252.61l.36-.22,1.91-1.07,3.93-2.2c2.59-1.45,5.14-3,7.74-4.37.08,0,0-.16-.08-.12-2.6,1.42-5.26,2.75-7.88,4.13l-3.88,2.05-1.59.84c1.13-2.14,2.34-4.24,3.67-6.26,1.77-2.7,3.7-5.27,5.72-7.79a.11.11,0,1,0-.16-.16,53.52,53.52,0,0,0-7.83,9.6c0-.11,0-.22,0-.33,0-.78.06-1.57.07-2.35,0-1.54,0-3.08,0-4.62,0-.09-.14-.09-.14,0-.07,1.51-.25,3-.33,4.53,0,.76-.08,1.51-.1,2.27,0,.41,0,.87,0,1.32-.69,1.11-1.36,2.24-2,3.38a56.7,56.7,0,0,0-3,6.34c0-.78-.09-1.56-.13-2.35-.1-1.72-.31-3.44-.39-5.17a.07.07,0,0,0-.14,0c0,1.73,0,3.46,0,5.18,0,.87,0,1.73.11,2.59l.06,1a57.17,57.17,0,0,0-2.56,8.66A92.54,92.54,0,0,0,98.64,277a0,0,0,1,0,0,0,51.52,51.52,0,0,1,1.8-8.49c.42-1.48.86-3,1.34-4.43,1.41-.67,2.76-1.49,4.12-2.25s2.83-1.55,4.25-2.32c2.82-1.55,5.64-3.13,8.56-4.5.08,0,0-.16-.08-.12-3,1.34-5.93,2.61-8.82,4.06q-2.18,1.1-4.27,2.3c-1.18.66-2.39,1.32-3.51,2.08.33-1,.67-1.95,1-2.92A82.08,82.08,0,0,1,106.59,252.61Z" style="fill:#263238"></path><path d="M103.73,245.4c0-.09-.15-.09-.14,0,.12,1.8.18,3.6.37,5.39,0,.1.16.1.16,0C104.06,249,103.86,247.2,103.73,245.4Z" style="fill:#263238"></path><path d="M120,251.42c-2.12.85-4.26,1.66-6.37,2.55-.06,0,0,.12,0,.09,2.14-.8,4.25-1.67,6.38-2.5C120.09,251.52,120.05,251.38,120,251.42Z" style="fill:#263238"></path><path d="M123.18,236.88a57.05,57.05,0,0,0-6,3.23.09.09,0,0,0,.1.16c2-1.15,4-2.25,6-3.26C123.34,237,123.27,236.85,123.18,236.88Z" style="fill:#263238"></path><rect x="73.84" y="338.63" width="48.84" height="51.48" style="fill:#455a64"></rect><rect x="70.48" y="356.85" width="2.5" height="88.17" style="fill:#263238"></rect><rect x="123.27" y="356.85" width="2.5" height="88.17" style="fill:#263238"></rect><rect x="98.2" y="356.85" width="2.5" height="88.17" style="fill:#263238"></rect><rect x="71.73" y="386.81" width="52.8" height="7.13" style="fill:#263238"></rect></g><g id="freepik--Screens--inject-73"><polygon points="256.47 114.95 54.57 114.95 52.23 27.04 259.34 27.04 256.47 114.95" style="fill:#FFC727"></polygon><polygon points="252.43 111.2 58.61 111.2 57.13 30.8 254.45 30.8 252.43 111.2" style="fill:#263238"></polygon><rect x="66.89" y="39.59" width="86.46" height="1.45" style="fill:#FFC727"></rect><rect x="160" y="39.59" width="28.49" height="1.45" style="fill:#FFC727"></rect><rect x="194.8" y="39.59" width="28.49" height="1.45" style="fill:#FFC727"></rect><rect x="229.84" y="39.59" width="14.85" height="1.45" style="fill:#FFC727"></rect><rect x="66.89" y="47.26" width="86.46" height="1.45" style="fill:#fff"></rect><rect x="160" y="47.26" width="28.49" height="1.45" style="fill:#fff"></rect><rect x="194.8" y="47.26" width="28.49" height="1.45" style="fill:#fff"></rect><rect x="229.84" y="47.26" width="14.85" height="1.45" style="fill:#fff"></rect><rect x="66.89" y="54.93" width="86.46" height="1.45" style="fill:#fff"></rect><rect x="160" y="54.93" width="28.49" height="1.45" style="fill:#fff"></rect><rect x="194.8" y="54.93" width="28.49" height="1.45" style="fill:#fff"></rect><rect x="229.84" y="54.93" width="14.85" height="1.45" style="fill:#fff"></rect><rect x="66.89" y="62.6" width="86.46" height="1.45" style="fill:#fff"></rect><rect x="160" y="62.6" width="28.49" height="1.45" style="fill:#fff"></rect><rect x="194.8" y="62.6" width="28.49" height="1.45" style="fill:#fff"></rect><rect x="229.84" y="62.6" width="14.85" height="1.45" style="fill:#fff"></rect><rect x="66.89" y="70.27" width="86.46" height="1.45" style="fill:#fff"></rect><rect x="160" y="70.27" width="28.49" height="1.45" style="fill:#fff"></rect><rect x="194.8" y="70.27" width="28.49" height="1.45" style="fill:#fff"></rect><rect x="229.84" y="70.27" width="14.85" height="1.45" style="fill:#fff"></rect><rect x="66.89" y="77.94" width="86.46" height="1.45" style="fill:#fff"></rect><rect x="160" y="77.94" width="28.49" height="1.45" style="fill:#fff"></rect><rect x="194.8" y="77.94" width="28.49" height="1.45" style="fill:#fff"></rect><rect x="229.84" y="77.94" width="14.85" height="1.45" style="fill:#fff"></rect><rect x="66.89" y="85.61" width="86.46" height="1.45" style="fill:#fff"></rect><rect x="160" y="85.61" width="28.49" height="1.45" style="fill:#fff"></rect><rect x="194.8" y="85.61" width="28.49" height="1.45" style="fill:#fff"></rect><rect x="229.84" y="85.61" width="14.85" height="1.45" style="fill:#fff"></rect><rect x="66.89" y="93.28" width="86.46" height="1.45" style="fill:#fff"></rect><rect x="160" y="93.28" width="28.49" height="1.45" style="fill:#fff"></rect><rect x="194.8" y="93.28" width="28.49" height="1.45" style="fill:#fff"></rect><rect x="229.84" y="93.28" width="14.85" height="1.45" style="fill:#fff"></rect><rect x="66.89" y="100.95" width="86.46" height="1.45" style="fill:#fff"></rect><rect x="160" y="100.95" width="28.49" height="1.45" style="fill:#fff"></rect><rect x="194.8" y="100.95" width="28.49" height="1.45" style="fill:#fff"></rect><rect x="229.84" y="100.95" width="14.85" height="1.45" style="fill:#fff"></rect><rect x="73.19" width="8.47" height="27.04" style="fill:#dbdbdb"></rect><rect x="229.91" width="8.47" height="27.04" style="fill:#dbdbdb"></rect><polygon points="694.89 114.95 493 114.95 490.66 27.04 697.77 27.04 694.89 114.95" style="fill:#FFC727"></polygon><polygon points="690.86 111.2 497.04 111.2 495.55 30.8 692.88 30.8 690.86 111.2" style="fill:#263238"></polygon><rect x="505.31" y="39.59" width="86.46" height="1.45" style="fill:#FFC727"></rect><rect x="598.43" y="39.59" width="28.49" height="1.45" style="fill:#FFC727"></rect><rect x="633.23" y="39.59" width="28.49" height="1.45" style="fill:#FFC727"></rect><rect x="668.27" y="39.59" width="14.85" height="1.45" style="fill:#FFC727"></rect><rect x="505.31" y="47.26" width="86.46" height="1.45" style="fill:#fff"></rect><rect x="598.43" y="47.26" width="28.49" height="1.45" style="fill:#fff"></rect><rect x="633.23" y="47.26" width="28.49" height="1.45" style="fill:#fff"></rect><rect x="668.27" y="47.26" width="14.85" height="1.45" style="fill:#fff"></rect><rect x="505.31" y="54.93" width="86.46" height="1.45" style="fill:#fff"></rect><rect x="598.43" y="54.93" width="28.49" height="1.45" style="fill:#fff"></rect><rect x="633.23" y="54.93" width="28.49" height="1.45" style="fill:#fff"></rect><rect x="668.27" y="54.93" width="14.85" height="1.45" style="fill:#fff"></rect><rect x="505.31" y="62.6" width="86.46" height="1.45" style="fill:#fff"></rect><rect x="598.43" y="62.6" width="28.49" height="1.45" style="fill:#fff"></rect><rect x="633.23" y="62.6" width="28.49" height="1.45" style="fill:#fff"></rect><rect x="668.27" y="62.6" width="14.85" height="1.45" style="fill:#fff"></rect><rect x="505.31" y="70.27" width="86.46" height="1.45" style="fill:#fff"></rect><rect x="598.43" y="70.27" width="28.49" height="1.45" style="fill:#fff"></rect><rect x="633.23" y="70.27" width="28.49" height="1.45" style="fill:#fff"></rect><rect x="668.27" y="70.27" width="14.85" height="1.45" style="fill:#fff"></rect><rect x="505.31" y="77.94" width="86.46" height="1.45" style="fill:#fff"></rect><rect x="598.43" y="77.94" width="28.49" height="1.45" style="fill:#fff"></rect><rect x="633.23" y="77.94" width="28.49" height="1.45" style="fill:#fff"></rect><rect x="668.27" y="77.94" width="14.85" height="1.45" style="fill:#fff"></rect><rect x="505.31" y="85.61" width="86.46" height="1.45" style="fill:#fff"></rect><rect x="598.43" y="85.61" width="28.49" height="1.45" style="fill:#fff"></rect><rect x="633.23" y="85.61" width="28.49" height="1.45" style="fill:#fff"></rect><rect x="668.27" y="85.61" width="14.85" height="1.45" style="fill:#fff"></rect><rect x="505.31" y="93.28" width="86.46" height="1.45" style="fill:#fff"></rect><rect x="598.43" y="93.28" width="28.49" height="1.45" style="fill:#fff"></rect><rect x="633.23" y="93.28" width="28.49" height="1.45" style="fill:#fff"></rect><rect x="668.27" y="93.28" width="14.85" height="1.45" style="fill:#fff"></rect><rect x="505.31" y="100.95" width="86.46" height="1.45" style="fill:#fff"></rect><rect x="598.43" y="100.95" width="28.49" height="1.45" style="fill:#fff"></rect><rect x="633.23" y="100.95" width="28.49" height="1.45" style="fill:#fff"></rect><rect x="668.27" y="100.95" width="14.85" height="1.45" style="fill:#fff"></rect><rect x="511.62" width="8.47" height="27.04" style="fill:#dbdbdb"></rect><rect x="668.34" width="8.47" height="27.04" style="fill:#dbdbdb"></rect></g><g id="freepik--Character--inject-73"><path d="M287.18,434.81C285,434,236.8,395.65,235.9,393c-.36-1,36.8-48.11,36.8-48.11l29.61,24.14-23.9,31.58S290.3,423.59,291,426.58,289.31,435.59,287.18,434.81Z" style="fill:#f7a9a0"></path><path d="M283.21,409.69c-.1-.14-.14-.23-.11-.27Z" style="fill:#FFC727"></path><path d="M287.18,434.81C285,434,236.8,395.66,235.9,393c-.32-.88,3.73-6.79,9.22-14.21,7.48,8.79,36.66,42.59,39.9,40.37,1.27-.88-.13-5.18-1.12-7.76,3.23,6.4,6.73,13.57,7.09,15.17C291.67,429.56,289.31,435.59,287.18,434.81Z" style="fill:#263238"></path><path d="M257.36,364.49,288,389s50.63-59.73,52.48-68.7c2.11-10.2,8-90.08,7.84-94.06-.16-4.83-5.48-26-5.48-26H304.87s-5.31,104.47-6.41,107.7C297.27,311.33,257.36,364.49,257.36,364.49Z" style="fill:#263238"></path><path d="M290.94,381.05c-4.89-4.72-24-19.87-26.33-21.11-.05,0-.12.07-.08.11,1.72,2.05,17.94,15.37,26.29,21.15C290.9,381.26,291,381.12,290.94,381.05Z" style="fill:#37474f"></path><path d="M344.66,215.86a11.85,11.85,0,0,0-1.54-.36,10.47,10.47,0,0,1-1.6-.61,12.24,12.24,0,0,1-2.92-2.07,11.22,11.22,0,0,1-2.25-3.61c-.33-.77-1.87-4.84-1.89-4.86s-.16,0-.14.06c.11.56,1.17,4.07,1.49,5a11.58,11.58,0,0,0,2.34,4.2,9.42,9.42,0,0,0,3.23,2.18,6.7,6.7,0,0,0,1.74.46,2.68,2.68,0,0,0,1.59-.09C344.79,216.07,344.74,215.89,344.66,215.86Z" style="fill:#37474f"></path><path d="M311.12,202l-.8,21-.9,21-2,41.94c-.38,7-.75,14-1.19,21,0,.86-.12,1.76-.21,2.66a1.26,1.26,0,0,1-.08.4,3.34,3.34,0,0,1-.17.33c-.11.21-.23.4-.35.59l-.75,1.1c-1,1.44-2.07,2.83-3.13,4.23-2.12,2.79-4.3,5.53-6.47,8.27q-6.54,8.22-13.19,16.34L268.49,357l13-16.45c4.35-5.49,8.7-11,13-16.5,2.15-2.76,4.27-5.53,6.39-8.32,1-1.39,2.1-2.79,3.09-4.22.25-.35.5-.71.73-1.07s.5-.72.48-1c.07-.84.14-1.69.19-2.57.41-7,.76-14,1.11-21l2.21-41.93,1.16-21Z" style="fill:#37474f"></path><path d="M341.19,314.7c-.28,2.57-.53,4.48-.76,5.56-1,5-17.47,26.09-31.66,43.58L299,302.59c1.73-21.73,5.83-102.44,5.83-102.44h18.9Z" style="fill:#37474f"></path><path d="M397.29,433.62c-2,1.1-62.66,12-65.23,10.95-1-.38-11.86-59.4-11.86-59.4l37.68-6.31,7.95,38.8s25.09,6.21,27.8,7.67S399.28,432.54,397.29,433.62Z" style="fill:#f7a9a0"></path><path d="M375.8,420c-.17,0-.26,0-.28-.09Z" style="fill:#FFC727"></path><path d="M397.29,433.62c-2,1.1-62.66,12-65.24,10.95-.87-.34-2.63-7.29-4.59-16.3,11.54.17,56.2.56,56.66-3.34.19-1.54-4-3.32-6.57-4.28,6.94,1.8,14.64,3.9,16.08,4.68C396.31,426.78,399.29,432.53,397.29,433.62Z" style="fill:#263238"></path><path d="M338.15,200.15s-1,16.22-5.48,27.77c0,0-6.45,4-7.13,4.66L364,405.66l-39.39,7.66s-15.48-83.86-16.8-89.6c-2.11-9.23-18.84-87.7-19.58-92.16-1.55-9.33,7.06-31.41,7.06-31.41Z" style="fill:#263238"></path><path d="M359.94,397c-10.83,1.62-31.55,6-34.1,7.07,0,0,0,.14,0,.13,2.76,0,28-5,34.11-7A.1.1,0,0,0,359.94,397Z" style="fill:#37474f"></path><path d="M300.09,215.86c.79-.17,1.63-.11,2.44-.22a19.31,19.31,0,0,0,2.5-.47,17.82,17.82,0,0,0,4.48-1.83,9.6,9.6,0,0,0,3.25-3.45c.46-.74,2.56-4.73,2.58-4.76s.25,0,.23.08c-.12.56-1.49,4-1.91,4.89a9.45,9.45,0,0,1-3.36,4,14.83,14.83,0,0,1-5,1.91,16.78,16.78,0,0,1-2.74.31,7.23,7.23,0,0,1-2.54-.24C299.91,216.07,300,215.89,300.09,215.86Z" style="fill:#37474f"></path><path d="M333.61,227.48a66.52,66.52,0,0,0-10.39,4.72.12.12,0,0,0,.1.22c3.5-1.47,7.06-2.87,10.47-4.52A.23.23,0,0,0,333.61,227.48Z" style="fill:#37474f"></path><path d="M334.93,203.58c0-.12-.22-.14-.22,0A114.49,114.49,0,0,1,334,215.2c-.17,1.79-1.71,11.7-4.81,11-.52-.13-.78-.64-.86-1.43a12.76,12.76,0,0,1,.44-3q.56-3.1.86-6.25a56.77,56.77,0,0,0,0-11.73.1.1,0,0,0-.2,0,108.22,108.22,0,0,1-1.1,16.19c-.41,2.57-1.74,6.45.95,6.87s4.58-6.06,4.93-7.84A58.91,58.91,0,0,0,334.93,203.58Z" style="fill:#37474f"></path><path d="M329.29,226.42a16.46,16.46,0,0,0-.72,2,5,5,0,0,0-.31,1.69c0,.11.16.12.22,0a5.94,5.94,0,0,0,.74-1.64c.24-.63.49-1.26.72-1.9A.35.35,0,0,0,329.29,226.42Z" style="fill:#37474f"></path><path d="M298.48,200.15q-1.62,6.16-3,12.39c-.92,4.14-1.8,8.3-2.32,12.5l-.14,1.58c-.05.53,0,1-.05,1.57l.46,3.12,1.19,6.25,2.54,12.49L307.55,300,318,349.86l5.18,25,5.1,25-5.53-24.88L317.3,350l-10.63-49.87c-3.44-16.64-6.92-33.28-10.21-49.95L294,237.67l-1.12-6.28-.45-3.19a26.36,26.36,0,0,1,.24-3.21c.59-4.22,1.55-8.37,2.54-12.5S297.33,204.25,298.48,200.15Z" style="fill:#37474f"></path><path d="M311.29,153.23a2.24,2.24,0,0,0,1.53,1.79,18.76,18.76,0,0,0,2.13.65,65.58,65.58,0,0,1-1.11-6.78c-.35-2.62-.5-5.21-.61-7.84a0,0,0,0,1,.07,0c.3,2.63.7,5.26,1.07,7.88.33,2.3.84,4.59,1.15,6.88.75.16,1.5.28,2.25.38-.17-.79-.34-1.58-.5-2.38-.47-2.39-.71-4.78-1-7.19,0-.06.07-.08.08,0,.37,2.34.94,4.67,1.43,7,.19.9.38,1.79.58,2.68l1.53.14,1,.06c-.29-1.57-.49-3.18-.74-4.72-.39-2.5-.62-5-1-7.53,0-.08.12-.11.13,0,.37,2.49.91,5,1.33,7.45.28,1.6.63,3.22.9,4.84a40.75,40.75,0,0,0,13.19-2,60.4,60.4,0,0,0,7.23-2.81c.57-.26,2-1,3.43-1.69-.14-.75-.25-1.51-.39-2.23-.32-1.66-.53-3.34-.9-5,0,0,.06-.06.07,0,.42,1.64.94,3.25,1.31,4.9.15.66.32,1.35.46,2l1.42-.74c-.8-3.09-1.22-6.3-1.82-9.41,0-.08.09-.1.1,0,.74,3,1.68,6.06,2.26,9.14a5.18,5.18,0,0,0,.92-.57c.63-.72-2.34-13-3-15.82-1.15-5.35-2.1-11-4.78-15.81A16.33,16.33,0,0,0,329.57,108c-2.38-.47-4.93.18-7.27.72a15.19,15.19,0,0,0-6.51,3.38,14.91,14.91,0,0,0-4.36,5.48,28.43,28.43,0,0,0-1.68,7.22,55,55,0,0,0-.39,7.91c.1,5.42.78,10.82,1.41,16.2C310.94,150.35,311,151.81,311.29,153.23Z" style="fill:#263238"></path><path d="M340,153c9.93,9.76,40.32,54.84,42.69,57.9,3.12,4-19.46,15.17-21.3,12.19-1.2-1.94-26.79-52.86-28.94-65.47C330.52,146.34,336.19,149.24,340,153Z" style="fill:#f7a9a0"></path><path d="M371.55,230.31c-1.23-.84-1.69-.2-.9,2.33s6.07,11.89,2.65,13.45S362.63,234.35,361.63,230a70.59,70.59,0,0,1-1.08-11.66C362.48,220.68,367.7,225.83,371.55,230.31Z" style="fill:#f7a9a0"></path><path d="M378.67,205.89c5.47,6.71,12.41,14.93,13.64,24.42a4.73,4.73,0,0,1-.56,3.06c.63,4.24-1.19,5.81-1.19,5.81-.63,4.13-2.71,5.48-2.71,5.48s.68,5-2.27,5.9c-3.3,1-3.61-6.18-6.2-10-5.94-8.85-16.86-19.76-18.83-22.15Z" style="fill:#f7a9a0"></path><path d="M379.67,226.87a68.49,68.49,0,0,1,4.76,8,68.78,68.78,0,0,1,3.32,9.69.08.08,0,0,0,.16,0,36.2,36.2,0,0,0-8.12-17.77C379.69,226.68,379.58,226.74,379.67,226.87Z" style="fill:#263238"></path><path d="M384.49,222.51c1.51,2.66,4.13,7.35,6,16.69,0,0,.06,0,.06,0a32.51,32.51,0,0,0-5.9-16.76C384.51,222.28,384.39,222.33,384.49,222.51Z" style="fill:#263238"></path><path d="M387.12,220.21a50.63,50.63,0,0,1,4.6,13.14s.07,0,.06,0c-.83-6.18-1.83-8.33-4.51-13.23C387.18,219.94,387,220,387.12,220.21Z" style="fill:#263238"></path><path d="M357.81,216.1c-7.4-14.79-23.66-48.54-25.36-58.49-1.41-8.22,1.22-8.9,4.24-7.21Z" style="fill:#020100;opacity:0.1"></path><path d="M344.16,185l-1.4,15.06H295s13.61-37.61,27.16-50.3c5.38-5.05,10.38-3.55,14.2.31.87.89,11.38,18.24,12.26,24.44C349.34,179.59,344.16,185,344.16,185Z" style="fill:#FFC727"></path><path d="M337.51,182.13a38.69,38.69,0,0,0-7.16.87c-1.18.27-2.34.62-3.51,1-.58.19-1.16.35-1.75.51a5.89,5.89,0,0,1-1.85.28c-.05,0-.06.1,0,.11A10.22,10.22,0,0,0,325,185a9.82,9.82,0,0,0,1.7-.25c1.19-.27,2.38-.6,3.58-.88,2.41-.57,4.82-1.14,7.25-1.48C337.62,182.37,337.62,182.13,337.51,182.13Z" style="fill:#263238"></path><path d="M343.09,185.37a39.46,39.46,0,0,0-5.83-.89,24,24,0,0,0-2.94,0c-.48,0-.95,0-1.42.08s-1,.16-1.55.19c-.06,0-.07.11,0,.11.49,0,1,.09,1.46.12l1.47.08c1,.06,2,.13,2.94.17,2,.09,3.91.21,5.87.39C343.18,185.59,343.19,185.39,343.09,185.37Z" style="fill:#263238"></path><path d="M325.47,149.12c.38.88,5.89,6,10.07,5.07,1.36-.32-.06-7.83-.06-7.83l0-.57.3-8.09-10.21-4.16-1.47-.53s.07,2.21.18,5c0,.12,0,.25,0,.39s0,.3,0,.45c0,.41,0,.83.05,1.25s0,.63.06,1l.06,1A52.52,52.52,0,0,0,325.47,149.12Z" style="fill:#f7a9a0"></path><path d="M324.3,138a16.27,16.27,0,0,0,11.2,7.8l.3-8.09-10.21-4.16-1.47-.53S324.19,135.22,324.3,138Z" style="fill:#263238"></path><path d="M344.71,123.82c3.35,13.8-4.55,17.37-7.52,18.08-2.71.66-12,2.53-16.75-10.86s.61-19.3,6.72-21.12S341.37,110,344.71,123.82Z" style="fill:#f7a9a0"></path><path d="M341,121.18c-.33,0-.65,0-1,0a1.6,1.6,0,0,1-1-.16.52.52,0,0,1-.14-.6,1.25,1.25,0,0,1,1.13-.58,1.89,1.89,0,0,1,1.28.36A.54.54,0,0,1,341,121.18Z" style="fill:#263238"></path><path d="M332,123.48a7.23,7.23,0,0,0,.89-.42,1.61,1.61,0,0,0,.82-.6.5.5,0,0,0-.15-.6,1.25,1.25,0,0,0-1.27,0,1.87,1.87,0,0,0-1,.91A.54.54,0,0,0,332,123.48Z" style="fill:#263238"></path><path d="M334.65,126.52s-.06.06,0,.1c.28.93.44,2-.32,2.57,0,0,0,.07,0,.05C335.3,128.82,335.06,127.35,334.65,126.52Z" style="fill:#263238"></path><path d="M333.55,125.77c-1.53.29-.84,3.33.58,3.06S334.84,125.53,333.55,125.77Z" style="fill:#263238"></path><path d="M333,126.06c-.22.24-.42.6-.73.7s-.71-.13-1-.38c0,0-.05,0,0,0,.12.59.48,1.14,1.13,1.08s.88-.66.89-1.28C333.21,126.11,333.08,126,333,126.06Z" style="fill:#263238"></path><path d="M340.06,125.06s.08,0,.09.07c.17,1,.54,2,1.46,2.14,0,0,0,0,0,0C340.54,127.4,340.07,126,340.06,125.06Z" style="fill:#263238"></path><path d="M340.69,123.89c1.49-.45,2.27,2.58.89,3S339.43,124.27,340.69,123.89Z" style="fill:#263238"></path><path d="M341.37,123.93c.28.09.59.32.88.27s.5-.46.63-.82c0,0,0,0,.05,0a1.18,1.18,0,0,1-.39,1.48c-.48.23-1-.17-1.27-.71C341.21,124.07,341.25,123.89,341.37,123.93Z" style="fill:#263238"></path><path d="M336.68,134c.26.18.55.45.9.42a2.77,2.77,0,0,0,1-.43s.06,0,.05,0a1.3,1.3,0,0,1-1.12.74,1,1,0,0,1-.9-.71S336.64,134,336.68,134Z" style="fill:#263238"></path><path d="M339.8,129.67s.53,1.36.69,2c0,.06-.14.13-.36.2h0a3.25,3.25,0,0,1-3.34-.45c-.06,0,0-.14.08-.12a4.82,4.82,0,0,0,3.07.14c0-.19-1-2.3-.88-2.33a5.91,5.91,0,0,1,1.58,0c-1-2.86-2.49-5.53-3.46-8.4a.09.09,0,0,1,.16-.08,49,49,0,0,1,4.12,8.89C341.57,129.89,340.09,129.72,339.8,129.67Z" style="fill:#263238"></path><path d="M339.5,131.77a3.48,3.48,0,0,1-1.1,1.35,1.55,1.55,0,0,1-.9.28c-.7,0-.86-.62-.86-1.17a3.2,3.2,0,0,1,.11-.86A4.48,4.48,0,0,0,339.5,131.77Z" style="fill:#263238"></path><path d="M338.4,133.12a1.55,1.55,0,0,1-.9.28c-.7,0-.86-.62-.86-1.17A1.59,1.59,0,0,1,338.4,133.12Z" style="fill:#ff9cbd"></path><path d="M321.07,133.4c2.39-.53,1.44-5.6,1.44-5.6s4.76-1.43,4.25-8.75a11.06,11.06,0,0,1-.39,6.3s8.12-3.44,9.51-11.53c0,0-.32,4-1.25,5.68a10.23,10.23,0,0,0,4.06-5.43s2.7,3.6,4.17,4.38c0,0-4.8-14.56-17.92-8.87,0,0-8.33,3.15-9.34,10.81S321.07,133.4,321.07,133.4Z" style="fill:#263238"></path><polygon points="324.37 127.7 319.77 126 319.42 127.26 324.16 128.4 324.37 127.7" style="fill:#FFC727"></polygon><polygon points="324.13 128.93 319.3 128.08 319.18 129.37 324.04 129.65 324.13 128.93" style="fill:#FFC727"></polygon><path d="M322.89,131.57s-3.73-3.91-5.55-2.52,1.45,7.4,3.92,7.92a2.4,2.4,0,0,0,3-1.77Z" style="fill:#f7a9a0"></path><path d="M318.32,130.75a0,0,0,0,0,0,.06A6.11,6.11,0,0,1,322,134.1a1.33,1.33,0,0,0-2-.06s0,.1.06.08a1.49,1.49,0,0,1,1.69.26,7.42,7.42,0,0,1,1,1.19c.09.13.35,0,.27-.15l0,0C322.66,133.29,320.59,130.62,318.32,130.75Z" style="fill:#263238"></path><path d="M276.65,253.09,314,258.24c10.09,1.39,9.58-6.9,8.33-15.7s-3.06-22.12-12.07-23.36l-9.68-1.34-9.7-1.34c-9-1.24-14.36,11.09-17.95,19.23S266.57,251.7,276.65,253.09Z" style="fill:#FFC727"></path><path d="M311.66,219.4a.39.39,0,0,1,.33.44.39.39,0,1,1-.77-.11A.39.39,0,0,1,311.66,219.4Zm-6.8-.55a.39.39,0,1,0,.44-.33A.39.39,0,0,0,304.86,218.85ZM298.5,218a.39.39,0,0,0,.33.44.39.39,0,1,0-.33-.44Zm-6.36-.87a.39.39,0,0,0,.33.44.4.4,0,0,0,.44-.34.39.39,0,1,0-.77-.1Zm24.31,11.68a.39.39,0,1,0,.44-.33A.39.39,0,0,0,316.45,228.78Zm-6.36-.88a.39.39,0,0,0,.77.11.39.39,0,1,0-.77-.11Zm-6.36-.87a.39.39,0,0,0,.77.1.39.39,0,1,0-.77-.1Zm-6.36-.88a.39.39,0,0,0,.33.44.39.39,0,1,0,.11-.77A.39.39,0,0,0,297.37,226.15Zm-6.36-.88a.39.39,0,0,0,.33.44.39.39,0,1,0,.11-.77A.39.39,0,0,0,291,225.27Zm-6.36-.88a.39.39,0,0,0,.77.11.39.39,0,1,0-.77-.11Zm29.2-.24a.39.39,0,1,0,.44-.33A.39.39,0,0,0,313.85,224.15Zm-6.36-.88a.39.39,0,0,0,.33.44.39.39,0,1,0,.11-.77A.39.39,0,0,0,307.49,223.27Zm-6.36-.87a.38.38,0,0,0,.33.43.39.39,0,0,0,.44-.33.39.39,0,1,0-.77-.1Zm-6.36-.88a.39.39,0,1,0,.77.1.38.38,0,0,0-.33-.43A.39.39,0,0,0,294.77,221.52Zm-6.36-.88a.39.39,0,0,0,.33.44.39.39,0,1,0,.11-.77A.39.39,0,0,0,288.41,220.64Zm-6.33-.68a.36.36,0,0,0,.3.24.39.39,0,0,0,.44-.33.41.41,0,0,0-.21-.41Zm33.24,17a.39.39,0,0,0,.77.1.39.39,0,1,0-.77-.1Zm-6.36-.88a.39.39,0,0,0,.33.44.39.39,0,0,0,.44-.34.38.38,0,0,0-.33-.43A.39.39,0,0,0,309,236.08Zm-6.36-.88a.39.39,0,0,0,.33.44.39.39,0,1,0,.11-.77A.39.39,0,0,0,302.6,235.2Zm-6.36-.88a.39.39,0,0,0,.34.44.38.38,0,0,0,.43-.33.39.39,0,0,0-.77-.11Zm-6.36-.87a.39.39,0,0,0,.77.1.39.39,0,1,0-.77-.1Zm-6.36-.88a.39.39,0,0,0,.34.44.38.38,0,0,0,.43-.34.39.39,0,0,0-.33-.44A.4.4,0,0,0,283.52,232.57Zm-6.36-.88a.39.39,0,1,0,.44-.33A.39.39,0,0,0,277.16,231.69Zm41.92,1.51a.39.39,0,0,0,.33.44.39.39,0,1,0-.33-.44Zm-6.36-.87a.39.39,0,0,0,.77.1.39.39,0,1,0-.77-.1Zm-6.36-.88a.39.39,0,0,0,.33.44.39.39,0,0,0,.44-.34.38.38,0,0,0-.33-.43A.39.39,0,0,0,306.36,231.45Zm-6.36-.88a.39.39,0,0,0,.33.44.39.39,0,1,0,.11-.77A.39.39,0,0,0,300,230.57Zm-6.36-.88a.39.39,0,0,0,.77.11.39.39,0,1,0-.77-.11Zm-6.36-.88a.39.39,0,0,0,.77.11.39.39,0,0,0-.77-.11Zm-6.36-.87a.39.39,0,1,0,.44-.34A.4.4,0,0,0,280.92,227.94ZM320.55,246a.39.39,0,0,0,.33.44.39.39,0,0,0,.44-.34.38.38,0,0,0-.33-.43A.39.39,0,0,0,320.55,246Zm-6.36-.88a.39.39,0,0,0,.34.44.38.38,0,0,0,.43-.33.39.39,0,0,0-.33-.44A.39.39,0,0,0,314.19,245.13Zm-6.36-.88a.39.39,0,0,0,.34.44.38.38,0,0,0,.43-.33.39.39,0,1,0-.77-.11Zm-6.36-.88a.39.39,0,0,0,.34.44.38.38,0,0,0,.43-.33.39.39,0,0,0-.33-.44A.39.39,0,0,0,301.47,243.37Zm-6.36-.87a.4.4,0,0,0,.34.44.39.39,0,0,0,.44-.34.39.39,0,0,0-.78-.1Zm-6.35-.88a.39.39,0,0,0,.33.44.39.39,0,0,0,.44-.33.39.39,0,0,0-.34-.44A.38.38,0,0,0,288.76,241.62Zm-6.36-.88a.39.39,0,0,0,.77.11.39.39,0,0,0-.34-.44A.38.38,0,0,0,282.4,240.74Zm-6.36-.88a.39.39,0,0,0,.33.44.39.39,0,1,0,.1-.77A.38.38,0,0,0,276,239.86ZM318,241.38a.39.39,0,0,0,.33.44.39.39,0,0,0,.44-.34.38.38,0,0,0-.33-.43A.39.39,0,0,0,318,241.38Zm-6.36-.88a.39.39,0,0,0,.33.44.39.39,0,0,0,.11-.77A.39.39,0,0,0,311.59,240.5Zm-6.36-.88a.39.39,0,1,0,.77.11.39.39,0,0,0-.77-.11Zm-6.36-.88a.39.39,0,1,0,.77.11.39.39,0,0,0-.77-.11Zm-6.36-.87a.39.39,0,1,0,.44-.34A.4.4,0,0,0,292.51,237.87Zm-6.36-.88a.39.39,0,0,0,.34.44.39.39,0,0,0,.1-.77A.39.39,0,0,0,286.15,237Zm-6.36-.88a.4.4,0,0,0,.34.44.39.39,0,1,0-.34-.44Zm-6.36-.88a.39.39,0,0,0,.78.11.4.4,0,0,0-.34-.44A.39.39,0,0,0,273.43,235.23Zm46,19a.39.39,0,0,0,.34.44.39.39,0,0,0,.44-.33.4.4,0,0,0-.34-.44A.39.39,0,0,0,319.42,254.18Zm-6.36-.88a.39.39,0,0,0,.78.11.4.4,0,0,0-.34-.44A.39.39,0,0,0,313.06,253.3Zm-6.35-.87a.39.39,0,0,0,.33.44.4.4,0,0,0,.44-.34.39.39,0,0,0-.34-.44A.38.38,0,0,0,306.71,252.43Zm-6.36-.88a.39.39,0,1,0,.77.11.39.39,0,0,0-.34-.44A.38.38,0,0,0,300.35,251.55Zm-6.36-.88a.39.39,0,0,0,.77.11.39.39,0,0,0-.34-.44A.38.38,0,0,0,294,250.67Zm-6.36-.88a.39.39,0,0,0,.33.44.39.39,0,1,0,.11-.77A.39.39,0,0,0,287.63,249.79Zm-6.36-.87a.38.38,0,0,0,.33.43.39.39,0,0,0,.11-.77A.39.39,0,0,0,281.27,248.92Zm-6.36-.88a.39.39,0,1,0,.77.1.39.39,0,0,0-.77-.1Zm41.91,1.51a.39.39,0,0,0,.34.44.38.38,0,0,0,.43-.33.39.39,0,0,0-.77-.11Zm-6.36-.88a.39.39,0,0,0,.34.44.38.38,0,0,0,.43-.33.39.39,0,1,0-.77-.11Zm-6.36-.87a.38.38,0,0,0,.34.43.37.37,0,0,0,.43-.33.39.39,0,0,0-.33-.44A.39.39,0,0,0,304.1,247.8Zm-6.36-.88a.4.4,0,0,0,.34.44.39.39,0,1,0-.34-.44Zm-6.35-.88a.39.39,0,0,0,.33.44.39.39,0,0,0,.44-.33.39.39,0,0,0-.34-.44A.38.38,0,0,0,291.39,246Zm-6.36-.88a.38.38,0,0,0,.33.44.39.39,0,1,0,.1-.77A.38.38,0,0,0,285,245.16Zm-6.36-.87a.38.38,0,0,0,.33.43.39.39,0,1,0,.1-.77A.38.38,0,0,0,278.67,244.29Zm-6.36-.88a.39.39,0,1,0,.77.1.39.39,0,0,0-.77-.1Zm43.38,14.32a.39.39,0,0,0,.78.1.39.39,0,1,0-.78-.1Zm-6.35-.88a.39.39,0,0,0,.33.44.39.39,0,0,0,.44-.34.38.38,0,0,0-.34-.43A.38.38,0,0,0,309.34,256.85ZM303,256a.39.39,0,0,0,.77.11.39.39,0,0,0-.34-.44A.38.38,0,0,0,303,256Zm-6.36-.88a.39.39,0,0,0,.33.44.39.39,0,1,0,.1-.77A.38.38,0,0,0,296.62,255.09Zm-6.36-.87a.38.38,0,0,0,.33.43.39.39,0,1,0,.11-.77A.39.39,0,0,0,290.26,254.22Zm-6.36-.88a.39.39,0,1,0,.44-.34A.39.39,0,0,0,283.9,253.34Zm-6.36-.88a.39.39,0,1,0,.77.11.39.39,0,0,0-.77-.11Zm-5.85-1.19.19.14A.4.4,0,0,0,271.69,251.27Z" style="fill:#fff"></path><path d="M307.14,223.29a3.12,3.12,0,1,0,3.51-2.67A3.11,3.11,0,0,0,307.14,223.29Z" style="opacity:0.1"></path><path d="M286.52,220.44a3.12,3.12,0,1,0,3.51-2.66A3.11,3.11,0,0,0,286.52,220.44Z" style="opacity:0.1"></path><path d="M308.13,223.43a2.11,2.11,0,1,0,2.39-1.81A2.12,2.12,0,0,0,308.13,223.43Z" style="fill:#455a64"></path><path d="M287.51,220.58a2.11,2.11,0,1,0,2.39-1.81A2.11,2.11,0,0,0,287.51,220.58Z" style="fill:#455a64"></path><path d="M290.85,221.45l-1.93-.53.24-.88c10-36.55,19.42-71.06,32.25-72.85l.28,2c-11.53,1.6-21.22,37.08-30.6,71.4Z" style="fill:#455a64"></path><path d="M311.19,224l-1.93-.51c.12-.43,11.4-42.62,13.44-54.41,1.81-10.49,1.69-17.78-.31-19.49a1.65,1.65,0,0,0-1.76-.17L320,147.5a3.59,3.59,0,0,1,3.71.54c3.36,2.87,2.39,13.19,1,21.35C322.62,181.27,311.31,223.55,311.19,224Z" style="fill:#455a64"></path><rect x="183.11" y="307.87" width="60.47" height="112.54" transform="translate(105.25 -43.82) rotate(15.53)" style="fill:#FFC727"></rect><g style="opacity:0.1"><rect x="194.5" y="322.79" width="60.47" height="0.68" transform="matrix(0.96, 0.27, -0.27, 0.96, 94.69, -48.36)" style="fill:#020100"></rect><rect x="191.25" y="334.51" width="60.47" height="0.68" transform="translate(97.71 -47.06) rotate(15.53)" style="fill:#020100"></rect><rect x="187.99" y="346.22" width="60.47" height="0.68" transform="translate(100.73 -45.77) rotate(15.53)" style="fill:#020100"></rect><rect x="184.74" y="357.94" width="60.47" height="0.68" transform="translate(103.74 -44.47) rotate(15.53)" style="fill:#020100"></rect><rect x="181.48" y="369.66" width="60.47" height="0.68" transform="translate(106.76 -43.17) rotate(15.53)" style="fill:#020100"></rect><rect x="178.23" y="381.37" width="60.47" height="0.68" transform="translate(109.78 -41.87) rotate(15.53)" style="fill:#020100"></rect><rect x="174.97" y="393.09" width="60.47" height="0.68" transform="translate(112.79 -40.57) rotate(15.53)" style="fill:#020100"></rect><rect x="171.72" y="404.8" width="60.47" height="0.68" transform="translate(115.81 -39.27) rotate(15.53)" style="fill:#020100"></rect></g><rect x="211.01" y="307.87" width="4.66" height="112.54" transform="translate(105.24 -43.81) rotate(15.52)" style="fill:#263238"></rect><rect x="221.14" y="350.01" width="5.04" height="34" transform="translate(106.39 -46.47) rotate(15.53)" style="fill:#263238"></rect><polygon points="229.67 418.33 215.67 414.44 207.82 421 227.41 426.45 229.67 418.33" style="fill:#263238"></polygon><polygon points="171.41 402.14 185.4 406.03 188.74 415.7 169.15 410.26 171.41 402.14" style="fill:#263238"></polygon><polygon points="214.79 433.43 219.97 434.87 226.11 426.09 214.93 422.98 216.78 428.74 214.79 433.43" style="fill:#263238"></polygon><path d="M209.17,435.05a7.4,7.4,0,1,0,9.12-5.16A7.41,7.41,0,0,0,209.17,435.05Z" style="fill:#37474f"></path><path d="M212.4,436a4.05,4.05,0,1,0,5-2.82A4.06,4.06,0,0,0,212.4,436Z" style="fill:#dbdbdb"></path><path d="M216.88,434.65c-.15.56-.21,1-.13,1.05s.28-.41.43-1,.22-1,.13-1.06S217,434.09,216.88,434.65Z" style="fill:#263238"></path><path d="M218.4,435.75c-.51.29-.88.58-.84.66s.49-.1,1-.39.89-.57.84-.65S218.91,435.47,218.4,435.75Z" style="fill:#263238"></path><path d="M218.69,437.61c-.56-.16-1-.22-1.06-.13s.42.27,1,.43,1,.21,1,.13S219.25,437.76,218.69,437.61Z" style="fill:#263238"></path><path d="M217.58,439.12c-.28-.5-.58-.88-.65-.84s.09.49.38,1,.58.88.66.84S217.87,439.63,217.58,439.12Z" style="fill:#263238"></path><path d="M215.73,439.42c.15-.57.21-1,.13-1.06s-.28.41-.43,1-.22,1-.13,1.06S215.57,440,215.73,439.42Z" style="fill:#263238"></path><path d="M214.21,438.31c.51-.29.88-.58.84-.66s-.49.1-1,.39-.89.58-.84.65S213.7,438.6,214.21,438.31Z" style="fill:#263238"></path><path d="M213.92,436.45c.56.16,1,.22,1.06.13s-.42-.27-1-.43-1-.21-1.05-.13S213.36,436.3,213.92,436.45Z" style="fill:#263238"></path><path d="M215,434.94c.28.5.58.88.65.84s-.09-.49-.38-1-.58-.88-.66-.84S214.74,434.43,215,434.94Z" style="fill:#263238"></path><polygon points="176.36 422.76 171.18 421.32 170.45 410.62 181.63 413.73 177.08 417.71 176.36 422.76" style="fill:#263238"></polygon><path d="M180.34,427a7.4,7.4,0,1,1-5.15-9.12A7.4,7.4,0,0,1,180.34,427Z" style="fill:#37474f"></path><path d="M177.11,426.14a4,4,0,1,1-2.82-5A4,4,0,0,1,177.11,426.14Z" style="fill:#dbdbdb"></path><path d="M173.94,422.72c-.15.56-.35,1-.43,1s0-.5.13-1.06.35-1,.43-1S174.1,422.16,173.94,422.72Z" style="fill:#263238"></path><path d="M172.07,422.88c.29.51.46.95.38,1s-.36-.34-.65-.84-.46-1-.38-1S171.78,422.38,172.07,422.88Z" style="fill:#263238"></path><path d="M170.87,424.32c.56.16,1,.35,1,.43s-.5,0-1.06-.13-1-.35-1-.43S170.3,424.17,170.87,424.32Z" style="fill:#263238"></path><path d="M171,426.19c.51-.28.95-.45,1-.38s-.33.37-.84.66-1,.45-1,.38S170.52,426.48,171,426.19Z" style="fill:#263238"></path><path d="M172.47,427.4c.16-.56.35-1,.43-1s0,.49-.13,1.05-.35,1-.43,1S172.31,428,172.47,427.4Z" style="fill:#263238"></path><path d="M174.34,427.23c-.29-.5-.46-1-.38-1s.37.33.65.84.46.95.39,1S174.63,427.74,174.34,427.23Z" style="fill:#263238"></path><path d="M175.55,425.79c-.56-.15-1-.35-1-.43s.5,0,1.06.13,1,.35,1,.43S176.11,426,175.55,425.79Z" style="fill:#263238"></path><path d="M175.38,423.92c-.5.29-.95.46-1,.38s.33-.36.84-.65,1-.46,1-.38S175.89,423.64,175.38,423.92Z" style="fill:#263238"></path><rect x="232.51" y="307.3" width="10.1" height="5.07" transform="translate(91.6 -52.28) rotate(15.52)" style="fill:#263238"></rect><rect x="262.27" y="231" width="4.6" height="87.38" transform="translate(83.18 -60.79) rotate(15.53)" style="fill:#c7c7c7"></rect><rect x="271.87" y="231.15" width="6.54" height="11.01" transform="translate(73.38 -65.01) rotate(15.52)" style="fill:#263238"></rect><path d="M320.2,159.72c-4.16,6-21.06,29.22-21.57,30.52s-9.5,27.62-10.43,31.88c-.66,3-21.33-7-20.61-9.56,1.7-6,6.39-24.18,10.91-30.75,5.88-8.56,29.86-27.25,37-30.7C321.55,148.18,327,149.86,320.2,159.72Z" style="fill:#f7a9a0"></path><path d="M276.47,231.88c1.29-.78,1.71-.1.75,2.4s-6.86,11.62-3.51,13.41,11.5-11.18,12.78-15.47a71.33,71.33,0,0,0,1.82-11.69C286.21,222.73,280.63,227.6,276.47,231.88Z" style="fill:#f7a9a0"></path><path d="M270.47,207c-5.67,6.44-13.11,14.1-14.94,23.59a4.78,4.78,0,0,0,.37,3.12c-.9,4.24.83,5.94.83,5.94.38,4.2,2.39,5.69,2.39,5.69s-1,5,1.92,6.1c3.27,1.24,4-6,6.89-9.74,6.54-8.56,18.24-18.88,20.38-21.16Z" style="fill:#f7a9a0"></path><path d="M268.49,227.9a68.92,68.92,0,0,0-5.31,7.82,68.69,68.69,0,0,0-3.95,9.56.08.08,0,0,1-.16-.05,36.64,36.64,0,0,1,9.3-17.42C268.48,227.7,268.58,227.77,268.49,227.9Z" style="fill:#263238"></path><path d="M263.9,223.2c-1.69,2.59-4.62,7.15-7.07,16.46,0,0-.06,0-.05,0a32.86,32.86,0,0,1,7-16.53C263.9,223,264,223,263.9,223.2Z" style="fill:#263238"></path><path d="M261.39,220.72a51.34,51.34,0,0,0-5.47,13s-.06,0,0,0c1.22-6.18,2.36-8.29,5.38-13.07C261.35,220.44,261.49,220.54,261.39,220.72Z" style="fill:#263238"></path></g></svg>