<svg xmlns="http://www.w3.org/2000/svg" xmlns:xlink="http://www.w3.org/1999/xlink" viewBox="0 0 500 500"><defs><clipPath id="freepik--clip-path--inject-137"><path d="M364.72,188.53c-4.58-47.81-23.34-89.68-23.34-89.68l-11.51.72c0,1.29,17,28,23.69,88.11,8.08,72.28,5.89,147.12,5.89,147.12a2.88,2.88,0,0,0,1.69,2.35,9,9,0,0,0,8.13,0A2.86,2.86,0,0,0,371,334.8h0S369.3,236.34,364.72,188.53Z" style="fill:none"></path></clipPath><clipPath id="freepik--clip-path-2--inject-137"><path d="M381,238.08c4.58-47.82,23.35-89.69,23.35-89.69l11.5.73c0,1.29-17,28-23.69,88.11-8.08,72.28-5.89,101.24-5.89,101.24a2.86,2.86,0,0,1-1.69,2.35,9,9,0,0,1-8.13,0,2.86,2.86,0,0,1-1.69-2.35h0S376.37,285.89,381,238.08Z" style="fill:none"></path></clipPath><clipPath id="freepik--clip-path-3--inject-137"><path d="M302.27,235.52s10.4-.13,12.9,6.06,9.9,30.73,9.9,30.73l8.29,21.51s-8.45,7-14.65,9.3l-11.27-28.51Z" style="fill:none"></path></clipPath><clipPath id="freepik--clip-path-4--inject-137"><path d="M316.8,405.11c-24.57,13.12-33.11-.08-37.57-5.61s-7.48-5.45-15.61-7.72-10.45-11.18-10.45-11.18,21.1-32.79,25.3-39.49-1.3-15.43-4.47-35.32a36.13,36.13,0,0,1,9.73-31.49l-1.5-4.23-.24-.65-3-8.35,1.17-23.49,3.9-.87.91-.2,3.89-.87,13.38-.12a13.58,13.58,0,0,1,2.7,2.1l.48.45c3.65,3.56,8.73,10.05,8.73,15.43a22.79,22.79,0,0,1-3.92,12.63l1,14.48a110.07,110.07,0,0,1,3.5,35.53,83.23,83.23,0,0,1-4.46,21.71,54.17,54.17,0,0,1-4.24,9.51Z" style="fill:none"></path></clipPath><clipPath id="freepik--clip-path-5--inject-137"><path d="M281,237.41s7.23,7.83,1.05,18.53a112.74,112.74,0,0,1-11.6,16.84l12.26,2.62s-.12,9.92-1.79,15.64c0,0-18.15-4.24-22.91-5.4s-11.18-5.77-5.15-15.34c4.32-6.87,13.16-20,17.81-26.82a13.48,13.48,0,0,1,8.2-5.59Z" style="fill:none"></path></clipPath><clipPath id="freepik--clip-path-6--inject-137"><path d="M218.85,212.36S259.19,174.77,325,186c0,0-45-25.6-60.42-32.57a6,6,0,0,0-2.81-.37h0a7.23,7.23,0,0,0-5.26,2.74C248.71,165.61,226,201.32,218.85,212.36Z" style="fill:none"></path></clipPath></defs><g id="freepik--Floor--inject-137"><ellipse cx="250" cy="355.16" rx="224.58" ry="132.31" style="fill:#f5f5f5"></ellipse></g><g id="freepik--Shadow--inject-137"><ellipse cx="372.78" cy="333.83" rx="32.16" ry="18.95" style="fill:#e0e0e0"></ellipse><path d="M251.17,333.81h-7.94L215,318.5l-99,57.09,25.58,21.05-13.67,7.89h-8.62L79.85,378.89S63,381.11,54.53,373.81L228,274.11s9.48,15-4.55,26.69l41.36,25.12Z" style="fill:#e0e0e0"></path><ellipse cx="288.05" cy="415.25" rx="57.16" ry="33.68" style="fill:#e0e0e0"></ellipse></g><g id="freepik--fish-flag--inject-137"><path d="M81.43,371.79V71.14h-8.9v300.7a2.2,2.2,0,0,0,1.3,1.82,7,7,0,0,0,6.3,0A2.18,2.18,0,0,0,81.43,371.79Z" style="fill:#263238"></path><path d="M80.13,73.21a6.93,6.93,0,0,1-6.3,0c-1.74-1-1.74-2.63,0-3.63a6.93,6.93,0,0,1,6.3,0C81.87,70.58,81.87,72.21,80.13,73.21Z" style="fill:#455a64"></path><path d="M77,136.26a7.75,7.75,0,0,1-3.76-.91,2.94,2.94,0,0,1-1.7-2.46.5.5,0,0,1,.5-.5.5.5,0,0,1,.5.5,2,2,0,0,0,1.2,1.59,7.2,7.2,0,0,0,6.52,0,2,2,0,0,0,1.2-1.59v-.28l24.39-15.35a.5.5,0,0,1,.69.16.49.49,0,0,1-.16.69L82.42,133.18a3.1,3.1,0,0,1-1.68,2.17A7.78,7.78,0,0,1,77,136.26Z" style="fill:#BA68C8"></path><path d="M77,106.11a7.75,7.75,0,0,1-3.76-.91,2.94,2.94,0,0,1-1.7-2.46.5.5,0,0,1,.5-.5.5.5,0,0,1,.5.5,2,2,0,0,0,1.2,1.59,7.2,7.2,0,0,0,6.52,0,2,2,0,0,0,1.2-1.59v-.28l19.28-11.89a.51.51,0,0,1,.69.16.5.5,0,0,1-.16.69L82.42,103a3.1,3.1,0,0,1-1.68,2.17A7.78,7.78,0,0,1,77,106.11Z" style="fill:#BA68C8"></path><path d="M183.85,38.61s18.64-9,22.44-16.08c0,0,6.38,7.75-.35,17.31,0,0,5-2.31,6.36,3.72s-4,11-4,11,4.61-2.16,5,4.13-12.19,16-18.77,11.9Z" style="fill:#BA68C8"></path><path d="M190.3,45.44a.49.49,0,0,1-.44-.26.5.5,0,0,1,.2-.68l7.05-3.8a.51.51,0,0,1,.68.2.5.5,0,0,1-.21.68l-7.05,3.8A.46.46,0,0,1,190.3,45.44Z" style="fill:#263238"></path><path d="M195.05,53.75a.51.51,0,0,1-.44-.26.5.5,0,0,1,.2-.68l7.05-3.8a.5.5,0,0,1,.48.88l-7.05,3.8A.53.53,0,0,1,195.05,53.75Z" style="fill:#263238"></path><path d="M194.62,65.36a.52.52,0,0,1-.45-.26.5.5,0,0,1,.21-.68l7.05-3.8a.51.51,0,0,1,.68.2.5.5,0,0,1-.21.68l-7.05,3.8A.46.46,0,0,1,194.62,65.36Z" style="fill:#263238"></path><path d="M126.48,115.38l11-3.6A121.42,121.42,0,0,0,191.85,75.7h0a20.51,20.51,0,0,0,4.81-10.57l.47-3.24a21.86,21.86,0,0,0-13.28-23.28h0s-41.66,17-60.29,31.63Z" style="fill:#BA68C8"></path><path d="M126.48,115.38l11-3.6A121.42,121.42,0,0,0,191.85,75.7h0a20.51,20.51,0,0,0,4.81-10.57l.47-3.24a21.86,21.86,0,0,0-13.28-23.28h0s-41.66,17-60.29,31.63Z" style="fill:#fff;opacity:0.5"></path><path d="M181.67,72.86c-.18,0-.35,0-.52,0A10.83,10.83,0,0,0,183.86,59a9.72,9.72,0,0,1,3.51-.66,9.91,9.91,0,0,1,9.32,6.6l.27-1.88a10.9,10.9,0,0,0-11.82-5.49,10.87,10.87,0,0,0-3.52-18.05l-1.4.59a9.89,9.89,0,0,1,3,17.76l.16.25-.05,0a10.87,10.87,0,0,0-8.93-4.68,11.05,11.05,0,0,0-2.15.23,10.82,10.82,0,0,0,3.13-7.61,10.93,10.93,0,0,0-.61-3.6l-.92.41a9.86,9.86,0,0,1-4.54,11.81,10.12,10.12,0,0,0-7.63-3.49,9.69,9.69,0,0,0-2.22.25,10.38,10.38,0,0,0-.73-1.59l-.89.44a9.08,9.08,0,0,1-5.56,13.23,10.94,10.94,0,0,0-5.87-7.45l-1.12.6a9.87,9.87,0,0,1,3.45,16.07,10.06,10.06,0,0,0-7.07-2.9,10,10,0,0,0-2,.23,10.92,10.92,0,0,0-6.86-6.23l-1.13.72a9.88,9.88,0,0,1,3.93,17.52A10,10,0,0,0,131.42,84a10.4,10.4,0,0,1-1.87.18,9.8,9.8,0,0,1-5.19-1.49l.08,1.21a10.9,10.9,0,0,0,5.11,1.28c.2,0,.4,0,.59,0a10.08,10.08,0,0,0,1.67,15.23,10.84,10.84,0,0,0-6.17,2.09l.08,1.19a9.83,9.83,0,0,1,6.32-2.29,10.32,10.32,0,0,1,2.44.31c.17.06.36.1.54.15a9.92,9.92,0,0,1,6.87,8.45l1-.37a10.91,10.91,0,0,0-4.89-7.78,10.12,10.12,0,0,0,9.16-7,9.08,9.08,0,0,1,5.85,8.51,9.34,9.34,0,0,1-.23,2l1.11-.56a9.62,9.62,0,0,0,.12-1.43,10.09,10.09,0,0,0-.36-2.65,10.83,10.83,0,0,0,7.51-6A9.88,9.88,0,0,1,167,97.54l.85-.58a10.84,10.84,0,0,0-6.36-2.88,11,11,0,0,0,.64-3.69,10.79,10.79,0,0,0-2-6.26A9.89,9.89,0,0,1,176,91l.91-.73a11,11,0,0,0-1.85-4.5,10,10,0,0,0,4.7-11.7,9.68,9.68,0,0,1,1.94-.21,9.88,9.88,0,0,1,8.07,4.19l.68-.75A10.85,10.85,0,0,0,181.67,72.86ZM160,54.77a10.1,10.1,0,0,0-.28-2.33,9.11,9.11,0,0,1,5.23,17.39,10.91,10.91,0,0,0-9.77-6.45A10.15,10.15,0,0,0,160,54.77Zm-19.54,19.5a10.93,10.93,0,0,0-.48-3.21,8.55,8.55,0,0,1,1.68-.18,9.1,9.1,0,0,1,4.95,16.74,10.12,10.12,0,0,0-9.09-5.7l-.22,0A10.87,10.87,0,0,0,140.45,74.27Zm-2.94,26.87a8.82,8.82,0,0,1-2.19-.28l-.55-.14a9.11,9.11,0,0,1-2.94-15.8A10.82,10.82,0,0,0,136,83.07a8.85,8.85,0,0,1,1.55-.15,9.11,9.11,0,1,1,0,18.22Zm23.65-10.75a10,10,0,0,1-.69,3.63h0v0a9.84,9.84,0,0,1-7.15,6,10,10,0,0,0-5.92-5.86,9.78,9.78,0,0,0,.24-2.18,10.08,10.08,0,0,0-.63-3.48,10.11,10.11,0,0,0,4.74-8,9.87,9.87,0,0,1,9.43,9.87Zm-1.79-7.26c-.13-.15-.26-.3-.4-.44a10.77,10.77,0,0,0-7.23-3.17,10.08,10.08,0,0,0-2.33-6,10.85,10.85,0,0,0,3.11-7.62,11.14,11.14,0,0,0-.07-1.17,9.87,9.87,0,0,1,6.92,18.4Zm15,1.85a10.78,10.78,0,0,0-11.34-3.4,10.82,10.82,0,0,0,2.24-10.82,10,10,0,0,0,4-2.84c.24,0,.49,0,.74,0A9.09,9.09,0,0,1,174.41,85Zm4.9-12a10.11,10.11,0,0,0-9.21-6,10.07,10.07,0,0,0-.16-11.34,9.88,9.88,0,0,1,9.37,17.38Z" style="fill:#BA68C8"></path><path d="M181.67,72.86c-.18,0-.35,0-.52,0A10.83,10.83,0,0,0,183.86,59a9.72,9.72,0,0,1,3.51-.66,9.91,9.91,0,0,1,9.32,6.6l.27-1.88a10.9,10.9,0,0,0-11.82-5.49,10.87,10.87,0,0,0-3.52-18.05l-1.4.59a9.89,9.89,0,0,1,3,17.76l.16.25-.05,0a10.87,10.87,0,0,0-8.93-4.68,11.05,11.05,0,0,0-2.15.23,10.82,10.82,0,0,0,3.13-7.61,10.93,10.93,0,0,0-.61-3.6l-.92.41a9.86,9.86,0,0,1-4.54,11.81,10.12,10.12,0,0,0-7.63-3.49,9.69,9.69,0,0,0-2.22.25,10.38,10.38,0,0,0-.73-1.59l-.89.44a9.08,9.08,0,0,1-5.56,13.23,10.94,10.94,0,0,0-5.87-7.45l-1.12.6a9.87,9.87,0,0,1,3.45,16.07,10.06,10.06,0,0,0-7.07-2.9,10,10,0,0,0-2,.23,10.92,10.92,0,0,0-6.86-6.23l-1.13.72a9.88,9.88,0,0,1,3.93,17.52A10,10,0,0,0,131.42,84a10.4,10.4,0,0,1-1.87.18,9.8,9.8,0,0,1-5.19-1.49l.08,1.21a10.9,10.9,0,0,0,5.11,1.28c.2,0,.4,0,.59,0a10.08,10.08,0,0,0,1.67,15.23,10.84,10.84,0,0,0-6.17,2.09l.08,1.19a9.83,9.83,0,0,1,6.32-2.29,10.32,10.32,0,0,1,2.44.31c.17.06.36.1.54.15a9.92,9.92,0,0,1,6.87,8.45l1-.37a10.91,10.91,0,0,0-4.89-7.78,10.12,10.12,0,0,0,9.16-7,9.08,9.08,0,0,1,5.85,8.51,9.34,9.34,0,0,1-.23,2l1.11-.56a9.62,9.62,0,0,0,.12-1.43,10.09,10.09,0,0,0-.36-2.65,10.83,10.83,0,0,0,7.51-6A9.88,9.88,0,0,1,167,97.54l.85-.58a10.84,10.84,0,0,0-6.36-2.88,11,11,0,0,0,.64-3.69,10.79,10.79,0,0,0-2-6.26A9.89,9.89,0,0,1,176,91l.91-.73a11,11,0,0,0-1.85-4.5,10,10,0,0,0,4.7-11.7,9.68,9.68,0,0,1,1.94-.21,9.88,9.88,0,0,1,8.07,4.19l.68-.75A10.85,10.85,0,0,0,181.67,72.86ZM160,54.77a10.1,10.1,0,0,0-.28-2.33,9.11,9.11,0,0,1,5.23,17.39,10.91,10.91,0,0,0-9.77-6.45A10.15,10.15,0,0,0,160,54.77Zm-19.54,19.5a10.93,10.93,0,0,0-.48-3.21,8.55,8.55,0,0,1,1.68-.18,9.1,9.1,0,0,1,4.95,16.74,10.12,10.12,0,0,0-9.09-5.7l-.22,0A10.87,10.87,0,0,0,140.45,74.27Zm-2.94,26.87a8.82,8.82,0,0,1-2.19-.28l-.55-.14a9.11,9.11,0,0,1-2.94-15.8A10.82,10.82,0,0,0,136,83.07a8.85,8.85,0,0,1,1.55-.15,9.11,9.11,0,1,1,0,18.22Zm23.65-10.75a10,10,0,0,1-.69,3.63h0v0a9.84,9.84,0,0,1-7.15,6,10,10,0,0,0-5.92-5.86,9.78,9.78,0,0,0,.24-2.18,10.08,10.08,0,0,0-.63-3.48,10.11,10.11,0,0,0,4.74-8,9.87,9.87,0,0,1,9.43,9.87Zm-1.79-7.26c-.13-.15-.26-.3-.4-.44a10.77,10.77,0,0,0-7.23-3.17,10.08,10.08,0,0,0-2.33-6,10.85,10.85,0,0,0,3.11-7.62,11.14,11.14,0,0,0-.07-1.17,9.87,9.87,0,0,1,6.92,18.4Zm15,1.85a10.78,10.78,0,0,0-11.34-3.4,10.82,10.82,0,0,0,2.24-10.82,10,10,0,0,0,4-2.84c.24,0,.49,0,.74,0A9.09,9.09,0,0,1,174.41,85Zm4.9-12a10.11,10.11,0,0,0-9.21-6,10.07,10.07,0,0,0-.16-11.34,9.88,9.88,0,0,1,9.37,17.38Z" style="fill:#fff;opacity:0.8"></path><path d="M94.75,95h0a4.55,4.55,0,0,1,1.75-3.59l27.06-21.2s13.76,1.05,13.76,20.42-10.84,24.72-10.84,24.72L102.6,121Z" style="fill:#BA68C8"></path><ellipse cx="101.52" cy="106.66" rx="8.81" ry="14.63" style="fill:#455a64"></ellipse><ellipse cx="99.47" cy="107.37" rx="8.81" ry="14.63" style="fill:#263238"></ellipse><path d="M101.81,121.1c-4.87,0-8.81-6.55-8.81-14.63,0-6.24,2.36-11.56,5.68-13.66-4.5.67-8,6.93-8,14.56,0,8.08,3.94,14.63,8.81,14.63a5.82,5.82,0,0,0,3.13-1A5.27,5.27,0,0,1,101.81,121.1Z" style="fill:#37474f"></path><rect x="122.76" y="76.99" width="1" height="4.58" style="fill:#263238"></rect><rect x="128.47" y="83.43" width="4.58" height="1" transform="translate(-22.97 61.34) rotate(-24.34)" style="fill:#263238"></rect><rect x="125.42" y="80.4" width="4.58" height="1" transform="translate(-13.89 133.86) rotate(-52.86)" style="fill:#263238"></rect><circle cx="123.26" cy="88.09" r="6.52" style="fill:#fff"></circle><path d="M128,87.62a4.46,4.46,0,1,1-4.45-4.45A4.46,4.46,0,0,1,128,87.62Z" style="fill:#263238"></path><path d="M122.3,86a2.08,2.08,0,1,1-2.08-2.08A2.08,2.08,0,0,1,122.3,86Z" style="fill:#fff"></path></g><g id="freepik--Plants--inject-137"><path d="M403.88,358.43l10,5.82s-5.05-16.12-2.25-32.34a31,31,0,0,1,4.07-10.79c.79-1.64,6.82-11.75,1.51-16.41s-17.78,4.61-17.22,29.58A97.12,97.12,0,0,0,403.88,358.43Z" style="fill:#BA68C8"></path><path d="M403.88,358.43l10,5.82s-5.05-16.12-2.25-32.34a31,31,0,0,1,4.07-10.79c.79-1.64,6.82-11.75,1.51-16.41s-17.78,4.61-17.22,29.58A97.12,97.12,0,0,0,403.88,358.43Z" style="opacity:0.5;mix-blend-mode:overlay"></path><path d="M408.53,361.64a.52.52,0,0,1-.47-.33c0-.11-3.82-10.62-3.62-27.48s9.12-26,9.21-26.12a.5.5,0,0,1,.71.71c-.09.09-8.73,8.88-8.92,25.42S409,360.86,409,361a.49.49,0,0,1-.3.64A.33.33,0,0,1,408.53,361.64Z" style="fill:#fff"></path><path d="M411.64,363l16.53,9.73s7.57-1.12,7-8.24-3.65-8.81.18-11.94,4.82-3.34,4.64-6.41-2.25-4.4-3.22-5.62-3.68-3.77-1.78-7.47,4.49-7.27.66-9c-2.29-1-6.14.26-8.69,3s-4.65,4.66-7.07,5.29-7.46.68-7.29,4.84,1.25,5.6.24,7.45C410.94,348.07,402.81,350,411.64,363Z" style="fill:#BA68C8"></path><path d="M418.37,367.43a.49.49,0,0,1-.49-.46c0-.24-1.83-24.92,15.32-41.12a.49.49,0,0,1,.7,0,.5.5,0,0,1,0,.71c-16.79,15.88-15,40.07-15,40.31a.5.5,0,0,1-.45.54Z" style="fill:#fff"></path><path d="M421.34,346.31a.5.5,0,0,1-.5-.46,14,14,0,0,0-5-9.8.5.5,0,1,1,.59-.81,14.79,14.79,0,0,1,5.42,10.53.5.5,0,0,1-.46.54Z" style="fill:#fff"></path><path d="M420.12,350.51a.54.54,0,0,1-.34-.12.5.5,0,0,1,0-.71c.17-.2,4.5-4.88,14.49-3.5a.49.49,0,0,1,.43.56.5.5,0,0,1-.56.43c-9.43-1.3-13.58,3.14-13.62,3.18A.5.5,0,0,1,420.12,350.51Z" style="fill:#fff"></path><path d="M103.12,391.51l-10,5.81s5-16.12,2.25-32.33a31.36,31.36,0,0,0-4.07-10.8c-.79-1.63-6.82-11.74-1.51-16.41s17.77,4.62,17.21,29.59A96.85,96.85,0,0,1,103.12,391.51Z" style="fill:#BA68C8"></path><path d="M103.12,391.51l-10,5.81s5-16.12,2.25-32.33a31.36,31.36,0,0,0-4.07-10.8c-.79-1.63-6.82-11.74-1.51-16.41s17.77,4.62,17.21,29.59A96.85,96.85,0,0,1,103.12,391.51Z" style="opacity:0.5;mix-blend-mode:overlay"></path><path d="M98.46,394.71l-.17,0A.49.49,0,0,1,98,394c0-.1,3.76-10.46,3.56-27.12s-8.83-25.34-8.92-25.42a.51.51,0,0,1,0-.71.5.5,0,0,1,.71,0c.09.09,9,9.14,9.21,26.11S99,394.28,98.93,394.39A.49.49,0,0,1,98.46,394.71Z" style="fill:#fff"></path><path d="M95.36,396.05l-16.54,9.73s-7.57-1.12-7-8.25,3.65-8.8-.18-11.93-4.82-3.34-4.64-6.41,2.25-4.4,3.22-5.62,3.68-3.77,1.77-7.47-4.48-7.28-.65-9c2.29-1,6.14.25,8.69,3s4.65,4.66,7.07,5.28,7.45.68,7.28,4.85-1.25,5.6-.24,7.45C96.06,381.15,104.18,383,95.36,396.05Z" style="fill:#BA68C8"></path><path d="M88.62,400.51h0a.49.49,0,0,1-.45-.54c0-.24,1.77-24.45-15-40.31a.5.5,0,0,1,.69-.73c17.14,16.2,15.34,40.88,15.32,41.12A.5.5,0,0,1,88.62,400.51Z" style="fill:#fff"></path><path d="M85.66,379.39h0a.51.51,0,0,1-.46-.54,14.7,14.7,0,0,1,5.42-10.53.5.5,0,1,1,.59.81,14,14,0,0,0-5,9.79A.5.5,0,0,1,85.66,379.39Z" style="fill:#fff"></path><path d="M86.88,383.59a.49.49,0,0,1-.37-.16c0-.05-4.2-4.47-13.62-3.19a.49.49,0,0,1-.56-.42.5.5,0,0,1,.42-.57c10-1.37,14.32,3.31,14.5,3.51a.48.48,0,0,1,0,.7A.46.46,0,0,1,86.88,383.59Z" style="fill:#fff"></path><path d="M380.67,245c-.05-.3-4.59-30,1.82-50.21l.95.3c-6.34,20-1.83,49.46-1.78,49.75Z" style="fill:#455a64"></path><path d="M387,193.9a20.87,20.87,0,0,1-5.81,9.17,19,19,0,0,1,5.64-20A20.84,20.84,0,0,1,387,193.9Z" style="fill:#455a64"></path><path d="M386.8,218.11a16.28,16.28,0,0,1-7.13,4.63,14.85,14.85,0,0,1,10.56-12.4A16.26,16.26,0,0,1,386.8,218.11Z" style="fill:#263238"></path><path d="M373.31,207.82a16.28,16.28,0,0,1-1.73-8.32,14.89,14.89,0,0,1,7.73,14.34A16.33,16.33,0,0,1,373.31,207.82Z" style="fill:#455a64"></path><path d="M363.34,182.92h-1c0-.3.17-30.32,9.67-49.3l.9.45C363.51,152.84,363.34,182.62,363.34,182.92Z" style="fill:#455a64"></path><path d="M376.58,133.44a20.91,20.91,0,0,1-7.17,8.15,19,19,0,0,1,8.71-18.9A20.84,20.84,0,0,1,376.58,133.44Z" style="fill:#455a64"></path><path d="M372.62,157.33a16.41,16.41,0,0,1-7.77,3.45,14.87,14.87,0,0,1,12.38-10.59A16.35,16.35,0,0,1,372.62,157.33Z" style="fill:#455a64"></path><path d="M360.9,145.05a16.43,16.43,0,0,1-.4-8.49,14.85,14.85,0,0,1,5.39,15.37A16.29,16.29,0,0,1,360.9,145.05Z" style="fill:#455a64"></path><path d="M358.38,153.49l-1-.1c0-.3,3-29.93-4.37-49.59l.93-.35C361.41,123.33,358.41,153.19,358.38,153.49Z" style="fill:#455a64"></path><path d="M349.43,102.79a20.86,20.86,0,0,0,6.28,8.86A19,19,0,0,0,349,91.94,20.93,20.93,0,0,0,349.43,102.79Z" style="fill:#455a64"></path><path d="M350.85,127a16.36,16.36,0,0,0,7.36,4.24A14.87,14.87,0,0,0,347,119.38,16.35,16.35,0,0,0,350.85,127Z" style="fill:#37474f"></path><path d="M363.8,116a16.4,16.4,0,0,0,1.29-8.4,14.9,14.9,0,0,0-7,14.72A16.41,16.41,0,0,0,363.8,116Z" style="fill:#455a64"></path><path d="M355.29,335l-1-.1c0-.3,3-29.93-4.37-49.59l.94-.35C358.31,304.85,355.32,334.71,355.29,335Z" style="fill:#263238"></path><path d="M346.34,284.31a20.89,20.89,0,0,0,6.27,8.86,19,19,0,0,0-6.67-19.71A20.93,20.93,0,0,0,346.34,284.31Z" style="fill:#263238"></path><path d="M347.76,308.48a16.33,16.33,0,0,0,7.36,4.25,14.87,14.87,0,0,0-11.19-11.83A16.29,16.29,0,0,0,347.76,308.48Z" style="fill:#263238"></path><path d="M360.7,297.51a16.34,16.34,0,0,0,1.3-8.4,14.85,14.85,0,0,0-7,14.72A16.34,16.34,0,0,0,360.7,297.51Z" style="fill:#263238"></path><path d="M364.72,188.53c-4.58-47.81-23.34-89.68-23.34-89.68l-11.51.72c0,1.29,17,28,23.69,88.11,8.08,72.28,5.89,147.12,5.89,147.12a2.88,2.88,0,0,0,1.69,2.35,9,9,0,0,0,8.13,0A2.86,2.86,0,0,0,371,334.8h0S369.3,236.34,364.72,188.53Z" style="fill:#455a64"></path><path d="M339.69,101.6a9,9,0,0,1-8.13,0c-2.25-1.3-2.25-3.4,0-4.7a9,9,0,0,1,8.13,0C341.94,98.2,341.94,100.3,339.69,101.6Z" style="fill:#263238"></path><g style="clip-path:url(#freepik--clip-path--inject-137)"><path d="M346.27,130.63a9.11,9.11,0,0,1-4.46-1.06,3.74,3.74,0,0,1-1.94-2.34l1-.2a2.77,2.77,0,0,0,1.46,1.67,8.75,8.75,0,0,0,7.91,0c1.2-.69,1.71-1.59,1.41-2.49l.95-.32c.46,1.37-.23,2.74-1.86,3.68A9.07,9.07,0,0,1,346.27,130.63Z" style="fill:#263238"></path><path d="M353.59,157.88a9.61,9.61,0,0,1-4.68-1.12,3.84,3.84,0,0,1-2.07-2.63l1-.14a2.86,2.86,0,0,0,1.58,1.9,9.26,9.26,0,0,0,8.36,0,2.65,2.65,0,0,0,1.59-2.12h1a3.58,3.58,0,0,1-2.09,3A9.64,9.64,0,0,1,353.59,157.88Z" style="fill:#263238"></path><path d="M359,190.61a9.62,9.62,0,0,1-4.71-1.12,3.6,3.6,0,0,1-2.09-3h1a2.65,2.65,0,0,0,1.59,2.14,9.3,9.3,0,0,0,8.41,0,2.66,2.66,0,0,0,1.6-2.14h1a3.61,3.61,0,0,1-2.1,3A9.61,9.61,0,0,1,359,190.61Z" style="fill:#263238"></path><path d="M361.78,223a8.8,8.8,0,0,1-4.32-1,3.31,3.31,0,0,1-1.93-2.78h1A2.41,2.41,0,0,0,358,221a8.49,8.49,0,0,0,7.64,0,2.41,2.41,0,0,0,1.43-1.92h1a3.33,3.33,0,0,1-1.93,2.78A8.8,8.8,0,0,1,361.78,223Z" style="fill:#263238"></path><path d="M363.85,262.93a8.83,8.83,0,0,1-4.32-1.05,3.34,3.34,0,0,1-1.93-2.78h1A2.39,2.39,0,0,0,360,261a8.43,8.43,0,0,0,7.64,0,2.39,2.39,0,0,0,1.43-1.91h1a3.32,3.32,0,0,1-1.93,2.78A8.77,8.77,0,0,1,363.85,262.93Z" style="fill:#263238"></path><path d="M364.77,294.49a8.8,8.8,0,0,1-4.32-1.05,3.34,3.34,0,0,1-1.93-2.78h1a2.41,2.41,0,0,0,1.43,1.92,8.49,8.49,0,0,0,7.64,0,2.59,2.59,0,0,0,1.42-1.73l1,.12a3.5,3.5,0,0,1-1.91,2.47A8.8,8.8,0,0,1,364.77,294.49Z" style="fill:#263238"></path></g><path d="M381,238.08c4.58-47.82,23.35-89.69,23.35-89.69l11.5.73c0,1.29-17,28-23.69,88.11-8.08,72.28-5.89,101.24-5.89,101.24a2.86,2.86,0,0,1-1.69,2.35,9,9,0,0,1-8.13,0,2.86,2.86,0,0,1-1.69-2.35h0S376.37,285.89,381,238.08Z" style="fill:#455a64"></path><ellipse cx="410.05" cy="148.8" rx="5.75" ry="3.32" style="fill:#263238"></ellipse><g style="clip-path:url(#freepik--clip-path-2--inject-137)"><path d="M399.4,180.18a9.09,9.09,0,0,1-4.45-1.06c-1.62-.94-2.32-2.31-1.86-3.68l1,.32c-.3.89.21,1.8,1.41,2.49a8.75,8.75,0,0,0,7.91,0,2.78,2.78,0,0,0,1.46-1.68l1,.21a3.68,3.68,0,0,1-1.94,2.34A9.11,9.11,0,0,1,399.4,180.18Z" style="fill:#263238"></path><path d="M392.08,207.42a9.63,9.63,0,0,1-4.68-1.11,3.61,3.61,0,0,1-2.09-3h1a2.67,2.67,0,0,0,1.59,2.13,9.28,9.28,0,0,0,8.37,0,2.87,2.87,0,0,0,1.57-1.9l1,.14a3.85,3.85,0,0,1-2.06,2.63A9.65,9.65,0,0,1,392.08,207.42Z" style="fill:#263238"></path><path d="M386.7,240.16A9.62,9.62,0,0,1,382,239a3.61,3.61,0,0,1-2.1-3h1a2.66,2.66,0,0,0,1.6,2.14,9.3,9.3,0,0,0,8.41,0,2.66,2.66,0,0,0,1.6-2.14h1a3.61,3.61,0,0,1-2.1,3A9.61,9.61,0,0,1,386.7,240.16Z" style="fill:#263238"></path><path d="M383.89,272.5a8.83,8.83,0,0,1-4.32-1.05,3.34,3.34,0,0,1-1.93-2.78h1a2.41,2.41,0,0,0,1.43,1.92,8.49,8.49,0,0,0,7.64,0,2.41,2.41,0,0,0,1.43-1.92h1a3.32,3.32,0,0,1-1.93,2.78A8.77,8.77,0,0,1,383.89,272.5Z" style="fill:#263238"></path><path d="M381.82,312.47a8.8,8.8,0,0,1-4.32-1.05,3.31,3.31,0,0,1-1.93-2.78h1a2.41,2.41,0,0,0,1.43,1.92,8.49,8.49,0,0,0,7.64,0,2.41,2.41,0,0,0,1.43-1.92h1a3.33,3.33,0,0,1-1.93,2.78A8.8,8.8,0,0,1,381.82,312.47Z" style="fill:#263238"></path><path d="M380.9,344a8.8,8.8,0,0,1-4.32-1.05,3.5,3.5,0,0,1-1.91-2.47l1-.13a2.55,2.55,0,0,0,1.42,1.73,8.43,8.43,0,0,0,7.64,0,2.39,2.39,0,0,0,1.43-1.91h1a3.32,3.32,0,0,1-1.93,2.78A8.77,8.77,0,0,1,380.9,344Z" style="fill:#263238"></path></g><path d="M386,346.7c0-.3-3-30.16,4.43-50l.93.35C384,316.67,387,346.3,387,346.6Z" style="fill:#263238"></path><path d="M395,296a20.86,20.86,0,0,1-6.28,8.86,19,19,0,0,1,6.67-19.71A20.86,20.86,0,0,1,395,296Z" style="fill:#263238"></path><path d="M393.54,320.17a16.33,16.33,0,0,1-7.36,4.25,14.84,14.84,0,0,1,11.19-11.83A16.34,16.34,0,0,1,393.54,320.17Z" style="fill:#263238"></path><path d="M380.6,309.2a16.28,16.28,0,0,1-1.29-8.4,14.87,14.87,0,0,1,7,14.71A16.33,16.33,0,0,1,380.6,309.2Z" style="fill:#263238"></path><path d="M363.5,341.27c0-.22-2.27-22.56,3.31-37.43l.7.26c-5.51,14.7-3.29,36.87-3.27,37.09Z" style="fill:#263238"></path><path d="M370.19,303.35A15.6,15.6,0,0,1,365.5,310a14.18,14.18,0,0,1,5-14.74A15.62,15.62,0,0,1,370.19,303.35Z" style="fill:#263238"></path><path d="M369.13,321.43a12.34,12.34,0,0,1-5.51,3.18,11.14,11.14,0,0,1,8.37-8.86A12.23,12.23,0,0,1,369.13,321.43Z" style="fill:#263238"></path><path d="M359.45,313.22a12.15,12.15,0,0,1-1-6.29,11.14,11.14,0,0,1,5.22,11A12.17,12.17,0,0,1,359.45,313.22Z" style="fill:#263238"></path></g><g id="freepik--torii-gate--inject-137"><polygon points="273.6 119.28 273.6 125.72 243.23 143.26 243.23 136.81 273.6 119.28" style="fill:#BA68C8"></polygon><polygon points="273.6 119.28 273.6 125.72 243.23 143.26 243.23 136.81 273.6 119.28" style="fill:#fff;opacity:0.5"></polygon><polygon points="273.6 119.28 243.23 136.81 243.23 130.37 268.02 116.06 273.6 119.28" style="fill:#BA68C8"></polygon><polygon points="251.18 125.86 237.51 117.97 237.51 325.92 251.18 333.81 251.18 125.86" style="fill:#BA68C8"></polygon><polygon points="251.18 125.86 237.51 117.97 237.51 325.92 251.18 333.81 251.18 125.86" style="fill:#fff;opacity:0.2"></polygon><polygon points="254.79 119.08 241.12 111.18 237.51 117.97 251.18 125.86 254.79 119.08" style="fill:#BA68C8"></polygon><polygon points="254.79 119.08 241.12 111.18 241.12 94.56 254.79 102.45 254.79 119.08" style="fill:#BA68C8"></polygon><polygon points="254.79 119.08 241.12 111.18 241.12 94.56 254.79 102.45 254.79 119.08" style="fill:#fff;opacity:0.2"></polygon><polygon points="260.78 115.61 260.78 99.07 254.79 102.45 254.79 119.08 251.18 125.86 251.18 333.81 264.84 325.92 264.84 117.97 260.78 115.61" style="fill:#BA68C8"></polygon><polygon points="260.78 115.61 260.78 99.07 254.79 102.45 254.79 119.08 251.18 125.86 251.18 333.81 264.84 325.92 264.84 117.97 260.78 115.61" style="fill:#fff;opacity:0.5"></polygon><polygon points="237.51 325.92 251.18 333.81 251.18 303.78 237.51 295.89 237.51 325.92" style="fill:#263238"></polygon><polygon points="251.18 333.81 264.84 325.92 264.84 295.89 251.18 303.78 251.18 333.81" style="fill:#455a64"></polygon><polygon points="246.54 134.86 123.9 205.71 123.9 212.16 246.54 141.3 246.54 134.86" style="fill:#BA68C8"></polygon><polygon points="246.54 134.86 123.9 205.71 123.9 212.16 246.54 141.3 246.54 134.86" style="fill:#fff;opacity:0.5"></polygon><polygon points="240.96 131.63 118.32 202.49 118.32 208.94 246.54 134.86 240.96 131.63" style="fill:#BA68C8"></polygon><polygon points="118.32 202.49 123.9 205.71 123.9 212.16 118.32 208.94 118.32 202.49" style="fill:#BA68C8"></polygon><polygon points="118.32 202.49 123.9 205.71 123.9 212.16 118.32 208.94 118.32 202.49" style="fill:#fff;opacity:0.2"></polygon><polygon points="118.32 197.49 123.9 200.71 123.9 207.16 118.32 203.94 118.32 197.49" style="fill:#fff;opacity:0.2"></polygon><polygon points="127.94 196.58 114.28 188.68 114.28 396.64 127.94 404.53 127.94 196.58" style="fill:#BA68C8"></polygon><polygon points="127.94 196.58 114.28 188.68 114.28 396.64 127.94 404.53 127.94 196.58" style="fill:#fff;opacity:0.2"></polygon><polygon points="131.56 189.79 117.89 181.9 114.28 188.68 127.94 196.58 131.56 189.79" style="fill:#BA68C8"></polygon><polygon points="131.56 189.79 117.89 181.9 117.89 165.28 131.56 173.17 131.56 189.79" style="fill:#BA68C8"></polygon><polygon points="131.56 189.79 117.89 181.9 117.89 165.28 131.56 173.17 131.56 189.79" style="fill:#fff;opacity:0.2"></polygon><polygon points="137.55 186.33 137.55 169.79 131.56 173.17 131.56 189.79 127.94 196.58 127.94 404.53 141.61 396.64 141.61 188.69 137.55 186.33" style="fill:#BA68C8"></polygon><polygon points="137.55 186.33 137.55 169.79 131.56 173.17 131.56 189.79 127.94 196.58 127.94 404.53 141.61 396.64 141.61 188.69 137.55 186.33" style="fill:#fff;opacity:0.5"></polygon><polygon points="114.28 396.64 127.94 404.53 127.94 374.5 114.28 366.61 114.28 396.64" style="fill:#263238"></polygon><polygon points="127.94 404.53 141.61 396.64 141.61 366.61 127.94 374.5 127.94 404.53" style="fill:#455a64"></polygon><polygon points="100.98 185.1 100.98 200.49 273.6 99.58 273.6 84.94 100.98 185.1" style="fill:#BA68C8"></polygon><polygon points="100.98 185.1 100.98 200.49 273.6 99.58 273.6 84.94 100.98 185.1" style="fill:#fff;opacity:0.5"></polygon><polygon points="95.4 181.88 100.98 185.1 100.98 200.49 95.4 197.27 95.4 181.88" style="fill:#BA68C8"></polygon><polygon points="95.4 181.88 100.98 185.1 100.98 200.49 95.4 197.27 95.4 181.88" style="fill:#fff;opacity:0.2"></polygon><path d="M65.57,180.22s15.22,10,35.33-1.31,141.76-81,148.17-85.3,25.76-17.39,38.82-41.75c0,0-3.26,34.32-37.75,54.31S105.43,189.59,101,192.1,75.29,199.05,65.57,180.22Z" style="fill:#455a64"></path><path d="M65.57,180.22l-11-6.05-.05,0-1.67-.92h0A25.6,25.6,0,0,0,62.85,184l.22.12,12.76,7A25.46,25.46,0,0,1,65.57,180.22Z" style="fill:#263238"></path><path d="M75.94,191.18l.35.19,0,0Z" style="fill:#263238"></path><path d="M275.11,44.87c-13.06,24.35-32.41,37.41-38.82,41.74s-128.06,74-148.17,85.3C72,181,59.06,176.37,54.53,174.17l11,6.05h0s15.22,10,35.33-1.31,141.76-81,148.17-85.3,25.76-17.39,38.82-41.75Z" style="fill:#37474f"></path><polygon points="123.9 205.71 100.36 219.31 100.36 225.75 123.9 212.16 123.9 205.71" style="fill:#BA68C8"></polygon><polygon points="123.9 205.71 100.36 219.31 100.36 225.75 123.9 212.16 123.9 205.71" style="fill:#fff;opacity:0.5"></polygon><polygon points="118.32 202.49 94.78 216.08 94.78 222.53 123.9 205.71 118.32 202.49" style="fill:#BA68C8"></polygon><polygon points="94.78 216.08 100.36 219.31 100.36 225.75 94.78 222.53 94.78 216.08" style="fill:#BA68C8"></polygon><polygon points="94.78 216.08 100.36 219.31 100.36 225.75 94.78 222.53 94.78 216.08" style="fill:#fff;opacity:0.2"></polygon></g><g id="freepik--Character--inject-137"><path d="M218.85,212.36S280.91,226.47,325,186C325,186,262.6,165.78,218.85,212.36Z" style="fill:#455a64"></path><path d="M328.56,428.41l1.12.79a1.82,1.82,0,0,1,.78,1.5v1.05a2,2,0,0,1-1.11,1.82l-1,.51a15.22,15.22,0,0,1-17.85-2.64c-.19-.2-.37-.39-.54-.59a21.94,21.94,0,0,0-5.51-4.74,2,2,0,0,1-1-1.69V422.9a1.57,1.57,0,0,1,.91-1.43l1.13-.54Z" style="fill:#263238"></path><path d="M312.27,403.36s0,9.2,1.07,10.71a29.63,29.63,0,0,0,9.87,8.74c6.1,3.48,7.05,4.73,5.9,6.8s-7.75,4.54-13.7,1.59-5-5.78-7.87-7.47-4.42-2.05-4-5.09a27.91,27.91,0,0,0-.28-10.09Z" style="fill:#ffa8a7"></path><path d="M325.67,424.27a2.23,2.23,0,0,0-2.46-1.46c-2,.2.31,4.19.31,4.19s-8-5-11,2.41l.93,1.79,1.47-.25s2.14-6.18,8.1-3.19,2.65,4.1,2.65,4.1V433l2.28-1.17v-1.11a4.37,4.37,0,0,1-2.56-3.63C325.09,424.32,325.67,424.27,325.67,424.27Z" style="fill:#263238"></path><path d="M267.65,413.44l.66,1.27a1.89,1.89,0,0,1,0,1.76l-.5,1a2.14,2.14,0,0,1-1.9,1.15h-1.16a15.83,15.83,0,0,1-15.21-11c-.08-.27-.16-.53-.22-.8a22.65,22.65,0,0,0-2.82-7,2,2,0,0,1-.08-2l.73-1.4a1.66,1.66,0,0,1,1.53-.9l1.3,0Z" style="fill:#263238"></path><path d="M268.84,385.75s-8,6.8-7.65,8.73.23,5.1,4.2,11.23,4.25,7.74,2.19,9.1-9.32.48-13.4-5.08-1.82-7.71-3.7-10.66-3.1-4-1.29-6.64,7.75-8.25,8.46-11.55Z" style="fill:#ffa8a7"></path><path d="M267,408.24a2.33,2.33,0,0,0-1.58-2.53c-1.91-.76-1.71,4-1.71,4s-5-8.45-11.31-3v2.1l1.47.47s4.94-4.68,9,.93.49,5.05.49,5.05l-.55,1.06h2.67l.52-1a4.58,4.58,0,0,1-.62-4.58C266.41,408,267,408.24,267,408.24Z" style="fill:#263238"></path><path d="M330.25,293.87l1.64,2.2a12.54,12.54,0,0,1,3.92,1.39,31.27,31.27,0,0,0,4.76,2.56c1,.35.83,1.32-.06,1.75s-3.5.23-5.47-.71a9.16,9.16,0,0,0,3,3.59c2.45,2,5.79,4.6,5.51,5.9s-3.35,2.63-5.35,3.09-4.34,1-9.63-4.93-6.64-9.31-6.64-9.31Z" style="fill:#ffa8a7"></path><path d="M302.27,235.52s10.4-.13,12.9,6.06,9.9,30.73,9.9,30.73l8.29,21.51s-8.45,7-14.65,9.3l-11.27-28.51Z" style="fill:#BA68C8"></path><path d="M302.27,235.52s10.4-.13,12.9,6.06,9.9,30.73,9.9,30.73l8.29,21.51s-8.45,7-14.65,9.3l-11.27-28.51Z" style="opacity:0.2"></path><g style="clip-path:url(#freepik--clip-path-3--inject-137)"><path d="M328.05,288.25c.88-1.53-2.53-1.53-1.64,0-.89-1.53-2.59,1.42-.82,1.42-1.77,0-.07,2.95.82,1.42-.89,1.53,2.52,1.53,1.64,0,.88,1.53,2.58-1.42.82-1.42C330.63,289.67,328.93,286.72,328.05,288.25Z" style="fill:#e0e0e0"></path><path d="M328.19,289.67a1,1,0,1,1-1-1A1,1,0,0,1,328.19,289.67Z" style="fill:#BA68C8"></path><path d="M319.36,290a4.56,4.56,0,0,1,.57,2.75,4.57,4.57,0,0,1-2.24-1.69,4.65,4.65,0,0,1-.57-2.75A4.6,4.6,0,0,1,319.36,290Z" style="fill:#e0e0e0"></path><path d="M322.56,297.39a4.56,4.56,0,0,1-2.79-.27,4,4,0,0,1,5.07-1.38A4.54,4.54,0,0,1,322.56,297.39Z" style="fill:#e0e0e0"></path><path d="M318.09,293.88a3.48,3.48,0,0,1-2.12-.37,3.06,3.06,0,0,1,4-.75A3.5,3.5,0,0,1,318.09,293.88Z" style="fill:#e0e0e0"></path><path d="M327.56,295.49a3.52,3.52,0,0,1-1.38,1.66,3.56,3.56,0,0,1-.06-2.16,3.52,3.52,0,0,1,1.39-1.65A3.49,3.49,0,0,1,327.56,295.49Z" style="fill:#e0e0e0"></path><path d="M333.66,302a9,9,0,0,1-4.77-1.41,14.59,14.59,0,0,1-2.77-3.05,13.52,13.52,0,0,0-2.9-3.13,14.12,14.12,0,0,0-3.44-1.52l.13-.48a13.69,13.69,0,0,1,3.58,1.58,13.89,13.89,0,0,1,3,3.24,14.26,14.26,0,0,0,2.66,3,8.7,8.7,0,0,0,4.49,1.31h0v.5Z" style="fill:#e0e0e0"></path></g><circle cx="313.06" cy="222.41" r="8.13" style="fill:#263238"></circle><path d="M316.8,405.11c-24.57,13.12-33.11-.08-37.57-5.61s-7.48-5.45-15.61-7.72-10.45-11.18-10.45-11.18,21.1-32.79,25.3-39.49-1.3-15.43-4.47-35.32a36.13,36.13,0,0,1,9.73-31.49l-1.5-4.23-.24-.65-3-8.35,1.17-23.49,3.9-.87.91-.2,3.89-.87,13.38-.12a13.58,13.58,0,0,1,2.7,2.1l.48.45c3.65,3.56,8.73,10.05,8.73,15.43a22.79,22.79,0,0,1-3.92,12.63l1,14.48a110.07,110.07,0,0,1,3.5,35.53,83.23,83.23,0,0,1-4.46,21.71,54.17,54.17,0,0,1-4.24,9.51Z" style="fill:#BA68C8"></path><path d="M310.27,337.85a54.17,54.17,0,0,1-4.24,9.51l-5-38.52Z" style="opacity:0.2"></path><g style="clip-path:url(#freepik--clip-path-4--inject-137)"><path d="M287.93,376.47c1.32-2.29-3.77-2.29-2.45,0-1.32-2.29-3.86,2.12-1.22,2.12-2.64,0-.1,4.4,1.22,2.12-1.32,2.28,3.77,2.28,2.45,0,1.32,2.28,3.86-2.12,1.22-2.12C291.79,378.59,289.25,374.18,287.93,376.47Z" style="fill:#e0e0e0"></path><path d="M288.14,378.59a1.44,1.44,0,1,1-1.43-1.44A1.43,1.43,0,0,1,288.14,378.59Z" style="fill:#BA68C8"></path><path d="M310.61,363.65c1.32-2.28-3.77-2.28-2.45,0-1.32-2.28-3.86,2.12-1.22,2.12-2.64,0-.1,4.41,1.22,2.12-1.32,2.29,3.77,2.29,2.45,0,1.32,2.29,3.86-2.12,1.22-2.12C314.47,365.77,311.93,361.37,310.61,363.65Z" style="fill:#e0e0e0"></path><path d="M310.82,365.77a1.44,1.44,0,1,1-1.44-1.43A1.43,1.43,0,0,1,310.82,365.77Z" style="fill:#BA68C8"></path><path d="M308.24,377.33c1.32-2.28-3.77-2.28-2.45,0-1.32-2.28-3.86,2.12-1.22,2.12-2.64,0-.1,4.41,1.22,2.12-1.32,2.29,3.77,2.29,2.45,0,1.32,2.29,3.86-2.12,1.22-2.12C312.1,379.45,309.56,375.05,308.24,377.33Z" style="fill:#e0e0e0"></path><path d="M308.45,379.45A1.44,1.44,0,1,1,307,378,1.43,1.43,0,0,1,308.45,379.45Z" style="fill:#BA68C8"></path><path d="M307,397.38c1.32-2.28-3.77-2.28-2.45,0-1.32-2.28-3.86,2.12-1.22,2.12-2.64,0-.1,4.41,1.22,2.12-1.32,2.29,3.77,2.29,2.45,0,1.32,2.29,3.86-2.12,1.22-2.12C310.87,399.5,308.33,395.1,307,397.38Z" style="fill:#e0e0e0"></path><path d="M307.22,399.5a1.44,1.44,0,1,1-1.43-1.43A1.43,1.43,0,0,1,307.22,399.5Z" style="fill:#BA68C8"></path><path d="M304.71,385.33c.88-1.53-2.52-1.53-1.64,0-.88-1.53-2.59,1.42-.82,1.42-1.77,0-.06,2.95.82,1.42-.88,1.53,2.52,1.53,1.64,0,.88,1.53,2.59-1.42.82-1.42C307.3,386.75,305.59,383.8,304.71,385.33Z" style="fill:#e0e0e0"></path><circle cx="303.89" cy="386.75" r="0.96" style="fill:#BA68C8"></circle><path d="M295,394.25c.88-1.53-2.53-1.53-1.64,0-.89-1.53-2.59,1.42-.82,1.42-1.77,0-.07,2.95.82,1.42-.89,1.53,2.52,1.53,1.64,0,.88,1.53,2.58-1.42.82-1.42C297.56,395.67,295.86,392.72,295,394.25Z" style="fill:#e0e0e0"></path><path d="M295.12,395.67a1,1,0,1,1-1-1A1,1,0,0,1,295.12,395.67Z" style="fill:#BA68C8"></path><path d="M302.23,404c.88-1.53-2.53-1.53-1.64,0-.89-1.53-2.59,1.42-.82,1.42-1.77,0-.07,2.95.82,1.42-.89,1.53,2.52,1.53,1.64,0,.88,1.53,2.58-1.42.82-1.42C304.81,405.42,303.11,402.47,302.23,404Z" style="fill:#e0e0e0"></path><path d="M302.37,405.42a1,1,0,1,1-1-1A1,1,0,0,1,302.37,405.42Z" style="fill:#BA68C8"></path><path d="M298.37,375.73c.89-1.53-2.52-1.53-1.64,0-.88-1.53-2.58,1.42-.82,1.42-1.76,0-.06,3,.82,1.42-.88,1.53,2.53,1.53,1.64,0,.89,1.53,2.59-1.42.82-1.42C301,377.15,299.26,374.2,298.37,375.73Z" style="fill:#e0e0e0"></path><circle cx="297.55" cy="377.15" r="0.96" style="fill:#BA68C8"></circle><path d="M282.61,389.61c.89-1.53-2.52-1.53-1.64,0-.88-1.53-2.58,1.42-.82,1.42-1.76,0-.06,3,.82,1.42-.88,1.53,2.53,1.53,1.64,0,.89,1.53,2.59-1.42.82-1.42C285.2,391,283.5,388.08,282.61,389.61Z" style="fill:#e0e0e0"></path><path d="M282.76,391a1,1,0,1,1-1-1A1,1,0,0,1,282.76,391Z" style="fill:#BA68C8"></path><path d="M314.68,406.15a39.31,39.31,0,0,0-5-9.85c-2.92-4.33-6.57-5.26-10.8-6.34-1.27-.33-2.58-.66-3.93-1.1-5.91-1.94-7.25-8-7.27-8.1l.49-.1c0,.06,1.3,5.88,6.94,7.72,1.33.44,2.63.77,3.89,1.09,4.33,1.11,8.07,2.06,11.09,6.55a39.34,39.34,0,0,1,5.07,10Z" style="fill:#e0e0e0"></path><path d="M309.67,396.3c-1.31-2.05-1.17-3.57-.75-8.08v-.12c.41-4.4-.89-6.37-.9-6.39l.41-.28c.06.08,1.41,2.11,1,6.72v.12c-.42,4.5-.54,5.85.67,7.76Z" style="fill:#e0e0e0"></path><path d="M294.35,385a4.58,4.58,0,0,1-1,2.62,4.55,4.55,0,0,1-1-2.62,4.6,4.6,0,0,1,1-2.63A4.63,4.63,0,0,1,294.35,385Z" style="fill:#e0e0e0"></path><path d="M290.71,393.9a4.55,4.55,0,0,1-.83,2.68,4,4,0,0,1-.31-5.25A4.65,4.65,0,0,1,290.71,393.9Z" style="fill:#e0e0e0"></path><path d="M290,401.9a4.57,4.57,0,0,1-2.32-1.58,4.63,4.63,0,0,1,2.79-.34,4.57,4.57,0,0,1,2.32,1.58A4.63,4.63,0,0,1,290,401.9Z" style="fill:#e0e0e0"></path><path d="M295.18,391.48a4.53,4.53,0,0,1-2.79.32,4,4,0,0,1,4.68-2.39A4.6,4.6,0,0,1,295.18,391.48Z" style="fill:#e0e0e0"></path><path d="M302.84,394a4.57,4.57,0,0,1-2.76.47,4,4,0,0,1,4.53-2.65A4.57,4.57,0,0,1,302.84,394Z" style="fill:#e0e0e0"></path><path d="M300.5,387.08a4.59,4.59,0,0,1,.08,2.81,4,4,0,0,1-2-4.86A4.57,4.57,0,0,1,300.5,387.08Z" style="fill:#e0e0e0"></path><path d="M311.4,387.92a3.52,3.52,0,0,1-2,.75,3,3,0,0,1,3-2.65A3.54,3.54,0,0,1,311.4,387.92Z" style="fill:#e0e0e0"></path><path d="M306.8,390.82a3.5,3.5,0,0,1-.91-2,3.55,3.55,0,0,1,2,.88,3.5,3.5,0,0,1,.91,2A3.55,3.55,0,0,1,306.8,390.82Z" style="fill:#e0e0e0"></path><path d="M287.73,396.67a3.53,3.53,0,0,1-1.68-1.35,3.06,3.06,0,0,1,3.83,1.26A3.51,3.51,0,0,1,287.73,396.67Z" style="fill:#e0e0e0"></path><path d="M295.24,402.66a3.55,3.55,0,0,1-2,.78,3,3,0,0,1,3-2.7A3.52,3.52,0,0,1,295.24,402.66Z" style="fill:#e0e0e0"></path><path d="M297.43,411.32a9.14,9.14,0,0,1-3.5-3.55,14.72,14.72,0,0,1-.95-4,13.24,13.24,0,0,0-1-4.14,13.42,13.42,0,0,0-2.27-3l.35-.36a14.17,14.17,0,0,1,2.37,3.12,13.93,13.93,0,0,1,1.08,4.29,14.53,14.53,0,0,0,.9,3.88,8.79,8.79,0,0,0,3.29,3.32Z" style="fill:#e0e0e0"></path><path d="M295,250.05c1.32-2.29-3.77-2.29-2.45,0-1.32-2.29-3.86,2.12-1.22,2.12-2.64,0-.1,4.4,1.22,2.12-1.32,2.28,3.77,2.28,2.45,0,1.32,2.28,3.86-2.12,1.22-2.12C298.85,252.17,296.31,247.76,295,250.05Z" style="fill:#e0e0e0"></path><path d="M295.2,252.17a1.44,1.44,0,1,1-1.43-1.44A1.43,1.43,0,0,1,295.2,252.17Z" style="fill:#BA68C8"></path><path d="M315.3,250.91c1.32-2.28-3.77-2.28-2.45,0-1.32-2.28-3.86,2.12-1.22,2.12-2.64,0-.1,4.4,1.22,2.12-1.32,2.28,3.77,2.28,2.45,0,1.32,2.28,3.86-2.12,1.22-2.12C319.16,253,316.62,248.63,315.3,250.91Z" style="fill:#e0e0e0"></path><path d="M315.51,253a1.44,1.44,0,1,1-1.44-1.43A1.44,1.44,0,0,1,315.51,253Z" style="fill:#BA68C8"></path><path d="M311.77,258.91c.88-1.53-2.52-1.53-1.64,0-.88-1.53-2.59,1.42-.82,1.42-1.77,0-.06,2.95.82,1.42-.88,1.53,2.52,1.53,1.64,0,.88,1.53,2.59-1.42.82-1.42C314.36,260.33,312.65,257.38,311.77,258.91Z" style="fill:#e0e0e0"></path><path d="M311.91,260.33a1,1,0,1,1-1-1A1,1,0,0,1,311.91,260.33Z" style="fill:#BA68C8"></path><path d="M302,267.83c.88-1.53-2.53-1.53-1.64,0-.89-1.53-2.59,1.42-.82,1.42-1.77,0-.07,2.95.82,1.42-.89,1.53,2.52,1.53,1.64,0,.88,1.53,2.58-1.42.82-1.42C304.62,269.25,302.92,266.3,302,267.83Z" style="fill:#e0e0e0"></path><path d="M302.18,269.25a1,1,0,1,1-1-1A1,1,0,0,1,302.18,269.25Z" style="fill:#BA68C8"></path><path d="M305.43,249.31c.89-1.53-2.52-1.53-1.64,0-.88-1.53-2.58,1.42-.82,1.42-1.76,0-.06,3,.82,1.42-.88,1.53,2.53,1.53,1.64,0,.89,1.53,2.59-1.42.82-1.42C308,250.73,306.32,247.78,305.43,249.31Z" style="fill:#e0e0e0"></path><path d="M305.58,250.73a1,1,0,1,1-1-1A1,1,0,0,1,305.58,250.73Z" style="fill:#BA68C8"></path><path d="M289.67,263.19c.89-1.53-2.52-1.53-1.64,0-.88-1.53-2.58,1.42-.82,1.42-1.76,0-.06,2.95.82,1.42-.88,1.53,2.53,1.53,1.64,0,.89,1.53,2.59-1.42.82-1.42C292.26,264.61,290.56,261.66,289.67,263.19Z" style="fill:#e0e0e0"></path><path d="M289.82,264.61a1,1,0,1,1-1.93,0,1,1,0,0,1,1.93,0Z" style="fill:#BA68C8"></path><path d="M311.8,265.48a28.89,28.89,0,0,0-5.87-2c-1.26-.32-2.57-.65-3.92-1.09-5.91-1.94-7.25-8-7.27-8.1l.49-.1s1.3,5.88,6.94,7.72c1.33.44,2.63.77,3.89,1.09a29.46,29.46,0,0,1,6,2Z" style="fill:#e0e0e0"></path><path d="M301.41,258.61a4.58,4.58,0,0,1-1,2.62,4,4,0,0,1,0-5.25A4.59,4.59,0,0,1,301.41,258.61Z" style="fill:#e0e0e0"></path><path d="M297.77,267.48a4.58,4.58,0,0,1-.83,2.68,4,4,0,0,1-.31-5.25A4.65,4.65,0,0,1,297.77,267.48Z" style="fill:#e0e0e0"></path><path d="M297,275.48a4.57,4.57,0,0,1-2.32-1.58,4,4,0,0,1,5.11,1.24A4.63,4.63,0,0,1,297,275.48Z" style="fill:#e0e0e0"></path><path d="M302.24,265.06a4.53,4.53,0,0,1-2.79.32,4,4,0,0,1,4.68-2.39A4.6,4.6,0,0,1,302.24,265.06Z" style="fill:#e0e0e0"></path><path d="M307.56,260.66a4.59,4.59,0,0,1,.08,2.81,4,4,0,0,1-2-4.86A4.57,4.57,0,0,1,307.56,260.66Z" style="fill:#e0e0e0"></path><path d="M294.79,270.25a3.53,3.53,0,0,1-1.68-1.35,3.06,3.06,0,0,1,3.83,1.26A3.51,3.51,0,0,1,294.79,270.25Z" style="fill:#e0e0e0"></path><path d="M302.3,276.24a3.55,3.55,0,0,1-2,.78,3,3,0,0,1,3-2.7A3.52,3.52,0,0,1,302.3,276.24Z" style="fill:#e0e0e0"></path><path d="M300.21,278.46c-.06-.37-.11-.75-.17-1.13a13.24,13.24,0,0,0-1-4.13,13.42,13.42,0,0,0-2.27-3l.35-.36a10.42,10.42,0,0,1,3.45,7.41c0,.38.11.75.17,1.12Z" style="fill:#e0e0e0"></path></g><path d="M297.39,242.14l-1.51,3.79a37.37,37.37,0,0,1-15.72,18.34h0l-.19-.54s12.83-7.69,16.7-22.14Z" style="opacity:0.2"></path><path d="M305.45,238.07l-.22-.21a.35.35,0,0,0-.12.21c-4.92,23.19-22.49,31.41-23,31.65l.13.35.13.35h0a37.62,37.62,0,0,0,9.83-7.08,48.52,48.52,0,0,0,13.59-24.92Z" style="opacity:0.2"></path><g style="opacity:0.2"><path d="M295.39,245.39c-.1.25-.2.49-.31.73l-11-9.41.91-.2Z"></path></g><path d="M282.2,197.67s-1.2-4.58-2-4.5-.72,4.09-.72,4.09-3.81-.34-3.41.76,4.84,2.21,4.84,2.21Z" style="fill:#263238"></path><path d="M276.26,213.62c1.74,12.95,12.63,13.95,12.63,13.95l22.87-11.06a8.46,8.46,0,0,0,2.25-5,15.26,15.26,0,0,0,0-4.29s0,0,0,0c-.73-5.44-4.8-11.3-13.67-13.09a28.81,28.81,0,0,0-5.9-.57,26.1,26.1,0,0,0-2.85.15c-6.92.67-11.73,3.89-14,8.89a16.39,16.39,0,0,0-1.14,3.53A22.26,22.26,0,0,0,276.26,213.62Z" style="fill:#263238"></path><polygon points="288.9 235.65 297.39 242.14 299.98 235.54 299.98 217.78 288.9 217.78 288.9 235.65" style="fill:#ffa8a7"></polygon><path d="M300,232.39a19.41,19.41,0,0,1-11.08-10.55v-4.06H300Z" style="fill:#f28f8f"></path><path d="M297.59,197.4c4.21,0,13.15,2.35,14.18,13.35s0,19.54-5.65,20.35-18.86-3.29-20.62-17.53S293.49,197.4,297.59,197.4Z" style="fill:#ffa8a7"></path><polygon points="304.21 215.4 304.21 221.89 308.01 220.72 304.21 215.4" style="fill:#f28f8f"></polygon><circle cx="299.98" cy="216.52" r="1.32" style="fill:#263238"></circle><circle cx="308.68" cy="215.6" r="1.32" style="fill:#263238"></circle><path d="M310.29,212.85l-2.59-1.53s1-1,2-.42A1.81,1.81,0,0,1,310.29,212.85Z" style="fill:#263238"></path><path d="M306,224.52a5.66,5.66,0,0,1-3.56-1s-.25,1.87,1.32,2.23A2,2,0,0,0,306,224.52Z" style="fill:#f28f8f"></path><path d="M308.25,201.14s-1.58,15.2-22.23,15.67c0,0-6.25-15.1,6.09-20S308.25,201.14,308.25,201.14Z" style="fill:#263238"></path><path d="M289.25,218s-1.37-4.26-4.41-3.71c-3.34.6-3.12,3.89-2.84,5,.75,3,3.84,5.68,8.37,4.86Z" style="fill:#ffa8a7"></path><path d="M312.3,268.21v10.16a3.27,3.27,0,0,1-1.67,2.85c-4.12,2.33-15.56,7.14-30.8-.14a2,2,0,0,1-1-2.66l.86-1.92.42-.91.09-.21a5.74,5.74,0,0,0,.45-3.24l-.13-.87-.17-1.13-.27-1.85a1.14,1.14,0,0,1,1.35-1.29c4.58.94,18.13,3.16,28.8-.87l.87-1.37A5.66,5.66,0,0,1,312.3,268.21Z" style="fill:#BA68C8"></path><path d="M312.3,268.21v10.16a3.27,3.27,0,0,1-1.67,2.85c-4.12,2.33-15.56,7.14-30.8-.14a2,2,0,0,1-1-2.66l.86-1.92.42-.91.09-.21a5.74,5.74,0,0,0,.45-3.24l-.13-.87-.17-1.13-.27-1.85a1.14,1.14,0,0,1,1.35-1.29c4.58.94,18.13,3.16,28.8-.87l.87-1.37A5.66,5.66,0,0,1,312.3,268.21Z" style="opacity:0.5"></path><path d="M312.3,269.32v1.19c-2,1.13-6.38,3.1-14,3.54-.72,0-1.43.06-2.14.06a47.42,47.42,0,0,1-15.61-2.84l-.17-1.13a45.89,45.89,0,0,0,17.87,2.91C306.43,272.57,310.84,270.25,312.3,269.32Z" style="fill:#BA68C8"></path><path d="M312.3,274.86v1.19c-2,1.12-6.38,3.09-14,3.53-.72.05-1.43.07-2.14.07a47.68,47.68,0,0,1-16.44-3.15l.42-.91a45.57,45.57,0,0,0,18.11,3C306.43,278.11,310.84,275.79,312.3,274.86Z" style="fill:#BA68C8"></path><g style="opacity:0.2"><path d="M312.3,269.32v1.19c-2,1.13-6.38,3.1-14,3.54-.72,0-1.43.06-2.14.06a47.42,47.42,0,0,1-15.61-2.84l-.17-1.13a45.89,45.89,0,0,0,17.87,2.91C306.43,272.57,310.84,270.25,312.3,269.32Z"></path></g><g style="opacity:0.2"><path d="M312.3,274.86v1.19c-2,1.12-6.38,3.09-14,3.53-.72.05-1.43.07-2.14.07a47.68,47.68,0,0,1-16.44-3.15l.42-.91a45.57,45.57,0,0,0,18.11,3C306.43,278.11,310.84,275.79,312.3,274.86Z"></path></g><path d="M300.4,287.8a9.86,9.86,0,0,1-9.53-7.39l-1.29-5.11a2,2,0,1,1,3.87-1l1.29,5.11a5.8,5.8,0,0,0,11.33-2.49l-.67-3.57a2,2,0,0,1,3.93-.74l.67,3.57a9.76,9.76,0,0,1-7.46,11.36A9.18,9.18,0,0,1,300.4,287.8Z" style="fill:#263238"></path><path d="M281.36,275.82a11.81,11.81,0,0,0,3,0c.56-.26,1.64-1.92,3.39-3.22s6.46-3.64,6.9-.29c0,0,1.84-.24,3,5.08s.6,8.1-3.95,8.1a86.72,86.72,0,0,1-12.15-1.43Z" style="fill:#ffa8a7"></path><path d="M281,237.41s7.23,7.83,1.05,18.53a112.74,112.74,0,0,1-11.6,16.84l12.26,2.62s-.12,9.92-1.79,15.64c0,0-18.15-4.24-22.91-5.4s-11.18-5.77-5.15-15.34c4.32-6.87,13.16-20,17.81-26.82a13.48,13.48,0,0,1,8.2-5.59Z" style="fill:#BA68C8"></path><path d="M281,237.41s7.23,7.83,1.05,18.53a112.74,112.74,0,0,1-11.6,16.84l12.26,2.62s-.12,9.92-1.79,15.64c0,0-18.15-4.24-22.91-5.4s-11.18-5.77-5.15-15.34c4.32-6.87,13.16-20,17.81-26.82a13.48,13.48,0,0,1,8.2-5.59Z" style="opacity:0.2"></path><g style="clip-path:url(#freepik--clip-path-5--inject-137)"><path d="M273.28,283.14c.88-1.53-2.52-1.53-1.64,0-.88-1.53-2.59,1.42-.82,1.42-1.77,0-.06,2.95.82,1.42-.88,1.53,2.52,1.53,1.64,0,.88,1.53,2.59-1.42.82-1.42C275.87,284.56,274.16,281.61,273.28,283.14Z" style="fill:#e0e0e0"></path><circle cx="272.46" cy="284.56" r="0.96" style="fill:#BA68C8"></circle><path d="M279.54,277.71a4.65,4.65,0,0,1-.84,2.69,4.65,4.65,0,0,1-1.14-2.57,4.55,4.55,0,0,1,.83-2.68A4.62,4.62,0,0,1,279.54,277.71Z" style="fill:#e0e0e0"></path><path d="M278.77,285.72a4.57,4.57,0,0,1-2.32-1.58,4,4,0,0,1,5.11,1.24A4.63,4.63,0,0,1,278.77,285.72Z" style="fill:#e0e0e0"></path><path d="M276.55,280.49a3.53,3.53,0,0,1-1.68-1.35,3,3,0,0,1,3.83,1.26A3.49,3.49,0,0,1,276.55,280.49Z" style="fill:#e0e0e0"></path><path d="M284.06,286.47a3.52,3.52,0,0,1-2,.79,3.06,3.06,0,0,1,3-2.7A3.53,3.53,0,0,1,284.06,286.47Z" style="fill:#e0e0e0"></path><path d="M286.26,295.13a9.06,9.06,0,0,1-3.51-3.54,15.08,15.08,0,0,1-.94-4,13.53,13.53,0,0,0-1-4.13,13.31,13.31,0,0,0-2.28-3l.35-.36a14,14,0,0,1,2.37,3.11,13.78,13.78,0,0,1,1.08,4.3,14.62,14.62,0,0,0,.91,3.88,8.73,8.73,0,0,0,3.29,3.32Z" style="fill:#e0e0e0"></path></g><path d="M291,274.86a2,2,0,0,1-1.93-1.51l-.58-2.29a2,2,0,1,1,3.88-1l.57,2.29a2,2,0,0,1-1.44,2.43A2.14,2.14,0,0,1,291,274.86Z" style="fill:#263238"></path><path d="M290.06,270.32a1,1,0,0,1-1-.75L258.89,151.43a1,1,0,0,1,.73-1.22,1,1,0,0,1,1.21.73L291,269.08a1,1,0,0,1-.72,1.21A1,1,0,0,1,290.06,270.32Z" style="fill:#37474f"></path><path d="M294.12,208.53c1.23-2.12-3.5-2.12-2.27,0-1.23-2.12-3.59,2-1.14,2-2.45,0-.09,4.1,1.14,2-1.23,2.13,3.5,2.13,2.27,0,1.23,2.13,3.59-2,1.14-2C297.71,210.5,295.35,206.41,294.12,208.53Z" style="fill:#BA68C8"></path><path d="M294.32,210.5a1.34,1.34,0,1,1-1.33-1.33A1.34,1.34,0,0,1,294.32,210.5Z" style="opacity:0.5"></path><path d="M218.85,212.36S259.19,174.77,325,186c0,0-45-25.6-60.42-32.57a6,6,0,0,0-2.81-.37h0a7.23,7.23,0,0,0-5.26,2.74C248.71,165.61,226,201.32,218.85,212.36Z" style="fill:#37474f"></path><g style="clip-path:url(#freepik--clip-path-6--inject-137)"><path d="M251.05,193.88h-.11a.49.49,0,0,1-.37-.6l9-40a.5.5,0,0,1,1,.22l-9,40A.49.49,0,0,1,251.05,193.88Z" style="fill:#263238"></path><path d="M289,184.92a.52.52,0,0,1-.38-.17l-27.24-31.33a.51.51,0,0,1,.05-.71.49.49,0,0,1,.7,0l27.24,31.33a.51.51,0,0,1-.05.71A.49.49,0,0,1,289,184.92Z" style="fill:#263238"></path><path d="M234.86,198.41c1.31-2.28-3.77-2.28-2.45,0-1.32-2.28-3.86,2.12-1.23,2.12-2.63,0-.09,4.4,1.23,2.12-1.32,2.28,3.76,2.28,2.45,0,1.31,2.28,3.86-2.12,1.22-2.12C238.72,200.53,236.17,196.13,234.86,198.41Z" style="fill:#263238"></path><path d="M235.07,200.53a1.44,1.44,0,1,1-1.44-1.44A1.45,1.45,0,0,1,235.07,200.53Z" style="fill:#263238"></path><path d="M278.75,173.17c1.31-2.28-3.77-2.28-2.45,0-1.32-2.28-3.86,2.12-1.23,2.12-2.63,0-.09,4.41,1.23,2.12-1.32,2.29,3.76,2.29,2.45,0,1.31,2.29,3.86-2.12,1.22-2.12C282.61,175.29,280.06,170.89,278.75,173.17Z" style="fill:#263238"></path><path d="M279,175.29a1.44,1.44,0,1,1-1.44-1.43A1.44,1.44,0,0,1,279,175.29Z" style="fill:#263238"></path><path d="M295.45,166.47c1.32-2.28-3.76-2.28-2.44,0-1.32-2.28-3.87,2.12-1.23,2.12-2.64,0-.09,4.4,1.23,2.12-1.32,2.28,3.76,2.28,2.44,0,1.32,2.28,3.86-2.12,1.23-2.12C299.31,168.59,296.77,164.19,295.45,166.47Z" style="fill:#263238"></path><path d="M295.67,168.59a1.44,1.44,0,1,1-1.44-1.44A1.45,1.45,0,0,1,295.67,168.59Z" style="fill:#263238"></path><path d="M313.35,179.14c1.32-2.28-3.77-2.28-2.45,0-1.32-2.28-3.86,2.12-1.22,2.12-2.64,0-.1,4.41,1.22,2.12-1.32,2.29,3.77,2.29,2.45,0,1.32,2.29,3.86-2.12,1.22-2.12C317.21,181.26,314.67,176.86,313.35,179.14Z" style="fill:#263238"></path><path d="M313.56,181.26a1.44,1.44,0,1,1-1.43-1.43A1.43,1.43,0,0,1,313.56,181.26Z" style="fill:#263238"></path><path d="M248.79,180.93c.88-1.53-2.53-1.53-1.65,0-.88-1.53-2.58,1.42-.82,1.42-1.76,0-.06,3,.82,1.42-.88,1.53,2.53,1.53,1.65,0,.88,1.53,2.58-1.42.82-1.42C251.37,182.35,249.67,179.4,248.79,180.93Z" style="fill:#263238"></path><path d="M248.93,182.35a1,1,0,1,1-1-1A1,1,0,0,1,248.93,182.35Z" style="fill:#263238"></path><path d="M237.87,191.56c.89-1.53-2.52-1.53-1.64,0-.88-1.53-2.58,1.43-.82,1.43-1.76,0-.06,2.95.82,1.42-.88,1.53,2.53,1.53,1.64,0,.89,1.53,2.59-1.42.82-1.42C240.46,193,238.76,190,237.87,191.56Z" style="fill:#263238"></path><circle cx="237.05" cy="192.99" r="0.96" style="fill:#263238"></circle><path d="M304.6,179.41c1.72-.4-.61-2.89-1.12-1.2.51-1.69-2.81-.91-1.6.37-1.21-1.28-2.2,2-.48,1.57-1.72.41.61,2.89,1.13,1.2-.52,1.69,2.8.92,1.59-.37C305.33,182.27,306.32,179,304.6,179.41Z" style="fill:#263238"></path><path d="M303.66,180.48a1,1,0,1,1-1.32-1.4,1,1,0,0,1,1.36,0A1,1,0,0,1,303.66,180.48Z" style="fill:#263238"></path><path d="M263.09,183.1c.89-1.53-2.52-1.53-1.64,0-.88-1.53-2.58,1.42-.82,1.42-1.76,0-.06,2.95.82,1.42-.88,1.53,2.53,1.53,1.64,0,.89,1.53,2.59-1.42.83-1.42C265.68,184.52,264,181.57,263.09,183.1Z" style="fill:#263238"></path><circle cx="262.27" cy="184.52" r="0.96" style="fill:#263238"></circle><path d="M289.83,174.25c.89-1.53-2.52-1.53-1.64,0-.88-1.53-2.58,1.42-.82,1.42-1.76,0-.06,3,.82,1.42-.88,1.53,2.53,1.53,1.64,0,.89,1.53,2.59-1.42.82-1.42C292.42,175.67,290.72,172.72,289.83,174.25Z" style="fill:#263238"></path><path d="M290,175.67a1,1,0,1,1-1-1A1,1,0,0,1,290,175.67Z" style="fill:#263238"></path><path d="M264.69,171.74c1.31-2.28-3.77-2.28-2.45,0-1.32-2.28-3.86,2.12-1.23,2.12-2.63,0-.09,4.4,1.23,2.12-1.32,2.28,3.76,2.28,2.45,0,1.31,2.28,3.86-2.12,1.22-2.12C268.55,173.86,266,169.46,264.69,171.74Z" style="fill:#263238"></path><path d="M264.9,173.86a1.44,1.44,0,1,1-1.44-1.44A1.44,1.44,0,0,1,264.9,173.86Z" style="fill:#263238"></path><path d="M281.5,187.17a28.27,28.27,0,0,0-5.87-1.94c-1.26-.33-2.57-.66-3.92-1.1-5.92-1.94-7.26-8-7.27-8.1l.49-.1c0,.06,1.3,5.88,6.93,7.72,1.34.44,2.64.77,3.89,1.09a29.05,29.05,0,0,1,6,2Z" style="fill:#263238"></path><path d="M271.11,180.3a4.6,4.6,0,0,1-1,2.63,4,4,0,0,1,0-5.26A4.6,4.6,0,0,1,271.11,180.3Z" style="fill:#263238"></path><path d="M271.94,186.76a4.57,4.57,0,0,1-2.79.31,4,4,0,0,1,4.68-2.39A4.65,4.65,0,0,1,271.94,186.76Z" style="fill:#263238"></path><path d="M277.25,182.35a4.59,4.59,0,0,1,.08,2.81,4,4,0,0,1-2-4.86A4.57,4.57,0,0,1,277.25,182.35Z" style="fill:#263238"></path><path d="M242.26,177.33c2.08-1.62-2.64-3.53-2.27-.92-.37-2.61-4.37.53-1.93,1.51-2.44-1-1.73,4.05.34,2.43-2.07,1.62,2.64,3.52,2.27.91.37,2.61,4.38-.52,1.93-1.5C245.05,180.74,244.34,175.71,242.26,177.33Z" style="fill:#263238"></path><path d="M241.66,179.38a1.44,1.44,0,1,1-.79-1.87A1.43,1.43,0,0,1,241.66,179.38Z" style="fill:#263238"></path><path d="M252.08,197.93a29,29,0,0,0-4.72-4c-1.05-.77-2.14-1.57-3.22-2.48-4.76-4-3.72-10.17-3.71-10.23l.49.09c0,.06-1,5.94,3.54,9.75,1.07.91,2.15,1.7,3.2,2.47a29.3,29.3,0,0,1,4.79,4.07Z" style="fill:#263238"></path><path d="M245,187.67a4.62,4.62,0,0,1-1.9,2.07,4,4,0,0,1,2-4.87A4.57,4.57,0,0,1,245,187.67Z" style="fill:#263238"></path><path d="M243.37,194a4.59,4.59,0,0,1-2.71-.75,4,4,0,0,1,5.23-.47A4.57,4.57,0,0,1,243.37,194Z" style="fill:#263238"></path><path d="M249.94,191.88a4.57,4.57,0,0,1-1,2.63,4,4,0,0,1,0-5.25A4.53,4.53,0,0,1,249.94,191.88Z" style="fill:#263238"></path><path d="M300.38,176.68a4.64,4.64,0,0,1-2.53,1.23,4,4,0,0,1,3.62-3.82A4.6,4.6,0,0,1,300.38,176.68Z" style="fill:#263238"></path><path d="M294,181.6a4.63,4.63,0,0,1-.43-2.78,4,4,0,0,1,2.58,4.58A4.59,4.59,0,0,1,294,181.6Z" style="fill:#263238"></path><path d="M296.31,176.4a3.51,3.51,0,0,1-.16-2.15,3.06,3.06,0,0,1,1.7,3.66A3.53,3.53,0,0,1,296.31,176.4Z" style="fill:#263238"></path><path d="M297.08,186a3.53,3.53,0,0,1-1.94-.93,3.52,3.52,0,0,1,2.08-.58,3.46,3.46,0,0,1,1.94.93A3.52,3.52,0,0,1,297.08,186Z" style="fill:#263238"></path><path d="M294.43,186.28,294,186c.23-.3.47-.59.71-.89a10,10,0,0,0,2.94-7.28h.5a10.38,10.38,0,0,1-3.05,7.59Z" style="fill:#263238"></path><path d="M284.06,179a4.65,4.65,0,0,1-.29,2.79,4,4,0,0,1-1.34-5.08A4.55,4.55,0,0,1,284.06,179Z" style="fill:#263238"></path><path d="M284.88,187a4.63,4.63,0,0,1-2.59-1.09,4,4,0,0,1,5.26.21A4.6,4.6,0,0,1,284.88,187Z" style="fill:#263238"></path><path d="M281.67,182.33a3.51,3.51,0,0,1-1.91-1,3.07,3.07,0,0,1,4,.49A3.57,3.57,0,0,1,281.67,182.33Z" style="fill:#263238"></path><path d="M290.21,186.73a3.54,3.54,0,0,1-1.81,1.16,3.49,3.49,0,0,1,.6-2.07,3.43,3.43,0,0,1,1.81-1.16A3.51,3.51,0,0,1,290.21,186.73Z" style="fill:#263238"></path><path d="M288.6,189.32c-.13-.35-.26-.71-.38-1.07a13.4,13.4,0,0,0-1.82-3.86,13.62,13.62,0,0,0-2.82-2.48l.27-.42a13.66,13.66,0,0,1,2.94,2.59,13.84,13.84,0,0,1,1.9,4c.13.36.25.72.38,1.07Z" style="fill:#263238"></path><path d="M255.74,183.08a4.59,4.59,0,0,1-.29,2.8,4,4,0,0,1-1.33-5.09A4.62,4.62,0,0,1,255.74,183.08Z" style="fill:#263238"></path><path d="M256.57,191.08A4.63,4.63,0,0,1,254,190a4.6,4.6,0,0,1,2.67-.88,4.51,4.51,0,0,1,2.58,1.09A4.56,4.56,0,0,1,256.57,191.08Z" style="fill:#263238"></path><path d="M253.36,186.39a3.46,3.46,0,0,1-1.91-1,3.56,3.56,0,0,1,2.09-.51,3.46,3.46,0,0,1,1.91,1A3.53,3.53,0,0,1,253.36,186.39Z" style="fill:#263238"></path><path d="M261.9,190.78a3.53,3.53,0,0,1-1.82,1.17,3.62,3.62,0,0,1,.6-2.08,3.55,3.55,0,0,1,1.82-1.16A3.49,3.49,0,0,1,261.9,190.78Z" style="fill:#263238"></path><path d="M260.29,193.38l-.39-1.07a13.14,13.14,0,0,0-1.82-3.86,13.42,13.42,0,0,0-2.81-2.48l.27-.43a14.26,14.26,0,0,1,2.93,2.6,13.48,13.48,0,0,1,1.91,4c.12.36.25.71.38,1.07Z" style="fill:#263238"></path></g></g><g id="freepik--Clouds--inject-137"><path d="M393.43,87.9l7,4V89.41c0-.18,0-.36,0-.53s0-.34,0-.5v-.06h0c.25-3.29,2.74-4.55,5.79-2.79a11.27,11.27,0,0,1,3.45,3.31c.69-4.47,4.33-6.08,8.74-3.53,4.9,2.82,8.86,9.7,8.86,15.35V106a2.4,2.4,0,0,0,1.19,2.08l4.13,2.42a6,6,0,0,1,2.94,5.14,2.45,2.45,0,0,1-3.68,2.12L393.54,95.59a6.71,6.71,0,0,1-3.35-5.8A2.17,2.17,0,0,1,393.43,87.9Z" style="fill:#e6e6e6"></path><path d="M357.35,42.9l5.19,3V44c0-.13,0-.26,0-.39s0-.25,0-.37v0h0c.18-2.44,2-3.37,4.28-2.07a8.34,8.34,0,0,1,2.55,2.45c.51-3.3,3.21-4.5,6.47-2.61a14.48,14.48,0,0,1,6.55,11.36v3.93a1.78,1.78,0,0,0,.88,1.54l3,1.79a4.41,4.41,0,0,1,2.18,3.8A1.81,1.81,0,0,1,385.8,65L357.43,48.58A5,5,0,0,1,355,44.29,1.6,1.6,0,0,1,357.35,42.9Z" style="fill:#e6e6e6"></path></g></svg>