<svg xmlns="http://www.w3.org/2000/svg" viewBox="0 0 500 500"><g id="freepik--background-complete--inject-138"><path d="M202.92,417.8c.16-.1.22-.35.08-.46.25,0,.36-.32.32-.57s-.12-.54.05-.73.25-.14.33-.26,0-.51,0-.78a5.46,5.46,0,0,1,0-.56.74.74,0,0,0,0-.26,1.66,1.66,0,0,0-.14-.37,2.56,2.56,0,0,0-.22-.35,7.81,7.81,0,0,0-1.35-1.62,3.89,3.89,0,0,0-1.87-.95c-.31-.05-.63-.05-.93-.13,0,0-.58-.21-.07-.36a11.89,11.89,0,0,1,2.76.57,3.3,3.3,0,0,0,1.23.29h0l.24,0a2.45,2.45,0,0,0,1.29-.89l.06-.07c.17-.19.33-.38.49-.58s.26-.4.14-.57-.12-.1-.16-.17.23-.44.18-.68-.16-.2-.21-.33a1.7,1.7,0,0,1,0-.39c0-.26-.25-.43-.46-.56l-.42-.23h0l-.43-.2a1.78,1.78,0,0,0-2.11.11h0l-.21.16a14.14,14.14,0,0,0-2.78,2.51l-.17.22s0-.05,0-.07,0-.21,0-.31a1.76,1.76,0,0,1,.36-.69l0,0h0c.07-.06.15-.1.22-.15a5,5,0,0,0,.66-.48,2.9,2.9,0,0,0,.29-.19,2.66,2.66,0,0,0,1-2.62,10.53,10.53,0,0,0-.63-1.61,2.67,2.67,0,0,1-.21-1c0-.28.06-.57,0-.85a.35.35,0,0,0-.07-.2.23.23,0,0,0-.28,0,.69.69,0,0,0-.23.22c0-.16-.2-.25-.35-.23a2.38,2.38,0,0,0-.45.15c-.39.12-.85,0-1.23.18a.42.42,0,0,0-.12.08,1.59,1.59,0,0,0-.39.46,5.1,5.1,0,0,0-.85,2v0a4.72,4.72,0,0,0,.08,1.5,14.91,14.91,0,0,0,.88,2.67l.36.88h0s.08.35-.27.15c-.17-.37-.28-.77-.42-1.15a4.87,4.87,0,0,0-2.28-2.65,4.18,4.18,0,0,0-1.08-.37,3.68,3.68,0,0,0-1-.08,3.72,3.72,0,0,0-1.39.33l-.45.22a.38.38,0,0,0-.2.15c-.08.15.06.37,0,.49s-.13.06-.19.1-.09.34,0,.51.07.17.11.26c.19.46.39.91.58,1.37a4.78,4.78,0,0,0,.7,1.25,3.45,3.45,0,0,0,1.9,1l0,0h0a1.63,1.63,0,0,0,1.19-.05,4.2,4.2,0,0,1,.52-.26h.11a2.93,2.93,0,0,0,.41-.05l.45-.1h0s.37,0,.32.2a2.13,2.13,0,0,1-.77.38,2.32,2.32,0,0,1-.58.08,2.1,2.1,0,0,0-.83,0,1.54,1.54,0,0,0-.44.33l-1.25,1.23h0a2.48,2.48,0,0,0-.52.65,2.57,2.57,0,0,0-.19,1c0,.11,0,.22,0,.34,0,.6-.07,1.21-.1,1.82,0,.17,0,.38.14.47a.53.53,0,0,1,.42-.12c-.12.16.08.39.28.43a1.93,1.93,0,0,1,.6.1,1.63,1.63,0,0,1,.2.17,1.14,1.14,0,0,0,.83.14,3.86,3.86,0,0,0,1.89-.81h0a5.62,5.62,0,0,0,1.57-1.95l.14-.3v0a1.09,1.09,0,0,0,.11-.27l0-.19h0a1.46,1.46,0,0,0,0-.59l-.06-.18c-.1-.21-.26-.38-.36-.59a1.93,1.93,0,0,1-.19-.75V412a.69.69,0,0,1,.17-.46c.21-.25.43.15.45.49a12.54,12.54,0,0,0,.1,1.84,4.27,4.27,0,0,0,.29.94h0a11.46,11.46,0,0,0,1.17,1.92c.09.12.17.24.26.35a1.82,1.82,0,0,0,.51.45,2.47,2.47,0,0,0,1,.23l.88.09A.89.89,0,0,0,202.92,417.8Z" style="fill:#ebebeb"></path><path d="M145.46,341.93c-.18,0-.41.08-.39.26-.16-.19-.48,0-.64.16s-.31.46-.56.46-.28-.08-.42-.07-.36.37-.54.57a5.2,5.2,0,0,1-.44.35,1.06,1.06,0,0,0-.17.2,2,2,0,0,0-.17.36,2.6,2.6,0,0,0-.1.4,8.28,8.28,0,0,0-.26,2.1,3.86,3.86,0,0,0,.59,2,8,8,0,0,1,.54.76s.24.57-.22.3a11.87,11.87,0,0,1-1.46-2.4,3.65,3.65,0,0,0-.64-1.1h0a1.37,1.37,0,0,0-.18-.16,2.44,2.44,0,0,0-1.53-.33h-.09l-.76.05c-.21,0-.47.08-.51.29s0,.15,0,.22c-.08.23-.48.13-.62.33s0,.27-.09.38-.2.18-.29.27a.82.82,0,0,0-.09.72l.12.47h0l.15.46a2.26,2.26,0,0,0,.8,1.19,2.38,2.38,0,0,0,.73.27h0l.26,0a14.19,14.19,0,0,0,3.73.31l.28,0-.06,0-.24.21a1.94,1.94,0,0,1-.75.2h0a2.44,2.44,0,0,1-.26-.06,5.37,5.37,0,0,0-.8-.15l-.34-.08a2.66,2.66,0,0,0-2.6,1.06,10,10,0,0,0-.74,1.55,3,3,0,0,1-.55.81c-.21.2-.46.35-.65.56a.34.34,0,0,0-.11.18.25.25,0,0,0,.18.23.65.65,0,0,0,.31,0,.31.31,0,0,0,.08.41,2,2,0,0,0,.41.22c.36.21.58.64,1,.78a.35.35,0,0,0,.14,0,1.57,1.57,0,0,0,.61,0,5.09,5.09,0,0,0,2.07-.77h0a4.69,4.69,0,0,0,1-1.09,14.37,14.37,0,0,0,1.34-2.47c.14-.28.27-.57.4-.86h0s.2-.3.29.09c-.15.38-.37.73-.55,1.1a4.89,4.89,0,0,0-.37,3.48,4.43,4.43,0,0,0,.47,1,3.87,3.87,0,0,0,.62.78,3.67,3.67,0,0,0,1.19.78l.47.18a.34.34,0,0,0,.24,0c.17,0,.23-.29.4-.29a.76.76,0,0,1,.2.06c.18,0,.31-.17.38-.34a2.72,2.72,0,0,0,.11-.25l.6-1.37a4.48,4.48,0,0,0,.44-1.37,3.51,3.51,0,0,0-.58-2.05l0-.05v0a1.62,1.62,0,0,0-.86-.83,5,5,0,0,1-.54-.2l-.07-.08c-.06-.06-.18-.15-.32-.26l-.38-.27h0s-.27-.25-.07-.37a2.16,2.16,0,0,1,.81.31,2.6,2.6,0,0,1,.45.37,2.13,2.13,0,0,0,.59.57,1.26,1.26,0,0,0,.54.09l1.75.07h0a2.55,2.55,0,0,0,.83-.07,2.46,2.46,0,0,0,.85-.54l.26-.21,1.4-1.18c.13-.11.28-.25.25-.42a.57.57,0,0,1-.38-.22c.2,0,.23-.33.12-.5s-.29-.31-.33-.51a2.28,2.28,0,0,1,0-.26,1.16,1.16,0,0,0-.46-.71,4,4,0,0,0-1.89-.81h0a5.74,5.74,0,0,0-2.5.19l-.31.11h0a1.33,1.33,0,0,0-.28.1l-.16.11h0a1.37,1.37,0,0,0-.42.41l-.09.16c-.09.21-.1.45-.18.67a2.26,2.26,0,0,1-.42.65l-.06.06a.7.7,0,0,1-.45.19c-.33,0-.18-.42.05-.67a12.26,12.26,0,0,0,1.27-1.33,4.33,4.33,0,0,0,.49-.86h0a11.42,11.42,0,0,0,.6-2.17c0-.14.05-.28.07-.43a1.74,1.74,0,0,0,0-.68,2.46,2.46,0,0,0-.49-.86l-.54-.71A.87.87,0,0,0,145.46,341.93Z" style="fill:#ebebeb"></path><path d="M67.79,189.49c-.12-.21-.46-.32-.62-.13,0-.33-.41-.5-.75-.46s-.74.14-1-.09-.18-.34-.33-.46-.7,0-1.06,0a6.36,6.36,0,0,1-.75-.08,1.08,1.08,0,0,0-.36,0,2.27,2.27,0,0,0-.5.17l-.49.28a11.36,11.36,0,0,0-2.25,1.76A5.17,5.17,0,0,0,58.35,193c-.08.41-.1.84-.22,1.24,0,0-.31.78-.49.08a16.1,16.1,0,0,1,.89-3.69A4.71,4.71,0,0,0,59,189h0a1.25,1.25,0,0,0,0-.33,3.27,3.27,0,0,0-1.14-1.77l-.09-.09-.77-.68c-.22-.18-.53-.37-.76-.21s-.15.15-.24.2c-.29.14-.58-.33-.9-.28s-.29.22-.46.28-.35,0-.53,0c-.34,0-.59.32-.77.6l-.33.56h0l-.3.57a3.08,3.08,0,0,0-.37,1.91,2.84,2.84,0,0,0,.44.95h0c.07.1.14.19.2.29a18.94,18.94,0,0,0,3.28,3.85l.29.25-.1,0c-.14,0-.28,0-.42,0a2.57,2.57,0,0,1-.92-.53l0,0h0l-.18-.29a8.23,8.23,0,0,0-.62-.92c-.08-.13-.16-.27-.25-.4a3.6,3.6,0,0,0-3.5-1.47,14.23,14.23,0,0,0-2.19.77,3.7,3.7,0,0,1-1.3.25c-.39,0-.77-.1-1.15-.09a.46.46,0,0,0-.28.08.33.33,0,0,0-.05.39,1,1,0,0,0,.28.31c-.21,0-.33.26-.32.47a4.14,4.14,0,0,0,.18.6c.15.55,0,1.16.19,1.67a1,1,0,0,0,.1.17,2.48,2.48,0,0,0,.61.55,6.94,6.94,0,0,0,2.72,1.24h0a6.3,6.3,0,0,0,2-.05A20.24,20.24,0,0,0,55,196.69l1.2-.44h0s.48-.1.19.36c-.5.22-1,.34-1.57.52a6.56,6.56,0,0,0-3.67,3,5.36,5.36,0,0,0-.55,1.44,5.06,5.06,0,0,0-.15,1.34,4.87,4.87,0,0,0,.39,1.88c.08.21.19.41.27.62a.56.56,0,0,0,.19.28c.2.11.5-.07.67.09a2,2,0,0,1,.13.25c.14.2.45.14.68.05l.36-.14,1.87-.73a6,6,0,0,0,1.72-.9,4.61,4.61,0,0,0,1.41-2.51.19.19,0,0,0,0-.07s0,0,0,0a2.18,2.18,0,0,0,0-1.61,6.58,6.58,0,0,1-.32-.72v-.14a2.55,2.55,0,0,0,0-.55c0-.19-.06-.4-.1-.62h0s0-.5.28-.42a3,3,0,0,1,.48,1.06,2.62,2.62,0,0,1,.07.79,3,3,0,0,0,0,1.11,2.08,2.08,0,0,0,.42.61l1.61,1.74h0a3.56,3.56,0,0,0,.86.74,3.49,3.49,0,0,0,1.33.3l.45,0,2.46.21c.23,0,.51,0,.64-.17a.78.78,0,0,1-.15-.57c.22.17.54-.09.6-.36s0-.58.16-.81.16-.17.23-.26a1.5,1.5,0,0,0,.23-1.12,5.31,5.31,0,0,0-1-2.58h0a7.72,7.72,0,0,0-2.57-2.21l-.41-.19h0a2.83,2.83,0,0,0-.36-.16l-.26-.05h0a2.15,2.15,0,0,0-.8,0,1.13,1.13,0,0,0-.24.08c-.29.11-.53.32-.81.46a2.75,2.75,0,0,1-1,.22h-.11a1,1,0,0,1-.61-.25c-.33-.3.22-.57.68-.59a15.88,15.88,0,0,0,2.49-.06,6.31,6.31,0,0,0,1.29-.35h0a14.7,14.7,0,0,0,2.64-1.5c.16-.11.33-.22.48-.34a2.33,2.33,0,0,0,.63-.66,3.46,3.46,0,0,0,.36-1.3c0-.4.1-.8.16-1.19A1.14,1.14,0,0,0,67.79,189.49Z" style="fill:#ebebeb"></path><path d="M126.37,281.44c-.15-.27-.58-.4-.78-.16,0-.42-.53-.63-1-.58s-.93.18-1.24-.12-.23-.43-.42-.58c-.35-.29-.87,0-1.34,0-.32,0-.63-.1-.95-.11a1.68,1.68,0,0,0-.45,0,2.36,2.36,0,0,0-.63.22,6.27,6.27,0,0,0-.62.36,14.27,14.27,0,0,0-2.85,2.22,6.51,6.51,0,0,0-1.71,3.15c-.1.52-.12,1.06-.27,1.57,0,0-.4,1-.63.1a20.89,20.89,0,0,1,1.13-4.67,6.08,6.08,0,0,0,.56-2.09h0a2.93,2.93,0,0,0,0-.41,4.18,4.18,0,0,0-1.44-2.25l-.12-.11c-.31-.29-.64-.58-1-.86s-.67-.47-1-.27c-.11.07-.18.19-.3.25-.38.18-.74-.42-1.14-.34-.23,0-.37.27-.58.34s-.45,0-.68,0c-.43,0-.74.4-1,.76s-.28.47-.42.71h0c-.13.24-.26.48-.37.73a3.81,3.81,0,0,0-.48,2.41,3.77,3.77,0,0,0,.56,1.2h0l.25.36a24.66,24.66,0,0,0,4.15,4.89l.37.31-.12,0-.54,0a3.27,3.27,0,0,1-1.16-.66l0,0h0c-.08-.12-.15-.25-.23-.38a11.07,11.07,0,0,0-.78-1.15,5.58,5.58,0,0,0-.32-.52,4.55,4.55,0,0,0-4.42-1.85,17.28,17.28,0,0,0-2.78,1,4.7,4.7,0,0,1-1.65.32c-.49,0-1-.13-1.45-.11a.51.51,0,0,0-.35.09.42.42,0,0,0-.07.49,1.25,1.25,0,0,0,.36.4c-.26,0-.42.32-.4.59a4.22,4.22,0,0,0,.22.77c.19.69-.06,1.47.24,2.11a1.07,1.07,0,0,0,.13.21,3,3,0,0,0,.76.7,8.86,8.86,0,0,0,3.45,1.57h0a8.21,8.21,0,0,0,2.57-.06,25.76,25.76,0,0,0,4.62-1.36l1.52-.55h0s.61-.13.24.45c-.64.28-1.33.44-2,.66a8.35,8.35,0,0,0-4.65,3.76,7.07,7.07,0,0,0-.7,1.82,7,7,0,0,0-.18,1.7,6.33,6.33,0,0,0,.49,2.38c.11.26.24.52.35.78a.64.64,0,0,0,.24.36c.25.14.63-.09.83.11a1.41,1.41,0,0,1,.17.32c.18.25.58.17.87.06l.45-.18,2.37-.92a7.56,7.56,0,0,0,2.18-1.14,5.94,5.94,0,0,0,1.78-3.18.29.29,0,0,0,0-.09l0,0a2.77,2.77,0,0,0,0-2,7.3,7.3,0,0,1-.41-.9v-.18a6.46,6.46,0,0,0-.07-.7c0-.24-.08-.5-.13-.78h0s0-.64.36-.54a3.86,3.86,0,0,1,.6,1.34,3.74,3.74,0,0,1,.1,1,3.46,3.46,0,0,0,0,1.4,2.16,2.16,0,0,0,.54.77l2,2.2,0,0a3.22,3.22,0,0,0,2.76,1.3l.58.05,3.1.28c.3,0,.65,0,.82-.22a.94.94,0,0,1-.19-.72c.28.21.67-.12.75-.46s0-.73.21-1a3.11,3.11,0,0,1,.29-.33,1.93,1.93,0,0,0,.3-1.42,6.72,6.72,0,0,0-1.29-3.26v0a9.82,9.82,0,0,0-3.25-2.79l-.52-.25h0a2.67,2.67,0,0,0-.46-.2l-.33-.06h0a2.46,2.46,0,0,0-1,0,1.71,1.71,0,0,0-.3.09c-.37.15-.68.41-1,.58a3.41,3.41,0,0,1-1.3.28h-.14a1.14,1.14,0,0,1-.78-.32c-.41-.37.29-.72.87-.73a22,22,0,0,0,3.15-.08,8.38,8.38,0,0,0,1.63-.45h0a18.85,18.85,0,0,0,3.35-1.9c.2-.14.41-.27.6-.42a2.94,2.94,0,0,0,.8-.85,4.4,4.4,0,0,0,.45-1.64c.07-.5.13-1,.2-1.5A1.47,1.47,0,0,0,126.37,281.44Z" style="fill:#ebebeb"></path><path d="M70.75,51.28c-.16-.27-.59-.4-.79-.16.05-.42-.53-.63-.95-.58s-.93.18-1.25-.12-.23-.43-.41-.58c-.36-.29-.88,0-1.35,0-.31,0-.63-.1-1-.11a1.71,1.71,0,0,0-.45,0A2.36,2.36,0,0,0,64,50c-.21.11-.42.23-.62.36A14.27,14.27,0,0,0,60.5,52.6a6.6,6.6,0,0,0-1.71,3.15c-.1.52-.12,1.06-.27,1.57,0,0-.39,1-.63.1A21,21,0,0,1,59,52.75a6.08,6.08,0,0,0,.56-2.09h0a1.44,1.44,0,0,0,0-.41A4.18,4.18,0,0,0,58.11,48L58,47.88,57,47c-.27-.23-.66-.47-1-.27-.11.07-.18.2-.3.25-.38.18-.74-.42-1.14-.34-.23,0-.37.27-.58.34s-.45,0-.68,0c-.43,0-.74.4-1,.77s-.28.46-.42.7h0c-.13.24-.26.48-.37.73a3.87,3.87,0,0,0-.48,2.41,3.77,3.77,0,0,0,.56,1.2h0l.25.36a24.28,24.28,0,0,0,4.14,4.89l.37.31-.12,0-.54,0a3.12,3.12,0,0,1-1.16-.66l0,0h0c-.09-.12-.16-.25-.24-.38a9.69,9.69,0,0,0-.78-1.15,5.58,5.58,0,0,0-.32-.52,4.55,4.55,0,0,0-4.42-1.85,17.62,17.62,0,0,0-2.78,1,4.7,4.7,0,0,1-1.65.32c-.48,0-1-.13-1.45-.11a.51.51,0,0,0-.35.09.42.42,0,0,0-.06.5,1.18,1.18,0,0,0,.35.39c-.26,0-.42.33-.4.59a3.58,3.58,0,0,0,.23.77c.19.69-.07,1.47.23,2.11a1.07,1.07,0,0,0,.13.21,3,3,0,0,0,.77.7,8.73,8.73,0,0,0,3.45,1.57h0a7.93,7.93,0,0,0,2.57-.06,25.9,25.9,0,0,0,4.61-1.36L56,59.84h0s.61-.13.24.45c-.63.28-1.33.44-2,.66a8.39,8.39,0,0,0-4.65,3.76,7.07,7.07,0,0,0-.7,1.82,7,7,0,0,0-.18,1.7,6.33,6.33,0,0,0,.49,2.38c.11.26.24.52.35.78a.7.7,0,0,0,.24.36c.25.14.63-.09.84.11a3.24,3.24,0,0,1,.17.32c.18.26.57.17.86.06l.45-.18,2.37-.92A7.79,7.79,0,0,0,56.71,70a5.94,5.94,0,0,0,1.78-3.19l0-.09s0,0,0,0a2.82,2.82,0,0,0,0-2,6.07,6.07,0,0,1-.41-.9v-.18a4.62,4.62,0,0,0-.07-.7c0-.24-.08-.5-.13-.77h0s0-.64.36-.54A3.69,3.69,0,0,1,59,63.9a3.65,3.65,0,0,0,0,1.4,2.44,2.44,0,0,0,.54.77c.68.74,1.36,1.47,2,2.21l0,0a4.55,4.55,0,0,0,1.08.93,4.42,4.42,0,0,0,1.69.37l.57.05,3.11.28c.29,0,.64,0,.81-.22a.94.94,0,0,1-.19-.72c.28.22.68-.12.75-.46s0-.73.22-1a3,3,0,0,1,.28-.33,1.89,1.89,0,0,0,.3-1.42A6.72,6.72,0,0,0,68.9,62.5v0a9.82,9.82,0,0,0-3.25-2.79l-.51-.25h0a2.67,2.67,0,0,0-.46-.2l-.33-.06h0a2.46,2.46,0,0,0-1,0l-.3.09c-.37.15-.67.41-1,.58a3.37,3.37,0,0,1-1.3.28h-.13a1.19,1.19,0,0,1-.79-.31c-.4-.38.29-.73.87-.74A22,22,0,0,0,63.78,59a8.19,8.19,0,0,0,1.63-.45h0a18.85,18.85,0,0,0,3.35-1.9c.2-.13.41-.27.61-.42a3,3,0,0,0,.79-.85,4.06,4.06,0,0,0,.45-1.64c.07-.5.14-1,.2-1.5A1.54,1.54,0,0,0,70.75,51.28Z" style="fill:#ebebeb"></path><path d="M70.76,315s.19,1.62.47,4c.26,2.18,3.87,6,6.39,6.74s-.06-.86.45-.86a7.54,7.54,0,0,1,1.54.14c.93.14.87-1.83,1-2.32a1.52,1.52,0,0,1,.66-.77A11.56,11.56,0,0,0,70.76,315Z" style="fill:#ebebeb"></path><path d="M188.64,341.61l-3.79,1.22c-2.09.68-5.11,5-5.39,7.58s.84-.23.94.28a7.09,7.09,0,0,1,.16,1.53c0,.94,2,.5,2.47.55a1.49,1.49,0,0,1,.89.49A11.55,11.55,0,0,0,188.64,341.61Z" style="fill:#ebebeb"></path><path d="M78.18,146.67s.17,1.5.44,3.67c.25,2,3.68,5.53,6.07,6.25s-.06-.81.43-.81a7.17,7.17,0,0,1,1.45.13c.89.13.83-1.69,1-2.15a1.42,1.42,0,0,1,.62-.71A10.94,10.94,0,0,0,78.18,146.67Z" style="fill:#ebebeb"></path><path d="M104.24,42.86s.12,1.12.32,2.75,2.69,4.15,4.45,4.69-.05-.6.31-.6a5.14,5.14,0,0,1,1.07.1c.65.09.6-1.28.7-1.62a1,1,0,0,1,.46-.53A8,8,0,0,0,104.24,42.86Z" style="fill:#ebebeb"></path><path d="M327,388.72a.29.29,0,0,1-.11-.45c-.25,0-.38-.3-.37-.55s.09-.55-.09-.72-.26-.13-.35-.24,0-.51,0-.78a5.39,5.39,0,0,0-.08-.56.76.76,0,0,1,0-.26,1.6,1.6,0,0,1,.12-.37,2.58,2.58,0,0,1,.19-.37,8.44,8.44,0,0,1,1.25-1.71,3.7,3.7,0,0,1,1.8-1.07,9.18,9.18,0,0,0,.91-.19s.57-.25.05-.37a11.93,11.93,0,0,0-2.71.76,3.53,3.53,0,0,1-1.21.37h-.25a2.41,2.41,0,0,1-1.34-.8l-.07-.06-.52-.55c-.14-.16-.29-.38-.18-.56s.11-.11.14-.18c.1-.22-.26-.42-.22-.66s.15-.22.19-.35,0-.26,0-.39.22-.44.43-.58l.4-.26h0l.41-.23a2.38,2.38,0,0,1,1.41-.33,2.14,2.14,0,0,1,.71.31h0l.22.14a14.05,14.05,0,0,1,2.94,2.32l.18.21s0-.05,0-.07,0-.21,0-.32a1.83,1.83,0,0,0-.41-.66l0,0h0a1.71,1.71,0,0,0-.23-.13,6.12,6.12,0,0,1-.69-.43c-.1-.06-.21-.11-.31-.18a2.64,2.64,0,0,1-1.17-2.54,10.84,10.84,0,0,1,.51-1.65,2.7,2.7,0,0,0,.15-1c0-.28-.09-.56-.09-.85a.24.24,0,0,1,.05-.2.24.24,0,0,1,.28-.05.66.66,0,0,1,.24.2c0-.15.18-.25.34-.25a2.5,2.5,0,0,1,.45.12c.41.1.86-.07,1.24.1a.33.33,0,0,1,.13.07,1.56,1.56,0,0,1,.42.43,5.2,5.2,0,0,1,1,2v0a4.44,4.44,0,0,1,0,1.5,15.41,15.41,0,0,1-.7,2.73c-.09.3-.19.6-.29.9h0s-.06.36.27.13c.15-.38.23-.79.35-1.18a4.88,4.88,0,0,1,2.1-2.79,4.06,4.06,0,0,1,1.05-.45,3.64,3.64,0,0,1,1-.14,3.56,3.56,0,0,1,1.4.24l.46.18a.34.34,0,0,1,.21.14c.09.14,0,.37.09.48s.13.06.19.1.11.33,0,.5l-.09.27c-.17.47-.33.94-.49,1.4a4.58,4.58,0,0,1-.62,1.3,3.54,3.54,0,0,1-1.82,1.11h-.08a1.63,1.63,0,0,1-1.19,0,5.09,5.09,0,0,0-.54-.22h-.1l-.41,0L333,381h0s-.37,0-.3.22a2.11,2.11,0,0,0,.79.33,1.89,1.89,0,0,0,.58,0,2.32,2.32,0,0,1,.83,0,1.52,1.52,0,0,1,.46.3l1.33,1.15h0a2.54,2.54,0,0,1,.57.61,2.49,2.49,0,0,1,.25,1c0,.11,0,.22,0,.33.08.6.15,1.21.23,1.81,0,.17,0,.38-.11.48a.54.54,0,0,0-.43-.09c.13.15-.05.39-.25.44s-.43,0-.59.15a1.62,1.62,0,0,0-.19.17,1.12,1.12,0,0,1-.82.21,4,4,0,0,1-1.94-.69h0a5.76,5.76,0,0,1-1.69-1.85,2.69,2.69,0,0,1-.16-.29h0a1.31,1.31,0,0,1-.12-.27,1.05,1.05,0,0,1-.05-.19h0a1.46,1.46,0,0,1,0-.59,1.16,1.16,0,0,1,0-.18c.08-.21.23-.4.32-.61a2,2,0,0,0,.14-.76v-.08a.76.76,0,0,0-.21-.46c-.22-.22-.41.19-.41.53a12.57,12.57,0,0,1,0,1.84,4.48,4.48,0,0,1-.23,1h0a11.23,11.23,0,0,1-1.05,2c-.07.12-.15.24-.23.36a1.69,1.69,0,0,1-.48.48,2.58,2.58,0,0,1-1,.3l-.87.15A.82.82,0,0,1,327,388.72Z" style="fill:#ebebeb"></path><path d="M379.23,309.17c.17-.06.41.05.41.24.14-.21.47-.08.64.11s.34.43.6.42.26-.1.4-.09.39.34.58.53a4.63,4.63,0,0,0,.46.31.89.89,0,0,1,.19.2,1.41,1.41,0,0,1,.19.34c.05.13.1.26.14.39a8.22,8.22,0,0,1,.39,2.08,3.78,3.78,0,0,1-.45,2c-.16.27-.36.52-.49.8,0,0-.2.59.24.28a12.44,12.44,0,0,0,1.3-2.49,3.42,3.42,0,0,1,.56-1.13h0l.17-.17a2.45,2.45,0,0,1,1.5-.43h.85c.22,0,.48.05.53.25a1.57,1.57,0,0,0,0,.23c.1.22.48.1.63.28s.06.27.13.38.21.16.3.25a.8.8,0,0,1,.14.71l-.09.47h0l-.12.46a1.78,1.78,0,0,1-1.43,1.56h0l-.25.06a14.17,14.17,0,0,1-3.7.56h-.29l.07,0,.25.19a1.81,1.81,0,0,0,.76.15h0l.25-.08a7,7,0,0,1,.79-.2l.34-.11a2.66,2.66,0,0,1,2.66.89,10,10,0,0,1,.85,1.5,2.81,2.81,0,0,0,.6.77c.22.18.48.31.69.51a.31.31,0,0,1,.11.18.23.23,0,0,1-.16.24.63.63,0,0,1-.31,0,.3.3,0,0,1,0,.42,3.34,3.34,0,0,1-.4.25c-.35.23-.54.67-.92.84l-.14,0a1.51,1.51,0,0,1-.6,0,5,5,0,0,1-2.12-.63h0a4.64,4.64,0,0,1-1.11-1,15.18,15.18,0,0,1-1.51-2.38l-.46-.83h0s-.22-.29-.28.11c.17.37.42.7.63,1.06a4.89,4.89,0,0,1,.6,3.44,3.93,3.93,0,0,1-.4,1.07,3.88,3.88,0,0,1-.57.82,3.81,3.81,0,0,1-1.13.86l-.46.21a.35.35,0,0,1-.24.06c-.16,0-.24-.28-.41-.27a1.67,1.67,0,0,0-.2.08c-.18,0-.32-.15-.4-.31l-.13-.25-.69-1.32a4.69,4.69,0,0,1-.53-1.34,3.59,3.59,0,0,1,.44-2.09l0-.05v0a1.61,1.61,0,0,1,.8-.88c.17-.08.36-.14.53-.24l.06-.08a3,3,0,0,1,.3-.28l.36-.3h0s.26-.26,0-.37a2.36,2.36,0,0,0-.79.36,2.27,2.27,0,0,0-.42.4,2,2,0,0,1-.55.61,1.47,1.47,0,0,1-.54.13l-1.74.19h0a2.57,2.57,0,0,1-.83,0,2.66,2.66,0,0,1-.89-.48l-.27-.2-1.47-1.07c-.14-.11-.3-.24-.28-.41a.55.55,0,0,0,.36-.25c-.2,0-.25-.31-.15-.49s.27-.33.3-.53,0-.17,0-.26a1.11,1.11,0,0,1,.41-.73,3.89,3.89,0,0,1,1.83-.95h0a5.86,5.86,0,0,1,2.5,0l.32.09h0a1.52,1.52,0,0,1,.28.09l.16.1h0a1.26,1.26,0,0,1,.55.54c.1.21.14.44.23.65a1.89,1.89,0,0,0,.47.63l.05.05a.74.74,0,0,0,.47.16c.32,0,.15-.43-.1-.66a13.43,13.43,0,0,1-1.36-1.25,4.47,4.47,0,0,1-.54-.82h0a10.44,10.44,0,0,1-.74-2.12c0-.14-.08-.28-.11-.42a2,2,0,0,1,0-.68,2.58,2.58,0,0,1,.43-.9l.49-.74A1,1,0,0,1,379.23,309.17Z" style="fill:#ebebeb"></path><path d="M440.71,193.62c.11-.22.44-.35.61-.17-.06-.33.38-.52.72-.51s.75.09,1-.16.16-.35.3-.48.69,0,1.06-.05a6.37,6.37,0,0,0,.74-.13,1.45,1.45,0,0,1,.36,0,2.46,2.46,0,0,1,.51.15,4.59,4.59,0,0,1,.5.24,11.65,11.65,0,0,1,2.37,1.61,5,5,0,0,1,1.51,2.39c.11.41.16.83.3,1.22,0,0,.36.76.5.05a16,16,0,0,0-1.14-3.63,5,5,0,0,1-.55-1.61h0a1.82,1.82,0,0,1,0-.33,3.36,3.36,0,0,1,1-1.85l.08-.09.73-.73c.2-.2.5-.4.74-.26.09,0,.16.14.25.18.31.12.56-.37.88-.33s.31.19.48.24a2,2,0,0,0,.53-.06c.34,0,.6.28.81.56s.25.35.36.53h0l.33.55a3.05,3.05,0,0,1,.5,1.88,2.74,2.74,0,0,1-.38,1h0l-.18.3a19.41,19.41,0,0,1-3,4.07l-.27.26.09,0,.42-.06a2.46,2.46,0,0,0,.88-.58l0,0h0c.06-.1.11-.21.16-.31a8.17,8.17,0,0,1,.56-1c.07-.15.14-.29.22-.43a3.56,3.56,0,0,1,3.39-1.69,13.92,13.92,0,0,1,2.25.62,3.63,3.63,0,0,0,1.31.16c.38,0,.76-.15,1.14-.17a.45.45,0,0,1,.28.06.35.35,0,0,1,.08.39.9.9,0,0,1-.26.32c.21,0,.35.24.35.45a3.46,3.46,0,0,1-.14.62c-.12.55.13,1.15-.08,1.68a.56.56,0,0,1-.09.17,2.41,2.41,0,0,1-.56.59,6.86,6.86,0,0,1-2.64,1.42s0,0,0,0a6.28,6.28,0,0,1-2,.09,20.7,20.7,0,0,1-3.71-.83l-1.23-.36h0s-.49-.07-.16.37a16.28,16.28,0,0,0,1.6.41,6.59,6.59,0,0,1,3.86,2.72,5.57,5.57,0,0,1,.65,1.4,6,6,0,0,1,.24,1.33,5.11,5.11,0,0,1-.26,1.9c-.08.21-.17.42-.24.64a.58.58,0,0,1-.17.29c-.19.12-.5,0-.65.13s-.07.18-.12.26-.45.17-.68.09l-.36-.11-1.92-.61a6,6,0,0,1-1.78-.77,4.75,4.75,0,0,1-1.57-2.42l0-.07s0,0,0,0a2.19,2.19,0,0,1-.08-1.61,5.8,5.8,0,0,0,.28-.73l0-.14a4,4,0,0,1,0-.56c0-.19,0-.4.06-.62h0s0-.5-.31-.4a3,3,0,0,0-.41,1.09,3,3,0,0,0,0,.79,2.78,2.78,0,0,1,.05,1.11,2.09,2.09,0,0,1-.38.64l-1.49,1.84v0a3.57,3.57,0,0,1-.81.79,3.44,3.44,0,0,1-1.3.39l-.45.07-2.44.38c-.23,0-.51,0-.65-.13a.74.74,0,0,0,.11-.58c-.21.18-.54-.06-.62-.32s-.05-.58-.22-.8a2.72,2.72,0,0,0-.24-.24,1.52,1.52,0,0,1-.31-1.1,5.28,5.28,0,0,1,.84-2.64v0a7.79,7.79,0,0,1,2.41-2.37l.39-.22h0a2.37,2.37,0,0,1,.35-.19l.25-.06h0a1.93,1.93,0,0,1,.79-.06l.25.05c.29.1.55.29.84.41a2.74,2.74,0,0,0,1,.15h.11a.94.94,0,0,0,.6-.29c.3-.32-.26-.55-.72-.53a18.92,18.92,0,0,1-2.49.1,6.49,6.49,0,0,1-1.31-.27h0a14.73,14.73,0,0,1-2.74-1.33l-.5-.3a2.34,2.34,0,0,1-.67-.62,3.36,3.36,0,0,1-.44-1.28l-.24-1.17A1.14,1.14,0,0,1,440.71,193.62Z" style="fill:#ebebeb"></path><path d="M394.22,247.54c.13-.28.55-.44.77-.21-.08-.43.48-.67.91-.65s.94.12,1.23-.2.2-.45.38-.61c.34-.32.88-.06,1.34-.06s.63-.14.94-.17a1.41,1.41,0,0,1,.46,0,2.45,2.45,0,0,1,.64.18c.22.09.43.2.64.31a14.2,14.2,0,0,1,3,2,6.43,6.43,0,0,1,1.92,3c.14.52.19,1.06.38,1.56,0,0,.46.95.63.05a20.92,20.92,0,0,0-1.44-4.58,6.24,6.24,0,0,1-.7-2.05h0a2.94,2.94,0,0,1,0-.42,4.22,4.22,0,0,1,1.29-2.34l.11-.11c.29-.31.6-.62.91-.92s.64-.52.95-.34a2.26,2.26,0,0,0,.31.23c.39.15.71-.46,1.12-.42.22,0,.38.25.6.3s.44-.06.67-.06c.43,0,.76.35,1,.7s.32.45.46.68h0c.14.23.29.47.42.7a3.87,3.87,0,0,1,.64,2.38,3.63,3.63,0,0,1-.48,1.23h0l-.22.37a24.2,24.2,0,0,1-3.81,5.15l-.34.34.11,0,.54-.07a3.43,3.43,0,0,0,1.11-.74l0,0h0c.08-.13.14-.26.21-.39a11.18,11.18,0,0,1,.7-1.21,5.45,5.45,0,0,1,.29-.53,4.51,4.51,0,0,1,4.28-2.15,16.63,16.63,0,0,1,2.84.79,4.73,4.73,0,0,0,1.67.2c.48,0,1-.19,1.44-.21a.54.54,0,0,1,.35.08.39.39,0,0,1,.1.48,1.21,1.21,0,0,1-.33.42c.27,0,.45.29.45.56a5.19,5.19,0,0,1-.18.78c-.14.7.16,1.46-.1,2.13a.91.91,0,0,1-.11.22,3,3,0,0,1-.72.74,8.65,8.65,0,0,1-3.33,1.8h0a8.2,8.2,0,0,1-2.57.12,26.94,26.94,0,0,1-4.69-1l-1.56-.45h0s-.61-.09-.21.47c.65.24,1.36.34,2,.52a8.33,8.33,0,0,1,4.89,3.44,7.13,7.13,0,0,1,1.12,3.45,6.37,6.37,0,0,1-.33,2.41c-.09.27-.21.54-.3.81a.63.63,0,0,1-.21.36c-.24.16-.64,0-.83.18s-.09.22-.15.32c-.16.27-.56.21-.86.12l-.46-.15-2.43-.76a7.93,7.93,0,0,1-2.25-1,6,6,0,0,1-2-3.06l0-.09s0,0,0,0a2.79,2.79,0,0,1-.11-2,6.55,6.55,0,0,0,.35-.93c0-.06,0-.12,0-.18a3.49,3.49,0,0,1,0-.7c0-.24,0-.51.08-.79h0s0-.64-.4-.51a3.77,3.77,0,0,0-.51,1.38,3.29,3.29,0,0,0,0,1,3.54,3.54,0,0,1,.06,1.41,2.34,2.34,0,0,1-.48.8l-1.88,2.34,0,0a4.21,4.21,0,0,1-1,1,4.27,4.27,0,0,1-1.65.49l-.57.09-3.08.48c-.29,0-.65.07-.83-.16a.92.92,0,0,0,.14-.74c-.26.24-.68-.07-.78-.4a3,3,0,0,0-.28-1c-.09-.12-.21-.2-.31-.31a1.92,1.92,0,0,1-.39-1.39,6.63,6.63,0,0,1,1.07-3.34v0a9.6,9.6,0,0,1,3.05-3l.5-.29h0a2.3,2.3,0,0,1,.44-.23l.32-.08h0a2.43,2.43,0,0,1,1-.08,1.73,1.73,0,0,1,.31.07c.37.12.7.37,1.06.51a3.28,3.28,0,0,0,1.32.19H405a1.21,1.21,0,0,0,.76-.37c.38-.4-.33-.71-.91-.68a22.2,22.2,0,0,1-3.15.13,7.56,7.56,0,0,1-1.65-.34h0a18.37,18.37,0,0,1-3.46-1.67c-.22-.12-.43-.24-.64-.38a3.06,3.06,0,0,1-.85-.79,4.47,4.47,0,0,1-.56-1.61l-.3-1.48A1.47,1.47,0,0,1,394.22,247.54Z" style="fill:#ebebeb"></path><path d="M411.16,104.08c.13-.28.55-.44.77-.21-.08-.43.48-.67.91-.65s.94.12,1.23-.2.2-.45.38-.61c.34-.31.88-.06,1.34-.06s.63-.14.95-.17a1.36,1.36,0,0,1,.45,0,2.45,2.45,0,0,1,.64.18,6.31,6.31,0,0,1,.64.31,14.2,14.2,0,0,1,3,2,6.48,6.48,0,0,1,1.92,3c.14.52.2,1.06.38,1.56,0,0,.46.95.63,0a20.56,20.56,0,0,0-1.44-4.58,6.24,6.24,0,0,1-.7-2.05h0a2.8,2.8,0,0,1,0-.41,4.21,4.21,0,0,1,1.29-2.35l.11-.11c.3-.31.6-.62.91-.92s.64-.52.95-.34a2.26,2.26,0,0,0,.31.23c.39.15.71-.46,1.12-.42.22,0,.38.25.6.31s.44-.07.67-.07c.43,0,.77.35,1,.7s.32.45.47.68h0c.14.23.29.47.42.7a3.88,3.88,0,0,1,.64,2.38,3.63,3.63,0,0,1-.48,1.23h0l-.23.37a24.2,24.2,0,0,1-3.81,5.15c-.11.11-.23.22-.34.34l.11,0,.54-.07a3.27,3.27,0,0,0,1.11-.74l0,0h0c.08-.13.14-.26.21-.39a10.17,10.17,0,0,1,.7-1.2,4.63,4.63,0,0,1,.29-.54,4.51,4.51,0,0,1,4.28-2.15,17.6,17.6,0,0,1,2.84.79,4.73,4.73,0,0,0,1.67.2c.48,0,1-.19,1.44-.21a.51.51,0,0,1,.35.08.39.39,0,0,1,.1.48,1.21,1.21,0,0,1-.33.42c.27,0,.45.3.45.56a3.53,3.53,0,0,1-.18.78c-.14.7.17,1.46-.09,2.13a1.55,1.55,0,0,1-.12.22,3,3,0,0,1-.72.74,8.65,8.65,0,0,1-3.33,1.8h0a8.2,8.2,0,0,1-2.57.12,26.06,26.06,0,0,1-4.69-1l-1.56-.45h0s-.61-.09-.21.47a20.84,20.84,0,0,0,2,.52,8.33,8.33,0,0,1,4.89,3.44,7.13,7.13,0,0,1,1.12,3.45,6.34,6.34,0,0,1-.33,2.41c-.09.27-.21.54-.3.81a.63.63,0,0,1-.21.36c-.24.17-.64,0-.83.18a1.66,1.66,0,0,0-.15.33c-.16.26-.56.2-.86.11l-.46-.14-2.43-.77a7.93,7.93,0,0,1-2.25-1,6,6,0,0,1-2-3.06l0-.09s0,0,0,0a2.77,2.77,0,0,1-.1-2,8,8,0,0,0,.34-.93v-.18a4.49,4.49,0,0,1,0-.7c0-.24.05-.51.08-.78h0s0-.64-.4-.51a3.77,3.77,0,0,0-.51,1.38,3.29,3.29,0,0,0,0,1,3.55,3.55,0,0,1,.07,1.41,2.37,2.37,0,0,1-.49.8l-1.88,2.34s0,0,0,0a4.21,4.21,0,0,1-1,1,4.27,4.27,0,0,1-1.65.49l-.57.09-3.08.48c-.29,0-.64.07-.83-.16a.91.91,0,0,0,.14-.73c-.26.23-.68-.08-.78-.41a3,3,0,0,0-.28-1c-.09-.12-.21-.2-.31-.31a1.92,1.92,0,0,1-.39-1.39,6.63,6.63,0,0,1,1.07-3.34v0a9.71,9.71,0,0,1,3.05-3l.5-.29h0a2.64,2.64,0,0,1,.44-.23l.32-.08h0a2.43,2.43,0,0,1,1-.08,1.73,1.73,0,0,1,.31.07c.37.12.7.37,1.07.51a3.21,3.21,0,0,0,1.31.19h.14a1.25,1.25,0,0,0,.76-.37c.38-.4-.34-.71-.92-.68a22.2,22.2,0,0,1-3.15.13A7.56,7.56,0,0,1,417,111h0a19,19,0,0,1-3.46-1.68c-.22-.12-.43-.24-.64-.38a3.06,3.06,0,0,1-.85-.79,4.47,4.47,0,0,1-.56-1.61l-.3-1.48A1.47,1.47,0,0,1,411.16,104.08Z" style="fill:#ebebeb"></path><path d="M452,277.3s-.07,1.63-.2,4-3.46,6.22-5.92,7.16,0-.87-.51-.83a7.19,7.19,0,0,0-1.52.24c-.93.2-1-1.76-1.17-2.25a1.48,1.48,0,0,0-.71-.72A11.56,11.56,0,0,1,452,277.3Z" style="fill:#ebebeb"></path><path d="M336.12,311.75l3.87,1c2.13.54,5.43,4.61,5.88,7.2s-.85-.17-.92.34a8,8,0,0,0-.05,1.54c0,.94-1.93.63-2.43.71a1.48,1.48,0,0,0-.85.55A11.55,11.55,0,0,1,336.12,311.75Z" style="fill:#ebebeb"></path><path d="M464.28,120.78s-.07,1.51-.2,3.69-3.3,5.77-5.63,6.64,0-.8-.48-.77a7.11,7.11,0,0,0-1.45.23c-.88.19-.94-1.63-1.1-2.08a1.38,1.38,0,0,0-.67-.67A10.94,10.94,0,0,1,464.28,120.78Z" style="fill:#ebebeb"></path><path d="M362.6,28.82l2.77-.18c1.52-.1,4.58,1.88,5.43,3.51s-.6.07-.54.42a6.19,6.19,0,0,0,.29,1c.22.62-1.14.83-1.45,1a1,1,0,0,0-.45.54A8,8,0,0,1,362.6,28.82Z" style="fill:#ebebeb"></path><path d="M467.88,68.33c.59-4.28-5.45-7.8-10-8.16-2.17-.18-4.41.16-6.46-.56-4.44-1.55-6.22-7.28-10.55-9.11-3.24-1.37-7-.15-10.11,1.43s-6.24,3.57-9.75,3.79c-3,.2-6.36-.93-9,.56-2,1.11-3,3.4-4.87,4.75s-4.13,1.61-6.36,1.73-4.53.14-6.56,1.07-3.7,3.07-3.28,5.26Z" style="fill:#f5f5f5"></path><path d="M473.65,172.86c.51-3.74-4.75-6.8-8.71-7.12-1.89-.16-3.85.13-5.63-.49-3.88-1.35-5.42-6.35-9.2-7.95-2.83-1.19-6.08-.13-8.82,1.25s-5.45,3.11-8.51,3.31c-2.66.17-5.55-.82-7.88.48-1.73,1-2.64,3-4.24,4.15a10.13,10.13,0,0,1-5.55,1.5,15.73,15.73,0,0,0-5.72.94c-1.77.81-3.23,2.68-2.86,4.59Z" style="fill:#f5f5f5"></path><path d="M97.89,125.13c.51-3.67-4.67-6.69-8.57-7-1.85-.15-3.78.14-5.54-.48-3.81-1.33-5.33-6.25-9-7.82-2.78-1.17-6-.12-8.67,1.23s-5.36,3.06-8.37,3.26c-2.62.16-5.46-.81-7.75.47-1.71,1-2.6,2.92-4.18,4.08a9.86,9.86,0,0,1-5.45,1.48,15.66,15.66,0,0,0-5.63.92c-1.74.8-3.18,2.64-2.82,4.52Z" style="fill:#f5f5f5"></path></g><g id="freepik--Floor--inject-138"><path d="M470.22,475.6c0,.14-98.6.26-220.21.26s-220.23-.12-220.23-.26,98.58-.26,220.23-.26S470.22,475.45,470.22,475.6Z" style="fill:#263238"></path></g><g id="freepik--Sun--inject-138"><circle cx="250" cy="162.25" r="142.83" style="fill:#FF725E"></circle><g style="opacity:0.8"><circle cx="250" cy="162.25" r="142.83" style="fill:#fff"></circle></g></g><g id="freepik--Character--inject-138"><polygon points="235.92 465.5 236.7 475.2 251.77 475.15 252.06 466.29 235.92 465.5" style="fill:#263238"></polygon><path d="M240,447v5.94s-7.19,10.68-3.89,14,15.93,0,15.93,0l-1-19.93Z" style="fill:#e0e0e0"></path><path d="M236.73,458.87s5.84,2,7.61,9.47c0,0,1.89-6.67,7.43-7.34l-.21-4.22s-6.64,1.38-7.26,5.79a4.7,4.7,0,0,0-.05.76c.09,5,.77-6.72-6-7.52Z" style="fill:#263238"></path><polygon points="273.14 465.5 272.36 475.2 257.29 475.15 257.01 466.29 273.14 465.5" style="fill:#263238"></polygon><path d="M269.05,447v5.94s7.19,10.68,3.89,14-15.93,0-15.93,0L258,447Z" style="fill:#e0e0e0"></path><path d="M272.33,458.87s-5.83,2-7.61,9.47c0,0-1.89-6.67-7.43-7.34l.21-4.22s6.64,1.38,7.27,5.79a4.72,4.72,0,0,1,0,.76c-.09,5-.77-6.72,6-7.52Z" style="fill:#263238"></path><path d="M237.1,198.37a5.93,5.93,0,0,1-4.79-2.74c-1.51-2.44-1-5.58-.43-8.38s1.26-5.86,0-8.44a12.57,12.57,0,0,1-1.48-3.07c-.19-1.13.64-2.54,1.76-2.33a2.35,2.35,0,0,1,1.34,1.09,23.62,23.62,0,0,1,4.22,12.1,46.81,46.81,0,0,1-.64,11.77" style="fill:#263238"></path><path d="M265.77,196.76c0,1.92,1.51,3.56,3.25,4.37a25.85,25.85,0,0,0,5.59,1.39,8.09,8.09,0,0,1,5,2.69c1.93,2.6,1,6.65,3.12,9.08,1.48,1.69,4,2,5.76,3.44,2.87,2.31,2.87,6.61,2.63,10.29a33.25,33.25,0,0,1-1.37,8.66,11.1,11.1,0,0,1-5.46,6.58c-3.49,1.6-7.58.59-11.2-.7-4.5-1.6-9-3.74-12-7.5-6.79-8.69-2.63-22.35-8.91-31.41" style="fill:#263238"></path><path d="M223.53,138.65c.11-.09,3.72,4,8.07,9.16s7.78,9.41,7.67,9.5-3.72-4-8.07-9.16S223.42,138.74,223.53,138.65Z" style="fill:#FF725E"></path><path d="M265.36,159.2a88.85,88.85,0,0,1,4.41-8.58,90.08,90.08,0,0,1,4.87-8.34,89.89,89.89,0,0,1-4.42,8.59A91.45,91.45,0,0,1,265.36,159.2Z" style="fill:#FF725E"></path><path d="M262.31,158.89c2-2.08,5.42-2.34,8-1.1a11.86,11.86,0,0,1,5.54,6.39,7.94,7.94,0,0,1,.68,4.53c-.32,1.54-1.33,2.84-1.85,4.33-1,2.94,0,6.32-1.09,9.25a9.26,9.26,0,0,1-5.08,5,27.37,27.37,0,0,1-7,1.74" style="fill:#263238"></path><path d="M265.38,161.4c2.66-4.26,1.58-7.93-2.86-11.09-2.92-2.07-8.22-2.19-11.44-2.07-3.83.16-6.73.85-9.19,2.92-1.8,1.5-3.67,6.08-3.67,6.08-1.76,1.51-5.94,5.46-6.74,7.63-1.5,4.09-1.56,7.08.2,11.06.77,1.73.14,3.67.83,5.44s3.87,3.87,2.88,5.48" style="fill:#263238"></path><path d="M236.88,206.62l1.4-41.46a3.35,3.35,0,0,1,3.18-3.23l18-3.52c5.71-.3,9.11,6.9,9.16,12.62.06,6.35-.12,14.12-1.13,18.8-2,9.42-9.37,10.23-9.37,10.23l-.4,7,.5,0,2.18,1.14s3.07,19.46-8.22,17.81c-4.49-.65-21.61-16.86-21.61-16.86Z" style="fill:#f9cbb7"></path><path d="M262,177.65c.12-.18,1.13.37,2.43.18s2.16-1,2.33-.83,0,.37-.41.73a3.3,3.3,0,0,1-1.83.86,3.21,3.21,0,0,1-2-.34C262.13,178,262,177.73,262,177.65Z" style="fill:#263238"></path><path d="M248.54,177.12c.16-.15,1.06.57,2.37.62s2.3-.56,2.44-.39-.1.35-.54.64a3.29,3.29,0,0,1-2,.51,3.25,3.25,0,0,1-1.87-.69C248.59,177.48,248.47,177.19,248.54,177.12Z" style="fill:#263238"></path><path d="M257.6,185.4a8,8,0,0,1,2.15-.27c.34,0,.66-.07.73-.29a1.75,1.75,0,0,0-.17-1c-.27-.83-.56-1.69-.86-2.6a44.83,44.83,0,0,1-1.86-6.79,43.67,43.67,0,0,1,2.41,6.62c.28.92.55,1.79.81,2.62a2,2,0,0,1,.1,1.32.81.81,0,0,1-.58.46,2,2,0,0,1-.57,0A9,9,0,0,1,257.6,185.4Z" style="fill:#263238"></path><path d="M258.09,200.06A24.18,24.18,0,0,1,245.55,196s2.86,6.71,12.42,6.33Z" style="fill:#e09c85"></path><path d="M254.09,172.31c-.15.35-1.45.11-3,.21s-2.82.45-3,.12c-.09-.16.15-.48.67-.8a4.88,4.88,0,0,1,2.25-.65,5,5,0,0,1,2.32.4C253.88,171.84,254.15,172.14,254.09,172.31Z" style="fill:#263238"></path><path d="M266.77,172.79c-.21.31-1.13,0-2.22.09s-2,.3-2.22,0c-.1-.14,0-.45.41-.75a3.16,3.16,0,0,1,1.78-.59,3.11,3.11,0,0,1,1.81.51C266.73,172.33,266.87,172.63,266.77,172.79Z" style="fill:#263238"></path><path d="M257.3,188.45a2.22,2.22,0,0,0-1.93-.92,2,2,0,0,0-1.43.67,1.27,1.27,0,0,0-.18,1.45,1.48,1.48,0,0,0,1.58.49,4.51,4.51,0,0,0,1.62-.85,1.2,1.2,0,0,0,.37-.34.41.41,0,0,0,0-.45" style="fill:#FF725E"></path><path d="M254.33,186.19c.2,0,.13,1.32,1.22,2.33s2.5.93,2.5,1.12-.33.24-.92.22A3.32,3.32,0,0,1,255,189a2.84,2.84,0,0,1-.93-1.95C254.08,186.49,254.24,186.17,254.33,186.19Z" style="fill:#263238"></path><path d="M266,160.77c-1.69,5.07-9.82,4.64-15.13,4a21.47,21.47,0,0,1-13.77-7.43h5.07l6.38-5.63,11.12.65S268.05,154.75,266,160.77Z" style="fill:#263238"></path><path d="M247.63,162.87c-1,.18-1.56,1.36-1.83,2.39s-.55,2.22-1.51,2.68c-.81.39-1.9.13-2.55.76a2.45,2.45,0,0,0-.5,1.73q-.19,6.38-.38,12.75c-.06,2.15-.37,4.71-2.29,5.68a4.1,4.1,0,0,1-4.34-.81,11.68,11.68,0,0,1-2.63-3.84,67.24,67.24,0,0,1-4.17-9.72,22.52,22.52,0,0,1-1.21-7.35,12.12,12.12,0,0,1,2.27-7,9.82,9.82,0,0,1,13.82-1.86" style="fill:#263238"></path><path d="M247.08,163.21c1.18,2.37.27,5.23-.94,7.57s-2.76,4.67-2.87,7.31c-.17,4.43,3.78,8.34,3.24,12.73a6.61,6.61,0,0,1-5,5.48c2.09-1.4,2.28-4.48,1.48-6.87s-4.67-8.69-5.23-11.15c-1.89-8.26-1.08-9.22,1.8-12.12" style="fill:#263238"></path><path d="M252.52,149.18a2,2,0,0,1,.83-.06,6.38,6.38,0,0,1,2.21.52,8.87,8.87,0,0,1,4.87,5.48,11.94,11.94,0,0,1-.32,7.38,13.17,13.17,0,0,1-.92,2.05c-.27.46-.44.7-.47.68s.5-1.06,1-2.85a12.34,12.34,0,0,0,.17-7.11,8.92,8.92,0,0,0-4.52-5.3A11.37,11.37,0,0,0,252.52,149.18Z" style="fill:#455a64"></path><path d="M247.22,148.16a2.37,2.37,0,0,1,.86,0,8.12,8.12,0,0,1,2.27.7,11.9,11.9,0,0,1,5.41,5.5,19.87,19.87,0,0,1,1.84,7.52c.06,1,.07,1.79,0,2.34a2.36,2.36,0,0,1-.08.86c-.08,0-.12-1.22-.33-3.17a22.24,22.24,0,0,0-2-7.32,12.22,12.22,0,0,0-5.11-5.4A15.74,15.74,0,0,0,247.22,148.16Z" style="fill:#455a64"></path><path d="M244.42,150.59a24.09,24.09,0,0,0,.9,7.22,24.93,24.93,0,0,0,3.46,6.4,6.18,6.18,0,0,1-1.52-1.57,15.62,15.62,0,0,1-3.17-9.89A5.88,5.88,0,0,1,244.42,150.59Z" style="fill:#455a64"></path><path d="M241.4,153.71c.08,0,.08.65.32,1.65a11.86,11.86,0,0,0,1.57,3.63,29.8,29.8,0,0,0,2.43,3.2,5.94,5.94,0,0,1,1,1.35c-.05.05-.55-.37-1.29-1.1a18.52,18.52,0,0,1-2.6-3.17,10,10,0,0,1-1.5-3.85A3.39,3.39,0,0,1,241.4,153.71Z" style="fill:#455a64"></path><path d="M233.13,159.12a26,26,0,0,0,13,5.23,6.2,6.2,0,0,1-2.11,0,18.47,18.47,0,0,1-9.39-3.77A6.3,6.3,0,0,1,233.13,159.12Z" style="fill:#455a64"></path><path d="M226.84,164.17a28.19,28.19,0,0,0,7.34,2,27.46,27.46,0,0,0,7.58-.63,6.76,6.76,0,0,1-2.14.76,17.16,17.16,0,0,1-5.48.39,17.53,17.53,0,0,1-5.33-1.35A6.62,6.62,0,0,1,226.84,164.17Z" style="fill:#455a64"></path><path d="M225.34,165.55a26.13,26.13,0,0,0,7.23,2,26.61,26.61,0,0,0,7.48-.64,6.76,6.76,0,0,1-2.11.77,16.69,16.69,0,0,1-10.67-1A6.53,6.53,0,0,1,225.34,165.55Z" style="fill:#455a64"></path><path d="M269,169.88a11.37,11.37,0,0,0,6.84-4.25,7.07,7.07,0,0,1-6.84,4.25Z" style="fill:#455a64"></path><path d="M269.65,168.23c0-.15,1.46-.73,2.92-2s2.25-2.71,2.39-2.64a7.2,7.2,0,0,1-5.31,4.67Z" style="fill:#455a64"></path><path d="M244,195.5s.24-.43.6-1.21a9.62,9.62,0,0,0,.84-3.51,9.14,9.14,0,0,0-1.3-5.11c-.5-.89-1.11-1.78-1.67-2.77a8.16,8.16,0,0,1-1.13-3.37A7.55,7.55,0,0,1,242,176a15.74,15.74,0,0,1,1.66-2.82,24.26,24.26,0,0,0,2.87-4.59,7,7,0,0,0,.55-3.53c-.1-.85-.34-1.29-.29-1.31s.08.1.19.31a4.33,4.33,0,0,1,.3,1,6.7,6.7,0,0,1-.41,3.69,22.68,22.68,0,0,1-2.82,4.73,16.11,16.11,0,0,0-1.58,2.76,6.91,6.91,0,0,0-.64,3.25,7.6,7.6,0,0,0,1.06,3.15c.53,1,1.14,1.87,1.64,2.79a9.31,9.31,0,0,1,1.25,5.36,9.07,9.07,0,0,1-1,3.58,5.25,5.25,0,0,1-.55.85C244.1,195.42,244,195.51,244,195.5Z" style="fill:#455a64"></path><path d="M241.43,164.51a1.33,1.33,0,0,1,.33.85,3.67,3.67,0,0,1-.7,2.37,22.9,22.9,0,0,1-2.5,2.6,6.39,6.39,0,0,0-1.69,3.79,12.28,12.28,0,0,0,2.06,7.41,32.1,32.1,0,0,1,1.69,2.84s-.24-.22-.6-.67-.84-1.12-1.41-2a16.65,16.65,0,0,1-1.66-3.23,9.93,9.93,0,0,1-.6-4.43,6.69,6.69,0,0,1,1.86-4.06,28,28,0,0,0,2.55-2.48,3.68,3.68,0,0,0,.79-2.15A5.91,5.91,0,0,0,241.43,164.51Z" style="fill:#455a64"></path><path d="M243.94,162.12a3.86,3.86,0,0,0,.72,1.58,1.52,1.52,0,0,0,1.27.71,1.48,1.48,0,0,0,.75-.37,1,1,0,0,0,.46-.81c0-.39-.46-.62-.84-.75a6.81,6.81,0,0,0-2.33-.32" style="fill:#FF725E"></path><path d="M244,162.19a4,4,0,0,1-.05,1.09,1.15,1.15,0,0,1-1.7.84,3.24,3.24,0,0,1-.88-.68c-.24-.25-.49-.58-.38-.91a.87.87,0,0,1,.56-.46,3.38,3.38,0,0,1,2.63.14" style="fill:#FF725E"></path><path d="M244,162.14a5.21,5.21,0,0,1-1.53-.61,1.76,1.76,0,0,1-.85-1.34,1.08,1.08,0,0,1,1-1.13,1.18,1.18,0,0,1,1,.62,3.55,3.55,0,0,1,.36,1.17l.24,1.27" style="fill:#FF725E"></path><path d="M244.13,162.23a2.74,2.74,0,0,1,.07-1.72c.15-.42.49-.83.93-.8a1.26,1.26,0,0,1,.68.36l.74.61a.74.74,0,0,1,.34.51c0,.28-.31.45-.58.55a11.49,11.49,0,0,1-2,.51" style="fill:#FF725E"></path><path d="M239.1,160.82a2.17,2.17,0,0,0,.42.94.91.91,0,0,0,.76.43,1,1,0,0,0,.45-.22.63.63,0,0,0,.27-.48c0-.24-.28-.38-.5-.45a3.87,3.87,0,0,0-1.39-.19" style="fill:#FF725E"></path><path d="M239.15,160.87a2.29,2.29,0,0,1,0,.64.76.76,0,0,1-.37.52.72.72,0,0,1-.64,0,1.73,1.73,0,0,1-.53-.4c-.14-.15-.29-.35-.22-.54a.48.48,0,0,1,.33-.27,2,2,0,0,1,1.57.08" style="fill:#FF725E"></path><path d="M239.12,160.83a3.06,3.06,0,0,1-.91-.35,1.08,1.08,0,0,1-.5-.8.65.65,0,0,1,.57-.68.73.73,0,0,1,.59.37,2.1,2.1,0,0,1,.21.7c0,.25.1.5.14.75" style="fill:#FF725E"></path><path d="M239.21,160.89a1.58,1.58,0,0,1,0-1c.09-.24.29-.49.55-.47a.68.68,0,0,1,.4.21l.44.37c.1.08.21.17.21.3s-.19.27-.34.33a6.3,6.3,0,0,1-1.21.3" style="fill:#FF725E"></path><path d="M242.19,156.53a2.22,2.22,0,0,0,.42.94.9.9,0,0,0,.76.42,1,1,0,0,0,.45-.22.61.61,0,0,0,.27-.48c0-.24-.28-.37-.5-.45a4.1,4.1,0,0,0-1.39-.19" style="fill:#FF725E"></path><path d="M242.24,156.57a2.35,2.35,0,0,1,0,.65.75.75,0,0,1-.37.51.75.75,0,0,1-.64,0,1.93,1.93,0,0,1-.53-.41c-.14-.15-.29-.34-.22-.54a.48.48,0,0,1,.33-.27,2,2,0,0,1,1.57.08" style="fill:#FF725E"></path><path d="M242.21,156.54a3.39,3.39,0,0,1-.91-.36,1.06,1.06,0,0,1-.5-.8.65.65,0,0,1,.57-.68.74.74,0,0,1,.59.38,2,2,0,0,1,.21.69c.05.25.1.5.14.76" style="fill:#FF725E"></path><path d="M242.3,156.59a1.55,1.55,0,0,1,0-1c.09-.25.29-.5.55-.48a.69.69,0,0,1,.4.22l.44.36c.1.08.21.18.21.3s-.19.27-.34.33a6.3,6.3,0,0,1-1.21.3" style="fill:#FF725E"></path><path d="M250.15,183.84a.28.28,0,0,1-.2-.35.29.29,0,0,1,.32-.25.31.31,0,0,1-.12.6Z" style="fill:#263238"></path><path d="M269.37,186.82a11,11,0,0,0,1.57-.41,5.16,5.16,0,0,0,3.14-5.94c-.23-1.06-.81-2.11-1.08-3.39a4.32,4.32,0,0,1,0-2,3.67,3.67,0,0,1,1.21-1.73,16.58,16.58,0,0,0,1.5-1.38,8.85,8.85,0,0,0,1.19-1.69,9.28,9.28,0,0,0,.46-7.66,8.79,8.79,0,0,0-4.41-4.53,9.65,9.65,0,0,0-4.27-.92c-1,0-1.61.2-1.62.14a1.49,1.49,0,0,1,.4-.13,5.87,5.87,0,0,1,1.21-.21,9.35,9.35,0,0,1,9.14,5.47,9.64,9.64,0,0,1-.45,8.08,9.52,9.52,0,0,1-1.26,1.8,16.62,16.62,0,0,1-1.55,1.41,3.25,3.25,0,0,0-1.07,1.49,3.74,3.74,0,0,0,0,1.79c.23,1.18.8,2.25,1,3.38a5.41,5.41,0,0,1-.26,3.15A5.27,5.27,0,0,1,271,186.6a4.86,4.86,0,0,1-1.21.24C269.52,186.86,269.37,186.84,269.37,186.82Z" style="fill:#263238"></path><path d="M244.57,184.59s-.08,0-.23-.08a3.32,3.32,0,0,1-.59-.36,5.1,5.1,0,0,1-1.58-2,5.56,5.56,0,0,1-.26-3.79,9.21,9.21,0,0,1,2.79-3.71,10.81,10.81,0,0,0,3.35-7.2,19.78,19.78,0,0,0-.24-3.4,3.42,3.42,0,0,1,.32.88,9.1,9.1,0,0,1,.28,2.53,10.7,10.7,0,0,1-.74,3.72,10.52,10.52,0,0,1-2.6,3.84,9.08,9.08,0,0,0-2.7,3.48,5.32,5.32,0,0,0,.14,3.51,5.41,5.41,0,0,0,1.37,2C244.3,184.39,244.6,184.54,244.57,184.59Z" style="fill:#263238"></path><path d="M258.3,171.75c0,.06-.52,0-1.2-.45a4.78,4.78,0,0,1-1.88-2.47,4.72,4.72,0,0,1,.07-3.1c.29-.75.65-1.11.7-1.08s-.16.47-.35,1.19a5,5,0,0,0,1.68,5.16C257.89,171.48,258.33,171.68,258.3,171.75Z" style="fill:#263238"></path><path d="M281.61,350.24c.36,5.62,1.94,12.69,7.48,13.7,5.12.93,9.13-4.33,11.15-9.12,7.54-17.88,6.37-38.07,5.06-57.42-.49-7.21-1.18-14.95-5.81-20.49-7.53-9-22.33-8.6-30.25-17.26a15.39,15.39,0,0,0-6,14.22" style="fill:#FF725E"></path><path d="M235.79,205.41c-.9.45-21.78,9-24,11s-.9,35.08-.9,35.08L226,276.64h40.28l19-55.67s-13.23-15.6-27-17.41l-10.39,14.69Z" style="fill:#FF725E"></path><path d="M211.75,216.44s-20,36.94-20,51.82c0,6.12,2.73,24.9,4.54,36.74a7,7,0,0,0,10.42,5l5.19-3L221,268.34l-10.15-16.82Z" style="fill:#FF725E"></path><path d="M271.88,260.29h0l2.75-9.58L285.3,221l5,6.3s8.28,29.47,7.12,41c-.3,3.06-6.3,25.6-6.3,25.6l-.82,18.46s-2.84,18.77-4.69,15.75-22.56-37-22.56-37Z" style="fill:#FF725E"></path><path d="M214.75,305.68,226,455.26l57.15-3.81s-1.75-123.9-1.11-133.38c1.11-16.28-12.05-45.78-12.05-45.78l-45.17,2.39Z" style="fill:#FF725E"></path><path d="M216.08,218.71a3.73,3.73,0,0,1-.72,1.58,1.24,1.24,0,0,1-2,.34,1,1,0,0,1-.46-.81c0-.39.47-.62.84-.74a6.63,6.63,0,0,1,2.34-.33" style="fill:#fafafa"></path><path d="M216,218.79a3.9,3.9,0,0,0,.06,1.08,1.14,1.14,0,0,0,1.69.84,3.45,3.45,0,0,0,.89-.68c.24-.25.49-.58.38-.91a.92.92,0,0,0-.57-.46,3.43,3.43,0,0,0-2.63.14" style="fill:#fafafa"></path><path d="M216,218.73a5,5,0,0,0,1.52-.61,1.76,1.76,0,0,0,.85-1.34,1.08,1.08,0,0,0-1-1.13,1.17,1.17,0,0,0-1,.62,3.64,3.64,0,0,0-.37,1.17c-.08.42-.15.85-.23,1.27" style="fill:#fafafa"></path><path d="M215.89,218.82a2.74,2.74,0,0,0-.06-1.72c-.16-.41-.5-.83-.94-.8a1.23,1.23,0,0,0-.67.36l-.74.61a.71.71,0,0,0-.34.51c0,.28.31.45.57.55a10.14,10.14,0,0,0,2,.51" style="fill:#fafafa"></path><path d="M226.4,223.62a3.73,3.73,0,0,1-.72,1.58,1.49,1.49,0,0,1-1.27.71,1.48,1.48,0,0,1-.75-.37,1,1,0,0,1-.46-.81c0-.39.47-.62.84-.75a6.86,6.86,0,0,1,2.34-.32" style="fill:#fafafa"></path><path d="M226.31,223.69a4.41,4.41,0,0,0,.05,1.09,1.31,1.31,0,0,0,.62.86,1.28,1.28,0,0,0,1.08,0,3.28,3.28,0,0,0,.89-.69c.24-.24.49-.57.37-.9a.85.85,0,0,0-.56-.46,3.38,3.38,0,0,0-2.63.14" style="fill:#fafafa"></path><path d="M226.36,223.64a5,5,0,0,0,1.52-.61,1.76,1.76,0,0,0,.85-1.34,1.1,1.1,0,0,0-1-1.14,1.18,1.18,0,0,0-1,.63,3.56,3.56,0,0,0-.37,1.17c-.08.42-.15.84-.23,1.27" style="fill:#fafafa"></path><path d="M226.21,223.73a2.77,2.77,0,0,0-.06-1.73c-.16-.41-.5-.82-.94-.79a1.23,1.23,0,0,0-.67.36l-.74.61a.71.71,0,0,0-.34.51c0,.28.31.45.57.55a10.85,10.85,0,0,0,2,.5" style="fill:#fafafa"></path><path d="M279.53,258a3.86,3.86,0,0,1-.72,1.58,1.5,1.5,0,0,1-1.27.71,1.48,1.48,0,0,1-.75-.37,1,1,0,0,1-.46-.81c0-.39.46-.62.84-.75a6.81,6.81,0,0,1,2.33-.32" style="fill:#fafafa"></path><path d="M279.44,258.08a4,4,0,0,0,.05,1.09,1.15,1.15,0,0,0,1.7.84,3.24,3.24,0,0,0,.88-.68c.25-.25.49-.58.38-.91a.87.87,0,0,0-.56-.46,3.38,3.38,0,0,0-2.63.14" style="fill:#fafafa"></path><path d="M279.48,258a5.21,5.21,0,0,0,1.53-.61,1.76,1.76,0,0,0,.85-1.34,1.08,1.08,0,0,0-1-1.13,1.18,1.18,0,0,0-1,.62,3.55,3.55,0,0,0-.36,1.17l-.24,1.27" style="fill:#fafafa"></path><path d="M279.34,258.12a2.74,2.74,0,0,0-.07-1.72c-.15-.42-.49-.83-.93-.8a1.26,1.26,0,0,0-.68.36l-.73.61a.72.72,0,0,0-.35.51c0,.28.31.45.58.55a11.49,11.49,0,0,0,2,.51" style="fill:#fafafa"></path><path d="M287,251.86a3.11,3.11,0,0,1-.86,1.11,1,1,0,0,1-1.64-.12.78.78,0,0,1-.21-.71c.11-.31.48-.41.8-.43a5.42,5.42,0,0,1,1.88.18" style="fill:#fafafa"></path><path d="M286.88,251.91a2.8,2.8,0,0,0-.17.86,1.06,1.06,0,0,0,.32.79,1,1,0,0,0,.85.18,2.44,2.44,0,0,0,.82-.37c.24-.14.49-.36.47-.63a.7.7,0,0,0-.36-.47,2.72,2.72,0,0,0-2.08-.38" style="fill:#fafafa"></path><path d="M286.92,251.87a4.15,4.15,0,0,0,1.31-.18,1.45,1.45,0,0,0,.91-.9.87.87,0,0,0-.53-1.06,1,1,0,0,0-.89.3,3,3,0,0,0-.51.84l-.42,1" style="fill:#fafafa"></path><path d="M286.79,251.92a2.23,2.23,0,0,0,.27-1.36c0-.35-.23-.74-.58-.8a1,1,0,0,0-.59.15l-.7.34c-.15.08-.32.17-.36.34s.16.41.35.53a8,8,0,0,0,1.48.78" style="fill:#fafafa"></path><path d="M275.77,267.44a3,3,0,0,1-.85,1.1,1.22,1.22,0,0,1-1.13.32,1.27,1.27,0,0,1-.52-.43.81.81,0,0,1-.2-.72c.1-.3.48-.4.79-.43a5.46,5.46,0,0,1,1.89.19" style="fill:#fafafa"></path><path d="M275.69,267.48a3.18,3.18,0,0,0-.16.86.93.93,0,0,0,1.17,1,2.63,2.63,0,0,0,.82-.37c.23-.15.49-.36.46-.64a.67.67,0,0,0-.35-.46,2.74,2.74,0,0,0-2.08-.39" style="fill:#fafafa"></path><path d="M275.74,267.45a4.35,4.35,0,0,0,1.3-.19,1.41,1.41,0,0,0,.92-.89.88.88,0,0,0-.54-1.07,1,1,0,0,0-.89.31,2.84,2.84,0,0,0-.5.84l-.42.95" style="fill:#fafafa"></path><path d="M275.61,267.49a2.22,2.22,0,0,0,.27-1.36c-.05-.35-.23-.74-.58-.79a1,1,0,0,0-.6.15l-.69.34c-.15.07-.32.17-.36.33s.15.41.34.54a8.46,8.46,0,0,0,1.49.78" style="fill:#fafafa"></path><path d="M284.14,236.44a3.17,3.17,0,0,1-.86,1.1,1,1,0,0,1-1.64-.12.8.8,0,0,1-.21-.71c.11-.3.48-.4.8-.43a5.42,5.42,0,0,1,1.88.18" style="fill:#fafafa"></path><path d="M284.06,236.48a3.2,3.2,0,0,0-.17.86,1,1,0,0,0,.32.79,1,1,0,0,0,.85.18,2.44,2.44,0,0,0,.82-.37c.24-.14.49-.36.47-.63a.7.7,0,0,0-.36-.47,2.72,2.72,0,0,0-2.08-.38" style="fill:#fafafa"></path><path d="M284.1,236.44a4.15,4.15,0,0,0,1.31-.18,1.43,1.43,0,0,0,.91-.9.86.86,0,0,0-.53-1.06,1,1,0,0,0-.89.3,2.8,2.8,0,0,0-.5.85c-.15.31-.29.63-.43,1" style="fill:#fafafa"></path><path d="M284,236.49a2.16,2.16,0,0,0,.27-1.36c0-.35-.23-.74-.58-.8a1,1,0,0,0-.59.15l-.69.34c-.16.08-.33.17-.37.34s.16.41.35.53a8.37,8.37,0,0,0,1.48.78" style="fill:#fafafa"></path><path d="M278.62,250.89a2.57,2.57,0,0,1-.47,1,1,1,0,0,1-.82.46.91.91,0,0,1-.49-.24.65.65,0,0,1-.3-.52c0-.26.3-.41.55-.49a4.28,4.28,0,0,1,1.51-.21" style="fill:#fafafa"></path><path d="M278.56,250.94a2.74,2.74,0,0,0,0,.7.86.86,0,0,0,.4.56.82.82,0,0,0,.7,0,2.07,2.07,0,0,0,.58-.44c.15-.16.32-.37.24-.58a.52.52,0,0,0-.36-.3,2.21,2.21,0,0,0-1.71.09" style="fill:#fafafa"></path><path d="M278.59,250.9a3.85,3.85,0,0,0,1-.39,1.15,1.15,0,0,0,.55-.88.71.71,0,0,0-.62-.73.75.75,0,0,0-.64.41,2.13,2.13,0,0,0-.24.75l-.15.83" style="fill:#fafafa"></path><path d="M278.5,251a1.79,1.79,0,0,0-.05-1.12c-.1-.27-.32-.54-.6-.52a.87.87,0,0,0-.44.24l-.48.39a.48.48,0,0,0-.22.33c0,.19.2.3.37.36a7.18,7.18,0,0,0,1.31.33" style="fill:#fafafa"></path><path d="M282,244.88a2.41,2.41,0,0,1-.46,1,1,1,0,0,1-.83.46,1.07,1.07,0,0,1-.49-.24.65.65,0,0,1-.29-.52c0-.26.3-.41.54-.49a4.31,4.31,0,0,1,1.51-.21" style="fill:#fafafa"></path><path d="M281.92,244.93a2.41,2.41,0,0,0,0,.71.81.81,0,0,0,.39.56.84.84,0,0,0,.71,0,2,2,0,0,0,.57-.44c.16-.16.32-.38.25-.59a.62.62,0,0,0-.37-.3,2.25,2.25,0,0,0-1.71.09" style="fill:#fafafa"></path><path d="M282,244.9a3.55,3.55,0,0,0,1-.4,1.11,1.11,0,0,0,.55-.87.7.7,0,0,0-.62-.73.77.77,0,0,0-.64.4,2.25,2.25,0,0,0-.24.76l-.15.83" style="fill:#fafafa"></path><path d="M281.86,245a1.79,1.79,0,0,0-.05-1.12c-.1-.27-.32-.54-.6-.52a.94.94,0,0,0-.44.23l-.48.4c-.1.09-.22.19-.22.33s.2.29.37.36a7.62,7.62,0,0,0,1.31.33" style="fill:#fafafa"></path><path d="M219.4,224.62a2,2,0,0,1-.38.85.83.83,0,0,1-.69.39.85.85,0,0,1-.41-.21.53.53,0,0,1-.24-.43c0-.21.25-.34.45-.4a3.35,3.35,0,0,1,1.26-.18" style="fill:#fafafa"></path><path d="M219.36,224.66a2.33,2.33,0,0,0,0,.59.62.62,0,0,0,.92.45,2.12,2.12,0,0,0,.48-.37.52.52,0,0,0,.2-.49.47.47,0,0,0-.31-.25,1.82,1.82,0,0,0-1.41.08" style="fill:#fafafa"></path><path d="M219.38,224.63a2.66,2.66,0,0,0,.82-.33.94.94,0,0,0,.46-.72.58.58,0,0,0-.52-.61.61.61,0,0,0-.53.33,2,2,0,0,0-.2.63l-.12.69" style="fill:#fafafa"></path><path d="M219.3,224.68a1.41,1.41,0,0,0,0-.93c-.08-.22-.26-.45-.5-.43a.63.63,0,0,0-.36.19l-.4.33a.39.39,0,0,0-.19.28c0,.15.17.24.31.29a6,6,0,0,0,1.09.28" style="fill:#fafafa"></path><path d="M221.69,219.8a2,2,0,0,1-.38.85.83.83,0,0,1-.69.39.85.85,0,0,1-.41-.21.53.53,0,0,1-.24-.43c0-.21.25-.34.45-.4a3.35,3.35,0,0,1,1.26-.18" style="fill:#fafafa"></path><path d="M221.65,219.84a2.32,2.32,0,0,0,0,.59.62.62,0,0,0,.92.45,2.12,2.12,0,0,0,.48-.37.52.52,0,0,0,.2-.49.47.47,0,0,0-.31-.25,1.82,1.82,0,0,0-1.41.08" style="fill:#fafafa"></path><path d="M221.67,219.81a2.66,2.66,0,0,0,.82-.33.94.94,0,0,0,.46-.72.58.58,0,0,0-.52-.61.61.61,0,0,0-.53.33,2,2,0,0,0-.2.63l-.12.69" style="fill:#fafafa"></path><path d="M221.59,219.86a1.41,1.41,0,0,0,0-.93c-.08-.22-.26-.45-.5-.43a.63.63,0,0,0-.36.19l-.4.33a.39.39,0,0,0-.19.28c0,.15.17.24.31.29a6,6,0,0,0,1.09.28" style="fill:#fafafa"></path><path d="M225.73,230a2.06,2.06,0,0,1-.39.85.8.8,0,0,1-.68.39.88.88,0,0,1-.41-.2.59.59,0,0,1-.25-.44c0-.21.25-.33.46-.4a3.81,3.81,0,0,1,1.26-.18" style="fill:#fafafa"></path><path d="M225.68,230a1.94,1.94,0,0,0,0,.59.71.71,0,0,0,.33.46.68.68,0,0,0,.59,0,1.51,1.51,0,0,0,.47-.37c.13-.13.27-.31.21-.49A.48.48,0,0,0,227,230a1.84,1.84,0,0,0-1.42.07" style="fill:#fafafa"></path><path d="M225.71,230a3,3,0,0,0,.82-.32A1,1,0,0,0,227,229a.58.58,0,0,0-.52-.61.62.62,0,0,0-.53.34,1.73,1.73,0,0,0-.2.62c0,.23-.08.46-.13.69" style="fill:#fafafa"></path><path d="M225.63,230.05a1.48,1.48,0,0,0,0-.93c-.08-.22-.27-.45-.5-.43a.77.77,0,0,0-.37.19l-.39.33c-.09.08-.19.17-.19.28s.17.24.31.3a6.68,6.68,0,0,0,1.09.27" style="fill:#fafafa"></path><path d="M250.4,214.87a8.68,8.68,0,0,1-.89,1.3c-.6.82-1.5,2-2.63,3.4-2.25,2.85-5.48,6.68-9.24,10.75s-7.35,7.57-10,10c-1.33,1.24-2.43,2.22-3.2,2.88a10.29,10.29,0,0,1-1.22,1,8,8,0,0,1,1.09-1.14l3.07-3c2.59-2.54,6.12-6.08,9.88-10.14s7-7.84,9.34-10.62c1.11-1.34,2-2.44,2.75-3.29A9.35,9.35,0,0,1,250.4,214.87Z" style="fill:#263238"></path><path d="M242.13,224.36a15.83,15.83,0,0,1-2.4-2c-1.43-1.31-3.34-3.19-5.33-5.37s-3.69-4.24-4.87-5.78a16.94,16.94,0,0,1-1.79-2.57,21.39,21.39,0,0,1,2.08,2.34c1.24,1.47,3,3.49,5,5.66s3.85,4.08,5.2,5.45A20.35,20.35,0,0,1,242.13,224.36Z" style="fill:#263238"></path><polygon points="224.83 274.68 219.26 265.37 271.61 261.84 268.02 274.68 224.83 274.68" style="fill:#263238"></polygon><path d="M268,274.71H224.81v0l-5.59-9.35h0l52.39-3.53v0Zm-43.2,0H268l3.58-12.79-52.28,3.52Z" style="fill:#263238"></path><path d="M274.2,242.73a2.9,2.9,0,0,1,0,.92c0,.58-.09,1.42-.19,2.46-.22,2.08-.61,4.94-1.25,8.07a78.11,78.11,0,0,1-2.64,9.88l-.23-.05a5.3,5.3,0,0,1,.31-1.27,5.63,5.63,0,0,1-.08,1.31l-.23-.05c.46-1.81,1.48-5.55,2.36-9.92.63-3.11,1.09-6,1.39-8A28,28,0,0,1,274.2,242.73Z" style="fill:#263238"></path><path d="M283.75,222.61a17,17,0,0,1-1.37,2.43c-.87,1.48-2,3.55-3.2,5.9s-2.09,4.54-2.73,6.14a20.54,20.54,0,0,1-1.1,2.57,11.62,11.62,0,0,1,.75-2.7,53.76,53.76,0,0,1,2.61-6.24,52.79,52.79,0,0,1,3.36-5.86A12.38,12.38,0,0,1,283.75,222.61Z" style="fill:#263238"></path><path d="M213.71,243.68c-.14.07-1.4-2.64-3.33-5.75s-3.77-5.46-3.65-5.56.59.48,1.36,1.42a38.26,38.26,0,0,1,2.74,3.86,37.21,37.21,0,0,1,2.22,4.18A6.7,6.7,0,0,1,213.71,243.68Z" style="fill:#263238"></path><path d="M275.88,211.94a4.09,4.09,0,0,1-.43.63l-1.3,1.75c-1.13,1.52-2.83,3.66-5,6.27s-4.81,5.63-7.86,8.91-6.52,6.76-10.28,10.3-7.51,6.73-11,9.57-6.68,5.27-9.42,7.24-5,3.54-6.59,4.56l-1.83,1.18a3.15,3.15,0,0,1-.66.38,6,6,0,0,1,.6-.47l1.78-1.26c1.55-1.07,3.77-2.67,6.48-4.68s5.88-4.49,9.34-7.32,7.14-6.07,10.91-9.58,7.22-7,10.29-10.25,5.74-6.25,7.93-8.82,3.94-4.68,5.11-6.16l1.38-1.68A4.12,4.12,0,0,1,275.88,211.94Z" style="fill:#263238"></path><path d="M283.64,220.74a4.67,4.67,0,0,1-.38.61l-1.19,1.71c-.52.74-1.16,1.64-2,2.65s-1.65,2.19-2.7,3.41-2.16,2.61-3.45,4-2.67,2.88-4.15,4.42a138.76,138.76,0,0,1-10.29,9.34,137.37,137.37,0,0,1-11.25,8.16c-1.81,1.13-3.52,2.23-5.18,3.16s-3.19,1.8-4.62,2.55-2.75,1.38-3.9,1.95-2.16,1-3,1.37l-1.91.81a3.67,3.67,0,0,1-.68.25,3.1,3.1,0,0,1,.63-.35l1.87-.9c.82-.38,1.82-.85,2.95-1.45s2.45-1.21,3.86-2,3-1.61,4.58-2.6,3.33-2,5.13-3.18c3.55-2.35,7.36-5.08,11.19-8.16s7.25-6.28,10.27-9.28c1.49-1.52,2.92-3,4.17-4.37s2.44-2.72,3.49-4,1.95-2.37,2.75-3.36,1.49-1.87,2-2.59l1.27-1.65A3.92,3.92,0,0,1,283.64,220.74Z" style="fill:#263238"></path><path d="M222.47,407a2,2,0,0,1,.2-.3l.61-.86c.52-.77,1.39-1.82,2.34-3.3a82.51,82.51,0,0,0,6.91-13.12,151,151,0,0,0,6.81-20.94c2.09-8,3.93-17,6-26.35s4.35-18.22,6.32-26.29,3.82-15.32,5.35-21.42,2.77-11,3.64-14.43c.44-1.68.78-3,1-3.92l.28-1a1.65,1.65,0,0,1,.11-.34,1.68,1.68,0,0,1-.06.36c-.06.25-.13.59-.23,1l-.92,3.94c-.83,3.45-2,8.39-3.49,14.47l-5.23,21.45c-2,8.08-4.26,16.92-6.28,26.29s-3.9,18.31-6,26.36a147.22,147.22,0,0,1-6.95,21,78.56,78.56,0,0,1-7.08,13.1c-1,1.46-1.87,2.5-2.42,3.24l-.65.83A2.27,2.27,0,0,1,222.47,407Z" style="fill:#263238"></path><path d="M234.58,296.83c-.14,0,1-5.44,2.57-12.08s2.94-12,3.08-12-1,5.44-2.57,12.08S234.72,296.86,234.58,296.83Z" style="fill:#263238"></path><path d="M228,288.5a11.24,11.24,0,0,1,.66-2.61,40.21,40.21,0,0,1,2.5-6,41,41,0,0,1,3.41-5.55,10.88,10.88,0,0,1,1.73-2.06,18.38,18.38,0,0,1-1.43,2.27,62.13,62.13,0,0,0-3.25,5.57c-1.14,2.25-2,4.35-2.62,5.9A17.58,17.58,0,0,1,228,288.5Z" style="fill:#263238"></path><path d="M276.66,242.61a1.82,1.82,0,0,1-.07.49c-.08.38-.18.84-.29,1.4-.27,1.21-.68,2.95-1.2,5.1-1.05,4.3-2.58,10.22-4.41,16.72s-3.62,12.35-5,16.56c-.68,2.11-1.24,3.81-1.65,5l-.48,1.34a1.59,1.59,0,0,1-.2.46,2.32,2.32,0,0,1,.1-.49c.11-.37.24-.83.39-1.37.37-1.27.87-3,1.48-5,1.26-4.24,3-10.1,4.83-16.59s3.41-12.4,4.55-16.67l1.36-5.06c.16-.55.28-1,.39-1.37A1.49,1.49,0,0,1,276.66,242.61Z" style="fill:#263238"></path><g style="opacity:0.4"><path d="M263.45,289.48c1.24,12.08,6.08,26.9,9.53,39.39,1.3,4.75,2.76,9.74,6.34,13.12,1.31,1.23,3.27,2.23,4.86,1.38s1.83-2.71,1.88-4.38c.26-9.14-3.72-17.88-8.48-25.69s-10.39-15.47-14.13-23.82"></path></g><path d="M297,258.14s0,.08.07.25.1.44.16.74a18.8,18.8,0,0,1,.43,2.91,34.2,34.2,0,0,1-.84,10.74c-.91,4.48-2.79,9.6-4.28,15.41a42.19,42.19,0,0,0-1.36,9.26c0,3.25.19,6.65.31,10.12.29,6.93.49,13.57.16,19.59-.16,3-.45,5.87-.85,8.52a27.39,27.39,0,0,1-1.79,7.26,7.69,7.69,0,0,1-2,2.66,4,4,0,0,1-2.8.91,4.09,4.09,0,0,1-2.36-1,7,7,0,0,1-1.37-1.65,13.29,13.29,0,0,1-1.23-2.67c-.11-.32-.19-.56-.23-.73a.8.8,0,0,1-.06-.25s.13.32.38.94a15.63,15.63,0,0,0,1.31,2.6,7,7,0,0,0,1.36,1.57,3.79,3.79,0,0,0,2.22.89,3.62,3.62,0,0,0,2.57-.88,7.33,7.33,0,0,0,1.82-2.55,27.43,27.43,0,0,0,1.7-7.17c.38-2.64.66-5.48.8-8.48.3-6,.09-12.61-.2-19.55-.12-3.48-.34-6.85-.3-10.15a41.74,41.74,0,0,1,1.41-9.37c1.52-5.84,3.43-10.93,4.38-15.37a35.55,35.55,0,0,0,1-10.65,23.63,23.63,0,0,0-.33-2.9c-.05-.3-.08-.55-.11-.75A1,1,0,0,1,297,258.14Z" style="fill:#263238"></path><path d="M284.51,320.47a7.13,7.13,0,0,1-.6-1.3c-.35-.85-.87-2.07-1.54-3.56a103,103,0,0,0-5.92-11.32,104,104,0,0,0-7.3-10.48c-1-1.29-1.86-2.31-2.45-3a7.38,7.38,0,0,1-.87-1.13,7.35,7.35,0,0,1,1,1c.64.66,1.53,1.66,2.58,2.91A86.44,86.44,0,0,1,276.9,304a85.31,85.31,0,0,1,5.81,11.44c.63,1.52,1.1,2.76,1.39,3.64A8.41,8.41,0,0,1,284.51,320.47Z" style="fill:#263238"></path><path d="M289.31,298.86a5.37,5.37,0,0,1-.95-.64,29,29,0,0,1-2.39-2,41.58,41.58,0,0,1-11.16-17.05c-.42-1.24-.71-2.27-.87-3a5.36,5.36,0,0,1-.2-1.13c.09,0,.5,1.55,1.42,4A46.4,46.4,0,0,0,286.22,296C288.09,297.78,289.37,298.78,289.31,298.86Z" style="fill:#263238"></path><g style="opacity:0.30000000000000004"><path d="M236.88,274.68a90.29,90.29,0,0,0-5.06,17.2,4.93,4.93,0,0,0-.11,2.19,1.76,1.76,0,0,0,1.52,1.38c1,0,1.68-1.1,2-2.08,1.87-6.48,2.71-11.84,4.59-18.69"></path></g><g style="opacity:0.30000000000000004"><path d="M222.74,411.83c4.33-.74,6-5.15,8.65-8.62,13.71-17.73,19.6-40.27,22.78-62.45s3.89-44.26,9-66.08H262c-7,24.18-12.19,46-16.77,68-4.82,23.17-8.54,45.35-22.8,64.25"></path></g><g style="opacity:0.30000000000000004"><path d="M280.82,345.2c-1.69,3.59,2.09,8,6.05,7.87s7.22-3.52,8.48-7.28,1-7.83.75-11.79a419.4,419.4,0,0,1,.42-56.83c-6.77,7.83-7.9,19-7.34,29.37s2.49,20.78.6,30.95a12.8,12.8,0,0,1-2.38,6,5.5,5.5,0,0,1-5.81,2"></path></g><g style="opacity:0.30000000000000004"><path d="M222.63,243.59a99.07,99.07,0,0,1,24.9-25.81,172.71,172.71,0,0,1-23.84,25.48"></path></g><path d="M196.36,270.49a2.17,2.17,0,0,1,.27-.72,14.52,14.52,0,0,1,1-1.8,15.13,15.13,0,0,1,5-4.69,12.66,12.66,0,0,1,6.65-1.67,9.28,9.28,0,0,1,2.07.29c.47.13.73.23.72.27s-1.07-.22-2.8-.19a13.45,13.45,0,0,0-6.38,1.75,16.69,16.69,0,0,0-5,4.45C196.93,269.57,196.44,270.53,196.36,270.49Z" style="fill:#263238"></path><g style="opacity:0.30000000000000004"><path d="M212,262.18q-1.8,15.46-3.59,30.93a33.64,33.64,0,0,0-.33,6.49,11.22,11.22,0,0,0,2.15,6c.12.15.27.31.46.3s.39-.29.47-.53c2.12-6.42,2.78-12.25,4.89-18.67s3.21-14.46,5.21-20.39"></path></g><path d="M211.33,307.36a1.22,1.22,0,0,1-.44-.16,4,4,0,0,1-1.07-.81,5.8,5.8,0,0,1-1.13-1.81,8.94,8.94,0,0,1-.56-2.76c-.09-4.14.12-9.82.56-16.09s1.12-11.93,1.71-16c.3-2,.57-3.69.77-4.82a13.71,13.71,0,0,1,.37-1.75,10.14,10.14,0,0,1-.17,1.78c-.15,1.23-.36,2.86-.6,4.83-.5,4.09-1.12,9.74-1.56,16s-.7,11.94-.71,16a7,7,0,0,0,1.47,4.45A6,6,0,0,0,211.33,307.36Z" style="fill:#263238"></path><path d="M204.76,299.44a7.42,7.42,0,0,1-.2-1.48c-.1-1-.19-2.35-.24-4.07a76.95,76.95,0,0,1,4-26.47c.56-1.62,1.05-2.93,1.43-3.81a9.48,9.48,0,0,1,.63-1.36,6.8,6.8,0,0,1-.44,1.43c-.32.9-.76,2.22-1.26,3.86a87.82,87.82,0,0,0-4,26.35c0,1.71,0,3.1.07,4.05A9.7,9.7,0,0,1,204.76,299.44Z" style="fill:#263238"></path><rect x="218.86" y="103.63" width="3.37" height="146.71" style="fill:#263238"></rect><path d="M222.26,250.36h-3.42V103.61h3.42Zm-3.37-.05h3.32V103.66h-3.32Z" style="fill:#263238"></path><path d="M213.09,259.26c-.15-.46-1.23-11.24-1.23-11.24l7.39-4.62,8.17,3.69s1.2,2,0,2.91l-1.85-.46,1.37,3.85s.14.37-1.14.69l-.46,2.29-1.24-.19.46,2.48s-.46.87-1.28,0a2.65,2.65,0,0,0-1.38-.87l-1.6.41s.87,6.34-.4,8.29c-.91,1.41-10.05,12.23-9.87,12.59l2.21-16.71Z" style="fill:#f9cbb7"></path><path d="M220.93,87.05S128,117.56,130.75,119L311,116.72Z" style="fill:#FF725E"></path><path d="M276.66,117.14a.94.94,0,0,1-.3-.13l-.86-.43-3.26-1.71-12-6.37L220.81,87.28h.25l-.4.21L181,108.9l-12.07,6.44-3.29,1.73-.86.43a1.43,1.43,0,0,1-.3.14s.09-.07.28-.18l.83-.49,3.25-1.81,12-6.58L220.41,87l.4-.22.12-.07.13.07,39.38,21.36,11.89,6.51,3.22,1.8.83.48Z" style="fill:#263238"></path><path d="M220.93,87.05c.14,0-.71,6.92-1.9,15.4s-2.27,15.36-2.41,15.34.71-6.92,1.9-15.41S220.79,87,220.93,87.05Z" style="fill:#263238"></path><path d="M266.41,330.73c-1.08,1-3.31.69-4.16.34-1.65.71-3,.62-2.8-.8-1.32.55-2.18-1.24-1.27-2.14,2.36-1.66,4.53-3.21,4.42-3.38,0-.76,4.14-7.36-.17-7.26-1,1.07-3.88,5.23-5.68,2.77,2.43-3.17,6-8.68,11.61-9.93,0,0,2.32-8.29,2.32-8.3l6.9,11.27s-1.77,10.19-6.23,16.44C270.21,330.75,266.58,330.71,266.41,330.73Z" style="fill:#f9cbb7"></path><path d="M267.29,321.68c.08,4-3.84,8.3-7.84,8.43C264,328.54,266,326.27,267.29,321.68Z" style="fill:#e09c85"></path><path d="M269.39,323.18c.37,3.88-3.76,7-7.07,7.9C265.86,328.79,268.39,327.88,269.39,323.18Z" style="fill:#e09c85"></path><path d="M271.66,325.1c-.14,1.46-2.09,5.84-5.26,5.62C269.66,329.65,270.15,327.5,271.66,325.1Z" style="fill:#e09c85"></path></g><g id="freepik--Plants--inject-138"><path d="M359.77,441.7s18.34,2,24-4.36C383.8,437.34,371,435,359.77,441.7Z" style="fill:#FF725E"></path><path d="M383.39,404.91a26.06,26.06,0,0,0-4.57,18C385.61,417.17,383.39,404.91,383.39,404.91Z" style="fill:#FF725E"></path><path d="M395.8,400.4a26.12,26.12,0,0,0-2.11-18.46C389.37,389.72,395.8,400.4,395.8,400.4Z" style="fill:#FF725E"></path><path d="M387.38,393a26,26,0,0,0-17.76-5.43C375,394.65,387.38,393,387.38,393Z" style="fill:#FF725E"></path><path d="M387.77,387.31a20.53,20.53,0,0,0,1.4-14.58C384.56,378,387.77,387.31,387.77,387.31Z" style="fill:#FF725E"></path><path d="M427.39,388.71c-15.23-.14-26.25,10.1-26.25,10.1C413.27,402.17,427.39,388.71,427.39,388.71Z" style="fill:#FF725E"></path><path d="M403.39,386.78c4.95-15.1-5.23-36.53-5.23-36.53-3,19.61,5.23,36.53,5.23,36.53" style="fill:#FF725E"></path><path d="M411.53,350.49a42.47,42.47,0,0,0-.67,23.39C415.69,364.62,411.53,350.49,411.53,350.49Z" style="fill:#FF725E"></path><path d="M408.72,383.16c11.52,1.88,20.67-7.57,20.67-7.57C414.82,375.65,408.72,383.16,408.72,383.16Z" style="fill:#FF725E"></path><path d="M422.56,427.12a26,26,0,0,0-16.65-8.24C410.1,426.73,422.56,427.12,422.56,427.12Z" style="fill:#FF725E"></path><path d="M392.2,424.15a17,17,0,0,0,5.18,10.54C398.32,429.39,392.2,424.15,392.2,424.15Z" style="fill:#FF725E"></path><path d="M394.09,422.9A20.57,20.57,0,0,0,406.81,429C403.74,423.3,394.09,422.9,394.09,422.9Z" style="fill:#FF725E"></path><path d="M366.83,422c0-6.06-3.82-12-3.82-12C362.44,418.4,366.83,422,366.83,422Z" style="fill:#FF725E"></path><path d="M356.87,426.58c7.2,2.07,10.94-1.58,10.94-1.58C362.56,423.87,356.87,426.58,356.87,426.58Z" style="fill:#FF725E"></path><path d="M365.8,405c1.91,7.19,6.48,9.26,6.48,9.26C370.6,409.11,365.8,405,365.8,405Z" style="fill:#FF725E"></path><path d="M375.51,474.52a1.36,1.36,0,0,1,0-.3l.12-.86c.12-.8.28-1.9.49-3.31s.49-3.2.89-5.23.78-4.35,1.36-6.88q.42-1.9.87-4c.31-1.38.69-2.81,1.06-4.3.7-3,1.62-6.11,2.54-9.42,2-6.6,4.35-13.78,7.23-21.17s6-14.3,9-20.49l2.23-4.5c.73-1.46,1.49-2.84,2.2-4.2,1.4-2.72,2.81-5.19,4.08-7.46s2.49-4.28,3.53-6.07,2-3.29,2.76-4.52l1.78-2.83.48-.73a1.47,1.47,0,0,1,.18-.24,1.6,1.6,0,0,1-.14.27l-.43.76c-.41.69-1,1.65-1.7,2.88s-1.67,2.76-2.68,4.56-2.24,3.81-3.46,6.1-2.64,4.76-4,7.48c-.7,1.36-1.45,2.75-2.17,4.21s-1.46,3-2.21,4.5c-3,6.19-6.07,13.08-8.95,20.47s-5.27,14.54-7.25,21.11c-.93,3.3-1.87,6.43-2.59,9.4-.37,1.48-.75,2.9-1.08,4.28s-.61,2.71-.9,4c-.6,2.52-1,4.84-1.43,6.86s-.74,3.77-1,5.2l-.59,3.29c-.07.36-.12.64-.16.86A1.09,1.09,0,0,1,375.51,474.52Z" style="fill:#263238"></path><path d="M412.15,415.19c0,.14-5.22,2.07-11.75,4.33s-11.88,4-11.93,3.83,5.22-2.07,11.76-4.33S412.1,415.05,412.15,415.19Z" style="fill:#263238"></path><path d="M384.36,436.1c-.09.12-5.92-4.29-13-9.83s-12.79-10.14-12.7-10.25,5.92,4.29,13,9.84S384.44,436,384.36,436.1Z" style="fill:#263238"></path><path d="M378.91,431.85a22.57,22.57,0,0,1-1-3.33c-.56-2.07-1.29-4.95-2.08-8.13s-1.46-6.08-1.93-8.17a22.38,22.38,0,0,1-.65-3.43,23.57,23.57,0,0,1,1,3.34c.56,2.07,1.29,4.95,2.08,8.13s1.46,6.08,1.93,8.17A22.64,22.64,0,0,1,378.91,431.85Z" style="fill:#263238"></path><path d="M396.15,404.5a4.14,4.14,0,0,1-.65-.84c-.4-.56-.95-1.38-1.62-2.41-1.35-2-3.17-4.9-5.12-8.08s-3.67-6.1-4.86-8.24c-.59-1.08-1.06-1.95-1.37-2.56a4,4,0,0,1-.43-1,4.2,4.2,0,0,1,.61.88l1.51,2.47,5,8.16,5,8.16,1.48,2.49A4,4,0,0,1,396.15,404.5Z" style="fill:#263238"></path><path d="M346.1,405.59s4.39,11.16,15.06,12.22A21.62,21.62,0,0,0,346.1,405.59Z" style="fill:#FF725E"></path><path d="M428.51,411.9s-11.5-3.41-18.9,4.34A21.58,21.58,0,0,0,428.51,411.9Z" style="fill:#FF725E"></path><path d="M414,402.91s-11.26,4.12-12.58,14.75A21.61,21.61,0,0,0,414,402.91Z" style="fill:#FF725E"></path><path d="M368.21,393s-2.65,11.69,5.57,18.57A21.58,21.58,0,0,0,368.21,393Z" style="fill:#FF725E"></path><path d="M373.35,365.87s.15,14,11.31,19.54A25.13,25.13,0,0,0,373.35,365.87Z" style="fill:#FF725E"></path><path d="M434.35,349.14s-17.4,5.56-20.08,21.65A32.88,32.88,0,0,0,434.35,349.14Z" style="fill:#FF725E"></path><path d="M113,439.76a26.07,26.07,0,0,1,6.94-17.23C122,431.17,113,439.76,113,439.76Z" style="fill:#FF725E"></path><path d="M123.07,434.88a26.06,26.06,0,0,1,18.57-.51C134.55,439.74,123.07,434.88,123.07,434.88Z" style="fill:#FF725E"></path><path d="M124.22,429.28a20.58,20.58,0,0,1,2.52-14.44C129.78,421.18,124.22,429.28,124.22,429.28Z" style="fill:#FF725E"></path><path d="M85.27,409.06c14.72,3.92,22.62,16.72,22.62,16.72C95.31,425.79,85.27,409.06,85.27,409.06Z" style="fill:#FF725E"></path><path d="M108.79,415.1c-.77-15.87,14.74-33.83,14.74-33.83-2.34,19.7-14.74,33.83-14.74,33.83" style="fill:#FF725E"></path><path d="M108.71,369.9a42.48,42.48,0,0,1-5.58,22.73C100.94,382.43,108.71,369.9,108.71,369.9Z" style="fill:#FF725E"></path><path d="M102.73,402.14c-11.6-1.24-17.91-12.79-17.91-12.79C98.85,393.29,102.73,402.14,102.73,402.14Z" style="fill:#FF725E"></path><path d="M77.71,450.66A26.05,26.05,0,0,1,96,447.15C89.82,453.59,77.71,450.66,77.71,450.66Z" style="fill:#FF725E"></path><path d="M107.77,455.87a17.08,17.08,0,0,1-7.8,8.78C100.47,459.3,107.77,455.87,107.77,455.87Z" style="fill:#FF725E"></path><path d="M106.28,454.16a20.6,20.6,0,0,1-13.88,2.47C96.87,452,106.28,454.16,106.28,454.16Z" style="fill:#FF725E"></path><path d="M112.21,475.52a.64.64,0,0,1,0-.24l0-.69v-2.66c0-1.15,0-2.56,0-4.2s0-3.51-.11-5.57c-.1-4.13-.4-9-.82-14.47s-1.13-11.4-2-17.63c-1.83-12.46-4.34-23.6-6.35-31.6-1-4-1.87-7.23-2.5-9.46l-.69-2.56c-.07-.27-.12-.49-.17-.67s0-.24,0-.24a.9.9,0,0,1,.1.22c0,.18.13.39.21.66.2.62.46,1.47.79,2.54.68,2.21,1.59,5.42,2.66,9.42A295.58,295.58,0,0,1,109.69,430c.91,6.24,1.55,12.21,2,17.66s.65,10.37.7,14.5c.07,2.06,0,3.93,0,5.58s0,3-.06,4.2-.07,2-.09,2.66l0,.69A.75.75,0,0,1,112.21,475.52Z" style="fill:#263238"></path><path d="M90.92,441.93c.08-.12,4.77,2.95,10.47,6.86s10.26,7.18,10.18,7.3-4.77-3-10.48-6.87S90.83,442.05,90.92,441.93Z" style="fill:#263238"></path><path d="M111.57,443.62s.23-.31.72-.79l2.09-2,7-6.54,7-6.54,2.12-2c.5-.46.79-.71.82-.68a5.14,5.14,0,0,1-.68.82c-.46.51-1.14,1.23-2,2.11-1.72,1.74-4.14,4.1-6.87,6.65s-5.24,4.82-7.08,6.43c-.92.81-1.68,1.46-2.2,1.89A4.07,4.07,0,0,1,111.57,443.62Z" style="fill:#263238"></path><path d="M76,434.41s12-.23,17.06,9.21A21.58,21.58,0,0,1,76,434.41Z" style="fill:#FF725E"></path><path d="M92.4,429.6s9.76,7,8.2,17.56A21.56,21.56,0,0,1,92.4,429.6Z" style="fill:#FF725E"></path><path d="M143.82,412.44s-3.85,13.42-16.09,15.83A25.11,25.11,0,0,1,143.82,412.44Z" style="fill:#FF725E"></path><path d="M87.07,362.54s15.3,10,13.6,26.21A32.87,32.87,0,0,1,87.07,362.54Z" style="fill:#FF725E"></path><path d="M138,451.3a5.7,5.7,0,0,1-1,.79c-.66.48-1.6,1.2-2.74,2.1A66.84,66.84,0,0,0,119.11,471c-.78,1.24-1.39,2.25-1.79,3a5.91,5.91,0,0,1-.69,1.07,6,6,0,0,1,.51-1.17c.35-.74.91-1.78,1.66-3a58.65,58.65,0,0,1,6.77-9.22A57.94,57.94,0,0,1,134,453.9c1.18-.87,2.16-1.55,2.85-2A5.71,5.71,0,0,1,138,451.3Z" style="fill:#263238"></path><path d="M124.67,461.26A26.09,26.09,0,0,1,128.18,443C129.83,454.4,124.67,461.26,124.67,461.26Z" style="fill:#FF725E"></path><path d="M135,455.65a19,19,0,0,1,13.36-2.07C140.93,457.5,135,455.65,135,455.65Z" style="fill:#FF725E"></path></g><g id="freepik--Mountain--inject-138"><path d="M476,227.51s-.45,0-1.31-.06-2.14-.16-3.81-.32c-3.35-.32-8.28-.88-14.58-1.9s-14-2.49-22.79-4.73a217.51,217.51,0,0,1-29.27-9.62l-4-1.66-4-1.88c-1.35-.65-2.74-1.26-4.1-2L388,203.27l-8.48-4.35-8.72-4.68c-11.8-6.41-24.26-13.54-37.12-21.45s-26.14-16.59-39.63-26q-5.06-3.52-10.16-7.15c-1.7-1.21-3.41-2.43-5.13-3.64-.86-.61-1.72-1.23-2.59-1.81l-1.31-.89c-.44-.27-.88-.53-1.33-.78a12.54,12.54,0,0,0-3.06-.33c-1.06,0-2.12,0-3.18.05-2.13.07-4.27.2-6.41.36-4.29.31-8.6.7-12.93,1.14-7.24.73-14.4,1.54-21.11,2.37l.13-.06a595.09,595.09,0,0,1-75.61,50.22,615.1,615.1,0,0,1-66,32C66.1,226.27,50.22,231.65,39.19,235l-7.35,2.18-5.4,1.48-3.34.85L22,239.8l1.13-.3,3.33-.89,5.39-1.53,7.33-2.22C50.14,231.41,66,226,85.19,218a623,623,0,0,0,65.9-32.1,601.66,601.66,0,0,0,75.52-50.22l.06-.05h.07c6.71-.82,13.87-1.64,21.12-2.37,4.33-.43,8.65-.83,12.94-1.14,2.15-.16,4.29-.29,6.43-.36,1.07,0,2.14-.05,3.21,0a11.81,11.81,0,0,1,3.25.37c.48.26.95.54,1.41.82l1.32.89c.88.59,1.74,1.21,2.6,1.81l5.13,3.65q5.1,3.63,10.15,7.15c13.48,9.38,26.74,18.07,39.59,26s25.29,15.06,37.07,21.48l8.71,4.69,8.48,4.37,4.11,2.11c1.35.7,2.74,1.31,4.08,2l4,1.89,4,1.66a217.73,217.73,0,0,0,29.2,9.68c8.78,2.26,16.45,3.75,22.75,4.81s11.22,1.64,14.56,2Z" style="fill:#263238"></path></g></svg>