<svg xmlns="http://www.w3.org/2000/svg" viewBox="0 0 500 500"><g id="freepik--background-simple--inject-371"><path d="M443.1,125.6q-2.43-4-5.05-7.91C414.68,83.36,375.78,59.85,338,49.2a215.09,215.09,0,0,0-50.54-7.73c-111.35-4-152.25,87.75-188.13,111.43s-90.92,64.1-84,149c5.24,64.58,42,126.32,109.07,154.42a190.22,190.22,0,0,0,23.28,8,222.05,222.05,0,0,0,49.18,7.55c50.72,2.26,91.91-10,132.2-40.75,9.36-7.16,18.68-15.24,30.83-16.12,8.84-.64,17.21,2.53,8,11.07-10.85,10,1.67,29.77,29.22,16.06,46-22.9,64.94-72.31,73.85-122.55C481.85,258,476.54,181.29,443.1,125.6Z" style="fill:#92E3A9"></path><path d="M443.1,125.6q-2.43-4-5.05-7.91C414.68,83.36,375.78,59.85,338,49.2a215.09,215.09,0,0,0-50.54-7.73c-111.35-4-152.25,87.75-188.13,111.43s-90.92,64.1-84,149c5.24,64.58,42,126.32,109.07,154.42a190.22,190.22,0,0,0,23.28,8,222.05,222.05,0,0,0,49.18,7.55c50.72,2.26,91.91-10,132.2-40.75,9.36-7.16,18.68-15.24,30.83-16.12,8.84-.64,17.21,2.53,8,11.07-10.85,10,1.67,29.77,29.22,16.06,46-22.9,64.94-72.31,73.85-122.55C481.85,258,476.54,181.29,443.1,125.6Z" style="fill:#fff;opacity:0.7000000000000001"></path></g><g id="freepik--Plants--inject-371"><path d="M443.5,362.29a14.49,14.49,0,0,0,4.25.47s-.65-2-.71-2.09c-.66-1.39-2.75-3.67-4.45-3.44a2,2,0,0,0-1.63,2.55A4.26,4.26,0,0,0,443.5,362.29Z" style="fill:#263238"></path><path d="M444.54,371a14.11,14.11,0,0,0,4.18-.65,36.56,36.56,0,0,0,1.64,4.51c.37.86.76,1.71,1.18,2.56-.25-.36-.47-.68-.51-.72-1-1.16-3.62-2.81-5.2-2.14a2,2,0,0,0-.9,2.89,4.22,4.22,0,0,0,3.11,1.75,13.51,13.51,0,0,0,4.07-.62l.48,1c.78,1.55,1.56,3.1,2.29,4.64.25.54.48,1.08.72,1.63l-.44-.63c-1-1.16-3.63-2.81-5.21-2.14a2,2,0,0,0-.9,2.89,4.24,4.24,0,0,0,3.12,1.75,12.93,12.93,0,0,0,3.95-.59c.23.56.45,1.13.64,1.68.12.38.26.74.36,1.13s.22.77.32,1.15c.18.73.37,1.49.52,2.21.11.5.21,1,.31,1.46-.25-.54-.76-1.6-.81-1.68-.82-1.3-3.16-3.33-4.82-2.9a2,2,0,0,0-1.33,2.72,4.24,4.24,0,0,0,2.81,2.2,14.07,14.07,0,0,0,4.21,0c.16.8.31,1.57.44,2.31.07.39.13.76.19,1.12H460c-.08-.42-.16-.85-.25-1.31-.16-.81-.34-1.67-.54-2.56a22,22,0,0,0,2.34-1.1,15,15,0,0,0,3.43,2.21c-.31.75-.61,1.48-.91,2.17l-.27.59h1.12a1.19,1.19,0,0,0,.08-.2c.32-.76.64-1.58,1-2.43a14.25,14.25,0,0,0,4.2.32,4.22,4.22,0,0,0,3-2A2,2,0,0,0,472,391.4c-1.63-.54-4.11,1.31-5,2.54-.06.07-.55.93-.86,1.47.13-.34.26-.68.39-1,.26-.71.5-1.42.76-2.19.11-.37.23-.75.34-1.14s.2-.79.31-1.19c.22-.93.4-1.88.56-2.84a13.52,13.52,0,0,0,4,.91,4.27,4.27,0,0,0,3.24-1.51,2,2,0,0,0-.68-3c-1.53-.79-4.27.66-5.35,1.75-.07.06-.77.93-1.14,1.41.09-.58.19-1.16.26-1.75.21-1.7.37-3.43.54-5.16.05-.53.11-1.06.17-1.58a14.23,14.23,0,0,0,4.12,1,4.28,4.28,0,0,0,3.24-1.51,2,2,0,0,0-.69-2.95c-1.52-.79-4.26.66-5.35,1.75-.08.08-1.08,1.32-1.31,1.65.12-1.16.25-2.31.43-3.45a36,36,0,0,1,1-4.53,14.79,14.79,0,0,0,4.14,1,4.23,4.23,0,0,0,3.24-1.52,2,2,0,0,0-.68-2.94c-1.53-.79-4.27.66-5.35,1.74-.09.09-1.16,1.43-1.33,1.68l.06-.26a27.34,27.34,0,0,1,1.8-4.29c.39-.77.81-1.48,1.23-2.16a13.6,13.6,0,0,0,3.92,1.38,4.23,4.23,0,0,0,3.39-1.15,2,2,0,0,0-.36-3c-1.43-.95-4.31.19-5.51,1.14-.06.06-.67.66-1.1,1.1l.58-.91c.72-1.08,1.44-2,2.09-2.86.37-.47.72-.89,1.05-1.28a13.58,13.58,0,0,0,4.1-.58,4.26,4.26,0,0,0,2.47-2.58A2,2,0,0,0,483,352c-1.71-.19-3.74,2.15-4.36,3.55-.06.13-.68,2.12-.65,2.12h0c-.33.36-.67.76-1,1.2-.66.82-1.41,1.76-2.16,2.83a38.14,38.14,0,0,0-2.24,3.57,27.26,27.26,0,0,0-1.91,4.3l0,.06c0-.51,0-1.91,0-2-.2-1.52-1.47-4.35-3.16-4.66a2,2,0,0,0-2.35,1.91,4.25,4.25,0,0,0,1.63,3.18,14.22,14.22,0,0,0,3.85,1.77,37.75,37.75,0,0,0-1.13,4.66q-.24,1.38-.42,2.79c0-.44,0-.83,0-.88-.2-1.52-1.48-4.35-3.17-4.66a2,2,0,0,0-2.34,1.91,4.25,4.25,0,0,0,1.63,3.18,13.38,13.38,0,0,0,3.74,1.73c0,.36-.09.72-.14,1.07-.2,1.73-.4,3.45-.65,5.13-.08.6-.19,1.18-.3,1.76,0-.39,0-.71,0-.76-.19-1.53-1.47-4.35-3.16-4.66a2,2,0,0,0-2.34,1.91,4.22,4.22,0,0,0,1.63,3.18,12.88,12.88,0,0,0,3.63,1.69c-.13.59-.25,1.19-.4,1.75-.11.39-.19.77-.32,1.15s-.25.76-.37,1.13c-.25.71-.52,1.44-.79,2.13-.18.48-.36.93-.55,1.39.1-.59.25-1.75.26-1.85a8,8,0,0,0-1.06-3.84,3.4,3.4,0,0,0,0-.45,2,2,0,0,0-2.49-1.72c-1.66.44-2.71,3.35-2.79,4.88,0,.09.06,1.08.1,1.7-.08-.36-.16-.71-.25-1.08-.17-.74-.37-1.46-.57-2.25-.12-.37-.23-.75-.35-1.13s-.27-.77-.4-1.16c-.33-.9-.7-1.8-1.1-2.69a13.34,13.34,0,0,0,3.83-1.43,4.24,4.24,0,0,0,1.86-3.05,2,2,0,0,0-2.19-2.08c-1.71.18-3.19,2.9-3.5,4.4,0,.1-.13,1.2-.17,1.81-.24-.54-.48-1.07-.75-1.6-.76-1.54-1.58-3.07-2.39-4.61-.25-.46-.5-.94-.74-1.41a14.09,14.09,0,0,0,4-1.46,4.24,4.24,0,0,0,1.86-3.05,2,2,0,0,0-2.19-2.09c-1.71.19-3.19,2.91-3.5,4.41,0,.12-.17,1.7-.18,2.11-.54-1-1.07-2.07-1.55-3.12a34.41,34.41,0,0,1-1.67-4.33,14.39,14.39,0,0,0,4-1.47,4.24,4.24,0,0,0,1.86-3.05,2,2,0,0,0-2.19-2.08c-1.71.18-3.19,2.9-3.5,4.41,0,.11-.18,1.82-.18,2.13A2,2,0,0,1,449,370a25.66,25.66,0,0,1-.87-4.57c-.1-.85-.14-1.67-.17-2.47a14.18,14.18,0,0,0,4-1,4.3,4.3,0,0,0,2.19-2.83,2,2,0,0,0-2-2.31c-1.72,0-3.49,2.54-4,4,0,.08-.2.92-.32,1.53,0-.36,0-.73,0-1.08,0-1.3.08-2.49.16-3.54.05-.6.11-1.14.17-1.64a13.81,13.81,0,0,0,3.1-2.75,4.3,4.3,0,0,0,.64-3.52,2,2,0,0,0-2.8-1.15c-1.53.79-1.93,3.86-1.68,5.38,0,.13.6,2.13.63,2.11l0,0c-.07.49-.14,1-.2,1.58-.1,1-.21,2.24-.24,3.55a38,38,0,0,0,.1,4.21,26.57,26.57,0,0,0,.78,4.65s0,0,0,.05c-.27-.42-1.07-1.59-1.14-1.67-1-1.16-3.62-2.81-5.21-2.14a2,2,0,0,0-.9,2.89A4.26,4.26,0,0,0,444.54,371Z" style="fill:#263238"></path><path d="M474,363s.55-2,.57-2.13c.21-1.52-.28-4.58-1.82-5.33a2,2,0,0,0-2.77,1.23,4.24,4.24,0,0,0,.73,3.5A14.7,14.7,0,0,0,474,363Z" style="fill:#263238"></path><path d="M16.27,362.29a14.49,14.49,0,0,0,4.25.47s-.65-2-.71-2.09c-.66-1.39-2.75-3.67-4.45-3.44a2,2,0,0,0-1.63,2.55A4.26,4.26,0,0,0,16.27,362.29Z" style="fill:#263238"></path><path d="M17.31,371a14.11,14.11,0,0,0,4.18-.65,38.19,38.19,0,0,0,1.63,4.51c.37.86.77,1.71,1.19,2.56-.25-.36-.47-.68-.51-.72-1-1.16-3.62-2.81-5.2-2.14a2,2,0,0,0-.91,2.89,4.26,4.26,0,0,0,3.12,1.75,13.51,13.51,0,0,0,4.07-.62l.48,1c.78,1.55,1.56,3.1,2.29,4.64.25.54.48,1.08.72,1.63l-.44-.63c-1-1.16-3.63-2.81-5.21-2.14a2,2,0,0,0-.9,2.89,4.23,4.23,0,0,0,3.12,1.75,13,13,0,0,0,3.95-.59c.23.56.45,1.13.64,1.68.12.38.26.74.36,1.13s.22.77.32,1.15c.18.73.37,1.49.52,2.21.11.5.21,1,.3,1.46-.24-.54-.75-1.6-.8-1.68-.82-1.3-3.16-3.33-4.82-2.9a2,2,0,0,0-1.33,2.72,4.24,4.24,0,0,0,2.81,2.2,14.07,14.07,0,0,0,4.21,0c.16.8.31,1.57.44,2.31.07.39.13.76.19,1.12h1.06c-.08-.42-.16-.85-.25-1.31-.16-.81-.35-1.67-.55-2.56a21.81,21.81,0,0,0,2.35-1.1,15,15,0,0,0,3.43,2.21c-.31.75-.61,1.48-.91,2.17l-.27.59h1.12a1.19,1.19,0,0,0,.08-.2c.32-.76.64-1.58,1-2.43a14.21,14.21,0,0,0,4.2.32,4.22,4.22,0,0,0,3-2,2,2,0,0,0-1.12-2.81c-1.63-.54-4.11,1.31-5,2.54-.06.07-.55.93-.86,1.47.13-.34.26-.68.39-1,.26-.71.5-1.42.76-2.19.11-.37.23-.75.34-1.14s.2-.79.31-1.19c.22-.93.4-1.88.56-2.84a13.52,13.52,0,0,0,4,.91,4.27,4.27,0,0,0,3.24-1.51,2,2,0,0,0-.68-3c-1.53-.79-4.27.66-5.36,1.75-.06.06-.76.93-1.13,1.41.09-.58.19-1.16.26-1.75.21-1.7.37-3.43.54-5.16,0-.53.11-1.06.17-1.58a14.23,14.23,0,0,0,4.12,1,4.25,4.25,0,0,0,3.23-1.51,2,2,0,0,0-.68-2.95c-1.52-.79-4.26.66-5.35,1.75-.08.08-1.08,1.32-1.31,1.65.12-1.16.25-2.31.43-3.45a36,36,0,0,1,1-4.53,14.79,14.79,0,0,0,4.14,1,4.23,4.23,0,0,0,3.24-1.52,2,2,0,0,0-.68-2.94c-1.53-.79-4.27.66-5.35,1.74-.09.09-1.16,1.43-1.34,1.68a2,2,0,0,0,.07-.26,26.43,26.43,0,0,1,1.8-4.29c.39-.77.81-1.48,1.23-2.16a13.6,13.6,0,0,0,3.92,1.38,4.23,4.23,0,0,0,3.39-1.15,2,2,0,0,0-.36-3c-1.43-.95-4.31.19-5.51,1.14l-1.1,1.1.58-.91c.72-1.08,1.44-2,2.09-2.86.37-.47.72-.89,1-1.28a13.48,13.48,0,0,0,4.09-.58,4.25,4.25,0,0,0,2.48-2.58,2,2,0,0,0-1.7-2.5c-1.71-.19-3.74,2.15-4.36,3.55-.06.13-.68,2.12-.65,2.12h0c-.33.36-.67.76-1,1.2-.66.82-1.41,1.76-2.16,2.83a36.17,36.17,0,0,0-2.24,3.57,26.38,26.38,0,0,0-1.91,4.3s0,0,0,.06c0-.51,0-1.91,0-2-.2-1.52-1.48-4.35-3.16-4.66a2,2,0,0,0-2.35,1.91,4.25,4.25,0,0,0,1.63,3.18,14.22,14.22,0,0,0,3.85,1.77,37.75,37.75,0,0,0-1.13,4.66q-.24,1.38-.42,2.79c0-.44,0-.83,0-.88-.2-1.52-1.48-4.35-3.17-4.66a2,2,0,0,0-2.34,1.91,4.25,4.25,0,0,0,1.63,3.18,13.25,13.25,0,0,0,3.74,1.73c-.05.36-.1.72-.14,1.07-.2,1.73-.4,3.45-.65,5.13-.08.6-.19,1.18-.3,1.76,0-.39,0-.71,0-.76-.19-1.53-1.47-4.35-3.16-4.66A2,2,0,0,0,35.06,383a4.22,4.22,0,0,0,1.63,3.18,12.88,12.88,0,0,0,3.63,1.69c-.13.59-.25,1.19-.4,1.75-.11.39-.19.77-.32,1.15s-.25.76-.37,1.13c-.26.71-.52,1.44-.79,2.13-.18.48-.36.93-.55,1.39.1-.59.25-1.75.26-1.85a8,8,0,0,0-1.06-3.84,3.4,3.4,0,0,0,0-.45,2,2,0,0,0-2.49-1.72c-1.66.44-2.71,3.35-2.79,4.88,0,.09.06,1.08.1,1.7-.08-.36-.16-.71-.25-1.08-.17-.74-.37-1.46-.57-2.25-.12-.37-.23-.75-.35-1.13s-.27-.77-.4-1.16c-.33-.9-.7-1.8-1.1-2.69A13.34,13.34,0,0,0,33,384.42a4.24,4.24,0,0,0,1.86-3.05,2,2,0,0,0-2.19-2.08c-1.71.18-3.2,2.9-3.51,4.4,0,.1-.12,1.2-.16,1.81-.24-.54-.48-1.07-.75-1.6-.76-1.54-1.58-3.07-2.39-4.61-.25-.46-.5-.94-.74-1.41a14.09,14.09,0,0,0,4-1.46A4.24,4.24,0,0,0,31,373.37a2,2,0,0,0-2.19-2.09c-1.71.19-3.19,2.91-3.5,4.41,0,.12-.17,1.7-.19,2.11-.53-1-1.06-2.07-1.54-3.12a34.41,34.41,0,0,1-1.67-4.33,14.39,14.39,0,0,0,4-1.47,4.24,4.24,0,0,0,1.86-3.05,2,2,0,0,0-2.19-2.08c-1.71.18-3.19,2.9-3.5,4.41,0,.11-.18,1.82-.18,2.13a2,2,0,0,1-.09-.26,25.66,25.66,0,0,1-.87-4.57c-.1-.85-.14-1.67-.17-2.47a14.18,14.18,0,0,0,4-1A4.3,4.3,0,0,0,27,359.15a2,2,0,0,0-2-2.31c-1.72,0-3.49,2.54-4,4,0,.08-.2.92-.32,1.53,0-.36,0-.73,0-1.08,0-1.3.08-2.49.16-3.54.05-.6.11-1.14.17-1.64a13.81,13.81,0,0,0,3.1-2.75,4.3,4.3,0,0,0,.64-3.52,2,2,0,0,0-2.8-1.15c-1.53.79-1.93,3.86-1.68,5.38,0,.13.6,2.13.63,2.11l0,0c-.07.49-.14,1-.2,1.58-.1,1-.21,2.24-.24,3.55a33.69,33.69,0,0,0,.1,4.21,26.57,26.57,0,0,0,.78,4.65s0,0,0,.05c-.27-.42-1.07-1.59-1.14-1.67-1-1.16-3.63-2.81-5.21-2.14a2,2,0,0,0-.9,2.89A4.26,4.26,0,0,0,17.31,371Z" style="fill:#263238"></path><path d="M46.77,363s.55-2,.57-2.13c.21-1.52-.28-4.58-1.82-5.33a2,2,0,0,0-2.77,1.23,4.24,4.24,0,0,0,.73,3.5A14.7,14.7,0,0,0,46.77,363Z" style="fill:#263238"></path></g><g id="freepik--Clouds--inject-371"><path d="M348.27,74h-122a.48.48,0,0,1-.4-.2.47.47,0,0,1-.08-.44c.1-.31,2.41-7.61,9.87-9.49a16.73,16.73,0,0,1,9.28.26,9.72,9.72,0,0,0,5.26.35,6.27,6.27,0,0,0,3.66-2.68c1.37-1.68,3.26-4,8.53-7,5.58-3.21,9-2,12.24-.78,2.45.9,4.76,1.75,8,.74,3-.92,4.11-2.8,5.45-5,2-3.33,4.35-7.1,13.69-7.85,14.31-1.14,23.77,14.42,25,16.5a33.77,33.77,0,0,0,4.62.14,33.66,33.66,0,0,1,10.3,1.06c7,1.91,7.09,13.42,7.09,13.9A.5.5,0,0,1,348.27,74ZM227,73H347.75c-.1-2.19-.83-10.93-6.33-12.43a32.2,32.2,0,0,0-10-1,32.37,32.37,0,0,1-5-.18.52.52,0,0,1-.38-.26c-.09-.17-9.52-17.38-24.13-16.2C293,43.63,291,47,289,50.29c-1.39,2.26-2.69,4.38-6,5.41-3.57,1.11-6.15.17-8.65-.75-3.2-1.17-6.22-2.28-11.39.71s-6.93,5.17-8.26,6.79a7.2,7.2,0,0,1-4.17,3,10.68,10.68,0,0,1-5.77-.36,16.06,16.06,0,0,0-8.79-.25C230.27,66.28,227.75,71.24,227,73Z" style="fill:#263238"></path><path d="M249.46,52.07H181.77a.54.54,0,0,1-.41-.2.52.52,0,0,1-.07-.45A8.37,8.37,0,0,1,186.92,46a9.6,9.6,0,0,1,5.26.14,5.22,5.22,0,0,0,2.81.2,3.32,3.32,0,0,0,1.92-1.42,15,15,0,0,1,4.79-4,7.09,7.09,0,0,1,7-.45,6.09,6.09,0,0,0,4.3.41,5,5,0,0,0,2.9-2.67c1.16-1.89,2.48-4,7.77-4.46,8-.65,13.13,7.63,14,9.17a19.41,19.41,0,0,0,2.42.06,18.61,18.61,0,0,1,5.78.6c4,1.1,4.09,7.65,4.09,7.93A.5.5,0,0,1,249.46,52.07Zm-67-1h66.43c-.09-1.47-.59-5.72-3.33-6.47a17.87,17.87,0,0,0-5.5-.56,17.73,17.73,0,0,1-2.82-.1.52.52,0,0,1-.38-.26c0-.09-5.23-9.53-13.18-8.88-4.79.39-5.91,2.22-7,4a6,6,0,0,1-3.45,3.1,7,7,0,0,1-4.94-.42,6.11,6.11,0,0,0-6.14.38,14.31,14.31,0,0,0-4.52,3.71,4.25,4.25,0,0,1-2.43,1.75,6.08,6.08,0,0,1-3.32-.19,8.55,8.55,0,0,0-4.76-.14A7.24,7.24,0,0,0,182.51,51.07Z" style="fill:#263238"></path><path d="M116.39,128H48.69a.48.48,0,0,1-.4-.2.5.5,0,0,1-.08-.44,8.43,8.43,0,0,1,5.64-5.42,9.8,9.8,0,0,1,5.26.14,5.09,5.09,0,0,0,2.8.2,3.24,3.24,0,0,0,1.92-1.41,15.07,15.07,0,0,1,4.8-4,7.09,7.09,0,0,1,7-.45,6.08,6.08,0,0,0,4.3.4,5,5,0,0,0,2.89-2.67c1.17-1.89,2.48-4,7.77-4.46,8-.65,13.14,7.64,14,9.18A21.55,21.55,0,0,0,107,119a18.55,18.55,0,0,1,5.78.6c4,1.1,4.1,7.65,4.1,7.92A.5.5,0,0,1,116.39,128Zm-67-1h66.44c-.09-1.47-.6-5.71-3.34-6.46A17.56,17.56,0,0,0,107,120a19,19,0,0,1-2.82-.1.51.51,0,0,1-.37-.26c0-.1-5.24-9.53-13.19-8.88-4.78.39-5.91,2.22-7,4a6,6,0,0,1-3.46,3.1,7,7,0,0,1-4.94-.42,6.09,6.09,0,0,0-6.13.37,14.25,14.25,0,0,0-4.53,3.72,4.22,4.22,0,0,1-2.43,1.75,6,6,0,0,1-3.31-.2,8.78,8.78,0,0,0-4.77-.14A7.32,7.32,0,0,0,49.43,127Z" style="fill:#263238"></path><path d="M468.23,123.63H321.49a.51.51,0,0,1-.41-.2A.49.49,0,0,1,321,123c0-.09,2.88-9.1,11.8-11.35a20.21,20.21,0,0,1,11.11.31c2.21.56,4.12,1,6.38.43s3.11-1.62,4.46-3.27c1.65-2,3.91-4.77,10.23-8.42,6.67-3.85,10.72-2.37,14.64-.93,3,1.08,5.76,2.11,9.7.88,3.58-1.11,5-3.39,6.6-6,2.45-4,5.22-8.49,16.39-9.4,17.25-1.39,28.65,17.55,30,19.85a40.55,40.55,0,0,0,5.63.17,40.24,40.24,0,0,1,12.37,1.28c8.35,2.27,8.44,16,8.44,16.62A.5.5,0,0,1,468.23,123.63Zm-146-1H467.72c-.1-2.47-.93-13.31-7.7-15.16a39.66,39.66,0,0,0-12.08-1.24,39.23,39.23,0,0,1-6-.21.48.48,0,0,1-.37-.26c-.12-.21-11.48-21-29.14-19.55-10.67.86-13.18,5-15.62,8.92-1.65,2.7-3.22,5.24-7.16,6.47-4.26,1.32-7.35.19-10.34-.9-3.87-1.42-7.52-2.76-13.79.85s-8.36,6.24-10,8.2c-1.37,1.67-2.37,2.88-5,3.59s-4.64.15-6.89-.42a19.35,19.35,0,0,0-10.62-.31C326.05,114.37,323,120.6,322.2,122.63Z" style="fill:#263238"></path></g><g id="freepik--Car--inject-371"><path d="M358.78,218.69l-10.21-38.27c-8.45-28.93-34.94-32-34.94-32-71.31-5.45-121.17-.89-132.5.34-20.1.89-30,13.11-35.38,28.92l-13.84,41Z" style="fill:#92E3A9"></path><path d="M359.43,219.19H131.22l14.05-41.67c6.38-18.91,18.1-28.48,35.84-29.26,13.29-1.44,62.22-5.71,132.56-.34a44.76,44.76,0,0,1,35.38,32.36Zm-226.82-1H358.13l-10-37.64c-8.26-28.28-34.26-31.61-34.52-31.64-70.23-5.36-119.09-1.09-132.39.34-17.3.77-28.73,10.12-35,28.59Z" style="fill:#263238"></path><path d="M333.49,205c7,1,12.83-4.93,10.86-11.11l-5.06-15.91c-5.86-21.85-31.81-24.41-31.81-24.41-64.88-4.15-110.26-.67-120.57.26-18.3.67-27.35,10-32.2,22.06l-6.94,17.23c-2.53,6.3,3.35,12.74,10.67,11.68l49.8-7.24a255.83,255.83,0,0,1,73.16,0Z" style="fill:#263238"></path><path d="M335.07,205.56a11.63,11.63,0,0,1-1.65-.11L281.33,198a254.85,254.85,0,0,0-73,0l-49.8,7.23a10.65,10.65,0,0,1-9.93-3.78,8.47,8.47,0,0,1-1.27-8.58l6.93-17.23c5.82-14.45,16.5-21.77,32.65-22.37,12.09-1.1,56.62-4.36,120.63-.26.28,0,26.37,2.85,32.25,24.78l5.05,15.89a8.5,8.5,0,0,1-1.71,8.24A10.41,10.41,0,0,1,335.07,205.56ZM245,194.36A256.14,256.14,0,0,1,281.47,197l52.09,7.49a9.62,9.62,0,0,0,8.79-3.17,7.55,7.55,0,0,0,1.52-7.3l-5.06-15.91c-5.71-21.28-31.12-24-31.37-24.06-63.92-4.09-108.38-.84-120.49.26-15.74.58-26.12,7.69-31.78,21.75l-6.93,17.22a7.5,7.5,0,0,0,1.13,7.6,9.63,9.63,0,0,0,9,3.4l49.8-7.23A257,257,0,0,1,245,194.36Z" style="fill:#263238"></path><path d="M266.94,151.76l-46.86,44.33q6.18-.61,12.37-.91l46.16-43.09C274.61,152,270.73,151.85,266.94,151.76Z" style="fill:#fff"></path><path d="M218.68,196.73l48.07-45.47h.2c4,.09,7.86.2,11.68.33l1.2,0-47.17,44h-.19c-4.09.2-8.24.5-12.34.9Zm48.46-44.46-45.66,43.18c3.58-.33,7.2-.59,10.76-.76l45.14-42.14C274,152.44,270.67,152.35,267.14,152.27Z" style="fill:#263238"></path><path d="M307.49,153.52c-4.35-.28-8.59-.52-12.75-.73l-47.68,42.09a254.93,254.93,0,0,1,34.34,2.58L328.53,162C319.09,154.67,307.49,153.52,307.49,153.52Z" style="fill:#fff"></path><path d="M281.53,198l-.2,0a255.59,255.59,0,0,0-34.28-2.58h-1.3l48.81-43.09h.2c4.33.22,8.62.46,12.76.73h0c.12,0,11.87,1.25,21.31,8.56l.52.4Zm-33.17-3.6a257.47,257.47,0,0,1,32.91,2.55l46.44-35A45.86,45.86,0,0,0,307.44,154c-4.06-.26-8.27-.51-12.52-.72Z" style="fill:#263238"></path><path d="M335.08,206.57a13.62,13.62,0,0,1-1.8-.13L281.19,199a253.92,253.92,0,0,0-72.73.05l-49.81,7.23a11.64,11.64,0,0,1-10.85-4.15,9.55,9.55,0,0,1-1.42-9.57l6.93-17.23c6-14.86,17-22.39,33.54-23,12.06-1.09,56.66-4.36,120.73-.26.32,0,27.1,2.93,33.15,25.52l5,15.85a9.51,9.51,0,0,1-1.9,9.19A11.45,11.45,0,0,1,335.08,206.57Zm-1.37-3.1a8.74,8.74,0,0,0,7.88-2.83,6.59,6.59,0,0,0,1.33-6.34l-5.06-15.92c-2.33-8.65-8.11-15.17-17.22-19.45a46,46,0,0,0-13.3-3.92c-63.81-4.08-108.21-.83-120.3.26-15.57.58-25.37,7.29-30.94,21.13l-6.94,17.23a6.51,6.51,0,0,0,1,6.6,8.62,8.62,0,0,0,8.06,3L208,196a256.94,256.94,0,0,1,73.58-.05Z" style="fill:#fff"></path><path d="M335.08,207.07a13.08,13.08,0,0,1-1.87-.14l-52.09-7.49a254,254,0,0,0-72.59.05l-49.81,7.24a12.15,12.15,0,0,1-11.32-4.34,10.05,10.05,0,0,1-1.48-10.07l6.93-17.22c6.06-15.07,17.18-22.7,34-23.32,12.1-1.1,56.65-4.36,120.78-.26.29,0,27.44,2.89,33.61,25.89l5,15.83a10,10,0,0,1-2,9.66A12,12,0,0,1,335.08,207.07ZM245,195.86a254.62,254.62,0,0,1,36.25,2.59l52.09,7.49a11.16,11.16,0,0,0,10.14-3.68,9,9,0,0,0,1.81-8.72l-5-15.85c-6-22.35-32.46-25.15-32.73-25.17-64-4.1-108.53-.84-120.63.26-16.4.6-27.22,8-33.12,22.69l-6.93,17.22a9.06,9.06,0,0,0,1.34,9.08,11.16,11.16,0,0,0,10.39,4l49.81-7.24A255.25,255.25,0,0,1,245,195.86Zm90,8.2a9.38,9.38,0,0,1-1.39-.1l-52.09-7.49a256.69,256.69,0,0,0-73.44.06l-49.81,7.23a9.15,9.15,0,0,1-8.53-3.22,7,7,0,0,1-1.06-7.1l6.93-17.22c5.66-14.05,15.63-20.86,31.39-21.45,12.07-1.09,56.5-4.34,120.35-.26a46.92,46.92,0,0,1,13.48,4c9.25,4.35,15.13,11,17.49,19.78l5.05,15.9A7,7,0,0,1,342,201,9.08,9.08,0,0,1,335,204.06Zm-90-11.2a257.58,257.58,0,0,1,36.67,2.62l52.1,7.49a8.21,8.21,0,0,0,7.43-2.65,6.09,6.09,0,0,0,1.23-5.87l-5.06-15.91c-2.28-8.51-8-14.95-17-19.16a45.22,45.22,0,0,0-13.13-3.87c-63.76-4.08-108.12-.83-120.2.26-15.35.57-25,7.19-30.53,20.82l-6.93,17.22a6,6,0,0,0,.92,6.11,8.13,8.13,0,0,0,7.6,2.85l49.8-7.23A257.28,257.28,0,0,1,245,192.86Z" style="fill:#263238"></path><polygon points="113.97 355.19 153.18 360.36 330.26 360.36 373.35 355.62 373.35 347 114.4 347 113.97 355.19" style="fill:#263238"></polygon><path d="M153.18,360.86l-39.73-5.24.48-9.12H373.85v9.57l-43.53,4.78Zm-38.68-6.11,38.75,5.11h177l42.59-4.69V347.5h-258Z" style="fill:#263238"></path><path d="M365.62,344.42h42.12a0,0,0,0,1,0,0v45.07a10.08,10.08,0,0,1-10.08,10.08h-22a10.08,10.08,0,0,1-10.08-10.08V344.42A0,0,0,0,1,365.62,344.42Z" style="fill:#263238"></path><path d="M397.67,400.06h-22a10.59,10.59,0,0,1-10.58-10.57V343.92h43.12v45.57A10.58,10.58,0,0,1,397.67,400.06Zm-31.55-55.14v44.57a9.59,9.59,0,0,0,9.58,9.57h22a9.58,9.58,0,0,0,9.57-9.57V344.92Z" style="fill:#263238"></path><path d="M83.43,344.42h42.12a0,0,0,0,1,0,0v45.07a10.08,10.08,0,0,1-10.08,10.08h-22a10.08,10.08,0,0,1-10.08-10.08V344.42A0,0,0,0,1,83.43,344.42Z" style="fill:#263238"></path><path d="M115.48,400.06h-22a10.59,10.59,0,0,1-10.58-10.57V343.92h43.12v45.57A10.58,10.58,0,0,1,115.48,400.06ZM83.93,344.92v44.57a9.59,9.59,0,0,0,9.58,9.57h22a9.58,9.58,0,0,0,9.57-9.57V344.92Z" style="fill:#263238"></path><path d="M119.57,219s42.13-21,125.33-22.56,128.45,25.57,128.45,25.57V333.27H119.57Z" style="fill:#92E3A9"></path><path d="M373.85,333.77H119.07v-115l.28-.14c.42-.21,43.18-21.05,125.54-22.61s128.26,25.37,128.71,25.64l.25.15Zm-253.78-1H372.85V222.34c-3.7-2.11-48.93-26.86-127.94-25.36-78.65,1.49-121,20.58-124.84,22.37Z" style="fill:#263238"></path><path d="M135.07,235.84s48.1,24.21,106,22.66,130.88-17,130.88-17v91.77H132.8Z" style="fill:#263238"></path><path d="M372.4,333.77H132.29l2.3-98.74.7.36c.48.24,48.67,24.14,105.71,22.61s130.06-16.83,130.79-17l.61-.13Zm-239.09-1H371.4V242.12C364.24,243.59,295.49,257.53,241,259c-53.54,1.44-99.3-19.43-105.48-22.38Z" style="fill:#263238"></path><path d="M104.06,204.08h0a6.7,6.7,0,0,1,6.7,6.7v5.79a0,0,0,0,1,0,0H97.36a0,0,0,0,1,0,0v-5.79a6.7,6.7,0,0,1,6.7-6.7Z" style="fill:#263238"></path><path d="M111.26,217.07H96.86v-6.29a7.2,7.2,0,0,1,14.4,0Zm-13.4-1h12.4v-5.29a6.2,6.2,0,0,0-12.4,0Z" style="fill:#263238"></path><rect x="97.36" y="212" width="13.4" height="4.57" style="fill:#92E3A9"></rect><path d="M111.26,217.07H96.86V211.5h14.4Zm-13.4-1h12.4V212.5H97.86Z" style="fill:#263238"></path><path d="M104.54,213.93h0a39.14,39.14,0,0,1,39.14,39.14v88.6a0,0,0,0,1,0,0H65.41a0,0,0,0,1,0,0v-88.6A39.14,39.14,0,0,1,104.54,213.93Z" style="fill:#92E3A9"></path><path d="M144.18,342.17H64.91v-89.1a39.64,39.64,0,1,1,79.27,0Zm-78.27-1h77.27v-88.1a38.64,38.64,0,1,0-77.27,0Z" style="fill:#263238"></path><path d="M65.41,334.29l.6,7.38h77.67V274.86c-8.88-4.9-25.5-12.58-43.17-13a51.43,51.43,0,0,0-35.1,12.41Z" style="fill:#263238"></path><path d="M144.18,342.17H65.55l-.64-7.88V274.08l.17-.15a52.38,52.38,0,0,1,35.44-12.53c18,.39,34.9,8.33,43.4,13l.26.15Zm-77.71-1h76.71v-66c-8.5-4.67-25.12-12.38-42.68-12.76a51.2,51.2,0,0,0-34.59,12.14v59.73Z" style="fill:#263238"></path><path d="M99.37,221.67s14.74-2.27,24.37,4,15.86,21,15.86,21l-10.76-5.67,6.8,10.2-15.87,5.67Z" style="fill:#fff"></path><circle cx="95.63" cy="246.82" r="27.58" transform="translate(-87.17 55.39) rotate(-22.5)" style="fill:#fff"></circle><path d="M95.63,274.9a28.08,28.08,0,1,1,28.08-28.08A28.11,28.11,0,0,1,95.63,274.9Zm0-55.16a27.08,27.08,0,1,0,27.08,27.08A27.1,27.1,0,0,0,95.63,219.74Z" style="fill:#263238"></path><circle cx="94.32" cy="249.88" r="21.03" transform="translate(-149.07 139.88) rotate(-45)" style="fill:#fff"></circle><path d="M94.32,271.42a21.54,21.54,0,1,1,21.53-21.54A21.56,21.56,0,0,1,94.32,271.42Zm0-42.07a20.54,20.54,0,1,0,20.53,20.53A20.55,20.55,0,0,0,94.32,229.35Z" style="fill:#263238"></path><circle cx="96.07" cy="291.91" r="10.53" transform="translate(-210.38 268.96) rotate(-67.5)" style="fill:#fff"></circle><path d="M96.07,302.94a11,11,0,1,1,11-11A11,11,0,0,1,96.07,302.94Zm0-21.06a10,10,0,1,0,10,10A10,10,0,0,0,96.07,281.88Z" style="fill:#263238"></path><circle cx="96.07" cy="291.91" r="8.32" transform="translate(-178.27 153.43) rotate(-45)" style="fill:#fff"></circle><path d="M96.07,300.72a8.82,8.82,0,1,1,8.82-8.81A8.82,8.82,0,0,1,96.07,300.72Zm0-16.63a7.82,7.82,0,1,0,7.82,7.82A7.82,7.82,0,0,0,96.07,284.09Z" style="fill:#263238"></path><circle cx="150.33" cy="304.16" r="18.82" transform="translate(-171.05 195.39) rotate(-45)" style="fill:#fff"></circle><path d="M150.33,323.49a19.33,19.33,0,1,1,19.32-19.32A19.34,19.34,0,0,1,150.33,323.49Zm0-37.65a18.33,18.33,0,1,0,18.32,18.33A18.34,18.34,0,0,0,150.33,285.84Z" style="fill:#263238"></path><circle cx="150.33" cy="304.16" r="14.87" style="fill:#fff"></circle><path d="M150.33,319.53a15.37,15.37,0,1,1,15.36-15.36A15.38,15.38,0,0,1,150.33,319.53Zm0-29.73a14.37,14.37,0,1,0,14.36,14.37A14.38,14.38,0,0,0,150.33,289.8Z" style="fill:#263238"></path><path d="M390.38,204.08h0a6.7,6.7,0,0,1,6.7,6.7v5.79a0,0,0,0,1,0,0h-13.4a0,0,0,0,1,0,0v-5.79A6.7,6.7,0,0,1,390.38,204.08Z" style="fill:#263238"></path><path d="M397.58,217.07h-14.4v-6.29a7.2,7.2,0,0,1,14.4,0Zm-13.4-1h12.4v-5.29a6.2,6.2,0,0,0-12.4,0Z" style="fill:#263238"></path><rect x="383.68" y="212" width="13.4" height="4.57" style="fill:#92E3A9"></rect><path d="M397.58,217.07h-14.4V211.5h14.4Zm-13.4-1h12.4V212.5h-12.4Z" style="fill:#263238"></path><path d="M350,213.93h78.27a0,0,0,0,1,0,0v88.6a39.14,39.14,0,0,1-39.14,39.14h0A39.14,39.14,0,0,1,350,302.54v-88.6A0,0,0,0,1,350,213.93Z" transform="translate(778.31 555.6) rotate(180)" style="fill:#92E3A9"></path><path d="M428.79,342.17H349.52v-89.1a39.64,39.64,0,1,1,79.27,0Zm-78.27-1h77.27v-88.1a38.64,38.64,0,1,0-77.27,0Z" style="fill:#263238"></path><path d="M428.29,270.39c-5-6.83-13.39-15.83-24.1-18.12-15.86-3.4-23.79,7.93-34.56,13s-19.26,1.13-19.26,1.13l-.35.48v74.76h78.27Z" style="fill:#263238"></path><path d="M428.79,342.17H349.52V266.75l.68-.95.38.18c.08,0,8.43,3.8,18.84-1.14a63.94,63.94,0,0,0,8.79-5.42c7.17-5,14.58-10.11,26.09-7.64,10.74,2.3,19.19,11.23,24.4,18.31l.09.14Zm-78.27-1h77.27V270.55c-5.11-6.92-13.34-15.57-23.7-17.8-11.08-2.37-18.31,2.65-25.31,7.49a64.09,64.09,0,0,1-8.94,5.51c-9.69,4.59-17.49,2-19.3,1.3l0,0Z" style="fill:#263238"></path><circle cx="398.06" cy="246.82" r="27.58" transform="translate(-57.94 353.77) rotate(-45)" style="fill:#fff"></circle><path d="M398.06,274.9a28.08,28.08,0,1,1,28.08-28.08A28.11,28.11,0,0,1,398.06,274.9Zm0-55.16a27.08,27.08,0,1,0,27.08,27.08A27.1,27.1,0,0,0,398.06,219.74Z" style="fill:#263238"></path><circle cx="399.38" cy="249.88" r="21.03" transform="translate(-46.41 97.5) rotate(-13.16)" style="fill:#fff"></circle><path d="M399.38,271.42a21.54,21.54,0,1,1,21.53-21.54A21.56,21.56,0,0,1,399.38,271.42Zm0-42.07a20.54,20.54,0,1,0,20.53,20.53A20.55,20.55,0,0,0,399.38,229.35Z" style="fill:#263238"></path><circle cx="397.63" cy="291.91" r="10.53" transform="translate(-81.13 173.12) rotate(-22.35)" style="fill:#fff"></circle><path d="M397.63,302.94a11,11,0,1,1,11-11A11,11,0,0,1,397.63,302.94Zm0-21.06a10,10,0,1,0,10,10A10,10,0,0,0,397.63,281.88Z" style="fill:#263238"></path><circle cx="397.63" cy="291.91" r="8.32" transform="translate(45.65 637.49) rotate(-80.76)" style="fill:#fff"></circle><path d="M397.63,300.72a8.82,8.82,0,1,1,8.81-8.81A8.82,8.82,0,0,1,397.63,300.72Zm0-16.63a7.82,7.82,0,1,0,7.81,7.82A7.83,7.83,0,0,0,397.63,284.09Z" style="fill:#263238"></path><circle cx="343.37" cy="304.16" r="18.82" transform="translate(-37.55 559.74) rotate(-75.39)" style="fill:#fff"></circle><path d="M343.37,323.49a19.33,19.33,0,1,1,19.32-19.32A19.35,19.35,0,0,1,343.37,323.49Zm0-37.65a18.33,18.33,0,1,0,18.32,18.33A18.35,18.35,0,0,0,343.37,285.84Z" style="fill:#263238"></path><circle cx="343.37" cy="304.16" r="14.87" style="fill:#fff"></circle><path d="M343.37,319.53a15.37,15.37,0,1,1,15.37-15.36A15.39,15.39,0,0,1,343.37,319.53Zm0-29.73a14.37,14.37,0,1,0,14.37,14.37A14.38,14.38,0,0,0,343.37,289.8Z" style="fill:#263238"></path><path d="M301.37,214c-7.64-5.81-55.13-17.51-55.13-17.51S198.17,208.65,190.19,214c-6,4-6.13,7.44-5.26,21s6.57,97.62,6.57,97.62H300.06s5.69-84.05,6.57-97.62S307.94,219,301.37,214Z" style="fill:#fff"></path><path d="M300.53,333.12H191l0-.47c-.06-.84-5.7-84.2-6.57-97.62s-.84-17.23,5.48-21.46c8-5.32,54.24-17.08,56.21-17.57l.12,0,.12,0c1.94.47,47.68,11.78,55.32,17.59,6.52,5,6.35,7.54,5.54,19.92l-.1,1.52c-.86,13.42-6.5,96.78-6.56,97.62Zm-108.56-1H299.59c.46-6.77,5.71-84.26,6.54-97.15l.1-1.53c.79-12.21.94-14.41-5.16-19.05h0c-7.29-5.54-52.16-16.73-54.83-17.39-2.69.68-48.15,12.31-55.78,17.41-5.64,3.77-5.93,6.56-5,20.56C186.26,247.86,191.51,325.35,192,332.12Z" style="fill:#263238"></path><path d="M184.93,235c.88,13.57,6.57,97.62,6.57,97.62h54.74V196.48S198.17,208.65,190.19,214C184.19,218,184.06,221.43,184.93,235Z" style="fill:#263238"></path><path d="M246.74,333.12H191l0-.47c-.06-.84-5.7-84.2-6.57-97.62s-.84-17.23,5.48-21.46c8-5.32,54.24-17.08,56.21-17.57l.62-.16Zm-54.77-1h53.77v-135c-5.66,1.45-48,12.38-55.28,17.29-5.64,3.77-5.93,6.56-5,20.56h0C186.26,247.86,191.51,325.35,192,332.12Z" style="fill:#263238"></path><polygon points="244.8 292.5 244.8 275.79 194.81 275.79 195.46 292.5 244.8 292.5" style="fill:#d1d1d1"></polygon><path d="M245.3,293H195l-.69-17.71h51Zm-49.36-1H244.3V276.29h-49Z" style="fill:#263238"></path><polygon points="244.8 238.1 193.33 238.1 193.99 254.81 244.8 254.81 244.8 238.1" style="fill:#d1d1d1"></polygon><path d="M245.3,255.31H193.51l-.7-17.71H245.3Zm-50.83-1H244.3V238.6H193.85Z" style="fill:#263238"></path><polygon points="244.8 273.66 244.8 256.94 194.07 256.94 194.72 273.66 244.8 273.66" style="fill:#d1d1d1"></polygon><path d="M245.3,274.16H194.24l-.69-17.72H245.3Zm-50.09-1H244.3V257.44H194.59Z" style="fill:#263238"></path><polygon points="297.39 294.63 248.14 294.63 248.14 311.35 296.74 311.35 297.39 294.63" style="fill:#fff"></polygon><path d="M297.22,311.84H247.64V294.13h50.27Zm-48.58-1h47.62l.61-15.71H248.64Z" style="fill:#263238"></path><path d="M248.14,236h51.55l.27-7s0-8.51-3.25-10.33c-2.88-1.62-40.18-3.48-48.57-3.88Z" style="fill:#fff"></path><path d="M300.17,236.47H247.64V214.25l.53,0c10.7.51,45.86,2.3,48.79,3.94,3.46,1.94,3.5,10.41,3.5,10.77Zm-51.53-1h50.57l.25-6.51c0-2.27-.54-8.5-3-9.88-2.16-1.21-27-2.79-47.83-3.78Z" style="fill:#263238"></path><polygon points="244.8 311.35 244.8 294.63 195.55 294.63 196.2 311.35 244.8 311.35" style="fill:#d1d1d1"></polygon><path d="M245.3,311.84H195.72L195,294.13H245.3Zm-48.62-1H244.3V295.13H196.07Z" style="fill:#263238"></path><path d="M244.8,236v-21.2c-8.39.4-45.69,2.26-48.57,3.88C193,220.47,193,229,193,229l.27,7Z" style="fill:#d1d1d1"></path><path d="M245.3,236.47H192.77l-.29-7.47c0-.38,0-8.85,3.5-10.79,2.92-1.64,38.09-3.43,48.79-3.94l.53,0Zm-51.57-1H244.3V215.3c-20.84,1-45.67,2.57-47.83,3.78-2.45,1.38-3,7.61-3,9.9Z" style="fill:#263238"></path><polygon points="248.14 275.79 248.14 292.5 297.48 292.5 298.13 275.79 248.14 275.79" style="fill:#fff"></polygon><path d="M298,293H247.64V275.29h51Zm-49.32-1H297l.61-15.71h-49Z" style="fill:#263238"></path><polygon points="248.14 313.47 248.14 335.33 295.82 334.75 296.66 313.47 248.14 313.47" style="fill:#fff"></polygon><path d="M247.64,335.84V313h49.54l-.88,22.27Zm1-21.87v20.86l46.7-.58.8-20.28Z" style="fill:#263238"></path><polygon points="244.8 313.47 196.28 313.47 197.12 334.75 244.8 335.33 244.8 313.47" style="fill:#d1d1d1"></polygon><path d="M245.3,335.84l-48.67-.6L195.76,313H245.3Zm-47.7-1.59,46.7.58V314H196.8Z" style="fill:#263238"></path><polygon points="248.14 256.94 248.14 273.66 298.21 273.66 298.87 256.94 248.14 256.94" style="fill:#fff"></polygon><path d="M298.69,274.16H247.64V256.44h51.75Zm-50.05-1h49.09l.62-15.72H248.64Z" style="fill:#263238"></path><polygon points="248.14 238.1 248.14 254.81 298.95 254.81 299.61 238.1 248.14 238.1" style="fill:#fff"></polygon><path d="M299.43,255.31H247.64V237.6h52.48Zm-50.79-1h49.83l.61-15.71H248.64Z" style="fill:#263238"></path><path d="M143.57,236.4S172,231.87,174.66,229s-23.59-5.67-17.69-11.9S233.09,199,233.09,199s-61.11,15.3-60,19.83,9.11-3.4,8.58,23.79-1.08,44.76-1.08,44.76Z" style="fill:#fff"></path><path d="M378.13,220.54s-11.9,4-18.13,12.46-5.1,16.43-5.1,16.43Z" style="fill:#fff"></path><path d="M353.2,228.47s-25.5,0-34.56-1.13-6.8,5.66-6.8,13,.57,19.26.57,19.26l7.36-10.2,27.76-4.53S352.07,230.74,353.2,228.47Z" style="fill:#fff"></path><path d="M429,353.19H67a12,12,0,0,1-12-12h0a12,12,0,0,1,12-12H429a12,12,0,0,1,12,12h0A12,12,0,0,1,429,353.19Z" style="fill:#fff"></path><path d="M429,353.69H67a12.54,12.54,0,1,1,0-25.07H429a12.54,12.54,0,1,1,0,25.07ZM67,329.62a11.54,11.54,0,1,0,0,23.07H429a11.54,11.54,0,1,0,0-23.07Z" style="fill:#263238"></path><path d="M426.76,341.1c-6.41-1.61-38.49-8.21-77.61,0s-40.44,1.09-78.52-3.56-66.5,1.55-98.33,6.72-51.15-2.07-84.11-4.65c-28.79-2.26-31.41.21-31.62.87,0,0,0,.1,0,.15h0c0,6,5.35,10.85,11.94,10.85H427.44c6.4,0,11.62-4.59,11.9-10.35C435.29,341.63,430.17,342,426.76,341.1Z" style="fill:#263238"></path><path d="M427.44,352H68.5c-6.86,0-12.44-5.09-12.44-11.35l0-.3c.73-2.35,12.14-2.79,32.14-1.22,10.47.82,19.44,2.09,28.11,3.32,18.36,2.6,34.23,4.85,55.88,1.33,3.64-.59,7.22-1.19,10.79-1.79,27.7-4.65,53.87-9.05,87.68-4.92,11.43,1.39,19.72,3,26.39,4.37,15.91,3.17,24.68,4.92,52-.81,41.18-8.63,74.2-.9,77.83,0,3.4.85,8.62.48,12.4,0l.59-.07,0,.6C439.54,347.23,434.09,352,427.44,352ZM57.07,340.6c0,5.74,5.13,10.38,11.43,10.38H427.44c5.9,0,10.77-4,11.36-9.28-3.81.43-8.8.73-12.16-.11-3.61-.91-36.43-8.59-77.38,0-27.49,5.77-36.33,4-52.38.81-6.64-1.32-14.91-3-26.31-4.36-33.66-4.11-59.76.28-87.4,4.92q-5.34.9-10.79,1.79c-21.8,3.54-37.73,1.28-56.18-1.33-8.66-1.23-17.61-2.49-28-3.31C60,337.9,57.3,340.29,57.07,340.6Z" style="fill:#263238"></path><rect x="178.37" y="335.24" width="130.01" height="26.26" style="fill:#fff"></rect><path d="M308.88,362h-131V334.74h131Zm-130-1h129V335.74h-129Z" style="fill:#263238"></path><path d="M114.68,370.7h0a6.35,6.35,0,0,1-6.35-6.35V302.19a6.34,6.34,0,0,1,6.35-6.34h0a6.34,6.34,0,0,1,6.34,6.34v62.16A6.34,6.34,0,0,1,114.68,370.7Z" style="fill:#fff"></path><path d="M114.68,371.2a6.85,6.85,0,0,1-6.85-6.85V302.19a6.85,6.85,0,0,1,13.69,0v62.16A6.85,6.85,0,0,1,114.68,371.2Zm0-74.85a5.85,5.85,0,0,0-5.85,5.84v62.16a5.85,5.85,0,1,0,11.69,0V302.19A5.85,5.85,0,0,0,114.68,296.35Z" style="fill:#263238"></path><rect x="373.6" y="295.85" width="12.69" height="74.85" rx="6.35" style="fill:#fff"></rect><path d="M380,371.2a6.85,6.85,0,0,1-6.85-6.85V302.19a6.85,6.85,0,0,1,13.69,0v62.16A6.85,6.85,0,0,1,380,371.2Zm0-74.85a5.85,5.85,0,0,0-5.85,5.84v62.16a5.85,5.85,0,1,0,11.69,0V302.19A5.85,5.85,0,0,0,380,296.35Z" style="fill:#263238"></path></g><g id="freepik--Floor--inject-371"><rect x="11.03" y="399.06" width="476.29" height="1" style="fill:#263238"></rect></g></svg>