<svg xmlns="http://www.w3.org/2000/svg" viewBox="0 0 750 500"><g id="freepik--background-simple--inject-398"><path d="M738.51,306.17C751,195.3,657.12,95,561.23,54c-70.45-30.13-146.66-11.2-214.52,16.33C324.14,79.45,302,90.38,278.9,98.08c-17.19,5.72-34.53,8.24-52.55,5.88-21.67-2.84-44.47-9.41-66.34-5.08-20.54,4.07-39.1,16.14-53.38,31.17C52.51,187,32.21,274.11,48.34,349.82q1.44,6.78,3.23,13.48C93.76,521.74,266.84,452,345.2,449.41s158.44,35.3,251.44,11.19C662.24,443.59,728.26,397.46,738.51,306.17Z" style="fill:#92E3A9"></path><path d="M738.51,306.17C751,195.3,657.12,95,561.23,54c-70.45-30.13-146.66-11.2-214.52,16.33C324.14,79.45,302,90.38,278.9,98.08c-17.19,5.72-34.53,8.24-52.55,5.88-21.67-2.84-44.47-9.41-66.34-5.08-20.54,4.07-39.1,16.14-53.38,31.17C52.51,187,32.21,274.11,48.34,349.82q1.44,6.78,3.23,13.48C93.76,521.74,266.84,452,345.2,449.41s158.44,35.3,251.44,11.19C662.24,443.59,728.26,397.46,738.51,306.17Z" style="fill:#fff;opacity:0.7000000000000001"></path></g><g id="freepik--Clouds--inject-398"><path d="M441.65,26s-7.55-12.35-19.22-11.67S406.65,22.53,403.22,28s-4.8,2.05-13.72-.69-13,2.06-15.1,6.86-1.37,1.37-9.6,0-8.45,3.54-13.73,6.18c-4.3,2.15-5.22,2.24-10,1-5.93-1.6-7.87-.27-9.24,2.48H471.05s-2.64-11-8.82-13.73S447.82,32.82,441.65,26Z" style="fill:none;stroke:#000;stroke-miterlimit:10;opacity:0.30000000000000004"></path><path d="M196.19,53.46S192,46.59,185.49,47s-8.78,4.58-10.69,7.64-2.67,1.14-7.64-.38-7.25,1.14-8.4,3.82-.76.76-5.35,0-4.69,2-7.63,3.43c-2.4,1.2-2.91,1.25-5.55.53-3.3-.89-4.38-.15-5.15,1.38h77.47s-1.47-6.11-4.91-7.64S199.62,57.28,196.19,53.46Z" style="fill:none;stroke:#000;stroke-miterlimit:10;opacity:0.30000000000000004"></path><path d="M719.4,132.05s-2.19-3.58-5.57-3.38-4.57,2.39-5.57,4-1.39.59-4-.2a3.22,3.22,0,0,0-4.37,2c-.6,1.39-.4.4-2.79,0s-2.45,1-4,1.79a3,3,0,0,1-2.89.27c-1.72-.46-2.28-.07-2.68.72h40.35s-.76-3.18-2.55-4S721.19,134,719.4,132.05Z" style="fill:none;stroke:#000;stroke-miterlimit:10;opacity:0.30000000000000004"></path><path d="M463.39,57.45s-2.19-3.58-5.57-3.38-4.58,2.38-5.57,4-1.4.59-4-.2a3.22,3.22,0,0,0-4.38,2c-.59,1.39-.4.39-2.78,0s-2.45,1-4,1.79a3,3,0,0,1-2.89.27c-1.72-.46-2.28-.07-2.68.72h40.35s-.76-3.18-2.55-4S465.18,59.44,463.39,57.45Z" style="fill:none;stroke:#000;stroke-miterlimit:10;opacity:0.30000000000000004"></path></g><g id="freepik--Buildings--inject-398"><g style="opacity:0.30000000000000004"><polyline points="25.99 374.06 57.63 374.06 57.63 87.94 140.85 87.94 140.85 224.12 158.73 224.12 158.73 393.31 179.37 393.31 179.37 140.76 217.88 140.76 217.88 38.42 279.78 38.42 279.78 226.87 303.17 226.87 303.17 151.91 355.44 151.91 355.44 168.41 400.14 168.41 400.14 391.25 418.02 391.25 418.02 350.67 466.86 350.67 466.86 390.56 490.24 390.56 490.24 189.73 569.33 189.73 569.33 378.18 592.03 378.18 592.03 115.45 619.54 115.45 619.54 67.31 633.3 67.31 633.3 39.8 655.31 39.8 655.31 217.93 691.07 217.93 691.07 387.81 718.58 387.81" style="fill:none;stroke:#000;stroke-miterlimit:10"></polyline><rect x="57.63" y="79" width="83.22" height="8.94" style="fill:none;stroke:#000;stroke-miterlimit:10"></rect><rect x="179.13" y="140.76" width="38.75" height="4.53" style="fill:none;stroke:#000;stroke-miterlimit:10"></rect><rect x="217.7" y="38.42" width="62.08" height="4.4" style="fill:none;stroke:#000;stroke-miterlimit:10"></rect><rect x="308.09" y="142.56" width="9.04" height="9.34" style="fill:none;stroke:#000;stroke-miterlimit:10"></rect><rect x="336.11" y="146.48" width="4.52" height="5.42" style="fill:none;stroke:#000;stroke-miterlimit:10"></rect><rect x="355.44" y="168.41" width="44.85" height="5.48" style="fill:none;stroke:#000;stroke-miterlimit:10"></rect><rect x="490.24" y="185.65" width="79.08" height="4.09" style="fill:none;stroke:#000;stroke-miterlimit:10"></rect><rect x="510.57" y="177.51" width="31.34" height="8.14" style="fill:none;stroke:#000;stroke-miterlimit:10"></rect><polyline points="535.27 177.81 535.27 170.28 558.17 170.28 558.17 185.34" style="fill:none;stroke:#000;stroke-miterlimit:10"></polyline><polyline points="384.35 166.16 384.35 105.28 456.83 105.28 456.83 155.72 481.76 155.72 481.76 69.91 561.78 69.91 561.78 173.7 586.72 173.7" style="fill:none;stroke:#000;stroke-miterlimit:10"></polyline><polyline points="332.16 136.01 332.16 68.75 282.87 68.75" style="fill:none;stroke:#000;stroke-miterlimit:10"></polyline><polyline points="176.76 152.83 160.52 152.83 160.52 105.86 144.86 105.86" style="fill:none;stroke:#000;stroke-miterlimit:10"></polyline><polyline points="54.99 140.07 41.65 140.07 41.65 322.72" style="fill:none;stroke:#000;stroke-miterlimit:10"></polyline><polyline points="611.07 106.44 611.07 84.4 618.03 84.4" style="fill:none;stroke:#000;stroke-miterlimit:10"></polyline><polyline points="658.04 84.98 682.97 84.98 682.97 177.18 725.3 177.18 725.3 283.87" style="fill:none;stroke:#000;stroke-miterlimit:10"></polyline><rect x="222.57" y="51.35" width="6.22" height="12.18" style="fill:none;stroke:#000;stroke-miterlimit:10"></rect><rect x="233.77" y="51.35" width="6.22" height="12.18" style="fill:none;stroke:#000;stroke-miterlimit:10"></rect><rect x="244.97" y="51.35" width="6.22" height="12.18" style="fill:none;stroke:#000;stroke-miterlimit:10"></rect><rect x="256.17" y="51.35" width="6.22" height="12.18" style="fill:none;stroke:#000;stroke-miterlimit:10"></rect><rect x="267.37" y="51.35" width="6.22" height="12.18" style="fill:none;stroke:#000;stroke-miterlimit:10"></rect><rect x="222.57" y="71.94" width="6.22" height="12.18" style="fill:none;stroke:#000;stroke-miterlimit:10"></rect><rect x="233.77" y="71.94" width="6.22" height="12.18" style="fill:none;stroke:#000;stroke-miterlimit:10"></rect><rect x="244.97" y="71.94" width="6.22" height="12.18" style="fill:none;stroke:#000;stroke-miterlimit:10"></rect><rect x="256.17" y="71.94" width="6.22" height="12.18" style="fill:none;stroke:#000;stroke-miterlimit:10"></rect><rect x="267.37" y="71.94" width="6.22" height="12.18" style="fill:none;stroke:#000;stroke-miterlimit:10"></rect><rect x="222.57" y="92.52" width="6.22" height="12.18" style="fill:none;stroke:#000;stroke-miterlimit:10"></rect><rect x="233.77" y="92.52" width="6.22" height="12.18" style="fill:none;stroke:#000;stroke-miterlimit:10"></rect><rect x="244.97" y="92.52" width="6.22" height="12.18" style="fill:none;stroke:#000;stroke-miterlimit:10"></rect><rect x="256.17" y="92.52" width="6.22" height="12.18" style="fill:none;stroke:#000;stroke-miterlimit:10"></rect><rect x="267.37" y="92.52" width="6.22" height="12.18" style="fill:none;stroke:#000;stroke-miterlimit:10"></rect><rect x="222.57" y="113.11" width="6.22" height="12.18" style="fill:none;stroke:#000;stroke-miterlimit:10"></rect><rect x="233.77" y="113.11" width="6.22" height="12.18" style="fill:none;stroke:#000;stroke-miterlimit:10"></rect><rect x="244.97" y="113.11" width="6.22" height="12.18" style="fill:none;stroke:#000;stroke-miterlimit:10"></rect><rect x="256.17" y="113.11" width="6.22" height="12.18" style="fill:none;stroke:#000;stroke-miterlimit:10"></rect><rect x="267.37" y="113.11" width="6.22" height="12.18" style="fill:none;stroke:#000;stroke-miterlimit:10"></rect><rect x="222.57" y="133.69" width="6.22" height="12.18" style="fill:none;stroke:#000;stroke-miterlimit:10"></rect><rect x="233.77" y="133.69" width="6.22" height="12.18" style="fill:none;stroke:#000;stroke-miterlimit:10"></rect><rect x="244.97" y="133.69" width="6.22" height="12.18" style="fill:none;stroke:#000;stroke-miterlimit:10"></rect><rect x="256.17" y="133.69" width="6.22" height="12.18" style="fill:none;stroke:#000;stroke-miterlimit:10"></rect><rect x="267.37" y="133.69" width="6.22" height="12.18" style="fill:none;stroke:#000;stroke-miterlimit:10"></rect><rect x="222.57" y="154.28" width="6.22" height="12.18" style="fill:none;stroke:#000;stroke-miterlimit:10"></rect><rect x="233.77" y="154.28" width="6.22" height="12.18" style="fill:none;stroke:#000;stroke-miterlimit:10"></rect><rect x="244.97" y="154.28" width="6.22" height="12.18" style="fill:none;stroke:#000;stroke-miterlimit:10"></rect><rect x="256.17" y="154.28" width="6.22" height="12.18" style="fill:none;stroke:#000;stroke-miterlimit:10"></rect><rect x="267.37" y="154.28" width="6.22" height="12.18" style="fill:none;stroke:#000;stroke-miterlimit:10"></rect><rect x="184.38" y="154.28" width="6.22" height="12.18" style="fill:none;stroke:#000;stroke-miterlimit:10"></rect><rect x="195.58" y="154.28" width="6.22" height="12.18" style="fill:none;stroke:#000;stroke-miterlimit:10"></rect><rect x="206.78" y="154.28" width="6.22" height="12.18" style="fill:none;stroke:#000;stroke-miterlimit:10"></rect><rect x="184.38" y="174.28" width="6.22" height="12.18" style="fill:none;stroke:#000;stroke-miterlimit:10"></rect><rect x="195.58" y="174.28" width="6.22" height="12.18" style="fill:none;stroke:#000;stroke-miterlimit:10"></rect><rect x="206.78" y="174.28" width="6.22" height="12.18" style="fill:none;stroke:#000;stroke-miterlimit:10"></rect><rect x="184.38" y="194.29" width="6.22" height="12.18" style="fill:none;stroke:#000;stroke-miterlimit:10"></rect><rect x="195.58" y="194.29" width="6.22" height="12.18" style="fill:none;stroke:#000;stroke-miterlimit:10"></rect><rect x="206.78" y="194.29" width="6.22" height="12.18" style="fill:none;stroke:#000;stroke-miterlimit:10"></rect><rect x="184.38" y="214.29" width="6.22" height="12.18" style="fill:none;stroke:#000;stroke-miterlimit:10"></rect><rect x="195.58" y="214.29" width="6.22" height="12.18" style="fill:none;stroke:#000;stroke-miterlimit:10"></rect><rect x="206.78" y="214.29" width="6.22" height="12.18" style="fill:none;stroke:#000;stroke-miterlimit:10"></rect><rect x="184.38" y="234.3" width="6.22" height="12.18" style="fill:none;stroke:#000;stroke-miterlimit:10"></rect><rect x="195.58" y="234.3" width="6.22" height="12.18" style="fill:none;stroke:#000;stroke-miterlimit:10"></rect><rect x="206.78" y="234.3" width="6.22" height="12.18" style="fill:none;stroke:#000;stroke-miterlimit:10"></rect><rect x="184.38" y="254.3" width="6.22" height="12.18" style="fill:none;stroke:#000;stroke-miterlimit:10"></rect><rect x="195.58" y="254.3" width="6.22" height="12.18" style="fill:none;stroke:#000;stroke-miterlimit:10"></rect><rect x="206.78" y="254.3" width="6.22" height="12.18" style="fill:none;stroke:#000;stroke-miterlimit:10"></rect><rect x="184.38" y="274.31" width="6.22" height="12.18" style="fill:none;stroke:#000;stroke-miterlimit:10"></rect><rect x="195.58" y="274.31" width="6.22" height="12.18" style="fill:none;stroke:#000;stroke-miterlimit:10"></rect><rect x="206.78" y="274.31" width="6.22" height="12.18" style="fill:none;stroke:#000;stroke-miterlimit:10"></rect><rect x="184.38" y="294.31" width="6.22" height="12.18" style="fill:none;stroke:#000;stroke-miterlimit:10"></rect><rect x="195.58" y="294.31" width="6.22" height="12.18" style="fill:none;stroke:#000;stroke-miterlimit:10"></rect><rect x="206.78" y="294.31" width="6.22" height="12.18" style="fill:none;stroke:#000;stroke-miterlimit:10"></rect><rect x="184.38" y="314.32" width="6.22" height="12.18" style="fill:none;stroke:#000;stroke-miterlimit:10"></rect><rect x="195.58" y="314.32" width="6.22" height="12.18" style="fill:none;stroke:#000;stroke-miterlimit:10"></rect><rect x="206.78" y="314.32" width="6.22" height="12.18" style="fill:none;stroke:#000;stroke-miterlimit:10"></rect><rect x="184.38" y="334.32" width="6.22" height="12.18" style="fill:none;stroke:#000;stroke-miterlimit:10"></rect><rect x="195.58" y="334.32" width="6.22" height="12.18" style="fill:none;stroke:#000;stroke-miterlimit:10"></rect><rect x="206.78" y="334.32" width="6.22" height="12.18" style="fill:none;stroke:#000;stroke-miterlimit:10"></rect><rect x="184.38" y="354.33" width="6.22" height="12.18" style="fill:none;stroke:#000;stroke-miterlimit:10"></rect><rect x="195.58" y="354.33" width="6.22" height="12.18" style="fill:none;stroke:#000;stroke-miterlimit:10"></rect><rect x="206.78" y="354.33" width="6.22" height="12.18" style="fill:none;stroke:#000;stroke-miterlimit:10"></rect><rect x="284.25" y="236.61" width="6.22" height="12.18" style="fill:none;stroke:#000;stroke-miterlimit:10"></rect><rect x="295.45" y="236.61" width="6.22" height="12.18" style="fill:none;stroke:#000;stroke-miterlimit:10"></rect><rect x="284.25" y="256.62" width="6.22" height="12.18" style="fill:none;stroke:#000;stroke-miterlimit:10"></rect><rect x="295.45" y="256.62" width="6.22" height="12.18" style="fill:none;stroke:#000;stroke-miterlimit:10"></rect><rect x="284.25" y="276.63" width="6.22" height="12.18" style="fill:none;stroke:#000;stroke-miterlimit:10"></rect><rect x="295.45" y="276.63" width="6.22" height="12.18" style="fill:none;stroke:#000;stroke-miterlimit:10"></rect><rect x="284.25" y="296.63" width="6.22" height="12.18" style="fill:none;stroke:#000;stroke-miterlimit:10"></rect><rect x="295.45" y="296.63" width="6.22" height="12.18" style="fill:none;stroke:#000;stroke-miterlimit:10"></rect><rect x="284.25" y="316.64" width="6.22" height="12.18" style="fill:none;stroke:#000;stroke-miterlimit:10"></rect><rect x="295.45" y="316.64" width="6.22" height="12.18" style="fill:none;stroke:#000;stroke-miterlimit:10"></rect><rect x="284.25" y="336.64" width="6.22" height="12.18" style="fill:none;stroke:#000;stroke-miterlimit:10"></rect><rect x="295.45" y="336.64" width="6.22" height="12.18" style="fill:none;stroke:#000;stroke-miterlimit:10"></rect><rect x="284.25" y="356.65" width="6.22" height="12.18" style="fill:none;stroke:#000;stroke-miterlimit:10"></rect><rect x="295.45" y="356.65" width="6.22" height="12.18" style="fill:none;stroke:#000;stroke-miterlimit:10"></rect><rect x="222.57" y="174.86" width="6.22" height="12.18" style="fill:none;stroke:#000;stroke-miterlimit:10"></rect><rect x="233.77" y="174.86" width="6.22" height="12.18" style="fill:none;stroke:#000;stroke-miterlimit:10"></rect><rect x="244.97" y="174.86" width="6.22" height="12.18" style="fill:none;stroke:#000;stroke-miterlimit:10"></rect><rect x="256.17" y="174.86" width="6.22" height="12.18" style="fill:none;stroke:#000;stroke-miterlimit:10"></rect><rect x="267.37" y="174.86" width="6.22" height="12.18" style="fill:none;stroke:#000;stroke-miterlimit:10"></rect><rect x="222.57" y="195.45" width="6.22" height="12.18" style="fill:none;stroke:#000;stroke-miterlimit:10"></rect><rect x="233.77" y="195.45" width="6.22" height="12.18" style="fill:none;stroke:#000;stroke-miterlimit:10"></rect><rect x="244.97" y="195.45" width="6.22" height="12.18" style="fill:none;stroke:#000;stroke-miterlimit:10"></rect><rect x="256.17" y="195.45" width="6.22" height="12.18" style="fill:none;stroke:#000;stroke-miterlimit:10"></rect><rect x="267.37" y="195.45" width="6.22" height="12.18" style="fill:none;stroke:#000;stroke-miterlimit:10"></rect><rect x="222.57" y="216.03" width="6.22" height="12.18" style="fill:none;stroke:#000;stroke-miterlimit:10"></rect><rect x="233.77" y="216.03" width="6.22" height="12.18" style="fill:none;stroke:#000;stroke-miterlimit:10"></rect><rect x="244.97" y="216.03" width="6.22" height="12.18" style="fill:none;stroke:#000;stroke-miterlimit:10"></rect><rect x="256.17" y="216.03" width="6.22" height="12.18" style="fill:none;stroke:#000;stroke-miterlimit:10"></rect><rect x="267.37" y="216.03" width="6.22" height="12.18" style="fill:none;stroke:#000;stroke-miterlimit:10"></rect><rect x="222.57" y="236.61" width="6.22" height="12.18" style="fill:none;stroke:#000;stroke-miterlimit:10"></rect><rect x="233.77" y="236.61" width="6.22" height="12.18" style="fill:none;stroke:#000;stroke-miterlimit:10"></rect><rect x="244.97" y="236.61" width="6.22" height="12.18" style="fill:none;stroke:#000;stroke-miterlimit:10"></rect><rect x="256.17" y="236.61" width="6.22" height="12.18" style="fill:none;stroke:#000;stroke-miterlimit:10"></rect><rect x="267.37" y="236.61" width="6.22" height="12.18" style="fill:none;stroke:#000;stroke-miterlimit:10"></rect><rect x="222.57" y="257.2" width="6.22" height="12.18" style="fill:none;stroke:#000;stroke-miterlimit:10"></rect><rect x="233.77" y="257.2" width="6.22" height="12.18" style="fill:none;stroke:#000;stroke-miterlimit:10"></rect><rect x="244.97" y="257.2" width="6.22" height="12.18" style="fill:none;stroke:#000;stroke-miterlimit:10"></rect><rect x="256.17" y="257.2" width="6.22" height="12.18" style="fill:none;stroke:#000;stroke-miterlimit:10"></rect><rect x="267.37" y="257.2" width="6.22" height="12.18" style="fill:none;stroke:#000;stroke-miterlimit:10"></rect><rect x="222.57" y="277.78" width="6.22" height="12.18" style="fill:none;stroke:#000;stroke-miterlimit:10"></rect><rect x="233.77" y="277.78" width="6.22" height="12.18" style="fill:none;stroke:#000;stroke-miterlimit:10"></rect><rect x="244.97" y="277.78" width="6.22" height="12.18" style="fill:none;stroke:#000;stroke-miterlimit:10"></rect><rect x="256.17" y="277.78" width="6.22" height="12.18" style="fill:none;stroke:#000;stroke-miterlimit:10"></rect><rect x="267.37" y="277.78" width="6.22" height="12.18" style="fill:none;stroke:#000;stroke-miterlimit:10"></rect><rect x="222.57" y="298.37" width="6.22" height="12.18" style="fill:none;stroke:#000;stroke-miterlimit:10"></rect><rect x="233.77" y="298.37" width="6.22" height="12.18" style="fill:none;stroke:#000;stroke-miterlimit:10"></rect><rect x="244.97" y="298.37" width="6.22" height="12.18" style="fill:none;stroke:#000;stroke-miterlimit:10"></rect><rect x="256.17" y="298.37" width="6.22" height="12.18" style="fill:none;stroke:#000;stroke-miterlimit:10"></rect><rect x="267.37" y="298.37" width="6.22" height="12.18" style="fill:none;stroke:#000;stroke-miterlimit:10"></rect><rect x="222.57" y="318.95" width="6.22" height="12.18" style="fill:none;stroke:#000;stroke-miterlimit:10"></rect><rect x="233.77" y="318.95" width="6.22" height="12.18" style="fill:none;stroke:#000;stroke-miterlimit:10"></rect><rect x="244.97" y="318.95" width="6.22" height="12.18" style="fill:none;stroke:#000;stroke-miterlimit:10"></rect><rect x="256.17" y="318.95" width="6.22" height="12.18" style="fill:none;stroke:#000;stroke-miterlimit:10"></rect><rect x="267.37" y="318.95" width="6.22" height="12.18" style="fill:none;stroke:#000;stroke-miterlimit:10"></rect><rect x="222.57" y="339.54" width="6.22" height="12.18" style="fill:none;stroke:#000;stroke-miterlimit:10"></rect><rect x="233.77" y="339.54" width="6.22" height="12.18" style="fill:none;stroke:#000;stroke-miterlimit:10"></rect><rect x="244.97" y="339.54" width="6.22" height="12.18" style="fill:none;stroke:#000;stroke-miterlimit:10"></rect><rect x="256.17" y="339.54" width="6.22" height="12.18" style="fill:none;stroke:#000;stroke-miterlimit:10"></rect><rect x="267.37" y="339.54" width="6.22" height="12.18" style="fill:none;stroke:#000;stroke-miterlimit:10"></rect><rect x="222.57" y="360.7" width="6.22" height="12.18" style="fill:none;stroke:#000;stroke-miterlimit:10"></rect><rect x="233.77" y="360.7" width="6.22" height="12.18" style="fill:none;stroke:#000;stroke-miterlimit:10"></rect><rect x="244.97" y="360.7" width="6.22" height="12.18" style="fill:none;stroke:#000;stroke-miterlimit:10"></rect><rect x="256.17" y="360.7" width="6.22" height="12.18" style="fill:none;stroke:#000;stroke-miterlimit:10"></rect><rect x="267.37" y="360.7" width="6.22" height="12.18" style="fill:none;stroke:#000;stroke-miterlimit:10"></rect><line x1="217.88" y1="145.29" x2="217.88" y2="393.47" style="fill:none;stroke:#000;stroke-miterlimit:10"></line><line x1="313.02" y1="156.88" x2="313.02" y2="389.99" style="fill:none;stroke:#000;stroke-miterlimit:10"></line><line x1="325.2" y1="156.88" x2="325.2" y2="389.99" style="fill:none;stroke:#000;stroke-miterlimit:10"></line><line x1="337.38" y1="156.88" x2="337.38" y2="389.99" style="fill:none;stroke:#000;stroke-miterlimit:10"></line><line x1="349.55" y1="156.88" x2="349.55" y2="389.99" style="fill:none;stroke:#000;stroke-miterlimit:10"></line><line x1="361.73" y1="180.08" x2="361.73" y2="389.99" style="fill:none;stroke:#000;stroke-miterlimit:10"></line><line x1="373.91" y1="180.08" x2="373.91" y2="389.99" style="fill:none;stroke:#000;stroke-miterlimit:10"></line><line x1="386.09" y1="180.08" x2="386.09" y2="389.99" style="fill:none;stroke:#000;stroke-miterlimit:10"></line><line x1="60.79" y1="101.22" x2="136.75" y2="101.22" style="fill:none;stroke:#000;stroke-miterlimit:10"></line><line x1="60.79" y1="116.29" x2="136.75" y2="116.29" style="fill:none;stroke:#000;stroke-miterlimit:10"></line><line x1="60.79" y1="131.37" x2="136.75" y2="131.37" style="fill:none;stroke:#000;stroke-miterlimit:10"></line><line x1="60.79" y1="146.45" x2="136.75" y2="146.45" style="fill:none;stroke:#000;stroke-miterlimit:10"></line><line x1="60.79" y1="161.52" x2="136.75" y2="161.52" style="fill:none;stroke:#000;stroke-miterlimit:10"></line><line x1="60.79" y1="176.6" x2="136.75" y2="176.6" style="fill:none;stroke:#000;stroke-miterlimit:10"></line><line x1="60.79" y1="191.68" x2="136.75" y2="191.68" style="fill:none;stroke:#000;stroke-miterlimit:10"></line><line x1="60.79" y1="206.75" x2="136.75" y2="206.75" style="fill:none;stroke:#000;stroke-miterlimit:10"></line><line x1="60.79" y1="221.83" x2="136.75" y2="221.83" style="fill:none;stroke:#000;stroke-miterlimit:10"></line><line x1="60.79" y1="236.9" x2="136.75" y2="236.9" style="fill:none;stroke:#000;stroke-miterlimit:10"></line><line x1="60.79" y1="251.98" x2="136.75" y2="251.98" style="fill:none;stroke:#000;stroke-miterlimit:10"></line><line x1="60.79" y1="267.06" x2="136.75" y2="267.06" style="fill:none;stroke:#000;stroke-miterlimit:10"></line><line x1="60.79" y1="282.13" x2="136.75" y2="282.13" style="fill:none;stroke:#000;stroke-miterlimit:10"></line><line x1="60.79" y1="297.21" x2="136.75" y2="297.21" style="fill:none;stroke:#000;stroke-miterlimit:10"></line><line x1="60.79" y1="312.29" x2="136.75" y2="312.29" style="fill:none;stroke:#000;stroke-miterlimit:10"></line><line x1="60.79" y1="327.36" x2="136.75" y2="327.36" style="fill:none;stroke:#000;stroke-miterlimit:10"></line><line x1="60.79" y1="342.44" x2="136.75" y2="342.44" style="fill:none;stroke:#000;stroke-miterlimit:10"></line><line x1="60.79" y1="357.52" x2="136.75" y2="357.52" style="fill:none;stroke:#000;stroke-miterlimit:10"></line><line x1="60.79" y1="372.59" x2="136.75" y2="372.59" style="fill:none;stroke:#000;stroke-miterlimit:10"></line><line x1="60.79" y1="387.67" x2="136.75" y2="387.67" style="fill:none;stroke:#000;stroke-miterlimit:10"></line><line x1="60.79" y1="402.74" x2="136.75" y2="402.74" style="fill:none;stroke:#000;stroke-miterlimit:10"></line><line x1="70.64" y1="78.6" x2="70.64" y2="406.22" style="fill:none;stroke:#000;stroke-miterlimit:10"></line><polyline points="592.51 142.97 609.33 142.97 609.33 151.09 592.51 151.09" style="fill:none;stroke:#000;stroke-miterlimit:10"></polyline><polyline points="690.51 234.01 671.38 234.01 671.38 242.12 690.51 242.12" style="fill:none;stroke:#000;stroke-miterlimit:10"></polyline><polyline points="690.51 253.14 671.38 253.14 671.38 261.26 690.51 261.26" style="fill:none;stroke:#000;stroke-miterlimit:10"></polyline><polyline points="690.51 272.28 671.38 272.28 671.38 280.39 690.51 280.39" style="fill:none;stroke:#000;stroke-miterlimit:10"></polyline><polyline points="690.51 291.41 671.38 291.41 671.38 299.53 690.51 299.53" style="fill:none;stroke:#000;stroke-miterlimit:10"></polyline><polyline points="690.51 310.55 671.38 310.55 671.38 318.67 690.51 318.67" style="fill:none;stroke:#000;stroke-miterlimit:10"></polyline><polyline points="690.51 329.68 671.38 329.68 671.38 337.8 690.51 337.8" style="fill:none;stroke:#000;stroke-miterlimit:10"></polyline><polyline points="690.51 348.82 671.38 348.82 671.38 356.94 690.51 356.94" style="fill:none;stroke:#000;stroke-miterlimit:10"></polyline><polyline points="690.51 367.95 671.38 367.95 671.38 376.07 690.51 376.07" style="fill:none;stroke:#000;stroke-miterlimit:10"></polyline><polyline points="592.51 165 609.33 165 609.33 173.12 592.51 173.12" style="fill:none;stroke:#000;stroke-miterlimit:10"></polyline><polyline points="592.51 187.04 609.33 187.04 609.33 195.16 592.51 195.16" style="fill:none;stroke:#000;stroke-miterlimit:10"></polyline><polyline points="592.51 209.07 609.33 209.07 609.33 217.19 592.51 217.19" style="fill:none;stroke:#000;stroke-miterlimit:10"></polyline><polyline points="592.51 231.11 609.33 231.11 609.33 239.22 592.51 239.22" style="fill:none;stroke:#000;stroke-miterlimit:10"></polyline><polyline points="592.51 253.14 609.33 253.14 609.33 261.26 592.51 261.26" style="fill:none;stroke:#000;stroke-miterlimit:10"></polyline><polyline points="592.51 275.18 609.33 275.18 609.33 283.29 592.51 283.29" style="fill:none;stroke:#000;stroke-miterlimit:10"></polyline><polyline points="592.51 297.21 609.33 297.21 609.33 305.33 592.51 305.33" style="fill:none;stroke:#000;stroke-miterlimit:10"></polyline><polyline points="592.51 319.25 609.33 319.25 609.33 327.36 592.51 327.36" style="fill:none;stroke:#000;stroke-miterlimit:10"></polyline><polyline points="592.51 341.28 609.33 341.28 609.33 349.4 592.51 349.4" style="fill:none;stroke:#000;stroke-miterlimit:10"></polyline><rect x="492.78" y="195.73" width="73.06" height="6.96" style="fill:none;stroke:#000;stroke-miterlimit:10"></rect><rect x="492.78" y="207.91" width="73.06" height="6.96" style="fill:none;stroke:#000;stroke-miterlimit:10"></rect><rect x="492.78" y="220.09" width="73.06" height="6.96" style="fill:none;stroke:#000;stroke-miterlimit:10"></rect><rect x="492.78" y="232.27" width="73.06" height="6.96" style="fill:none;stroke:#000;stroke-miterlimit:10"></rect><rect x="492.78" y="244.44" width="73.06" height="6.96" style="fill:none;stroke:#000;stroke-miterlimit:10"></rect><rect x="492.78" y="256.62" width="73.06" height="6.96" style="fill:none;stroke:#000;stroke-miterlimit:10"></rect><rect x="492.78" y="268.8" width="73.06" height="6.96" style="fill:none;stroke:#000;stroke-miterlimit:10"></rect><rect x="492.78" y="280.97" width="73.06" height="6.96" style="fill:none;stroke:#000;stroke-miterlimit:10"></rect><rect x="492.78" y="293.15" width="73.06" height="6.96" style="fill:none;stroke:#000;stroke-miterlimit:10"></rect><rect x="492.78" y="305.33" width="73.06" height="6.96" style="fill:none;stroke:#000;stroke-miterlimit:10"></rect><rect x="492.78" y="317.51" width="73.06" height="6.96" style="fill:none;stroke:#000;stroke-miterlimit:10"></rect><rect x="492.78" y="329.68" width="73.06" height="6.96" style="fill:none;stroke:#000;stroke-miterlimit:10"></rect><rect x="492.78" y="341.86" width="73.06" height="6.96" style="fill:none;stroke:#000;stroke-miterlimit:10"></rect><rect x="492.78" y="354.04" width="73.06" height="6.96" style="fill:none;stroke:#000;stroke-miterlimit:10"></rect><rect x="492.78" y="366.21" width="73.06" height="6.96" style="fill:none;stroke:#000;stroke-miterlimit:10"></rect><rect x="492.78" y="378.39" width="73.06" height="6.96" style="fill:none;stroke:#000;stroke-miterlimit:10"></rect><rect x="492.78" y="390.57" width="73.06" height="6.96" style="fill:none;stroke:#000;stroke-miterlimit:10"></rect><line x1="619.77" y1="123.83" x2="619.77" y2="392.89" style="fill:none;stroke:#000;stroke-miterlimit:10"></line><line x1="634.84" y1="72.81" x2="634.84" y2="392.89" style="fill:none;stroke:#000;stroke-miterlimit:10"></line><rect x="424.94" y="331.42" width="36.53" height="19.14" style="fill:none;stroke:#000;stroke-miterlimit:10"></rect><rect x="433.63" y="297.79" width="19.14" height="33.63" style="fill:none;stroke:#000;stroke-miterlimit:10"></rect><line x1="279.78" y1="226.87" x2="279.78" y2="393.01" style="fill:none;stroke:#000;stroke-miterlimit:10"></line><line x1="489.61" y1="208.66" x2="400.9" y2="208.66" style="fill:none;stroke:#000;stroke-miterlimit:10"></line><line x1="489.61" y1="218.58" x2="400.9" y2="218.58" style="fill:none;stroke:#000;stroke-miterlimit:10"></line><rect x="404.86" y="226.01" width="13.53" height="9.91" style="fill:none;stroke:#000;stroke-miterlimit:10"></rect><rect x="421.55" y="226.01" width="13.53" height="9.91" style="fill:none;stroke:#000;stroke-miterlimit:10"></rect><rect x="438.24" y="226.01" width="13.53" height="9.91" style="fill:none;stroke:#000;stroke-miterlimit:10"></rect><rect x="454.93" y="226.01" width="13.53" height="9.91" style="fill:none;stroke:#000;stroke-miterlimit:10"></rect><rect x="471.62" y="226.01" width="13.53" height="9.91" style="fill:none;stroke:#000;stroke-miterlimit:10"></rect><rect x="404.86" y="241.37" width="13.53" height="9.91" style="fill:none;stroke:#000;stroke-miterlimit:10"></rect><rect x="421.55" y="241.37" width="13.53" height="9.91" style="fill:none;stroke:#000;stroke-miterlimit:10"></rect><rect x="438.24" y="241.37" width="13.53" height="9.91" style="fill:none;stroke:#000;stroke-miterlimit:10"></rect><rect x="454.93" y="241.37" width="13.53" height="9.91" style="fill:none;stroke:#000;stroke-miterlimit:10"></rect><rect x="471.62" y="241.37" width="13.53" height="9.91" style="fill:none;stroke:#000;stroke-miterlimit:10"></rect><rect x="404.86" y="256.73" width="13.53" height="9.91" style="fill:none;stroke:#000;stroke-miterlimit:10"></rect><rect x="421.55" y="256.73" width="13.53" height="9.91" style="fill:none;stroke:#000;stroke-miterlimit:10"></rect><rect x="438.24" y="256.73" width="13.53" height="9.91" style="fill:none;stroke:#000;stroke-miterlimit:10"></rect><rect x="454.93" y="256.73" width="13.53" height="9.91" style="fill:none;stroke:#000;stroke-miterlimit:10"></rect><rect x="471.62" y="256.73" width="13.53" height="9.91" style="fill:none;stroke:#000;stroke-miterlimit:10"></rect><rect x="404.86" y="284.49" width="13.53" height="9.91" style="fill:none;stroke:#000;stroke-miterlimit:10"></rect><rect x="421.55" y="284.49" width="13.53" height="9.91" style="fill:none;stroke:#000;stroke-miterlimit:10"></rect><rect x="438.24" y="284.49" width="13.53" height="9.91" style="fill:none;stroke:#000;stroke-miterlimit:10"></rect><rect x="454.93" y="284.49" width="13.53" height="9.91" style="fill:none;stroke:#000;stroke-miterlimit:10"></rect><rect x="471.62" y="284.49" width="13.53" height="9.91" style="fill:none;stroke:#000;stroke-miterlimit:10"></rect></g></g><g id="freepik--Plant--inject-398"><path d="M701,435.24s.46-1.66.47-1.77c.18-1.26-.22-3.8-1.51-4.42a1.69,1.69,0,0,0-2.3,1,3.58,3.58,0,0,0,.61,2.91A12.05,12.05,0,0,0,701,435.24Z" style="fill:#263238"></path><path d="M675.65,434.7a12,12,0,0,0,3.53.39s-.54-1.64-.58-1.74c-.55-1.15-2.29-3.05-3.71-2.85a1.68,1.68,0,0,0-1.35,2.11A3.54,3.54,0,0,0,675.65,434.7Z" style="fill:#263238"></path><path d="M676.52,442a11.62,11.62,0,0,0,3.47-.54,31.37,31.37,0,0,0,1.36,3.75c.31.71.64,1.42,1,2.12-.2-.3-.39-.56-.42-.6-.83-1-3-2.33-4.32-1.77a1.69,1.69,0,0,0-.75,2.4,3.56,3.56,0,0,0,2.59,1.45,11,11,0,0,0,3.38-.52c.13.27.26.54.4.81.65,1.29,1.3,2.57,1.9,3.85.21.45.4.9.6,1.35-.19-.26-.34-.49-.37-.52-.83-1-3-2.33-4.32-1.77a1.68,1.68,0,0,0-.75,2.4,3.56,3.56,0,0,0,2.59,1.45,10.85,10.85,0,0,0,3.29-.49c.18.47.37.93.52,1.39s.22.62.31,1,.17.63.26.94c.15.61.3,1.24.43,1.84.09.42.17.81.25,1.21-.2-.45-.62-1.32-.67-1.39-.67-1.08-2.62-2.76-4-2.41a1.68,1.68,0,0,0-1.1,2.26,3.52,3.52,0,0,0,2.33,1.83,12.06,12.06,0,0,0,3.5,0c.13.66.26,1.31.36,1.92.38,2.11.61,3.88.75,5.13h1v-.11c-.18-1.26-.45-3.05-.87-5.18-.14-.67-.29-1.39-.46-2.12a19,19,0,0,0,1.95-.92,12.26,12.26,0,0,0,2.85,1.83c-.26.63-.51,1.23-.76,1.8-.85,2-1.64,3.58-2.21,4.7h1.06c.53-1.11,1.21-2.6,1.93-4.37.26-.63.53-1.32.79-2a11.89,11.89,0,0,0,3.49.27,3.56,3.56,0,0,0,2.47-1.65,1.7,1.7,0,0,0-.93-2.34c-1.36-.45-3.42,1.08-4.18,2.11,0,.06-.45.77-.7,1.22.1-.28.21-.56.32-.86.21-.59.41-1.18.63-1.82.09-.31.18-.63.28-.95s.17-.65.25-1c.19-.78.34-1.57.47-2.37a10.85,10.85,0,0,0,3.31.76,3.55,3.55,0,0,0,2.69-1.26,1.7,1.7,0,0,0-.57-2.45c-1.27-.65-3.54.56-4.44,1.45-.06.06-.64.78-.94,1.18.07-.48.15-1,.21-1.45.17-1.42.31-2.86.45-4.29,0-.44.09-.88.13-1.31a12,12,0,0,0,3.43.8,3.53,3.53,0,0,0,2.68-1.26,1.69,1.69,0,0,0-.56-2.45c-1.27-.65-3.54.55-4.45,1.45-.07.07-.89,1.1-1.09,1.38.1-1,.21-1.93.36-2.87a30,30,0,0,1,.82-3.77,11.62,11.62,0,0,0,3.44.81,3.49,3.49,0,0,0,2.69-1.26,1.69,1.69,0,0,0-.57-2.45c-1.26-.65-3.54.56-4.44,1.46-.06.06-.69.84-1,1.22l-.07,0A21.47,21.47,0,0,1,700,437.3c.33-.64.67-1.23,1-1.79a11.54,11.54,0,0,0,3.26,1.14,3.51,3.51,0,0,0,2.81-.95,1.69,1.69,0,0,0-.29-2.5c-1.19-.79-3.58.16-4.58,1,0,0-.56.54-.92.91l.49-.76c.59-.9,1.19-1.68,1.73-2.37.31-.4.6-.74.87-1.07a11.11,11.11,0,0,0,3.4-.48,3.53,3.53,0,0,0,2.06-2.15,1.69,1.69,0,0,0-1.41-2.07c-1.42-.16-3.11,1.79-3.63,2.95,0,.1-.56,1.76-.53,1.76h0c-.27.3-.56.63-.86,1-.55.68-1.17,1.45-1.79,2.34a29.89,29.89,0,0,0-1.86,3,21.66,21.66,0,0,0-1.59,3.58.06.06,0,0,0,0,0c0-.42,0-1.58,0-1.67-.16-1.27-1.22-3.61-2.62-3.87a1.69,1.69,0,0,0-2,1.59A3.54,3.54,0,0,0,695,439.5a11.81,11.81,0,0,0,3.19,1.46,29.69,29.69,0,0,0-.93,3.88c-.14.76-.25,1.53-.36,2.31,0-.36,0-.69,0-.73-.17-1.26-1.23-3.61-2.63-3.87a1.7,1.7,0,0,0-2,1.59,3.54,3.54,0,0,0,1.36,2.64,11,11,0,0,0,3.1,1.43c0,.3-.08.6-.11.9-.17,1.43-.34,2.86-.54,4.26-.07.49-.16,1-.25,1.45,0-.32,0-.59,0-.63-.17-1.26-1.23-3.61-2.63-3.87a1.7,1.7,0,0,0-2,1.59,3.52,3.52,0,0,0,1.36,2.64,10.92,10.92,0,0,0,3,1.41c-.1.49-.21,1-.33,1.45-.09.32-.16.64-.27.95l-.3.94c-.21.59-.43,1.2-.65,1.77-.15.4-.31.77-.46,1.15.08-.49.21-1.45.21-1.53a6.53,6.53,0,0,0-.88-3.19,2.3,2.3,0,0,0,0-.37,1.69,1.69,0,0,0-2.07-1.43c-1.38.36-2.25,2.78-2.32,4.06,0,.07.05.89.09,1.41-.07-.3-.13-.6-.21-.9-.14-.61-.31-1.22-.48-1.87-.09-.31-.19-.62-.28-.94s-.23-.64-.34-1c-.27-.74-.58-1.48-.92-2.22a10.81,10.81,0,0,0,3.18-1.2,3.5,3.5,0,0,0,1.55-2.53,1.69,1.69,0,0,0-1.82-1.73c-1.42.16-2.65,2.42-2.91,3.66,0,.08-.1,1-.13,1.5-.21-.44-.41-.89-.63-1.33-.63-1.28-1.31-2.55-2-3.82l-.61-1.17a11.71,11.71,0,0,0,3.3-1.22,3.58,3.58,0,0,0,1.55-2.54,1.69,1.69,0,0,0-1.83-1.72c-1.42.15-2.65,2.41-2.9,3.66,0,.09-.14,1.41-.16,1.75-.44-.86-.88-1.72-1.28-2.59a29,29,0,0,1-1.39-3.6,11.79,11.79,0,0,0,3.32-1.22,3.53,3.53,0,0,0,1.54-2.53,1.68,1.68,0,0,0-1.82-1.73c-1.42.15-2.65,2.41-2.91,3.66,0,.08-.1,1.09-.14,1.57h-.08a21.41,21.41,0,0,1-.72-3.81c-.08-.7-.12-1.39-.14-2.05a11.65,11.65,0,0,0,3.35-.84,3.54,3.54,0,0,0,1.81-2.35,1.68,1.68,0,0,0-1.62-1.92c-1.43,0-2.9,2.11-3.29,3.32,0,.07-.16.76-.26,1.27,0-.3,0-.61,0-.9,0-1.08.07-2.07.13-2.94,0-.5.09-.95.14-1.36a11.23,11.23,0,0,0,2.57-2.29,3.5,3.5,0,0,0,.53-2.92,1.67,1.67,0,0,0-2.32-1c-1.27.65-1.6,3.2-1.39,4.46,0,.11.49,1.77.52,1.76l0,0c0,.41-.11.84-.16,1.31-.09.88-.18,1.86-.2,2.95a30,30,0,0,0,.08,3.5,21.93,21.93,0,0,0,.65,3.86s0,0,0,0c-.23-.35-.89-1.32-1-1.38-.83-1-3-2.34-4.32-1.78a1.69,1.69,0,0,0-.75,2.4A3.52,3.52,0,0,0,676.52,442Z" style="fill:#263238"></path><path d="M675.65,434.7a12,12,0,0,0,3.53.39s-.54-1.64-.58-1.74c-.55-1.15-2.29-3.05-3.71-2.85a1.68,1.68,0,0,0-1.35,2.11A3.54,3.54,0,0,0,675.65,434.7Z" style="fill:#263238;opacity:0.30000000000000004"></path><path d="M701,435.24s.46-1.66.47-1.77c.18-1.26-.22-3.8-1.51-4.42a1.69,1.69,0,0,0-2.3,1,3.58,3.58,0,0,0,.61,2.91A12.05,12.05,0,0,0,701,435.24Z" style="fill:#263238;opacity:0.30000000000000004"></path><path d="M676.52,442a11.62,11.62,0,0,0,3.47-.54,31.37,31.37,0,0,0,1.36,3.75c.31.71.64,1.42,1,2.12-.2-.3-.39-.56-.42-.6-.83-1-3-2.33-4.32-1.77a1.69,1.69,0,0,0-.75,2.4,3.56,3.56,0,0,0,2.59,1.45,11,11,0,0,0,3.38-.52c.13.27.26.54.4.81.65,1.29,1.3,2.57,1.9,3.85.21.45.4.9.6,1.35-.19-.26-.34-.49-.37-.52-.83-1-3-2.33-4.32-1.77a1.68,1.68,0,0,0-.75,2.4,3.56,3.56,0,0,0,2.59,1.45,10.85,10.85,0,0,0,3.29-.49c.18.47.37.93.52,1.39s.22.62.31,1,.17.63.26.94c.15.61.3,1.24.43,1.84.09.42.17.81.25,1.21-.2-.45-.62-1.32-.67-1.39-.67-1.08-2.62-2.76-4-2.41a1.68,1.68,0,0,0-1.1,2.26,3.52,3.52,0,0,0,2.33,1.83,12.06,12.06,0,0,0,3.5,0c.13.66.26,1.31.36,1.92.38,2.11.61,3.88.75,5.13h1v-.11c-.18-1.26-.45-3.05-.87-5.18-.14-.67-.29-1.39-.46-2.12a19,19,0,0,0,1.95-.92,12.26,12.26,0,0,0,2.85,1.83c-.26.63-.51,1.23-.76,1.8-.85,2-1.64,3.58-2.21,4.7h1.06c.53-1.11,1.21-2.6,1.93-4.37.26-.63.53-1.32.79-2a11.89,11.89,0,0,0,3.49.27,3.56,3.56,0,0,0,2.47-1.65,1.7,1.7,0,0,0-.93-2.34c-1.36-.45-3.42,1.08-4.18,2.11,0,.06-.45.77-.7,1.22.1-.28.21-.56.32-.86.21-.59.41-1.18.63-1.82.09-.31.18-.63.28-.95s.17-.65.25-1c.19-.78.34-1.57.47-2.37a10.85,10.85,0,0,0,3.31.76,3.55,3.55,0,0,0,2.69-1.26,1.7,1.7,0,0,0-.57-2.45c-1.27-.65-3.54.56-4.44,1.45-.06.06-.64.78-.94,1.18.07-.48.15-1,.21-1.45.17-1.42.31-2.86.45-4.29,0-.44.09-.88.13-1.31a12,12,0,0,0,3.43.8,3.53,3.53,0,0,0,2.68-1.26,1.69,1.69,0,0,0-.56-2.45c-1.27-.65-3.54.55-4.45,1.45-.07.07-.89,1.1-1.09,1.38.1-1,.21-1.93.36-2.87a30,30,0,0,1,.82-3.77,11.62,11.62,0,0,0,3.44.81,3.49,3.49,0,0,0,2.69-1.26,1.69,1.69,0,0,0-.57-2.45c-1.26-.65-3.54.56-4.44,1.46-.06.06-.69.84-1,1.22l-.07,0A21.47,21.47,0,0,1,700,437.3c.33-.64.67-1.23,1-1.79a11.54,11.54,0,0,0,3.26,1.14,3.51,3.51,0,0,0,2.81-.95,1.69,1.69,0,0,0-.29-2.5c-1.19-.79-3.58.16-4.58,1,0,0-.56.54-.92.91l.49-.76c.59-.9,1.19-1.68,1.73-2.37.31-.4.6-.74.87-1.07a11.11,11.11,0,0,0,3.4-.48,3.53,3.53,0,0,0,2.06-2.15,1.69,1.69,0,0,0-1.41-2.07c-1.42-.16-3.11,1.79-3.63,2.95,0,.1-.56,1.76-.53,1.76h0c-.27.3-.56.63-.86,1-.55.68-1.17,1.45-1.79,2.34a29.89,29.89,0,0,0-1.86,3,21.66,21.66,0,0,0-1.59,3.58.06.06,0,0,0,0,0c0-.42,0-1.58,0-1.67-.16-1.27-1.22-3.61-2.62-3.87a1.69,1.69,0,0,0-2,1.59A3.54,3.54,0,0,0,695,439.5a11.81,11.81,0,0,0,3.19,1.46,29.69,29.69,0,0,0-.93,3.88c-.14.76-.25,1.53-.36,2.31,0-.36,0-.69,0-.73-.17-1.26-1.23-3.61-2.63-3.87a1.7,1.7,0,0,0-2,1.59,3.54,3.54,0,0,0,1.36,2.64,11,11,0,0,0,3.1,1.43c0,.3-.08.6-.11.9-.17,1.43-.34,2.86-.54,4.26-.07.49-.16,1-.25,1.45,0-.32,0-.59,0-.63-.17-1.26-1.23-3.61-2.63-3.87a1.7,1.7,0,0,0-2,1.59,3.52,3.52,0,0,0,1.36,2.64,10.92,10.92,0,0,0,3,1.41c-.1.49-.21,1-.33,1.45-.09.32-.16.64-.27.95l-.3.94c-.21.59-.43,1.2-.65,1.77-.15.4-.31.77-.46,1.15.08-.49.21-1.45.21-1.53a6.53,6.53,0,0,0-.88-3.19,2.3,2.3,0,0,0,0-.37,1.69,1.69,0,0,0-2.07-1.43c-1.38.36-2.25,2.78-2.32,4.06,0,.07.05.89.09,1.41-.07-.3-.13-.6-.21-.9-.14-.61-.31-1.22-.48-1.87-.09-.31-.19-.62-.28-.94s-.23-.64-.34-1c-.27-.74-.58-1.48-.92-2.22a10.81,10.81,0,0,0,3.18-1.2,3.5,3.5,0,0,0,1.55-2.53,1.69,1.69,0,0,0-1.82-1.73c-1.42.16-2.65,2.42-2.91,3.66,0,.08-.1,1-.13,1.5-.21-.44-.41-.89-.63-1.33-.63-1.28-1.31-2.55-2-3.82l-.61-1.17a11.71,11.71,0,0,0,3.3-1.22,3.58,3.58,0,0,0,1.55-2.54,1.69,1.69,0,0,0-1.83-1.72c-1.42.15-2.65,2.41-2.9,3.66,0,.09-.14,1.41-.16,1.75-.44-.86-.88-1.72-1.28-2.59a29,29,0,0,1-1.39-3.6,11.79,11.79,0,0,0,3.32-1.22,3.53,3.53,0,0,0,1.54-2.53,1.68,1.68,0,0,0-1.82-1.73c-1.42.15-2.65,2.41-2.91,3.66,0,.08-.1,1.09-.14,1.57h-.08a21.41,21.41,0,0,1-.72-3.81c-.08-.7-.12-1.39-.14-2.05a11.65,11.65,0,0,0,3.35-.84,3.54,3.54,0,0,0,1.81-2.35,1.68,1.68,0,0,0-1.62-1.92c-1.43,0-2.9,2.11-3.29,3.32,0,.07-.16.76-.26,1.27,0-.3,0-.61,0-.9,0-1.08.07-2.07.13-2.94,0-.5.09-.95.14-1.36a11.23,11.23,0,0,0,2.57-2.29,3.5,3.5,0,0,0,.53-2.92,1.67,1.67,0,0,0-2.32-1c-1.27.65-1.6,3.2-1.39,4.46,0,.11.49,1.77.52,1.76l0,0c0,.41-.11.84-.16,1.31-.09.88-.18,1.86-.2,2.95a30,30,0,0,0,.08,3.5,21.93,21.93,0,0,0,.65,3.86s0,0,0,0c-.23-.35-.89-1.32-1-1.38-.83-1-3-2.34-4.32-1.78a1.69,1.69,0,0,0-.75,2.4A3.52,3.52,0,0,0,676.52,442Z" style="fill:#263238;opacity:0.30000000000000004"></path></g><g id="freepik--Trees--inject-398"><path d="M657.63,171.73c0,54.72-46.81,99.08-104.56,99.08s-104.56-44.36-104.56-99.08S495.33,37.81,553.07,37.81,657.63,117,657.63,171.73Z" style="fill:#92E3A9"></path><path d="M657.63,171.73c0,54.72-46.81,99.08-104.56,99.08s-104.56-44.36-104.56-99.08S495.33,37.81,553.07,37.81,657.63,117,657.63,171.73Z" style="fill:#fff;opacity:0.32"></path><polygon points="544.18 468.18 545.84 255.25 514.18 207.52 545.81 242.74 545.81 206.08 528.56 150.01 547.25 194.58 550.49 121.71 552.28 201.05 553 213.99 603.32 167.26 555.15 224.05 554.43 242.74 575.28 225.49 596.13 193.86 581.42 223.53 614.1 221.9 578.88 227.27 555.87 249.56 557.31 468.13 544.18 468.18" style="fill:#787878"></polygon><path d="M257.11,171.73c0,54.72-46.81,99.08-104.56,99.08S48,226.45,48,171.73,94.8,37.81,152.55,37.81,257.11,117,257.11,171.73Z" style="fill:#92E3A9"></path><path d="M257.11,171.73c0,54.72-46.81,99.08-104.56,99.08S48,226.45,48,171.73,94.8,37.81,152.55,37.81,257.11,117,257.11,171.73Z" style="fill:#fff;opacity:0.32"></path><polygon points="143.66 468.18 145.31 255.25 113.66 207.52 145.28 242.74 145.28 206.08 128.03 150.01 146.72 194.58 149.97 121.71 151.75 201.05 152.47 213.99 202.79 167.26 154.63 224.05 153.91 242.74 174.76 225.49 195.6 193.86 180.9 223.53 213.58 221.9 178.35 227.27 155.35 249.56 156.79 468.13 143.66 468.18" style="fill:#787878"></polygon></g><g id="freepik--Character--inject-398"><path d="M251.73,132.44V343.1H407V132.44ZM388.47,272.82a10.43,10.43,0,0,1-10.42,10.43H286.48a10.43,10.43,0,0,1-10.42-10.43V171.68a10.43,10.43,0,0,1,10.42-10.43h91.57a10.43,10.43,0,0,1,10.42,10.43Z" style="fill:#636363;stroke:#263238;stroke-miterlimit:10"></path><path d="M292.27,194.3s.83,6.54.41,8.51-.83,5-.83,5l13.8,8.61,1.46-8.2s-6.85-5.08-10.07-7.89A21.06,21.06,0,0,1,292.27,194.3Z" style="fill:#ababab;stroke:#263238;stroke-miterlimit:10"></path><path d="M319,186.73s2.7.93,1,1.87-7.68.41-7.68.41l.21-1.55S317.38,186.11,319,186.73Z" style="fill:#263238;stroke:#263238;stroke-miterlimit:10"></path><path d="M292,196.38s1.25,4.57,2.91,6.33,7.68,8.09,12,7.37,5.71-5.71,6.43-8.51a40.21,40.21,0,0,0,.73-10c-.21-1.14-1-5.5-1-5.5l-21.9,2S291,193.68,292,196.38Z" style="fill:#ababab;stroke:#263238;stroke-miterlimit:10"></path><path d="M293.93,192s-.83-2.49-2.81-1.14-2.18,4.67-.72,5.71a6,6,0,0,0,3.42.93" style="fill:#ababab;stroke:#263238;stroke-miterlimit:10"></path><path d="M306.07,190.57s-3.22-.62-5.19.93" style="fill:none;stroke:#263238;stroke-linecap:round;stroke-linejoin:round"></path><path d="M313.64,190.57a2.41,2.41,0,0,0-2.28.31,5.76,5.76,0,0,0-.83,4.88" style="fill:none;stroke:#263238;stroke-linecap:round;stroke-linejoin:round"></path><path d="M309.8,199.39c-2,.1-3.42.41-4.46-.1,0,0-5.71,0-6.33,2.28a7.09,7.09,0,0,0,.11,5.17c2.41,2,5.35,3.74,7.78,3.34,2.87-.48,4.43-2.81,5.37-5.15a10.37,10.37,0,0,0,.13-1.18C312.5,201,311.78,199.29,309.8,199.39Zm1.38,5.51c-.79,2-2.1,3.91-4.51,4.31-2,.34-4.5-1.15-6.53-2.8a5.93,5.93,0,0,1-.08-4.33c.52-1.92,5.31-1.92,5.31-1.92.87.44,2.08.17,3.74.09s2.26,1.3,2.18,3.65A9.53,9.53,0,0,1,311.18,204.9Z" style="fill:#263238"></path><path d="M302,201.57s4.25,2.18,7.89.31" style="fill:none;stroke:#263238;stroke-linecap:round;stroke-linejoin:round"></path><path d="M310.74,198.35s.31.73-.94,1-3.53.83-4.46-.1,0-1.56,0-1.56" style="fill:none;stroke:#263238;stroke-linecap:round;stroke-linejoin:round"></path><ellipse cx="302.85" cy="193.47" rx="0.83" ry="1.14" style="fill:#263238"></ellipse><path d="M312.24,193.55c0,.53-.31,1-.7,1s-.7-.43-.7-1,.31-1,.7-1S312.24,193,312.24,193.55Z" style="fill:#263238"></path><path d="M299.32,194.72a7.81,7.81,0,0,1,3,.83" style="fill:none;stroke:#263238;stroke-linecap:round;stroke-linejoin:round"></path><path d="M290,190.78s12.46-4.15,24.29-3.12c0,0,.62-6-1.15-8.61s-8.4-5.5-12.24-5.19-11,5.92-12.14,7.78S290,190.78,290,190.78Z" style="fill:#fff;stroke:#263238;stroke-miterlimit:10"></path><path d="M295,189.84s10.48,1.25,14.22-.62,10-2.08,9.86-2.49-1.35-1-9.65-.42A45.14,45.14,0,0,0,295,189.84Z" style="fill:#fff;stroke:#263238;stroke-miterlimit:10"></path><polygon points="283.38 302.25 274.68 339.2 337.12 339.2 327.2 302.56 283.38 302.25" style="fill:#969696;stroke:#263238;stroke-miterlimit:10"></polygon><path d="M266.74,248.37s3.36,45.18,5.35,49.15,6.25,4.58,9,4.58H341.7s4.88-9.61,4.73-11.45-2.14-1.52-3.36-1.52l-39.69-.31s-8.67-1.62-10.6-4.85-2.53-1.56-3.9-8.28-4.58-23.35-6.26-27.17S270.1,239.21,266.74,248.37Z" style="fill:#263238;stroke:#263238;stroke-miterlimit:10"></path><path d="M349.34,267.67s11.52.31,13.7.94,3.74,2.9,3.84,6.95a27.73,27.73,0,0,1-2.08,9.86c-.52,1.24-9.13,20.44-11,25.94s-2.9,15.26-3,15.57.32.1-1.66.31-7.16-1.76-7.47-2,2.18-12.35,3.12-19.72,2.69-17.64,3.21-19,1.56-3.94,1.56-3.94Z" style="fill:#ababab;stroke:#263238;stroke-miterlimit:10"></path><path d="M349.55,282.62s3.32-.94,4.57-2.49" style="fill:none;stroke:#263238;stroke-miterlimit:10"></path><path d="M322.88,267.57a160.72,160.72,0,0,1,17.85-.93c7.47.2,9.75.31,9.75.31s.42,13-1.24,17.64-1.87,5.19-1.87,5.19-37.67-.73-40.26-.73-8,.62-11.21-1.66a15,15,0,0,1-4.36-4.36s.52-6.74,4.67-8.72,13.39-8.19,17-8.71S322.88,267.57,322.88,267.57Z" style="fill:#fff;stroke:#263238;stroke-miterlimit:10"></path><path d="M302.33,280.23l1.66.52s1.25-1.14,2-.73a4.75,4.75,0,0,1,1.35,1.56,1.24,1.24,0,0,1,1.14,0,8.57,8.57,0,0,0,1.56.52s1.35.21,5.92.52,21.89-.21,23.86-.52,4.26-.62,5.61-.21a6.82,6.82,0,0,0,3.21-.1" style="fill:none;stroke:#263238;stroke-miterlimit:10"></path><path d="M315.61,269.23s-3.83,11.73-6.43,15.15" style="fill:none;stroke:#263238;stroke-miterlimit:10"></path><path d="M313.12,268.61s-5.39,14.32-8.71,18.16" style="fill:none;stroke:#263238;stroke-miterlimit:10"></path><path d="M308.66,274.52s-3.63,5.61-6,7.89" style="fill:none;stroke:#263238;stroke-miterlimit:10"></path><path d="M309.49,218.07l-12-8.41c-6.22-4.36-5.18-4.77-7.78-2.69s-5.71,8.3-7.47,14.11-3.22,11.62-2.7,16.29,6.64,31.24,6.95,34.14a22.77,22.77,0,0,0,2.29,8.82,8,8,0,0,0,4,3.64s4-.94,11.42-5.3a29.58,29.58,0,0,0,10.79-11l2.08,1.25s5.08-.11,5.6-.11,2.28-1.55,3-3.52.52-7.58-4.88-22.73-10-21.48-10.27-22.31A23.2,23.2,0,0,0,309.49,218.07Z" style="fill:#92E3A9;stroke:#263238;stroke-miterlimit:10"></path><path d="M296.94,257.94c10.34-.73,19.25-3.66,26.16-8.53-.42-1.34-.89-2.79-1.43-4.35-13.44,10.32-32.69,8.94-39,8.13.32,1.51.65,3,1,4.52a76,76,0,0,0,8,.42C293.3,258.13,295.08,258.07,296.94,257.94Z" style="fill:#263238"></path><path d="M324.13,252.88c-13.12,11-32.57,9.92-39.59,9.1.35,1.64.67,3.16.95,4.5,2,.2,4.56.36,7.5.36,1.66,0,3.44,0,5.3-.18,10.76-.77,20-3.91,27-9.14C325,256.18,324.62,254.65,324.13,252.88Z" style="fill:#263238"></path><polygon points="292.47 217.86 290.5 210.6 294.24 210.39 296.83 216.31 292.47 217.86" style="fill:#263238"></polygon><path d="M352.66,323.5s-1.45-.51-2.07.42L349,326.2s-8.2-4.05-9.13-3a4.28,4.28,0,0,0-1.14,3.63c.1,1.67-.42,10.07,0,11.11s1.86,1.14,3,1.14l22.41.1c1.35,0,4.26,0,4.26-2.18a3.69,3.69,0,0,0-2.29-3.73c-1-.31-6.64-3.53-9.44-5.19S353.18,324,352.66,323.5Z" style="fill:#fff;stroke:#263238;stroke-miterlimit:10"></path><line x1="339.28" y1="336.99" x2="368.44" y2="336.99" style="fill:#fff;stroke:#263238;stroke-miterlimit:10"></line><path d="M278.34,232.64,274.53,220s4.27-9.77,1.52-18.47-7.32-10.23-10.68-7.33-4.73,25.19-4.73,28.09,1.37,8.09,2.74,17.4,4.74,18.78,10.54,18.48,9.92-4.89,8.24-11.45S278.34,232.64,278.34,232.64Z" style="fill:#969696;stroke:#263238;stroke-miterlimit:10"></path><path d="M290.4,292a82.68,82.68,0,0,1-3-8.86c-2.29-7.32-6.26-9.77-10.38-7.78s-4.88,8.7-1.83,17.25c0,0,2,9.62,7.33,11.6s56.63,0,56.63,0,1.68-.15,3.21-3.82.76-2.13.76-2.13l-47.93-1.68S291.63,296.45,290.4,292Z" style="fill:#969696;stroke:#263238;stroke-miterlimit:10"></path><polygon points="346.84 249.69 358.26 248.42 365.69 253.68 373.85 243.71 367.5 240.08 363.7 226.1 346.84 249.69" style="fill:#263238;stroke:#263238;stroke-miterlimit:10"></polygon><path d="M373.85,239.9s-13.24,12.51-12.51,13.41,12,20.67,12,20.67l14.5-20.3L378.74,249s.18-6.52.18-7.25A3.42,3.42,0,0,0,373.85,239.9Z" style="fill:#263238;stroke:#263238;stroke-miterlimit:10"></path><polygon points="395.76 243.46 362.66 265.67 362.66 339.17 395.76 339.17 395.76 243.46" style="fill:#969696;stroke:#263238;stroke-miterlimit:10"></polygon><path d="M339.77,260.62a1.87,1.87,0,0,1-1.53-2.95l29.19-41.15a1.87,1.87,0,0,1,3.05,2.17l-29.19,41.14A1.84,1.84,0,0,1,339.77,260.62Z" style="fill:#263238;stroke:#263238;stroke-miterlimit:10"></path><path d="M313.23,247l11.31-2.47c4.51-1,9.1-1.71,13.47-3.21,3.6-1.24,8.31-3.46,10.6-6.67,1.56-2.18,2.18-3.11,3.53-3.32s3.74,1.25,5.81,1.66,3.12,1.25,3.33,2.29-1,2-1.25,2.38-.1,2-1.25,3.12a7.89,7.89,0,0,1-2.59,1.66s-.1.52-.93.83a45.09,45.09,0,0,1-6.44.52c-.83,0-6.54,4.35-12.24,6.95s-25.74,11.21-27.81,12a3.39,3.39,0,0,1-4.57-1.56c-.52-1.45-4.15-9-4.15-9l12.45-6.43Z" style="fill:#ababab;stroke:#263238;stroke-miterlimit:10"></path><path d="M292.37,216s-6.12,7-5.29,11.94,11.1,26.25,11.1,26.25l17.33-7.78s-6.33-21.48-10.38-27.09S294.76,213.4,292.37,216Z" style="fill:#fff;stroke:#263238;stroke-miterlimit:10"></path><rect x="416.95" y="348.8" width="140.79" height="66.61" style="fill:#636363;stroke:#263238;stroke-miterlimit:10"></rect><path d="M569.71,376.26c-1.57-5.21-12.68-71.89-26.64-78.19C480.76,270,422.48,266.21,422.48,266.21l-9.5,4.17V429.13l9.12-13.25v-.08c0-34.25,29.22-62,65.26-62,35.75,0,64.77,27.32,65.24,61.19h17.11S571.28,381.47,569.71,376.26Z" style="fill:#fff;stroke:#263238;stroke-miterlimit:10"></path><path d="M570.06,378.33c-14.74-29.32-46.23-49.57-82.7-49.57-30.63,0-57.75,14.29-74.38,36.23v51.59l9.12-.7v-.08c0-34.25,29.22-62,65.26-62,35.75,0,64.77,27.32,65.24,61.19h17.11S571,387.27,570.06,378.33Z" style="fill:#fff;stroke:#263238;stroke-miterlimit:10"></path><path d="M545.81,390.81A56.54,56.54,0,0,1,551.63,415h18s.75-15.16.73-26.68H545.81Z" style="fill:#263238;stroke:#263238;stroke-miterlimit:10"></path><path d="M545.14,342.57V303.83A17.85,17.85,0,0,1,563,286H573.9a15.43,15.43,0,0,0,15.43-15.43v-11.7" style="fill:none;stroke:#263238;stroke-linecap:round;stroke-linejoin:round;stroke-width:4px"></path><path d="M589.13,251.51s-17-.29-19.64,1.44-2.88,7.51-.86,11.55,6.35,8.08,7.5,8.66,10.69,0,13.86-1.73S591.15,252.08,589.13,251.51Z" style="fill:#263238;stroke:#263238;stroke-miterlimit:10"></path><path d="M576.09,273.14c3.4-.12,8.33-.7,10.44-1.75,3.17-1.58,1.15-17.63-.87-18.15,0,0-11.58-.18-17.1.64-1.7,2.36-1.68,7.13.07,10.62A26.53,26.53,0,0,0,576.09,273.14Z" style="fill:#fff;stroke:#263238;stroke-miterlimit:10"></path><path d="M538.69,342.38l3.81-10.05h4.85l3.47,12.82s2.07,2.08,3.46,3.81,1.73,7.62,1.73,7.62S542.5,345.15,538.69,342.38Z" style="fill:#263238;stroke:#263238;stroke-miterlimit:10"></path><path d="M555.09,356.38c-2.5-.45-9-.93-5.45,7.22,4.36,10,5.75,16.44,13.09,15.58,2.81-.32,5.29-.67,7.28-1A87.13,87.13,0,0,0,555.09,356.38Z" style="fill:#fff;stroke:#263238;stroke-miterlimit:10"></path><circle cx="491.49" cy="415.8" r="52.8" style="fill:#263238;stroke:#263238;stroke-miterlimit:10"></circle><circle cx="491.49" cy="415.8" r="34.36" transform="translate(-83.41 126.07) rotate(-13.48)" style="fill:#fff;stroke:#263238;stroke-miterlimit:10"></circle><circle cx="491.49" cy="415.8" r="12.99" style="fill:#263238;stroke:#263238;stroke-miterlimit:10"></circle><circle cx="491.49" cy="398.09" r="1.84" style="fill:#263238;stroke:#263238;stroke-miterlimit:10"></circle><path d="M482.57,400.39a1.84,1.84,0,1,0-.41,2.57A1.84,1.84,0,0,0,482.57,400.39Z" style="fill:#263238;stroke:#263238;stroke-miterlimit:10"></path><path d="M475.21,408.58a1.84,1.84,0,1,0,1.19,2.32A1.84,1.84,0,0,0,475.21,408.58Z" style="fill:#263238;stroke:#263238;stroke-miterlimit:10"></path><path d="M474.08,419.53a1.84,1.84,0,0,0,1.13,3.5,1.84,1.84,0,1,0-1.13-3.5Z" style="fill:#263238;stroke:#263238;stroke-miterlimit:10"></path><path d="M479.59,429.05a1.84,1.84,0,1,0,3,2.16,1.84,1.84,0,0,0-3-2.16Z" style="fill:#263238;stroke:#263238;stroke-miterlimit:10"></path><path d="M489.65,433.52a1.84,1.84,0,1,0,1.84-1.84A1.85,1.85,0,0,0,489.65,433.52Z" style="fill:#263238;stroke:#263238;stroke-miterlimit:10"></path><path d="M500.42,431.21a1.84,1.84,0,1,0,.4-2.56A1.83,1.83,0,0,0,500.42,431.21Z" style="fill:#263238;stroke:#263238;stroke-miterlimit:10"></path><path d="M507.77,423a1.84,1.84,0,1,0,1.14-3.5,1.84,1.84,0,1,0-1.14,3.5Z" style="fill:#263238;stroke:#263238;stroke-miterlimit:10"></path><path d="M508.91,412.08a1.84,1.84,0,1,0-2.32-1.18A1.85,1.85,0,0,0,508.91,412.08Z" style="fill:#263238;stroke:#263238;stroke-miterlimit:10"></path><path d="M503.39,402.55a1.84,1.84,0,1,0-2.57.41A1.83,1.83,0,0,0,503.39,402.55Z" style="fill:#263238;stroke:#263238;stroke-miterlimit:10"></path><line x1="441.44" y1="268.57" x2="441.44" y2="340.09" style="fill:none;stroke:#263238;stroke-miterlimit:10"></line><rect x="260.8" y="339.12" width="130.55" height="33.25" style="fill:#969696;stroke:#263238;stroke-miterlimit:10"></rect><rect x="260.8" y="339.12" width="130.55" height="9" style="fill:#fff;stroke:#263238;stroke-miterlimit:10"></rect><rect x="260.8" y="367.12" width="130.55" height="33.25" style="fill:#969696;stroke:#263238;stroke-miterlimit:10"></rect><rect x="260.8" y="367.12" width="130.55" height="9" style="fill:#fff;stroke:#263238;stroke-miterlimit:10"></rect><rect x="260.8" y="395.65" width="130.55" height="33.25" style="fill:#969696;stroke:#263238;stroke-miterlimit:10"></rect><rect x="260.8" y="395.65" width="130.55" height="9" style="fill:#fff;stroke:#263238;stroke-miterlimit:10"></rect><path d="M261.86,396.51H260.8v-4h1.06a5.93,5.93,0,0,0,5.92-5.92V269.62a5.93,5.93,0,0,0-5.92-5.92v-4a10,10,0,0,1,9.94,9.94V386.56A10,10,0,0,1,261.86,396.51Z" style="fill:#fff;stroke:#263238;stroke-miterlimit:10"></path><path d="M391.36,396.89a9.5,9.5,0,0,1-9.49-9.48V292.84a7.33,7.33,0,0,1,7.33-7.32h5.95v4H389.2a3.3,3.3,0,0,0-3.3,3.3v94.57a5.47,5.47,0,0,0,5.46,5.46Z" style="fill:#fff;stroke:#263238;stroke-miterlimit:10"></path><polygon points="423.19 403.53 423.19 441.54 416.95 441.54 416.95 416.58 423.19 403.53" style="fill:#263238;stroke:#263238;stroke-miterlimit:10"></polygon><path d="M28.81,114.89s385.94-1.49,393.38,0,7.45,6.7,7.45,12.66-4.36,11.68-4.36,11.68l7.45,120v45.56s-11.92,19.36-11.92,26.81v97.55H397v-280H259.44V433.6h-20.8l-10.07-18.17H30.79" style="fill:#fff;stroke:#263238;stroke-miterlimit:10"></path><path d="M393.65,148.84C282,149,150,149,38.16,148.84" style="fill:none;stroke:#263238;stroke-miterlimit:10"></path><path d="M422.19,114.89c-.47-.1-2.38-.18-5.53-.25a17.78,17.78,0,0,0-1.26,6.62c0,8.12,5.24,14.7,11.7,14.7h.19a19.05,19.05,0,0,0,2.35-8.4C429.64,121.59,429.64,116.38,422.19,114.89Z" style="fill:#263238;stroke:#263238;stroke-miterlimit:10"></path><path d="M407.41,155v81.81a22.44,22.44,0,0,0,10,18.66h0a22.45,22.45,0,0,0,12.44,3.76h2.89l-7.45-120h-2.12A15.75,15.75,0,0,0,407.41,155Z" style="fill:#263238;stroke:#263238;stroke-miterlimit:10"></path><rect x="391.66" y="141.8" width="6.98" height="291.47" style="fill:#263238;stroke:#263238;stroke-miterlimit:10"></rect><rect x="129.72" y="304.96" width="13.49" height="211.34" transform="translate(547.09 274.16) rotate(90)" style="fill:#263238;stroke:#263238;stroke-miterlimit:10"></rect><rect x="129.72" y="229.76" width="13.49" height="211.34" transform="translate(471.9 198.97) rotate(90)" style="fill:#263238;stroke:#263238;stroke-miterlimit:10"></rect><rect x="129.72" y="186.35" width="13.49" height="211.34" transform="translate(428.49 155.56) rotate(90)" style="fill:#263238;stroke:#263238;stroke-miterlimit:10"></rect><rect x="131.5" y="149.38" width="9.93" height="211.34" transform="translate(391.51 118.58) rotate(90)" style="fill:#263238;stroke:#263238;stroke-miterlimit:10"></rect><rect x="256.47" y="141.8" width="6.98" height="291.47" style="fill:#263238;stroke:#263238;stroke-miterlimit:10"></rect><rect x="148.72" y="149.21" width="90.7" height="91.81" style="fill:#263238;stroke:#263238;stroke-miterlimit:10"></rect><rect x="148.72" y="190.33" width="90.7" height="4.78" style="fill:#fff;stroke:#263238;stroke-miterlimit:10"></rect><rect x="30.29" y="149.21" width="109.9" height="91.81" style="fill:#263238;stroke:#263238;stroke-miterlimit:10"></rect><rect x="30.29" y="190.33" width="109.9" height="4.78" style="fill:#fff;stroke:#263238;stroke-miterlimit:10"></rect><path d="M400,156h33.44a20.16,20.16,0,0,0,11.85-3.85l6.22-4.52a19.36,19.36,0,0,1,11.38-3.7h20a9.91,9.91,0,0,1,9.91,9.91v5.94" style="fill:none;stroke:#263238;stroke-linecap:round;stroke-linejoin:round;stroke-width:4px"></path><path d="M400,164.34h33.44a20.09,20.09,0,0,0,11.85-3.85l6.22-4.52a19.36,19.36,0,0,1,11.38-3.7h29.93" style="fill:none;stroke:#263238;stroke-linecap:round;stroke-linejoin:round;stroke-width:4px"></path><path d="M492.53,160.57h-1.65a6.65,6.65,0,0,0-6.63,7.15l3.23,42.65H498.8s3.63-14.52,3.31-40.32A9.59,9.59,0,0,0,492.53,160.57Z" style="fill:#263238;stroke:#263238;stroke-linecap:round;stroke-linejoin:round;stroke-width:4px"></path><path d="M425.28,115.92v23.31h0s4.36-5.73,4.36-11.68C429.64,122.57,429.62,118.12,425.28,115.92Z" style="fill:#fff;stroke:#263238;stroke-miterlimit:10"></path></g><g id="freepik--Sign--inject-398"><rect x="199.85" y="173.85" width="7.55" height="294.36" style="fill:#fff;stroke:#263238;stroke-miterlimit:10"></rect><rect x="184.38" y="128.57" width="38.49" height="81.52" rx="6.03" style="fill:#fff;stroke:#263238;stroke-miterlimit:10"></rect><path d="M184.38,188.34V205a5.07,5.07,0,0,0,5.06,5.07h28.37a5.07,5.07,0,0,0,5.06-5.07V188.34Z" style="fill:#92E3A9;stroke:#263238;stroke-miterlimit:10"></path><g id="freepik--go3Hr4.tif--inject-398"><path d="M192.33,157.52h-1c-.5,0-.81-.47-.81-1.24q0-3.25,0-6.51c0-.79.3-1.23.81-1.25.32,0,.64,0,1,0v-.43c0-1.13,0-2.27.06-3.39.16-2.35,1.52-4.43,3-4.75a3.51,3.51,0,0,1,.71-.08h14.68c1.57,0,2.73,1.11,3.44,3.29a8,8,0,0,1,.35,2.42v2.94h.89c.65,0,.93.42.93,1.42v6.16c0,1-.28,1.41-.91,1.42h-.91v.36q0,6.8,0,13.59a1,1,0,0,0,.1.47,4.06,4.06,0,0,1,.55,2.07c0,.77,0,1.55,0,2.32,0,1.79-.84,3-2,3.1H213c0,.15,0,.28,0,.41v2.54c0,.77-.22,1.12-.71,1.12h-2.49c-.47,0-.69-.35-.7-1.07v-2.58c0-.13,0-.25,0-.4H197.85c0,.14,0,.27,0,.4,0,.86,0,1.72,0,2.58s-.23,1.07-.7,1.07h-2.5c-.46,0-.69-.36-.69-1.09,0-1,0-1.95,0-2.9a6.55,6.55,0,0,1-.92-.27,3.05,3.05,0,0,1-1.32-2.62c0-.93,0-1.86,0-2.79a3.86,3.86,0,0,1,.5-1.83,1.07,1.07,0,0,0,.14-.46V157.77A2.45,2.45,0,0,0,192.33,157.52Zm2.31-8.52v14.09h7.55c.21,0,.28-.07.28-.43V149Zm9.85,0c0,.12,0,.23,0,.33q0,6.69,0,13.37c0,.34.08.39.27.39h7.56V149Zm-1-6.16h-1.38c-.83,0-1.67,0-2.51,0s-1.18,1.06-.93,2.08a1.08,1.08,0,0,0,1,1h7.54a1.27,1.27,0,0,0,.28,0,1.16,1.16,0,0,0,.78-1c.25-1-.23-2-1-2Zm-7.11,28c.26,0,.52,0,.78,0,.55,0,.94-.57,1-1.4,0-.63,0-1.27,0-1.89,0-.82-.43-1.38-1-1.4s-1.06,0-1.59,0-1,.65-1,1.53c0,.54,0,1.09,0,1.64,0,.88.41,1.5,1,1.52C195.84,170.9,196.1,170.89,196.36,170.89Zm14.22,0c.27,0,.53,0,.79,0,.56,0,1-.64,1-1.52,0-.55,0-1.1,0-1.64,0-.88-.42-1.51-1-1.53s-1.06,0-1.59,0-.92.58-1,1.4q0,.94,0,1.89c0,.83.44,1.38,1,1.4C210.06,170.9,210.32,170.89,210.58,170.89Z" style="fill:#263238"></path></g></g><g id="freepik--Floor--inject-398"><line x1="653.36" y1="468.6" x2="26.6" y2="468.6" style="fill:none;stroke:#263238;stroke-miterlimit:10"></line><line x1="733.55" y1="468.6" x2="664.62" y2="468.6" style="fill:none;stroke:#263238;stroke-miterlimit:10"></line></g></svg>