<?xml version="1.0" encoding="UTF-8"?>
<svg xmlns="http://www.w3.org/2000/svg" xmlns:xlink="http://www.w3.org/1999/xlink" width="500px" height="500px" viewBox="0 0 500 500" version="1.1">
<defs>
<filter id="alpha" filterUnits="objectBoundingBox" x="0%" y="0%" width="100%" height="100%">
  <feColorMatrix type="matrix" in="SourceGraphic" values="0 0 0 0 1 0 0 0 0 1 0 0 0 0 1 0 0 0 1 0"/>
</filter>
<mask id="mask0">
  <g filter="url(#alpha)">
<rect x="0" y="0" width="500" height="500" style="fill:rgb(0%,0%,0%);fill-opacity:0.8;stroke:none;"/>
  </g>
</mask>
<clipPath id="clip1">
  <rect x="0" y="0" width="500" height="500"/>
</clipPath>
<g id="surface5" clip-path="url(#clip1)">
<path style=" stroke:none;fill-rule:nonzero;fill:rgb(100%,100%,100%);fill-opacity:1;" d="M 152.839844 100.960938 C 152.839844 110.933594 144.753906 119.019531 134.78125 119.019531 C 124.804688 119.019531 116.71875 110.933594 116.71875 100.960938 C 116.71875 90.984375 124.804688 82.898438 134.78125 82.898438 C 144.753906 82.898438 152.839844 90.984375 152.839844 100.960938 Z M 152.839844 100.960938 "/>
</g>
<mask id="mask1">
  <g filter="url(#alpha)">
<rect x="0" y="0" width="500" height="500" style="fill:rgb(0%,0%,0%);fill-opacity:0.2;stroke:none;"/>
  </g>
</mask>
<clipPath id="clip2">
  <rect x="0" y="0" width="500" height="500"/>
</clipPath>
<g id="surface8" clip-path="url(#clip2)">
<path style=" stroke:none;fill-rule:nonzero;fill:rgb(100%,100%,100%);fill-opacity:1;" d="M 406.179688 382.429688 L 47.449219 382.429688 C 47.507812 381.480469 47.765625 380.550781 48.210938 379.710938 C 48.210938 379.710938 221.078125 227.148438 229.910156 220.210938 L 230.308594 219.929688 C 232.472656 218.457031 235.382812 218.75 237.210938 220.621094 Z M 406.179688 382.429688 "/>
</g>
<mask id="mask2">
  <g filter="url(#alpha)">
<rect x="0" y="0" width="500" height="500" style="fill:rgb(0%,0%,0%);fill-opacity:0.2;stroke:none;"/>
  </g>
</mask>
<clipPath id="clip3">
  <rect x="0" y="0" width="500" height="500"/>
</clipPath>
<g id="surface11" clip-path="url(#clip3)">
<path style=" stroke:none;fill-rule:nonzero;fill:rgb(0%,0%,0%);fill-opacity:1;" d="M 242 263.328125 C 230.191406 276.839844 62.199219 379.078125 47.421875 382.429688 L 48.179688 379.710938 L 230.28125 219.929688 L 232.03125 219.148438 C 230.03125 222.75 228.21875 230.949219 232.328125 235.71875 C 238.078125 242.359375 253.839844 249.820312 242 263.328125 Z M 242 263.328125 "/>
</g>
<mask id="mask3">
  <g filter="url(#alpha)">
<rect x="0" y="0" width="500" height="500" style="fill:rgb(0%,0%,0%);fill-opacity:0.101961;stroke:none;"/>
  </g>
</mask>
<clipPath id="clip4">
  <rect x="0" y="0" width="500" height="500"/>
</clipPath>
<g id="surface14" clip-path="url(#clip4)">
<path style=" stroke:none;fill-rule:nonzero;fill:rgb(100%,100%,100%);fill-opacity:1;" d="M 449.699219 382.628906 L 82.789062 382.578125 C 82.789062 382.578125 262.929688 275.578125 271.371094 270.578125 L 271.679688 270.390625 L 272.898438 269.691406 L 274.03125 269.039062 C 276.210938 267.792969 278.675781 267.128906 281.191406 267.109375 C 284.296875 267.148438 287.316406 268.152344 289.828125 269.980469 C 322.351562 292.730469 449.699219 382.628906 449.699219 382.628906 Z M 449.699219 382.628906 "/>
</g>
<mask id="mask4">
  <g filter="url(#alpha)">
<rect x="0" y="0" width="500" height="500" style="fill:rgb(0%,0%,0%);fill-opacity:0.2;stroke:none;"/>
  </g>
</mask>
<clipPath id="clip5">
  <rect x="0" y="0" width="500" height="500"/>
</clipPath>
<g id="surface17" clip-path="url(#clip5)">
<path style=" stroke:none;fill-rule:nonzero;fill:rgb(0%,0%,0%);fill-opacity:1;" d="M 292.738281 286.148438 C 291.980469 291.300781 289.03125 294.96875 286.109375 297.789062 C 283.191406 300.609375 279.988281 303.230469 278.109375 307.660156 C 276.230469 312.089844 276.351562 319.078125 279.359375 321.660156 C 281.230469 323.238281 283.609375 322.730469 285.5 324.25 C 288.558594 326.691406 288.941406 333.609375 287.160156 338.140625 C 285.378906 342.671875 282.160156 345.289062 279.039062 347.589844 C 254.820312 365.671875 226.613281 377.671875 196.789062 382.589844 C 168.710938 382.589844 82.789062 382.589844 82.789062 382.589844 C 82.789062 382.589844 271.679688 270.410156 271.679688 270.410156 C 272.109375 270.160156 272.511719 269.941406 272.898438 269.699219 L 274.039062 269.058594 C 277.679688 268.058594 281.359375 267.648438 284.871094 269.230469 C 289.648438 271.398438 293.820312 278.710938 292.738281 286.148438 Z M 292.738281 286.148438 "/>
</g>
<mask id="mask5">
  <g filter="url(#alpha)">
<rect x="0" y="0" width="500" height="500" style="fill:rgb(0%,0%,0%);fill-opacity:0.301961;stroke:none;"/>
  </g>
</mask>
<clipPath id="clip6">
  <rect x="0" y="0" width="500" height="500"/>
</clipPath>
<g id="surface20" clip-path="url(#clip6)">
<path style=" stroke:none;fill-rule:nonzero;fill:rgb(0%,0%,0%);fill-opacity:1;" d="M 291.71875 209.898438 L 293.820312 209.898438 C 294.457031 209.816406 295.09375 210.027344 295.550781 210.476562 C 296.007812 210.929688 296.234375 211.5625 296.160156 212.199219 C 296.03125 213.59375 294.804688 214.625 293.410156 214.511719 L 291.320312 214.511719 Z M 293.441406 213.628906 C 293.847656 213.660156 294.25 213.527344 294.558594 213.257812 C 294.867188 212.988281 295.054688 212.609375 295.078125 212.199219 C 295.140625 211.8125 295.015625 211.421875 294.742188 211.140625 C 294.46875 210.859375 294.078125 210.722656 293.691406 210.769531 L 292.691406 210.769531 L 292.441406 213.628906 Z M 293.441406 213.628906 "/>
<path style=" stroke:none;fill-rule:nonzero;fill:rgb(0%,0%,0%);fill-opacity:1;" d="M 300.269531 213 L 297.589844 213 C 297.625 213.230469 297.75 213.433594 297.9375 213.566406 C 298.128906 213.703125 298.363281 213.753906 298.589844 213.710938 C 298.929688 213.722656 299.261719 213.601562 299.511719 213.371094 L 300.011719 213.960938 C 299.609375 214.355469 299.0625 214.5625 298.5 214.53125 C 297.996094 214.59375 297.492188 214.425781 297.128906 214.070312 C 296.761719 213.714844 296.582031 213.214844 296.628906 212.710938 C 296.71875 211.652344 297.621094 210.851562 298.679688 210.878906 C 299.164062 210.84375 299.640625 211.03125 299.972656 211.390625 C 300.300781 211.75 300.449219 212.238281 300.371094 212.71875 C 300.308594 212.828125 300.289062 212.941406 300.269531 213 Z M 297.628906 212.398438 L 299.378906 212.398438 C 299.371094 212.195312 299.28125 212 299.128906 211.859375 C 298.976562 211.722656 298.777344 211.648438 298.570312 211.660156 C 298.109375 211.648438 297.710938 211.976562 297.628906 212.429688 Z M 297.628906 212.398438 "/>
<path style=" stroke:none;fill-rule:nonzero;fill:rgb(0%,0%,0%);fill-opacity:1;" d="M 300.539062 214.179688 L 300.941406 213.441406 C 301.300781 213.667969 301.722656 213.785156 302.148438 213.78125 C 302.621094 213.78125 302.808594 213.660156 302.828125 213.460938 C 302.878906 212.878906 300.679688 213.460938 300.828125 212.058594 C 300.890625 211.390625 301.53125 210.910156 302.570312 210.910156 C 303.03125 210.894531 303.492188 211.003906 303.898438 211.21875 L 303.5 211.949219 C 303.195312 211.773438 302.851562 211.683594 302.5 211.691406 C 302.039062 211.691406 301.828125 211.828125 301.808594 212.019531 C 301.761719 212.621094 303.949219 212.019531 303.808594 213.429688 C 303.75 214.089844 303.101562 214.558594 302.039062 214.558594 C 301.515625 214.574219 300.996094 214.445312 300.539062 214.179688 Z M 300.539062 214.179688 "/>
<path style=" stroke:none;fill-rule:nonzero;fill:rgb(0%,0%,0%);fill-opacity:1;" d="M 307.929688 213 L 305.25 213 C 305.320312 213.453125 305.742188 213.769531 306.199219 213.710938 C 306.539062 213.722656 306.871094 213.601562 307.121094 213.371094 L 307.621094 213.960938 C 307.210938 214.347656 306.664062 214.554688 306.101562 214.53125 C 305.597656 214.59375 305.09375 214.425781 304.730469 214.070312 C 304.367188 213.714844 304.1875 213.214844 304.238281 212.710938 C 304.328125 211.652344 305.230469 210.851562 306.289062 210.878906 C 306.777344 210.84375 307.25 211.03125 307.582031 211.390625 C 307.910156 211.75 308.058594 212.238281 307.980469 212.71875 C 308 212.828125 308 212.941406 307.929688 213 Z M 305.289062 212.398438 L 307 212.398438 C 306.992188 212.195312 306.902344 212 306.75 211.859375 C 306.597656 211.722656 306.394531 211.648438 306.191406 211.660156 C 305.746094 211.667969 305.367188 211.992188 305.289062 212.429688 Z M 305.289062 212.398438 "/>
<path style=" stroke:none;fill-rule:nonzero;fill:rgb(0%,0%,0%);fill-opacity:1;" d="M 311 210.910156 L 310.921875 211.910156 L 310.691406 211.910156 C 310.136719 211.910156 309.691406 212.359375 309.691406 212.910156 L 309.550781 214.578125 L 308.550781 214.578125 L 308.859375 211.03125 L 309.859375 211.03125 L 309.859375 211.5 C 310.136719 211.148438 310.554688 210.933594 311 210.910156 Z M 311 210.910156 "/>
<path style=" stroke:none;fill-rule:nonzero;fill:rgb(0%,0%,0%);fill-opacity:1;" d="M 313.75 214.339844 C 313.492188 214.496094 313.191406 214.570312 312.890625 214.558594 C 312.058594 214.558594 311.609375 214.128906 311.679688 213.289062 L 311.808594 211.828125 L 311.261719 211.828125 L 311.328125 211.039062 L 311.878906 211.039062 L 311.949219 210.179688 L 312.949219 210.179688 L 312.871094 211.039062 L 313.761719 211.039062 L 313.691406 211.828125 L 312.800781 211.828125 L 312.679688 213.28125 C 312.648438 213.398438 312.679688 213.523438 312.757812 213.613281 C 312.839844 213.707031 312.960938 213.753906 313.078125 213.738281 C 313.234375 213.742188 313.382812 213.699219 313.511719 213.609375 Z M 313.75 214.339844 "/>
<path style=" stroke:none;fill-rule:nonzero;fill:rgb(0%,0%,0%);fill-opacity:1;" d="M 315.460938 213.921875 C 315.433594 214.152344 315.351562 214.375 315.21875 214.570312 L 314.769531 215.570312 L 314.109375 215.570312 L 314.5 214.570312 C 314.28125 214.472656 314.15625 214.246094 314.191406 214.011719 C 314.207031 213.644531 314.511719 213.359375 314.878906 213.371094 C 315.03125 213.363281 315.179688 213.417969 315.289062 213.519531 C 315.398438 213.625 315.460938 213.769531 315.460938 213.921875 Z M 315.460938 213.921875 "/>
<path style=" stroke:none;fill-rule:nonzero;fill:rgb(0%,0%,0%);fill-opacity:1;" d="M 318.179688 212.480469 L 318.410156 209.898438 L 319.480469 209.898438 L 319.25 212.441406 C 319.179688 213.320312 319.53125 213.679688 320.171875 213.679688 C 320.808594 213.679688 321.230469 213.320312 321.308594 212.441406 L 321.53125 209.898438 L 322.589844 209.898438 L 322.359375 212.480469 C 322.363281 213.070312 322.117188 213.632812 321.6875 214.03125 C 321.253906 214.433594 320.675781 214.632812 320.089844 214.589844 C 319.527344 214.660156 318.96875 214.449219 318.585938 214.03125 C 318.207031 213.609375 318.054688 213.03125 318.179688 212.480469 Z M 318.179688 212.480469 "/>
<path style=" stroke:none;fill-rule:nonzero;fill:rgb(0%,0%,0%);fill-opacity:1;" d="M 326.261719 213.519531 L 324.121094 213.519531 L 323.628906 214.519531 L 322.53125 214.519531 L 325 209.898438 L 326.058594 209.898438 L 327.71875 214.511719 L 326.601562 214.511719 Z M 326 212.710938 L 325.421875 210.941406 L 324.539062 212.710938 Z M 326 212.710938 "/>
<path style=" stroke:none;fill-rule:nonzero;fill:rgb(0%,0%,0%);fill-opacity:1;" d="M 331.828125 213.648438 L 331.761719 214.511719 L 328.191406 214.511719 L 328.589844 209.898438 L 332.078125 209.898438 L 332 210.75 L 329.578125 210.75 L 329.488281 211.75 L 331.628906 211.75 L 331.558594 212.578125 L 329.421875 212.578125 L 329.320312 213.648438 Z M 331.828125 213.648438 "/>
</g>
<mask id="mask6">
  <g filter="url(#alpha)">
<rect x="0" y="0" width="500" height="500" style="fill:rgb(0%,0%,0%);fill-opacity:0.301961;stroke:none;"/>
  </g>
</mask>
<clipPath id="clip7">
  <rect x="0" y="0" width="500" height="500"/>
</clipPath>
<g id="surface23" clip-path="url(#clip7)">
<path style=" stroke:none;fill-rule:nonzero;fill:rgb(0%,0%,0%);fill-opacity:1;" d="M 159.398438 193.910156 C 157.1875 198.386719 153.628906 202.054688 149.21875 204.398438 L 139.21875 194.230469 C 139.21875 194.230469 148.21875 177.890625 154.671875 177.808594 C 161.269531 177.75 163.210938 186.140625 159.398438 193.910156 Z M 159.398438 193.910156 "/>
</g>
<mask id="mask7">
  <g filter="url(#alpha)">
<rect x="0" y="0" width="500" height="500" style="fill:rgb(0%,0%,0%);fill-opacity:0.2;stroke:none;"/>
  </g>
</mask>
<clipPath id="clip8">
  <rect x="0" y="0" width="500" height="500"/>
</clipPath>
<g id="surface26" clip-path="url(#clip8)">
<path style=" stroke:none;fill-rule:nonzero;fill:rgb(0%,0%,0%);fill-opacity:1;" d="M 177.480469 177.699219 C 176.011719 177.441406 174.339844 177.191406 172.660156 177.039062 C 167.570312 176.75 162.46875 176.75 157.378906 177.039062 L 157 177.039062 C 156.730469 177.039062 156.449219 177.039062 156.179688 177.109375 C 150.441406 177.875 146.410156 183.152344 147.179688 188.890625 C 150.261719 211.300781 147.941406 232.179688 148.179688 236.960938 L 184.121094 236.960938 C 187.730469 207.441406 186.679688 192.519531 185.210938 185.261719 C 184.421875 181.394531 181.359375 178.402344 177.480469 177.699219 Z M 177.480469 177.699219 "/>
</g>
<mask id="mask8">
  <g filter="url(#alpha)">
<rect x="0" y="0" width="500" height="500" style="fill:rgb(0%,0%,0%);fill-opacity:0.2;stroke:none;"/>
  </g>
</mask>
<clipPath id="clip9">
  <rect x="0" y="0" width="500" height="500"/>
</clipPath>
<g id="surface29" clip-path="url(#clip9)">
<path style=" stroke:none;fill-rule:nonzero;fill:rgb(0%,0%,0%);fill-opacity:1;" d="M 186.488281 209.550781 C 186.738281 202.988281 186.488281 198.449219 181.820312 196.929688 L 177 200.21875 C 177.859375 204.730469 182.480469 208.539062 186.488281 209.550781 Z M 186.488281 209.550781 "/>
</g>
<mask id="mask9">
  <g filter="url(#alpha)">
<rect x="0" y="0" width="500" height="500" style="fill:rgb(0%,0%,0%);fill-opacity:0.2;stroke:none;"/>
  </g>
</mask>
<clipPath id="clip10">
  <rect x="0" y="0" width="500" height="500"/>
</clipPath>
<g id="surface32" clip-path="url(#clip10)">
<path style=" stroke:none;fill-rule:nonzero;fill:rgb(0%,0%,0%);fill-opacity:1;" d="M 171.109375 392.339844 L 170.871094 400.359375 L 177.589844 400.359375 L 177.839844 392.339844 Z M 171.109375 392.339844 "/>
</g>
<mask id="mask10">
  <g filter="url(#alpha)">
<rect x="0" y="0" width="500" height="500" style="fill:rgb(0%,0%,0%);fill-opacity:0.2;stroke:none;"/>
  </g>
</mask>
<clipPath id="clip11">
  <rect x="0" y="0" width="500" height="500"/>
</clipPath>
<g id="surface35" clip-path="url(#clip11)">
<path style=" stroke:none;fill-rule:nonzero;fill:rgb(0%,0%,0%);fill-opacity:1;" d="M 150.429688 154.050781 C 148.53125 158.929688 146.609375 163.839844 143.578125 168.191406 C 144.136719 167.671875 144.789062 167.269531 145.5 167 C 146.230469 166.601562 147.113281 166.601562 147.839844 167 C 148.191406 167.21875 148.441406 167.558594 148.789062 167.78125 C 149.65625 168.207031 150.691406 168.074219 151.421875 167.441406 C 152.082031 166.816406 152.597656 166.054688 152.929688 165.210938 C 153.289062 164.449219 154.28125 164.808594 154.820312 165.460938 C 153.878906 161.511719 153.542969 157.441406 153.820312 153.390625 C 153.199219 152.789062 152.332031 152.515625 151.480469 152.648438 C 150.769531 152.71875 150.671875 153.441406 150.429688 154.050781 Z M 150.429688 154.050781 "/>
</g>
<mask id="mask11">
  <g filter="url(#alpha)">
<rect x="0" y="0" width="500" height="500" style="fill:rgb(0%,0%,0%);fill-opacity:0.501961;stroke:none;"/>
  </g>
</mask>
<clipPath id="clip12">
  <rect x="0" y="0" width="500" height="500"/>
</clipPath>
<g id="surface38" clip-path="url(#clip12)">
<path style=" stroke:none;fill-rule:nonzero;fill:rgb(0%,0%,0%);fill-opacity:1;" d="M 175.511719 164.75 C 174.238281 167.488281 171.691406 169.414062 168.710938 169.890625 C 168.730469 169.394531 168.882812 168.910156 169.148438 168.488281 C 170.515625 166.269531 171.664062 163.925781 172.578125 161.488281 C 173.179688 159.753906 173.378906 157.90625 173.171875 156.078125 C 173.109375 155.691406 172.398438 154.078125 172.589844 153.761719 C 172.921875 153.261719 173.839844 153.589844 174.121094 153.96875 C 174.550781 154.589844 175.421875 163.75 175.511719 164.75 Z M 175.511719 164.75 "/>
</g>
<mask id="mask12">
  <g filter="url(#alpha)">
<rect x="0" y="0" width="500" height="500" style="fill:rgb(0%,0%,0%);fill-opacity:0.2;stroke:none;"/>
  </g>
</mask>
<clipPath id="clip13">
  <rect x="0" y="0" width="500" height="500"/>
</clipPath>
<g id="surface41" clip-path="url(#clip13)">
<path style=" stroke:none;fill-rule:nonzero;fill:rgb(0%,0%,0%);fill-opacity:1;" d="M 119.539062 384.039062 L 116.480469 391.96875 L 122.449219 394.109375 L 125.519531 386.179688 Z M 119.539062 384.039062 "/>
</g>
<mask id="mask13">
  <g filter="url(#alpha)">
<rect x="0" y="0" width="500" height="500" style="fill:rgb(0%,0%,0%);fill-opacity:0.301961;stroke:none;"/>
  </g>
</mask>
<clipPath id="clip14">
  <rect x="0" y="0" width="500" height="500"/>
</clipPath>
<g id="surface44" clip-path="url(#clip14)">
<path style=" stroke:none;fill-rule:nonzero;fill:rgb(0%,0%,0%);fill-opacity:1;" d="M 166.140625 261 C 162.609375 277.140625 158.210938 297.289062 155.871094 307.761719 C 155.769531 308.261719 155.640625 308.761719 155.519531 309.328125 C 155.371094 291.839844 156.320312 262.03125 164.78125 260.898438 C 165.234375 260.832031 165.699219 260.867188 166.140625 261 Z M 166.140625 261 "/>
</g>
<mask id="mask14">
  <g filter="url(#alpha)">
<rect x="0" y="0" width="500" height="500" style="fill:rgb(0%,0%,0%);fill-opacity:0.2;stroke:none;"/>
  </g>
</mask>
<clipPath id="clip15">
  <rect x="0" y="0" width="500" height="500"/>
</clipPath>
<g id="surface47" clip-path="url(#clip15)">
<path style=" stroke:none;fill-rule:nonzero;fill:rgb(0%,0%,0%);fill-opacity:1;" d="M 183.371094 180.421875 C 190.511719 185.800781 195.808594 197.179688 195.808594 197.179688 L 181.421875 205.070312 C 181.421875 205.070312 170.339844 196.988281 169.691406 187.328125 C 169.210938 180 174.550781 173.808594 183.371094 180.421875 Z M 183.371094 180.421875 "/>
</g>
<mask id="mask15">
  <g filter="url(#alpha)">
<rect x="0" y="0" width="500" height="500" style="fill:rgb(0%,0%,0%);fill-opacity:0.701961;stroke:none;"/>
  </g>
</mask>
<clipPath id="clip16">
  <rect x="0" y="0" width="500" height="500"/>
</clipPath>
<g id="surface50" clip-path="url(#clip16)">
<path style=" stroke:none;fill-rule:nonzero;fill:rgb(100%,100%,100%);fill-opacity:1;" d="M 203.71875 193.859375 C 203.660156 193.984375 203.574219 194.097656 203.46875 194.191406 C 203.21875 193.960938 202.96875 193.730469 202.71875 193.519531 Z M 203.71875 193.859375 "/>
</g>
<mask id="mask16">
  <g filter="url(#alpha)">
<rect x="0" y="0" width="500" height="500" style="fill:rgb(0%,0%,0%);fill-opacity:0.8;stroke:none;"/>
  </g>
</mask>
<clipPath id="clip17">
  <rect x="0" y="0" width="500" height="500"/>
</clipPath>
<g id="surface53" clip-path="url(#clip17)">
<path style=" stroke:none;fill-rule:nonzero;fill:rgb(100%,100%,100%);fill-opacity:1;" d="M 208.839844 211.738281 C 204.308594 217.488281 195.191406 219.238281 188.980469 215.378906 C 189.351562 217.148438 189.871094 219 190.121094 220.78125 C 198.011719 276.578125 198.691406 329.578125 191.339844 385.449219 C 182.25 386.671875 172.511719 387.789062 164.339844 383.671875 C 158.609375 380.789062 154.339844 375.671875 148.621094 372.671875 C 142.488281 369.480469 135.308594 369.109375 128.410156 369.398438 C 121.511719 369.691406 114.570312 370.53125 107.738281 369.519531 C 100.910156 368.511719 94 364.449219 90.539062 358.480469 C 114.019531 338.25 130.101562 313.828125 135.128906 283.238281 C 136.949219 272.191406 137.421875 260.730469 141.769531 250.410156 C 143.238281 246.878906 145.171875 243.539062 146.320312 239.890625 C 147.46875 236.238281 147.789062 232.128906 146.101562 228.710938 C 145.980469 228.710938 145.839844 228.710938 145.71875 228.710938 C 142.421875 229.078125 139.085938 228.789062 135.898438 227.859375 C 135.898438 227.859375 135.851562 227.859375 135.820312 227.859375 C 133.898438 227.304688 132.050781 226.519531 130.320312 225.519531 C 130.320312 225.398438 130.371094 225.289062 130.378906 225.160156 C 132.03125 216.21875 133.699219 207.160156 137.058594 198.75 C 138.828125 194.1875 141.199219 189.882812 144.109375 185.949219 C 146.675781 182.457031 149.804688 179.414062 153.371094 176.949219 C 159.261719 172.949219 168.320312 172.761719 175.109375 174.949219 C 183.679688 173.785156 191.882812 178.828125 194.710938 187 C 195.359375 189.050781 195.660156 191.320312 197.070312 192.941406 C 198.480469 194.558594 202.199219 195.601562 203.46875 194.160156 C 208.339844 198.71875 212.808594 206.699219 208.839844 211.738281 Z M 208.839844 211.738281 "/>
</g>
<mask id="mask17">
  <g filter="url(#alpha)">
<rect x="0" y="0" width="500" height="500" style="fill:rgb(0%,0%,0%);fill-opacity:0.101961;stroke:none;"/>
  </g>
</mask>
<clipPath id="clip18">
  <rect x="0" y="0" width="500" height="500"/>
</clipPath>
<g id="surface56" clip-path="url(#clip18)">
<path style=" stroke:none;fill-rule:nonzero;fill:rgb(0%,0%,0%);fill-opacity:1;" d="M 145.820312 229 C 142.46875 229.402344 139.074219 229.015625 135.898438 227.871094 C 135.898438 227.871094 135.851562 227.871094 135.820312 227.871094 C 133.980469 227.226562 132.246094 226.316406 130.671875 225.171875 C 130.574219 225.179688 130.476562 225.179688 130.378906 225.171875 C 132.03125 216.230469 133.699219 207.171875 137.058594 198.761719 C 138.828125 194.195312 141.199219 189.890625 144.109375 185.960938 C 143.542969 187.089844 143.128906 188.289062 142.890625 189.53125 C 140.316406 202.621094 141.292969 216.164062 145.71875 228.75 C 145.761719 228.851562 145.78125 228.929688 145.820312 229 Z M 145.820312 229 "/>
</g>
<mask id="mask18">
  <g filter="url(#alpha)">
<rect x="0" y="0" width="500" height="500" style="fill:rgb(0%,0%,0%);fill-opacity:0.101961;stroke:none;"/>
  </g>
</mask>
<clipPath id="clip19">
  <rect x="0" y="0" width="500" height="500"/>
</clipPath>
<g id="surface59" clip-path="url(#clip19)">
<path style=" stroke:none;fill-rule:nonzero;fill:rgb(0%,0%,0%);fill-opacity:1;" d="M 191.171875 227.28125 C 184.011719 219.820312 181.921875 210.140625 182.058594 199.800781 C 183.546875 205.644531 186.023438 211.191406 189.378906 216.199219 Z M 191.171875 227.28125 "/>
</g>
<mask id="mask19">
  <g filter="url(#alpha)">
<rect x="0" y="0" width="500" height="500" style="fill:rgb(0%,0%,0%);fill-opacity:0.101961;stroke:none;"/>
  </g>
</mask>
<clipPath id="clip20">
  <rect x="0" y="0" width="500" height="500"/>
</clipPath>
<g id="surface62" clip-path="url(#clip20)">
<path style=" stroke:none;fill-rule:nonzero;fill:rgb(0%,0%,0%);fill-opacity:1;" d="M 115.25 355.550781 C 113.25 358.320312 111.011719 361.820312 112.441406 364.949219 C 113.871094 368.078125 118.441406 368.691406 121.441406 367.03125 C 124.441406 365.371094 126.339844 362.210938 128.011719 359.171875 C 139.878906 337.550781 149.46875 314.378906 153.109375 289.980469 C 153.109375 289.980469 139.308594 316.078125 136.179688 322.050781 C 130.066406 333.730469 123.066406 344.929688 115.25 355.550781 Z M 115.25 355.550781 "/>
</g>
<mask id="mask20">
  <g filter="url(#alpha)">
<rect x="0" y="0" width="500" height="500" style="fill:rgb(0%,0%,0%);fill-opacity:0.101961;stroke:none;"/>
  </g>
</mask>
<clipPath id="clip21">
  <rect x="0" y="0" width="500" height="500"/>
</clipPath>
<g id="surface65" clip-path="url(#clip21)">
<path style=" stroke:none;fill-rule:nonzero;fill:rgb(0%,0%,0%);fill-opacity:1;" d="M 160.601562 353.519531 C 159.660156 357.589844 158.710938 361.730469 159.019531 365.898438 C 159.328125 370.070312 161.089844 374.320312 164.558594 376.648438 C 168.03125 378.980469 173.320312 378.710938 175.859375 375.390625 C 177.789062 372.871094 177.761719 369.390625 177.648438 366.25 C 176.851562 343.609375 177.238281 320.550781 175.191406 298.011719 C 169.511719 302 162.941406 343.539062 160.601562 353.519531 Z M 160.601562 353.519531 "/>
</g>
<mask id="mask21">
  <g filter="url(#alpha)">
<rect x="0" y="0" width="500" height="500" style="fill:rgb(0%,0%,0%);fill-opacity:0.2;stroke:none;"/>
  </g>
</mask>
<clipPath id="clip22">
  <rect x="0" y="0" width="500" height="500"/>
</clipPath>
<g id="surface68" clip-path="url(#clip22)">
<path style=" stroke:none;fill-rule:nonzero;fill:rgb(0%,0%,0%);fill-opacity:1;" d="M 162.398438 138.191406 C 165.683594 137.492188 169.109375 138.070312 171.980469 139.808594 C 172.648438 140.230469 173.328125 140.859375 173.28125 141.640625 C 173.230469 142.421875 172.488281 142.96875 171.800781 143.339844 C 167.007812 145.9375 161.394531 146.574219 156.140625 145.121094 C 155.464844 144.964844 154.828125 144.675781 154.269531 144.269531 C 152.269531 142.640625 155.421875 141.21875 156.730469 140.429688 C 158.476562 139.359375 160.394531 138.601562 162.398438 138.191406 Z M 162.398438 138.191406 "/>
</g>
<mask id="mask22">
  <g filter="url(#alpha)">
<rect x="0" y="0" width="500" height="500" style="fill:rgb(0%,0%,0%);fill-opacity:0.2;stroke:none;"/>
  </g>
</mask>
<clipPath id="clip23">
  <rect x="0" y="0" width="500" height="500"/>
</clipPath>
<g id="surface71" clip-path="url(#clip23)">
<path style=" stroke:none;fill-rule:nonzero;fill:rgb(0%,0%,0%);fill-opacity:1;" d="M 162.890625 150.519531 C 159.316406 151.390625 155.558594 151.128906 152.140625 149.769531 C 150.921875 149.4375 149.925781 148.5625 149.441406 147.398438 C 153.480469 149.839844 158.1875 150.933594 162.890625 150.519531 Z M 162.890625 150.519531 "/>
</g>
<mask id="mask23">
  <g filter="url(#alpha)">
<rect x="0" y="0" width="500" height="500" style="fill:rgb(0%,0%,0%);fill-opacity:0.2;stroke:none;"/>
  </g>
</mask>
<clipPath id="clip24">
  <rect x="0" y="0" width="500" height="500"/>
</clipPath>
<g id="surface74" clip-path="url(#clip24)">
<path style=" stroke:none;fill-rule:nonzero;fill:rgb(0%,0%,0%);fill-opacity:1;" d="M 162.429688 152.109375 C 166.082031 152.554688 169.78125 151.855469 173.019531 150.109375 C 174.183594 149.625 175.066406 148.640625 175.421875 147.429688 C 171.695312 150.332031 167.148438 151.96875 162.429688 152.109375 Z M 162.429688 152.109375 "/>
</g>
<mask id="mask24">
  <g filter="url(#alpha)">
<rect x="0" y="0" width="500" height="500" style="fill:rgb(0%,0%,0%);fill-opacity:0.701961;stroke:none;"/>
  </g>
</mask>
<clipPath id="clip25">
  <rect x="0" y="0" width="500" height="500"/>
</clipPath>
<g id="surface77" clip-path="url(#clip25)">
<path style=" stroke:none;fill-rule:nonzero;fill:rgb(100%,100%,100%);fill-opacity:1;" d="M 328.441406 371.839844 C 325.769531 359.160156 315.570312 351.46875 305.179688 343.738281 C 311.5 354.578125 318.941406 364.511719 322.269531 376.609375 C 317.703125 370.179688 311.886719 364.738281 305.171875 360.609375 C 305.171875 360.609375 314.769531 379.25 318.441406 382.859375 C 310.441406 374.980469 301.441406 370.101562 290.320312 368.53125 C 310.441406 381.890625 317.601562 394.410156 320.320312 401.828125 C 321.671875 405.410156 325.113281 407.761719 328.941406 407.730469 L 350.238281 407.578125 C 354.046875 407.535156 357.429688 405.148438 358.75 401.578125 C 362.46875 391.578125 368.960938 382.921875 378.601562 377.980469 C 370.5 380.238281 363.679688 381.890625 358.808594 388.75 C 361.808594 378.75 366.988281 372.921875 376.570312 368.691406 C 367.671875 370.128906 358.890625 373.429688 355.261719 381.691406 C 356.320312 371.589844 360.460938 364.238281 368.5 358.039062 C 360.878906 359.191406 353.558594 364.621094 352.101562 372.191406 C 351.839844 362.101562 352.921875 351.941406 358.429688 343.488281 C 350.972656 348.441406 345.953125 356.316406 344.621094 365.171875 C 342.25 356.480469 341.070312 343.769531 330.949219 332.398438 C 336.679688 349.5 334.519531 363.089844 334.519531 363.089844 C 333.660156 357.800781 325.71875 344.339844 318.140625 339.429688 C 318.171875 339.398438 329.238281 359.121094 328.441406 371.839844 Z M 328.441406 371.839844 "/>
<path style=" stroke:none;fill-rule:nonzero;fill:rgb(100%,100%,100%);fill-opacity:1;" d="M 307.511719 393.449219 C 311.183594 395.292969 314.453125 397.84375 317.128906 400.960938 C 313.910156 400.363281 310.597656 400.519531 307.449219 401.421875 L 319.199219 403 C 316.617188 403.320312 314.234375 404.550781 312.480469 406.46875 C 315.667969 405.511719 319.046875 405.355469 322.308594 406.019531 C 323.476562 406.351562 324.6875 406.515625 325.898438 406.511719 C 327.144531 406.488281 328.253906 405.71875 328.710938 404.558594 C 328.890625 403.558594 328.660156 402.527344 328.070312 401.699219 C 324 394.71875 314.851562 393.648438 307.511719 393.449219 Z M 307.511719 393.449219 "/>
<path style=" stroke:none;fill-rule:nonzero;fill:rgb(100%,100%,100%);fill-opacity:1;" d="M 367.550781 394.871094 C 364.675781 397.515625 361.378906 399.664062 357.800781 401.230469 C 361.539062 400.664062 365.359375 400.898438 369 401.921875 C 365.832031 403.210938 362.414062 403.773438 359 403.570312 C 361.183594 404.042969 363.246094 404.957031 365.058594 406.261719 L 351.390625 407.578125 C 350.90625 406.261719 351.035156 404.796875 351.738281 403.578125 C 354.339844 399.148438 362.921875 396.210938 367.550781 394.871094 Z M 367.550781 394.871094 "/>
</g>
</defs>
<g id="surface1">
<path style=" stroke:none;fill-rule:nonzero;fill:rgb(92.156863%,92.156863%,92.156863%);fill-opacity:1;" d="M 416.78125 398.488281 L 449.898438 398.488281 L 449.898438 398.738281 L 416.78125 398.738281 Z M 416.78125 398.488281 "/>
<path style=" stroke:none;fill-rule:nonzero;fill:rgb(92.156863%,92.156863%,92.156863%);fill-opacity:1;" d="M 322.53125 401.210938 L 331.21875 401.210938 L 331.21875 401.460938 L 322.53125 401.460938 Z M 322.53125 401.210938 "/>
<path style=" stroke:none;fill-rule:nonzero;fill:rgb(92.156863%,92.156863%,92.156863%);fill-opacity:1;" d="M 396.589844 389.210938 L 415.78125 389.210938 L 415.78125 389.460938 L 396.589844 389.460938 Z M 396.589844 389.210938 "/>
<path style=" stroke:none;fill-rule:nonzero;fill:rgb(92.156863%,92.156863%,92.156863%);fill-opacity:1;" d="M 52.460938 390.890625 L 95.648438 390.890625 L 95.648438 391.140625 L 52.460938 391.140625 Z M 52.460938 390.890625 "/>
<path style=" stroke:none;fill-rule:nonzero;fill:rgb(92.156863%,92.156863%,92.156863%);fill-opacity:1;" d="M 104.558594 390.890625 L 110.890625 390.890625 L 110.890625 391.140625 L 104.558594 391.140625 Z M 104.558594 390.890625 "/>
<path style=" stroke:none;fill-rule:nonzero;fill:rgb(92.156863%,92.156863%,92.156863%);fill-opacity:1;" d="M 131.46875 395.109375 L 225.148438 395.109375 L 225.148438 395.359375 L 131.46875 395.359375 Z M 131.46875 395.109375 "/>
<path style=" stroke:none;fill-rule:nonzero;fill:rgb(92.156863%,92.156863%,92.156863%);fill-opacity:1;" d="M 237 337.800781 L 43.921875 337.800781 C 40.765625 337.800781 38.210938 335.242188 38.210938 332.089844 L 38.210938 60.660156 C 38.238281 57.527344 40.785156 55 43.921875 55 L 237 55 C 240.152344 55 242.710938 57.554688 242.710938 60.710938 L 242.710938 332.089844 C 242.710938 335.242188 240.152344 337.800781 237 337.800781 Z M 43.921875 55.199219 C 40.90625 55.207031 38.464844 57.648438 38.460938 60.660156 L 38.460938 332.089844 C 38.464844 335.101562 40.90625 337.542969 43.921875 337.550781 L 237 337.550781 C 240.011719 337.542969 242.453125 335.101562 242.460938 332.089844 L 242.460938 60.660156 C 242.453125 57.648438 240.011719 55.207031 237 55.199219 Z M 43.921875 55.199219 "/>
<path style=" stroke:none;fill-rule:nonzero;fill:rgb(92.156863%,92.156863%,92.156863%);fill-opacity:1;" d="M 453.308594 337.800781 L 260.210938 337.800781 C 257.058594 337.792969 254.503906 335.242188 254.5 332.089844 L 254.5 60.660156 C 254.53125 57.527344 257.078125 55.003906 260.210938 55 L 453.308594 55 C 456.4375 55.011719 458.972656 57.535156 459 60.660156 L 459 332.089844 C 459 335.234375 456.457031 337.789062 453.308594 337.800781 Z M 260.210938 55.199219 C 257.195312 55.207031 254.753906 57.648438 254.75 60.660156 L 254.75 332.089844 C 254.753906 335.101562 257.195312 337.542969 260.210938 337.550781 L 453.308594 337.550781 C 456.324219 337.542969 458.765625 335.101562 458.769531 332.089844 L 458.769531 60.660156 C 458.765625 57.648438 456.324219 55.207031 453.308594 55.199219 Z M 260.210938 55.199219 "/>
<path style=" stroke:none;fill-rule:nonzero;fill:rgb(92.156863%,92.156863%,92.156863%);fill-opacity:1;" d="M 0 382.398438 L 500 382.398438 L 500 382.648438 L 0 382.648438 Z M 0 382.398438 "/>
<path style=" stroke:none;fill-rule:nonzero;fill:rgb(96.078431%,96.078431%,96.078431%);fill-opacity:1;" d="M 407.578125 378.660156 L 407.578125 261.730469 C 407.578125 261.730469 380.53125 289.171875 326.578125 284.578125 C 286.960938 281.210938 215.710938 248.25 180.578125 230.960938 C 167.519531 224.519531 152.085938 225.136719 139.578125 232.601562 C 110.980469 249.660156 61.691406 279.050781 56.320312 282.199219 L 48.699219 286.660156 L 48.699219 381.789062 Z M 407.578125 378.660156 "/>
<path style=" stroke:none;fill-rule:nonzero;fill:rgb(90.196078%,90.196078%,90.196078%);fill-opacity:1;" d="M 161.789062 264.359375 C 160.789062 266.800781 158.71875 268.640625 156.691406 270.359375 C 148.394531 277.292969 139.335938 283.253906 129.691406 288.128906 C 129.691406 288.128906 73.121094 323.320312 48.691406 338.351562 L 48.691406 286.660156 L 56.320312 282.199219 C 61.691406 279.050781 110.980469 249.660156 139.589844 232.601562 C 146.039062 228.765625 153.386719 226.695312 160.890625 226.601562 C 162.507812 227.667969 163.640625 229.332031 164.039062 231.230469 C 164.671875 234.570312 162.671875 237.851562 160.210938 240.179688 C 157.75 242.511719 154.789062 244.289062 152.550781 246.839844 C 150.980469 248.621094 149.808594 251.28125 151.039062 253.308594 C 152.828125 256.261719 157.609375 255.089844 160.359375 257.171875 C 162.5 258.710938 162.808594 261.910156 161.789062 264.359375 Z M 161.789062 264.359375 "/>
<path style=" stroke:none;fill-rule:nonzero;fill:rgb(94.117647%,94.117647%,94.117647%);fill-opacity:1;" d="M 47.511719 379.148438 L 47.511719 247.890625 C 47.511719 247.890625 77.878906 278.691406 138.511719 273.539062 C 182.988281 269.761719 262.96875 232.761719 302.359375 213.351562 C 317.011719 206.125 334.332031 206.816406 348.359375 215.191406 C 380.46875 234.339844 435.800781 267.328125 441.828125 270.859375 L 450.390625 275.859375 L 450.390625 382.660156 Z M 47.511719 379.148438 "/>
<path style=" stroke:none;fill-rule:nonzero;fill:rgb(87.843137%,87.843137%,87.843137%);fill-opacity:1;" d="M 348.910156 299.730469 C 317.898438 313.074219 286.003906 324.261719 253.449219 333.210938 C 249.941406 334.210938 245.558594 336.351562 246.171875 339.941406 C 246.820312 343.800781 252.171875 344.078125 256.070312 343.449219 C 278.8125 339.738281 301.933594 338.914062 324.878906 341 C 330.71875 341.539062 338.019531 343.660156 338.640625 349.5 C 339.171875 354.570312 334.058594 358.238281 329.558594 360.628906 C 314.5625 368.617188 299.003906 375.492188 283 381.199219 L 47.511719 379.148438 L 47.511719 247.890625 C 47.511719 247.890625 77.878906 278.691406 138.511719 273.539062 C 182.988281 269.761719 262.96875 232.761719 302.359375 213.351562 C 305.546875 211.773438 308.902344 210.5625 312.359375 209.730469 C 310.359375 218.519531 313.058594 228.480469 321.160156 231.960938 C 325.929688 233.960938 331.371094 233.421875 336.539062 233.960938 C 341.710938 234.5 347.480469 236.800781 348.96875 241.78125 C 350.570312 247.101562 346.550781 252.308594 342.96875 256.558594 C 339.390625 260.808594 335.820312 266.558594 338.28125 271.558594 C 342.28125 279.699219 357.671875 276.648438 360.53125 285.25 C 362.660156 291.710938 355.191406 297 348.910156 299.730469 Z M 348.910156 299.730469 "/>
<path style=" stroke:none;fill-rule:nonzero;fill:rgb(94.117647%,94.117647%,94.117647%);fill-opacity:1;" d="M 356 148 L 376.539062 147.601562 L 378.25 148.328125 C 387.664062 152.328125 398.386719 151.839844 407.398438 147 L 424.589844 146.671875 C 424.589844 146.671875 440.589844 140.300781 438.160156 124.308594 C 435.730469 108.320312 411.761719 122.140625 411.761719 122.140625 C 411.761719 122.140625 418.679688 99.621094 395.300781 106.421875 C 371.921875 113.21875 370.050781 135.421875 370.050781 135.421875 C 370.050781 135.421875 339.078125 130.640625 356 148 Z M 356 148 "/>
<path style=" stroke:none;fill-rule:nonzero;fill:rgb(94.117647%,94.117647%,94.117647%);fill-opacity:1;" d="M 119.179688 203.710938 L 63 203.710938 C 55.800781 203.710938 54.070312 193.640625 60.859375 191.269531 L 61.121094 191.179688 C 53.609375 184.921875 70.121094 171.71875 88.011719 190 C 86.609375 183.910156 102.53125 186.109375 107.398438 194.421875 C 109.160156 189 124.351562 198.449219 119.179688 203.710938 Z M 119.179688 203.710938 "/>
<path style=" stroke:none;fill-rule:nonzero;fill:rgb(96.078431%,96.078431%,96.078431%);fill-opacity:1;" d="M 439.070312 412.390625 C 439.070312 406.136719 352.261719 401.070312 245.179688 401.070312 C 138.097656 401.070312 51.289062 406.136719 51.289062 412.390625 C 51.289062 418.640625 138.097656 423.710938 245.179688 423.710938 C 352.261719 423.710938 439.070312 418.640625 439.070312 412.390625 Z M 439.070312 412.390625 "/>
<path style=" stroke:none;fill-rule:nonzero;fill:rgb(25.098039%,48.235294%,100%);fill-opacity:1;" d="M 152.839844 100.960938 C 152.839844 110.933594 144.753906 119.019531 134.78125 119.019531 C 124.804688 119.019531 116.71875 110.933594 116.71875 100.960938 C 116.71875 90.984375 124.804688 82.898438 134.78125 82.898438 C 144.753906 82.898438 152.839844 90.984375 152.839844 100.960938 Z M 152.839844 100.960938 "/>
<use xlink:href="#surface5" mask="url(#mask0)"/>
<path style=" stroke:none;fill-rule:nonzero;fill:rgb(25.098039%,48.235294%,100%);fill-opacity:1;" d="M 406.179688 382.429688 L 47.449219 382.429688 C 47.507812 381.480469 47.765625 380.550781 48.210938 379.710938 C 48.210938 379.710938 221.078125 227.148438 229.910156 220.210938 L 230.308594 219.929688 C 232.472656 218.457031 235.382812 218.75 237.210938 220.621094 Z M 406.179688 382.429688 "/>
<use xlink:href="#surface8" mask="url(#mask1)"/>
<use xlink:href="#surface11" mask="url(#mask2)"/>
<path style=" stroke:none;fill-rule:nonzero;fill:rgb(25.098039%,48.235294%,100%);fill-opacity:1;" d="M 449.699219 382.628906 L 82.789062 382.578125 C 82.789062 382.578125 262.929688 275.578125 271.371094 270.578125 L 271.679688 270.390625 L 272.898438 269.691406 L 274.03125 269.039062 C 276.210938 267.792969 278.675781 267.128906 281.191406 267.109375 C 284.296875 267.148438 287.316406 268.152344 289.828125 269.980469 C 322.351562 292.730469 449.699219 382.628906 449.699219 382.628906 Z M 449.699219 382.628906 "/>
<use xlink:href="#surface14" mask="url(#mask3)"/>
<use xlink:href="#surface17" mask="url(#mask4)"/>
<path style="fill:none;stroke-width:1;stroke-linecap:round;stroke-linejoin:round;stroke:rgb(25.098039%,48.235294%,100%);stroke-opacity:1;stroke-miterlimit:4;" d="M 321.160156 226.710938 L 327.019531 226.710938 "/>
<path style="fill:none;stroke-width:1;stroke-linecap:round;stroke-linejoin:round;stroke:rgb(25.098039%,48.235294%,100%);stroke-opacity:1;stroke-miterlimit:4;" d="M 296.199219 226.710938 L 315.308594 226.710938 "/>
<path style=" stroke:none;fill-rule:nonzero;fill:rgb(25.098039%,48.235294%,100%);fill-opacity:1;" d="M 365.730469 222.421875 L 261.011719 222.421875 L 263.550781 193.5 L 368.261719 193.5 Z M 365.730469 222.421875 "/>
<path style=" stroke:none;fill-rule:nonzero;fill:rgb(14.901961%,19.607843%,21.960784%);fill-opacity:1;" d="M 363.609375 220.308594 L 258.898438 220.308594 L 261.429688 191.378906 L 366.140625 191.378906 Z M 363.609375 220.308594 "/>
<path style=" stroke:none;fill-rule:nonzero;fill:rgb(100%,100%,100%);fill-opacity:1;" d="M 273.570312 201.929688 C 273.753906 200.019531 275.390625 198.582031 277.308594 198.648438 C 278.277344 198.59375 279.214844 199.011719 279.820312 199.769531 L 278.820312 200.640625 C 278.460938 200.160156 277.890625 199.882812 277.289062 199.898438 C 276.136719 199.871094 275.164062 200.75 275.078125 201.898438 C 275.007812 202.421875 275.171875 202.949219 275.53125 203.339844 C 275.890625 203.726562 276.402344 203.933594 276.929688 203.898438 C 277.570312 203.902344 278.175781 203.628906 278.601562 203.148438 L 279.460938 204.019531 C 278.757812 204.769531 277.765625 205.183594 276.738281 205.148438 C 275.875 205.203125 275.03125 204.878906 274.421875 204.261719 C 273.816406 203.644531 273.503906 202.792969 273.570312 201.929688 Z M 273.570312 201.929688 "/>
<path style=" stroke:none;fill-rule:nonzero;fill:rgb(100%,100%,100%);fill-opacity:1;" d="M 285.449219 200.21875 L 285 205.101562 L 283.660156 205.101562 L 283.710938 204.519531 C 283.300781 204.945312 282.730469 205.183594 282.140625 205.179688 C 280.921875 205.179688 280.140625 204.488281 280.25 202.980469 L 280.488281 200.21875 L 281.898438 200.21875 L 281.679688 202.769531 C 281.609375 203.589844 281.941406 203.949219 282.570312 203.949219 C 283.199219 203.949219 283.730469 203.53125 283.800781 202.640625 L 284.019531 200.21875 Z M 285.449219 200.21875 "/>
<path style=" stroke:none;fill-rule:nonzero;fill:rgb(100%,100%,100%);fill-opacity:1;" d="M 289.789062 200.148438 L 289.679688 201.460938 L 289.359375 201.460938 C 289 201.449219 288.648438 201.585938 288.394531 201.839844 C 288.136719 202.09375 287.996094 202.4375 288 202.800781 L 287.800781 205.101562 L 286.378906 205.101562 L 286.808594 200.21875 L 288.160156 200.21875 L 288.101562 200.871094 C 288.527344 200.390625 289.148438 200.128906 289.789062 200.148438 Z M 289.789062 200.148438 "/>
<path style=" stroke:none;fill-rule:nonzero;fill:rgb(100%,100%,100%);fill-opacity:1;" d="M 293.660156 200.148438 L 293.550781 201.460938 L 293.230469 201.460938 C 292.859375 201.433594 292.492188 201.566406 292.222656 201.828125 C 291.953125 202.085938 291.808594 202.445312 291.820312 202.820312 L 291.621094 205.121094 L 290.199219 205.121094 L 290.628906 200.238281 L 292 200.238281 L 291.941406 200.890625 C 292.371094 200.394531 293.003906 200.125 293.660156 200.148438 Z M 293.660156 200.148438 "/>
<path style=" stroke:none;fill-rule:nonzero;fill:rgb(100%,100%,100%);fill-opacity:1;" d="M 299 203.058594 L 295.308594 203.058594 C 295.402344 203.695312 295.984375 204.136719 296.621094 204.058594 C 297.089844 204.078125 297.546875 203.90625 297.890625 203.589844 L 298.570312 204.410156 C 298.015625 204.949219 297.261719 205.234375 296.488281 205.199219 C 295.796875 205.285156 295.097656 205.050781 294.601562 204.558594 C 294.101562 204.070312 293.855469 203.375 293.929688 202.679688 C 294.054688 201.226562 295.292969 200.128906 296.75 200.171875 C 297.417969 200.121094 298.070312 200.382812 298.523438 200.875 C 298.972656 201.367188 299.175781 202.039062 299.070312 202.699219 C 299 202.789062 299 202.941406 299 203.058594 Z M 295.371094 202.238281 L 297.769531 202.238281 C 297.773438 201.953125 297.652344 201.683594 297.4375 201.492188 C 297.226562 201.300781 296.945312 201.207031 296.660156 201.238281 C 296.027344 201.195312 295.457031 201.621094 295.320312 202.238281 Z M 295.371094 202.238281 "/>
<path style=" stroke:none;fill-rule:nonzero;fill:rgb(100%,100%,100%);fill-opacity:1;" d="M 305 202.308594 L 304.761719 205.101562 L 303.339844 205.101562 L 303.570312 202.53125 C 303.640625 201.738281 303.308594 201.378906 302.679688 201.378906 C 302.332031 201.371094 301.996094 201.507812 301.753906 201.757812 C 301.511719 202.003906 301.382812 202.34375 301.398438 202.691406 L 301.191406 205.101562 L 299.769531 205.101562 L 300.199219 200.21875 L 301.550781 200.21875 L 301.550781 200.800781 C 301.996094 200.371094 302.597656 200.136719 303.21875 200.148438 C 304.289062 200.148438 305.101562 200.820312 305 202.308594 Z M 305 202.308594 "/>
<path style=" stroke:none;fill-rule:nonzero;fill:rgb(100%,100%,100%);fill-opacity:1;" d="M 309.171875 204.871094 C 308.816406 205.085938 308.40625 205.191406 307.988281 205.179688 C 306.839844 205.179688 306.21875 204.589844 306.320312 203.429688 L 306.5 201.429688 L 305.738281 201.429688 L 305.839844 200.339844 L 306.589844 200.339844 L 306.699219 199.160156 L 308.109375 199.160156 L 308.011719 200.339844 L 309.21875 200.339844 L 309.128906 201.429688 L 307.910156 201.429688 L 307.738281 203.429688 C 307.695312 203.59375 307.734375 203.765625 307.84375 203.894531 C 307.957031 204.023438 308.121094 204.089844 308.289062 204.070312 C 308.5 204.074219 308.707031 204.011719 308.878906 203.890625 Z M 309.171875 204.871094 "/>
<path style=" stroke:none;fill-rule:nonzero;fill:rgb(100%,100%,100%);fill-opacity:1;" d="M 313.160156 198.761719 L 314.628906 198.761719 L 314.179688 203.910156 L 317.359375 203.910156 L 317.261719 205.101562 L 312.609375 205.101562 Z M 313.160156 198.761719 "/>
<path style=" stroke:none;fill-rule:nonzero;fill:rgb(100%,100%,100%);fill-opacity:1;" d="M 317.789062 202.660156 C 317.9375 201.183594 319.214844 200.078125 320.699219 200.148438 C 321.378906 200.089844 322.046875 200.335938 322.523438 200.820312 C 322.996094 201.308594 323.226562 201.984375 323.148438 202.660156 C 323.011719 204.136719 321.742188 205.246094 320.261719 205.179688 C 319.578125 205.242188 318.90625 204.992188 318.429688 204.503906 C 317.949219 204.015625 317.714844 203.339844 317.789062 202.660156 Z M 321.71875 202.660156 C 321.789062 202.324219 321.703125 201.976562 321.484375 201.714844 C 321.269531 201.453125 320.941406 201.300781 320.601562 201.308594 C 319.851562 201.308594 319.242188 201.910156 319.230469 202.660156 C 319.15625 202.996094 319.242188 203.347656 319.460938 203.613281 C 319.683594 203.878906 320.015625 204.023438 320.359375 204.011719 C 321.105469 204.011719 321.714844 203.40625 321.71875 202.660156 Z M 321.71875 202.660156 "/>
<path style=" stroke:none;fill-rule:nonzero;fill:rgb(100%,100%,100%);fill-opacity:1;" d="M 323.730469 202.660156 C 323.882812 201.171875 325.175781 200.066406 326.671875 200.148438 C 327.558594 200.054688 328.40625 200.558594 328.738281 201.390625 L 327.601562 201.980469 C 327.425781 201.578125 327.035156 201.316406 326.601562 201.308594 C 325.84375 201.304688 325.222656 201.902344 325.199219 202.660156 C 325.132812 203 325.222656 203.355469 325.449219 203.617188 C 325.675781 203.882812 326.011719 204.027344 326.359375 204.011719 C 326.839844 204.011719 327.28125 203.753906 327.519531 203.339844 L 328.519531 203.941406 C 328.050781 204.75 327.164062 205.226562 326.230469 205.179688 C 325.542969 205.25 324.863281 205.007812 324.378906 204.519531 C 323.890625 204.027344 323.652344 203.34375 323.730469 202.660156 Z M 323.730469 202.660156 "/>
<path style=" stroke:none;fill-rule:nonzero;fill:rgb(100%,100%,100%);fill-opacity:1;" d="M 333.789062 202.320312 L 333.550781 205.101562 L 332.21875 205.101562 L 332.28125 204.488281 C 331.917969 204.972656 331.332031 205.234375 330.730469 205.179688 C 329.589844 205.179688 328.960938 204.539062 329.039062 203.699219 C 329.121094 202.859375 329.769531 202.238281 331.261719 202.238281 L 332.378906 202.238281 C 332.441406 201.628906 332.109375 201.238281 331.378906 201.238281 C 330.867188 201.242188 330.363281 201.398438 329.941406 201.691406 L 329.519531 200.691406 C 330.167969 200.292969 330.910156 200.089844 331.671875 200.101562 C 333.121094 200.148438 333.921875 200.839844 333.789062 202.320312 Z M 332.269531 203.558594 L 332.269531 203.058594 L 331.269531 203.058594 C 330.609375 203.058594 330.378906 203.308594 330.351562 203.628906 C 330.320312 203.949219 330.601562 204.21875 331.101562 204.21875 C 331.59375 204.277344 332.066406 204.011719 332.269531 203.558594 Z M 332.269531 203.558594 "/>
<path style=" stroke:none;fill-rule:nonzero;fill:rgb(100%,100%,100%);fill-opacity:1;" d="M 338 204.871094 C 337.644531 205.085938 337.234375 205.191406 336.820312 205.179688 C 335.671875 205.179688 335.050781 204.589844 335.148438 203.429688 L 335.328125 201.429688 L 334.570312 201.429688 L 334.671875 200.339844 L 335.421875 200.339844 L 335.53125 199.160156 L 336.941406 199.160156 L 336.839844 200.339844 L 338 200.339844 L 337.910156 201.429688 L 336.691406 201.429688 L 336.519531 203.429688 C 336.476562 203.59375 336.515625 203.765625 336.625 203.894531 C 336.734375 204.023438 336.902344 204.089844 337.070312 204.070312 C 337.28125 204.074219 337.488281 204.011719 337.660156 203.890625 Z M 338 204.871094 "/>
<path style=" stroke:none;fill-rule:nonzero;fill:rgb(100%,100%,100%);fill-opacity:1;" d="M 339.148438 198.761719 C 339.199219 198.285156 339.613281 197.933594 340.089844 197.96875 C 340.621094 197.96875 340.949219 198.289062 340.910156 198.730469 C 340.886719 198.972656 340.769531 199.191406 340.582031 199.34375 C 340.390625 199.496094 340.152344 199.566406 339.910156 199.539062 C 339.703125 199.550781 339.496094 199.472656 339.351562 199.324219 C 339.207031 199.175781 339.132812 198.96875 339.148438 198.761719 Z M 339.148438 200.21875 L 340.558594 200.21875 L 340.140625 205.101562 L 338.71875 205.101562 Z M 339.148438 200.21875 "/>
<path style=" stroke:none;fill-rule:nonzero;fill:rgb(100%,100%,100%);fill-opacity:1;" d="M 341.339844 202.660156 C 341.480469 201.183594 342.757812 200.078125 344.238281 200.148438 C 344.917969 200.085938 345.589844 200.332031 346.070312 200.816406 C 346.546875 201.304688 346.777344 201.980469 346.699219 202.660156 C 346.5625 204.136719 345.292969 205.246094 343.808594 205.179688 C 343.128906 205.246094 342.453125 205 341.972656 204.507812 C 341.496094 204.019531 341.261719 203.339844 341.339844 202.660156 Z M 345.269531 202.660156 C 345.339844 202.324219 345.253906 201.972656 345.03125 201.710938 C 344.8125 201.445312 344.484375 201.300781 344.140625 201.308594 C 343.394531 201.316406 342.785156 201.914062 342.769531 202.660156 C 342.699219 202.996094 342.789062 203.351562 343.011719 203.613281 C 343.234375 203.878906 343.566406 204.023438 343.910156 204.011719 C 344.65625 204.003906 345.257812 203.40625 345.269531 202.660156 Z M 345.269531 202.660156 "/>
<path style=" stroke:none;fill-rule:nonzero;fill:rgb(100%,100%,100%);fill-opacity:1;" d="M 352.660156 202.308594 L 352.410156 205.101562 L 351 205.101562 L 351.21875 202.53125 C 351.289062 201.738281 350.960938 201.378906 350.328125 201.378906 C 349.984375 201.371094 349.648438 201.507812 349.40625 201.757812 C 349.160156 202.003906 349.035156 202.34375 349.050781 202.691406 L 348.839844 205.101562 L 347.421875 205.101562 L 347.851562 200.21875 L 349.199219 200.21875 L 349.148438 200.800781 C 349.597656 200.371094 350.199219 200.136719 350.820312 200.148438 C 351.382812 200.101562 351.933594 200.324219 352.296875 200.753906 C 352.664062 201.183594 352.796875 201.761719 352.660156 202.308594 Z M 352.660156 202.308594 "/>
<path style=" stroke:none;fill-rule:nonzero;fill:rgb(25.098039%,48.235294%,100%);fill-opacity:1;" d="M 291.71875 209.898438 L 293.820312 209.898438 C 294.457031 209.816406 295.09375 210.027344 295.550781 210.476562 C 296.007812 210.929688 296.234375 211.5625 296.160156 212.199219 C 296.03125 213.59375 294.804688 214.625 293.410156 214.511719 L 291.320312 214.511719 Z M 293.441406 213.628906 C 293.847656 213.660156 294.25 213.527344 294.558594 213.257812 C 294.867188 212.988281 295.054688 212.609375 295.078125 212.199219 C 295.140625 211.8125 295.015625 211.421875 294.742188 211.140625 C 294.46875 210.859375 294.078125 210.722656 293.691406 210.769531 L 292.691406 210.769531 L 292.441406 213.628906 Z M 293.441406 213.628906 "/>
<path style=" stroke:none;fill-rule:nonzero;fill:rgb(25.098039%,48.235294%,100%);fill-opacity:1;" d="M 300.269531 213 L 297.589844 213 C 297.625 213.230469 297.75 213.433594 297.9375 213.566406 C 298.128906 213.703125 298.363281 213.753906 298.589844 213.710938 C 298.929688 213.722656 299.261719 213.601562 299.511719 213.371094 L 300.011719 213.960938 C 299.609375 214.355469 299.0625 214.5625 298.5 214.53125 C 297.996094 214.59375 297.492188 214.425781 297.128906 214.070312 C 296.761719 213.714844 296.582031 213.214844 296.628906 212.710938 C 296.71875 211.652344 297.621094 210.851562 298.679688 210.878906 C 299.164062 210.84375 299.640625 211.03125 299.972656 211.390625 C 300.300781 211.75 300.449219 212.238281 300.371094 212.71875 C 300.308594 212.828125 300.289062 212.941406 300.269531 213 Z M 297.628906 212.398438 L 299.378906 212.398438 C 299.371094 212.195312 299.28125 212 299.128906 211.859375 C 298.976562 211.722656 298.777344 211.648438 298.570312 211.660156 C 298.109375 211.648438 297.710938 211.976562 297.628906 212.429688 Z M 297.628906 212.398438 "/>
<path style=" stroke:none;fill-rule:nonzero;fill:rgb(25.098039%,48.235294%,100%);fill-opacity:1;" d="M 300.539062 214.179688 L 300.941406 213.441406 C 301.300781 213.667969 301.722656 213.785156 302.148438 213.78125 C 302.621094 213.78125 302.808594 213.660156 302.828125 213.460938 C 302.878906 212.878906 300.679688 213.460938 300.828125 212.058594 C 300.890625 211.390625 301.53125 210.910156 302.570312 210.910156 C 303.03125 210.894531 303.492188 211.003906 303.898438 211.21875 L 303.5 211.949219 C 303.195312 211.773438 302.851562 211.683594 302.5 211.691406 C 302.039062 211.691406 301.828125 211.828125 301.808594 212.019531 C 301.761719 212.621094 303.949219 212.019531 303.808594 213.429688 C 303.75 214.089844 303.101562 214.558594 302.039062 214.558594 C 301.515625 214.574219 300.996094 214.445312 300.539062 214.179688 Z M 300.539062 214.179688 "/>
<path style=" stroke:none;fill-rule:nonzero;fill:rgb(25.098039%,48.235294%,100%);fill-opacity:1;" d="M 307.929688 213 L 305.25 213 C 305.320312 213.453125 305.742188 213.769531 306.199219 213.710938 C 306.539062 213.722656 306.871094 213.601562 307.121094 213.371094 L 307.621094 213.960938 C 307.210938 214.347656 306.664062 214.554688 306.101562 214.53125 C 305.597656 214.59375 305.09375 214.425781 304.730469 214.070312 C 304.367188 213.714844 304.1875 213.214844 304.238281 212.710938 C 304.328125 211.652344 305.230469 210.851562 306.289062 210.878906 C 306.777344 210.84375 307.25 211.03125 307.582031 211.390625 C 307.910156 211.75 308.058594 212.238281 307.980469 212.71875 C 308 212.828125 308 212.941406 307.929688 213 Z M 305.289062 212.398438 L 307 212.398438 C 306.992188 212.195312 306.902344 212 306.75 211.859375 C 306.597656 211.722656 306.394531 211.648438 306.191406 211.660156 C 305.746094 211.667969 305.367188 211.992188 305.289062 212.429688 Z M 305.289062 212.398438 "/>
<path style=" stroke:none;fill-rule:nonzero;fill:rgb(25.098039%,48.235294%,100%);fill-opacity:1;" d="M 311 210.910156 L 310.921875 211.910156 L 310.691406 211.910156 C 310.136719 211.910156 309.691406 212.359375 309.691406 212.910156 L 309.550781 214.578125 L 308.550781 214.578125 L 308.859375 211.03125 L 309.859375 211.03125 L 309.859375 211.5 C 310.136719 211.148438 310.554688 210.933594 311 210.910156 Z M 311 210.910156 "/>
<path style=" stroke:none;fill-rule:nonzero;fill:rgb(25.098039%,48.235294%,100%);fill-opacity:1;" d="M 313.75 214.339844 C 313.492188 214.496094 313.191406 214.570312 312.890625 214.558594 C 312.058594 214.558594 311.609375 214.128906 311.679688 213.289062 L 311.808594 211.828125 L 311.261719 211.828125 L 311.328125 211.039062 L 311.878906 211.039062 L 311.949219 210.179688 L 312.949219 210.179688 L 312.871094 211.039062 L 313.761719 211.039062 L 313.691406 211.828125 L 312.800781 211.828125 L 312.679688 213.28125 C 312.648438 213.398438 312.679688 213.523438 312.757812 213.613281 C 312.839844 213.707031 312.960938 213.753906 313.078125 213.738281 C 313.234375 213.742188 313.382812 213.699219 313.511719 213.609375 Z M 313.75 214.339844 "/>
<path style=" stroke:none;fill-rule:nonzero;fill:rgb(25.098039%,48.235294%,100%);fill-opacity:1;" d="M 315.460938 213.921875 C 315.433594 214.152344 315.351562 214.375 315.21875 214.570312 L 314.769531 215.570312 L 314.109375 215.570312 L 314.5 214.570312 C 314.28125 214.472656 314.15625 214.246094 314.191406 214.011719 C 314.207031 213.644531 314.511719 213.359375 314.878906 213.371094 C 315.03125 213.363281 315.179688 213.417969 315.289062 213.519531 C 315.398438 213.625 315.460938 213.769531 315.460938 213.921875 Z M 315.460938 213.921875 "/>
<path style=" stroke:none;fill-rule:nonzero;fill:rgb(25.098039%,48.235294%,100%);fill-opacity:1;" d="M 318.179688 212.480469 L 318.410156 209.898438 L 319.480469 209.898438 L 319.25 212.441406 C 319.179688 213.320312 319.53125 213.679688 320.171875 213.679688 C 320.808594 213.679688 321.230469 213.320312 321.308594 212.441406 L 321.53125 209.898438 L 322.589844 209.898438 L 322.359375 212.480469 C 322.363281 213.070312 322.117188 213.632812 321.6875 214.03125 C 321.253906 214.433594 320.675781 214.632812 320.089844 214.589844 C 319.527344 214.660156 318.96875 214.449219 318.585938 214.03125 C 318.207031 213.609375 318.054688 213.03125 318.179688 212.480469 Z M 318.179688 212.480469 "/>
<path style=" stroke:none;fill-rule:nonzero;fill:rgb(25.098039%,48.235294%,100%);fill-opacity:1;" d="M 326.261719 213.519531 L 324.121094 213.519531 L 323.628906 214.519531 L 322.53125 214.519531 L 325 209.898438 L 326.058594 209.898438 L 327.71875 214.511719 L 326.601562 214.511719 Z M 326 212.710938 L 325.421875 210.941406 L 324.539062 212.710938 Z M 326 212.710938 "/>
<path style=" stroke:none;fill-rule:nonzero;fill:rgb(25.098039%,48.235294%,100%);fill-opacity:1;" d="M 331.828125 213.648438 L 331.761719 214.511719 L 328.191406 214.511719 L 328.589844 209.898438 L 332.078125 209.898438 L 332 210.75 L 329.578125 210.75 L 329.488281 211.75 L 331.628906 211.75 L 331.558594 212.578125 L 329.421875 212.578125 L 329.320312 213.648438 Z M 331.828125 213.648438 "/>
<use xlink:href="#surface20" mask="url(#mask5)"/>
<path style=" stroke:none;fill-rule:nonzero;fill:rgb(25.098039%,48.235294%,100%);fill-opacity:1;" d="M 323.53125 185.589844 C 323.007812 190.753906 318.71875 194.714844 313.53125 194.828125 C 311.136719 194.871094 308.839844 193.882812 307.222656 192.117188 C 305.609375 190.347656 304.832031 187.972656 305.089844 185.589844 C 305.621094 180.410156 309.933594 176.445312 315.140625 176.351562 C 317.527344 176.316406 319.816406 177.308594 321.421875 179.074219 C 323.027344 180.84375 323.792969 183.214844 323.53125 185.589844 Z M 323.53125 185.589844 "/>
<path style=" stroke:none;fill-rule:nonzero;fill:rgb(100%,100%,100%);fill-opacity:1;" d="M 318.597656 181.703125 C 316.507812 179.515625 312.875 179.597656 310.484375 181.882812 C 308.09375 184.171875 307.851562 187.796875 309.945312 189.984375 C 312.035156 192.171875 315.671875 192.089844 318.0625 189.800781 C 320.449219 187.515625 320.691406 183.886719 318.597656 181.703125 Z M 318.597656 181.703125 "/>
<path style=" stroke:none;fill-rule:nonzero;fill:rgb(25.098039%,48.235294%,100%);fill-opacity:1;" d="M 316.109375 184.039062 C 315.21875 183.109375 313.671875 183.144531 312.65625 184.117188 C 311.640625 185.089844 311.535156 186.632812 312.425781 187.5625 C 313.316406 188.492188 314.859375 188.457031 315.878906 187.484375 C 316.894531 186.511719 317 184.96875 316.109375 184.039062 Z M 316.109375 184.039062 "/>
<path style=" stroke:none;fill-rule:nonzero;fill:rgb(25.098039%,48.235294%,100%);fill-opacity:1;" d="M 323.261719 80 C 306.449219 80 291.621094 93.628906 290.148438 110.441406 C 288.679688 127.25 315.378906 170 315.378906 170 C 315.378906 170 349.570312 127.21875 351 110.398438 C 352.429688 93.578125 340.078125 80 323.261719 80 Z M 319.589844 125 C 315.855469 125.066406 312.277344 123.523438 309.761719 120.765625 C 307.242188 118.007812 306.035156 114.300781 306.441406 110.589844 C 307.277344 102.523438 314 96.347656 322.109375 96.199219 C 325.847656 96.132812 329.429688 97.675781 331.949219 100.433594 C 334.46875 103.195312 335.679688 106.90625 335.269531 110.621094 C 334.425781 118.6875 327.699219 124.855469 319.589844 125 Z M 319.589844 125 "/>
<path style=" stroke:none;fill-rule:nonzero;fill:rgb(71.372549%,35.686275%,32.156863%);fill-opacity:1;" d="M 158.570312 189.25 L 156.511719 191.628906 C 155.820312 192.460938 155.128906 193.289062 154.511719 194.140625 C 153.171875 195.820312 151.828125 197.511719 150.511719 199.238281 C 147.988281 202.585938 145.753906 206.136719 143.828125 209.859375 L 143.300781 210.941406 L 143.121094 211.339844 L 142.980469 211.890625 C 142.78125 212.789062 142.648438 213.703125 142.578125 214.621094 C 142.4375 216.707031 142.402344 218.800781 142.480469 220.890625 C 142.601562 225.210938 142.941406 229.691406 143.300781 234.078125 L 138.390625 235.21875 C 136.832031 230.816406 135.628906 226.296875 134.789062 221.699219 C 134.359375 219.308594 134.089844 216.894531 133.980469 214.46875 C 133.925781 213.136719 133.972656 211.796875 134.121094 210.46875 C 134.121094 210.109375 134.210938 209.75 134.300781 209.359375 C 134.390625 208.96875 134.46875 208.578125 134.578125 208.171875 L 134.78125 207.53125 L 134.890625 207.199219 L 135 207 L 135.339844 206.128906 C 136.242188 203.847656 137.300781 201.628906 138.511719 199.488281 C 139.640625 197.386719 140.890625 195.351562 142.25 193.390625 C 143.578125 191.390625 144.980469 189.558594 146.460938 187.691406 C 147.191406 186.769531 147.929688 185.878906 148.710938 184.96875 C 149.488281 184.058594 150.191406 183.210938 151.128906 182.28125 Z M 158.570312 189.25 "/>
<path style=" stroke:none;fill-rule:nonzero;fill:rgb(70.980392%,35.686275%,32.156863%);fill-opacity:1;" d="M 138.050781 233.628906 C 137.148438 236.761719 139.449219 239.820312 139.449219 239.820312 L 146.101562 235.890625 L 142.699219 232.238281 Z M 138.050781 233.628906 "/>
<path style=" stroke:none;fill-rule:nonzero;fill:rgb(70.980392%,35.686275%,32.156863%);fill-opacity:1;" d="M 146.109375 235.890625 L 139.460938 239.808594 L 144.058594 243.558594 L 150.53125 241.289062 Z M 146.109375 235.890625 "/>
<path style=" stroke:none;fill-rule:nonzero;fill:rgb(14.901961%,19.607843%,21.960784%);fill-opacity:1;" d="M 175.921875 153.230469 C 176.28125 153.230469 176.589844 153.621094 176.609375 154.160156 C 176.628906 154.699219 176.378906 155.160156 176.019531 155.160156 C 175.578125 155.082031 175.277344 154.675781 175.328125 154.230469 C 175.308594 153.691406 175.570312 153.230469 175.921875 153.230469 Z M 175.921875 153.230469 "/>
<path style=" stroke:none;fill-rule:nonzero;fill:rgb(62.745098%,15.294118%,14.117647%);fill-opacity:1;" d="M 175.410156 160.320312 C 176.308594 160.515625 177.246094 160.296875 177.96875 159.730469 C 176.835938 158.351562 175.894531 156.828125 175.171875 155.199219 Z M 175.410156 160.320312 "/>
<path style=" stroke:none;fill-rule:nonzero;fill:rgb(14.901961%,19.607843%,21.960784%);fill-opacity:1;" d="M 173.359375 151.238281 C 173.980469 150.71875 174.816406 150.53125 175.601562 150.738281 C 175.769531 150.792969 175.949219 150.699219 176 150.53125 C 176.050781 150.363281 175.957031 150.183594 175.789062 150.128906 C 174.8125 149.871094 173.769531 150.097656 172.988281 150.738281 C 172.929688 150.796875 172.898438 150.878906 172.898438 150.960938 C 172.898438 151.042969 172.929688 151.121094 172.988281 151.179688 C 173.039062 151.246094 173.109375 151.292969 173.191406 151.308594 C 173.25 151.300781 173.308594 151.277344 173.359375 151.238281 Z M 173.359375 151.238281 "/>
<path style=" stroke:none;fill-rule:nonzero;fill:rgb(70.980392%,35.686275%,32.156863%);fill-opacity:1;" d="M 169.378906 167.75 C 168.480469 171.570312 168.511719 176.328125 172.699219 177.621094 C 172.699219 177.621094 177.96875 182 167.929688 182 C 158.78125 182 157.378906 177 157.378906 177 C 160.769531 173.71875 160.109375 166.910156 159.078125 162 Z M 169.378906 167.75 "/>
<path style=" stroke:none;fill-rule:nonzero;fill:rgb(25.098039%,48.235294%,100%);fill-opacity:1;" d="M 178.308594 408.050781 C 178.246094 408.035156 178.195312 407.984375 178.179688 407.921875 C 178.171875 407.851562 178.207031 407.785156 178.269531 407.761719 C 178.359375 407.699219 180.691406 406.359375 181.820312 406.660156 C 182.03125 406.714844 182.210938 406.851562 182.320312 407.039062 C 182.46875 407.25 182.46875 407.53125 182.320312 407.738281 C 182.039062 408.121094 181.210938 408.238281 180.320312 408.238281 C 179.644531 408.234375 178.972656 408.171875 178.308594 408.050781 Z M 181.390625 406.929688 C 180.46875 407.039062 179.574219 407.324219 178.761719 407.769531 C 180.011719 407.949219 181.761719 407.941406 182.019531 407.511719 C 182.101562 407.460938 182.128906 407.351562 182.019531 407.160156 C 181.949219 407.042969 181.832031 406.960938 181.699219 406.929688 Z M 181.390625 406.929688 "/>
<path style=" stroke:none;fill-rule:nonzero;fill:rgb(25.098039%,48.235294%,100%);fill-opacity:1;" d="M 178.171875 408 C 178.132812 407.960938 178.109375 407.90625 178.109375 407.851562 C 178.164062 406.902344 178.515625 406 179.109375 405.261719 C 179.363281 405.039062 179.707031 404.9375 180.039062 404.988281 C 180.46875 405.039062 180.640625 405.261719 180.640625 405.441406 C 180.769531 406.191406 179.179688 407.648438 178.371094 408.011719 L 178.300781 408.011719 C 178.257812 408.023438 178.210938 408.019531 178.171875 408 Z M 179.921875 405.289062 C 179.71875 405.289062 179.523438 405.359375 179.371094 405.488281 C 178.878906 406.078125 178.582031 406.800781 178.511719 407.558594 C 179.328125 407.058594 180.410156 405.921875 180.328125 405.460938 C 180.328125 405.460938 180.328125 405.289062 180.019531 405.289062 Z M 179.921875 405.289062 "/>
<path style=" stroke:none;fill-rule:nonzero;fill:rgb(70.980392%,35.686275%,32.156863%);fill-opacity:1;" d="M 171.109375 392.339844 L 177.839844 392.339844 L 177.371094 407.898438 L 170.648438 407.898438 Z M 171.109375 392.339844 "/>
<path style=" stroke:none;fill-rule:nonzero;fill:rgb(14.901961%,19.607843%,21.960784%);fill-opacity:1;" d="M 179.21875 407.640625 C 183.800781 410.449219 187.21875 410.570312 192.449219 411.71875 C 193.609375 411.960938 192.878906 414.71875 190.128906 414.71875 C 185.558594 414.71875 183.128906 414.511719 179.21875 414.511719 C 175.878906 414.511719 172.058594 414.699219 169.421875 414.699219 C 169.34375 414.710938 169.265625 414.710938 169.191406 414.699219 C 168.660156 414.582031 168.324219 414.0625 168.429688 413.53125 L 169.679688 407.53125 C 169.742188 407.261719 169.976562 407.074219 170.25 407.070312 L 177.589844 407.070312 C 178.175781 407.105469 178.742188 407.300781 179.21875 407.640625 Z M 179.21875 407.640625 "/>
<path style=" stroke:none;fill-rule:nonzero;fill:rgb(25.098039%,48.235294%,100%);fill-opacity:1;" d="M 159.398438 193.910156 C 157.1875 198.386719 153.628906 202.054688 149.21875 204.398438 L 139.21875 194.230469 C 139.21875 194.230469 148.21875 177.890625 154.671875 177.808594 C 161.269531 177.75 163.210938 186.140625 159.398438 193.910156 Z M 159.398438 193.910156 "/>
<use xlink:href="#surface23" mask="url(#mask6)"/>
<path style=" stroke:none;fill-rule:nonzero;fill:rgb(25.098039%,48.235294%,100%);fill-opacity:1;" d="M 177.480469 177.699219 C 176.011719 177.441406 174.339844 177.191406 172.660156 177.039062 C 167.570312 176.75 162.46875 176.75 157.378906 177.039062 L 157 177.039062 C 156.730469 177.039062 156.449219 177.039062 156.179688 177.109375 C 150.441406 177.875 146.410156 183.152344 147.179688 188.890625 C 150.261719 211.300781 147.941406 232.179688 148.179688 236.960938 L 184.121094 236.960938 C 187.730469 207.441406 186.679688 192.519531 185.210938 185.261719 C 184.421875 181.394531 181.359375 178.402344 177.480469 177.699219 Z M 177.480469 177.699219 "/>
<use xlink:href="#surface26" mask="url(#mask7)"/>
<use xlink:href="#surface29" mask="url(#mask8)"/>
<use xlink:href="#surface32" mask="url(#mask9)"/>
<path style=" stroke:none;fill-rule:nonzero;fill:rgb(70.980392%,35.686275%,32.156863%);fill-opacity:1;" d="M 176.230469 162.5 C 176.082031 163.277344 175.839844 164.03125 175.511719 164.75 C 174.238281 167.488281 171.691406 169.414062 168.710938 169.890625 C 166.128906 170.285156 163.511719 169.457031 161.628906 167.648438 C 158.089844 164.378906 157.980469 160.449219 157.210938 153.820312 C 156.820312 150.710938 158.074219 147.621094 160.523438 145.667969 C 162.972656 143.710938 166.265625 143.171875 169.210938 144.238281 C 175.898438 146.621094 177.339844 156.46875 176.230469 162.5 Z M 176.230469 162.5 "/>
<path style=" stroke:none;fill-rule:nonzero;fill:rgb(25.098039%,48.235294%,100%);fill-opacity:1;" d="M 150.429688 154.050781 C 148.53125 158.929688 146.609375 163.839844 143.578125 168.191406 C 144.136719 167.671875 144.789062 167.269531 145.5 167 C 146.230469 166.601562 147.113281 166.601562 147.839844 167 C 148.191406 167.21875 148.441406 167.558594 148.789062 167.78125 C 149.65625 168.207031 150.691406 168.074219 151.421875 167.441406 C 152.082031 166.816406 152.597656 166.054688 152.929688 165.210938 C 153.289062 164.449219 154.28125 164.808594 154.820312 165.460938 C 153.878906 161.511719 153.542969 157.441406 153.820312 153.390625 C 153.199219 152.789062 152.332031 152.515625 151.480469 152.648438 C 150.769531 152.71875 150.671875 153.441406 150.429688 154.050781 Z M 150.429688 154.050781 "/>
<use xlink:href="#surface35" mask="url(#mask10)"/>
<use xlink:href="#surface38" mask="url(#mask11)"/>
<path style=" stroke:none;fill-rule:nonzero;fill:rgb(14.901961%,19.607843%,21.960784%);fill-opacity:1;" d="M 172.859375 141.898438 C 172.339844 140.164062 170.757812 138.964844 168.945312 138.929688 C 167.132812 138.894531 165.507812 140.035156 164.921875 141.75 C 162.460938 140.539062 159.21875 140.398438 156.980469 141.980469 C 146.261719 149.5 151.070312 155.320312 152.550781 154.359375 C 149.441406 159.53125 152.488281 160.71875 153.789062 160.519531 C 152.910156 160.800781 152.148438 163.039062 153.929688 165.199219 C 159.171875 171.550781 165.730469 170.71875 169.199219 165.890625 C 170.691406 166.980469 172.820312 165.191406 172.949219 163.351562 C 173.078125 161.511719 172.089844 159.820312 171.589844 158.050781 C 171.089844 156.28125 170.230469 154.199219 171.921875 153.460938 C 172.429688 154.148438 173 155.460938 173.519531 156.121094 C 173.96875 154.730469 174.898438 152.308594 174.230469 151.011719 C 180.519531 143.671875 172.859375 141.898438 172.859375 141.898438 Z M 172.859375 141.898438 "/>
<path style=" stroke:none;fill-rule:nonzero;fill:rgb(70.980392%,35.686275%,32.156863%);fill-opacity:1;" d="M 171.921875 153.460938 C 173.761719 154.289062 174.460938 157.179688 174.339844 158.960938 C 174.21875 160.960938 172.769531 162.019531 171.191406 160.5 C 170.003906 159.332031 169.226562 157.808594 168.980469 156.160156 C 168.730469 154.179688 170.070312 152.640625 171.921875 153.460938 Z M 171.921875 153.460938 "/>
<path style=" stroke:none;fill-rule:nonzero;fill:rgb(70.980392%,35.686275%,32.156863%);fill-opacity:1;" d="M 119.539062 384.039062 L 125.519531 386.179688 L 119.578125 401.558594 L 113.601562 399.421875 Z M 119.539062 384.039062 "/>
<path style=" stroke:none;fill-rule:nonzero;fill:rgb(25.098039%,48.235294%,100%);fill-opacity:1;" d="M 120.710938 401.121094 C 120.671875 401.0625 120.671875 400.988281 120.710938 400.929688 C 120.742188 400.871094 120.8125 400.835938 120.878906 400.851562 C 120.988281 400.851562 123.640625 401.261719 124.339844 402.191406 C 124.480469 402.359375 124.539062 402.582031 124.511719 402.800781 C 124.496094 403.050781 124.335938 403.273438 124.101562 403.359375 C 123.394531 403.335938 122.722656 403.035156 122.230469 402.53125 C 121.679688 402.109375 121.171875 401.636719 120.710938 401.121094 Z M 121.269531 401.25 C 122.128906 402.160156 123.488281 403.199219 124 403.050781 C 124.058594 403.050781 124.179688 402.96875 124.179688 402.75 C 124.199219 402.621094 124.160156 402.492188 124.078125 402.390625 C 124.019531 402.300781 123.945312 402.222656 123.859375 402.160156 C 123.0625 401.691406 122.183594 401.382812 121.269531 401.25 Z M 121.269531 401.25 "/>
<path style=" stroke:none;fill-rule:nonzero;fill:rgb(25.098039%,48.235294%,100%);fill-opacity:1;" d="M 120.730469 401 C 120.699219 400.953125 120.699219 400.894531 120.730469 400.851562 C 120.730469 400.800781 122.019531 399.441406 123.121094 399.441406 C 123.4375 399.429688 123.75 399.550781 123.980469 399.769531 C 124.289062 400.078125 124.261719 400.328125 124.171875 400.488281 C 123.808594 401.171875 121.660156 401.328125 120.800781 401.109375 C 120.753906 401.09375 120.726562 401.046875 120.730469 401 Z M 123.128906 399.789062 C 122.363281 399.929688 121.660156 400.316406 121.128906 400.890625 C 122.128906 401 123.640625 400.769531 123.851562 400.371094 C 123.851562 400.371094 123.929688 400.230469 123.71875 400.03125 C 123.703125 400.003906 123.679688 399.980469 123.648438 399.96875 C 123.5 399.859375 123.316406 399.800781 123.128906 399.808594 Z M 123.128906 399.789062 "/>
<path style=" stroke:none;fill-rule:nonzero;fill:rgb(14.901961%,19.607843%,21.960784%);fill-opacity:1;" d="M 121.660156 401.359375 C 122.070312 404.109375 122.730469 406.679688 125.851562 411 C 126.539062 411.941406 124.019531 413.46875 121.960938 411.601562 C 118.550781 408.601562 120.808594 410.300781 117.960938 407.710938 C 115.46875 405.5 111.398438 402.21875 109.289062 400.621094 C 109.214844 400.5625 109.148438 400.496094 109.089844 400.421875 C 108.785156 400.003906 108.875 399.421875 109.289062 399.121094 L 114.289062 395.378906 C 114.511719 395.210938 114.816406 395.210938 115.039062 395.378906 L 120.808594 399.921875 C 121.269531 400.273438 121.570312 400.789062 121.660156 401.359375 Z M 121.660156 401.359375 "/>
<path style=" stroke:none;fill-rule:nonzero;fill:rgb(70.980392%,35.686275%,32.156863%);fill-opacity:1;" d="M 218.308594 194.648438 L 216.640625 191.058594 L 209.5 195.46875 C 209.5 195.46875 211.851562 200.28125 216.730469 199.761719 L 217.820312 198.449219 C 218.703125 197.382812 218.894531 195.90625 218.308594 194.648438 Z M 218.308594 194.648438 "/>
<path style=" stroke:none;fill-rule:nonzero;fill:rgb(70.980392%,35.686275%,32.156863%);fill-opacity:1;" d="M 209.929688 189.519531 L 208.328125 190.898438 C 207.371094 191.730469 207.261719 193.179688 208.089844 194.140625 L 208.261719 194.320312 L 209.5 195.46875 L 216.640625 191.058594 L 212.359375 189.191406 C 211.554688 188.832031 210.613281 188.957031 209.929688 189.519531 Z M 209.929688 189.519531 "/>
<path style=" stroke:none;fill-rule:nonzero;fill:rgb(14.901961%,19.607843%,21.960784%);fill-opacity:1;" d="M 212.621094 199.238281 L 204.800781 199.238281 C 204.636719 199.246094 204.480469 199.175781 204.371094 199.054688 C 204.261719 198.933594 204.210938 198.773438 204.230469 198.609375 L 205.691406 181.859375 C 205.726562 181.503906 206.023438 181.234375 206.378906 181.230469 L 214.199219 181.230469 C 214.363281 181.226562 214.519531 181.292969 214.628906 181.414062 C 214.738281 181.535156 214.789062 181.699219 214.769531 181.859375 L 213.308594 198.609375 C 213.273438 198.964844 212.976562 199.238281 212.621094 199.238281 Z M 212.621094 199.238281 "/>
<path style=" stroke:none;fill-rule:nonzero;fill:rgb(25.098039%,48.235294%,100%);fill-opacity:1;" d="M 212.398438 198.199219 L 205 198.199219 L 206.421875 181.949219 L 213.820312 181.949219 Z M 212.398438 198.199219 "/>
<path style=" stroke:none;fill-rule:nonzero;fill:rgb(14.901961%,19.607843%,21.960784%);fill-opacity:1;" d="M 211.589844 182.210938 L 208.269531 182.210938 L 208.160156 181.640625 L 211.769531 181.640625 Z M 211.589844 182.210938 "/>
<use xlink:href="#surface41" mask="url(#mask12)"/>
<path style=" stroke:none;fill-rule:nonzero;fill:rgb(25.098039%,48.235294%,100%);fill-opacity:1;" d="M 148.21875 237 C 148.21875 237 138.820312 286.761719 135.730469 309.320312 C 127.25 336.621094 115.648438 386.671875 115.648438 386.671875 L 126.5 392.550781 C 126.5 392.550781 151.238281 328.761719 155.910156 307.78125 C 160.199219 288.621094 171.410156 237 171.410156 237 Z M 148.21875 237 "/>
<use xlink:href="#surface44" mask="url(#mask13)"/>
<path style=" stroke:none;fill-rule:nonzero;fill:rgb(25.098039%,48.235294%,100%);fill-opacity:1;" d="M 160.53125 237 C 160.53125 237 165.210938 286.539062 166.058594 309.371094 C 166.828125 330.300781 168.691406 398.851562 168.691406 398.851562 L 180.078125 398.851562 C 180.078125 398.851562 186.078125 329.058594 186.550781 307.730469 C 187 287.199219 184.160156 237 184.160156 237 Z M 160.53125 237 "/>
<path style=" stroke:none;fill-rule:nonzero;fill:rgb(14.901961%,19.607843%,21.960784%);fill-opacity:1;" d="M 148.21875 237 C 148.21875 237 138.820312 286.761719 135.730469 309.320312 C 127.25 336.621094 115.648438 386.671875 115.648438 386.671875 L 126.5 392.550781 C 126.5 392.550781 151.238281 328.761719 155.910156 307.78125 C 160.199219 288.621094 171.410156 237 171.410156 237 Z M 148.21875 237 "/>
<path style=" stroke:none;fill-rule:nonzero;fill:rgb(14.901961%,19.607843%,21.960784%);fill-opacity:1;" d="M 160.53125 237 C 160.53125 237 165.210938 286.539062 166.058594 309.371094 C 166.828125 330.300781 168.691406 398.851562 168.691406 398.851562 L 180.078125 398.851562 C 180.078125 398.851562 186.078125 329.058594 186.550781 307.730469 C 187 287.199219 184.160156 237 184.160156 237 Z M 160.53125 237 "/>
<path style=" stroke:none;fill-rule:nonzero;fill:rgb(71.372549%,35.686275%,32.156863%);fill-opacity:1;" d="M 182 184.691406 C 183.644531 186.957031 185.402344 189.140625 187.269531 191.230469 C 189.128906 193.328125 191.058594 195.371094 193.109375 197.378906 C 195.160156 199.390625 197.230469 201.289062 199.511719 203.378906 L 198.121094 202.519531 C 198.386719 202.683594 198.695312 202.765625 199.011719 202.761719 C 199.605469 202.773438 200.195312 202.703125 200.769531 202.550781 C 202.320312 202.117188 203.816406 201.511719 205.230469 200.738281 C 206.816406 199.886719 208.355469 198.949219 209.839844 197.929688 C 211.378906 196.929688 212.921875 195.789062 214.351562 194.71875 L 218.039062 198.171875 C 217.398438 199.058594 216.78125 199.839844 216.121094 200.609375 C 215.460938 201.378906 214.78125 202.171875 214.070312 202.898438 C 212.621094 204.421875 211.0625 205.832031 209.398438 207.121094 C 207.605469 208.53125 205.632812 209.699219 203.53125 210.589844 C 202.273438 211.085938 200.960938 211.421875 199.621094 211.589844 C 197.992188 211.792969 196.34375 211.609375 194.800781 211.058594 L 194.160156 210.839844 L 193.390625 210.199219 C 191.230469 208.421875 188.820312 206.46875 186.511719 204.441406 C 184.199219 202.410156 181.949219 200.25 179.820312 197.980469 C 177.667969 195.703125 175.644531 193.304688 173.761719 190.800781 C 171.890625 188.25 180.398438 182.421875 182 184.691406 Z M 182 184.691406 "/>
<path style=" stroke:none;fill-rule:nonzero;fill:rgb(25.098039%,48.235294%,100%);fill-opacity:1;" d="M 183.371094 180.421875 C 190.511719 185.800781 195.808594 197.179688 195.808594 197.179688 L 181.421875 205.070312 C 181.421875 205.070312 170.339844 196.988281 169.691406 187.328125 C 169.210938 180 174.550781 173.808594 183.371094 180.421875 Z M 183.371094 180.421875 "/>
<use xlink:href="#surface47" mask="url(#mask14)"/>
<path style=" stroke:none;fill-rule:nonzero;fill:rgb(14.901961%,19.607843%,21.960784%);fill-opacity:1;" d="M 169.960938 403.871094 L 177.671875 403.871094 C 178.527344 403.871094 179.21875 404.5625 179.21875 405.421875 L 179.21875 406.089844 C 179.21875 406.945312 178.527344 407.640625 177.671875 407.640625 L 169.960938 407.640625 C 169.105469 407.640625 168.410156 406.945312 168.410156 406.089844 L 168.410156 405.421875 C 168.410156 404.5625 169.105469 403.871094 169.960938 403.871094 Z M 169.960938 403.871094 "/>
<path style=" stroke:none;fill-rule:nonzero;fill:rgb(14.901961%,19.607843%,21.960784%);fill-opacity:1;" d="M 116.433594 392.839844 L 122.664062 397.382812 C 123.355469 397.886719 123.507812 398.855469 123.003906 399.546875 L 122.609375 400.089844 C 122.105469 400.78125 121.136719 400.933594 120.445312 400.429688 L 114.214844 395.886719 C 113.519531 395.382812 113.371094 394.414062 113.875 393.722656 L 114.269531 393.179688 C 114.773438 392.488281 115.742188 392.335938 116.433594 392.839844 Z M 116.433594 392.839844 "/>
<path style=" stroke:none;fill-rule:nonzero;fill:rgb(25.098039%,48.235294%,100%);fill-opacity:1;" d="M 153.371094 176.929688 C 145.761719 182.128906 140.46875 190.191406 137.058594 198.75 C 133.648438 207.308594 131.980469 216.460938 130.320312 225.519531 C 135.089844 228.273438 140.625 229.394531 146.089844 228.710938 C 147.800781 232.128906 147.480469 236.25 146.320312 239.890625 C 145.160156 243.53125 143.25 246.890625 141.761719 250.410156 C 137.421875 260.730469 136.941406 272.191406 135.128906 283.25 C 130.128906 313.839844 114.019531 338.25 90.539062 358.488281 C 94.011719 364.488281 100.890625 368.488281 107.71875 369.539062 C 114.550781 370.589844 121.5 369.699219 128.390625 369.421875 C 135.28125 369.140625 142.480469 369.5 148.601562 372.679688 C 154.28125 375.628906 158.601562 380.789062 164.320312 383.679688 C 172.511719 387.800781 182.25 386.679688 191.320312 385.460938 C 198.671875 329.578125 197.980469 276.601562 190.101562 220.789062 C 189.851562 219 189.339844 217.160156 188.960938 215.390625 C 195.171875 219.261719 204.289062 217.5 208.820312 211.75 C 212.988281 206.449219 207.820312 197.898438 202.699219 193.53125 L 203.699219 193.878906 C 202.699219 195.789062 198.449219 194.621094 197.050781 192.988281 C 195.648438 191.359375 195.328125 189.089844 194.691406 187.039062 C 191.882812 178.851562 183.679688 173.789062 175.101562 174.949219 C 168.320312 172.738281 159.269531 172.890625 153.371094 176.929688 Z M 153.371094 176.929688 "/>
<use xlink:href="#surface50" mask="url(#mask15)"/>
<use xlink:href="#surface53" mask="url(#mask16)"/>
<use xlink:href="#surface56" mask="url(#mask17)"/>
<use xlink:href="#surface59" mask="url(#mask18)"/>
<use xlink:href="#surface62" mask="url(#mask19)"/>
<use xlink:href="#surface65" mask="url(#mask20)"/>
<path style=" stroke:none;fill-rule:nonzero;fill:rgb(25.098039%,48.235294%,100%);fill-opacity:1;" d="M 151.351562 142.609375 C 149.429688 143.148438 147.820312 144.464844 146.910156 146.238281 C 146.023438 148.035156 146.023438 150.136719 146.910156 151.929688 C 147.824219 153.710938 149.585938 154.902344 151.578125 155.089844 C 151.578125 155.089844 151.25 155.089844 151.25 155.089844 C 159.410156 155.546875 167.578125 154.324219 175.25 151.5 C 175.992188 150.515625 176.5625 149.414062 176.941406 148.238281 C 177.296875 147.207031 177.445312 146.109375 177.371094 145.019531 C 177.160156 143.621094 176.730469 142.265625 176.101562 141 C 175.84375 140.464844 175.453125 140.003906 174.96875 139.660156 C 172.800781 138.21875 169.96875 141.339844 167.558594 142.199219 C 165.523438 142.769531 163.402344 142.945312 161.300781 142.71875 C 158.050781 142.558594 154.480469 141.730469 151.351562 142.609375 Z M 151.351562 142.609375 "/>
<path style=" stroke:none;fill-rule:nonzero;fill:rgb(25.098039%,48.235294%,100%);fill-opacity:1;" d="M 162.398438 138.191406 C 165.683594 137.492188 169.109375 138.070312 171.980469 139.808594 C 172.648438 140.230469 173.328125 140.859375 173.28125 141.640625 C 173.230469 142.421875 172.488281 142.96875 171.800781 143.339844 C 167.007812 145.9375 161.394531 146.574219 156.140625 145.121094 C 155.464844 144.964844 154.828125 144.675781 154.269531 144.269531 C 152.269531 142.640625 155.421875 141.21875 156.730469 140.429688 C 158.476562 139.359375 160.394531 138.601562 162.398438 138.191406 Z M 162.398438 138.191406 "/>
<use xlink:href="#surface68" mask="url(#mask21)"/>
<use xlink:href="#surface71" mask="url(#mask22)"/>
<use xlink:href="#surface74" mask="url(#mask23)"/>
<path style=" stroke:none;fill-rule:nonzero;fill:rgb(25.098039%,48.235294%,100%);fill-opacity:1;" d="M 328.441406 371.839844 C 325.769531 359.160156 315.570312 351.46875 305.179688 343.738281 C 311.5 354.578125 318.941406 364.511719 322.269531 376.609375 C 317.703125 370.179688 311.886719 364.738281 305.171875 360.609375 C 305.171875 360.609375 314.769531 379.25 318.441406 382.859375 C 310.441406 374.980469 301.441406 370.101562 290.320312 368.53125 C 310.441406 381.890625 317.601562 394.410156 320.320312 401.828125 C 321.671875 405.410156 325.113281 407.761719 328.941406 407.730469 L 350.238281 407.578125 C 354.046875 407.535156 357.429688 405.148438 358.75 401.578125 C 362.46875 391.578125 368.960938 382.921875 378.601562 377.980469 C 370.5 380.238281 363.679688 381.890625 358.808594 388.75 C 361.808594 378.75 366.988281 372.921875 376.570312 368.691406 C 367.671875 370.128906 358.890625 373.429688 355.261719 381.691406 C 356.320312 371.589844 360.460938 364.238281 368.5 358.039062 C 360.878906 359.191406 353.558594 364.621094 352.101562 372.191406 C 351.839844 362.101562 352.921875 351.941406 358.429688 343.488281 C 350.972656 348.441406 345.953125 356.316406 344.621094 365.171875 C 342.25 356.480469 341.070312 343.769531 330.949219 332.398438 C 336.679688 349.5 334.519531 363.089844 334.519531 363.089844 C 333.660156 357.800781 325.71875 344.339844 318.140625 339.429688 C 318.171875 339.398438 329.238281 359.121094 328.441406 371.839844 Z M 328.441406 371.839844 "/>
<path style=" stroke:none;fill-rule:nonzero;fill:rgb(25.098039%,48.235294%,100%);fill-opacity:1;" d="M 307.511719 393.449219 C 311.183594 395.292969 314.453125 397.84375 317.128906 400.960938 C 313.910156 400.363281 310.597656 400.519531 307.449219 401.421875 L 319.199219 403 C 316.617188 403.320312 314.234375 404.550781 312.480469 406.46875 C 315.667969 405.511719 319.046875 405.355469 322.308594 406.019531 C 323.476562 406.351562 324.6875 406.515625 325.898438 406.511719 C 327.144531 406.488281 328.253906 405.71875 328.710938 404.558594 C 328.890625 403.558594 328.660156 402.527344 328.070312 401.699219 C 324 394.71875 314.851562 393.648438 307.511719 393.449219 Z M 307.511719 393.449219 "/>
<path style=" stroke:none;fill-rule:nonzero;fill:rgb(25.098039%,48.235294%,100%);fill-opacity:1;" d="M 367.550781 394.871094 C 364.675781 397.515625 361.378906 399.664062 357.800781 401.230469 C 361.539062 400.664062 365.359375 400.898438 369 401.921875 C 365.832031 403.210938 362.414062 403.773438 359 403.570312 C 361.183594 404.042969 363.246094 404.957031 365.058594 406.261719 L 351.390625 407.578125 C 350.90625 406.261719 351.035156 404.796875 351.738281 403.578125 C 354.339844 399.148438 362.921875 396.210938 367.550781 394.871094 Z M 367.550781 394.871094 "/>
<use xlink:href="#surface77" mask="url(#mask24)"/>
</g>
</svg>
