<?xml version="1.0" encoding="UTF-8"?>
<svg xmlns="http://www.w3.org/2000/svg" xmlns:xlink="http://www.w3.org/1999/xlink" width="500px" height="500px" viewBox="0 0 500 500" version="1.1">
<defs>
<filter id="alpha" filterUnits="objectBoundingBox" x="0%" y="0%" width="100%" height="100%">
  <feColorMatrix type="matrix" in="SourceGraphic" values="0 0 0 0 1 0 0 0 0 1 0 0 0 0 1 0 0 0 1 0"/>
</filter>
<mask id="mask0">
  <g filter="url(#alpha)">
<rect x="0" y="0" width="500" height="500" style="fill:rgb(0%,0%,0%);fill-opacity:0.2;stroke:none;"/>
  </g>
</mask>
<clipPath id="clip1">
  <rect x="0" y="0" width="500" height="500"/>
</clipPath>
<g id="surface5" clip-path="url(#clip1)">
<path style=" stroke:none;fill-rule:nonzero;fill:rgb(0%,0%,0%);fill-opacity:1;" d="M 175.089844 173.550781 C 175.257812 171.257812 176.511719 169.179688 178.460938 167.960938 L 197 157.261719 C 198.859375 156.191406 200.351562 156.941406 200.328125 158.941406 L 200.328125 162.570312 L 175.101562 177.199219 C 175.101562 177.199219 175.089844 175.570312 175.089844 173.550781 Z M 175.089844 173.550781 "/>
</g>
<mask id="mask1">
  <g filter="url(#alpha)">
<rect x="0" y="0" width="500" height="500" style="fill:rgb(0%,0%,0%);fill-opacity:0.4;stroke:none;"/>
  </g>
</mask>
<clipPath id="clip2">
  <rect x="0" y="0" width="500" height="500"/>
</clipPath>
<g id="surface8" clip-path="url(#clip2)">
<path style=" stroke:none;fill-rule:nonzero;fill:rgb(0%,0%,0%);fill-opacity:1;" d="M 176.050781 170.460938 C 175.453125 171.382812 175.105469 172.449219 175.050781 173.550781 L 175.050781 177.199219 L 171.898438 175.378906 L 171.898438 171.71875 C 171.941406 170.628906 172.269531 169.566406 172.851562 168.640625 Z M 176.050781 170.460938 "/>
</g>
<mask id="mask2">
  <g filter="url(#alpha)">
<rect x="0" y="0" width="500" height="500" style="fill:rgb(0%,0%,0%);fill-opacity:0.2;stroke:none;"/>
  </g>
</mask>
<clipPath id="clip3">
  <rect x="0" y="0" width="500" height="500"/>
</clipPath>
<g id="surface11" clip-path="url(#clip3)">
<path style=" stroke:none;fill-rule:nonzero;fill:rgb(0%,0%,0%);fill-opacity:1;" d="M 227.179688 212.230469 L 210 202.339844 C 209.308594 201.835938 208.394531 201.75 207.621094 202.109375 L 166.410156 225.921875 L 189.859375 319.539062 L 231 295.828125 C 231.703125 295.34375 232.085938 294.511719 232 293.660156 L 232 220.488281 C 231.800781 217.125 230.007812 214.058594 227.179688 212.230469 Z M 227.179688 212.230469 "/>
</g>
<mask id="mask3">
  <g filter="url(#alpha)">
<rect x="0" y="0" width="500" height="500" style="fill:rgb(0%,0%,0%);fill-opacity:0.4;stroke:none;"/>
  </g>
</mask>
<clipPath id="clip4">
  <rect x="0" y="0" width="500" height="500"/>
</clipPath>
<g id="surface14" clip-path="url(#clip4)">
<path style=" stroke:none;fill-rule:nonzero;fill:rgb(0%,0%,0%);fill-opacity:1;" d="M 169 308.609375 L 187.53125 319.308594 C 189.378906 320.371094 190.898438 319.5 190.898438 317.359375 L 190.898438 244.191406 C 190.710938 240.839844 188.941406 237.777344 186.128906 235.941406 L 169 226 C 167.140625 224.941406 165.628906 225.808594 165.628906 228 L 165.628906 302.78125 C 165.765625 305.148438 167.015625 307.308594 169 308.609375 Z M 169 308.609375 "/>
</g>
<mask id="mask4">
  <g filter="url(#alpha)">
<rect x="0" y="0" width="500" height="500" style="fill:rgb(0%,0%,0%);fill-opacity:0.301961;stroke:none;"/>
  </g>
</mask>
<clipPath id="clip5">
  <rect x="0" y="0" width="500" height="500"/>
</clipPath>
<g id="surface17" clip-path="url(#clip5)">
<path style=" stroke:none;fill-rule:nonzero;fill:rgb(72.941176%,40.784314%,78.431373%);fill-opacity:1;" d="M 229.921875 214.828125 L 188.859375 238.539062 C 188.140625 237.488281 187.207031 236.601562 186.121094 235.941406 L 169 226 C 168.351562 225.546875 167.523438 225.433594 166.78125 225.699219 L 207.671875 202.070312 C 208.445312 201.714844 209.355469 201.800781 210.050781 202.300781 L 227.191406 212.191406 C 228.273438 212.867188 229.207031 213.769531 229.921875 214.828125 Z M 229.921875 214.828125 "/>
</g>
<mask id="mask5">
  <g filter="url(#alpha)">
<rect x="0" y="0" width="500" height="500" style="fill:rgb(0%,0%,0%);fill-opacity:0.4;stroke:none;"/>
  </g>
</mask>
<clipPath id="clip6">
  <rect x="0" y="0" width="500" height="500"/>
</clipPath>
<g id="surface20" clip-path="url(#clip6)">
<path style=" stroke:none;fill-rule:nonzero;fill:rgb(0%,0%,0%);fill-opacity:1;" d="M 339.269531 74.800781 L 296.910156 54.800781 L 298.988281 53.699219 L 339.121094 60.371094 L 343.628906 58 C 344.59375 57.558594 345.707031 57.609375 346.628906 58.128906 C 347.441406 58.640625 347.429688 59.410156 346.628906 59.851562 L 343.859375 61.308594 L 359.390625 64.558594 Z M 339.269531 74.800781 "/>
</g>
<mask id="mask6">
  <g filter="url(#alpha)">
<rect x="0" y="0" width="500" height="500" style="fill:rgb(0%,0%,0%);fill-opacity:0.4;stroke:none;"/>
  </g>
</mask>
<clipPath id="clip7">
  <rect x="0" y="0" width="500" height="500"/>
</clipPath>
<g id="surface23" clip-path="url(#clip7)">
<path style=" stroke:none;fill-rule:nonzero;fill:rgb(0%,0%,0%);fill-opacity:1;" d="M 378.398438 79.421875 L 373.878906 81.800781 L 385.390625 108.449219 L 383.308594 109.550781 L 347.601562 79.550781 L 368.308594 69 L 372.691406 79 L 375.460938 77.539062 C 376.421875 77.09375 377.539062 77.144531 378.460938 77.671875 C 379.25 78.210938 379.230469 79 378.398438 79.421875 Z M 378.398438 79.421875 "/>
</g>
<mask id="mask7">
  <g filter="url(#alpha)">
<rect x="0" y="0" width="500" height="500" style="fill:rgb(0%,0%,0%);fill-opacity:0.2;stroke:none;"/>
  </g>
</mask>
<clipPath id="clip8">
  <rect x="0" y="0" width="500" height="500"/>
</clipPath>
<g id="surface26" clip-path="url(#clip8)">
<path style=" stroke:none;fill-rule:nonzero;fill:rgb(0%,0%,0%);fill-opacity:1;" d="M 108 130.371094 C 105.851562 128.648438 103.007812 128.074219 100.359375 128.820312 C 96.101562 130.171875 92.648438 133.878906 91.429688 143.738281 C 90.210938 153.601562 90.570312 183.921875 92.859375 190 C 95.148438 196.078125 103.558594 198.898438 113.671875 198.101562 C 123.78125 197.300781 139.238281 194.871094 144.078125 190 C 148.921875 185.128906 144.691406 137.609375 141.601562 129.828125 Z M 108 130.371094 "/>
</g>
<mask id="mask8">
  <g filter="url(#alpha)">
<rect x="0" y="0" width="500" height="500" style="fill:rgb(0%,0%,0%);fill-opacity:0.6;stroke:none;"/>
  </g>
</mask>
<clipPath id="clip9">
  <rect x="0" y="0" width="500" height="500"/>
</clipPath>
<g id="surface29" clip-path="url(#clip9)">
<path style=" stroke:none;fill-rule:nonzero;fill:rgb(100%,100%,100%);fill-opacity:1;" d="M 149.710938 191.109375 C 149.710938 191.109375 150.308594 228.191406 150.378906 234.699219 C 150.449219 241.210938 150.378906 253.699219 150.378906 260.089844 C 150.378906 260.089844 148.730469 262.871094 139.320312 262.859375 C 129.910156 262.851562 128.550781 260.25 128.550781 260.25 L 127.160156 230.25 L 124.570312 261.390625 C 120.722656 264.007812 115.964844 264.917969 111.421875 263.910156 C 103.671875 262.238281 102.53125 259.910156 102.53125 259.910156 L 104.050781 191.199219 Z M 149.710938 191.109375 "/>
</g>
<mask id="mask9">
  <g filter="url(#alpha)">
<rect x="0" y="0" width="500" height="500" style="fill:rgb(0%,0%,0%);fill-opacity:0.101961;stroke:none;"/>
  </g>
</mask>
<clipPath id="clip10">
  <rect x="0" y="0" width="500" height="500"/>
</clipPath>
<g id="surface32" clip-path="url(#clip10)">
<path style=" stroke:none;fill-rule:nonzero;fill:rgb(0%,0%,0%);fill-opacity:1;" d="M 127.160156 230.269531 L 128.539062 217.679688 C 128.539062 217.679688 135 216.109375 139.320312 212.859375 C 137.925781 214.546875 136.265625 216 134.410156 217.160156 C 131.789062 218.628906 130.539062 219.238281 130.539062 219.238281 L 128.648438 231.421875 L 128.320312 255.160156 Z M 127.160156 230.269531 "/>
</g>
<mask id="mask10">
  <g filter="url(#alpha)">
<rect x="0" y="0" width="500" height="500" style="fill:rgb(0%,0%,0%);fill-opacity:0.4;stroke:none;"/>
  </g>
</mask>
<clipPath id="clip11">
  <rect x="0" y="0" width="500" height="500"/>
</clipPath>
<g id="surface35" clip-path="url(#clip11)">
<path style=" stroke:none;fill-rule:nonzero;fill:rgb(0%,0%,0%);fill-opacity:1;" d="M 110.839844 129.550781 C 110.839844 129.550781 113.988281 136.410156 112.449219 148.941406 C 110.910156 161.46875 104.449219 172.75 104.449219 172.75 L 104.179688 180.199219 C 104.179688 180.199219 111.710938 174.871094 116.570312 162.089844 C 121.429688 149.308594 120.109375 135.910156 118.160156 128.578125 C 115.699219 127.789062 113.011719 128.144531 110.839844 129.550781 Z M 110.839844 129.550781 "/>
</g>
<mask id="mask11">
  <g filter="url(#alpha)">
<rect x="0" y="0" width="500" height="500" style="fill:rgb(0%,0%,0%);fill-opacity:0.4;stroke:none;"/>
  </g>
</mask>
<clipPath id="clip12">
  <rect x="0" y="0" width="500" height="500"/>
</clipPath>
<g id="surface38" clip-path="url(#clip12)">
<path style=" stroke:none;fill-rule:nonzero;fill:rgb(0%,0%,0%);fill-opacity:1;" d="M 134.210938 126.941406 C 138.628906 129.398438 150.410156 139.941406 150.078125 174.53125 C 150.078125 174.53125 155.441406 162.28125 152.078125 145.929688 C 149.421875 133.089844 144.820312 128.261719 141.601562 126.53125 C 141.570312 126.53125 136 124.859375 134.210938 126.941406 Z M 134.210938 126.941406 "/>
</g>
<mask id="mask12">
  <g filter="url(#alpha)">
<rect x="0" y="0" width="500" height="500" style="fill:rgb(0%,0%,0%);fill-opacity:0.0705882;stroke:none;"/>
  </g>
</mask>
<clipPath id="clip13">
  <rect x="0" y="0" width="500" height="500"/>
</clipPath>
<g id="surface41" clip-path="url(#clip13)">
<path style=" stroke:none;fill-rule:nonzero;fill:rgb(0%,0%,0%);fill-opacity:1;" d="M 283.058594 178.058594 C 278.058594 176.988281 267.351562 173.261719 264.058594 170.179688 C 266.589844 173.621094 270.898438 175.648438 269.421875 177.371094 C 269.101562 177.746094 268.839844 178.167969 268.648438 178.621094 C 271.21875 176.371094 284.171875 181.109375 287.75 180.890625 C 291.328125 180.671875 288 179.128906 283.058594 178.058594 Z M 283.058594 178.058594 "/>
</g>
<mask id="mask13">
  <g filter="url(#alpha)">
<rect x="0" y="0" width="500" height="500" style="fill:rgb(0%,0%,0%);fill-opacity:0.0705882;stroke:none;"/>
  </g>
</mask>
<clipPath id="clip14">
  <rect x="0" y="0" width="500" height="500"/>
</clipPath>
<g id="surface44" clip-path="url(#clip14)">
<path style=" stroke:none;fill-rule:nonzero;fill:rgb(0%,0%,0%);fill-opacity:1;" d="M 285.601562 168.808594 C 282.371094 165.808594 273.101562 152.398438 272.601562 148.46875 C 271.488281 152.351562 274.371094 156.46875 273.488281 157.789062 C 272.910156 158.679688 270.488281 158.421875 268.050781 158.851562 L 268 159 C 270.859375 159.789062 273.5625 161.058594 276 162.75 C 280.160156 165.640625 288.828125 171.800781 285.601562 168.808594 Z M 285.601562 168.808594 "/>
</g>
<mask id="mask14">
  <g filter="url(#alpha)">
<rect x="0" y="0" width="500" height="500" style="fill:rgb(0%,0%,0%);fill-opacity:0.101961;stroke:none;"/>
  </g>
</mask>
<clipPath id="clip15">
  <rect x="0" y="0" width="500" height="500"/>
</clipPath>
<g id="surface47" clip-path="url(#clip15)">
<path style=" stroke:none;fill-rule:nonzero;fill:rgb(0%,0%,0%);fill-opacity:1;" d="M 378.289062 248.921875 C 375.421875 253.351562 355.621094 258.671875 345.53125 252.570312 C 345.53125 252.570312 331.761719 276.398438 329.96875 296.671875 C 329.96875 296.671875 342.96875 311.328125 371.5 306.761719 C 392.339844 303.421875 398.980469 290.109375 398.980469 290.109375 C 396.96875 280.910156 393.492188 272.09375 388.679688 264 C 385.851562 259.289062 379.761719 253.320312 378.289062 248.921875 Z M 378.289062 248.921875 "/>
</g>
<mask id="mask15">
  <g filter="url(#alpha)">
<rect x="0" y="0" width="500" height="500" style="fill:rgb(0%,0%,0%);fill-opacity:0.2;stroke:none;"/>
  </g>
</mask>
<clipPath id="clip16">
  <rect x="0" y="0" width="500" height="500"/>
</clipPath>
<g id="surface50" clip-path="url(#clip16)">
<path style=" stroke:none;fill-rule:nonzero;fill:rgb(0%,0%,0%);fill-opacity:1;" d="M 385.371094 303.671875 L 383.371094 303.300781 C 383.371094 303.300781 380.460938 276.699219 368.671875 253.800781 L 370.019531 253.410156 C 370.019531 253.410156 378.648438 267.789062 383.371094 281.828125 C 388.089844 295.871094 385.371094 303.671875 385.371094 303.671875 Z M 385.371094 303.671875 "/>
</g>
<mask id="mask16">
  <g filter="url(#alpha)">
<rect x="0" y="0" width="500" height="500" style="fill:rgb(0%,0%,0%);fill-opacity:0.2;stroke:none;"/>
  </g>
</mask>
<clipPath id="clip17">
  <rect x="0" y="0" width="500" height="500"/>
</clipPath>
<g id="surface53" clip-path="url(#clip17)">
<path style=" stroke:none;fill-rule:nonzero;fill:rgb(0%,0%,0%);fill-opacity:1;" d="M 352.738281 309.410156 L 354.140625 307.261719 C 354.140625 307.261719 352.300781 269.941406 355.351562 255.261719 L 354.351562 255.191406 C 354.351562 255.191406 348.710938 275.738281 352.738281 309.410156 Z M 352.738281 309.410156 "/>
</g>
<mask id="mask17">
  <g filter="url(#alpha)">
<rect x="0" y="0" width="500" height="500" style="fill:rgb(0%,0%,0%);fill-opacity:0.301961;stroke:none;"/>
  </g>
</mask>
<clipPath id="clip18">
  <rect x="0" y="0" width="500" height="500"/>
</clipPath>
<g id="surface56" clip-path="url(#clip18)">
<path style=" stroke:none;fill-rule:nonzero;fill:rgb(72.941176%,40.784314%,78.431373%);fill-opacity:1;" d="M 352.621094 307.050781 C 352.691406 308.558594 352.738281 309.410156 352.738281 309.410156 C 337.878906 308.210938 334.921875 303.050781 334.921875 303.050781 C 335.011719 302.308594 335.109375 301.578125 335.210938 300.839844 C 338.761719 275.839844 349.390625 254.238281 349.390625 254.238281 C 351.019531 254.726562 352.695312 255.042969 354.390625 255.191406 C 351 267.28125 352.179688 298.269531 352.621094 307.050781 Z M 352.621094 307.050781 "/>
</g>
</defs>
<g id="surface1">
<path style=" stroke:none;fill-rule:nonzero;fill:rgb(96.078431%,96.078431%,96.078431%);fill-opacity:1;" d="M 462.28125 356.710938 C 462.28125 292.265625 367.238281 240.019531 250 240.019531 C 132.761719 240.019531 37.71875 292.265625 37.71875 356.710938 C 37.71875 421.15625 132.761719 473.398438 250 473.398438 C 367.238281 473.398438 462.28125 421.15625 462.28125 356.710938 Z M 462.28125 356.710938 "/>
<path style=" stroke:none;fill-rule:nonzero;fill:rgb(90.196078%,90.196078%,90.196078%);fill-opacity:1;" d="M 174.148438 323.070312 C 174.148438 309.109375 154.542969 297.789062 130.359375 297.789062 C 106.175781 297.789062 86.570312 309.109375 86.570312 323.070312 C 86.570312 337.03125 106.175781 348.351562 130.359375 348.351562 C 154.542969 348.351562 174.148438 337.03125 174.148438 323.070312 Z M 174.148438 323.070312 "/>
<path style=" stroke:none;fill-rule:nonzero;fill:rgb(90.196078%,90.196078%,90.196078%);fill-opacity:1;" d="M 408.960938 406.28125 C 408.960938 389.5625 385.492188 376.011719 356.539062 376.011719 C 327.589844 376.011719 304.121094 389.5625 304.121094 406.28125 C 304.121094 422.996094 327.589844 436.550781 356.539062 436.550781 C 385.492188 436.550781 408.960938 422.996094 408.960938 406.28125 Z M 408.960938 406.28125 "/>
<path style=" stroke:none;fill-rule:nonzero;fill:rgb(90.196078%,90.196078%,90.196078%);fill-opacity:1;" d="M 142.78125 304.179688 L 172.78125 321.539062 C 174.261719 322.289062 176.007812 322.289062 177.488281 321.539062 L 220.140625 296.921875 C 221.441406 296.171875 221.441406 294.921875 220.140625 294.199219 L 190.140625 276.839844 C 188.660156 276.089844 186.910156 276.089844 185.429688 276.839844 L 142.789062 301.460938 C 141.480469 302.210938 141.480469 303.429688 142.78125 304.179688 Z M 142.78125 304.179688 "/>
<path style=" stroke:none;fill-rule:nonzero;fill:rgb(27.058824%,35.294118%,39.215686%);fill-opacity:1;" d="M 197.128906 208.199219 L 197.128906 160.820312 L 200.289062 159 L 200.289062 206.371094 Z M 197.128906 208.199219 "/>
<path style=" stroke:none;fill-rule:nonzero;fill:rgb(14.901961%,19.607843%,21.960784%);fill-opacity:1;" d="M 193.96875 159 L 193.96875 210.019531 L 197.128906 208.199219 L 197.128906 160.820312 Z M 193.96875 159 "/>
<path style=" stroke:none;fill-rule:nonzero;fill:rgb(21.568627%,27.843137%,30.980392%);fill-opacity:1;" d="M 178.25 219.101562 L 175.089844 217.308594 L 194.039062 206.371094 L 197.128906 208.199219 Z M 178.25 219.101562 "/>
<path style=" stroke:none;fill-rule:nonzero;fill:rgb(27.058824%,35.294118%,39.215686%);fill-opacity:1;" d="M 175.089844 220.929688 L 175.089844 173.550781 L 178.25 171.730469 L 178.25 219.101562 Z M 175.089844 220.929688 "/>
<path style=" stroke:none;fill-rule:nonzero;fill:rgb(21.568627%,27.843137%,30.980392%);fill-opacity:1;" d="M 171.941406 171.730469 L 171.941406 222.75 L 175.089844 220.929688 L 175.089844 173.550781 Z M 171.941406 171.730469 "/>
<path style=" stroke:none;fill-rule:nonzero;fill:rgb(72.941176%,40.784314%,78.431373%);fill-opacity:1;" d="M 196.328125 155.199219 C 195.523438 154.800781 194.558594 154.894531 193.839844 155.441406 L 175.300781 166.140625 C 173.351562 167.359375 172.101562 169.4375 171.941406 171.730469 L 171.941406 175.378906 L 175.101562 177.199219 L 200.289062 162.570312 L 200.289062 158.941406 C 200.371094 158.207031 200.0625 157.488281 199.480469 157.039062 C 198.941406 156.671875 196.859375 155.53125 196.328125 155.199219 Z M 196.328125 155.199219 "/>
<path style=" stroke:none;fill-rule:nonzero;fill:rgb(72.941176%,40.784314%,78.431373%);fill-opacity:1;" d="M 175.089844 173.550781 C 175.257812 171.257812 176.511719 169.179688 178.460938 167.960938 L 197 157.261719 C 198.859375 156.191406 200.351562 156.941406 200.328125 158.941406 L 200.328125 162.570312 L 175.101562 177.199219 C 175.101562 177.199219 175.089844 175.570312 175.089844 173.550781 Z M 175.089844 173.550781 "/>
<use xlink:href="#surface5" mask="url(#mask0)"/>
<use xlink:href="#surface8" mask="url(#mask1)"/>
<path style=" stroke:none;fill-rule:nonzero;fill:rgb(72.941176%,40.784314%,78.431373%);fill-opacity:1;" d="M 227.179688 212.230469 L 210 202.339844 C 209.308594 201.835938 208.394531 201.75 207.621094 202.109375 L 166.410156 225.921875 L 189.859375 319.539062 L 231 295.828125 C 231.703125 295.34375 232.085938 294.511719 232 293.660156 L 232 220.488281 C 231.800781 217.125 230.007812 214.058594 227.179688 212.230469 Z M 227.179688 212.230469 "/>
<use xlink:href="#surface11" mask="url(#mask2)"/>
<path style=" stroke:none;fill-rule:nonzero;fill:rgb(72.941176%,40.784314%,78.431373%);fill-opacity:1;" d="M 169 308.609375 L 187.53125 319.308594 C 189.378906 320.371094 190.898438 319.5 190.898438 317.359375 L 190.898438 244.191406 C 190.710938 240.839844 188.941406 237.777344 186.128906 235.941406 L 169 226 C 167.140625 224.941406 165.628906 225.808594 165.628906 228 L 165.628906 302.78125 C 165.765625 305.148438 167.015625 307.308594 169 308.609375 Z M 169 308.609375 "/>
<use xlink:href="#surface14" mask="url(#mask3)"/>
<path style=" stroke:none;fill-rule:nonzero;fill:rgb(27.058824%,35.294118%,39.215686%);fill-opacity:1;" d="M 181.898438 312 C 181.675781 307.761719 179.449219 303.886719 175.898438 301.558594 C 174.160156 300.558594 172.589844 300.511719 171.488281 301.25 L 167.421875 303.570312 L 176 318.300781 L 180 315.988281 C 181.199219 315.359375 181.898438 314 181.898438 312 Z M 181.898438 312 "/>
<path style=" stroke:none;fill-rule:nonzero;fill:rgb(21.568627%,27.843137%,30.980392%);fill-opacity:1;" d="M 171.648438 304 C 175.199219 306.328125 177.429688 310.210938 177.648438 314.449219 C 177.648438 318.289062 174.949219 319.851562 171.648438 317.929688 C 168.101562 315.601562 165.871094 311.71875 165.648438 307.480469 C 165.621094 303.671875 168.320312 302.109375 171.648438 304 Z M 171.648438 304 "/>
<path style=" stroke:none;fill-rule:nonzero;fill:rgb(14.901961%,19.607843%,21.960784%);fill-opacity:1;" d="M 171.648438 308.339844 C 173.011719 309.226562 173.867188 310.714844 173.949219 312.339844 C 173.949219 313.800781 172.949219 314.398438 171.648438 313.671875 C 170.292969 312.777344 169.441406 311.292969 169.359375 309.671875 C 169.359375 308.199219 170.378906 307.609375 171.648438 308.339844 Z M 171.648438 308.339844 "/>
<path style=" stroke:none;fill-rule:nonzero;fill:rgb(21.568627%,27.843137%,30.980392%);fill-opacity:1;" d="M 184.570312 317.601562 L 187.828125 319.511719 C 188.480469 319.890625 189.289062 319.890625 189.941406 319.511719 L 195.199219 316.511719 L 195.199219 312.800781 C 195.203125 312.53125 195.058594 312.28125 194.824219 312.148438 C 194.589844 312.011719 194.300781 312.011719 194.070312 312.148438 L 190.878906 314 L 185.699219 311 C 185.46875 310.863281 185.179688 310.863281 184.945312 310.996094 C 184.710938 311.132812 184.570312 311.378906 184.570312 311.648438 Z M 184.570312 317.601562 "/>
<path style=" stroke:none;fill-rule:nonzero;fill:rgb(14.901961%,19.607843%,21.960784%);fill-opacity:1;" d="M 190.890625 317.359375 L 190.890625 314 L 185.710938 311 C 185.476562 310.863281 185.191406 310.863281 184.957031 310.996094 C 184.722656 311.132812 184.578125 311.378906 184.578125 311.648438 L 184.578125 317.648438 L 187.511719 319.351562 C 188.097656 319.738281 188.820312 319.871094 189.511719 319.71875 C 189.632812 319.683594 189.753906 319.636719 189.871094 319.578125 C 190.59375 319.085938 190.988281 318.230469 190.890625 317.359375 Z M 190.890625 317.359375 "/>
<path style=" stroke:none;fill-rule:nonzero;fill:rgb(21.568627%,27.843137%,30.980392%);fill-opacity:1;" d="M 231 295.828125 C 231.703125 295.34375 232.085938 294.511719 232 293.660156 L 232 290.261719 L 228.628906 292.210938 C 228.039062 292.550781 227.679688 293.179688 227.679688 293.859375 L 227.679688 297.769531 Z M 231 295.828125 "/>
<path style=" stroke:none;fill-rule:nonzero;fill:rgb(72.941176%,40.784314%,78.431373%);fill-opacity:1;" d="M 190.890625 266.550781 C 208.261719 246.289062 221.589844 239.550781 231.941406 242.839844 L 231.941406 239.199219 C 221.589844 235.949219 208.261719 242.640625 190.890625 262.898438 Z M 190.890625 266.550781 "/>
<use xlink:href="#surface17" mask="url(#mask4)"/>
<path style=" stroke:none;fill-rule:nonzero;fill:rgb(14.901961%,19.607843%,21.960784%);fill-opacity:1;" d="M 213 211.089844 C 211.757812 210.460938 210.292969 210.460938 209.050781 211.089844 L 207.050781 212.230469 L 207.050781 212.878906 L 211 215.160156 L 213 214.019531 C 213.460938 213.8125 213.777344 213.375 213.820312 212.871094 L 213.820312 212.230469 C 213.773438 211.730469 213.460938 211.292969 213 211.089844 Z M 213 211.089844 "/>
<path style=" stroke:none;fill-rule:nonzero;fill:rgb(27.058824%,35.294118%,39.215686%);fill-opacity:1;" d="M 207 212.230469 L 209 211.089844 C 210.242188 210.460938 211.707031 210.460938 212.949219 211.089844 C 213.441406 211.25 213.773438 211.710938 213.773438 212.230469 C 213.773438 212.75 213.441406 213.207031 212.949219 213.371094 L 210.949219 214.511719 Z M 207 212.230469 "/>
<path style=" stroke:none;fill-rule:nonzero;fill:rgb(21.568627%,27.843137%,30.980392%);fill-opacity:1;" d="M 210.980469 211.410156 L 210.980469 214.511719 L 207.03125 212.230469 L 207.03125 209.128906 Z M 210.980469 211.410156 "/>
<path style=" stroke:none;fill-rule:nonzero;fill:rgb(27.058824%,35.294118%,39.215686%);fill-opacity:1;" d="M 191.21875 222.859375 L 210.980469 211.410156 L 207.03125 209.128906 L 187.269531 220.53125 Z M 191.21875 222.859375 "/>
<path style=" stroke:none;fill-rule:nonzero;fill:rgb(21.568627%,27.843137%,30.980392%);fill-opacity:1;" d="M 187.269531 223.640625 L 187.269531 220.53125 L 191.21875 222.859375 L 191.21875 225.921875 Z M 187.269531 223.640625 "/>
<path style=" stroke:none;fill-rule:nonzero;fill:rgb(14.901961%,19.607843%,21.960784%);fill-opacity:1;" d="M 191.210938 225.921875 L 187.210938 223.640625 L 185.210938 224.78125 C 184.757812 224.984375 184.449219 225.414062 184.398438 225.910156 L 184.398438 226.578125 C 184.449219 227.074219 184.757812 227.503906 185.210938 227.710938 C 186.449219 228.339844 187.917969 228.339844 189.160156 227.710938 L 191.160156 226.570312 Z M 191.210938 225.921875 "/>
<path style=" stroke:none;fill-rule:nonzero;fill:rgb(27.058824%,35.294118%,39.215686%);fill-opacity:1;" d="M 187.269531 223.640625 L 185.269531 224.78125 C 184.777344 224.941406 184.445312 225.402344 184.445312 225.921875 C 184.445312 226.4375 184.777344 226.898438 185.269531 227.058594 C 186.523438 227.707031 188.015625 227.707031 189.269531 227.058594 L 191.269531 225.921875 Z M 187.269531 223.640625 "/>
<path style=" stroke:none;fill-rule:nonzero;fill:rgb(14.901961%,19.607843%,21.960784%);fill-opacity:1;" d="M 191.859375 222.480469 L 191.859375 226.199219 L 191.210938 226.570312 L 191.210938 222.859375 Z M 191.859375 222.480469 "/>
<path style=" stroke:none;fill-rule:nonzero;fill:rgb(14.901961%,19.607843%,21.960784%);fill-opacity:1;" d="M 210.980469 211.410156 L 210.980469 215.148438 L 210.320312 215.53125 L 210.320312 211.78125 Z M 210.980469 211.410156 "/>
<path style=" stroke:none;fill-rule:nonzero;fill:rgb(14.901961%,19.607843%,21.960784%);fill-opacity:1;" d="M 191.210938 223.640625 L 210.980469 212.191406 L 210.980469 211.410156 L 191.210938 222.859375 Z M 191.210938 223.640625 "/>
<path style=" stroke:none;fill-rule:nonzero;fill:rgb(21.568627%,27.843137%,30.980392%);fill-opacity:1;" d="M 210.328125 215.53125 L 210.328125 212.570312 L 207.769531 214.050781 Z M 210.328125 215.53125 "/>
<path style=" stroke:none;fill-rule:nonzero;fill:rgb(72.941176%,40.784314%,78.431373%);fill-opacity:1;" d="M 339.269531 74.800781 L 296.910156 54.800781 L 298.988281 53.699219 L 339.121094 60.371094 L 343.628906 58 C 344.59375 57.558594 345.707031 57.609375 346.628906 58.128906 C 347.441406 58.640625 347.429688 59.410156 346.628906 59.851562 L 343.859375 61.308594 L 359.390625 64.558594 Z M 339.269531 74.800781 "/>
<use xlink:href="#surface20" mask="url(#mask5)"/>
<path style=" stroke:none;fill-rule:nonzero;fill:rgb(72.941176%,40.784314%,78.431373%);fill-opacity:1;" d="M 354.121094 60.820312 C 367.460938 53.261719 381.710938 45.570312 393.53125 48.820312 C 401.640625 51.078125 388.960938 61.328125 367.769531 72.570312 L 349 81.691406 C 330.210938 90.128906 310.898438 97.398438 310.898438 97.398438 L 311.769531 110.398438 L 309.898438 111.398438 L 301.46875 102 C 301.46875 102 296.761719 104.25 294.128906 102.601562 C 291.5 100.949219 295.808594 98.429688 295.808594 98.429688 L 280.371094 92.761719 L 282.25 91.761719 L 304.621094 93.410156 C 304.621094 93.410156 318.890625 83 335.148438 73 C 335.148438 73 340.789062 68.378906 354.121094 60.820312 Z M 354.121094 60.820312 "/>
<path style=" stroke:none;fill-rule:nonzero;fill:rgb(72.941176%,40.784314%,78.431373%);fill-opacity:1;" d="M 378.398438 79.421875 L 373.878906 81.800781 L 385.390625 108.449219 L 383.308594 109.550781 L 347.601562 79.550781 L 368.308594 69 L 372.691406 79 L 375.460938 77.539062 C 376.421875 77.09375 377.539062 77.144531 378.460938 77.671875 C 379.25 78.210938 379.230469 79 378.398438 79.421875 Z M 378.398438 79.421875 "/>
<use xlink:href="#surface23" mask="url(#mask6)"/>
<path style=" stroke:none;fill-rule:nonzero;fill:rgb(72.941176%,40.784314%,78.431373%);fill-opacity:1;" d="M 142.921875 128.320312 C 141.691406 124.078125 139.140625 121.398438 125.390625 120.851562 C 111.640625 120.300781 98.390625 122.480469 94.191406 128.179688 C 91.351562 132.058594 88.621094 141.960938 91.398438 142.691406 C 94.179688 143.421875 135.890625 142.269531 140.21875 139.78125 C 144.550781 137.289062 142.921875 128.320312 142.921875 128.320312 Z M 142.921875 128.320312 "/>
<path style=" stroke:none;fill-rule:nonzero;fill:rgb(72.941176%,40.784314%,78.431373%);fill-opacity:1;" d="M 108 130.371094 C 105.851562 128.648438 103.007812 128.074219 100.359375 128.820312 C 96.101562 130.171875 92.648438 133.878906 91.429688 143.738281 C 90.210938 153.601562 90.570312 183.921875 92.859375 190 C 95.148438 196.078125 103.558594 198.898438 113.671875 198.101562 C 123.78125 197.300781 139.238281 194.871094 144.078125 190 C 148.921875 185.128906 144.691406 137.609375 141.601562 129.828125 Z M 108 130.371094 "/>
<use xlink:href="#surface26" mask="url(#mask7)"/>
<path style=" stroke:none;fill-rule:nonzero;fill:rgb(100%,65.882353%,65.490196%);fill-opacity:1;" d="M 102.550781 271.769531 C 102.730469 262.949219 105.390625 256.398438 105.550781 253.949219 C 105.550781 253.949219 104.898438 201.449219 104.898438 192.949219 L 149.660156 191.128906 C 149.660156 191.128906 149.039062 243.761719 149.039062 251.050781 C 149.039062 258.339844 147.949219 289.371094 146.789062 303.648438 L 146.660156 308.339844 L 136.660156 311.449219 C 136.804688 308.785156 136.804688 306.113281 136.660156 303.449219 C 136.46875 296.789062 131.980469 273.710938 131.558594 267.851562 C 131.019531 260.269531 132.230469 257.199219 132.078125 252.140625 C 131.929688 247.078125 129 213.871094 129 213.871094 C 129 213.871094 123.398438 246.429688 122 257.488281 C 120.398438 270.160156 115.269531 303.359375 115.261719 311.078125 C 115.261719 312.460938 115.261719 314.078125 115.261719 315.800781 C 115.261719 319.980469 115.148438 321.078125 115.820312 322.691406 C 116.988281 325.519531 106.980469 327.300781 106.511719 325.289062 L 105.441406 316.988281 L 105.441406 311.488281 C 105.449219 303.621094 102.28125 284.570312 102.550781 271.769531 Z M 102.550781 271.769531 "/>
<path style=" stroke:none;fill-rule:nonzero;fill:rgb(21.568627%,27.843137%,30.980392%);fill-opacity:1;" d="M 166.261719 321.429688 C 166.527344 322.242188 166.476562 323.125 166.121094 323.898438 C 165.769531 324.621094 162 326.75 156.898438 326.410156 C 153.121094 326.140625 149.484375 324.867188 146.359375 322.730469 C 144.421875 321.441406 142.359375 321.199219 139.871094 321.050781 C 137.378906 320.898438 134.039062 319.648438 133.480469 318.46875 C 133.195312 317.414062 133.226562 316.296875 133.570312 315.261719 Z M 166.261719 321.429688 "/>
<path style=" stroke:none;fill-rule:nonzero;fill:rgb(27.058824%,35.294118%,39.215686%);fill-opacity:1;" d="M 145.691406 305.519531 L 146.101562 305.441406 C 146.320312 305.394531 146.550781 305.394531 146.769531 305.441406 C 147.015625 305.519531 147.234375 305.667969 147.398438 305.871094 C 147.898438 306.492188 148.335938 307.160156 148.699219 307.871094 C 149.769531 309.609375 152.011719 311.058594 154.460938 312.371094 C 156.121094 313.269531 157.75 313.960938 159.460938 314.738281 C 161.171875 315.519531 163.539062 316.011719 164.921875 316.929688 C 166.921875 318.28125 167.171875 321.660156 164.921875 323 C 162.921875 324.160156 157.78125 325.410156 152.351562 323.871094 C 149.351562 323.03125 146.121094 319.871094 142.238281 319.570312 C 139.78125 319.378906 135.109375 318.691406 133.53125 316.808594 C 132.941406 315.980469 133.71875 313.351562 134.371094 311.078125 C 135.070312 308.601562 135.910156 304.710938 136.730469 304.929688 C 136.730469 305.421875 136.671875 305.539062 136.988281 305.871094 C 137.308594 306.199219 137.699219 306.378906 137.988281 306.671875 C 138.570312 307.246094 139.035156 307.921875 139.359375 308.671875 C 139.492188 309 139.742188 309.269531 140.058594 309.429688 C 140.46875 309.578125 140.78125 309.320312 141.148438 309.160156 C 141.609375 308.949219 142.132812 308.910156 142.621094 309.050781 C 142.574219 308.558594 142.484375 308.070312 142.359375 307.589844 C 142.320312 307.4375 142.320312 307.273438 142.359375 307.121094 C 142.425781 306.972656 142.539062 306.851562 142.679688 306.769531 C 143.585938 306.148438 144.609375 305.722656 145.691406 305.519531 Z M 145.691406 305.519531 "/>
<path style=" stroke:none;fill-rule:nonzero;fill:rgb(21.568627%,27.843137%,30.980392%);fill-opacity:1;" d="M 125.53125 335.871094 C 125.808594 336.769531 125.765625 337.738281 125.410156 338.609375 C 125.050781 339.171875 123.011719 340.921875 119.300781 341.179688 C 115.761719 341.441406 112.601562 340.960938 110.519531 339.640625 C 108.441406 338.320312 107.429688 336.859375 107.238281 334.851562 C 107.050781 332.839844 107.238281 330.851562 106.300781 329.328125 C 105.359375 327.808594 104 326.28125 103.691406 325.511719 C 103.324219 324.164062 103.324219 322.746094 103.691406 321.398438 Z M 125.53125 335.871094 "/>
<path style=" stroke:none;fill-rule:nonzero;fill:rgb(27.058824%,35.294118%,39.215686%);fill-opacity:1;" d="M 115.839844 318.261719 C 115.867188 319.023438 116.003906 319.777344 116.25 320.5 C 116.789062 322.0625 117.515625 323.554688 118.421875 324.941406 C 118.863281 325.660156 119.359375 326.347656 119.898438 327 C 120.96875 328.28125 122.300781 329.320312 123.429688 330.539062 C 124.636719 331.695312 125.410156 333.230469 125.621094 334.890625 C 125.769531 337.671875 122.75 338.609375 120.429688 339.019531 C 117.921875 339.464844 115.34375 339.335938 112.890625 338.648438 C 110.257812 337.960938 108.269531 335.792969 107.808594 333.109375 C 107.679688 332.339844 107.730469 331.550781 107.640625 330.78125 C 107.332031 329.007812 106.589844 327.335938 105.480469 325.921875 C 104.835938 325.097656 104.28125 324.207031 103.820312 323.269531 C 103.101562 321.550781 103.679688 319.621094 104.140625 317.910156 C 104.539062 316.429688 104.988281 314.761719 105.519531 314.910156 C 105.519531 315.671875 105.519531 315.75 106.058594 316.269531 C 106.761719 316.929688 106.789062 317.921875 107.519531 318.5 C 107.285156 317.851562 107.113281 317.183594 107.011719 316.5 C 106.964844 316.230469 107.015625 315.953125 107.160156 315.71875 C 107.40625 315.503906 107.703125 315.34375 108.019531 315.261719 C 109.113281 314.894531 110.242188 314.636719 111.390625 314.488281 C 112.480469 314.316406 113.589844 314.316406 114.679688 314.488281 C 115.003906 314.550781 115.296875 314.722656 115.511719 314.96875 C 115.703125 315.25 115.804688 315.582031 115.800781 315.921875 C 115.851562 316.371094 115.820312 317.519531 115.839844 318.261719 Z M 115.839844 318.261719 "/>
<path style=" stroke:none;fill-rule:nonzero;fill:rgb(96.078431%,96.078431%,96.078431%);fill-opacity:1;" d="M 118.789062 325.519531 C 117.789062 324.75 115.441406 324.738281 114.171875 324.871094 C 112.882812 324.984375 111.644531 325.421875 110.570312 326.140625 C 110.242188 326.371094 109.796875 326.332031 109.511719 326.050781 C 109.34375 325.890625 109.257812 325.667969 109.273438 325.441406 C 109.289062 325.214844 109.40625 325.003906 109.589844 324.871094 C 110.757812 324.003906 112.144531 323.484375 113.589844 323.371094 C 116.710938 323.148438 117.589844 323.679688 117.589844 323.679688 C 117.589844 323.679688 119.101562 324.601562 118.789062 325.519531 Z M 118.789062 325.519531 "/>
<path style=" stroke:none;fill-rule:nonzero;fill:rgb(96.078431%,96.078431%,96.078431%);fill-opacity:1;" d="M 121.171875 328.371094 C 119.871094 327.601562 117.320312 327.710938 116.058594 327.839844 C 114.792969 327.96875 113.582031 328.429688 112.550781 329.179688 C 112.222656 329.410156 111.773438 329.371094 111.488281 329.089844 C 111.324219 328.933594 111.238281 328.710938 111.253906 328.480469 C 111.269531 328.253906 111.386719 328.042969 111.570312 327.910156 C 112.769531 326.992188 114.207031 326.433594 115.710938 326.289062 C 118.828125 326.070312 119.640625 326.710938 119.640625 326.710938 C 120.378906 326.996094 120.941406 327.609375 121.171875 328.371094 Z M 121.171875 328.371094 "/>
<path style=" stroke:none;fill-rule:nonzero;fill:rgb(96.078431%,96.078431%,96.078431%);fill-opacity:1;" d="M 112.398438 320.390625 C 113.710938 320.152344 115.0625 320.265625 116.320312 320.710938 C 116.871094 321.019531 117.230469 321.890625 116.878906 322.109375 C 115.777344 321.671875 114.589844 321.507812 113.410156 321.628906 C 112.238281 321.746094 111.09375 322.058594 110.03125 322.558594 C 109.769531 322.679688 109.449219 322.839844 109.171875 323 C 108.996094 323.089844 108.792969 323.109375 108.601562 323.046875 C 108.414062 322.988281 108.257812 322.855469 108.171875 322.679688 C 108.015625 322.359375 108.132812 321.972656 108.441406 321.789062 C 109.644531 321.046875 110.996094 320.566406 112.398438 320.390625 Z M 112.398438 320.390625 "/>
<path style=" stroke:none;fill-rule:nonzero;fill:rgb(96.078431%,96.078431%,96.078431%);fill-opacity:1;" d="M 152.160156 311 C 151.792969 310.3125 151.105469 309.851562 150.328125 309.78125 C 149.210938 309.570312 147.230469 310.398438 146 311.421875 C 145.761719 311.613281 145.636719 311.910156 145.660156 312.214844 C 145.6875 312.519531 145.863281 312.792969 146.128906 312.941406 C 146.46875 313.125 146.890625 313.078125 147.179688 312.820312 C 148.542969 311.589844 150.328125 310.9375 152.160156 311 Z M 152.160156 311 "/>
<path style=" stroke:none;fill-rule:nonzero;fill:rgb(96.078431%,96.078431%,96.078431%);fill-opacity:1;" d="M 155.628906 313 C 155.136719 312.300781 154.335938 311.886719 153.480469 311.890625 C 151.75 311.964844 150.085938 312.582031 148.730469 313.660156 C 148.503906 313.847656 148.386719 314.136719 148.410156 314.429688 C 148.4375 314.722656 148.605469 314.984375 148.859375 315.128906 C 149.183594 315.304688 149.582031 315.261719 149.859375 315.019531 C 151.371094 313.496094 153.5 312.753906 155.628906 313 Z M 155.628906 313 "/>
<path style=" stroke:none;fill-rule:nonzero;fill:rgb(96.078431%,96.078431%,96.078431%);fill-opacity:1;" d="M 159.46875 314.738281 C 158.90625 314.09375 158.085938 313.730469 157.230469 313.738281 C 155.566406 313.839844 153.976562 314.464844 152.691406 315.53125 C 152.464844 315.71875 152.34375 316.003906 152.367188 316.296875 C 152.390625 316.589844 152.554688 316.851562 152.808594 317 C 153.132812 317.175781 153.53125 317.132812 153.808594 316.890625 C 155.25 315.316406 157.347656 314.519531 159.46875 314.738281 Z M 159.46875 314.738281 "/>
<path style=" stroke:none;fill-rule:nonzero;fill:rgb(72.941176%,40.784314%,78.431373%);fill-opacity:1;" d="M 149.710938 191.109375 C 149.710938 191.109375 150.308594 228.191406 150.378906 234.699219 C 150.449219 241.210938 150.378906 253.699219 150.378906 260.089844 C 150.378906 260.089844 148.730469 262.871094 139.320312 262.859375 C 129.910156 262.851562 128.550781 260.25 128.550781 260.25 L 127.160156 230.25 L 124.570312 261.390625 C 120.722656 264.007812 115.964844 264.917969 111.421875 263.910156 C 103.671875 262.238281 102.53125 259.910156 102.53125 259.910156 L 104.050781 191.199219 Z M 149.710938 191.109375 "/>
<use xlink:href="#surface29" mask="url(#mask8)"/>
<use xlink:href="#surface32" mask="url(#mask9)"/>
<path style=" stroke:none;fill-rule:nonzero;fill:rgb(96.078431%,96.078431%,96.078431%);fill-opacity:1;" d="M 103.480469 197.53125 C 109.628906 202.011719 137.480469 206.96875 150.398438 197.53125 C 150.398438 197.53125 150.101562 161.429688 149.089844 142.320312 C 149.039062 141.449219 148.980469 140.609375 148.898438 139.789062 C 148.898438 139.519531 148.828125 139.25 148.800781 138.980469 C 148.652344 137.835938 148.433594 136.703125 148.140625 135.589844 C 148.140625 135.410156 148.039062 135.230469 147.980469 135.039062 C 147.851562 134.628906 147.71875 134.21875 147.558594 133.828125 C 147.46875 133.621094 147.378906 133.398438 147.28125 133.199219 C 147.179688 133 147.109375 132.820312 147.011719 132.628906 C 147.011719 132.597656 147.011719 132.5625 147.011719 132.53125 C 146.910156 132.339844 146.800781 132.160156 146.699219 131.988281 C 146.601562 131.820312 146.46875 131.601562 146.328125 131.410156 C 146.191406 131.21875 146.078125 131.050781 145.960938 130.890625 C 145.8125 130.699219 145.65625 130.519531 145.488281 130.351562 C 145.34375 130.171875 145.1875 130.007812 145.019531 129.851562 L 144.679688 129.539062 C 144.574219 129.4375 144.460938 129.34375 144.339844 129.261719 C 144.191406 129.132812 144.039062 129.011719 143.878906 128.898438 C 143.367188 128.519531 142.820312 128.1875 142.25 127.898438 L 141.769531 127.679688 L 141.648438 127.679688 L 141.070312 127.460938 C 140.742188 127.332031 140.410156 127.226562 140.070312 127.140625 L 138.988281 126.859375 L 135.511719 126.859375 C 130.679688 127.078125 123.738281 127.859375 118.179688 128.570312 L 117.078125 128.71875 L 116.078125 128.828125 C 112.261719 129.328125 109.421875 129.75 108.988281 129.828125 L 108.929688 129.828125 C 107.679688 130.140625 106.519531 130.441406 105.589844 130.71875 C 103.03125 131.46875 104.929688 130.828125 104.371094 133.300781 C 102.71875 140.550781 104.640625 166.921875 104.640625 166.921875 Z M 103.480469 197.53125 "/>
<path style=" stroke:none;fill-rule:nonzero;fill:rgb(100%,65.882353%,65.490196%);fill-opacity:1;" d="M 194.050781 94 C 188.050781 90.230469 186.800781 92.53125 187.410156 98 C 187.699219 100.292969 187.660156 102.617188 187.300781 104.898438 C 186.894531 103.828125 186.335938 102.816406 185.648438 101.898438 C 184.945312 100.847656 183.550781 100.519531 182.449219 101.140625 C 182.019531 101.449219 182.871094 102.449219 183.269531 104.53125 C 183.78125 107.210938 183.269531 108.871094 184.53125 111.53125 C 184.992188 112.539062 185.078125 113.683594 184.769531 114.75 C 183.269531 120.179688 179.308594 127.621094 174.921875 135.398438 C 167.921875 133.460938 160.988281 131.011719 153.609375 128.929688 C 142.21875 125.71875 138.609375 126.710938 135.789062 129.730469 L 139.851562 141.261719 L 176.339844 150 C 179.199219 150.78125 182.96875 149.828125 184.339844 147.21875 C 188.339844 139.78125 191.339844 129.839844 193.570312 122.148438 C 194.921875 117.578125 196.050781 113.410156 196.769531 110.53125 C 199.28125 100.53125 197.789062 96.328125 194.050781 94 Z M 194.050781 94 "/>
<path style=" stroke:none;fill-rule:nonzero;fill:rgb(21.568627%,27.843137%,30.980392%);fill-opacity:1;" d="M 136.539062 126.839844 C 140.878906 126.351562 144.449219 125.839844 151.109375 127.558594 C 157.769531 129.28125 174.550781 134.738281 174.550781 134.738281 L 183.140625 119.339844 C 186.289062 121.3125 190.015625 122.171875 193.710938 121.769531 C 192.144531 128.371094 190.238281 134.886719 188 141.289062 C 185.148438 148.679688 183.671875 150.898438 181.558594 151.53125 C 179.449219 152.160156 146.28125 144.53125 146.28125 144.53125 Z M 136.539062 126.839844 "/>
<path style=" stroke:none;fill-rule:nonzero;fill:rgb(27.058824%,35.294118%,39.215686%);fill-opacity:1;" d="M 103.480469 197.53125 C 109.628906 202.011719 137.480469 206.96875 150.398438 197.53125 C 150.398438 197.53125 150.101562 161.429688 149.089844 142.320312 C 149.039062 141.449219 148.980469 140.609375 148.898438 139.789062 C 148.898438 139.519531 148.828125 139.25 148.800781 138.980469 C 148.652344 137.835938 148.433594 136.703125 148.140625 135.589844 C 148.140625 135.410156 148.039062 135.230469 147.980469 135.039062 C 147.851562 134.628906 147.71875 134.21875 147.558594 133.828125 C 147.46875 133.621094 147.378906 133.398438 147.28125 133.199219 C 147.179688 133 147.109375 132.820312 147.011719 132.628906 C 147.011719 132.597656 147.011719 132.5625 147.011719 132.53125 C 146.910156 132.339844 146.800781 132.160156 146.699219 131.988281 C 146.601562 131.820312 146.46875 131.601562 146.328125 131.410156 C 146.191406 131.21875 146.078125 131.050781 145.960938 130.890625 C 145.8125 130.699219 145.65625 130.519531 145.488281 130.351562 C 145.34375 130.171875 145.1875 130.007812 145.019531 129.851562 L 144.679688 129.539062 C 144.574219 129.4375 144.460938 129.34375 144.339844 129.261719 C 144.191406 129.132812 144.039062 129.011719 143.878906 128.898438 C 143.367188 128.519531 142.820312 128.1875 142.25 127.898438 L 141.769531 127.679688 L 141.648438 127.679688 L 141.070312 127.460938 C 140.742188 127.332031 140.410156 127.226562 140.070312 127.140625 L 138.988281 126.859375 L 135.511719 126.859375 C 130.679688 127.078125 123.738281 127.859375 118.179688 128.570312 L 117.078125 128.71875 L 116.078125 128.828125 C 112.261719 129.328125 109.421875 129.75 108.988281 129.828125 L 108.929688 129.828125 C 107.679688 130.140625 106.519531 130.441406 105.589844 130.71875 C 103.03125 131.46875 104.929688 130.828125 104.371094 133.300781 C 102.71875 140.550781 104.640625 166.921875 104.640625 166.921875 Z M 103.480469 197.53125 "/>
<path style=" stroke:none;fill-rule:nonzero;fill:rgb(100%,65.882353%,65.490196%);fill-opacity:1;" d="M 91.089844 173 C 94.628906 138 97.851562 131.328125 107.96875 130.371094 C 111.300781 133.578125 111.210938 142.761719 108.339844 148.269531 C 108.339844 148.269531 104.039062 162.960938 102.53125 175.371094 C 101.679688 182.371094 99.890625 196.820312 100.628906 202.691406 C 100.773438 203.730469 101.292969 204.683594 102.089844 205.371094 C 104.210938 207.21875 104.398438 208.878906 105.871094 211.019531 C 107.03125 212.699219 108.148438 213.25 107.871094 213.679688 C 107.144531 214.652344 105.792969 214.898438 104.769531 214.25 C 103.8125 213.707031 102.933594 213.03125 102.160156 212.25 C 102.722656 214.394531 103.585938 216.445312 104.71875 218.351562 C 107.371094 222.929688 107.121094 225.441406 100.441406 224.429688 C 96.25 223.800781 93.328125 220.679688 91.660156 210.96875 C 91.046875 207.386719 90.625 203.777344 90.390625 200.148438 C 89.933594 191.09375 90.164062 182.019531 91.089844 173 Z M 91.089844 173 "/>
<path style=" stroke:none;fill-rule:nonzero;fill:rgb(21.568627%,27.843137%,30.980392%);fill-opacity:1;" d="M 108.921875 129.828125 C 108.921875 129.828125 103.160156 130.378906 101.011719 131.75 C 97.671875 133.878906 96.128906 138.191406 94.519531 145.179688 C 92.910156 152.171875 90 165.609375 89.351562 171.070312 C 88.699219 176.53125 89.519531 192.761719 89.519531 192.761719 C 93.183594 194.730469 97.5625 194.855469 101.328125 193.089844 C 101.328125 193.089844 102.910156 177.558594 103.480469 173 C 103.941406 169.378906 106.738281 157.148438 108.289062 153.5 C 108.289062 153.5 113.289062 139.171875 108.921875 129.828125 Z M 108.921875 129.828125 "/>
<path style=" stroke:none;fill-rule:nonzero;fill:rgb(14.901961%,19.607843%,21.960784%);fill-opacity:1;" d="M 123.539062 98.300781 C 123.5625 105.066406 129.0625 110.535156 135.828125 110.519531 C 142.597656 110.503906 148.070312 105.007812 148.058594 98.238281 C 148.050781 91.472656 142.558594 85.996094 135.789062 86 C 132.53125 85.996094 129.40625 87.292969 127.105469 89.601562 C 124.808594 91.910156 123.523438 95.042969 123.539062 98.300781 Z M 123.539062 98.300781 "/>
<path style=" stroke:none;fill-rule:nonzero;fill:rgb(14.901961%,19.607843%,21.960784%);fill-opacity:1;" d="M 114.609375 107 C 114.609375 107 116.609375 116.328125 117.390625 117.871094 C 117.917969 118.824219 118.789062 119.542969 119.828125 119.871094 L 119.691406 113.300781 Z M 114.609375 107 "/>
<path style=" stroke:none;fill-rule:nonzero;fill:rgb(14.901961%,19.607843%,21.960784%);fill-opacity:1;" d="M 117.101562 93.640625 C 115.6875 93.484375 114.285156 93.988281 113.289062 95 C 111.660156 96.679688 112.570312 101.910156 114.609375 107 L 118.351562 107.429688 Z M 117.101562 93.640625 "/>
<path style=" stroke:none;fill-rule:nonzero;fill:rgb(100%,65.882353%,65.490196%);fill-opacity:1;" d="M 119.46875 107.449219 C 118.71875 107.890625 117.648438 106.449219 116.71875 105.449219 C 115.789062 104.449219 112.78125 103.160156 111.269531 106.339844 C 109.761719 109.519531 112.601562 113.851562 114.980469 114.589844 C 119.078125 115.878906 119.691406 113.25 119.691406 113.25 L 119.96875 128.320312 C 124.261719 136.089844 138.78125 132.109375 133.339844 126.960938 L 133.339844 123.140625 C 135.164062 123.433594 137.015625 123.53125 138.859375 123.429688 C 141.859375 122.960938 143.769531 120.578125 144.679688 117.320312 C 146.148438 112.078125 146.679688 107.851562 145.460938 97.550781 C 144.101562 86.25 130.960938 86.140625 123.871094 90.550781 C 116.78125 94.960938 119.46875 107.449219 119.46875 107.449219 Z M 119.46875 107.449219 "/>
<path style=" stroke:none;fill-rule:nonzero;fill:rgb(14.901961%,19.607843%,21.960784%);fill-opacity:1;" d="M 117.71875 87.46875 C 120.203125 86.40625 122.800781 85.625 125.460938 85.140625 C 131.191406 83.898438 137.03125 82.75 142.261719 80.140625 C 142.867188 79.738281 143.582031 79.53125 144.308594 79.550781 C 145.691406 79.730469 146.308594 81.398438 146.308594 82.789062 C 146.359375 84.078125 146.191406 85.367188 145.808594 86.601562 C 146.675781 85.769531 148.050781 85.792969 148.890625 86.648438 C 149.671875 87.523438 150.003906 88.714844 149.78125 89.871094 C 149.296875 92.457031 147.566406 94.640625 145.160156 95.710938 C 142.777344 96.738281 140.203125 97.25 137.609375 97.210938 C 133.996094 97.3125 130.378906 97.039062 126.820312 96.390625 C 125.964844 96.183594 125.085938 96.121094 124.210938 96.199219 C 123.300781 96.289062 122.523438 96.890625 122.210938 97.75 C 121.820312 99.179688 121.429688 108.878906 119.441406 108.921875 C 119.058594 108.921875 117.648438 106.480469 116.730469 105.609375 C 115.570312 104.519531 114.410156 96.210938 114.199219 94.671875 C 114.179688 94.550781 114.128906 94.441406 114.050781 94.351562 C 112.738281 92.519531 114.269531 89.441406 115.878906 88.441406 C 116.472656 88.078125 117.085938 87.753906 117.71875 87.46875 Z M 117.71875 87.46875 "/>
<path style=" stroke:none;fill-rule:nonzero;fill:rgb(94.901961%,56.078431%,56.078431%);fill-opacity:1;" d="M 133.328125 123.171875 C 133.328125 123.171875 126.601562 121.820312 124.25 120.570312 C 122.867188 119.847656 121.734375 118.726562 121 117.351562 C 121.355469 118.726562 121.980469 120.019531 122.839844 121.148438 C 124.558594 123.339844 133.328125 124.960938 133.328125 124.960938 Z M 133.328125 123.171875 "/>
<path style=" stroke:none;fill-rule:nonzero;fill:rgb(14.901961%,19.607843%,21.960784%);fill-opacity:1;" d="M 131.710938 105.761719 C 131.683594 106.5 131.066406 107.078125 130.328125 107.058594 C 129.589844 107.042969 129.003906 106.433594 129.011719 105.695312 C 129.019531 104.953125 129.621094 104.359375 130.359375 104.359375 C 130.726562 104.367188 131.074219 104.515625 131.328125 104.777344 C 131.578125 105.042969 131.71875 105.394531 131.710938 105.761719 Z M 131.710938 105.761719 "/>
<path style=" stroke:none;fill-rule:nonzero;fill:rgb(14.901961%,19.607843%,21.960784%);fill-opacity:1;" d="M 130.28125 100.671875 L 127.398438 102.269531 C 126.964844 101.449219 127.261719 100.429688 128.070312 99.96875 C 128.453125 99.761719 128.90625 99.71875 129.324219 99.851562 C 129.742188 99.980469 130.085938 100.277344 130.28125 100.671875 Z M 130.28125 100.671875 "/>
<path style=" stroke:none;fill-rule:nonzero;fill:rgb(94.901961%,56.078431%,56.078431%);fill-opacity:1;" d="M 132.71875 115.078125 L 135.789062 116.230469 C 135.652344 116.644531 135.351562 116.984375 134.957031 117.171875 C 134.5625 117.363281 134.109375 117.382812 133.699219 117.230469 C 132.851562 116.890625 132.417969 115.945312 132.71875 115.078125 Z M 132.71875 115.078125 "/>
<path style=" stroke:none;fill-rule:nonzero;fill:rgb(14.901961%,19.607843%,21.960784%);fill-opacity:1;" d="M 143.730469 101.800781 L 141.101562 99.800781 C 141.351562 99.441406 141.738281 99.199219 142.171875 99.132812 C 142.601562 99.066406 143.042969 99.183594 143.390625 99.449219 C 144.097656 100.023438 144.246094 101.046875 143.730469 101.800781 Z M 143.730469 101.800781 "/>
<path style=" stroke:none;fill-rule:nonzero;fill:rgb(14.901961%,19.607843%,21.960784%);fill-opacity:1;" d="M 142.921875 105.378906 C 142.929688 105.746094 142.789062 106.097656 142.535156 106.359375 C 142.28125 106.625 141.933594 106.773438 141.570312 106.78125 C 140.808594 106.757812 140.207031 106.128906 140.21875 105.371094 C 140.21875 104.625 140.824219 104.019531 141.570312 104.019531 C 142.316406 104.019531 142.921875 104.625 142.921875 105.371094 Z M 142.921875 105.378906 "/>
<path style=" stroke:none;fill-rule:nonzero;fill:rgb(94.901961%,56.078431%,56.078431%);fill-opacity:1;" d="M 136.050781 104.101562 L 136.5 112.210938 L 140.730469 110.769531 Z M 136.050781 104.101562 "/>
<path style=" stroke:none;fill-rule:nonzero;fill:rgb(72.941176%,40.784314%,78.431373%);fill-opacity:1;" d="M 110.839844 129.550781 C 110.839844 129.550781 113.988281 136.410156 112.449219 148.941406 C 110.910156 161.46875 104.449219 172.75 104.449219 172.75 L 104.179688 180.199219 C 104.179688 180.199219 111.710938 174.871094 116.570312 162.089844 C 121.429688 149.308594 120.109375 135.910156 118.160156 128.578125 C 115.699219 127.789062 113.011719 128.144531 110.839844 129.550781 Z M 110.839844 129.550781 "/>
<use xlink:href="#surface35" mask="url(#mask10)"/>
<path style=" stroke:none;fill-rule:nonzero;fill:rgb(72.941176%,40.784314%,78.431373%);fill-opacity:1;" d="M 134.210938 126.941406 C 138.628906 129.398438 150.410156 139.941406 150.078125 174.53125 C 150.078125 174.53125 155.441406 162.28125 152.078125 145.929688 C 149.421875 133.089844 144.820312 128.261719 141.601562 126.53125 C 141.570312 126.53125 136 124.859375 134.210938 126.941406 Z M 134.210938 126.941406 "/>
<use xlink:href="#surface38" mask="url(#mask11)"/>
<path style=" stroke:none;fill-rule:nonzero;fill:rgb(72.941176%,40.784314%,78.431373%);fill-opacity:1;" d="M 298.078125 180.621094 C 299.078125 175.058594 297.761719 169.621094 294.460938 164.171875 C 291.160156 158.71875 286.121094 149.511719 287.351562 144.449219 C 283.703125 141.960938 278.875 142.070312 275.351562 144.730469 C 269.039062 149.238281 274.621094 156.011719 273.441406 157.789062 C 272.261719 159.570312 263.691406 156.710938 262.441406 164.171875 C 261.191406 171.628906 271.578125 174.828125 269.390625 177.371094 C 267.199219 179.910156 267.800781 185.371094 269.929688 186.769531 C 271.089844 184.648438 273.433594 183.457031 275.828125 183.769531 C 279.929688 184.351562 296.449219 192.570312 298.078125 180.621094 Z M 298.078125 180.621094 "/>
<use xlink:href="#surface41" mask="url(#mask12)"/>
<use xlink:href="#surface44" mask="url(#mask13)"/>
<path style=" stroke:none;fill-rule:nonzero;fill:rgb(100%,65.882353%,65.490196%);fill-opacity:1;" d="M 373 206.570312 C 378 205.449219 385.269531 208.148438 388.398438 216.070312 C 391.53125 223.988281 398.761719 244.070312 399 249.449219 C 399.261719 255.078125 381.410156 272.449219 382.050781 272.148438 C 382.25 272.058594 376.359375 261.898438 376.359375 261.898438 L 385.210938 248.640625 L 380 234.058594 Z M 373 206.570312 "/>
<path style=" stroke:none;fill-rule:nonzero;fill:rgb(14.901961%,19.607843%,21.960784%);fill-opacity:1;" d="M 383.878906 391.609375 C 384.558594 391.871094 384.660156 394.101562 384.730469 396.671875 C 384.730469 398.621094 385.148438 402.03125 382.859375 402.671875 C 380.570312 403.308594 377.230469 402.929688 375.789062 401.070312 C 374 398.761719 372.789062 396.71875 370.21875 393.890625 C 367.988281 391.441406 365.578125 389.140625 364.710938 385.730469 C 363.921875 382.640625 364.628906 381.308594 366.710938 380.449219 C 369.609375 379.261719 373.769531 381.511719 376.339844 383.988281 C 377.828125 385.410156 383.210938 391.339844 383.878906 391.609375 Z M 383.878906 391.609375 "/>
<path style=" stroke:none;fill-rule:nonzero;fill:rgb(100%,65.882353%,65.490196%);fill-opacity:1;" d="M 376 385.648438 C 375.070312 384.28125 372.328125 382.308594 370.738281 382.769531 L 370.679688 382.769531 C 368.5 383.398438 368.890625 386.199219 370.53125 387.960938 C 372.171875 389.71875 376.191406 393.558594 376.191406 393.558594 L 378.089844 388.691406 Z M 376 385.648438 "/>
<path style=" stroke:none;fill-rule:nonzero;fill:rgb(14.901961%,19.607843%,21.960784%);fill-opacity:1;" d="M 358.679688 408.429688 C 359.679688 408.429688 360.121094 411.691406 360.300781 414.199219 C 360.449219 416.148438 361.179688 419.320312 360.5 420.75 C 359.820312 422.179688 357.179688 423.078125 353.140625 422.988281 C 350.511719 422.941406 346.410156 424.671875 343.589844 426.191406 C 340.769531 427.710938 337.589844 427.730469 334.488281 427.328125 C 330.890625 426.859375 327.191406 424.730469 326.628906 423.230469 C 326.070312 421.730469 326.820312 421.019531 335.359375 417.511719 C 335.429688 417.511719 344.359375 413.589844 348.53125 409.109375 Z M 358.679688 408.429688 "/>
<path style=" stroke:none;fill-rule:nonzero;fill:rgb(100%,65.882353%,65.490196%);fill-opacity:1;" d="M 335.359375 417.511719 L 332.261719 418.808594 C 332.019531 419.621094 332.328125 420.898438 336.101562 421.53125 C 341.851562 422.53125 356.78125 412.070312 356.78125 412.070312 C 356.78125 412.070312 356.320312 410.441406 355.871094 409.070312 L 348.53125 409.128906 C 344.359375 413.589844 335.429688 417.480469 335.359375 417.511719 Z M 335.359375 417.511719 "/>
<path style=" stroke:none;fill-rule:nonzero;fill:rgb(100%,65.882353%,65.490196%);fill-opacity:1;" d="M 387.480469 346.46875 C 386.949219 340.867188 385.78125 335.339844 384 330 C 384 330 386 316 387.171875 302.609375 C 389.339844 278.550781 387.949219 270.609375 383.359375 259.789062 C 383.359375 259.789062 342.640625 255.230469 339.628906 271.789062 C 335.921875 292.179688 340.441406 330.53125 341.710938 340.679688 C 342.628906 348.039062 343.398438 352 345.148438 367.960938 C 346.449219 379.808594 349.679688 406.140625 348.558594 409.058594 C 347.78125 411.058594 352.988281 414.519531 356.191406 412.441406 C 357.460938 411.609375 358.539062 411.039062 358.808594 409.921875 C 357.808594 399.871094 363.289062 372.730469 363.289062 364.261719 C 363.289062 351.261719 361.53125 345.039062 361.53125 345.039062 C 361.53125 345.039062 363.691406 310.730469 364.53125 305.320312 C 364.53125 305.320312 365.660156 316.148438 366.121094 323.539062 C 366.578125 330.929688 367.910156 337.859375 370.21875 351.539062 C 372.078125 362.539062 375.671875 386.101562 376.21875 393.539062 C 380.019531 397.449219 383.609375 395.109375 383.898438 393.269531 C 384 383.761719 388.628906 356.488281 387.480469 346.46875 Z M 387.480469 346.46875 "/>
<path style=" stroke:none;fill-rule:nonzero;fill:rgb(100%,65.882353%,65.490196%);fill-opacity:1;" d="M 354.46875 202.398438 L 356.171875 218.039062 L 369.910156 216.980469 L 368.570312 199.628906 Z M 354.46875 202.398438 "/>
<path style=" stroke:none;fill-rule:nonzero;fill:rgb(27.058824%,35.294118%,39.215686%);fill-opacity:1;" d="M 381.269531 263.449219 C 379.769531 260.210938 378.269531 248.921875 378.269531 248.921875 L 378.269531 245.5 C 382.699219 230.898438 383.558594 225.230469 383.328125 217.738281 C 383.191406 213.359375 378.050781 205.679688 372.761719 206.589844 C 371.378906 206.828125 370.378906 206.890625 369.078125 207.128906 C 368.910156 210.730469 361.910156 211.769531 355.179688 209.5 C 353.15625 209.878906 351.152344 210.371094 349.179688 210.96875 C 346.730469 211.878906 339.839844 224.878906 339.058594 233.050781 C 338.410156 239.679688 343.589844 244.050781 343.589844 244.050781 L 345.488281 252.53125 C 344.488281 257.308594 342.671875 262.789062 341.398438 272.878906 C 341.398438 272.878906 347.039062 281.929688 367.199219 279.671875 C 385.140625 277.671875 387.441406 269.988281 387.441406 269.988281 C 387.441406 269.988281 382.308594 265.699219 381.269531 263.449219 Z M 381.269531 263.449219 "/>
<path style=" stroke:none;fill-rule:nonzero;fill:rgb(100%,65.882353%,65.490196%);fill-opacity:1;" d="M 288.601562 199.050781 C 289.75 201.21875 302.378906 226.519531 307.070312 227.050781 C 311.761719 227.578125 346.171875 229.121094 346.171875 229.121094 C 356.050781 233.328125 355.261719 214.828125 350.929688 210.488281 C 347.125 210.363281 343.316406 210.644531 339.570312 211.328125 C 331.261719 212.699219 312.488281 214.328125 312.488281 214.328125 C 309.941406 210.800781 307.03125 207.53125 304.308594 204.128906 C 301.859375 201.070312 298.011719 197.339844 299.089844 193.128906 C 299.550781 191.425781 299.859375 189.6875 300.011719 187.929688 C 300.109375 183.050781 297.921875 181.578125 297.78125 182.109375 C 297.523438 182.980469 297.121094 183.800781 296.589844 184.539062 C 294.691406 186.898438 293.488281 184.078125 293.429688 183.160156 C 293.210938 180.078125 294.71875 175.800781 292.429688 175.261719 C 291.347656 175.101562 290.238281 175.242188 289.230469 175.671875 C 284.109375 177.871094 282.859375 181.730469 284.011719 187.078125 C 284.867188 191.296875 286.417969 195.34375 288.601562 199.050781 Z M 288.601562 199.050781 "/>
<path style=" stroke:none;fill-rule:nonzero;fill:rgb(14.901961%,19.607843%,21.960784%);fill-opacity:1;" d="M 344.328125 166.628906 C 348.328125 162.441406 358.5 159.820312 366.671875 164.160156 L 365.28125 164.46875 C 366.804688 164.726562 368.316406 165.058594 369.808594 165.46875 C 375.011719 166.941406 381.269531 172.648438 381.808594 182.671875 C 382.210938 190.398438 361.570312 195.738281 362 201.039062 L 350.179688 186.820312 C 339.851562 182.621094 340.199219 171 344.328125 166.628906 Z M 344.328125 166.628906 "/>
<path style=" stroke:none;fill-rule:nonzero;fill:rgb(94.901961%,56.078431%,56.078431%);fill-opacity:1;" d="M 344 185.359375 C 344 185.359375 341 190.011719 341.421875 190.488281 C 342.140625 190.957031 342.933594 191.296875 343.769531 191.488281 Z M 344 185.359375 "/>
<path style=" stroke:none;fill-rule:nonzero;fill:rgb(100%,65.882353%,65.490196%);fill-opacity:1;" d="M 353.128906 170.628906 C 350.191406 172.199219 345.128906 175.101562 343.941406 186.03125 C 342.75 197.25 345.300781 201.109375 346.839844 202.558594 C 347.890625 203.558594 353.210938 203.820312 355.96875 202.921875 C 359.429688 201.789062 366.898438 197.96875 370.339844 192.140625 C 374.398438 185.28125 375.128906 176.199219 370.339844 172.71875 C 363.480469 167.808594 355.621094 169.300781 353.128906 170.628906 Z M 353.128906 170.628906 "/>
<path style=" stroke:none;fill-rule:nonzero;fill:rgb(14.901961%,19.607843%,21.960784%);fill-opacity:1;" d="M 390 186.5 C 390 184.082031 388.546875 181.902344 386.320312 180.96875 C 386.761719 180.222656 386.996094 179.367188 387 178.5 C 386.992188 176.878906 386.199219 175.359375 384.875 174.425781 C 383.546875 173.496094 381.847656 173.265625 380.320312 173.808594 C 378.601562 169.601562 375.699219 166.191406 372.210938 165.078125 C 364.863281 162.789062 356.917969 163.390625 350 166.761719 C 350 166.761719 343 173.621094 351.890625 183.539062 C 351.082031 183.757812 350.429688 184.351562 350.140625 185.140625 C 349.675781 186.503906 350.398438 187.988281 351.761719 188.460938 L 353.03125 184.769531 C 353.03125 184.769531 354.789062 180.769531 358.230469 181.851562 C 361.671875 182.929688 361.449219 187.558594 358.769531 189.949219 C 357.5 191.183594 355.691406 191.699219 353.960938 191.320312 L 353.429688 191.160156 C 353.433594 192.25 353.589844 193.335938 353.898438 194.378906 C 351.765625 195.671875 350.65625 198.152344 351.109375 200.605469 C 351.566406 203.058594 353.492188 204.976562 355.949219 205.417969 C 358.40625 205.855469 360.878906 204.730469 362.160156 202.589844 C 362.675781 204.757812 364.5625 206.324219 366.789062 206.429688 C 369.015625 206.535156 371.042969 205.152344 371.761719 203.039062 C 372.480469 203.335938 373.25 203.492188 374.03125 203.488281 C 376.957031 203.488281 379.453125 201.375 379.941406 198.488281 L 380 198.488281 C 382.761719 198.488281 385 196.25 385 193.488281 C 384.996094 193.128906 384.957031 192.773438 384.878906 192.421875 C 387.816406 191.984375 389.992188 189.46875 390 186.5 Z M 390 186.5 "/>
<path style=" stroke:none;fill-rule:nonzero;fill:rgb(72.941176%,40.784314%,78.431373%);fill-opacity:1;" d="M 378.289062 248.921875 C 375.421875 253.351562 355.621094 258.671875 345.53125 252.570312 C 345.53125 252.570312 331.761719 276.398438 329.96875 296.671875 C 329.96875 296.671875 342.96875 311.328125 371.5 306.761719 C 392.339844 303.421875 398.980469 290.109375 398.980469 290.109375 C 396.96875 280.910156 393.492188 272.09375 388.679688 264 C 385.851562 259.289062 379.761719 253.320312 378.289062 248.921875 Z M 378.289062 248.921875 "/>
<use xlink:href="#surface47" mask="url(#mask14)"/>
<path style=" stroke:none;fill-rule:nonzero;fill:rgb(72.941176%,40.784314%,78.431373%);fill-opacity:1;" d="M 385.371094 303.671875 L 383.371094 303.300781 C 383.371094 303.300781 380.460938 276.699219 368.671875 253.800781 L 370.019531 253.410156 C 370.019531 253.410156 378.648438 267.789062 383.371094 281.828125 C 388.089844 295.871094 385.371094 303.671875 385.371094 303.671875 Z M 385.371094 303.671875 "/>
<use xlink:href="#surface50" mask="url(#mask15)"/>
<path style=" stroke:none;fill-rule:nonzero;fill:rgb(72.941176%,40.784314%,78.431373%);fill-opacity:1;" d="M 352.738281 309.410156 L 354.140625 307.261719 C 354.140625 307.261719 352.300781 269.941406 355.351562 255.261719 L 354.351562 255.191406 C 354.351562 255.191406 348.710938 275.738281 352.738281 309.410156 Z M 352.738281 309.410156 "/>
<use xlink:href="#surface53" mask="url(#mask16)"/>
<path style=" stroke:none;fill-rule:nonzero;fill:rgb(72.941176%,40.784314%,78.431373%);fill-opacity:1;" d="M 352.621094 307.050781 C 352.691406 308.558594 352.738281 309.410156 352.738281 309.410156 C 337.878906 308.210938 334.921875 303.050781 334.921875 303.050781 C 335.011719 302.308594 335.109375 301.578125 335.210938 300.839844 C 338.761719 275.839844 349.390625 254.238281 349.390625 254.238281 C 351.019531 254.726562 352.695312 255.042969 354.390625 255.191406 C 351 267.28125 352.179688 298.269531 352.621094 307.050781 Z M 352.621094 307.050781 "/>
<use xlink:href="#surface56" mask="url(#mask17)"/>
<path style=" stroke:none;fill-rule:nonzero;fill:rgb(72.941176%,40.784314%,78.431373%);fill-opacity:1;" d="M 376.558594 306.75 C 368.21875 310.921875 359.148438 309.410156 359.148438 309.410156 C 359.148438 308.808594 359.050781 308.210938 359.011719 307.609375 C 357.320312 283.839844 359.839844 260.21875 360.421875 255.210938 C 361.929688 255.101562 363.421875 254.898438 364.859375 254.648438 C 372.488281 272.988281 375.859375 300.101562 376.449219 305.710938 C 376.519531 306.390625 376.558594 306.75 376.558594 306.75 Z M 376.558594 306.75 "/>
<path style=" stroke:none;fill-rule:nonzero;fill:rgb(72.941176%,40.784314%,78.431373%);fill-opacity:1;" d="M 396.738281 295.660156 C 393.554688 299.097656 389.679688 301.824219 385.371094 303.660156 C 385.371094 303.238281 385.300781 302.820312 385.261719 302.398438 C 383.261719 281.171875 371.46875 256.339844 370.050781 253.398438 C 371.460938 252.980469 372.84375 252.464844 374.179688 251.851562 C 386.53125 260.851562 394.371094 286.929688 396.289062 293.910156 C 396.589844 295 396.738281 295.660156 396.738281 295.660156 Z M 396.738281 295.660156 "/>
<path style=" stroke:none;fill-rule:nonzero;fill:rgb(21.568627%,27.843137%,30.980392%);fill-opacity:1;" d="M 344.660156 248.679688 L 345.21875 253.121094 C 350.574219 255.417969 356.414062 256.363281 362.21875 255.871094 C 371.96875 255.078125 377.441406 251.769531 378.320312 248.871094 L 378.320312 245.449219 C 378.320312 245.449219 364.128906 256.199219 344.660156 248.679688 Z M 344.660156 248.679688 "/>
</g>
</svg>
