<?xml version="1.0" encoding="UTF-8"?>
<svg xmlns="http://www.w3.org/2000/svg" xmlns:xlink="http://www.w3.org/1999/xlink" width="500px" height="500px" viewBox="0 0 500 500" version="1.1">
<defs>
<filter id="alpha" filterUnits="objectBoundingBox" x="0%" y="0%" width="100%" height="100%">
  <feColorMatrix type="matrix" in="SourceGraphic" values="0 0 0 0 1 0 0 0 0 1 0 0 0 0 1 0 0 0 1 0"/>
</filter>
<mask id="mask0">
  <g filter="url(#alpha)">
<rect x="0" y="0" width="500" height="500" style="fill:rgb(0%,0%,0%);fill-opacity:0.701961;stroke:none;"/>
  </g>
</mask>
<clipPath id="clip1">
  <rect x="0" y="0" width="500" height="500"/>
</clipPath>
<g id="surface5" clip-path="url(#clip1)">
<path style=" stroke:none;fill-rule:nonzero;fill:rgb(100%,100%,100%);fill-opacity:1;" d="M 430 175.648438 C 430 175.648438 397.351562 112.648438 329.359375 91.46875 C 261.371094 70.289062 230 94.148438 195.199219 120 C 167.828125 140.339844 146.421875 168.730469 124.011719 194.058594 C 103.488281 217.25 73.390625 236.058594 63.929688 267.058594 C 51.929688 306.269531 79.28125 346.261719 111.640625 366.699219 C 156.800781 395.230469 200.5 373.558594 247.640625 363.449219 L 247.898438 363.390625 C 254.703125 361.882812 261.609375 360.898438 268.558594 360.441406 C 323.28125 357.328125 362.609375 395.75 402.390625 351.441406 C 442.171875 307.128906 448.371094 225.109375 430 175.648438 Z M 430 175.648438 "/>
</g>
<mask id="mask1">
  <g filter="url(#alpha)">
<rect x="0" y="0" width="500" height="500" style="fill:rgb(0%,0%,0%);fill-opacity:0.4;stroke:none;"/>
  </g>
</mask>
<clipPath id="clip2">
  <rect x="0" y="0" width="500" height="500"/>
</clipPath>
<g id="surface8" clip-path="url(#clip2)">
<path style=" stroke:none;fill-rule:nonzero;fill:rgb(100%,100%,100%);fill-opacity:1;" d="M 235.671875 182.421875 C 231.5 180.148438 229.601562 182.039062 228.089844 180.148438 C 226.578125 178.261719 232.261719 173.320312 220.878906 168.390625 C 220.878906 168.390625 220.121094 157.78125 204.578125 157.390625 C 189.039062 157 193.210938 168 189 170.671875 C 184.789062 173.339844 183.691406 169.148438 179.519531 171.800781 C 175.351562 174.449219 177.238281 179.800781 173.828125 180.519531 C 170.421875 181.238281 165.828125 177.109375 161.699219 179.769531 C 157.570312 182.429688 157.53125 184.691406 155.628906 184.691406 C 153.730469 184.691406 149.941406 183.179688 147.628906 184.691406 C 145.320312 186.199219 142.699219 188.109375 142.699219 188.109375 L 238.699219 188.109375 C 238.699219 188.109375 239.839844 184.691406 235.671875 182.421875 Z M 235.671875 182.421875 "/>
<path style=" stroke:none;fill-rule:nonzero;fill:rgb(100%,100%,100%);fill-opacity:1;" d="M 429.921875 259.539062 C 423.738281 256.171875 420.921875 258.980469 418.679688 256.171875 C 416.441406 253.359375 424.859375 246.058594 408.011719 238.761719 C 408.011719 238.761719 406.890625 223.03125 383.851562 222.46875 C 360.808594 221.910156 367 238.191406 360.851562 242.128906 C 354.699219 246.070312 352.988281 239.878906 346.851562 243.808594 C 340.710938 247.738281 343.480469 255.609375 338.421875 256.730469 C 333.359375 257.851562 326.628906 251.679688 320.421875 255.609375 C 314.210938 259.539062 314.238281 262.910156 311.421875 262.910156 C 308.601562 262.910156 302.988281 260.660156 299.621094 262.910156 C 296.25 265.160156 292.320312 267.96875 292.320312 267.96875 L 434.410156 267.96875 C 434.410156 267.96875 436.101562 262.910156 429.921875 259.539062 Z M 429.921875 259.539062 "/>
<path style=" stroke:none;fill-rule:nonzero;fill:rgb(100%,100%,100%);fill-opacity:1;" d="M 214.679688 320.511719 C 208.5 317.140625 205.679688 319.949219 203.441406 317.140625 C 201.199219 314.328125 209.621094 307.03125 192.769531 299.71875 C 192.769531 299.71875 191.648438 284 168.621094 283.429688 C 145.589844 282.859375 151.761719 299.160156 145.621094 303.101562 C 139.480469 307.039062 137.75 300.851562 131.570312 304.78125 C 125.390625 308.710938 128.199219 316.578125 123.148438 317.699219 C 118.101562 318.820312 111.351562 312.648438 105.148438 316.578125 C 98.949219 320.511719 98.96875 323.878906 96.148438 323.878906 C 93.328125 323.878906 87.730469 321.628906 84.359375 323.878906 C 80.988281 326.128906 77.050781 328.941406 77.050781 328.941406 L 219.171875 328.941406 C 219.171875 328.941406 220.859375 323.878906 214.679688 320.511719 Z M 214.679688 320.511719 "/>
</g>
<mask id="mask2">
  <g filter="url(#alpha)">
<rect x="0" y="0" width="500" height="500" style="fill:rgb(0%,0%,0%);fill-opacity:0.301961;stroke:none;"/>
  </g>
</mask>
<clipPath id="clip3">
  <rect x="0" y="0" width="500" height="500"/>
</clipPath>
<g id="surface11" clip-path="url(#clip3)">
<path style=" stroke:none;fill-rule:nonzero;fill:rgb(0%,0%,0%);fill-opacity:1;" d="M 303.410156 323.160156 C 327.609375 320.25 358.191406 318.738281 381.328125 317.960938 C 376.570312 316.769531 366.128906 313.5 360.039062 306.390625 C 358.480469 304.570312 355.609375 301.210938 352.039062 296.96875 C 335.039062 308.710938 315.160156 315.28125 302.308594 318.609375 Z M 303.410156 323.160156 "/>
<path style=" stroke:none;fill-rule:nonzero;fill:rgb(0%,0%,0%);fill-opacity:1;" d="M 300.671875 312.199219 C 322.671875 304.898438 330.179688 287.921875 332.46875 274.011719 L 308.871094 246.238281 C 308.082031 245.964844 307.277344 245.753906 306.460938 245.601562 C 307.261719 261.320312 301.558594 276.898438 294.96875 289.378906 Z M 300.671875 312.199219 "/>
<path style=" stroke:none;fill-rule:nonzero;fill:rgb(0%,0%,0%);fill-opacity:1;" d="M 383.828125 350.820312 C 366 348.730469 306.828125 338.191406 281.488281 333.628906 L 281.488281 326.628906 C 279.570312 327.050781 277.761719 327.480469 276.101562 327.929688 L 276.101562 335.558594 L 276.191406 335.558594 L 276.441406 335.640625 L 279.140625 336.46875 L 281.429688 337.171875 C 295.699219 341.488281 337.019531 353.601562 389.578125 365.28125 C 397.171875 366.972656 404.929688 367.828125 412.710938 367.828125 L 435 367.828125 L 435 351.398438 C 421.941406 352 399.300781 352.640625 383.828125 350.820312 Z M 383.828125 350.820312 "/>
<path style=" stroke:none;fill-rule:nonzero;fill:rgb(0%,0%,0%);fill-opacity:1;" d="M 302.589844 336.011719 L 342.980469 334.21875 L 314.699219 327.03125 L 299 327.03125 Z M 302.589844 336.011719 "/>
</g>
<mask id="mask3">
  <g filter="url(#alpha)">
<rect x="0" y="0" width="500" height="500" style="fill:rgb(0%,0%,0%);fill-opacity:0.501961;stroke:none;"/>
  </g>
</mask>
<clipPath id="clip4">
  <rect x="0" y="0" width="500" height="500"/>
</clipPath>
<g id="surface14" clip-path="url(#clip4)">
<path style=" stroke:none;fill-rule:nonzero;fill:rgb(100%,100%,100%);fill-opacity:1;" d="M 289.929688 423.089844 C 289.929688 416.121094 250.910156 410.46875 202.78125 410.46875 C 154.648438 410.46875 115.628906 416.121094 115.628906 423.089844 C 115.628906 430.058594 154.648438 435.710938 202.78125 435.710938 C 250.910156 435.710938 289.929688 430.058594 289.929688 423.089844 Z M 289.929688 423.089844 "/>
</g>
<clipPath id="clip5">
  <path d="M 167 337 L 182 337 L 182 345 L 167 345 Z M 167 337 "/>
</clipPath>
<clipPath id="clip6">
  <path d="M 167.148438 336.75 C 167.148438 336.75 170.769531 345.679688 170.148438 353.539062 C 169.53125 361.398438 167.148438 374.148438 168.871094 379.46875 C 170.589844 384.789062 174.398438 405.941406 174.398438 405.941406 C 174.398438 405.941406 172.488281 408.058594 172.488281 409.941406 C 172.488281 411.820312 173.128906 421.410156 173.128906 421.410156 L 174.398438 421.410156 L 175.679688 411.851562 C 176.746094 412.324219 177.527344 413.265625 177.800781 414.398438 C 178.011719 416.101562 178.648438 420.988281 179.5 421.199219 C 180.558594 421.308594 181.628906 421.308594 182.691406 421.199219 C 182.691406 421.199219 183.960938 420.351562 183.328125 419.710938 C 182.414062 418.878906 181.8125 417.753906 181.628906 416.53125 C 181.199219 414.609375 180.140625 411.851562 180.140625 408.238281 L 180.140625 376.238281 C 180.140625 366.890625 181.410156 359.660156 181.839844 351.371094 C 182.113281 346.699219 181.96875 342.015625 181.410156 337.371094 Z M 167.148438 336.75 "/>
</clipPath>
<clipPath id="clip7">
  <path d="M 167 336 L 184 336 L 184 422 L 167 422 Z M 167 336 "/>
</clipPath>
<clipPath id="clip8">
  <path d="M 167.148438 336.75 C 167.148438 336.75 170.769531 345.679688 170.148438 353.539062 C 169.53125 361.398438 167.148438 374.148438 168.871094 379.46875 C 170.589844 384.789062 174.398438 405.941406 174.398438 405.941406 C 174.398438 405.941406 172.488281 408.058594 172.488281 409.941406 C 172.488281 411.820312 173.128906 421.410156 173.128906 421.410156 L 174.398438 421.410156 L 175.679688 411.851562 C 176.746094 412.324219 177.527344 413.265625 177.800781 414.398438 C 178.011719 416.101562 178.648438 420.988281 179.5 421.199219 C 180.558594 421.308594 181.628906 421.308594 182.691406 421.199219 C 182.691406 421.199219 183.960938 420.351562 183.328125 419.710938 C 182.414062 418.878906 181.8125 417.753906 181.628906 416.53125 C 181.199219 414.609375 180.140625 411.851562 180.140625 408.238281 L 180.140625 376.238281 C 180.140625 366.890625 181.410156 359.660156 181.839844 351.371094 C 182.113281 346.699219 181.96875 342.015625 181.410156 337.371094 Z M 167.148438 336.75 "/>
</clipPath>
<mask id="mask4">
  <g filter="url(#alpha)">
<rect x="0" y="0" width="500" height="500" style="fill:rgb(0%,0%,0%);fill-opacity:0.501961;stroke:none;"/>
  </g>
</mask>
<clipPath id="clip9">
  <rect x="0" y="0" width="500" height="500"/>
</clipPath>
<g id="surface17" clip-path="url(#clip9)">
<path style=" stroke:none;fill-rule:nonzero;fill:rgb(100%,100%,100%);fill-opacity:1;" d="M 167.558594 337.851562 C 168.273438 339.863281 168.859375 341.921875 169.308594 344.011719 L 181.890625 344.011719 C 181.800781 340.921875 181.558594 338.738281 181.449219 337.851562 Z M 167.558594 337.851562 "/>
</g>
<clipPath id="clip10">
  <path d="M 187 337 L 204 337 L 204 345 L 187 345 Z M 187 337 "/>
</clipPath>
<clipPath id="clip11">
  <path d="M 187.609375 338.089844 C 187.609375 338.089844 189.609375 344.269531 189.25 347.179688 C 188.890625 350.089844 179.429688 358.988281 178.339844 364.269531 C 177.25 369.550781 174.699219 381.539062 173.800781 386.628906 C 172.898438 391.71875 172.140625 394.71875 170.601562 396.089844 C 169.058594 397.460938 166.230469 396.199219 164.089844 398.628906 C 161.949219 401.058594 155.691406 408.53125 155.691406 408.53125 L 156.558594 409.300781 L 163.910156 404.808594 C 163.910156 404.808594 167.300781 406.101562 167.371094 408.101562 C 167.539062 410.878906 167.929688 413.640625 168.53125 416.359375 C 168.980469 418.03125 172.070312 421.300781 174.050781 421.78125 C 176.03125 422.261719 175.980469 419.78125 175.191406 419.308594 C 174.398438 418.839844 173.269531 416.308594 173.449219 413.191406 C 173.628906 410.070312 174.878906 400.890625 176.101562 398.769531 C 177.320312 396.648438 188.160156 373.769531 193.789062 366.449219 C 199.421875 359.128906 201.238281 352.449219 202.519531 350.628906 C 203.800781 348.808594 203.789062 344.449219 203.789062 342.089844 C 203.785156 340.628906 203.664062 339.171875 203.429688 337.730469 Z M 187.609375 338.089844 "/>
</clipPath>
<clipPath id="clip12">
  <path d="M 155 337 L 204 337 L 204 422 L 155 422 Z M 155 337 "/>
</clipPath>
<clipPath id="clip13">
  <path d="M 187.609375 338.089844 C 187.609375 338.089844 189.609375 344.269531 189.25 347.179688 C 188.890625 350.089844 179.429688 358.988281 178.339844 364.269531 C 177.25 369.550781 174.699219 381.539062 173.800781 386.628906 C 172.898438 391.71875 172.140625 394.71875 170.601562 396.089844 C 169.058594 397.460938 166.230469 396.199219 164.089844 398.628906 C 161.949219 401.058594 155.691406 408.53125 155.691406 408.53125 L 156.558594 409.300781 L 163.910156 404.808594 C 163.910156 404.808594 167.300781 406.101562 167.371094 408.101562 C 167.539062 410.878906 167.929688 413.640625 168.53125 416.359375 C 168.980469 418.03125 172.070312 421.300781 174.050781 421.78125 C 176.03125 422.261719 175.980469 419.78125 175.191406 419.308594 C 174.398438 418.839844 173.269531 416.308594 173.449219 413.191406 C 173.628906 410.070312 174.878906 400.890625 176.101562 398.769531 C 177.320312 396.648438 188.160156 373.769531 193.789062 366.449219 C 199.421875 359.128906 201.238281 352.449219 202.519531 350.628906 C 203.800781 348.808594 203.789062 344.449219 203.789062 342.089844 C 203.785156 340.628906 203.664062 339.171875 203.429688 337.730469 Z M 187.609375 338.089844 "/>
</clipPath>
<mask id="mask5">
  <g filter="url(#alpha)">
<rect x="0" y="0" width="500" height="500" style="fill:rgb(0%,0%,0%);fill-opacity:0.501961;stroke:none;"/>
  </g>
</mask>
<clipPath id="clip14">
  <rect x="0" y="0" width="500" height="500"/>
</clipPath>
<g id="surface20" clip-path="url(#clip14)">
<path style=" stroke:none;fill-rule:nonzero;fill:rgb(100%,100%,100%);fill-opacity:1;" d="M 187.609375 338.089844 C 188.226562 340.027344 188.710938 342.007812 189.058594 344.011719 L 203.769531 344.011719 C 203.769531 343.300781 203.769531 342.640625 203.769531 342.089844 C 203.761719 340.671875 203.648438 339.253906 203.429688 337.851562 L 198.109375 337.851562 Z M 187.609375 338.089844 "/>
</g>
</defs>
<g id="surface1">
<path style=" stroke:none;fill-rule:nonzero;fill:rgb(57.254902%,89.019608%,66.27451%);fill-opacity:1;" d="M 430 175.648438 C 430 175.648438 397.351562 112.648438 329.359375 91.46875 C 261.371094 70.289062 230 94.148438 195.199219 120 C 167.828125 140.339844 146.421875 168.730469 124.011719 194.058594 C 103.488281 217.25 73.390625 236.058594 63.929688 267.058594 C 51.929688 306.269531 79.28125 346.261719 111.640625 366.699219 C 156.800781 395.230469 200.5 373.558594 247.640625 363.449219 L 247.898438 363.390625 C 254.703125 361.882812 261.609375 360.898438 268.558594 360.441406 C 323.28125 357.328125 362.609375 395.75 402.390625 351.441406 C 442.171875 307.128906 448.371094 225.109375 430 175.648438 Z M 430 175.648438 "/>
<use xlink:href="#surface5" mask="url(#mask0)"/>
<path style=" stroke:none;fill-rule:nonzero;fill:rgb(57.254902%,89.019608%,66.27451%);fill-opacity:1;" d="M 235.671875 182.421875 C 231.5 180.148438 229.601562 182.039062 228.089844 180.148438 C 226.578125 178.261719 232.261719 173.320312 220.878906 168.390625 C 220.878906 168.390625 220.121094 157.78125 204.578125 157.390625 C 189.039062 157 193.210938 168 189 170.671875 C 184.789062 173.339844 183.691406 169.148438 179.519531 171.800781 C 175.351562 174.449219 177.238281 179.800781 173.828125 180.519531 C 170.421875 181.238281 165.828125 177.109375 161.699219 179.769531 C 157.570312 182.429688 157.53125 184.691406 155.628906 184.691406 C 153.730469 184.691406 149.941406 183.179688 147.628906 184.691406 C 145.320312 186.199219 142.699219 188.109375 142.699219 188.109375 L 238.699219 188.109375 C 238.699219 188.109375 239.839844 184.691406 235.671875 182.421875 Z M 235.671875 182.421875 "/>
<path style=" stroke:none;fill-rule:nonzero;fill:rgb(57.254902%,89.019608%,66.27451%);fill-opacity:1;" d="M 429.921875 259.539062 C 423.738281 256.171875 420.921875 258.980469 418.679688 256.171875 C 416.441406 253.359375 424.859375 246.058594 408.011719 238.761719 C 408.011719 238.761719 406.890625 223.03125 383.851562 222.46875 C 360.808594 221.910156 367 238.191406 360.851562 242.128906 C 354.699219 246.070312 352.988281 239.878906 346.851562 243.808594 C 340.710938 247.738281 343.480469 255.609375 338.421875 256.730469 C 333.359375 257.851562 326.628906 251.679688 320.421875 255.609375 C 314.210938 259.539062 314.238281 262.910156 311.421875 262.910156 C 308.601562 262.910156 302.988281 260.660156 299.621094 262.910156 C 296.25 265.160156 292.320312 267.96875 292.320312 267.96875 L 434.410156 267.96875 C 434.410156 267.96875 436.101562 262.910156 429.921875 259.539062 Z M 429.921875 259.539062 "/>
<path style=" stroke:none;fill-rule:nonzero;fill:rgb(57.254902%,89.019608%,66.27451%);fill-opacity:1;" d="M 214.679688 320.511719 C 208.5 317.140625 205.679688 319.949219 203.441406 317.140625 C 201.199219 314.328125 209.621094 307.03125 192.769531 299.71875 C 192.769531 299.71875 191.648438 284 168.621094 283.429688 C 145.589844 282.859375 151.761719 299.160156 145.621094 303.101562 C 139.480469 307.039062 137.75 300.851562 131.570312 304.78125 C 125.390625 308.710938 128.199219 316.578125 123.148438 317.699219 C 118.101562 318.820312 111.351562 312.648438 105.148438 316.578125 C 98.949219 320.511719 98.96875 323.878906 96.148438 323.878906 C 93.328125 323.878906 87.730469 321.628906 84.359375 323.878906 C 80.988281 326.128906 77.050781 328.941406 77.050781 328.941406 L 219.171875 328.941406 C 219.171875 328.941406 220.859375 323.878906 214.679688 320.511719 Z M 214.679688 320.511719 "/>
<use xlink:href="#surface8" mask="url(#mask1)"/>
<path style=" stroke:none;fill-rule:nonzero;fill:rgb(57.254902%,89.019608%,66.27451%);fill-opacity:1;" d="M 383.828125 318.511719 C 383.828125 318.511719 368.121094 315.808594 360.039062 306.390625 C 351.960938 296.96875 308.871094 246.238281 308.871094 246.238281 C 308.871094 246.238281 300.789062 243.101562 284.179688 246.238281 L 303.929688 325.238281 Z M 383.828125 318.511719 "/>
<path style=" stroke:none;fill-rule:nonzero;fill:rgb(57.254902%,89.019608%,66.27451%);fill-opacity:1;" d="M 415.699219 317.160156 C 415.699219 317.160156 312.460938 318.058594 276.101562 327.929688 L 276.101562 335.558594 C 276.101562 335.558594 324.160156 350.78125 389.640625 365.328125 C 397.234375 367.023438 404.988281 367.878906 412.769531 367.878906 L 435 367.878906 L 435 316.710938 Z M 415.699219 317.160156 "/>
<use xlink:href="#surface11" mask="url(#mask2)"/>
<path style="fill-rule:nonzero;fill:rgb(14.901961%,19.607843%,21.960784%);fill-opacity:1;stroke-width:1;stroke-linecap:round;stroke-linejoin:round;stroke:rgb(14.901961%,19.607843%,21.960784%);stroke-opacity:1;stroke-miterlimit:4;" d="M 73 360.101562 L 435 360.101562 L 435 385.101562 L 73 385.101562 Z M 73 360.101562 "/>
<path style="fill-rule:nonzero;fill:rgb(14.901961%,19.607843%,21.960784%);fill-opacity:1;stroke-width:1;stroke-linecap:round;stroke-linejoin:round;stroke:rgb(14.901961%,19.607843%,21.960784%);stroke-opacity:1;stroke-miterlimit:4;" d="M 73 268.101562 L 435 268.101562 L 435 274.101562 L 73 274.101562 Z M 73 268.101562 "/>
<path style="fill:none;stroke-width:1;stroke-linecap:round;stroke-linejoin:round;stroke:rgb(14.901961%,19.607843%,21.960784%);stroke-opacity:1;stroke-miterlimit:4;" d="M 118 100.101562 L 118 374.101562 "/>
<path style="fill:none;stroke-width:1;stroke-linecap:round;stroke-linejoin:round;stroke:rgb(14.901961%,19.607843%,21.960784%);stroke-opacity:1;stroke-miterlimit:4;" d="M 255 100.101562 L 255 374.101562 "/>
<path style="fill:none;stroke-width:1;stroke-linecap:round;stroke-linejoin:round;stroke:rgb(14.901961%,19.607843%,21.960784%);stroke-opacity:1;stroke-miterlimit:4;" d="M 392 100.101562 L 392 374.101562 "/>
<path style="fill:none;stroke-width:1;stroke-linecap:round;stroke-linejoin:round;stroke:rgb(14.901961%,19.607843%,21.960784%);stroke-opacity:1;stroke-miterlimit:4;" d="M 76.511719 171.101562 C 196 171 316 171 435 171.101562 "/>
<path style="fill:none;stroke-width:1;stroke-linecap:butt;stroke-linejoin:miter;stroke:rgb(14.901961%,19.607843%,21.960784%);stroke-opacity:1;stroke-miterlimit:10;" d="M 158.46875 212.871094 L 161.609375 217.339844 "/>
<path style="fill:none;stroke-width:1;stroke-linecap:butt;stroke-linejoin:miter;stroke:rgb(14.901961%,19.607843%,21.960784%);stroke-opacity:1;stroke-miterlimit:10;" d="M 129.339844 171.398438 L 154.371094 207.039062 "/>
<path style="fill:none;stroke-width:1;stroke-linecap:butt;stroke-linejoin:miter;stroke:rgb(14.901961%,19.607843%,21.960784%);stroke-opacity:1;stroke-miterlimit:10;" d="M 296.851562 317.339844 L 299.988281 321.808594 "/>
<path style="fill:none;stroke-width:1;stroke-linecap:butt;stroke-linejoin:miter;stroke:rgb(14.901961%,19.607843%,21.960784%);stroke-opacity:1;stroke-miterlimit:10;" d="M 267.71875 275.871094 L 292.75 311.511719 "/>
<path style="fill:none;stroke-width:1;stroke-linecap:butt;stroke-linejoin:miter;stroke:rgb(14.901961%,19.607843%,21.960784%);stroke-opacity:1;stroke-miterlimit:10;" d="M 308.328125 355.621094 L 311.480469 360.101562 "/>
<path style="fill:none;stroke-width:1;stroke-linecap:butt;stroke-linejoin:miter;stroke:rgb(14.901961%,19.607843%,21.960784%);stroke-opacity:1;stroke-miterlimit:10;" d="M 279.199219 314.148438 L 304.238281 349.789062 "/>
<path style="fill:none;stroke-width:1;stroke-linecap:butt;stroke-linejoin:miter;stroke:rgb(14.901961%,19.607843%,21.960784%);stroke-opacity:1;stroke-miterlimit:10;" d="M 194.570312 148.328125 L 197.710938 152.800781 "/>
<path style="fill:none;stroke-width:1;stroke-linecap:butt;stroke-linejoin:miter;stroke:rgb(14.901961%,19.607843%,21.960784%);stroke-opacity:1;stroke-miterlimit:10;" d="M 165.441406 106.859375 L 190.46875 142.5 "/>
<path style="fill:none;stroke-width:1;stroke-linecap:butt;stroke-linejoin:miter;stroke:rgb(14.901961%,19.607843%,21.960784%);stroke-opacity:1;stroke-miterlimit:10;" d="M 313.171875 127.238281 L 316.308594 131.71875 "/>
<path style="fill:none;stroke-width:1;stroke-linecap:butt;stroke-linejoin:miter;stroke:rgb(14.901961%,19.607843%,21.960784%);stroke-opacity:1;stroke-miterlimit:10;" d="M 284.039062 85.769531 L 309.070312 121.410156 "/>
<path style="fill:none;stroke-width:1;stroke-linecap:butt;stroke-linejoin:miter;stroke:rgb(14.901961%,19.607843%,21.960784%);stroke-opacity:1;stroke-miterlimit:10;" d="M 425.929688 313.511719 L 429.070312 317.980469 "/>
<path style="fill:none;stroke-width:1;stroke-linecap:butt;stroke-linejoin:miter;stroke:rgb(14.901961%,19.607843%,21.960784%);stroke-opacity:1;stroke-miterlimit:10;" d="M 396.800781 272.039062 L 421.828125 307.679688 "/>
<path style="fill:none;stroke-width:1;stroke-linecap:butt;stroke-linejoin:miter;stroke:rgb(14.901961%,19.607843%,21.960784%);stroke-opacity:1;stroke-miterlimit:10;" d="M 152.449219 316.238281 L 155.589844 320.71875 "/>
<path style="fill:none;stroke-width:1;stroke-linecap:butt;stroke-linejoin:miter;stroke:rgb(14.901961%,19.607843%,21.960784%);stroke-opacity:1;stroke-miterlimit:10;" d="M 123.320312 274.769531 L 148.359375 310.410156 "/>
<path style="fill:none;stroke-width:1;stroke-linecap:butt;stroke-linejoin:miter;stroke:rgb(14.901961%,19.607843%,21.960784%);stroke-opacity:1;stroke-miterlimit:10;" d="M 174.878906 133.011719 L 178.019531 137.488281 "/>
<path style="fill:none;stroke-width:1;stroke-linecap:butt;stroke-linejoin:miter;stroke:rgb(14.901961%,19.607843%,21.960784%);stroke-opacity:1;stroke-miterlimit:10;" d="M 145.75 91.539062 L 170.78125 127.179688 "/>
<path style="fill:none;stroke-width:1;stroke-linecap:butt;stroke-linejoin:miter;stroke:rgb(14.901961%,19.607843%,21.960784%);stroke-opacity:1;stroke-miterlimit:10;" d="M 337.621094 246.339844 L 340.761719 250.820312 "/>
<path style="fill:none;stroke-width:1;stroke-linecap:butt;stroke-linejoin:miter;stroke:rgb(14.901961%,19.607843%,21.960784%);stroke-opacity:1;stroke-miterlimit:10;" d="M 308.488281 204.871094 L 333.53125 240.511719 "/>
<path style=" stroke:none;fill-rule:nonzero;fill:rgb(14.901961%,19.607843%,21.960784%);fill-opacity:1;" d="M 75.730469 296.761719 C 77.160156 297.390625 80.730469 297.308594 80.730469 297.308594 C 80.730469 297.308594 79.980469 295.011719 79.910156 294.871094 C 79.140625 293.25 76.699219 290.589844 74.71875 290.871094 C 74.046875 290.976562 73.453125 291.363281 73.085938 291.9375 C 72.722656 292.511719 72.621094 293.214844 72.808594 293.871094 C 73.324219 295.207031 74.386719 296.257812 75.730469 296.761719 Z M 75.730469 296.761719 "/>
<path style=" stroke:none;fill-rule:nonzero;fill:rgb(14.901961%,19.607843%,21.960784%);fill-opacity:1;" d="M 121.761719 284.800781 C 119.761719 284.578125 117.398438 287.308594 116.679688 288.941406 C 116.609375 289.078125 115.878906 291.398438 115.921875 291.398438 C 115.550781 291.828125 115.148438 292.289062 114.71875 292.808594 C 113.941406 293.808594 113.070312 294.808594 112.199219 296.101562 C 111.25 297.433594 110.378906 298.824219 109.589844 300.261719 C 108.699219 301.859375 107.953125 303.53125 107.359375 305.261719 C 107.363281 305.28125 107.363281 305.300781 107.359375 305.320312 C 107.359375 304.738281 107.359375 303.101562 107.359375 302.96875 C 107.128906 301.199219 105.648438 297.910156 103.679688 297.539062 C 103.015625 297.4375 102.339844 297.621094 101.816406 298.046875 C 101.296875 298.472656 100.980469 299.097656 100.949219 299.769531 C 101.003906 301.226562 101.699219 302.585938 102.851562 303.480469 C 103.96875 304.480469 107.089844 305.480469 107.339844 305.53125 C 106.769531 307.320312 106.320312 309.148438 106 311 C 105.808594 312.070312 105.648438 313.148438 105.5 314.238281 C 105.5 313.738281 105.5 313.238281 105.5 313.238281 C 105.269531 311.46875 103.78125 308.179688 101.808594 307.808594 C 101.152344 307.703125 100.476562 307.882812 99.957031 308.300781 C 99.433594 308.714844 99.113281 309.332031 99.070312 310 C 99.132812 311.453125 99.828125 312.808594 100.96875 313.710938 C 102.3125 314.59375 103.785156 315.269531 105.328125 315.710938 C 105.269531 316.128906 105.21875 316.539062 105.171875 316.960938 C 104.929688 318.960938 104.699219 320.960938 104.410156 322.960938 C 104.308594 323.648438 104.179688 324.320312 104.058594 324.960938 C 104.058594 324.511719 104.058594 324.128906 104.058594 324.070312 C 103.828125 322.300781 102.339844 319.011719 100.371094 318.648438 C 99.707031 318.546875 99.027344 318.730469 98.507812 319.15625 C 97.988281 319.582031 97.671875 320.207031 97.640625 320.878906 C 97.707031 322.332031 98.398438 323.679688 99.539062 324.578125 C 100.835938 325.464844 102.265625 326.140625 103.769531 326.578125 C 103.621094 327.269531 103.480469 327.960938 103.308594 328.578125 C 103.179688 329.03125 103.089844 329.480469 102.929688 329.921875 L 102.511719 331.238281 C 102.210938 332.058594 101.898438 332.921875 101.589844 333.71875 L 100.949219 335.328125 C 101.050781 334.648438 101.238281 333.328125 101.238281 333.179688 C 101.222656 331.609375 100.796875 330.070312 100.011719 328.710938 C 100.023438 328.535156 100.023438 328.355469 100.011719 328.179688 C 99.921875 327.515625 99.558594 326.917969 99.007812 326.539062 C 98.457031 326.15625 97.773438 326.027344 97.121094 326.179688 C 95.179688 326.699219 93.960938 330.089844 93.859375 331.878906 C 93.859375 331.988281 93.929688 333.128906 93.980469 333.878906 C 93.890625 333.460938 93.800781 333.050781 93.691406 332.621094 C 93.488281 331.761719 93.261719 330.910156 93.019531 330 C 92.890625 329.558594 92.75 329.121094 92.621094 328.679688 C 92.488281 328.238281 92.308594 327.78125 92.148438 327.320312 C 91.769531 326.320312 91.328125 325.238281 90.859375 324.199219 C 92.425781 323.871094 93.933594 323.304688 95.328125 322.519531 C 96.511719 321.707031 97.28125 320.421875 97.441406 319 C 97.460938 318.328125 97.191406 317.675781 96.703125 317.214844 C 96.214844 316.75 95.550781 316.515625 94.878906 316.570312 C 92.878906 316.789062 91.160156 319.960938 90.800781 321.710938 C 90.800781 321.820312 90.660156 323.101562 90.609375 323.808594 C 90.328125 323.191406 90.050781 322.570312 89.738281 321.949219 C 88.851562 320.148438 87.890625 318.371094 86.949219 316.578125 C 86.660156 316.039062 86.371094 315.488281 86.089844 314.941406 C 87.707031 314.605469 89.265625 314.027344 90.710938 313.230469 C 91.921875 312.417969 92.71875 311.117188 92.890625 309.671875 C 92.90625 309 92.636719 308.351562 92.148438 307.890625 C 91.660156 307.429688 91 307.195312 90.328125 307.25 C 88.328125 307.460938 86.609375 310.640625 86.25 312.390625 C 86.25 312.519531 86.058594 314.390625 86.039062 314.839844 C 85.410156 313.628906 84.800781 312.429688 84.238281 311.210938 C 83.480469 309.570312 82.828125 307.882812 82.289062 306.160156 C 83.917969 305.824219 85.484375 305.25 86.941406 304.449219 C 88.148438 303.636719 88.941406 302.335938 89.109375 300.890625 C 89.128906 300.21875 88.859375 299.570312 88.371094 299.105469 C 87.882812 298.644531 87.21875 298.414062 86.550781 298.46875 C 84.550781 298.679688 82.839844 301.851562 82.480469 303.601562 C 82.480469 303.738281 82.269531 305.730469 82.261719 306.089844 C 82.261719 305.988281 82.191406 305.890625 82.160156 305.789062 C 81.664062 304.046875 81.332031 302.261719 81.160156 300.460938 C 81.039062 299.460938 80.988281 298.511719 80.960938 297.578125 C 82.578125 297.429688 84.164062 297.035156 85.660156 296.398438 C 86.957031 295.734375 87.890625 294.53125 88.210938 293.109375 C 88.304688 292.445312 88.109375 291.769531 87.675781 291.253906 C 87.246094 290.738281 86.613281 290.433594 85.941406 290.410156 C 83.941406 290.410156 81.871094 293.410156 81.320312 295.070312 C 81.320312 295.160156 81.089844 296.140625 80.949219 296.851562 C 80.949219 296.429688 80.949219 295.988281 80.949219 295.589844 C 80.949219 294.078125 81.050781 292.691406 81.148438 291.460938 C 81.210938 290.769531 81.269531 290.140625 81.339844 289.550781 C 82.699219 288.675781 83.917969 287.59375 84.949219 286.351562 C 85.789062 285.160156 86.0625 283.660156 85.691406 282.25 C 85.464844 281.617188 84.980469 281.109375 84.359375 280.855469 C 83.738281 280.597656 83.035156 280.617188 82.429688 280.910156 C 80.660156 281.828125 80.191406 285.410156 80.429688 287.171875 C 80.429688 287.320312 81.128906 289.660156 81.160156 289.640625 C 81.089844 290.199219 81.011719 290.808594 80.941406 291.46875 C 80.820312 292.699219 80.691406 294.089844 80.648438 295.609375 C 80.59375 297.246094 80.632812 298.886719 80.769531 300.519531 C 80.917969 302.347656 81.222656 304.15625 81.679688 305.929688 C 81.679688 305.953125 81.679688 305.976562 81.679688 306 C 81.371094 305.5 80.441406 304.148438 80.359375 304 C 79.191406 302.648438 76.128906 300.71875 74.289062 301.511719 C 73.6875 301.796875 73.234375 302.328125 73.042969 302.96875 C 72.851562 303.609375 72.941406 304.300781 73.289062 304.871094 C 74.144531 306.050781 75.46875 306.796875 76.921875 306.921875 C 78.410156 307.128906 81.550781 306.21875 81.800781 306.148438 C 82.308594 307.945312 82.945312 309.703125 83.699219 311.410156 C 84.128906 312.410156 84.589844 313.410156 85.070312 314.410156 C 84.789062 313.988281 84.53125 313.621094 84.488281 313.570312 C 83.320312 312.21875 80.261719 310.300781 78.421875 311.078125 C 77.816406 311.371094 77.363281 311.902344 77.171875 312.542969 C 76.980469 313.183594 77.070312 313.878906 77.421875 314.449219 C 78.285156 315.609375 79.609375 316.339844 81.050781 316.449219 C 82.65625 316.449219 84.257812 316.203125 85.789062 315.71875 L 86.351562 316.859375 C 87.261719 318.660156 88.171875 320.460938 89.019531 322.261719 C 89.308594 322.890625 89.578125 323.519531 89.851562 324.160156 C 89.601562 323.78125 89.378906 323.46875 89.339844 323.429688 C 88.179688 322.078125 85.121094 320.148438 83.28125 320.929688 C 82.675781 321.21875 82.222656 321.75 82.03125 322.394531 C 81.839844 323.035156 81.929688 323.726562 82.28125 324.300781 C 83.136719 325.46875 84.464844 326.199219 85.910156 326.300781 C 87.472656 326.316406 89.03125 326.082031 90.519531 325.609375 C 90.78125 326.269531 91.039062 326.921875 91.261719 327.609375 C 91.398438 328.058594 91.570312 328.480469 91.691406 328.929688 C 91.808594 329.378906 91.929688 329.820312 92.058594 330.261719 C 92.261719 331.121094 92.480469 332 92.660156 332.839844 C 92.789062 333.421875 92.898438 333.980469 93.019531 334.539062 C 92.730469 333.910156 92.140625 332.679688 92.019531 332.589844 C 91.070312 331.070312 88.351562 328.710938 86.410156 329.199219 C 85.761719 329.382812 85.222656 329.835938 84.925781 330.4375 C 84.632812 331.042969 84.605469 331.746094 84.859375 332.371094 C 85.5 333.6875 86.691406 334.648438 88.109375 335 C 89.730469 335.246094 91.378906 335.246094 93 335 C 93.179688 335.929688 93.351562 336.828125 93.5 337.691406 C 94.03125 340.691406 94.351562 343.160156 94.5 344.910156 C 94.5 345.21875 94.570312 345.488281 94.601562 345.761719 L 88.601562 345.761719 L 90.800781 388.679688 L 101.070312 388.679688 L 103.269531 345.761719 L 97.699219 345.761719 L 97.820312 345.5 C 98.589844 343.890625 99.660156 341.589844 100.820312 338.769531 C 101.191406 337.871094 101.558594 336.921875 101.941406 335.929688 C 103.542969 336.300781 105.191406 336.429688 106.828125 336.308594 C 108.265625 336.078125 109.527344 335.230469 110.289062 333.988281 C 110.585938 333.386719 110.613281 332.6875 110.367188 332.0625 C 110.121094 331.4375 109.621094 330.945312 108.988281 330.710938 C 107.089844 330.078125 104.191406 332.230469 103.128906 333.710938 C 103.070312 333.800781 102.488281 334.789062 102.128906 335.429688 C 102.28125 335.019531 102.429688 334.628906 102.578125 334.210938 C 102.878906 333.390625 103.160156 332.550781 103.460938 331.660156 C 103.589844 331.21875 103.730469 330.78125 103.859375 330.328125 C 103.988281 329.878906 104.101562 329.410156 104.21875 328.949219 C 104.46875 327.859375 104.679688 326.75 104.871094 325.628906 C 106.355469 326.21875 107.917969 326.578125 109.511719 326.699219 C 110.96875 326.6875 112.347656 326.042969 113.289062 324.929688 C 113.675781 324.378906 113.804688 323.691406 113.652344 323.035156 C 113.5 322.382812 113.078125 321.824219 112.488281 321.5 C 110.710938 320.578125 107.488281 322.269531 106.25 323.5 C 106.179688 323.578125 105.371094 324.589844 104.941406 325.148438 C 105.039062 324.46875 105.148438 323.800781 105.238281 323.148438 C 105.480469 321.148438 105.671875 319.148438 105.871094 317.148438 C 105.929688 316.53125 105.988281 315.921875 106.058594 315.300781 C 107.59375 315.917969 109.210938 316.296875 110.859375 316.429688 C 112.316406 316.425781 113.699219 315.777344 114.628906 314.660156 C 115.019531 314.109375 115.152344 313.421875 115.003906 312.769531 C 114.851562 312.113281 114.429688 311.554688 113.839844 311.230469 C 112.058594 310.308594 108.839844 312 107.601562 313.230469 C 107.511719 313.328125 106.351562 314.78125 106.070312 315.160156 C 106.210938 313.808594 106.371094 312.460938 106.570312 311.160156 C 106.84375 309.375 107.230469 307.613281 107.730469 305.878906 C 107.851562 305.878906 111.019531 307.121094 112.558594 307.011719 C 114.015625 307.007812 115.398438 306.359375 116.328125 305.238281 C 116.71875 304.691406 116.851562 304 116.699219 303.347656 C 116.546875 302.691406 116.121094 302.132812 115.53125 301.808594 C 113.761719 300.890625 110.53125 302.578125 109.300781 303.808594 C 109.199219 303.910156 107.949219 305.46875 107.75 305.808594 C 107.75 305.710938 107.75 305.609375 107.828125 305.511719 C 108.375 303.785156 109.074219 302.109375 109.921875 300.511719 C 110.378906 299.621094 110.859375 298.800781 111.351562 298 C 112.78125 298.769531 114.320312 299.316406 115.921875 299.609375 C 117.386719 299.773438 118.847656 299.285156 119.921875 298.269531 C 120.367188 297.765625 120.574219 297.09375 120.496094 296.425781 C 120.414062 295.757812 120.050781 295.15625 119.5 294.769531 C 117.839844 293.660156 114.5 294.988281 113.078125 296.109375 C 113.011719 296.171875 112.300781 296.871094 111.800781 297.390625 C 112.019531 297.03125 112.25 296.660156 112.46875 296.328125 C 113.308594 295.058594 114.160156 293.960938 114.910156 292.988281 C 115.351562 292.441406 115.75 291.988281 116.128906 291.5 C 117.75 291.519531 119.359375 291.289062 120.910156 290.820312 C 122.261719 290.285156 123.3125 289.191406 123.789062 287.820312 C 123.992188 287.144531 123.878906 286.417969 123.484375 285.832031 C 123.09375 285.246094 122.460938 284.871094 121.761719 284.800781 Z M 99.761719 338.269531 C 98.558594 341.039062 97.449219 343.269531 96.648438 344.871094 L 96.21875 345.730469 L 96 345.730469 C 96 345.421875 95.921875 345.078125 95.871094 344.730469 C 95.628906 342.96875 95.238281 340.449219 94.648438 337.460938 C 94.460938 336.519531 94.25 335.511719 94.011719 334.460938 C 94.949219 334.089844 95.863281 333.65625 96.75 333.171875 C 97.960938 334.207031 99.304688 335.074219 100.75 335.75 C 100.421875 336.628906 100.070312 337.480469 99.71875 338.269531 Z M 99.761719 338.269531 "/>
<path style=" stroke:none;fill-rule:nonzero;fill:rgb(14.901961%,19.607843%,21.960784%);fill-opacity:1;" d="M 111.269531 297.53125 C 111.269531 297.53125 111.910156 295.199219 111.929688 295.039062 C 112.179688 293.269531 111.609375 289.710938 109.808594 288.828125 C 109.195312 288.554688 108.496094 288.554688 107.882812 288.828125 C 107.265625 289.101562 106.796875 289.621094 106.589844 290.261719 C 106.265625 291.679688 106.578125 293.167969 107.441406 294.339844 C 108.289062 295.660156 111.269531 297.53125 111.269531 297.53125 Z M 111.269531 297.53125 "/>
<path style="fill-rule:nonzero;fill:rgb(14.901961%,19.607843%,21.960784%);fill-opacity:1;stroke-width:1;stroke-linecap:round;stroke-linejoin:round;stroke:rgb(14.901961%,19.607843%,21.960784%);stroke-opacity:1;stroke-miterlimit:4;" d="M 240.988281 123.441406 L 417.988281 123.441406 C 421.304688 123.441406 423.988281 126.125 423.988281 129.441406 L 423.988281 230.441406 C 423.988281 233.753906 421.304688 236.441406 417.988281 236.441406 L 240.988281 236.441406 C 237.675781 236.441406 234.988281 233.753906 234.988281 230.441406 L 234.988281 129.441406 C 234.988281 126.125 237.675781 123.441406 240.988281 123.441406 Z M 240.988281 123.441406 "/>
<path style="fill:none;stroke-width:1;stroke-linecap:round;stroke-linejoin:round;stroke:rgb(100%,100%,100%);stroke-opacity:1;stroke-miterlimit:4;" d="M 233.800781 153.449219 L 424.691406 153.449219 "/>
<path style="fill:none;stroke-width:2;stroke-linecap:round;stroke-linejoin:round;stroke:rgb(100%,100%,100%);stroke-opacity:1;stroke-miterlimit:4;" d="M 283.738281 141.179688 L 374.75 141.179688 "/>
<path style="fill:none;stroke-width:1;stroke-linecap:round;stroke-linejoin:round;stroke:rgb(100%,100%,100%);stroke-opacity:1;stroke-miterlimit:4;" d="M 281.171875 153.921875 L 281.171875 235.390625 "/>
<path style="fill:none;stroke-width:1;stroke-linecap:round;stroke-linejoin:round;stroke:rgb(100%,100%,100%);stroke-opacity:1;stroke-miterlimit:4;" d="M 330.898438 153.921875 L 330.898438 235.390625 "/>
<path style="fill:none;stroke-width:1;stroke-linecap:round;stroke-linejoin:round;stroke:rgb(100%,100%,100%);stroke-opacity:1;stroke-miterlimit:4;" d="M 380.640625 153.921875 L 380.640625 235.390625 "/>
<path style="fill:none;stroke-width:1;stroke-linecap:round;stroke-linejoin:round;stroke:rgb(100%,100%,100%);stroke-opacity:1;stroke-miterlimit:4;" d="M 240.898438 164.339844 L 252.75 164.339844 "/>
<path style="fill:none;stroke-width:1;stroke-linecap:round;stroke-linejoin:round;stroke:rgb(100%,100%,100%);stroke-opacity:1;stroke-miterlimit:4;" d="M 240.898438 170.03125 L 256.921875 170.03125 "/>
<path style="fill:none;stroke-width:1;stroke-linecap:round;stroke-linejoin:round;stroke:rgb(100%,100%,100%);stroke-opacity:1;stroke-miterlimit:4;" d="M 240.898438 175.710938 L 252.75 175.710938 "/>
<path style="fill:none;stroke-width:1;stroke-linecap:round;stroke-linejoin:round;stroke:rgb(100%,100%,100%);stroke-opacity:1;stroke-miterlimit:4;" d="M 240.898438 181.390625 L 262.050781 181.390625 "/>
<path style="fill:none;stroke-width:1;stroke-linecap:round;stroke-linejoin:round;stroke:rgb(100%,100%,100%);stroke-opacity:1;stroke-miterlimit:4;" d="M 240.898438 187.078125 L 252.75 187.078125 "/>
<path style="fill:none;stroke-width:1;stroke-linecap:round;stroke-linejoin:round;stroke:rgb(100%,100%,100%);stroke-opacity:1;stroke-miterlimit:4;" d="M 240.898438 192.761719 L 256.628906 192.761719 "/>
<path style="fill:none;stroke-width:1;stroke-linecap:round;stroke-linejoin:round;stroke:rgb(100%,100%,100%);stroke-opacity:1;stroke-miterlimit:4;" d="M 240.898438 198.449219 L 252.75 198.449219 "/>
<path style="fill:none;stroke-width:1;stroke-linecap:round;stroke-linejoin:round;stroke:rgb(100%,100%,100%);stroke-opacity:1;stroke-miterlimit:4;" d="M 240.898438 204.128906 L 265.761719 204.128906 "/>
<path style="fill:none;stroke-width:1;stroke-linecap:round;stroke-linejoin:round;stroke:rgb(100%,100%,100%);stroke-opacity:1;stroke-miterlimit:4;" d="M 240.898438 209.808594 L 252.75 209.808594 "/>
<path style="fill:none;stroke-width:1;stroke-linecap:round;stroke-linejoin:round;stroke:rgb(100%,100%,100%);stroke-opacity:1;stroke-miterlimit:4;" d="M 240.898438 215.5 L 257.488281 215.5 "/>
<path style="fill:none;stroke-width:1;stroke-linecap:round;stroke-linejoin:round;stroke:rgb(100%,100%,100%);stroke-opacity:1;stroke-miterlimit:4;" d="M 240.898438 221.179688 L 252.75 221.179688 "/>
<path style="fill:none;stroke-width:1;stroke-linecap:round;stroke-linejoin:round;stroke:rgb(100%,100%,100%);stroke-opacity:1;stroke-miterlimit:4;" d="M 240.898438 226.871094 L 252.75 226.871094 "/>
<path style="fill:none;stroke-width:1;stroke-linecap:round;stroke-linejoin:round;stroke:rgb(100%,100%,100%);stroke-opacity:1;stroke-miterlimit:4;" d="M 291.691406 164.339844 L 303.53125 164.339844 "/>
<path style="fill:none;stroke-width:1;stroke-linecap:round;stroke-linejoin:round;stroke:rgb(100%,100%,100%);stroke-opacity:1;stroke-miterlimit:4;" d="M 291.691406 170.03125 L 307.699219 170.03125 "/>
<path style="fill:none;stroke-width:1;stroke-linecap:round;stroke-linejoin:round;stroke:rgb(100%,100%,100%);stroke-opacity:1;stroke-miterlimit:4;" d="M 291.691406 175.710938 L 303.53125 175.710938 "/>
<path style="fill:none;stroke-width:1;stroke-linecap:round;stroke-linejoin:round;stroke:rgb(100%,100%,100%);stroke-opacity:1;stroke-miterlimit:4;" d="M 291.691406 181.390625 L 312.839844 181.390625 "/>
<path style="fill:none;stroke-width:1;stroke-linecap:round;stroke-linejoin:round;stroke:rgb(100%,100%,100%);stroke-opacity:1;stroke-miterlimit:4;" d="M 291.691406 187.078125 L 303.53125 187.078125 "/>
<path style="fill:none;stroke-width:1;stroke-linecap:round;stroke-linejoin:round;stroke:rgb(100%,100%,100%);stroke-opacity:1;stroke-miterlimit:4;" d="M 291.691406 192.761719 L 307.421875 192.761719 "/>
<path style="fill:none;stroke-width:1;stroke-linecap:round;stroke-linejoin:round;stroke:rgb(100%,100%,100%);stroke-opacity:1;stroke-miterlimit:4;" d="M 291.691406 198.449219 L 303.53125 198.449219 "/>
<path style="fill:none;stroke-width:1;stroke-linecap:round;stroke-linejoin:round;stroke:rgb(100%,100%,100%);stroke-opacity:1;stroke-miterlimit:4;" d="M 291.691406 204.128906 L 316.550781 204.128906 "/>
<path style="fill:none;stroke-width:1;stroke-linecap:round;stroke-linejoin:round;stroke:rgb(100%,100%,100%);stroke-opacity:1;stroke-miterlimit:4;" d="M 291.691406 209.808594 L 303.53125 209.808594 "/>
<path style="fill:none;stroke-width:1;stroke-linecap:round;stroke-linejoin:round;stroke:rgb(100%,100%,100%);stroke-opacity:1;stroke-miterlimit:4;" d="M 291.691406 215.5 L 308.269531 215.5 "/>
<path style="fill:none;stroke-width:1;stroke-linecap:round;stroke-linejoin:round;stroke:rgb(100%,100%,100%);stroke-opacity:1;stroke-miterlimit:4;" d="M 291.691406 221.179688 L 303.53125 221.179688 "/>
<path style="fill:none;stroke-width:1;stroke-linecap:round;stroke-linejoin:round;stroke:rgb(100%,100%,100%);stroke-opacity:1;stroke-miterlimit:4;" d="M 291.691406 226.871094 L 303.53125 226.871094 "/>
<path style="fill:none;stroke-width:1;stroke-linecap:round;stroke-linejoin:round;stroke:rgb(100%,100%,100%);stroke-opacity:1;stroke-miterlimit:4;" d="M 342.46875 164.339844 L 354.308594 164.339844 "/>
<path style="fill:none;stroke-width:1;stroke-linecap:round;stroke-linejoin:round;stroke:rgb(100%,100%,100%);stroke-opacity:1;stroke-miterlimit:4;" d="M 342.46875 170.03125 L 358.488281 170.03125 "/>
<path style="fill:none;stroke-width:1;stroke-linecap:round;stroke-linejoin:round;stroke:rgb(100%,100%,100%);stroke-opacity:1;stroke-miterlimit:4;" d="M 342.46875 175.710938 L 354.308594 175.710938 "/>
<path style="fill:none;stroke-width:1;stroke-linecap:round;stroke-linejoin:round;stroke:rgb(100%,100%,100%);stroke-opacity:1;stroke-miterlimit:4;" d="M 342.46875 181.390625 L 363.621094 181.390625 "/>
<path style="fill:none;stroke-width:1;stroke-linecap:round;stroke-linejoin:round;stroke:rgb(100%,100%,100%);stroke-opacity:1;stroke-miterlimit:4;" d="M 342.46875 187.078125 L 354.308594 187.078125 "/>
<path style="fill:none;stroke-width:1;stroke-linecap:round;stroke-linejoin:round;stroke:rgb(100%,100%,100%);stroke-opacity:1;stroke-miterlimit:4;" d="M 342.46875 192.761719 L 358.199219 192.761719 "/>
<path style="fill:none;stroke-width:1;stroke-linecap:round;stroke-linejoin:round;stroke:rgb(100%,100%,100%);stroke-opacity:1;stroke-miterlimit:4;" d="M 342.46875 198.449219 L 354.308594 198.449219 "/>
<path style="fill:none;stroke-width:1;stroke-linecap:round;stroke-linejoin:round;stroke:rgb(100%,100%,100%);stroke-opacity:1;stroke-miterlimit:4;" d="M 342.46875 204.128906 L 367.328125 204.128906 "/>
<path style="fill:none;stroke-width:1;stroke-linecap:round;stroke-linejoin:round;stroke:rgb(100%,100%,100%);stroke-opacity:1;stroke-miterlimit:4;" d="M 342.46875 209.808594 L 354.308594 209.808594 "/>
<path style="fill:none;stroke-width:1;stroke-linecap:round;stroke-linejoin:round;stroke:rgb(100%,100%,100%);stroke-opacity:1;stroke-miterlimit:4;" d="M 342.46875 215.5 L 359.058594 215.5 "/>
<path style="fill:none;stroke-width:1;stroke-linecap:round;stroke-linejoin:round;stroke:rgb(100%,100%,100%);stroke-opacity:1;stroke-miterlimit:4;" d="M 342.46875 221.179688 L 354.308594 221.179688 "/>
<path style="fill:none;stroke-width:1;stroke-linecap:round;stroke-linejoin:round;stroke:rgb(100%,100%,100%);stroke-opacity:1;stroke-miterlimit:4;" d="M 342.46875 226.871094 L 354.308594 226.871094 "/>
<path style="fill:none;stroke-width:1;stroke-linecap:round;stroke-linejoin:round;stroke:rgb(100%,100%,100%);stroke-opacity:1;stroke-miterlimit:4;" d="M 393.25 164.339844 L 405.101562 164.339844 "/>
<path style="fill:none;stroke-width:1;stroke-linecap:round;stroke-linejoin:round;stroke:rgb(100%,100%,100%);stroke-opacity:1;stroke-miterlimit:4;" d="M 393.25 170.03125 L 409.269531 170.03125 "/>
<path style="fill:none;stroke-width:1;stroke-linecap:round;stroke-linejoin:round;stroke:rgb(100%,100%,100%);stroke-opacity:1;stroke-miterlimit:4;" d="M 393.25 175.710938 L 405.101562 175.710938 "/>
<path style="fill:none;stroke-width:1;stroke-linecap:round;stroke-linejoin:round;stroke:rgb(100%,100%,100%);stroke-opacity:1;stroke-miterlimit:4;" d="M 393.25 181.390625 L 414.398438 181.390625 "/>
<path style="fill:none;stroke-width:1;stroke-linecap:round;stroke-linejoin:round;stroke:rgb(100%,100%,100%);stroke-opacity:1;stroke-miterlimit:4;" d="M 393.25 187.078125 L 405.101562 187.078125 "/>
<path style="fill:none;stroke-width:1;stroke-linecap:round;stroke-linejoin:round;stroke:rgb(100%,100%,100%);stroke-opacity:1;stroke-miterlimit:4;" d="M 393.25 192.761719 L 408.980469 192.761719 "/>
<path style="fill:none;stroke-width:1;stroke-linecap:round;stroke-linejoin:round;stroke:rgb(100%,100%,100%);stroke-opacity:1;stroke-miterlimit:4;" d="M 393.25 198.449219 L 405.101562 198.449219 "/>
<path style="fill:none;stroke-width:1;stroke-linecap:round;stroke-linejoin:round;stroke:rgb(100%,100%,100%);stroke-opacity:1;stroke-miterlimit:4;" d="M 393.25 204.128906 L 418.109375 204.128906 "/>
<path style="fill:none;stroke-width:1;stroke-linecap:round;stroke-linejoin:round;stroke:rgb(100%,100%,100%);stroke-opacity:1;stroke-miterlimit:4;" d="M 393.25 209.808594 L 405.101562 209.808594 "/>
<path style="fill:none;stroke-width:1;stroke-linecap:round;stroke-linejoin:round;stroke:rgb(100%,100%,100%);stroke-opacity:1;stroke-miterlimit:4;" d="M 393.25 215.5 L 409.839844 215.5 "/>
<path style="fill:none;stroke-width:1;stroke-linecap:round;stroke-linejoin:round;stroke:rgb(100%,100%,100%);stroke-opacity:1;stroke-miterlimit:4;" d="M 393.25 221.179688 L 405.101562 221.179688 "/>
<path style="fill:none;stroke-width:1;stroke-linecap:round;stroke-linejoin:round;stroke:rgb(100%,100%,100%);stroke-opacity:1;stroke-miterlimit:4;" d="M 393.25 226.871094 L 405.101562 226.871094 "/>
<path style=" stroke:none;fill-rule:nonzero;fill:rgb(100%,100%,100%);fill-opacity:1;" d="M 251.210938 145.300781 C 251.210938 144.960938 251.210938 144.640625 251.210938 144.300781 C 251.210938 144.25 251.269531 144.191406 251.320312 144.148438 L 252.5 143.261719 C 252.554688 143.214844 252.589844 143.152344 252.601562 143.078125 C 252.601562 141.859375 252.601562 140.648438 252.601562 139.441406 C 252.601562 139.398438 252.601562 139.351562 252.601562 139.308594 L 247 141.078125 C 247 141.011719 247 140.96875 247 140.921875 C 247 140.550781 247 140.171875 247 139.800781 C 246.992188 139.710938 247.039062 139.628906 247.121094 139.589844 C 248.90625 138.46875 250.699219 137.351562 252.5 136.238281 C 252.597656 136.183594 252.652344 136.078125 252.640625 135.96875 C 252.640625 134.75 252.640625 133.539062 252.640625 132.320312 C 252.617188 131.941406 252.796875 131.582031 253.113281 131.375 C 253.429688 131.167969 253.832031 131.144531 254.171875 131.320312 C 254.554688 131.496094 254.789062 131.898438 254.75 132.320312 L 254.75 135.949219 C 254.738281 136.078125 254.804688 136.199219 254.921875 136.261719 L 260.238281 139.578125 C 260.339844 139.632812 260.402344 139.738281 260.398438 139.851562 C 260.398438 140.261719 260.398438 140.660156 260.398438 141.089844 L 254.769531 139.328125 C 254.769531 139.390625 254.769531 139.441406 254.769531 139.480469 L 254.769531 143 C 254.761719 143.105469 254.808594 143.210938 254.898438 143.269531 C 255.300781 143.558594 255.691406 143.859375 256.078125 144.160156 C 256.136719 144.210938 256.171875 144.28125 256.179688 144.359375 C 256.179688 144.660156 256.179688 144.960938 256.179688 145.289062 L 255.179688 145 L 253.878906 144.628906 C 253.773438 144.609375 253.664062 144.609375 253.558594 144.628906 L 251.359375 145.261719 Z M 251.210938 145.300781 "/>
<path style="fill:none;stroke-width:1;stroke-linecap:round;stroke-linejoin:round;stroke:rgb(100%,100%,100%);stroke-opacity:1;stroke-miterlimit:4;" d="M 263.050781 138.289062 C 263.050781 143.492188 258.832031 147.710938 253.628906 147.710938 C 248.425781 147.710938 244.210938 143.492188 244.210938 138.289062 C 244.210938 133.085938 248.425781 128.871094 253.628906 128.871094 C 258.832031 128.871094 263.050781 133.085938 263.050781 138.289062 Z M 263.050781 138.289062 "/>
<path style=" stroke:none;fill-rule:nonzero;fill:rgb(57.254902%,89.019608%,66.27451%);fill-opacity:1;" d="M 289.929688 423.089844 C 289.929688 416.121094 250.910156 410.46875 202.78125 410.46875 C 154.648438 410.46875 115.628906 416.121094 115.628906 423.089844 C 115.628906 430.058594 154.648438 435.710938 202.78125 435.710938 C 250.910156 435.710938 289.929688 430.058594 289.929688 423.089844 Z M 289.929688 423.089844 "/>
<use xlink:href="#surface14" mask="url(#mask3)"/>
<path style=" stroke:none;fill-rule:nonzero;fill:rgb(14.901961%,19.607843%,21.960784%);fill-opacity:1;" d="M 240.488281 346.128906 C 239.9375 346.128906 239.488281 345.683594 239.488281 345.128906 L 239.488281 287.289062 C 239.488281 286.738281 239.9375 286.289062 240.488281 286.289062 C 241.042969 286.289062 241.488281 286.738281 241.488281 287.289062 L 241.488281 345.128906 C 241.488281 345.683594 241.042969 346.128906 240.488281 346.128906 Z M 240.488281 346.128906 "/>
<path style=" stroke:none;fill-rule:nonzero;fill:rgb(14.901961%,19.607843%,21.960784%);fill-opacity:1;" d="M 240.488281 298.578125 C 239.660156 298.578125 238.988281 297.910156 238.988281 297.078125 L 238.988281 287.289062 C 238.988281 286.460938 239.660156 285.789062 240.488281 285.789062 C 241.320312 285.789062 241.988281 286.460938 241.988281 287.289062 L 241.988281 297.078125 C 241.988281 297.910156 241.320312 298.578125 240.488281 298.578125 Z M 240.488281 298.578125 "/>
<path style=" stroke:none;fill-rule:nonzero;fill:rgb(14.901961%,19.607843%,21.960784%);fill-opacity:1;" d="M 238.078125 346.128906 C 237.527344 346.128906 237.078125 345.683594 237.078125 345.128906 L 237.078125 287.289062 C 237.078125 286.738281 237.527344 286.289062 238.078125 286.289062 C 238.632812 286.289062 239.078125 286.738281 239.078125 287.289062 L 239.078125 345.128906 C 239.078125 345.683594 238.632812 346.128906 238.078125 346.128906 Z M 238.078125 346.128906 "/>
<path style=" stroke:none;fill-rule:nonzero;fill:rgb(14.901961%,19.607843%,21.960784%);fill-opacity:1;" d="M 238.078125 298.578125 C 237.25 298.578125 236.578125 297.910156 236.578125 297.078125 L 236.578125 287.289062 C 236.578125 286.460938 237.25 285.789062 238.078125 285.789062 C 238.910156 285.789062 239.578125 286.460938 239.578125 287.289062 L 239.578125 297.078125 C 239.578125 297.910156 238.910156 298.578125 238.078125 298.578125 Z M 238.078125 298.578125 "/>
<path style=" stroke:none;fill-rule:nonzero;fill:rgb(14.901961%,19.607843%,21.960784%);fill-opacity:1;" d="M 240.488281 285.789062 L 238.078125 285.789062 L 238.078125 288.71875 L 240.46875 288.71875 Z M 240.488281 285.789062 "/>
<path style="fill-rule:nonzero;fill:rgb(14.901961%,19.607843%,21.960784%);fill-opacity:1;stroke-width:1;stroke-linecap:round;stroke-linejoin:round;stroke:rgb(14.901961%,19.607843%,21.960784%);stroke-opacity:1;stroke-miterlimit:4;" d="M 238.851562 415.21875 L 241.191406 415.21875 L 241.191406 420.058594 L 238.851562 420.058594 Z M 238.851562 415.21875 "/>
<path style="fill-rule:nonzero;fill:rgb(14.901961%,19.607843%,21.960784%);fill-opacity:1;stroke-width:1;stroke-linecap:round;stroke-linejoin:round;stroke:rgb(14.901961%,19.607843%,21.960784%);stroke-opacity:1;stroke-miterlimit:4;" d="M 255.371094 415.21875 L 257.710938 415.21875 L 257.710938 420.058594 L 255.371094 420.058594 Z M 255.371094 415.21875 "/>
<path style="fill-rule:nonzero;fill:rgb(14.901961%,19.607843%,21.960784%);fill-opacity:1;stroke-width:1;stroke-linecap:round;stroke-linejoin:round;stroke:rgb(14.901961%,19.607843%,21.960784%);stroke-opacity:1;stroke-miterlimit:4;" d="M 245.691406 415.21875 L 248.03125 415.21875 L 248.03125 420.058594 L 245.691406 420.058594 Z M 245.691406 415.21875 "/>
<path style="fill-rule:nonzero;fill:rgb(14.901961%,19.607843%,21.960784%);fill-opacity:1;stroke-width:1;stroke-linecap:round;stroke-linejoin:round;stroke:rgb(14.901961%,19.607843%,21.960784%);stroke-opacity:1;stroke-miterlimit:4;" d="M 262.21875 415.21875 L 264.558594 415.21875 L 264.558594 420.058594 L 262.21875 420.058594 Z M 262.21875 415.21875 "/>
<path style="fill-rule:nonzero;fill:rgb(100%,100%,100%);fill-opacity:1;stroke-width:1;stroke-linecap:round;stroke-linejoin:round;stroke:rgb(14.901961%,19.607843%,21.960784%);stroke-opacity:1;stroke-miterlimit:4;" d="M 240.328125 337.339844 L 263 337.339844 C 265.945312 337.339844 268.328125 339.726562 268.328125 342.671875 L 268.328125 410.011719 C 268.328125 412.953125 265.945312 415.339844 263 415.339844 L 240.328125 415.339844 C 237.386719 415.339844 235 412.953125 235 410.011719 L 235 342.671875 C 235 339.726562 237.386719 337.339844 240.328125 337.339844 Z M 240.328125 337.339844 "/>
<path style="fill-rule:nonzero;fill:rgb(14.901961%,19.607843%,21.960784%);fill-opacity:1;stroke-width:1;stroke-linecap:round;stroke-linejoin:round;stroke:rgb(14.901961%,19.607843%,21.960784%);stroke-opacity:1;stroke-miterlimit:4;" d="M 260 337.339844 L 263.011719 337.339844 C 265.953125 337.339844 268.339844 339.726562 268.339844 342.671875 L 268.339844 410.011719 C 268.339844 412.953125 265.953125 415.339844 263.011719 415.339844 L 260 415.339844 C 257.054688 415.339844 254.671875 412.953125 254.671875 410.011719 L 254.671875 342.671875 C 254.671875 339.726562 257.054688 337.339844 260 337.339844 Z M 260 337.339844 "/>
<path style="fill:none;stroke-width:1;stroke-linecap:round;stroke-linejoin:round;stroke:rgb(14.901961%,19.607843%,21.960784%);stroke-opacity:1;stroke-miterlimit:4;" d="M 250.578125 337.339844 C 249.164062 337.339844 247.808594 337.902344 246.808594 338.90625 C 245.808594 339.90625 245.246094 341.265625 245.25 342.679688 L 245.25 410 C 245.464844 412.320312 246.925781 414.34375 249.058594 415.28125 "/>
<path style=" stroke:none;fill-rule:nonzero;fill:rgb(100%,100%,100%);fill-opacity:1;" d="M 167.148438 336.75 C 167.148438 336.75 170.769531 345.679688 170.148438 353.539062 C 169.53125 361.398438 167.148438 374.148438 168.871094 379.46875 C 170.589844 384.789062 174.398438 405.941406 174.398438 405.941406 C 174.398438 405.941406 172.488281 408.058594 172.488281 409.941406 C 172.488281 411.820312 173.128906 421.410156 173.128906 421.410156 L 174.398438 421.410156 L 175.679688 411.851562 C 176.746094 412.324219 177.527344 413.265625 177.800781 414.398438 C 178.011719 416.101562 178.648438 420.988281 179.5 421.199219 C 180.558594 421.308594 181.628906 421.308594 182.691406 421.199219 C 182.691406 421.199219 183.960938 420.351562 183.328125 419.710938 C 182.414062 418.878906 181.8125 417.753906 181.628906 416.53125 C 181.199219 414.609375 180.140625 411.851562 180.140625 408.238281 L 180.140625 376.238281 C 180.140625 366.890625 181.410156 359.660156 181.839844 351.371094 C 182.113281 346.699219 181.96875 342.015625 181.410156 337.371094 Z M 167.148438 336.75 "/>
<g clip-path="url(#clip5)" clip-rule="nonzero">
<g clip-path="url(#clip6)" clip-rule="nonzero">
<path style=" stroke:none;fill-rule:nonzero;fill:rgb(57.254902%,89.019608%,66.27451%);fill-opacity:1;" d="M 167.558594 337.851562 C 168.273438 339.863281 168.859375 341.921875 169.308594 344.011719 L 181.890625 344.011719 C 181.800781 340.921875 181.558594 338.738281 181.449219 337.851562 Z M 167.558594 337.851562 "/>
</g>
</g>
<g clip-path="url(#clip7)" clip-rule="nonzero">
<g clip-path="url(#clip8)" clip-rule="nonzero">
<use xlink:href="#surface17" mask="url(#mask4)"/>
</g>
</g>
<path style="fill:none;stroke-width:1;stroke-linecap:round;stroke-linejoin:round;stroke:rgb(14.901961%,19.607843%,21.960784%);stroke-opacity:1;stroke-miterlimit:4;" d="M 167.148438 336.75 C 167.148438 336.75 170.769531 345.679688 170.148438 353.539062 C 169.53125 361.398438 167.148438 374.148438 168.871094 379.46875 C 170.589844 384.789062 174.398438 405.941406 174.398438 405.941406 C 174.398438 405.941406 172.488281 408.058594 172.488281 409.941406 C 172.488281 411.820312 173.128906 421.410156 173.128906 421.410156 L 174.398438 421.410156 L 175.679688 411.851562 C 176.746094 412.324219 177.527344 413.265625 177.800781 414.398438 C 178.011719 416.101562 178.648438 420.988281 179.5 421.199219 C 180.558594 421.308594 181.628906 421.308594 182.691406 421.199219 C 182.691406 421.199219 183.960938 420.351562 183.328125 419.710938 C 182.414062 418.878906 181.8125 417.753906 181.628906 416.53125 C 181.199219 414.609375 180.140625 411.851562 180.140625 408.238281 L 180.140625 376.238281 C 180.140625 366.890625 181.410156 359.660156 181.839844 351.371094 C 182.113281 346.699219 181.96875 342.015625 181.410156 337.371094 Z M 167.148438 336.75 "/>
<path style="fill-rule:nonzero;fill:rgb(100%,100%,100%);fill-opacity:1;stroke-width:1;stroke-linecap:round;stroke-linejoin:round;stroke:rgb(14.901961%,19.607843%,21.960784%);stroke-opacity:1;stroke-miterlimit:4;" d="M 179.621094 421.300781 L 176.429688 421.300781 C 176.429688 421.300781 175.429688 421.21875 175.308594 417.371094 C 175.265625 415.296875 175.011719 413.230469 174.550781 411.210938 C 175.757812 410.84375 177.070312 411.144531 178 412 C 179.738281 413.46875 180.160156 419.28125 180.371094 420 C 180.496094 420.460938 180.707031 420.890625 181 421.269531 Z M 179.621094 421.300781 "/>
<path style="fill-rule:nonzero;fill:rgb(14.901961%,19.607843%,21.960784%);fill-opacity:1;stroke-width:1;stroke-linecap:round;stroke-linejoin:round;stroke:rgb(14.901961%,19.607843%,21.960784%);stroke-opacity:1;stroke-miterlimit:4;" d="M 181.609375 416.570312 C 181.050781 414.640625 180.605469 412.679688 180.28125 410.699219 C 179.914062 409.492188 179.433594 408.324219 178.839844 407.210938 C 177.359375 404.660156 174.378906 405.941406 174.378906 405.941406 C 174.378906 405.941406 172.46875 408.058594 172.46875 409.941406 C 172.46875 411.820312 173.109375 421.410156 173.109375 421.410156 L 174.378906 421.410156 L 175.660156 411.851562 C 176.722656 412.324219 177.507812 413.265625 177.78125 414.398438 C 177.988281 416.101562 178.628906 420.988281 179.480469 421.199219 C 180.539062 421.308594 181.609375 421.308594 182.671875 421.199219 C 182.671875 421.199219 183.941406 420.351562 183.308594 419.710938 C 182.402344 418.890625 181.800781 417.78125 181.609375 416.570312 Z M 181.609375 416.570312 "/>
<path style=" stroke:none;fill-rule:nonzero;fill:rgb(100%,100%,100%);fill-opacity:1;" d="M 187.609375 338.089844 C 187.609375 338.089844 189.609375 344.269531 189.25 347.179688 C 188.890625 350.089844 179.429688 358.988281 178.339844 364.269531 C 177.25 369.550781 174.699219 381.539062 173.800781 386.628906 C 172.898438 391.71875 172.140625 394.71875 170.601562 396.089844 C 169.058594 397.460938 166.230469 396.199219 164.089844 398.628906 C 161.949219 401.058594 155.691406 408.53125 155.691406 408.53125 L 156.558594 409.300781 L 163.910156 404.808594 C 163.910156 404.808594 167.300781 406.101562 167.371094 408.101562 C 167.539062 410.878906 167.929688 413.640625 168.53125 416.359375 C 168.980469 418.03125 172.070312 421.300781 174.050781 421.78125 C 176.03125 422.261719 175.980469 419.78125 175.191406 419.308594 C 174.398438 418.839844 173.269531 416.308594 173.449219 413.191406 C 173.628906 410.070312 174.878906 400.890625 176.101562 398.769531 C 177.320312 396.648438 188.160156 373.769531 193.789062 366.449219 C 199.421875 359.128906 201.238281 352.449219 202.519531 350.628906 C 203.800781 348.808594 203.789062 344.449219 203.789062 342.089844 C 203.785156 340.628906 203.664062 339.171875 203.429688 337.730469 Z M 187.609375 338.089844 "/>
<g clip-path="url(#clip10)" clip-rule="nonzero">
<g clip-path="url(#clip11)" clip-rule="nonzero">
<path style=" stroke:none;fill-rule:nonzero;fill:rgb(57.254902%,89.019608%,66.27451%);fill-opacity:1;" d="M 187.609375 338.089844 C 188.226562 340.027344 188.710938 342.007812 189.058594 344.011719 L 203.769531 344.011719 C 203.769531 343.300781 203.769531 342.640625 203.769531 342.089844 C 203.761719 340.671875 203.648438 339.253906 203.429688 337.851562 L 198.109375 337.851562 Z M 187.609375 338.089844 "/>
</g>
</g>
<g clip-path="url(#clip12)" clip-rule="nonzero">
<g clip-path="url(#clip13)" clip-rule="nonzero">
<use xlink:href="#surface20" mask="url(#mask5)"/>
</g>
</g>
<path style="fill:none;stroke-width:1;stroke-linecap:round;stroke-linejoin:round;stroke:rgb(14.901961%,19.607843%,21.960784%);stroke-opacity:1;stroke-miterlimit:4;" d="M 187.609375 338.089844 C 187.609375 338.089844 189.609375 344.269531 189.25 347.179688 C 188.890625 350.089844 179.429688 358.988281 178.339844 364.269531 C 177.25 369.550781 174.699219 381.539062 173.800781 386.628906 C 172.898438 391.71875 172.140625 394.71875 170.601562 396.089844 C 169.058594 397.460938 166.230469 396.199219 164.089844 398.628906 C 161.949219 401.058594 155.691406 408.53125 155.691406 408.53125 L 156.558594 409.300781 L 163.910156 404.808594 C 163.910156 404.808594 167.300781 406.101562 167.371094 408.101562 C 167.539062 410.878906 167.929688 413.640625 168.53125 416.359375 C 168.980469 418.03125 172.070312 421.300781 174.050781 421.78125 C 176.03125 422.261719 175.980469 419.78125 175.191406 419.308594 C 174.398438 418.839844 173.269531 416.308594 173.449219 413.191406 C 173.628906 410.070312 174.878906 400.890625 176.101562 398.769531 C 177.320312 396.648438 188.160156 373.769531 193.789062 366.449219 C 199.421875 359.128906 201.238281 352.449219 202.519531 350.628906 C 203.800781 348.808594 203.789062 344.449219 203.789062 342.089844 C 203.785156 340.628906 203.664062 339.171875 203.429688 337.730469 Z M 187.609375 338.089844 "/>
<path style="fill-rule:nonzero;fill:rgb(100%,100%,100%);fill-opacity:1;stroke-width:1;stroke-linecap:round;stroke-linejoin:round;stroke:rgb(14.901961%,19.607843%,21.960784%);stroke-opacity:1;stroke-miterlimit:4;" d="M 163.910156 404.808594 C 163.910156 404.808594 165.488281 409.089844 165.359375 411.269531 C 165.230469 413.449219 164.238281 415.019531 165.230469 416.71875 C 166.21875 418.421875 167.910156 420.878906 174.050781 421.78125 C 174.050781 421.78125 170.898438 416.320312 170.75 412.671875 C 170.601562 409.019531 170.011719 403.339844 168.210938 402.871094 C 166.410156 402.398438 164.050781 402.449219 163.910156 404.808594 Z M 163.910156 404.808594 "/>
<path style="fill-rule:nonzero;fill:rgb(14.901961%,19.607843%,21.960784%);fill-opacity:1;stroke-width:1;stroke-linecap:round;stroke-linejoin:round;stroke:rgb(14.901961%,19.607843%,21.960784%);stroke-opacity:1;stroke-miterlimit:4;" d="M 175.191406 419.308594 C 174.398438 418.878906 173.269531 416.308594 173.449219 413.191406 C 171.070312 410.140625 172.449219 405.660156 170.808594 402.109375 C 169.957031 400.082031 168.539062 398.347656 166.71875 397.109375 C 165.710938 397.3125 164.796875 397.84375 164.121094 398.621094 C 161.96875 401.039062 155.71875 408.519531 155.71875 408.519531 L 156.589844 409.289062 L 163.941406 404.800781 C 163.941406 404.800781 167.328125 406.089844 167.398438 408.089844 C 167.570312 410.871094 167.957031 413.632812 168.558594 416.351562 C 169.011719 418.019531 172.101562 421.289062 174.078125 421.769531 C 176.058594 422.25 176 419.730469 175.191406 419.308594 Z M 175.191406 419.308594 "/>
<path style="fill-rule:nonzero;fill:rgb(57.254902%,89.019608%,66.27451%);fill-opacity:1;stroke-width:1;stroke-linecap:round;stroke-linejoin:round;stroke:rgb(14.901961%,19.607843%,21.960784%);stroke-opacity:1;stroke-miterlimit:4;" d="M 160.78125 233.679688 C 159.070312 236.015625 157.722656 238.59375 156.78125 241.328125 C 155.511719 245.328125 144.238281 276.609375 146.160156 278.519531 C 148.078125 280.429688 167.410156 286.589844 167.410156 286.589844 L 170.601562 277.878906 L 159.328125 272.570312 L 166.328125 250.039062 C 166.328125 250.039062 168.21875 236.648438 160.78125 233.679688 Z M 160.78125 233.679688 "/>
<path style="fill:none;stroke-width:1;stroke-linecap:round;stroke-linejoin:round;stroke:rgb(14.901961%,19.607843%,21.960784%);stroke-opacity:1;stroke-miterlimit:4;" d="M 150.648438 278 C 155.179688 277.449219 159.289062 272.601562 159.289062 272.601562 C 159.355469 274.949219 158.628906 277.25 157.230469 279.140625 "/>
<path style="fill:none;stroke-width:1;stroke-linecap:round;stroke-linejoin:round;stroke:rgb(14.901961%,19.607843%,21.960784%);stroke-opacity:1;stroke-miterlimit:4;" d="M 163.53125 257.078125 C 163.53125 257.078125 161.808594 255.648438 158.371094 248.199219 "/>
<path style="fill:none;stroke-width:1;stroke-linecap:round;stroke-linejoin:round;stroke:rgb(14.901961%,19.607843%,21.960784%);stroke-opacity:1;stroke-miterlimit:4;" d="M 163.238281 258.511719 C 160.011719 257.054688 156.859375 255.425781 153.800781 253.640625 "/>
<path style="fill-rule:nonzero;fill:rgb(57.254902%,89.019608%,66.27451%);fill-opacity:1;stroke-width:1;stroke-linecap:round;stroke-linejoin:round;stroke:rgb(14.901961%,19.607843%,21.960784%);stroke-opacity:1;stroke-miterlimit:4;" d="M 169.488281 279.160156 C 169.488281 279.160156 164.390625 287.660156 160.988281 304.660156 C 158.933594 315.941406 158.292969 327.429688 159.078125 338.871094 C 159.078125 338.871094 178.628906 343.128906 213.269531 338.871094 C 213.269531 338.871094 209.871094 295.949219 197.121094 279.160156 Z M 169.488281 279.160156 "/>
<path style="fill-rule:nonzero;fill:rgb(14.901961%,19.607843%,21.960784%);fill-opacity:1;stroke-width:1;stroke-linecap:round;stroke-linejoin:round;stroke:rgb(14.901961%,19.607843%,21.960784%);stroke-opacity:1;stroke-miterlimit:4;" d="M 158.761719 330.710938 C 158.761719 335.710938 159.078125 338.871094 159.078125 338.871094 C 159.078125 338.871094 178.628906 343.128906 213.269531 338.871094 C 213.269531 338.871094 213.019531 335.691406 212.398438 330.71875 C 183.300781 333.710938 164.621094 331.578125 158.761719 330.710938 Z M 158.761719 330.710938 "/>
<path style="fill-rule:nonzero;fill:rgb(57.254902%,89.019608%,66.27451%);fill-opacity:1;stroke-width:1;stroke-linecap:round;stroke-linejoin:round;stroke:rgb(14.901961%,19.607843%,21.960784%);stroke-opacity:1;stroke-miterlimit:4;" d="M 172 229.851562 C 172 229.851562 162.441406 232.191406 160.738281 233.679688 C 159.039062 235.171875 159.890625 243.03125 160.949219 248.128906 C 162.011719 253.230469 169.449219 279.128906 169.449219 279.128906 L 197.078125 279.128906 C 197.078125 279.128906 203.460938 237.46875 203.238281 233.859375 C 203.019531 230.25 186.03125 227.910156 186.03125 227.910156 Z M 172 229.851562 "/>
<path style="fill-rule:nonzero;fill:rgb(14.901961%,19.607843%,21.960784%);fill-opacity:1;stroke-width:1;stroke-linecap:round;stroke-linejoin:round;stroke:rgb(14.901961%,19.607843%,21.960784%);stroke-opacity:1;stroke-miterlimit:4;" d="M 167.621094 272.570312 L 169.488281 279.160156 L 197.121094 279.160156 C 197.121094 279.160156 197.519531 276.539062 198.121094 272.570312 Z M 167.621094 272.570312 "/>
<path style="fill-rule:nonzero;fill:rgb(100%,100%,100%);fill-opacity:1;stroke-width:1;stroke-linecap:round;stroke-linejoin:round;stroke:rgb(14.901961%,19.607843%,21.960784%);stroke-opacity:1;stroke-miterlimit:4;" d="M 228.058594 280.738281 C 229.152344 281.222656 230.3125 281.539062 231.5 281.679688 C 232.75 281.679688 236.980469 279.800781 238.699219 280.109375 C 240.421875 280.421875 243.859375 285.898438 244.328125 286.679688 C 244.800781 287.460938 242.519531 288.171875 241.671875 288.871094 C 240.25 290.050781 238.980469 288.96875 239.171875 288.398438 L 239.480469 287.148438 C 239.480469 287.148438 238.078125 286.289062 237.128906 287.148438 C 235.960938 288.164062 234.460938 288.71875 232.910156 288.710938 C 231.03125 288.710938 226.96875 285.898438 226.96875 285.898438 Z M 228.058594 280.738281 "/>
<path style="fill-rule:nonzero;fill:rgb(57.254902%,89.019608%,66.27451%);fill-opacity:1;stroke-width:1;stroke-linecap:round;stroke-linejoin:round;stroke:rgb(14.901961%,19.607843%,21.960784%);stroke-opacity:1;stroke-miterlimit:4;" d="M 195.421875 258.539062 C 195.421875 258.539062 196.269531 275.121094 197.328125 276.820312 C 198.390625 278.519531 210.078125 283.820312 215.820312 285.53125 C 219.648438 286.617188 223.558594 287.398438 227.511719 287.871094 L 229.210938 280.21875 C 229.210938 280.21875 214.550781 272.140625 211.570312 270.21875 C 208.589844 268.300781 206.679688 266.820312 206.679688 266.820312 C 206.679688 266.820312 205.828125 244.289062 205.621094 240.039062 C 205.410156 235.789062 205.410156 233.671875 203.5 232.601562 C 201.445312 231.691406 199.308594 230.984375 197.121094 230.480469 "/>
<path style="fill:none;stroke-width:1;stroke-linecap:round;stroke-linejoin:round;stroke:rgb(14.901961%,19.607843%,21.960784%);stroke-opacity:1;stroke-miterlimit:4;" d="M 201.589844 272.820312 C 204.738281 271.101562 206.679688 266.820312 206.679688 266.820312 C 206.679688 266.820312 201.589844 269.660156 197.578125 267.941406 "/>
<path style="fill-rule:nonzero;fill:rgb(14.901961%,19.607843%,21.960784%);fill-opacity:1;stroke-width:1;stroke-linecap:round;stroke-linejoin:round;stroke:rgb(14.901961%,19.607843%,21.960784%);stroke-opacity:1;stroke-miterlimit:4;" d="M 178.269531 197.550781 C 174.34375 198.6875 171.335938 201.859375 170.410156 205.839844 C 168.488281 212.839844 169.980469 219.839844 169.980469 222.410156 C 169.980469 224.980469 168.488281 236.230469 166.980469 244.300781 C 165.46875 252.371094 163.371094 261.519531 163.371094 261.519531 C 163.371094 261.519531 169.539062 263 172.511719 263.429688 L 178.671875 264.28125 L 179.738281 259.179688 L 180.589844 264.488281 C 182.640625 264.625 184.699219 264.625 186.75 264.488281 C 189.253906 264.292969 191.703125 263.644531 193.980469 262.578125 L 194.191406 259.820312 L 196.308594 262.148438 C 197.546875 261.820312 198.757812 261.398438 199.929688 260.878906 C 201.839844 260.03125 204.808594 258.328125 204.808594 258.328125 C 204.808594 258.328125 194.609375 232.828125 193.339844 227.511719 C 192.070312 222.191406 194.398438 219.230469 195.25 212.640625 C 196.101562 206.050781 191.640625 196.488281 188.25 195.851562 C 186.203125 195.5 184.117188 196.222656 182.71875 197.761719 C 181.34375 197.015625 179.707031 196.941406 178.269531 197.550781 Z M 178.269531 197.550781 "/>
</g>
</svg>
