<?xml version="1.0" encoding="UTF-8"?>
<svg xmlns="http://www.w3.org/2000/svg" xmlns:xlink="http://www.w3.org/1999/xlink" width="500px" height="500px" viewBox="0 0 500 500" version="1.1">
<defs>
<filter id="alpha" filterUnits="objectBoundingBox" x="0%" y="0%" width="100%" height="100%">
  <feColorMatrix type="matrix" in="SourceGraphic" values="0 0 0 0 1 0 0 0 0 1 0 0 0 0 1 0 0 0 1 0"/>
</filter>
<mask id="mask0">
  <g filter="url(#alpha)">
<rect x="0" y="0" width="500" height="500" style="fill:rgb(0%,0%,0%);fill-opacity:0.301961;stroke:none;"/>
  </g>
</mask>
<clipPath id="clip1">
  <rect x="0" y="0" width="500" height="500"/>
</clipPath>
<g id="surface5" clip-path="url(#clip1)">
<path style=" stroke:none;fill-rule:nonzero;fill:rgb(25.098039%,48.235294%,100%);fill-opacity:1;" d="M 90.855469 126.183594 L 147.953125 113.261719 L 148.175781 114.238281 L 91.078125 127.15625 Z M 90.855469 126.183594 "/>
</g>
<mask id="mask1">
  <g filter="url(#alpha)">
<rect x="0" y="0" width="500" height="500" style="fill:rgb(0%,0%,0%);fill-opacity:0.301961;stroke:none;"/>
  </g>
</mask>
<clipPath id="clip2">
  <rect x="0" y="0" width="500" height="500"/>
</clipPath>
<g id="surface8" clip-path="url(#clip2)">
<path style=" stroke:none;fill-rule:nonzero;fill:rgb(25.098039%,48.235294%,100%);fill-opacity:1;" d="M 77.753906 125.34375 L 103.941406 119.417969 L 104.164062 120.390625 L 77.976562 126.316406 Z M 77.753906 125.34375 "/>
</g>
<mask id="mask2">
  <g filter="url(#alpha)">
<rect x="0" y="0" width="500" height="500" style="fill:rgb(0%,0%,0%);fill-opacity:0.301961;stroke:none;"/>
  </g>
</mask>
<clipPath id="clip3">
  <rect x="0" y="0" width="500" height="500"/>
</clipPath>
<g id="surface11" clip-path="url(#clip3)">
<path style=" stroke:none;fill-rule:nonzero;fill:rgb(25.098039%,48.235294%,100%);fill-opacity:1;" d="M 79.722656 100.878906 L 92.820312 97.914062 L 93.039062 98.890625 L 79.941406 101.855469 Z M 79.722656 100.878906 "/>
</g>
<mask id="mask3">
  <g filter="url(#alpha)">
<rect x="0" y="0" width="500" height="500" style="fill:rgb(0%,0%,0%);fill-opacity:0.101961;stroke:none;"/>
  </g>
</mask>
<clipPath id="clip4">
  <rect x="0" y="0" width="500" height="500"/>
</clipPath>
<g id="surface14" clip-path="url(#clip4)">
<path style=" stroke:none;fill-rule:nonzero;fill:rgb(100%,100%,100%);fill-opacity:1;" d="M 249.269531 80.199219 C 248.917969 79.816406 248.53125 79.460938 248.121094 79.140625 L 114.929688 109.230469 L 134.421875 111.230469 L 247.589844 85.628906 C 248.742188 85.382812 249.671875 84.53125 250.019531 83.40625 C 250.367188 82.28125 250.082031 81.054688 249.269531 80.199219 Z M 249.269531 80.199219 "/>
</g>
<mask id="mask4">
  <g filter="url(#alpha)">
<rect x="0" y="0" width="500" height="500" style="fill:rgb(0%,0%,0%);fill-opacity:0.501961;stroke:none;"/>
  </g>
</mask>
<clipPath id="clip5">
  <rect x="0" y="0" width="500" height="500"/>
</clipPath>
<g id="surface17" clip-path="url(#clip5)">
<path style=" stroke:none;fill-rule:nonzero;fill:rgb(100%,100%,100%);fill-opacity:1;" d="M 242.269531 76.820312 C 240.507812 76.4375 238.726562 76.164062 236.929688 76 L 215.929688 80.75 C 216.074219 81.402344 216.472656 81.96875 217.035156 82.324219 C 217.597656 82.675781 218.28125 82.792969 218.929688 82.640625 L 243.519531 77.078125 Z M 242.269531 76.820312 "/>
</g>
<mask id="mask5">
  <g filter="url(#alpha)">
<rect x="0" y="0" width="500" height="500" style="fill:rgb(0%,0%,0%);fill-opacity:0.501961;stroke:none;"/>
  </g>
</mask>
<clipPath id="clip6">
  <rect x="0" y="0" width="500" height="500"/>
</clipPath>
<g id="surface20" clip-path="url(#clip6)">
<path style=" stroke:none;fill-rule:nonzero;fill:rgb(100%,100%,100%);fill-opacity:1;" d="M 211.554688 83.015625 L 211.917969 82.933594 C 212.289062 82.847656 212.65625 83.082031 212.742188 83.453125 L 212.988281 84.546875 C 213.074219 84.917969 212.839844 85.285156 212.46875 85.371094 L 212.105469 85.453125 C 211.734375 85.535156 211.367188 85.304688 211.28125 84.929688 L 211.035156 83.839844 C 210.949219 83.46875 211.183594 83.097656 211.554688 83.015625 Z M 211.554688 83.015625 "/>
<path style=" stroke:none;fill-rule:nonzero;fill:rgb(100%,100%,100%);fill-opacity:1;" d="M 207.558594 83.929688 L 207.921875 83.847656 C 208.292969 83.765625 208.660156 84 208.746094 84.371094 L 208.992188 85.464844 C 209.078125 85.835938 208.84375 86.203125 208.472656 86.289062 L 208.109375 86.371094 C 207.738281 86.453125 207.371094 86.21875 207.285156 85.847656 L 207.039062 84.757812 C 206.953125 84.382812 207.1875 84.015625 207.558594 83.929688 Z M 207.558594 83.929688 "/>
<path style=" stroke:none;fill-rule:nonzero;fill:rgb(100%,100%,100%);fill-opacity:1;" d="M 203.570312 84.820312 L 203.933594 84.738281 C 204.304688 84.65625 204.671875 84.890625 204.757812 85.261719 L 205.003906 86.351562 C 205.089844 86.726562 204.855469 87.09375 204.484375 87.179688 L 204.121094 87.257812 C 203.75 87.34375 203.382812 87.109375 203.296875 86.738281 L 203.050781 85.644531 C 202.964844 85.273438 203.199219 84.90625 203.570312 84.820312 Z M 203.570312 84.820312 "/>
<path style=" stroke:none;fill-rule:nonzero;fill:rgb(100%,100%,100%);fill-opacity:1;" d="M 199.566406 85.730469 L 199.929688 85.648438 C 200.300781 85.566406 200.671875 85.796875 200.753906 86.171875 L 201 87.261719 C 201.085938 87.632812 200.851562 88.003906 200.480469 88.089844 L 200.121094 88.167969 C 199.746094 88.253906 199.378906 88.019531 199.292969 87.648438 L 199.046875 86.554688 C 198.964844 86.183594 199.195312 85.816406 199.566406 85.730469 Z M 199.566406 85.730469 "/>
<path style=" stroke:none;fill-rule:nonzero;fill:rgb(100%,100%,100%);fill-opacity:1;" d="M 195.5625 86.632812 L 195.921875 86.554688 C 196.292969 86.46875 196.664062 86.703125 196.746094 87.074219 L 196.992188 88.167969 C 197.078125 88.539062 196.84375 88.90625 196.472656 88.992188 L 196.109375 89.074219 C 195.738281 89.15625 195.371094 88.921875 195.285156 88.550781 L 195.039062 87.460938 C 194.957031 87.085938 195.1875 86.71875 195.5625 86.632812 Z M 195.5625 86.632812 "/>
<path style=" stroke:none;fill-rule:nonzero;fill:rgb(100%,100%,100%);fill-opacity:1;" d="M 191.582031 87.519531 L 191.941406 87.4375 C 192.316406 87.351562 192.683594 87.585938 192.769531 87.957031 L 193.015625 89.050781 C 193.097656 89.421875 192.867188 89.792969 192.492188 89.875 L 192.132812 89.957031 C 191.761719 90.042969 191.390625 89.808594 191.308594 89.4375 L 191.0625 88.34375 C 190.976562 87.972656 191.210938 87.601562 191.582031 87.519531 Z M 191.582031 87.519531 "/>
<path style=" stroke:none;fill-rule:nonzero;fill:rgb(100%,100%,100%);fill-opacity:1;" d="M 187.574219 88.449219 L 187.9375 88.367188 C 188.308594 88.285156 188.675781 88.515625 188.761719 88.890625 L 189.007812 89.980469 C 189.09375 90.351562 188.859375 90.722656 188.488281 90.804688 L 188.125 90.886719 C 187.753906 90.972656 187.386719 90.738281 187.300781 90.367188 L 187.054688 89.273438 C 186.96875 88.902344 187.203125 88.535156 187.574219 88.449219 Z M 187.574219 88.449219 "/>
<path style=" stroke:none;fill-rule:nonzero;fill:rgb(100%,100%,100%);fill-opacity:1;" d="M 183.578125 89.328125 L 183.9375 89.246094 C 184.3125 89.164062 184.679688 89.394531 184.765625 89.769531 L 185.011719 90.859375 C 185.09375 91.230469 184.863281 91.601562 184.488281 91.683594 L 184.128906 91.765625 C 183.757812 91.851562 183.386719 91.617188 183.304688 91.246094 L 183.058594 90.152344 C 182.972656 89.78125 183.207031 89.414062 183.578125 89.328125 Z M 183.578125 89.328125 "/>
<path style=" stroke:none;fill-rule:nonzero;fill:rgb(100%,100%,100%);fill-opacity:1;" d="M 179.585938 90.246094 L 179.949219 90.164062 C 180.320312 90.078125 180.691406 90.3125 180.773438 90.683594 L 181.019531 91.777344 C 181.105469 92.148438 180.871094 92.519531 180.5 92.601562 L 180.136719 92.683594 C 179.765625 92.765625 179.398438 92.535156 179.3125 92.160156 L 179.066406 91.070312 C 178.984375 90.699219 179.214844 90.328125 179.585938 90.246094 Z M 179.585938 90.246094 "/>
<path style=" stroke:none;fill-rule:nonzero;fill:rgb(100%,100%,100%);fill-opacity:1;" d="M 175.59375 91.136719 L 175.953125 91.054688 C 176.328125 90.96875 176.695312 91.203125 176.78125 91.574219 L 177.027344 92.667969 C 177.109375 93.039062 176.878906 93.410156 176.507812 93.492188 L 176.144531 93.574219 C 175.773438 93.660156 175.402344 93.425781 175.320312 93.054688 L 175.074219 91.960938 C 174.988281 91.589844 175.222656 91.21875 175.59375 91.136719 Z M 175.59375 91.136719 "/>
<path style=" stroke:none;fill-rule:nonzero;fill:rgb(100%,100%,100%);fill-opacity:1;" d="M 171.582031 92.050781 L 171.945312 91.96875 C 172.316406 91.886719 172.683594 92.121094 172.769531 92.492188 L 173.015625 93.582031 C 173.097656 93.957031 172.867188 94.324219 172.492188 94.410156 L 172.132812 94.488281 C 171.761719 94.574219 171.390625 94.339844 171.308594 93.96875 L 171.0625 92.875 C 170.976562 92.503906 171.210938 92.136719 171.582031 92.050781 Z M 171.582031 92.050781 "/>
<path style=" stroke:none;fill-rule:nonzero;fill:rgb(100%,100%,100%);fill-opacity:1;" d="M 167.585938 92.957031 L 167.949219 92.875 C 168.320312 92.789062 168.691406 93.023438 168.773438 93.394531 L 169.019531 94.488281 C 169.105469 94.859375 168.871094 95.230469 168.5 95.3125 L 168.140625 95.394531 C 167.765625 95.476562 167.398438 95.246094 167.3125 94.875 L 167.066406 93.78125 C 166.984375 93.410156 167.214844 93.039062 167.585938 92.957031 Z M 167.585938 92.957031 "/>
<path style=" stroke:none;fill-rule:nonzero;fill:rgb(100%,100%,100%);fill-opacity:1;" d="M 164.324219 94.324219 L 164.6875 94.242188 C 165.058594 94.15625 165.429688 94.390625 165.515625 94.765625 L 165.761719 95.863281 C 165.84375 96.238281 165.609375 96.609375 165.238281 96.691406 L 164.875 96.773438 C 164.5 96.855469 164.128906 96.621094 164.046875 96.25 L 163.800781 95.152344 C 163.714844 94.777344 163.949219 94.40625 164.324219 94.324219 Z M 164.324219 94.324219 "/>
<path style=" stroke:none;fill-rule:nonzero;fill:rgb(100%,100%,100%);fill-opacity:1;" d="M 159.605469 94.753906 L 159.964844 94.671875 C 160.335938 94.585938 160.707031 94.820312 160.789062 95.191406 L 161.035156 96.285156 C 161.121094 96.65625 160.886719 97.027344 160.515625 97.109375 L 160.15625 97.191406 C 159.785156 97.277344 159.414062 97.042969 159.328125 96.671875 L 159.082031 95.578125 C 159 95.207031 159.230469 94.835938 159.605469 94.753906 Z M 159.605469 94.753906 "/>
<path style=" stroke:none;fill-rule:nonzero;fill:rgb(100%,100%,100%);fill-opacity:1;" d="M 155.601562 95.644531 L 155.960938 95.5625 C 156.332031 95.476562 156.703125 95.710938 156.785156 96.082031 L 157.03125 97.175781 C 157.117188 97.546875 156.882812 97.917969 156.511719 98 L 156.152344 98.082031 C 155.78125 98.167969 155.410156 97.933594 155.324219 97.5625 L 155.078125 96.46875 C 154.996094 96.097656 155.230469 95.726562 155.601562 95.644531 Z M 155.601562 95.644531 "/>
<path style=" stroke:none;fill-rule:nonzero;fill:rgb(100%,100%,100%);fill-opacity:1;" d="M 151.609375 96.5625 L 151.96875 96.480469 C 152.34375 96.394531 152.710938 96.628906 152.796875 97 L 153.042969 98.09375 C 153.125 98.464844 152.894531 98.832031 152.523438 98.917969 L 152.160156 99 C 151.789062 99.082031 151.417969 98.851562 151.335938 98.476562 L 151.089844 97.386719 C 151.003906 97.015625 151.238281 96.644531 151.609375 96.5625 Z M 151.609375 96.5625 "/>
<path style=" stroke:none;fill-rule:nonzero;fill:rgb(100%,100%,100%);fill-opacity:1;" d="M 147.605469 97.480469 L 147.964844 97.398438 C 148.335938 97.3125 148.707031 97.546875 148.789062 97.917969 L 149.039062 99.011719 C 149.121094 99.382812 148.886719 99.75 148.515625 99.835938 L 148.15625 99.917969 C 147.785156 100 147.414062 99.769531 147.332031 99.394531 L 147.082031 98.304688 C 147 97.933594 147.234375 97.5625 147.605469 97.480469 Z M 147.605469 97.480469 "/>
<path style=" stroke:none;fill-rule:nonzero;fill:rgb(100%,100%,100%);fill-opacity:1;" d="M 143.601562 98.378906 L 143.960938 98.296875 C 144.332031 98.210938 144.703125 98.445312 144.785156 98.816406 L 145.035156 99.910156 C 145.117188 100.28125 144.882812 100.652344 144.511719 100.734375 L 144.152344 100.816406 C 143.78125 100.898438 143.410156 100.667969 143.328125 100.292969 L 143.078125 99.203125 C 142.996094 98.832031 143.230469 98.460938 143.601562 98.378906 Z M 143.601562 98.378906 "/>
<path style=" stroke:none;fill-rule:nonzero;fill:rgb(100%,100%,100%);fill-opacity:1;" d="M 139.613281 99.269531 L 139.972656 99.1875 C 140.34375 99.105469 140.714844 99.339844 140.796875 99.710938 L 141.046875 100.800781 C 141.128906 101.171875 140.894531 101.542969 140.523438 101.628906 L 140.164062 101.707031 C 139.792969 101.792969 139.421875 101.558594 139.339844 101.1875 L 139.089844 100.09375 C 139.007812 99.722656 139.242188 99.355469 139.613281 99.269531 Z M 139.613281 99.269531 "/>
<path style=" stroke:none;fill-rule:nonzero;fill:rgb(100%,100%,100%);fill-opacity:1;" d="M 135.617188 100.164062 L 135.976562 100.082031 C 136.351562 100 136.71875 100.234375 136.804688 100.605469 L 137.050781 101.695312 C 137.132812 102.070312 136.902344 102.4375 136.527344 102.523438 L 136.167969 102.605469 C 135.796875 102.6875 135.425781 102.453125 135.34375 102.082031 L 135.097656 100.992188 C 135.011719 100.617188 135.246094 100.25 135.617188 100.164062 Z M 135.617188 100.164062 "/>
</g>
<mask id="mask6">
  <g filter="url(#alpha)">
<rect x="0" y="0" width="500" height="500" style="fill:rgb(0%,0%,0%);fill-opacity:0.301961;stroke:none;"/>
  </g>
</mask>
<clipPath id="clip7">
  <rect x="0" y="0" width="500" height="500"/>
</clipPath>
<g id="surface23" clip-path="url(#clip7)">
<path style=" stroke:none;fill-rule:nonzero;fill:rgb(0%,0%,0%);fill-opacity:1;" d="M 265.648438 162.550781 C 265.03125 161.738281 263.339844 163.550781 262.070312 165.941406 C 263.828125 169.429688 266.070312 173.289062 268.070312 176.589844 C 269.261719 170.210938 267.25 164.601562 265.648438 162.550781 Z M 265.648438 162.550781 "/>
</g>
<mask id="mask7">
  <g filter="url(#alpha)">
<rect x="0" y="0" width="500" height="500" style="fill:rgb(0%,0%,0%);fill-opacity:0.301961;stroke:none;"/>
  </g>
</mask>
<clipPath id="clip8">
  <rect x="0" y="0" width="500" height="500"/>
</clipPath>
<g id="surface26" clip-path="url(#clip8)">
<path style=" stroke:none;fill-rule:nonzero;fill:rgb(0%,0%,0%);fill-opacity:1;" d="M 223.730469 165.390625 C 223.316406 172.136719 223.316406 178.902344 223.730469 185.648438 C 226.800781 180.511719 231.359375 171 232.058594 163.390625 Z M 223.730469 165.390625 "/>
</g>
<mask id="mask8">
  <g filter="url(#alpha)">
<rect x="0" y="0" width="500" height="500" style="fill:rgb(0%,0%,0%);fill-opacity:0.2;stroke:none;"/>
  </g>
</mask>
<clipPath id="clip9">
  <rect x="0" y="0" width="500" height="500"/>
</clipPath>
<g id="surface29" clip-path="url(#clip9)">
<path style=" stroke:none;fill-rule:nonzero;fill:rgb(0%,0%,0%);fill-opacity:1;" d="M 238.210938 390.921875 L 238.589844 399.980469 L 246.191406 399.980469 L 245.800781 390.921875 Z M 238.210938 390.921875 "/>
</g>
<mask id="mask9">
  <g filter="url(#alpha)">
<rect x="0" y="0" width="500" height="500" style="fill:rgb(0%,0%,0%);fill-opacity:0.2;stroke:none;"/>
  </g>
</mask>
<clipPath id="clip10">
  <rect x="0" y="0" width="500" height="500"/>
</clipPath>
<g id="surface32" clip-path="url(#clip10)">
<path style=" stroke:none;fill-rule:nonzero;fill:rgb(0%,0%,0%);fill-opacity:1;" d="M 294.730469 386.171875 L 287.308594 387.769531 L 291.148438 396.210938 L 298.570312 394.601562 Z M 294.730469 386.171875 "/>
</g>
<mask id="mask10">
  <g filter="url(#alpha)">
<rect x="0" y="0" width="500" height="500" style="fill:rgb(0%,0%,0%);fill-opacity:0.301961;stroke:none;"/>
  </g>
</mask>
<clipPath id="clip11">
  <rect x="0" y="0" width="500" height="500"/>
</clipPath>
<g id="surface35" clip-path="url(#clip11)">
<path style=" stroke:none;fill-rule:nonzero;fill:rgb(0%,0%,0%);fill-opacity:1;" d="M 246.558594 236.109375 C 256.558594 238.058594 255.46875 275.199219 254.269531 294.300781 C 251.398438 280.800781 247.191406 254.820312 244.269531 236.378906 C 244.980469 236.027344 245.789062 235.933594 246.558594 236.109375 Z M 246.558594 236.109375 "/>
</g>
<mask id="mask11">
  <g filter="url(#alpha)">
<rect x="0" y="0" width="500" height="500" style="fill:rgb(0%,0%,0%);fill-opacity:0.2;stroke:none;"/>
  </g>
</mask>
<clipPath id="clip12">
  <rect x="0" y="0" width="500" height="500"/>
</clipPath>
<g id="surface38" clip-path="url(#clip12)">
<path style=" stroke:none;fill-rule:nonzero;fill:rgb(100%,100%,100%);fill-opacity:1;" d="M 322.71875 347.953125 L 376.46875 330.410156 L 383.316406 351.398438 L 329.566406 368.9375 Z M 322.71875 347.953125 "/>
</g>
</defs>
<g id="surface1">
<path style=" stroke:none;fill-rule:nonzero;fill:rgb(92.156863%,92.156863%,92.156863%);fill-opacity:1;" d="M 0 382.398438 L 500 382.398438 L 500 382.648438 L 0 382.648438 Z M 0 382.398438 "/>
<path style=" stroke:none;fill-rule:nonzero;fill:rgb(92.156863%,92.156863%,92.156863%);fill-opacity:1;" d="M 416.78125 398.488281 L 449.898438 398.488281 L 449.898438 398.738281 L 416.78125 398.738281 Z M 416.78125 398.488281 "/>
<path style=" stroke:none;fill-rule:nonzero;fill:rgb(92.156863%,92.156863%,92.156863%);fill-opacity:1;" d="M 322.53125 401.210938 L 331.21875 401.210938 L 331.21875 401.460938 L 322.53125 401.460938 Z M 322.53125 401.210938 "/>
<path style=" stroke:none;fill-rule:nonzero;fill:rgb(92.156863%,92.156863%,92.156863%);fill-opacity:1;" d="M 368.109375 389.210938 L 415.78125 389.210938 L 415.78125 389.460938 L 368.109375 389.460938 Z M 368.109375 389.210938 "/>
<path style=" stroke:none;fill-rule:nonzero;fill:rgb(92.156863%,92.156863%,92.156863%);fill-opacity:1;" d="M 52.460938 390.890625 L 76.140625 390.890625 L 76.140625 391.140625 L 52.460938 391.140625 Z M 52.460938 390.890625 "/>
<path style=" stroke:none;fill-rule:nonzero;fill:rgb(92.156863%,92.156863%,92.156863%);fill-opacity:1;" d="M 85.039062 390.890625 L 110.890625 390.890625 L 110.890625 391.140625 L 85.039062 391.140625 Z M 85.039062 390.890625 "/>
<path style=" stroke:none;fill-rule:nonzero;fill:rgb(92.156863%,92.156863%,92.156863%);fill-opacity:1;" d="M 131.46875 395.109375 L 196.109375 395.109375 L 196.109375 395.359375 L 131.46875 395.359375 Z M 131.46875 395.109375 "/>
<path style=" stroke:none;fill-rule:nonzero;fill:rgb(92.156863%,92.156863%,92.156863%);fill-opacity:1;" d="M 237 337.800781 L 43.910156 337.800781 C 40.761719 337.792969 38.210938 335.238281 38.210938 332.089844 L 38.210938 60.660156 C 38.238281 57.53125 40.78125 55.003906 43.910156 55 L 237 55 C 240.152344 55 242.710938 57.554688 242.710938 60.710938 L 242.710938 332.089844 C 242.710938 335.242188 240.152344 337.800781 237 337.800781 Z M 43.910156 55.199219 C 40.898438 55.207031 38.460938 57.648438 38.460938 60.660156 L 38.460938 332.089844 C 38.460938 335.101562 40.898438 337.542969 43.910156 337.550781 L 237 337.550781 C 240.011719 337.542969 242.453125 335.101562 242.460938 332.089844 L 242.460938 60.660156 C 242.453125 57.648438 240.011719 55.207031 237 55.199219 Z M 43.910156 55.199219 "/>
<path style=" stroke:none;fill-rule:nonzero;fill:rgb(92.156863%,92.156863%,92.156863%);fill-opacity:1;" d="M 453.308594 337.800781 L 260.210938 337.800781 C 257.058594 337.792969 254.503906 335.242188 254.5 332.089844 L 254.5 60.660156 C 254.53125 57.527344 257.078125 55.003906 260.210938 55 L 453.308594 55 C 456.4375 55.011719 458.972656 57.535156 459 60.660156 L 459 332.089844 C 459 335.234375 456.457031 337.789062 453.308594 337.800781 Z M 260.210938 55.199219 C 257.195312 55.207031 254.753906 57.648438 254.75 60.660156 L 254.75 332.089844 C 254.753906 335.101562 257.195312 337.542969 260.210938 337.550781 L 453.308594 337.550781 C 456.324219 337.542969 458.765625 335.101562 458.769531 332.089844 L 458.769531 60.660156 C 458.765625 57.648438 456.324219 55.207031 453.308594 55.199219 Z M 260.210938 55.199219 "/>
<path style=" stroke:none;fill-rule:nonzero;fill:rgb(98.039216%,98.039216%,98.039216%);fill-opacity:1;" d="M 161.339844 339.890625 L 333.101562 43.890625 L 420.480469 43.890625 L 248.71875 339.890625 Z M 161.339844 339.890625 "/>
<path style=" stroke:none;fill-rule:nonzero;fill:rgb(98.039216%,98.039216%,98.039216%);fill-opacity:1;" d="M 39.730469 339.890625 L 127.429688 188.75 L 172.050781 188.75 L 84.351562 339.890625 Z M 39.730469 339.890625 "/>
<path style=" stroke:none;fill-rule:nonzero;fill:rgb(98.039216%,98.039216%,98.039216%);fill-opacity:1;" d="M 337.988281 249.230469 L 408.179688 128.269531 L 443.890625 128.269531 L 373.699219 249.230469 Z M 337.988281 249.230469 "/>
<path style=" stroke:none;fill-rule:nonzero;fill:rgb(94.117647%,94.117647%,94.117647%);fill-opacity:1;" d="M 299.390625 316.78125 L 299.390625 43.890625 L 283.988281 43.890625 L 283.988281 316.78125 L 31 316.78125 L 31 382.398438 L 469.671875 382.398438 L 469.671875 316.78125 Z M 299.390625 316.78125 "/>
<path style=" stroke:none;fill-rule:nonzero;fill:rgb(90.196078%,90.196078%,90.196078%);fill-opacity:1;" d="M 467.519531 160.269531 L 335.269531 160.269531 C 330.359375 160.195312 326.292969 156.421875 325.859375 151.53125 L 321 87.601562 C 320.785156 85.335938 321.546875 83.089844 323.085938 81.421875 C 324.628906 79.753906 326.808594 78.816406 329.078125 78.851562 L 461.300781 78.851562 C 466.214844 78.929688 470.277344 82.703125 470.710938 87.601562 L 475.601562 151.53125 C 475.808594 153.789062 475.050781 156.035156 473.507812 157.703125 C 471.96875 159.367188 469.789062 160.300781 467.519531 160.269531 Z M 467.519531 160.269531 "/>
<path style=" stroke:none;fill-rule:nonzero;fill:rgb(94.117647%,94.117647%,94.117647%);fill-opacity:1;" d="M 464.679688 160.269531 L 332.429688 160.269531 C 327.519531 160.191406 323.460938 156.421875 323.019531 151.53125 L 318.140625 87.601562 C 317.925781 85.335938 318.6875 83.089844 320.226562 81.421875 C 321.769531 79.753906 323.949219 78.816406 326.21875 78.851562 L 458.460938 78.851562 C 463.375 78.925781 467.441406 82.703125 467.878906 87.601562 L 472.761719 151.53125 C 472.96875 153.789062 472.210938 156.035156 470.667969 157.703125 C 469.128906 159.367188 466.949219 160.300781 464.679688 160.269531 Z M 464.679688 160.269531 "/>
<path style=" stroke:none;fill-rule:nonzero;fill:rgb(100%,100%,100%);fill-opacity:1;" d="M 329.648438 89.160156 L 350.761719 89.160156 L 350.761719 91.160156 L 329.648438 91.160156 Z M 329.648438 89.160156 "/>
<path style=" stroke:none;fill-rule:nonzero;fill:rgb(100%,100%,100%);fill-opacity:1;" d="M 358.070312 89.160156 L 406.148438 89.160156 L 406.148438 91.160156 L 358.070312 91.160156 Z M 358.070312 89.160156 "/>
<path style=" stroke:none;fill-rule:nonzero;fill:rgb(100%,100%,100%);fill-opacity:1;" d="M 418.75 89.160156 L 454.058594 89.160156 L 454.058594 91.160156 L 418.75 91.160156 Z M 418.75 89.160156 "/>
<path style=" stroke:none;fill-rule:nonzero;fill:rgb(100%,100%,100%);fill-opacity:1;" d="M 330.21875 96.710938 L 351.328125 96.710938 L 351.328125 98.710938 L 330.21875 98.710938 Z M 330.21875 96.710938 "/>
<path style=" stroke:none;fill-rule:nonzero;fill:rgb(100%,100%,100%);fill-opacity:1;" d="M 358.648438 96.710938 L 390.941406 96.710938 L 390.941406 98.710938 L 358.648438 98.710938 Z M 358.648438 96.710938 "/>
<path style=" stroke:none;fill-rule:nonzero;fill:rgb(100%,100%,100%);fill-opacity:1;" d="M 419.328125 96.710938 L 454.640625 96.710938 L 454.640625 98.710938 L 419.328125 98.710938 Z M 419.328125 96.710938 "/>
<path style=" stroke:none;fill-rule:nonzero;fill:rgb(100%,100%,100%);fill-opacity:1;" d="M 330.800781 104.25 L 351.910156 104.25 L 351.910156 106.25 L 330.800781 106.25 Z M 330.800781 104.25 "/>
<path style=" stroke:none;fill-rule:nonzero;fill:rgb(100%,100%,100%);fill-opacity:1;" d="M 359.230469 104.25 L 400.921875 104.25 L 400.921875 106.25 L 359.230469 106.25 Z M 359.230469 104.25 "/>
<path style=" stroke:none;fill-rule:nonzero;fill:rgb(100%,100%,100%);fill-opacity:1;" d="M 419.898438 104.25 L 455.210938 104.25 L 455.210938 106.25 L 419.898438 106.25 Z M 419.898438 104.25 "/>
<path style=" stroke:none;fill-rule:nonzero;fill:rgb(100%,100%,100%);fill-opacity:1;" d="M 331.378906 111.800781 L 352.488281 111.800781 L 352.488281 113.800781 L 331.378906 113.800781 Z M 331.378906 111.800781 "/>
<path style=" stroke:none;fill-rule:nonzero;fill:rgb(100%,100%,100%);fill-opacity:1;" d="M 359.800781 111.800781 L 405.75 111.800781 L 405.75 113.800781 L 359.800781 113.800781 Z M 359.800781 111.800781 "/>
<path style=" stroke:none;fill-rule:nonzero;fill:rgb(100%,100%,100%);fill-opacity:1;" d="M 420.480469 111.800781 L 455.789062 111.800781 L 455.789062 113.800781 L 420.480469 113.800781 Z M 420.480469 111.800781 "/>
<path style=" stroke:none;fill-rule:nonzero;fill:rgb(100%,100%,100%);fill-opacity:1;" d="M 331.949219 119.339844 L 353.058594 119.339844 L 353.058594 121.339844 L 331.949219 121.339844 Z M 331.949219 119.339844 "/>
<path style=" stroke:none;fill-rule:nonzero;fill:rgb(100%,100%,100%);fill-opacity:1;" d="M 360.378906 119.339844 L 376.519531 119.339844 L 376.519531 121.339844 L 360.378906 121.339844 Z M 360.378906 119.339844 "/>
<path style=" stroke:none;fill-rule:nonzero;fill:rgb(100%,100%,100%);fill-opacity:1;" d="M 382.019531 119.339844 L 393.550781 119.339844 L 393.550781 121.339844 L 382.019531 121.339844 Z M 382.019531 119.339844 "/>
<path style=" stroke:none;fill-rule:nonzero;fill:rgb(100%,100%,100%);fill-opacity:1;" d="M 421.050781 119.339844 L 456.359375 119.339844 L 456.359375 121.339844 L 421.050781 121.339844 Z M 421.050781 119.339844 "/>
<path style=" stroke:none;fill-rule:nonzero;fill:rgb(100%,100%,100%);fill-opacity:1;" d="M 332.53125 126.878906 L 353.640625 126.878906 L 353.640625 128.878906 L 332.53125 128.878906 Z M 332.53125 126.878906 "/>
<path style=" stroke:none;fill-rule:nonzero;fill:rgb(100%,100%,100%);fill-opacity:1;" d="M 360.949219 126.878906 L 409.03125 126.878906 L 409.03125 128.878906 L 360.949219 128.878906 Z M 360.949219 126.878906 "/>
<path style=" stroke:none;fill-rule:nonzero;fill:rgb(100%,100%,100%);fill-opacity:1;" d="M 421.628906 126.878906 L 456.941406 126.878906 L 456.941406 128.878906 L 421.628906 128.878906 Z M 421.628906 126.878906 "/>
<path style=" stroke:none;fill-rule:nonzero;fill:rgb(100%,100%,100%);fill-opacity:1;" d="M 333.101562 134.429688 L 354.210938 134.429688 L 354.210938 136.429688 L 333.101562 136.429688 Z M 333.101562 134.429688 "/>
<path style=" stroke:none;fill-rule:nonzero;fill:rgb(100%,100%,100%);fill-opacity:1;" d="M 361.53125 134.429688 L 397.898438 134.429688 L 397.898438 136.429688 L 361.53125 136.429688 Z M 361.53125 134.429688 "/>
<path style=" stroke:none;fill-rule:nonzero;fill:rgb(100%,100%,100%);fill-opacity:1;" d="M 422.210938 134.429688 L 457.519531 134.429688 L 457.519531 136.429688 L 422.210938 136.429688 Z M 422.210938 134.429688 "/>
<path style=" stroke:none;fill-rule:nonzero;fill:rgb(100%,100%,100%);fill-opacity:1;" d="M 333.679688 141.96875 L 354.789062 141.96875 L 354.789062 143.96875 L 333.679688 143.96875 Z M 333.679688 141.96875 "/>
<path style=" stroke:none;fill-rule:nonzero;fill:rgb(100%,100%,100%);fill-opacity:1;" d="M 362.109375 141.96875 L 394.398438 141.96875 L 394.398438 143.96875 L 362.109375 143.96875 Z M 362.109375 141.96875 "/>
<path style=" stroke:none;fill-rule:nonzero;fill:rgb(100%,100%,100%);fill-opacity:1;" d="M 400.070312 141.96875 L 410.179688 141.96875 L 410.179688 143.96875 L 400.070312 143.96875 Z M 400.070312 141.96875 "/>
<path style=" stroke:none;fill-rule:nonzero;fill:rgb(100%,100%,100%);fill-opacity:1;" d="M 422.78125 141.96875 L 458.089844 141.96875 L 458.089844 143.96875 L 422.78125 143.96875 Z M 422.78125 141.96875 "/>
<path style=" stroke:none;fill-rule:nonzero;fill:rgb(100%,100%,100%);fill-opacity:1;" d="M 334.261719 149.511719 L 355.371094 149.511719 L 355.371094 151.511719 L 334.261719 151.511719 Z M 334.261719 149.511719 "/>
<path style=" stroke:none;fill-rule:nonzero;fill:rgb(100%,100%,100%);fill-opacity:1;" d="M 362.679688 149.511719 L 407.390625 149.511719 L 407.390625 151.511719 L 362.679688 151.511719 Z M 362.679688 149.511719 "/>
<path style=" stroke:none;fill-rule:nonzero;fill:rgb(100%,100%,100%);fill-opacity:1;" d="M 423.359375 149.511719 L 458.671875 149.511719 L 458.671875 151.511719 L 423.359375 151.511719 Z M 423.359375 149.511719 "/>
<path style=" stroke:none;fill-rule:nonzero;fill:rgb(96.078431%,96.078431%,96.078431%);fill-opacity:1;" d="M 443.890625 416.238281 C 443.890625 409.988281 357.082031 404.921875 250 404.921875 C 142.917969 404.921875 56.109375 409.988281 56.109375 416.238281 C 56.109375 422.492188 142.917969 427.558594 250 427.558594 C 357.082031 427.558594 443.890625 422.492188 443.890625 416.238281 Z M 443.890625 416.238281 "/>
<path style=" stroke:none;fill-rule:nonzero;fill:rgb(25.098039%,48.235294%,100%);fill-opacity:1;" d="M 247.589844 85.628906 L 134.421875 111.199219 L 114.078125 109.199219 C 110.171875 108.800781 106.589844 106.828125 104.160156 103.738281 L 222.789062 76.941406 C 229.199219 75.492188 235.851562 75.46875 242.269531 76.871094 L 244.019531 77.25 C 246.035156 77.695312 247.863281 78.742188 249.269531 80.25 C 250.042969 81.109375 250.304688 82.3125 249.957031 83.417969 C 249.613281 84.519531 248.714844 85.363281 247.589844 85.628906 Z M 247.589844 85.628906 "/>
<use xlink:href="#surface5" mask="url(#mask0)"/>
<use xlink:href="#surface8" mask="url(#mask1)"/>
<use xlink:href="#surface11" mask="url(#mask2)"/>
<use xlink:href="#surface14" mask="url(#mask3)"/>
<use xlink:href="#surface17" mask="url(#mask4)"/>
<use xlink:href="#surface20" mask="url(#mask5)"/>
<path style=" stroke:none;fill-rule:nonzero;fill:rgb(25.098039%,48.235294%,100%);fill-opacity:1;" d="M 107.339844 85.628906 L 101.488281 87 L 106.359375 103.238281 L 129 98.070312 C 121.308594 99.808594 107.339844 85.628906 107.339844 85.628906 Z M 107.339844 85.628906 "/>
<path style=" stroke:none;fill-rule:nonzero;fill:rgb(14.901961%,19.607843%,21.960784%);fill-opacity:1;" d="M 144.199219 106.320312 C 143.019531 105.332031 141.53125 104.789062 139.988281 104.78125 L 124.210938 104.710938 L 116.898438 106.359375 L 129.410156 109.660156 Z M 144.199219 106.320312 "/>
<path style=" stroke:none;fill-rule:nonzero;fill:rgb(14.901961%,19.607843%,21.960784%);fill-opacity:1;" d="M 210.679688 92.839844 L 160.550781 86.359375 C 157.773438 86 154.957031 86.132812 152.230469 86.75 L 145.710938 88.21875 L 176.070312 100.660156 Z M 210.679688 92.839844 "/>
<path style=" stroke:none;fill-rule:nonzero;fill:rgb(14.901961%,19.607843%,21.960784%);fill-opacity:1;" d="M 208.601562 93.878906 L 179.601562 108.949219 C 177.964844 109.796875 176.226562 110.425781 174.429688 110.828125 L 170.101562 111.828125 L 178.828125 100.621094 Z M 208.601562 93.878906 "/>
<path style=" stroke:none;fill-rule:nonzero;fill:rgb(14.901961%,19.607843%,21.960784%);fill-opacity:1;" d="M 126.25 110.378906 L 134.421875 111.210938 L 247.589844 85.628906 C 249.109375 85.292969 250.183594 83.9375 250.160156 82.378906 Z M 126.25 110.378906 "/>
<path style=" stroke:none;fill-rule:nonzero;fill:rgb(71.372549%,35.686275%,32.156863%);fill-opacity:1;" d="M 272.671875 155.210938 C 275.789062 160.398438 278.621094 165.578125 281.269531 170.980469 C 282.589844 173.671875 283.871094 176.390625 285.050781 179.191406 C 286.230469 181.988281 287.378906 184.808594 288.359375 187.789062 L 288.730469 188.910156 L 288.910156 189.480469 L 289.109375 190.179688 C 289.359375 191.089844 289.519531 191.921875 289.671875 192.730469 C 289.960938 194.351562 290.140625 195.898438 290.289062 197.429688 C 290.609375 200.429688 290.75 203.429688 290.859375 206.429688 C 291.039062 212.429688 290.941406 218.308594 290.558594 224.269531 L 284.871094 224.519531 L 282.128906 207.261719 C 281.691406 204.398438 281.179688 201.570312 280.648438 198.820312 C 280.378906 197.449219 280.070312 196.101562 279.730469 194.820312 C 279.417969 193.632812 279.011719 192.472656 278.511719 191.351562 C 276.398438 186.289062 273.789062 181.171875 271.101562 176.109375 C 268.410156 171.050781 265.570312 165.960938 262.78125 161.019531 Z M 272.671875 155.210938 "/>
<path style=" stroke:none;fill-rule:nonzero;fill:rgb(70.980392%,35.686275%,32.156863%);fill-opacity:1;" d="M 284.898438 224.46875 L 286.898438 229.710938 L 293.679688 222.578125 C 293.679688 222.578125 292.28125 221.058594 288.679688 220.441406 Z M 284.898438 224.46875 "/>
<path style=" stroke:none;fill-rule:nonzero;fill:rgb(70.980392%,35.686275%,32.156863%);fill-opacity:1;" d="M 290.738281 232.238281 L 296 226.789062 L 293.671875 222.578125 L 286.890625 229.710938 Z M 290.738281 232.238281 "/>
<path style=" stroke:none;fill-rule:nonzero;fill:rgb(14.901961%,19.607843%,21.960784%);fill-opacity:1;" d="M 238.550781 120.820312 C 238.410156 121.421875 237.980469 121.820312 237.550781 121.730469 C 237.121094 121.640625 236.960938 121.078125 237.109375 120.480469 C 237.261719 119.878906 237.679688 119.480469 238.109375 119.578125 C 238.539062 119.679688 238.699219 120.230469 238.550781 120.820312 Z M 238.550781 120.820312 "/>
<path style=" stroke:none;fill-rule:nonzero;fill:rgb(62.745098%,15.294118%,14.117647%);fill-opacity:1;" d="M 238 121.839844 C 236.847656 123.484375 235.472656 124.960938 233.921875 126.230469 C 234.597656 127.019531 235.589844 127.46875 236.628906 127.460938 Z M 238 121.839844 "/>
<path style=" stroke:none;fill-rule:nonzero;fill:rgb(14.901961%,19.607843%,21.960784%);fill-opacity:1;" d="M 241.53125 118.050781 C 241.621094 118.054688 241.710938 118.023438 241.78125 117.960938 C 241.847656 117.894531 241.886719 117.804688 241.886719 117.710938 C 241.886719 117.617188 241.847656 117.527344 241.78125 117.460938 C 241.050781 116.5625 239.933594 116.074219 238.78125 116.148438 C 238.582031 116.179688 238.445312 116.363281 238.46875 116.558594 C 238.5 116.753906 238.675781 116.886719 238.871094 116.871094 C 239.789062 116.816406 240.675781 117.210938 241.25 117.929688 C 241.320312 118.011719 241.421875 118.054688 241.53125 118.050781 Z M 241.53125 118.050781 "/>
<path style=" stroke:none;fill-rule:nonzero;fill:rgb(70.980392%,35.686275%,32.156863%);fill-opacity:1;" d="M 252.050781 128.320312 C 250.960938 133.871094 249.878906 144.039062 253.761719 147.738281 C 253.761719 147.738281 252.238281 153.378906 241.929688 153.378906 C 230.578125 153.378906 236.5 147.738281 236.5 147.738281 C 242.699219 146.269531 242.5 141.671875 241.5 137.359375 Z M 252.050781 128.320312 "/>
<path style=" stroke:none;fill-rule:nonzero;fill:rgb(25.098039%,48.235294%,100%);fill-opacity:1;" d="M 255 149.410156 C 255.578125 147.320312 256.210938 144.941406 254.378906 144.410156 C 252.378906 143.800781 241.710938 144 238.199219 145.839844 C 234.691406 147.679688 236.109375 151.660156 236.109375 151.660156 Z M 255 149.410156 "/>
<path style=" stroke:none;fill-rule:nonzero;fill:rgb(25.098039%,48.235294%,100%);fill-opacity:1;" d="M 291.871094 405.160156 C 291.253906 405.382812 290.570312 405.347656 289.980469 405.058594 C 289.746094 404.847656 289.671875 404.507812 289.800781 404.21875 C 289.871094 403.984375 290.042969 403.789062 290.269531 403.691406 C 291.269531 403.199219 293.640625 404.160156 293.75 404.210938 C 293.8125 404.238281 293.855469 404.300781 293.859375 404.371094 C 293.859375 404.441406 293.816406 404.503906 293.75 404.53125 C 293.148438 404.808594 292.519531 405.019531 291.871094 405.160156 Z M 290.628906 404 L 290.421875 404.070312 C 290.289062 404.128906 290.191406 404.242188 290.148438 404.378906 C 290.050781 404.699219 290.148438 404.800781 290.210938 404.828125 C 290.621094 405.179688 292.128906 404.828125 293.210938 404.429688 C 292.394531 404.09375 291.511719 403.949219 290.628906 404 Z M 290.628906 404 "/>
<path style=" stroke:none;fill-rule:nonzero;fill:rgb(25.098039%,48.235294%,100%);fill-opacity:1;" d="M 293.710938 404.550781 L 293.628906 404.550781 C 292.769531 404.300781 290.929688 403 290.910156 402.140625 C 290.902344 401.859375 291.097656 401.617188 291.371094 401.558594 C 291.632812 401.46875 291.921875 401.488281 292.171875 401.621094 C 293.171875 402.140625 293.820312 404.238281 293.851562 404.328125 C 293.867188 404.394531 293.847656 404.464844 293.800781 404.511719 C 293.773438 404.53125 293.742188 404.542969 293.710938 404.550781 Z M 291.570312 401.859375 L 291.488281 401.859375 C 291.269531 401.929688 291.269531 402.039062 291.269531 402.089844 C 291.269531 402.601562 292.488281 403.621094 293.378906 404.039062 C 293.144531 403.203125 292.664062 402.457031 292 401.898438 C 291.863281 401.839844 291.714844 401.824219 291.570312 401.859375 Z M 291.570312 401.859375 "/>
<path style=" stroke:none;fill-rule:nonzero;fill:rgb(25.098039%,48.235294%,100%);fill-opacity:1;" d="M 235.910156 408.878906 C 234.910156 408.878906 234 408.738281 233.679688 408.308594 C 233.515625 408.070312 233.515625 407.757812 233.679688 407.519531 C 233.804688 407.308594 234.011719 407.15625 234.25 407.101562 C 235.511719 406.761719 238.160156 408.269531 238.25 408.328125 C 238.3125 408.371094 238.34375 408.445312 238.328125 408.519531 C 238.316406 408.59375 238.261719 408.652344 238.191406 408.671875 C 237.4375 408.800781 236.675781 408.871094 235.910156 408.878906 Z M 234.710938 407.410156 C 234.59375 407.394531 234.476562 407.394531 234.359375 407.410156 C 234.214844 407.441406 234.089844 407.53125 234.011719 407.660156 C 233.878906 407.878906 233.929688 407.988281 234.011719 408.058594 C 234.371094 408.550781 236.289062 408.558594 237.699219 408.359375 C 236.773438 407.851562 235.757812 407.53125 234.710938 407.410156 Z M 234.710938 407.410156 "/>
<path style=" stroke:none;fill-rule:nonzero;fill:rgb(25.098039%,48.235294%,100%);fill-opacity:1;" d="M 238.210938 408.671875 L 238.128906 408.671875 C 237.21875 408.261719 235.398438 406.671875 235.539062 405.761719 C 235.539062 405.558594 235.71875 405.308594 236.210938 405.261719 C 236.570312 405.222656 236.933594 405.332031 237.210938 405.570312 C 238.210938 406.359375 238.378906 408.410156 238.378906 408.488281 C 238.390625 408.554688 238.363281 408.621094 238.308594 408.660156 C 238.277344 408.671875 238.242188 408.675781 238.210938 408.671875 Z M 236.351562 405.589844 L 236.25 405.589844 C 235.921875 405.589844 235.898438 405.75 235.890625 405.789062 C 235.808594 406.308594 237.039062 407.589844 237.980469 408.160156 C 237.894531 407.296875 237.542969 406.480469 236.980469 405.820312 C 236.804688 405.671875 236.582031 405.59375 236.351562 405.589844 Z M 236.351562 405.589844 "/>
<path style=" stroke:none;fill-rule:nonzero;fill:rgb(70.980392%,35.686275%,32.156863%);fill-opacity:1;" d="M 246.550781 408.488281 L 238.960938 408.488281 L 238.210938 390.910156 L 245.789062 390.910156 Z M 246.550781 408.488281 "/>
<path style=" stroke:none;fill-rule:nonzero;fill:rgb(70.980392%,35.686275%,32.156863%);fill-opacity:1;" d="M 302.171875 402.53125 L 294.761719 404.140625 L 287.308594 387.769531 L 294.730469 386.160156 Z M 302.171875 402.53125 "/>
<path style=" stroke:none;fill-rule:nonzero;fill:rgb(14.901961%,19.607843%,21.960784%);fill-opacity:1;" d="M 294 403.390625 L 302.339844 401.589844 C 302.644531 401.523438 302.949219 401.679688 303.078125 401.960938 L 305.96875 408.230469 C 306.109375 408.539062 306.101562 408.898438 305.945312 409.203125 C 305.789062 409.507812 305.503906 409.722656 305.171875 409.789062 C 302.25 410.371094 300.800781 410.5 297.171875 411.300781 C 294.910156 411.789062 289.820312 413.03125 286.710938 413.699219 C 283.601562 414.371094 282.519531 411.378906 283.710938 410.828125 C 289.148438 408.339844 291.429688 406.148438 292.898438 404.109375 C 293.164062 403.742188 293.558594 403.488281 294 403.390625 Z M 294 403.390625 "/>
<path style=" stroke:none;fill-rule:nonzero;fill:rgb(14.901961%,19.607843%,21.960784%);fill-opacity:1;" d="M 239 407.609375 L 247.289062 407.609375 C 247.601562 407.613281 247.871094 407.828125 247.941406 408.128906 L 249.429688 414.871094 C 249.507812 415.199219 249.425781 415.546875 249.214844 415.8125 C 249 416.074219 248.679688 416.226562 248.339844 416.21875 C 245.339844 416.171875 241.03125 416 237.28125 416 C 232.878906 416 229.089844 416.238281 223.929688 416.238281 C 220.820312 416.238281 219.929688 413.089844 221.261719 412.800781 C 227.199219 411.5 232.039062 411.359375 237.171875 408.199219 C 237.714844 407.839844 238.347656 407.636719 239 407.609375 Z M 239 407.609375 "/>
<path style=" stroke:none;fill-rule:nonzero;fill:rgb(71.372549%,35.686275%,32.156863%);fill-opacity:1;" d="M 232.339844 162.429688 C 230.289062 164.429688 228.28125 166.070312 226.191406 167.800781 C 224.101562 169.53125 221.949219 171.128906 219.761719 172.730469 C 215.289062 175.996094 210.515625 178.832031 205.511719 181.199219 C 204.871094 181.511719 204.210938 181.789062 203.511719 182.050781 L 202.511719 182.460938 L 202 182.660156 L 201.871094 182.710938 L 201.660156 182.789062 L 201 183 C 200.019531 183.246094 199 183.304688 198 183.171875 C 197.066406 183.03125 196.164062 182.722656 195.339844 182.261719 C 194.207031 181.601562 193.21875 180.714844 192.441406 179.660156 C 191.417969 178.257812 190.59375 176.71875 189.988281 175.089844 C 189.476562 173.714844 189.042969 172.3125 188.691406 170.890625 C 187.429688 165.582031 186.757812 160.148438 186.691406 154.691406 L 192.328125 153.878906 C 193.808594 158.710938 195.328125 163.671875 197.210938 168.089844 C 197.648438 169.148438 198.140625 170.183594 198.691406 171.191406 C 199.074219 171.976562 199.570312 172.703125 200.171875 173.339844 C 200.351562 173.511719 200.5 173.511719 200.171875 173.289062 C 199.921875 173.136719 199.648438 173.035156 199.359375 172.988281 C 198.992188 172.917969 198.617188 172.917969 198.25 172.988281 L 198.050781 173.050781 C 197.988281 173.050781 198.050781 173.050781 198.050781 173.050781 L 198.140625 173.050781 L 198.53125 172.859375 L 199.300781 172.480469 C 199.808594 172.238281 200.300781 171.980469 200.839844 171.679688 C 205.09375 169.265625 209.15625 166.535156 213 163.511719 C 215 162 216.929688 160.421875 218.878906 158.839844 C 220.828125 157.261719 222.769531 155.558594 224.558594 154 Z M 232.339844 162.429688 "/>
<path style=" stroke:none;fill-rule:nonzero;fill:rgb(14.901961%,19.607843%,21.960784%);fill-opacity:1;" d="M 269.691406 149.460938 C 276.800781 151.089844 285.160156 176.628906 285.160156 176.628906 L 273 184.628906 C 273 184.628906 265.261719 172.75 261.230469 164.28125 C 257 155.359375 262.410156 147.789062 269.691406 149.460938 Z M 269.691406 149.460938 "/>
<use xlink:href="#surface23" mask="url(#mask6)"/>
<path style=" stroke:none;fill-rule:nonzero;fill:rgb(14.901961%,19.607843%,21.960784%);fill-opacity:1;" d="M 227.171875 149.851562 C 227.171875 149.851562 219.089844 158.980469 226.71875 215.449219 L 267.308594 215.449219 C 267.589844 209.21875 263.679688 178.820312 269.691406 149.449219 C 265.203125 148.582031 260.664062 148.007812 256.101562 147.730469 C 250.351562 147.398438 244.589844 147.398438 238.839844 147.730469 C 234.902344 148.132812 231 148.839844 227.171875 149.851562 Z M 227.171875 149.851562 "/>
<use xlink:href="#surface26" mask="url(#mask7)"/>
<path style=" stroke:none;fill-rule:nonzero;fill:rgb(14.901961%,19.607843%,21.960784%);fill-opacity:1;" d="M 243.171875 157.25 C 243.539062 167.699219 212.230469 180.910156 212.230469 180.910156 L 203.808594 167.691406 C 203.808594 167.691406 216.578125 159.851562 222.941406 152.949219 C 230.800781 144.429688 242.890625 149.289062 243.171875 157.25 Z M 243.171875 157.25 "/>
<path style=" stroke:none;fill-rule:nonzero;fill:rgb(25.098039%,48.235294%,100%);fill-opacity:1;" d="M 208.761719 165.789062 C 210.328125 169.121094 213.871094 176.390625 215.839844 178.789062 C 216.132812 179.15625 216.082031 179.683594 215.730469 179.988281 C 214.308594 181.25 211.558594 182.839844 210.230469 182.558594 C 208.660156 182.21875 200.011719 170.371094 200.378906 168.75 C 200.640625 167.648438 204.070312 165.859375 206.21875 164.839844 C 206.683594 164.628906 207.210938 164.609375 207.6875 164.785156 C 208.164062 164.964844 208.550781 165.324219 208.761719 165.789062 Z M 208.761719 165.789062 "/>
<path style=" stroke:none;fill-rule:nonzero;fill:rgb(25.098039%,48.235294%,100%);fill-opacity:1;" d="M 270.621094 179.320312 C 273.921875 177.671875 281.101562 173.949219 283.488281 171.929688 C 283.847656 171.632812 284.375 171.667969 284.691406 172.011719 C 285.980469 173.398438 287.640625 176.109375 287.390625 177.441406 C 287.101562 179.019531 275.460938 187.960938 273.828125 187.621094 C 272.71875 187.390625 270.828125 184.011719 269.78125 181.878906 C 269.550781 181.429688 269.511719 180.90625 269.667969 180.425781 C 269.824219 179.945312 270.167969 179.546875 270.621094 179.320312 Z M 270.621094 179.320312 "/>
<path style=" stroke:none;fill-rule:nonzero;fill:rgb(70.980392%,35.686275%,32.156863%);fill-opacity:1;" d="M 192.160156 155.230469 L 195.25 147.839844 L 187.25 145.648438 C 187.25 145.648438 183.648438 151.300781 186.921875 155.761719 Z M 192.160156 155.230469 "/>
<path style=" stroke:none;fill-rule:nonzero;fill:rgb(70.980392%,35.686275%,32.156863%);fill-opacity:1;" d="M 194.558594 140.101562 L 189.738281 136.929688 L 187.238281 145.648438 L 195.25 147.839844 Z M 194.558594 140.101562 "/>
<use xlink:href="#surface29" mask="url(#mask8)"/>
<use xlink:href="#surface32" mask="url(#mask9)"/>
<path style=" stroke:none;fill-rule:nonzero;fill:rgb(70.980392%,35.686275%,32.156863%);fill-opacity:1;" d="M 258.699219 124.390625 C 256.46875 131.589844 255.53125 135.910156 250.929688 138.761719 C 244.011719 143.050781 235.808594 137.511719 235.839844 129.761719 C 235.839844 122.761719 239.5 112.210938 247.359375 111.039062 C 250.890625 110.496094 254.449219 111.820312 256.761719 114.542969 C 259.074219 117.265625 259.808594 120.996094 258.699219 124.390625 Z M 258.699219 124.390625 "/>
<path style=" stroke:none;fill-rule:nonzero;fill:rgb(14.901961%,19.607843%,21.960784%);fill-opacity:1;" d="M 242.570312 122.289062 C 242.570312 121.878906 240.859375 117.75 241.71875 116.140625 C 243.71875 112.449219 254.339844 116.890625 257.160156 118.421875 C 260.789062 120.421875 264.488281 123.851562 261.160156 126.421875 C 258.019531 128.871094 255.449219 136.011719 253.101562 137.019531 C 250.75 138.03125 246.160156 137.128906 244.949219 135.378906 C 243.738281 133.628906 240.070312 126 242.570312 122.289062 Z M 242.570312 122.289062 "/>
<path style=" stroke:none;fill-rule:nonzero;fill:rgb(14.901961%,19.607843%,21.960784%);fill-opacity:1;" d="M 243.058594 114.898438 C 240.441406 114.78125 238.058594 112.691406 239.648438 109.640625 C 240.550781 107.863281 242.367188 106.738281 244.359375 106.71875 C 244.359375 106.71875 241.910156 108.71875 247.03125 109.148438 C 252.148438 109.578125 251.238281 105.53125 249.738281 104.289062 C 252.320312 104.949219 255.46875 106.238281 255.621094 108.980469 C 255.769531 111.71875 261.820312 113.789062 261.449219 110.570312 C 261.449219 110.570312 266.238281 114.898438 262.449219 116.230469 C 258.660156 117.558594 268.980469 118.921875 268.648438 121.878906 C 267.808594 121.53125 264.519531 120.78125 265.230469 123.429688 C 265.941406 126.078125 263.519531 127.429688 259.808594 126.570312 C 256.101562 125.710938 247.140625 120.46875 243.058594 114.898438 Z M 243.058594 114.898438 "/>
<path style=" stroke:none;fill-rule:nonzero;fill:rgb(70.980392%,35.686275%,32.156863%);fill-opacity:1;" d="M 246.421875 123.488281 C 246 125.429688 244.765625 127.09375 243.03125 128.058594 C 240.820312 129.128906 239.589844 128.191406 239.660156 125.949219 C 239.71875 123.949219 240.800781 120.710938 242.960938 120.050781 C 245.121094 119.390625 246.808594 121.269531 246.421875 123.488281 Z M 246.421875 123.488281 "/>
<path style=" stroke:none;fill-rule:nonzero;fill:rgb(25.098039%,48.235294%,100%);fill-opacity:1;" d="M 241.121094 215.449219 C 241.121094 215.449219 249.730469 273.449219 254.460938 295.171875 C 259.640625 318.96875 287.320312 395.238281 287.320312 395.238281 L 300.910156 392.300781 C 300.910156 392.300781 280.179688 320.890625 277.230469 297.300781 C 274.019531 271.730469 267.308594 215.421875 267.308594 215.421875 Z M 241.121094 215.449219 "/>
<path style=" stroke:none;fill-rule:nonzero;fill:rgb(14.901961%,19.607843%,21.960784%);fill-opacity:1;" d="M 283.691406 389.148438 C 283.640625 389.148438 286.601562 395.621094 286.601562 395.621094 L 301.890625 392.308594 L 300.21875 386.160156 Z M 283.691406 389.148438 "/>
<use xlink:href="#surface35" mask="url(#mask10)"/>
<path style=" stroke:none;fill-rule:nonzero;fill:rgb(25.098039%,48.235294%,100%);fill-opacity:1;" d="M 226.71875 215.449219 C 226.71875 215.449219 225.71875 272.191406 226.5 295.328125 C 227.359375 319.398438 235.769531 398.21875 235.769531 398.21875 L 248.621094 398.21875 C 248.621094 398.21875 249.101562 320.808594 249.621094 297.171875 C 250.238281 271.398438 253.351562 215.449219 253.351562 215.449219 Z M 226.71875 215.449219 "/>
<path style=" stroke:none;fill-rule:nonzero;fill:rgb(14.901961%,19.607843%,21.960784%);fill-opacity:1;" d="M 233.289062 391.539062 C 233.230469 391.539062 234.019531 398.441406 234.019531 398.441406 L 249.660156 398.441406 L 250.078125 392.109375 Z M 233.289062 391.539062 "/>
<path style=" stroke:none;fill-rule:nonzero;fill:rgb(14.901961%,19.607843%,21.960784%);fill-opacity:1;" d="M 332.675781 300.066406 L 374.070312 286.503906 C 380.367188 284.441406 387.148438 287.875 389.210938 294.171875 L 414.921875 372.648438 C 416.984375 378.945312 413.550781 385.726562 407.253906 387.789062 L 365.859375 401.351562 C 359.558594 403.414062 352.78125 399.980469 350.71875 393.683594 L 325.007812 315.207031 C 322.945312 308.910156 326.378906 302.128906 332.675781 300.066406 Z M 332.675781 300.066406 "/>
<path style=" stroke:none;fill-rule:nonzero;fill:rgb(14.901961%,19.607843%,21.960784%);fill-opacity:1;" d="M 362.148438 402.929688 C 356.535156 402.925781 351.554688 399.328125 349.78125 394 L 324.070312 315.53125 C 321.828125 308.707031 325.546875 301.359375 332.371094 299.121094 L 373.761719 285.558594 C 377.039062 284.484375 380.609375 284.753906 383.6875 286.3125 C 386.765625 287.871094 389.097656 290.589844 390.171875 293.871094 L 415.878906 372.339844 C 418.113281 379.164062 414.394531 386.507812 407.570312 388.738281 L 366.179688 402.300781 C 364.878906 402.726562 363.519531 402.9375 362.148438 402.929688 Z M 377.800781 286.929688 C 376.640625 286.933594 375.492188 287.121094 374.390625 287.480469 L 333 301 C 327.238281 302.902344 324.105469 309.113281 326 314.878906 L 351.710938 393.359375 C 353.613281 399.121094 359.824219 402.253906 365.589844 400.359375 L 407 386.820312 C 412.761719 384.917969 415.894531 378.707031 414 372.941406 L 388.289062 294.46875 C 387.378906 291.699219 385.402344 289.40625 382.800781 288.089844 C 381.25 287.304688 379.539062 286.894531 377.800781 286.890625 Z M 332.691406 300.089844 Z M 332.691406 300.089844 "/>
<path style=" stroke:none;fill-rule:nonzero;fill:rgb(14.901961%,19.607843%,21.960784%);fill-opacity:1;" d="M 313 307.839844 C 312.566406 307.839844 312.183594 307.5625 312.050781 307.148438 L 288.699219 235.890625 C 286.847656 230.265625 289.03125 224.097656 294.011719 220.890625 C 294.902344 220.316406 296.011719 220.191406 297.011719 220.550781 C 298.03125 220.910156 298.824219 221.722656 299.160156 222.75 L 325.28125 302.46875 C 325.40625 302.8125 325.335938 303.199219 325.09375 303.472656 C 324.851562 303.75 324.480469 303.871094 324.121094 303.792969 C 323.765625 303.710938 323.480469 303.441406 323.378906 303.089844 L 297.199219 223.410156 C 297.0625 222.964844 296.71875 222.617188 296.28125 222.46875 C 295.875 222.320312 295.425781 222.367188 295.058594 222.601562 C 290.851562 225.308594 289.003906 230.515625 290.558594 235.269531 L 313.910156 306.519531 C 313.996094 306.773438 313.976562 307.050781 313.855469 307.289062 C 313.734375 307.527344 313.523438 307.707031 313.269531 307.789062 C 313.183594 307.816406 313.089844 307.835938 313 307.839844 Z M 313 307.839844 "/>
<path style=" stroke:none;fill-rule:nonzero;fill:rgb(14.901961%,19.607843%,21.960784%);fill-opacity:1;" d="M 349.761719 409.769531 C 349.761719 406.195312 346.859375 403.296875 343.285156 403.300781 C 339.710938 403.300781 336.816406 406.203125 336.820312 409.777344 C 336.824219 413.351562 339.726562 416.246094 343.300781 416.238281 C 345.015625 416.238281 346.660156 415.558594 347.871094 414.34375 C 349.082031 413.128906 349.761719 411.484375 349.761719 409.769531 Z M 349.761719 409.769531 "/>
<path style=" stroke:none;fill-rule:nonzero;fill:rgb(14.901961%,19.607843%,21.960784%);fill-opacity:1;" d="M 368.328125 406.878906 C 368.328125 403.3125 365.4375 400.421875 361.871094 400.421875 C 358.300781 400.421875 355.410156 403.3125 355.410156 406.878906 C 355.410156 410.449219 358.300781 413.339844 361.871094 413.339844 C 365.4375 413.339844 368.328125 410.449219 368.328125 406.878906 Z M 368.328125 406.878906 "/>
<path style=" stroke:none;fill-rule:nonzero;fill:rgb(25.098039%,48.235294%,100%);fill-opacity:1;" d="M 316.300781 305.441406 L 357.695312 291.878906 C 363.996094 289.816406 370.773438 293.246094 372.835938 299.546875 L 398.546875 378.019531 C 400.609375 384.320312 397.175781 391.097656 390.878906 393.160156 L 349.484375 406.722656 C 343.1875 408.785156 336.40625 405.351562 334.34375 399.054688 L 308.632812 320.578125 C 306.570312 314.28125 310.003906 307.503906 316.300781 305.441406 Z M 316.300781 305.441406 "/>
<path style=" stroke:none;fill-rule:nonzero;fill:rgb(14.901961%,19.607843%,21.960784%);fill-opacity:1;" d="M 345.769531 408.300781 C 340.152344 408.28125 335.175781 404.679688 333.398438 399.351562 L 307.691406 320.871094 C 305.457031 314.046875 309.175781 306.703125 316 304.46875 L 357.390625 290.910156 C 364.210938 288.675781 371.550781 292.390625 373.789062 299.210938 L 399.5 377.691406 C 401.734375 384.511719 398.019531 391.851562 391.199219 394.089844 L 349.808594 407.648438 C 348.507812 408.082031 347.144531 408.300781 345.769531 408.300781 Z M 316.308594 305.421875 L 316.621094 306.371094 C 310.855469 308.273438 307.726562 314.484375 309.621094 320.25 L 335.328125 398.71875 C 337.234375 404.484375 343.445312 407.613281 349.210938 405.71875 L 390.601562 392.160156 C 396.363281 390.257812 399.496094 384.046875 397.601562 378.28125 L 371.890625 299.808594 C 369.988281 294.046875 363.777344 290.914062 358.011719 292.808594 L 316.621094 306.371094 Z M 316.308594 305.421875 "/>
<use xlink:href="#surface38" mask="url(#mask11)"/>
<path style=" stroke:none;fill-rule:nonzero;fill:rgb(100%,100%,100%);fill-opacity:1;" d="M 356.355469 306.226562 C 361.085938 306.761719 364.488281 311.03125 363.953125 315.761719 C 363.417969 320.492188 359.152344 323.894531 354.421875 323.359375 C 349.691406 322.824219 346.289062 318.558594 346.820312 313.828125 C 347.355469 309.097656 351.625 305.695312 356.355469 306.226562 Z M 356.355469 306.226562 "/>
<path style=" stroke:none;fill-rule:nonzero;fill:rgb(100%,100%,100%);fill-opacity:1;" d="M 333.449219 337.28125 L 330.820312 349.828125 C 330.570312 351.023438 330.976562 352.261719 331.886719 353.078125 C 332.796875 353.890625 334.070312 354.160156 335.230469 353.78125 L 347.410156 349.78125 C 348.574219 349.402344 349.445312 348.429688 349.695312 347.234375 C 349.949219 346.035156 349.542969 344.796875 348.628906 343.980469 L 339.078125 335.421875 C 338.167969 334.605469 336.890625 334.335938 335.726562 334.722656 C 334.566406 335.105469 333.695312 336.082031 333.449219 337.28125 Z M 333.449219 337.28125 "/>
<path style=" stroke:none;fill-rule:nonzero;fill:rgb(100%,100%,100%);fill-opacity:1;" d="M 358.910156 384.632812 L 358.945312 381.332031 C 358.960938 379.898438 360.136719 378.746094 361.570312 378.761719 L 381.871094 378.96875 C 383.304688 378.984375 384.457031 380.160156 384.441406 381.597656 L 384.410156 384.894531 C 384.394531 386.332031 383.21875 387.484375 381.78125 387.46875 L 361.484375 387.261719 C 360.046875 387.246094 358.894531 386.070312 358.910156 384.632812 Z M 358.910156 384.632812 "/>
</g>
</svg>
