<?xml version="1.0" encoding="UTF-8"?>
<svg xmlns="http://www.w3.org/2000/svg" xmlns:xlink="http://www.w3.org/1999/xlink" width="500px" height="500px" viewBox="0 0 500 500" version="1.1">
<defs>
<filter id="alpha" filterUnits="objectBoundingBox" x="0%" y="0%" width="100%" height="100%">
  <feColorMatrix type="matrix" in="SourceGraphic" values="0 0 0 0 1 0 0 0 0 1 0 0 0 0 1 0 0 0 1 0"/>
</filter>
<mask id="mask0">
  <g filter="url(#alpha)">
<rect x="0" y="0" width="500" height="500" style="fill:rgb(0%,0%,0%);fill-opacity:0.101961;stroke:none;"/>
  </g>
</mask>
<clipPath id="clip1">
  <rect x="0" y="0" width="500" height="500"/>
</clipPath>
<g id="surface5" clip-path="url(#clip1)">
<path style=" stroke:none;fill-rule:nonzero;fill:rgb(0%,0%,0%);fill-opacity:1;" d="M 154.910156 148.128906 C 152.441406 148.128906 150.230469 150.351562 150.230469 156.75 C 150.230469 163.148438 149.730469 168.269531 153.648438 168.269531 Z M 154.910156 148.128906 "/>
</g>
<mask id="mask1">
  <g filter="url(#alpha)">
<rect x="0" y="0" width="500" height="500" style="fill:rgb(0%,0%,0%);fill-opacity:0.301961;stroke:none;"/>
  </g>
</mask>
<clipPath id="clip2">
  <rect x="0" y="0" width="500" height="500"/>
</clipPath>
<g id="surface8" clip-path="url(#clip2)">
<path style=" stroke:none;fill-rule:nonzero;fill:rgb(0%,0%,0%);fill-opacity:1;" d="M 199.429688 199.25 C 199.640625 205.25 200.699219 230.160156 196.300781 241.691406 C 193.867188 248.246094 190.804688 254.546875 187.148438 260.511719 C 185.839844 262.75 148.089844 299.511719 148.089844 299.511719 C 148.089844 299.511719 141.691406 299.039062 140.671875 292.828125 C 140.671875 292.828125 156.140625 266.53125 159.480469 261.140625 C 162.820312 255.75 174.699219 247.480469 174.699219 247.480469 L 173.621094 194 Z M 199.429688 199.25 "/>
</g>
<mask id="mask2">
  <g filter="url(#alpha)">
<rect x="0" y="0" width="500" height="500" style="fill:rgb(0%,0%,0%);fill-opacity:0.301961;stroke:none;"/>
  </g>
</mask>
<clipPath id="clip3">
  <rect x="0" y="0" width="500" height="500"/>
</clipPath>
<g id="surface11" clip-path="url(#clip3)">
<path style=" stroke:none;fill-rule:nonzero;fill:rgb(0%,0%,0%);fill-opacity:1;" d="M 186.128906 217.648438 C 188.863281 215.125 191.3125 212.308594 193.429688 209.25 C 199.53125 200.820312 198.589844 193.328125 198.589844 193.328125 L 196.089844 193.328125 L 163.089844 194.011719 C 159.820312 199.371094 159.089844 207.511719 160.210938 215.429688 C 162.5 231.871094 176.128906 263.238281 176.128906 263.238281 C 175.929688 265.488281 174.980469 274.949219 177.128906 283.328125 C 180.511719 296.550781 189.738281 318.921875 189.738281 318.921875 C 189.738281 318.921875 195.511719 319.738281 198.378906 316.398438 C 198.378906 316.398438 193.28125 270.980469 191.898438 259.339844 C 190.398438 246.738281 186.128906 217.648438 186.128906 217.648438 Z M 186.128906 217.648438 "/>
</g>
<mask id="mask3">
  <g filter="url(#alpha)">
<rect x="0" y="0" width="500" height="500" style="fill:rgb(0%,0%,0%);fill-opacity:0.301961;stroke:none;"/>
  </g>
</mask>
<clipPath id="clip4">
  <rect x="0" y="0" width="500" height="500"/>
</clipPath>
<g id="surface14" clip-path="url(#clip4)">
<path style=" stroke:none;fill-rule:nonzero;fill:rgb(0%,0%,0%);fill-opacity:1;" d="M 190.878906 251.628906 C 190.878906 251.628906 187.039062 221.390625 186.128906 217.628906 C 186.128906 217.628906 192.910156 215.050781 195 212.628906 C 195 212.628906 193.511719 215.941406 188.660156 218.890625 Z M 190.878906 251.628906 "/>
</g>
<mask id="mask4">
  <g filter="url(#alpha)">
<rect x="0" y="0" width="500" height="500" style="fill:rgb(0%,0%,0%);fill-opacity:0.301961;stroke:none;"/>
  </g>
</mask>
<clipPath id="clip5">
  <rect x="0" y="0" width="500" height="500"/>
</clipPath>
<g id="surface17" clip-path="url(#clip5)">
<path style=" stroke:none;fill-rule:nonzero;fill:rgb(0%,0%,0%);fill-opacity:1;" d="M 174.578125 264 C 173.519531 267.941406 173.578125 274.441406 173.578125 274.441406 L 175.71875 272.578125 C 175.660156 271.011719 176.078125 263.261719 176.078125 263.261719 C 174.429688 261.011719 170.808594 250.328125 170.808594 250.328125 Z M 174.578125 264 "/>
</g>
<mask id="mask5">
  <g filter="url(#alpha)">
<rect x="0" y="0" width="500" height="500" style="fill:rgb(0%,0%,0%);fill-opacity:0.2;stroke:none;"/>
  </g>
</mask>
<clipPath id="clip6">
  <rect x="0" y="0" width="500" height="500"/>
</clipPath>
<g id="surface20" clip-path="url(#clip6)">
<path style=" stroke:none;fill-rule:nonzero;fill:rgb(0%,0%,0%);fill-opacity:1;" d="M 168.671875 146 C 168.671875 146 170.859375 147.191406 171.308594 153.53125 C 171.898438 161.660156 168.03125 171.390625 163.820312 174.980469 L 163.820312 182.140625 C 163.820312 182.140625 171.960938 175.371094 174.710938 166.859375 C 177.460938 158.351562 177.660156 150.039062 174.128906 145.5 C 172.304688 145.070312 170.386719 145.246094 168.671875 146 Z M 168.671875 146 "/>
</g>
<mask id="mask6">
  <g filter="url(#alpha)">
<rect x="0" y="0" width="500" height="500" style="fill:rgb(0%,0%,0%);fill-opacity:0.2;stroke:none;"/>
  </g>
</mask>
<clipPath id="clip7">
  <rect x="0" y="0" width="500" height="500"/>
</clipPath>
<g id="surface23" clip-path="url(#clip7)">
<path style=" stroke:none;fill-rule:nonzero;fill:rgb(0%,0%,0%);fill-opacity:1;" d="M 187.570312 145.101562 C 187.570312 145.101562 195.140625 147.871094 198.101562 154.101562 C 198.101562 154.101562 198.371094 149.179688 194.570312 146.421875 C 190.769531 143.660156 187.570312 145.101562 187.570312 145.101562 Z M 187.570312 145.101562 "/>
</g>
<mask id="mask7">
  <g filter="url(#alpha)">
<rect x="0" y="0" width="500" height="500" style="fill:rgb(0%,0%,0%);fill-opacity:0.501961;stroke:none;"/>
  </g>
</mask>
<clipPath id="clip8">
  <rect x="0" y="0" width="500" height="500"/>
</clipPath>
<g id="surface26" clip-path="url(#clip8)">
<path style=" stroke:none;fill-rule:nonzero;fill:rgb(60.392157%,29.019608%,30.196078%);fill-opacity:1;" d="M 189.488281 133.191406 L 192.160156 134.039062 C 192.074219 134.410156 191.839844 134.730469 191.507812 134.917969 C 191.179688 135.109375 190.785156 135.152344 190.421875 135.039062 C 190.050781 134.921875 189.742188 134.660156 189.566406 134.308594 C 189.390625 133.960938 189.363281 133.558594 189.488281 133.191406 Z M 189.488281 133.191406 "/>
</g>
<mask id="mask8">
  <g filter="url(#alpha)">
<rect x="0" y="0" width="500" height="500" style="fill:rgb(0%,0%,0%);fill-opacity:0.501961;stroke:none;"/>
  </g>
</mask>
<clipPath id="clip9">
  <rect x="0" y="0" width="500" height="500"/>
</clipPath>
<g id="surface29" clip-path="url(#clip9)">
<path style=" stroke:none;fill-rule:nonzero;fill:rgb(60.392157%,29.019608%,30.196078%);fill-opacity:1;" d="M 192.660156 123.921875 L 192.839844 130.859375 L 196.488281 129.730469 Z M 192.660156 123.921875 "/>
</g>
<mask id="mask9">
  <g filter="url(#alpha)">
<rect x="0" y="0" width="500" height="500" style="fill:rgb(0%,0%,0%);fill-opacity:0.501961;stroke:none;"/>
  </g>
</mask>
<clipPath id="clip10">
  <rect x="0" y="0" width="500" height="500"/>
</clipPath>
<g id="surface32" clip-path="url(#clip10)">
<path style=" stroke:none;fill-rule:nonzero;fill:rgb(60.392157%,29.019608%,30.196078%);fill-opacity:1;" d="M 187.570312 139.601562 C 184.621094 139.210938 178.570312 137.46875 177.570312 135.070312 C 177.945312 136.285156 178.691406 137.355469 179.699219 138.128906 C 181.511719 139.679688 187.53125 141.429688 187.53125 141.429688 Z M 187.570312 139.601562 "/>
</g>
<mask id="mask10">
  <g filter="url(#alpha)">
<rect x="0" y="0" width="500" height="500" style="fill:rgb(0%,0%,0%);fill-opacity:0.101961;stroke:none;"/>
  </g>
</mask>
<clipPath id="clip11">
  <rect x="0" y="0" width="500" height="500"/>
</clipPath>
<g id="surface35" clip-path="url(#clip11)">
<path style=" stroke:none;fill-rule:nonzero;fill:rgb(0%,0%,0%);fill-opacity:1;" d="M 272 117.429688 C 278.449219 117.5 284.789062 118.949219 287 125.808594 C 289.128906 132.519531 291.878906 151.960938 291.878906 151.960938 C 291.878906 151.960938 289.171875 155.558594 280.128906 154.960938 Z M 272 117.429688 "/>
</g>
<mask id="mask11">
  <g filter="url(#alpha)">
<rect x="0" y="0" width="500" height="500" style="fill:rgb(0%,0%,0%);fill-opacity:0.101961;stroke:none;"/>
  </g>
</mask>
<clipPath id="clip12">
  <rect x="0" y="0" width="500" height="500"/>
</clipPath>
<g id="surface38" clip-path="url(#clip12)">
<path style=" stroke:none;fill-rule:nonzero;fill:rgb(0%,0%,0%);fill-opacity:1;" d="M 248.421875 120.421875 C 243.808594 121.941406 239.589844 124.28125 237.199219 128.769531 C 232.5 137.609375 227.730469 155.371094 227.730469 155.371094 C 230.128906 158.179688 238.148438 160.648438 242.171875 159.441406 L 245.929688 148.730469 L 249.601562 141.429688 C 249.601562 141.429688 256.800781 125.710938 248.421875 120.421875 Z M 248.421875 120.421875 "/>
</g>
<mask id="mask12">
  <g filter="url(#alpha)">
<rect x="0" y="0" width="500" height="500" style="fill:rgb(0%,0%,0%);fill-opacity:0.2;stroke:none;"/>
  </g>
</mask>
<clipPath id="clip13">
  <rect x="0" y="0" width="500" height="500"/>
</clipPath>
<g id="surface41" clip-path="url(#clip13)">
<path style=" stroke:none;fill-rule:nonzero;fill:rgb(0%,0%,0%);fill-opacity:1;" d="M 407.359375 252.171875 L 392.519531 243.648438 C 385.441406 238.910156 375.609375 239.109375 364.730469 245.390625 C 343.160156 257.839844 325.671875 289.460938 325.671875 316.019531 L 325.671875 322.019531 C 325.671875 348.570312 361.371094 377.421875 361.371094 377.421875 L 375.96875 385.679688 C 375.96875 385.679688 367.199219 375.679688 368.199219 373.628906 C 377.761719 354.011719 403.789062 298.628906 403.789062 276.921875 L 403.789062 270.921875 C 403.839844 266.53125 403.277344 262.15625 402.121094 257.921875 L 403.789062 258.921875 Z M 364.730469 313 C 353.949219 319.230469 345.199219 314.179688 345.199219 301.71875 C 351.011719 300.808594 365.609375 275.890625 364.730469 267.898438 C 375.519531 261.671875 384.261719 266.71875 384.261719 279.179688 C 384.261719 291.640625 375.519531 306.808594 364.730469 313 Z M 364.730469 313 "/>
</g>
<mask id="mask13">
  <g filter="url(#alpha)">
<rect x="0" y="0" width="500" height="500" style="fill:rgb(0%,0%,0%);fill-opacity:0.101961;stroke:none;"/>
  </g>
</mask>
<clipPath id="clip14">
  <rect x="0" y="0" width="500" height="500"/>
</clipPath>
<g id="surface44" clip-path="url(#clip14)">
<path style=" stroke:none;fill-rule:nonzero;fill:rgb(0%,0%,0%);fill-opacity:1;" d="M 111.929688 105.488281 L 87.859375 94.121094 L 88.921875 93.558594 L 111.859375 98.128906 L 114.148438 96.910156 C 114.640625 96.691406 115.203125 96.71875 115.671875 96.980469 C 116.089844 97.238281 116.078125 97.628906 115.671875 97.859375 L 114.261719 98.601562 L 122.171875 100.25 Z M 111.929688 105.488281 "/>
</g>
<mask id="mask14">
  <g filter="url(#alpha)">
<rect x="0" y="0" width="500" height="500" style="fill:rgb(0%,0%,0%);fill-opacity:0.101961;stroke:none;"/>
  </g>
</mask>
<clipPath id="clip15">
  <rect x="0" y="0" width="500" height="500"/>
</clipPath>
<g id="surface47" clip-path="url(#clip15)">
<path style=" stroke:none;fill-rule:nonzero;fill:rgb(0%,0%,0%);fill-opacity:1;" d="M 130.480469 107.199219 L 128.179688 108.410156 L 134 122 L 132.941406 122.558594 L 114.800781 107.28125 L 125.339844 101.898438 L 127.578125 107 L 128.988281 106.261719 C 129.476562 106.035156 130.042969 106.058594 130.511719 106.320312 C 130.691406 106.394531 130.808594 106.574219 130.800781 106.769531 C 130.792969 106.964844 130.664062 107.136719 130.480469 107.199219 Z M 130.480469 107.199219 "/>
</g>
<mask id="mask15">
  <g filter="url(#alpha)">
<rect x="0" y="0" width="500" height="500" style="fill:rgb(0%,0%,0%);fill-opacity:0.101961;stroke:none;"/>
  </g>
</mask>
<clipPath id="clip16">
  <rect x="0" y="0" width="500" height="500"/>
</clipPath>
<g id="surface50" clip-path="url(#clip16)">
<path style=" stroke:none;fill-rule:nonzero;fill:rgb(0%,0%,0%);fill-opacity:1;" d="M 357.171875 174.398438 L 359.398438 173.070312 L 352.851562 159.820312 L 353.851562 159.210938 L 370.628906 171.890625 L 361.328125 177 L 360.070312 174.449219 L 358.691406 175.261719 C 358.214844 175.503906 357.652344 175.503906 357.179688 175.261719 C 356.769531 175 356.761719 174.648438 357.171875 174.398438 Z M 357.171875 174.398438 "/>
</g>
<mask id="mask16">
  <g filter="url(#alpha)">
<rect x="0" y="0" width="500" height="500" style="fill:rgb(0%,0%,0%);fill-opacity:0.101961;stroke:none;"/>
  </g>
</mask>
<clipPath id="clip17">
  <rect x="0" y="0" width="500" height="500"/>
</clipPath>
<g id="surface53" clip-path="url(#clip17)">
<path style=" stroke:none;fill-rule:nonzero;fill:rgb(0%,0%,0%);fill-opacity:1;" d="M 375.789062 175.140625 L 400.421875 185.230469 L 399.421875 185.851562 L 376.28125 182.488281 L 374 183.820312 C 373.523438 184.0625 372.957031 184.0625 372.480469 183.820312 C 372.050781 183.578125 372.039062 183.191406 372.480469 182.949219 L 373.851562 182.128906 L 365.851562 180.890625 Z M 375.789062 175.140625 "/>
</g>
</defs>
<g id="surface1">
<path style=" stroke:none;fill-rule:nonzero;fill:rgb(96.078431%,96.078431%,96.078431%);fill-opacity:1;" d="M 99.570312 429.519531 C 182.121094 472.648438 315.96875 472.648438 398.570312 429.519531 C 481.171875 386.390625 481.128906 316.519531 398.570312 273.339844 C 316.011719 230.160156 182.160156 230.210938 99.570312 273.339844 C 16.980469 316.46875 17 386.390625 99.570312 429.519531 Z M 99.570312 429.519531 "/>
<path style=" stroke:none;fill-rule:nonzero;fill:rgb(87.843137%,87.843137%,87.843137%);fill-opacity:1;" d="M 320.578125 297.71875 C 320.578125 277.5 292.191406 261.109375 257.171875 261.109375 C 222.148438 261.109375 193.761719 277.5 193.761719 297.71875 C 193.761719 317.9375 222.148438 334.328125 257.171875 334.328125 C 292.191406 334.328125 320.578125 317.9375 320.578125 297.71875 Z M 320.578125 297.71875 "/>
<path style=" stroke:none;fill-rule:nonzero;fill:rgb(87.843137%,87.843137%,87.843137%);fill-opacity:1;" d="M 408 382.71875 C 408 372.570312 393.75 364.339844 376.171875 364.339844 C 358.589844 364.339844 344.339844 372.570312 344.339844 382.71875 C 344.339844 392.871094 358.589844 401.101562 376.171875 401.101562 C 393.75 401.101562 408 392.871094 408 382.71875 Z M 408 382.71875 "/>
<path style=" stroke:none;fill-rule:nonzero;fill:rgb(87.843137%,87.843137%,87.843137%);fill-opacity:1;" d="M 239.339844 325.621094 C 239.339844 305.402344 210.949219 289.011719 175.929688 289.011719 C 140.910156 289.011719 112.519531 305.402344 112.519531 325.621094 C 112.519531 345.839844 140.910156 362.230469 175.929688 362.230469 C 210.949219 362.230469 239.339844 345.839844 239.339844 325.621094 Z M 239.339844 325.621094 "/>
<path style=" stroke:none;fill-rule:nonzero;fill:rgb(72.941176%,40.784314%,78.431373%);fill-opacity:1;" d="M 154.910156 148.128906 C 152.441406 148.128906 150.230469 150.351562 150.230469 156.75 C 150.230469 163.148438 149.730469 168.269531 153.648438 168.269531 Z M 154.910156 148.128906 "/>
<use xlink:href="#surface5" mask="url(#mask0)"/>
<path style=" stroke:none;fill-rule:nonzero;fill:rgb(72.941176%,40.784314%,78.431373%);fill-opacity:1;" d="M 161.441406 195.519531 L 182.359375 194.078125 C 186.765625 193.203125 189.992188 189.410156 190.148438 184.921875 L 190.148438 147.570312 C 190.148438 143.261719 187.570312 141.011719 182.359375 141.148438 L 161.441406 142.589844 C 157.035156 143.46875 153.808594 147.261719 153.648438 151.75 L 153.648438 189.109375 C 153.578125 191.085938 154.433594 192.984375 155.960938 194.238281 C 157.488281 195.496094 159.515625 195.96875 161.441406 195.519531 Z M 161.441406 195.519531 "/>
<path style=" stroke:none;fill-rule:nonzero;fill:rgb(69.411765%,40%,40.784314%);fill-opacity:1;" d="M 208.5 180.179688 C 210.710938 185.460938 217.691406 193.449219 219.410156 195.410156 C 220.679688 196.859375 223.738281 199.648438 224.71875 201.300781 C 226.238281 203.839844 233.378906 209.898438 231.359375 212.03125 C 227.730469 215.851562 222.671875 212.03125 220.730469 210.460938 C 217.898438 208.113281 215.195312 205.617188 212.628906 202.980469 C 208.242188 198.464844 204.226562 193.597656 200.628906 188.429688 C 199.121094 186.269531 190.769531 165.589844 190.550781 160.550781 C 190.46875 158.640625 190.179688 146.449219 192.640625 145.550781 C 197.570312 145.890625 199.640625 147.921875 200.640625 150.550781 C 201.640625 153.179688 202.101562 156.359375 202.800781 159.019531 C 204.28125 164.679688 207.699219 178.300781 208.5 180.179688 Z M 208.5 180.179688 "/>
<path style=" stroke:none;fill-rule:nonzero;fill:rgb(14.901961%,19.607843%,21.960784%);fill-opacity:1;" d="M 138.289062 296.519531 C 136.761719 295.730469 135.78125 297.679688 134.390625 299.238281 C 133.390625 300.339844 131.898438 302.070312 131.671875 303.320312 C 131.339844 305.171875 133 308.070312 134.851562 309.679688 C 136.699219 311.289062 138.851562 312.429688 139.5 315.941406 C 140.148438 319.449219 141.5 321.550781 145.179688 323.121094 C 149.179688 324.839844 154.519531 324.289062 156.328125 323.121094 C 158.480469 321.730469 156.519531 320.210938 153.511719 315.898438 C 149.578125 310.28125 146.511719 306.261719 146.511719 301.019531 Z M 138.289062 296.519531 "/>
<path style=" stroke:none;fill-rule:nonzero;fill:rgb(69.411765%,40%,40.784314%);fill-opacity:1;" d="M 141.429688 291.921875 L 138.199219 296.648438 C 136.777344 298.695312 137.265625 301.503906 139.289062 302.949219 L 139.390625 303.011719 C 141.417969 304.21875 144.027344 303.796875 145.570312 302.011719 L 150.570312 296.519531 Z M 141.429688 291.921875 "/>
<path style=" stroke:none;fill-rule:nonzero;fill:rgb(69.411765%,40%,40.784314%);fill-opacity:1;" d="M 200.339844 326.246094 L 192.363281 328.058594 L 189.722656 316.4375 L 197.699219 314.621094 Z M 200.339844 326.246094 "/>
<path style=" stroke:none;fill-rule:nonzero;fill:rgb(14.901961%,19.607843%,21.960784%);fill-opacity:1;" d="M 199.449219 322.289062 L 199.191406 321.148438 C 200.03125 321.308594 203.621094 327.261719 207.191406 329.839844 C 211.078125 332.671875 214.460938 334.351562 216.191406 335.621094 C 218.519531 337.328125 215.191406 340.820312 209.421875 341.140625 C 206.578125 341.289062 201.421875 340.429688 199.808594 338.910156 C 198.199219 337.390625 197.058594 334.910156 195.808594 333.808594 C 194.558594 332.710938 191.988281 331.761719 191.121094 330.371094 C 190.640625 329.601562 190.570312 327.710938 190.621094 326.078125 C 190.671875 324.449219 190.71875 322.941406 191.230469 322.960938 L 191.429688 323.828125 C 192.929688 324.59375 194.597656 324.960938 196.28125 324.898438 C 197.609375 324.839844 200.121094 324.53125 199.449219 322.289062 Z M 199.449219 322.289062 "/>
<path style=" stroke:none;fill-rule:nonzero;fill:rgb(72.941176%,40.784314%,78.431373%);fill-opacity:1;" d="M 199.429688 199.25 C 199.640625 205.25 200.699219 230.160156 196.300781 241.691406 C 193.867188 248.246094 190.804688 254.546875 187.148438 260.511719 C 185.839844 262.75 148.089844 299.511719 148.089844 299.511719 C 148.089844 299.511719 141.691406 299.039062 140.671875 292.828125 C 140.671875 292.828125 156.140625 266.53125 159.480469 261.140625 C 162.820312 255.75 174.699219 247.480469 174.699219 247.480469 L 173.621094 194 Z M 199.429688 199.25 "/>
<use xlink:href="#surface8" mask="url(#mask1)"/>
<path style=" stroke:none;fill-rule:nonzero;fill:rgb(72.941176%,40.784314%,78.431373%);fill-opacity:1;" d="M 186.128906 217.648438 C 188.863281 215.125 191.3125 212.308594 193.429688 209.25 C 199.53125 200.820312 198.589844 193.328125 198.589844 193.328125 L 196.089844 193.328125 L 163.089844 194.011719 C 159.820312 199.371094 159.089844 207.511719 160.210938 215.429688 C 162.5 231.871094 176.128906 263.238281 176.128906 263.238281 C 175.929688 265.488281 174.980469 274.949219 177.128906 283.328125 C 180.511719 296.550781 189.738281 318.921875 189.738281 318.921875 C 189.738281 318.921875 195.511719 319.738281 198.378906 316.398438 C 198.378906 316.398438 193.28125 270.980469 191.898438 259.339844 C 190.398438 246.738281 186.128906 217.648438 186.128906 217.648438 Z M 186.128906 217.648438 "/>
<use xlink:href="#surface11" mask="url(#mask2)"/>
<use xlink:href="#surface14" mask="url(#mask3)"/>
<use xlink:href="#surface17" mask="url(#mask4)"/>
<path style=" stroke:none;fill-rule:nonzero;fill:rgb(21.568627%,27.843137%,30.980392%);fill-opacity:1;" d="M 197.578125 174.789062 C 198.101562 179.570312 199.429688 199.25 199.429688 199.25 C 183.640625 207.679688 164.058594 202.101562 161.058594 198.621094 C 162.625 192.894531 165.683594 187.6875 169.921875 183.53125 L 164.808594 169.261719 C 164.808594 169.261719 164.199219 167.800781 164.210938 167.78125 C 164.550781 167.199219 171.691406 159.148438 164.910156 146.371094 L 174.128906 145.53125 L 187.621094 145.140625 C 190.558594 145.308594 192.621094 145.589844 192.621094 145.589844 C 194.511719 147.351562 197.480469 152.199219 199.398438 157.121094 C 200.671875 160.300781 202 165.378906 197.578125 174.789062 Z M 197.578125 174.789062 "/>
<path style=" stroke:none;fill-rule:nonzero;fill:rgb(14.901961%,19.607843%,21.960784%);fill-opacity:1;" d="M 166.871094 175.011719 L 175.75 186.410156 L 169.929688 183.53125 Z M 166.871094 175.011719 "/>
<path style=" stroke:none;fill-rule:nonzero;fill:rgb(69.411765%,40%,40.784314%);fill-opacity:1;" d="M 148.460938 212.140625 C 148.714844 215.730469 149.1875 219.300781 149.878906 222.828125 C 152.25 231.960938 155.28125 234.699219 159.328125 234.96875 C 165.78125 235.398438 165.820312 232.96875 162.921875 228.828125 C 161.652344 227.015625 160.679688 225.011719 160.039062 222.890625 C 160.992188 223.675781 162.03125 224.347656 163.140625 224.890625 C 164.167969 225.421875 165.433594 225.078125 166.050781 224.101562 C 166.261719 223.660156 165.140625 223.230469 163.910156 221.71875 C 162.328125 219.789062 161.519531 218.261719 159.351562 216.660156 C 158.609375 215.953125 158.132812 215.015625 158 214 C 157.671875 212.699219 157.449219 192 158.621094 187.699219 L 164.171875 167.78125 C 168.679688 164.679688 171.738281 149.628906 164.871094 146.371094 C 156.171875 147.320312 155.488281 155.238281 148.46875 181.261719 C 147.261719 185.871094 147.730469 205.058594 148.460938 212.140625 Z M 148.460938 212.140625 "/>
<path style=" stroke:none;fill-rule:nonzero;fill:rgb(72.941176%,40.784314%,78.431373%);fill-opacity:1;" d="M 168.671875 146 C 168.671875 146 170.859375 147.191406 171.308594 153.53125 C 171.898438 161.660156 168.03125 171.390625 163.820312 174.980469 L 163.820312 182.140625 C 163.820312 182.140625 171.960938 175.371094 174.710938 166.859375 C 177.460938 158.351562 177.660156 150.039062 174.128906 145.5 C 172.304688 145.070312 170.386719 145.246094 168.671875 146 Z M 168.671875 146 "/>
<use xlink:href="#surface20" mask="url(#mask5)"/>
<path style=" stroke:none;fill-rule:nonzero;fill:rgb(72.941176%,40.784314%,78.431373%);fill-opacity:1;" d="M 187.570312 145.101562 C 187.570312 145.101562 195.140625 147.871094 198.101562 154.101562 C 198.101562 154.101562 198.371094 149.179688 194.570312 146.421875 C 190.769531 143.660156 187.570312 145.101562 187.570312 145.101562 Z M 187.570312 145.101562 "/>
<use xlink:href="#surface23" mask="url(#mask6)"/>
<path style=" stroke:none;fill-rule:nonzero;fill:rgb(14.901961%,19.607843%,21.960784%);fill-opacity:1;" d="M 202 143.609375 L 185.28125 143.609375 C 173.0625 143.609375 163.160156 133.707031 163.160156 121.488281 C 163.160156 110.757812 171.859375 102.058594 182.589844 102.058594 C 193.3125 102.070312 202 110.765625 202 121.488281 Z M 202 143.609375 "/>
<path style=" stroke:none;fill-rule:nonzero;fill:rgb(69.411765%,40%,40.784314%);fill-opacity:1;" d="M 195.078125 110.53125 C 197.078125 111.738281 199.671875 116.898438 199.421875 127.71875 C 199.199219 136.890625 196.230469 139.160156 194.738281 139.808594 C 193.25 140.460938 190.371094 140.058594 187.570312 139.601562 L 187.570312 145.101562 C 187.570312 145.101562 191.441406 149.589844 191.191406 152.101562 C 190.941406 154.609375 185.609375 155.21875 181.988281 152.75 C 178.371094 150.28125 175.320312 145.480469 175.320312 145.480469 L 175.390625 132.828125 C 175.390625 132.828125 173.738281 134.429688 170.949219 131.980469 C 168.640625 129.980469 167.859375 126.570312 169.660156 124.75 C 170.601562 123.863281 171.914062 123.488281 173.183594 123.738281 C 174.449219 123.992188 175.519531 124.839844 176.050781 126.019531 C 176.050781 126.019531 180.511719 126.179688 186.460938 122.921875 C 191.136719 120.394531 194.335938 115.792969 195.078125 110.53125 Z M 195.078125 110.53125 "/>
<path style=" stroke:none;fill-rule:nonzero;fill:rgb(14.901961%,19.607843%,21.960784%);fill-opacity:1;" d="M 189.179688 125.421875 C 189.183594 126.054688 188.679688 126.578125 188.042969 126.589844 C 187.40625 126.601562 186.878906 126.101562 186.859375 125.464844 C 186.839844 124.832031 187.335938 124.296875 187.96875 124.269531 C 188.621094 124.257812 189.160156 124.769531 189.179688 125.421875 Z M 189.179688 125.421875 "/>
<use xlink:href="#surface26" mask="url(#mask7)"/>
<path style=" stroke:none;fill-rule:nonzero;fill:rgb(14.901961%,19.607843%,21.960784%);fill-opacity:1;" d="M 198.628906 121.878906 L 196.300781 120.261719 C 196.496094 119.941406 196.816406 119.714844 197.183594 119.640625 C 197.550781 119.566406 197.933594 119.644531 198.238281 119.859375 C 198.882812 120.324219 199.054688 121.210938 198.628906 121.878906 Z M 198.628906 121.878906 "/>
<path style=" stroke:none;fill-rule:nonzero;fill:rgb(14.901961%,19.607843%,21.960784%);fill-opacity:1;" d="M 198.101562 124.578125 C 198.109375 125.214844 197.609375 125.742188 196.972656 125.757812 C 196.335938 125.777344 195.804688 125.28125 195.78125 124.644531 C 195.753906 124.011719 196.246094 123.472656 196.878906 123.441406 C 197.191406 123.429688 197.496094 123.542969 197.726562 123.757812 C 197.957031 123.972656 198.089844 124.265625 198.101562 124.578125 Z M 198.101562 124.578125 "/>
<use xlink:href="#surface29" mask="url(#mask8)"/>
<use xlink:href="#surface32" mask="url(#mask9)"/>
<path style=" stroke:none;fill-rule:nonzero;fill:rgb(14.901961%,19.607843%,21.960784%);fill-opacity:1;" d="M 166.25 111.820312 L 161.738281 109.398438 C 162.03125 108.789062 162.5625 108.320312 163.207031 108.109375 C 163.847656 107.898438 164.550781 107.960938 165.148438 108.28125 C 166.410156 108.972656 166.894531 110.535156 166.25 111.820312 Z M 166.25 111.820312 "/>
<path style=" stroke:none;fill-rule:nonzero;fill:rgb(27.058824%,35.294118%,39.215686%);fill-opacity:1;" d="M 234.738281 123.921875 C 231.808594 123.921875 229.179688 126.558594 229.179688 134.148438 C 229.179688 141.738281 228.578125 147.851562 233.238281 147.851562 Z M 234.738281 123.921875 "/>
<path style=" stroke:none;fill-rule:nonzero;fill:rgb(21.568627%,27.843137%,30.980392%);fill-opacity:1;" d="M 242.5 180.21875 L 267.359375 176.660156 C 272.59375 175.613281 276.421875 171.105469 276.609375 165.769531 L 276.609375 121.390625 C 276.609375 116.28125 272.46875 112.871094 267.359375 113.769531 L 242.5 117.339844 C 237.261719 118.378906 233.429688 122.882812 233.238281 128.21875 L 233.238281 172.601562 C 233.238281 177.710938 237.378906 181.121094 242.5 180.21875 Z M 242.5 180.21875 "/>
<path style=" stroke:none;fill-rule:nonzero;fill:rgb(14.901961%,19.607843%,21.960784%);fill-opacity:1;" d="M 221 277.691406 C 219.46875 276.898438 218.488281 278.851562 217.101562 280.410156 C 216.101562 281.511719 214.609375 283.238281 214.378906 284.488281 C 214.050781 286.339844 215.71875 289.238281 217.558594 290.851562 C 219.398438 292.460938 221.558594 293.601562 222.210938 297.109375 C 222.859375 300.621094 224.210938 302.71875 227.890625 304.289062 C 231.890625 306.011719 237.230469 305.460938 239.039062 304.289062 C 241.191406 302.898438 239.230469 301.378906 236.21875 297.070312 C 232.289062 291.449219 229.21875 287.429688 229.21875 282.191406 Z M 221 277.691406 "/>
<path style=" stroke:none;fill-rule:nonzero;fill:rgb(94.901961%,56.078431%,56.078431%);fill-opacity:1;" d="M 224.160156 273.089844 L 220.941406 277.820312 C 219.507812 279.863281 219.992188 282.679688 222.03125 284.121094 L 222.128906 284.179688 C 224.15625 285.382812 226.757812 284.964844 228.300781 283.179688 L 233.300781 277.691406 Z M 224.160156 273.089844 "/>
<path style=" stroke:none;fill-rule:nonzero;fill:rgb(94.901961%,56.078431%,56.078431%);fill-opacity:1;" d="M 283.074219 307.410156 L 275.097656 309.222656 L 272.457031 297.601562 L 280.433594 295.785156 Z M 283.074219 307.410156 "/>
<path style=" stroke:none;fill-rule:nonzero;fill:rgb(14.901961%,19.607843%,21.960784%);fill-opacity:1;" d="M 282.179688 303.460938 L 281.929688 302.320312 C 282.761719 302.480469 286.351562 308.429688 289.929688 311.011719 C 293.820312 313.839844 297.199219 315.511719 298.929688 316.789062 C 301.261719 318.5 297.929688 321.988281 292.160156 322.300781 C 289.320312 322.460938 284.160156 321.589844 282.550781 320.078125 C 280.941406 318.570312 279.800781 316.078125 278.550781 314.96875 C 277.300781 313.859375 274.730469 312.96875 273.859375 311.539062 C 273.378906 310.769531 273.308594 308.878906 273.359375 307.25 C 273.410156 305.621094 273.460938 304.109375 273.96875 304.128906 C 274.019531 304.300781 274.171875 305 274.171875 305 C 275.671875 305.765625 277.34375 306.132812 279.03125 306.070312 C 280.339844 306 282.851562 305.699219 282.179688 303.460938 Z M 282.179688 303.460938 "/>
<path style=" stroke:none;fill-rule:nonzero;fill:rgb(21.568627%,27.843137%,30.980392%);fill-opacity:1;" d="M 285.839844 176.410156 C 286.039062 182.410156 283.429688 211.328125 279.03125 222.859375 C 276.597656 229.414062 273.535156 235.71875 269.878906 241.679688 C 268.570312 243.921875 230.820312 280.679688 230.820312 280.679688 C 230.820312 280.679688 223.398438 281.351562 223.398438 274 C 223.398438 274 239 248.601562 242.351562 243.199219 C 245.699219 237.800781 255.558594 226.921875 255.558594 226.921875 L 257.351562 176 Z M 285.839844 176.410156 "/>
<path style=" stroke:none;fill-rule:nonzero;fill:rgb(21.568627%,27.843137%,30.980392%);fill-opacity:1;" d="M 269.859375 199.601562 C 272.59375 197.074219 275.042969 194.257812 277.160156 191.199219 C 283.261719 182.769531 283.25 175.578125 283.25 175.578125 L 279.820312 175.28125 L 243.640625 177.671875 C 243.640625 183.808594 243.238281 189.410156 243.929688 197.378906 C 245.359375 213.71875 256.570312 244.929688 256.570312 244.929688 C 256.378906 247.179688 257.699219 256.109375 259.851562 264.488281 C 263.230469 277.71875 272.460938 300.089844 272.460938 300.089844 C 272.460938 300.089844 278.238281 300.910156 281.109375 297.570312 C 281.109375 297.570312 276 252.148438 274.621094 240.511719 C 273.128906 227.910156 269.859375 199.601562 269.859375 199.601562 Z M 269.859375 199.601562 "/>
<path style=" stroke:none;fill-rule:nonzero;fill:rgb(14.901961%,19.607843%,21.960784%);fill-opacity:1;" d="M 273.609375 232.800781 C 273.609375 232.800781 270.769531 203.339844 269.859375 199.601562 C 269.859375 199.601562 276.640625 197.019531 278.730469 194.648438 C 278.730469 194.648438 277.238281 197.960938 272.390625 200.910156 Z M 273.609375 232.800781 "/>
<path style=" stroke:none;fill-rule:nonzero;fill:rgb(14.901961%,19.607843%,21.960784%);fill-opacity:1;" d="M 251.941406 231 L 256.570312 244.910156 C 256.769531 248.050781 257.128906 251.175781 257.648438 254.28125 L 255.648438 256.28125 C 255.058594 252.644531 254.910156 248.953125 255.199219 245.28125 Z M 251.941406 231 "/>
<path style=" stroke:none;fill-rule:nonzero;fill:rgb(100%,65.882353%,65.490196%);fill-opacity:1;" d="M 283.101562 164.878906 C 276.101562 147.550781 275.828125 132.371094 274.398438 127.878906 L 289.851562 145.789062 C 291.003906 152.050781 292.511719 158.238281 294.359375 164.328125 C 296.558594 170.988281 299.488281 179.328125 302.558594 184.328125 C 303.117188 185.21875 303.976562 185.871094 304.980469 186.171875 C 307.660156 186.988281 308.980469 188.21875 311.199219 189.570312 C 312.929688 190.621094 314.199219 190.660156 314.121094 191.160156 C 313.855469 192.335938 312.734375 193.109375 311.539062 192.941406 C 310.261719 192.792969 309.007812 192.496094 307.800781 192.050781 C 309.15625 193.914062 310.804688 195.546875 312.679688 196.890625 C 316.960938 199.96875 317.75 202.359375 311.261719 204.160156 C 307.199219 205.289062 303.261719 203.648438 297.800781 195.488281 C 295.722656 192.523438 293.859375 189.414062 292.230469 186.179688 C 288.289062 177.671875 285.210938 170.121094 283.101562 164.878906 Z M 283.101562 164.878906 "/>
<path style=" stroke:none;fill-rule:nonzero;fill:rgb(72.941176%,40.784314%,78.431373%);fill-opacity:1;" d="M 272 117.429688 C 278.449219 117.5 284.789062 118.949219 287 125.808594 C 289.128906 132.519531 291.878906 151.960938 291.878906 151.960938 C 291.878906 151.960938 289.171875 155.558594 280.128906 154.960938 Z M 272 117.429688 "/>
<use xlink:href="#surface35" mask="url(#mask10)"/>
<path style=" stroke:none;fill-rule:nonzero;fill:rgb(72.941176%,40.784314%,78.431373%);fill-opacity:1;" d="M 286 132.730469 C 286 126.050781 282.289062 118.03125 272.050781 117.429688 L 258.808594 117.820312 C 255.53125 118.609375 251.890625 119.289062 248.46875 120.421875 L 245.980469 148.730469 L 243.398438 180.488281 C 249.398438 187.03125 273.089844 188.140625 286.21875 178.550781 C 286.171875 178.550781 286 139.410156 286 132.730469 Z M 286 132.730469 "/>
<path style=" stroke:none;fill-rule:nonzero;fill:rgb(27.058824%,35.294118%,39.215686%);fill-opacity:1;" d="M 250.519531 119.789062 C 250.519531 119.789062 254.210938 122.128906 254.621094 131.320312 C 255.070312 139.394531 251.746094 147.21875 245.621094 152.5 L 245.039062 159.75 C 245.039062 159.75 258.039062 154.351562 260.839844 136.859375 C 262.648438 125.378906 257.839844 118.03125 257.839844 118.03125 C 255.710938 116.890625 250.410156 119 250.519531 119.789062 Z M 250.519531 119.789062 "/>
<path style=" stroke:none;fill-rule:nonzero;fill:rgb(27.058824%,35.294118%,39.215686%);fill-opacity:1;" d="M 284.46875 125.601562 C 284.46875 125.601562 280.199219 118.710938 272.261719 117.429688 C 274.316406 116.910156 276.488281 117.101562 278.421875 117.980469 C 281.554688 119.386719 283.808594 122.226562 284.46875 125.601562 Z M 284.46875 125.601562 "/>
<path style=" stroke:none;fill-rule:nonzero;fill:rgb(14.901961%,19.607843%,21.960784%);fill-opacity:1;" d="M 251.609375 94.578125 L 254.449219 105.800781 C 255.058594 108.203125 257.21875 109.886719 259.699219 109.890625 L 263 109.890625 L 263 94.238281 Z M 251.609375 94.578125 "/>
<path style=" stroke:none;fill-rule:nonzero;fill:rgb(14.901961%,19.607843%,21.960784%);fill-opacity:1;" d="M 277.183594 78.761719 C 283.644531 80.285156 287.644531 86.761719 286.121094 93.222656 C 284.597656 99.683594 278.121094 103.683594 271.660156 102.160156 C 265.199219 100.632812 261.199219 94.160156 262.722656 87.699219 C 264.25 81.238281 270.722656 77.238281 277.183594 78.761719 Z M 277.183594 78.761719 "/>
<path style=" stroke:none;fill-rule:nonzero;fill:rgb(14.901961%,19.607843%,21.960784%);fill-opacity:1;" d="M 255.871094 83.640625 C 254.46875 83.480469 253.070312 83.984375 252.089844 85 C 250.460938 86.660156 250.800781 89.730469 252.089844 96.800781 L 257.089844 97.371094 Z M 255.871094 83.640625 "/>
<path style=" stroke:none;fill-rule:nonzero;fill:rgb(100%,65.882353%,65.490196%);fill-opacity:1;" d="M 258.21875 97.351562 C 257.480469 97.789062 256.421875 96.351562 255.5 95.398438 C 254.578125 94.449219 251.578125 93.121094 250.078125 96.28125 C 248.578125 99.441406 250.941406 103.730469 253.230469 104.671875 C 254.917969 105.503906 256.964844 104.855469 257.859375 103.199219 L 258.761719 117.820312 C 260.585938 121.820312 264.296875 124.636719 268.640625 125.320312 C 275.851562 126.320312 274.371094 120.320312 272 117.429688 L 272 113 C 273.808594 113.316406 275.648438 113.410156 277.480469 113.28125 C 280.121094 112.789062 281.410156 110.339844 282.648438 107.210938 C 284.5 102.550781 285.648438 95.949219 284.039062 87.578125 C 281.921875 76.480469 269.640625 76.238281 262.589844 80.679688 C 255.539062 85.121094 258.21875 97.351562 258.21875 97.351562 Z M 258.21875 97.351562 "/>
<path style=" stroke:none;fill-rule:nonzero;fill:rgb(14.901961%,19.607843%,21.960784%);fill-opacity:1;" d="M 258.21875 98.601562 C 257.851562 98.601562 256.421875 96.238281 255.5 95.398438 C 254.210938 94.230469 255.871094 83.640625 255.871094 83.640625 C 256.519531 74.960938 269.320312 74.300781 272.871094 74.050781 C 280.980469 73.46875 286.5 77.949219 284.289062 83.609375 C 282.820312 86.171875 279.828125 86.878906 277.019531 87.21875 C 272.25 87.800781 264.128906 85.21875 263.109375 85.101562 C 261.730469 84.921875 261.441406 86.261719 260.691406 89.921875 C 260 93.128906 259.480469 98.570312 258.21875 98.601562 Z M 258.21875 98.601562 "/>
<path style=" stroke:none;fill-rule:nonzero;fill:rgb(14.901961%,19.607843%,21.960784%);fill-opacity:1;" d="M 255.878906 84.460938 L 251.371094 82 C 251.660156 81.386719 252.191406 80.921875 252.835938 80.710938 C 253.480469 80.5 254.183594 80.558594 254.78125 80.878906 C 256.0625 81.574219 256.550781 83.167969 255.878906 84.460938 Z M 255.878906 84.460938 "/>
<path style=" stroke:none;fill-rule:nonzero;fill:rgb(94.901961%,56.078431%,56.078431%);fill-opacity:1;" d="M 272 113 C 272 113 265.308594 111.648438 263 110.410156 C 261.625 109.695312 260.496094 108.578125 259.769531 107.210938 C 260.121094 108.578125 260.746094 109.859375 261.601562 110.980469 C 263.308594 113.171875 272.019531 114.769531 272.019531 114.769531 Z M 272 113 "/>
<path style=" stroke:none;fill-rule:nonzero;fill:rgb(14.901961%,19.607843%,21.960784%);fill-opacity:1;" d="M 272.199219 97.101562 C 272.171875 97.832031 271.5625 98.40625 270.828125 98.390625 C 270.09375 98.371094 269.511719 97.765625 269.519531 97.035156 C 269.53125 96.300781 270.125 95.710938 270.859375 95.710938 C 271.222656 95.714844 271.566406 95.863281 271.820312 96.125 C 272.070312 96.386719 272.207031 96.738281 272.199219 97.101562 Z M 272.199219 97.101562 "/>
<path style=" stroke:none;fill-rule:nonzero;fill:rgb(14.901961%,19.607843%,21.960784%);fill-opacity:1;" d="M 270.78125 92.050781 L 267.910156 93.628906 C 267.488281 92.8125 267.78125 91.808594 268.578125 91.351562 C 268.960938 91.140625 269.414062 91.09375 269.832031 91.226562 C 270.246094 91.359375 270.589844 91.65625 270.78125 92.050781 Z M 270.78125 92.050781 "/>
<path style=" stroke:none;fill-rule:nonzero;fill:rgb(94.901961%,56.078431%,56.078431%);fill-opacity:1;" d="M 271.378906 106.050781 L 274.441406 107.199219 C 274.300781 107.613281 274.003906 107.949219 273.609375 108.140625 C 273.21875 108.328125 272.769531 108.347656 272.359375 108.199219 C 271.511719 107.859375 271.078125 106.914062 271.378906 106.050781 Z M 271.378906 106.050781 "/>
<path style=" stroke:none;fill-rule:nonzero;fill:rgb(14.901961%,19.607843%,21.960784%);fill-opacity:1;" d="M 283.441406 93.160156 L 280.828125 91.160156 C 281.078125 90.800781 281.460938 90.5625 281.890625 90.496094 C 282.320312 90.429688 282.757812 90.542969 283.101562 90.808594 C 283.8125 91.382812 283.960938 92.410156 283.441406 93.160156 Z M 283.441406 93.160156 "/>
<path style=" stroke:none;fill-rule:nonzero;fill:rgb(14.901961%,19.607843%,21.960784%);fill-opacity:1;" d="M 282.640625 96.328125 C 282.648438 96.691406 282.511719 97.042969 282.257812 97.304688 C 282.007812 97.566406 281.664062 97.714844 281.300781 97.71875 C 280.546875 97.699219 279.949219 97.074219 279.960938 96.320312 C 279.953125 95.957031 280.089844 95.605469 280.339844 95.347656 C 280.59375 95.085938 280.9375 94.933594 281.300781 94.929688 C 282.054688 94.953125 282.652344 95.574219 282.640625 96.328125 Z M 282.640625 96.328125 "/>
<path style=" stroke:none;fill-rule:nonzero;fill:rgb(94.901961%,56.078431%,56.078431%);fill-opacity:1;" d="M 277.019531 96.558594 L 275.761719 104.519531 L 280.179688 104 Z M 277.019531 96.558594 "/>
<path style=" stroke:none;fill-rule:nonzero;fill:rgb(100%,65.882353%,65.490196%);fill-opacity:1;" d="M 244.109375 149.730469 C 244.109375 149.730469 237.890625 164.558594 234.71875 174.53125 C 232.71875 180.910156 229.890625 189.101562 230.269531 194.710938 C 230.335938 195.722656 230.777344 196.675781 231.511719 197.378906 C 233.421875 199.25 233.988281 200.871094 235.28125 202.980469 C 236.28125 204.628906 237.28125 205.21875 237.058594 205.621094 C 236.3125 206.511719 235.003906 206.671875 234.058594 205.988281 C 233.046875 205.300781 232.117188 204.496094 231.289062 203.589844 C 231.609375 205.765625 232.285156 207.875 233.289062 209.828125 C 235.550781 214.339844 232.371094 215.738281 228.878906 215.378906 C 224.878906 214.949219 222.78125 211.710938 221.738281 202.378906 C 221.445312 198.765625 221.492188 195.132812 221.878906 191.53125 C 223.039062 181.339844 223.710938 173.609375 224.960938 168.371094 C 228.03125 155.511719 231.910156 142.269531 235.601562 133.441406 C 237.441406 129.050781 241.339844 124.011719 245.210938 123.441406 C 252.5 136.789062 244.109375 149.730469 244.109375 149.730469 Z M 244.109375 149.730469 "/>
<path style=" stroke:none;fill-rule:nonzero;fill:rgb(72.941176%,40.784314%,78.431373%);fill-opacity:1;" d="M 248.421875 120.421875 C 243.808594 121.941406 239.589844 124.28125 237.199219 128.769531 C 232.5 137.609375 227.730469 155.371094 227.730469 155.371094 C 230.128906 158.179688 238.148438 160.648438 242.171875 159.441406 L 245.929688 148.730469 L 249.601562 141.429688 C 249.601562 141.429688 256.800781 125.710938 248.421875 120.421875 Z M 248.421875 120.421875 "/>
<use xlink:href="#surface38" mask="url(#mask11)"/>
<path style=" stroke:none;fill-rule:nonzero;fill:rgb(69.411765%,40%,40.784314%);fill-opacity:1;" d="M 231.308594 203.589844 C 229.648438 203.160156 228.019531 202.148438 227.359375 203.851562 C 226.75 206.164062 227.265625 208.632812 228.75 210.511719 C 230.238281 212.058594 234.390625 213.179688 235.378906 212.308594 C 236.371094 211.441406 234.28125 204.359375 231.308594 203.589844 Z M 231.308594 203.589844 "/>
<path style=" stroke:none;fill-rule:nonzero;fill:rgb(72.941176%,40.784314%,78.431373%);fill-opacity:1;" d="M 407.359375 252.171875 L 392.519531 243.648438 C 385.441406 238.910156 375.609375 239.109375 364.730469 245.390625 C 343.160156 257.839844 325.671875 289.460938 325.671875 316.019531 L 325.671875 322.019531 C 325.671875 348.570312 361.371094 377.421875 361.371094 377.421875 L 375.96875 385.679688 C 375.96875 385.679688 367.199219 375.679688 368.199219 373.628906 C 377.761719 354.011719 403.789062 298.628906 403.789062 276.921875 L 403.789062 270.921875 C 403.839844 266.53125 403.277344 262.15625 402.121094 257.921875 L 403.789062 258.921875 Z M 364.730469 313 C 353.949219 319.230469 345.199219 314.179688 345.199219 301.71875 C 351.011719 300.808594 365.609375 275.890625 364.730469 267.898438 C 375.519531 261.671875 384.261719 266.71875 384.261719 279.179688 C 384.261719 291.640625 375.519531 306.808594 364.730469 313 Z M 364.730469 313 "/>
<use xlink:href="#surface41" mask="url(#mask12)"/>
<path style=" stroke:none;fill-rule:nonzero;fill:rgb(72.941176%,40.784314%,78.431373%);fill-opacity:1;" d="M 419.410156 279.941406 C 419.410156 253.390625 401.921875 241.941406 380.351562 254.410156 C 358.78125 266.878906 341.300781 298.480469 341.300781 325 L 341.300781 331 C 341.300781 351.449219 364.460938 375.171875 375.109375 385 C 376.332031 386.128906 378.015625 386.617188 379.648438 386.3125 C 381.285156 386.007812 382.679688 384.945312 383.410156 383.449219 C 392.609375 364.621094 419.410156 307.890625 419.410156 285.898438 Z M 380.351562 322.058594 C 369.570312 328.289062 360.820312 323.238281 360.820312 310.78125 C 360.820312 298.320312 369.570312 283.191406 380.351562 276.960938 C 391.128906 270.730469 399.878906 275.78125 399.878906 288.230469 C 399.878906 300.679688 391.140625 315.828125 380.351562 322.058594 Z M 380.351562 322.058594 "/>
<path style=" stroke:none;fill-rule:nonzero;fill:rgb(87.843137%,87.843137%,87.843137%);fill-opacity:1;" d="M 80.488281 129.230469 C 80.175781 129.226562 79.898438 129.03125 79.792969 128.738281 C 79.6875 128.441406 79.773438 128.113281 80.011719 127.910156 C 80.789062 127.25 81.589844 126.609375 82.390625 126.019531 C 82.722656 125.769531 83.191406 125.839844 83.441406 126.171875 C 83.6875 126.5 83.621094 126.972656 83.289062 127.21875 C 82.511719 127.800781 81.738281 128.410156 80.96875 129.050781 C 80.835938 129.164062 80.667969 129.230469 80.488281 129.230469 Z M 80.488281 129.230469 "/>
<path style=" stroke:none;fill-rule:nonzero;fill:rgb(87.843137%,87.843137%,87.843137%);fill-opacity:1;" d="M 111 214.820312 C 110 214.820312 109 214.820312 108 214.75 C 107.589844 214.726562 107.273438 214.378906 107.289062 213.96875 C 107.3125 213.558594 107.65625 213.238281 108.070312 213.25 C 110.070312 213.351562 112.179688 213.339844 114.148438 213.25 C 114.5625 213.226562 114.917969 213.546875 114.941406 213.960938 C 114.960938 214.375 114.644531 214.726562 114.230469 214.75 C 113.199219 214.789062 112.109375 214.820312 111 214.820312 Z M 102.929688 214.320312 L 102.828125 214.320312 C 100.769531 214.070312 98.710938 213.710938 96.691406 213.269531 C 96.496094 213.230469 96.324219 213.113281 96.21875 212.945312 C 96.109375 212.777344 96.074219 212.574219 96.121094 212.378906 C 96.210938 211.976562 96.605469 211.722656 97.011719 211.808594 C 99.011719 212.238281 101.011719 212.578125 103.011719 212.808594 C 103.425781 212.835938 103.738281 213.191406 103.714844 213.605469 C 103.691406 214.019531 103.335938 214.335938 102.921875 214.308594 Z M 119.300781 214.230469 C 118.925781 214.234375 118.609375 213.960938 118.558594 213.589844 C 118.5 213.179688 118.78125 212.800781 119.191406 212.738281 C 121.1875 212.453125 123.15625 212.019531 125.089844 211.441406 C 125.351562 211.339844 125.648438 211.390625 125.859375 211.578125 C 126.070312 211.765625 126.15625 212.050781 126.089844 212.324219 C 126.019531 212.597656 125.804688 212.808594 125.53125 212.871094 C 123.527344 213.472656 121.480469 213.925781 119.410156 214.21875 Z M 91.910156 212 C 91.835938 212.015625 91.761719 212.015625 91.691406 212 C 89.699219 211.363281 87.757812 210.585938 85.878906 209.671875 C 85.507812 209.488281 85.351562 209.039062 85.535156 208.664062 C 85.71875 208.292969 86.167969 208.136719 86.539062 208.320312 C 88.351562 209.203125 90.226562 209.957031 92.148438 210.570312 C 92.515625 210.675781 92.742188 211.035156 92.683594 211.410156 C 92.621094 211.785156 92.289062 212.054688 91.910156 212.039062 Z M 81.75 207.171875 C 81.605469 207.171875 81.460938 207.128906 81.339844 207.050781 C 79.578125 205.910156 77.90625 204.636719 76.339844 203.238281 C 76.03125 202.964844 76.003906 202.488281 76.28125 202.179688 C 76.554688 201.871094 77.03125 201.84375 77.339844 202.121094 C 78.847656 203.464844 80.449219 204.695312 82.140625 205.800781 C 82.464844 206.023438 82.5625 206.460938 82.359375 206.800781 C 82.222656 207.003906 81.996094 207.128906 81.75 207.140625 Z M 73.261719 199.789062 C 73.042969 199.789062 72.832031 199.695312 72.691406 199.53125 C 71.3125 197.957031 70.054688 196.285156 68.921875 194.53125 C 68.714844 194.191406 68.8125 193.75 69.140625 193.53125 C 69.476562 193.332031 69.910156 193.421875 70.140625 193.738281 C 71.238281 195.433594 72.453125 197.046875 73.78125 198.570312 C 74.019531 198.871094 73.988281 199.304688 73.710938 199.570312 C 73.585938 199.683594 73.425781 199.75 73.261719 199.761719 Z M 67 190.410156 C 66.710938 190.410156 66.449219 190.246094 66.320312 189.988281 C 65.390625 188.125 64.574219 186.203125 63.878906 184.238281 C 63.800781 184.046875 63.804688 183.828125 63.890625 183.640625 C 63.980469 183.449219 64.140625 183.304688 64.339844 183.238281 C 64.535156 183.164062 64.75 183.167969 64.9375 183.253906 C 65.128906 183.34375 65.273438 183.503906 65.339844 183.699219 C 66.007812 185.609375 66.796875 187.472656 67.699219 189.28125 C 67.882812 189.648438 67.734375 190.09375 67.371094 190.28125 C 67.257812 190.351562 67.132812 190.398438 67 190.410156 Z M 63.128906 179.820312 C 62.785156 179.820312 62.484375 179.585938 62.398438 179.25 C 61.910156 177.226562 61.539062 175.175781 61.289062 173.109375 C 61.242188 172.699219 61.535156 172.324219 61.945312 172.273438 C 62.355469 172.226562 62.730469 172.519531 62.78125 172.929688 C 63.023438 174.949219 63.382812 176.953125 63.859375 178.929688 C 63.953125 179.328125 63.707031 179.730469 63.308594 179.828125 C 63.25 179.835938 63.1875 179.832031 63.128906 179.820312 Z M 61.660156 168.648438 C 61.25 168.644531 60.921875 168.316406 60.910156 167.910156 C 60.910156 167.589844 60.910156 167.261719 60.910156 166.910156 C 60.910156 165.152344 61.007812 163.394531 61.210938 161.648438 C 61.234375 161.378906 61.40625 161.144531 61.652344 161.035156 C 61.902344 160.921875 62.191406 160.957031 62.40625 161.121094 C 62.625 161.28125 62.738281 161.550781 62.699219 161.820312 C 62.507812 163.511719 62.410156 165.210938 62.410156 166.910156 C 62.410156 167.230469 62.410156 167.550781 62.410156 167.859375 C 62.421875 168.273438 62.09375 168.617188 61.679688 168.628906 Z M 62.800781 157.441406 L 62.640625 157.441406 C 62.238281 157.34375 61.984375 156.945312 62.070312 156.539062 C 62.535156 154.503906 63.132812 152.5 63.859375 150.539062 C 63.925781 150.34375 64.074219 150.183594 64.261719 150.097656 C 64.453125 150.011719 64.667969 150.007812 64.859375 150.089844 C 65.054688 150.160156 65.214844 150.304688 65.296875 150.492188 C 65.382812 150.683594 65.386719 150.898438 65.308594 151.089844 C 64.601562 152.980469 64.023438 154.917969 63.578125 156.890625 C 63.484375 157.238281 63.15625 157.46875 62.800781 157.441406 Z M 66.601562 146.839844 C 66.480469 146.839844 66.367188 146.8125 66.261719 146.761719 C 65.894531 146.574219 65.746094 146.128906 65.921875 145.761719 C 66.851562 143.898438 67.886719 142.089844 69.019531 140.339844 C 69.246094 139.992188 69.710938 139.894531 70.058594 140.121094 C 70.40625 140.347656 70.507812 140.8125 70.28125 141.160156 C 69.175781 142.855469 68.175781 144.617188 67.28125 146.429688 C 67.148438 146.683594 66.886719 146.84375 66.601562 146.839844 Z M 72.648438 137.328125 C 72.363281 137.324219 72.105469 137.160156 71.980469 136.902344 C 71.855469 136.644531 71.886719 136.335938 72.058594 136.109375 C 73.347656 134.476562 74.726562 132.917969 76.191406 131.441406 C 76.375 131.238281 76.65625 131.152344 76.921875 131.21875 C 77.1875 131.285156 77.398438 131.488281 77.46875 131.753906 C 77.539062 132.019531 77.457031 132.300781 77.261719 132.488281 C 75.847656 133.9375 74.511719 135.453125 73.261719 137.039062 C 73.117188 137.230469 72.890625 137.339844 72.648438 137.328125 Z M 72.648438 137.328125 "/>
<path style=" stroke:none;fill-rule:nonzero;fill:rgb(87.843137%,87.843137%,87.843137%);fill-opacity:1;" d="M 130.148438 211 C 129.871094 211 129.613281 210.84375 129.480469 210.601562 C 129.296875 210.234375 129.445312 209.785156 129.808594 209.601562 C 130.667969 209.15625 131.492188 208.65625 132.28125 208.101562 C 132.617188 207.882812 133.066406 207.96875 133.296875 208.292969 C 133.53125 208.621094 133.464844 209.074219 133.148438 209.320312 C 132.304688 209.921875 131.414062 210.460938 130.488281 210.929688 C 130.382812 210.980469 130.265625 211.007812 130.148438 211 Z M 130.148438 211 "/>
<path style=" stroke:none;fill-rule:nonzero;fill:rgb(72.941176%,40.784314%,78.431373%);fill-opacity:1;" d="M 111.929688 105.488281 L 87.859375 94.121094 L 88.921875 93.558594 L 111.859375 98.128906 L 114.148438 96.910156 C 114.640625 96.691406 115.203125 96.71875 115.671875 96.980469 C 116.089844 97.238281 116.078125 97.628906 115.671875 97.859375 L 114.261719 98.601562 L 122.171875 100.25 Z M 111.929688 105.488281 "/>
<use xlink:href="#surface44" mask="url(#mask13)"/>
<path style=" stroke:none;fill-rule:nonzero;fill:rgb(72.941176%,40.784314%,78.431373%);fill-opacity:1;" d="M 118.671875 99.480469 C 129.511719 93.789062 138.289062 90.570312 140.941406 92.230469 C 143.589844 93.890625 137.238281 98.660156 126.441406 104.378906 L 116.890625 109 C 107.320312 113.300781 97.488281 117 97.488281 117 L 97.929688 123.621094 L 96.929688 124.121094 L 92.628906 119.359375 C 92.628906 119.359375 90.230469 120.5 88.890625 119.660156 C 87.550781 118.820312 89.75 117.539062 89.75 117.539062 L 81.890625 114.648438 L 82.890625 114.148438 L 94.289062 114.988281 C 94.289062 114.988281 101.558594 109.671875 109.828125 104.558594 Z M 118.671875 99.480469 "/>
<path style=" stroke:none;fill-rule:nonzero;fill:rgb(72.941176%,40.784314%,78.431373%);fill-opacity:1;" d="M 130.480469 107.199219 L 128.179688 108.410156 L 134 122 L 132.941406 122.558594 L 116.890625 109 L 126.441406 104.378906 L 127.578125 107 L 128.988281 106.261719 C 129.476562 106.035156 130.042969 106.058594 130.511719 106.320312 C 130.691406 106.394531 130.808594 106.574219 130.800781 106.769531 C 130.792969 106.964844 130.664062 107.136719 130.480469 107.199219 Z M 130.480469 107.199219 "/>
<use xlink:href="#surface47" mask="url(#mask14)"/>
<path style=" stroke:none;fill-rule:nonzero;fill:rgb(72.941176%,40.784314%,78.431373%);fill-opacity:1;" d="M 369.378906 181.488281 C 358.839844 187.738281 350.238281 191.421875 347.511719 189.890625 C 344.78125 188.359375 350.871094 183.28125 361.351562 177 L 370.648438 171.890625 C 379.980469 167.101562 389.648438 162.890625 389.648438 162.890625 L 388.859375 156.308594 L 389.789062 155.761719 L 394.328125 160.289062 C 394.328125 160.289062 396.660156 159.019531 398.050781 159.800781 C 399.441406 160.578125 397.300781 161.960938 397.300781 161.960938 L 405.300781 164.429688 L 404.378906 164.988281 L 392.949219 164.738281 C 392.949219 164.738281 385.949219 170.429688 377.949219 175.96875 Z M 369.378906 181.488281 "/>
<path style=" stroke:none;fill-rule:nonzero;fill:rgb(72.941176%,40.784314%,78.431373%);fill-opacity:1;" d="M 357.171875 174.398438 L 359.398438 173.070312 L 352.851562 159.820312 L 353.851562 159.210938 L 370.628906 171.890625 L 361.328125 177 L 360.070312 174.449219 L 358.691406 175.261719 C 358.214844 175.503906 357.652344 175.503906 357.179688 175.261719 C 356.769531 175 356.761719 174.648438 357.171875 174.398438 Z M 357.171875 174.398438 "/>
<use xlink:href="#surface50" mask="url(#mask15)"/>
<path style=" stroke:none;fill-rule:nonzero;fill:rgb(72.941176%,40.784314%,78.431373%);fill-opacity:1;" d="M 375.789062 175.140625 L 400.421875 185.230469 L 399.421875 185.851562 L 376.28125 182.488281 L 374 183.820312 C 373.523438 184.0625 372.957031 184.0625 372.480469 183.820312 C 372.050781 183.578125 372.039062 183.191406 372.480469 182.949219 L 373.851562 182.128906 L 365.851562 180.890625 Z M 375.789062 175.140625 "/>
<use xlink:href="#surface53" mask="url(#mask16)"/>
<path style=" stroke:none;fill-rule:nonzero;fill:rgb(87.843137%,87.843137%,87.843137%);fill-opacity:1;" d="M 403.609375 153.171875 C 403.425781 153.171875 403.246094 153.101562 403.109375 152.980469 C 402.804688 152.703125 402.777344 152.230469 403.050781 151.921875 C 404.347656 150.460938 405.5 148.886719 406.5 147.210938 C 406.625 146.960938 406.878906 146.804688 407.160156 146.800781 C 407.4375 146.796875 407.695312 146.949219 407.828125 147.195312 C 407.960938 147.441406 407.945312 147.738281 407.789062 147.96875 C 406.75 149.734375 405.535156 151.394531 404.171875 152.921875 C 404.027344 153.082031 403.824219 153.171875 403.609375 153.171875 Z M 409.328125 143.851562 C 409.242188 143.863281 409.148438 143.863281 409.058594 143.851562 C 408.867188 143.78125 408.710938 143.632812 408.632812 143.441406 C 408.550781 143.25 408.554688 143.039062 408.640625 142.851562 C 409.347656 141.027344 409.875 139.144531 410.21875 137.21875 C 410.292969 136.8125 410.6875 136.539062 411.09375 136.613281 C 411.503906 136.691406 411.773438 137.082031 411.699219 137.488281 C 411.332031 139.503906 410.773438 141.480469 410.03125 143.390625 C 409.914062 143.671875 409.636719 143.855469 409.328125 143.851562 Z M 411.46875 133.109375 C 411.269531 133.109375 411.078125 133.023438 410.941406 132.878906 C 410.804688 132.734375 410.730469 132.539062 410.738281 132.339844 C 410.738281 132.089844 410.738281 131.828125 410.738281 131.570312 C 410.734375 129.871094 410.601562 128.175781 410.339844 126.5 C 410.28125 126.089844 410.558594 125.707031 410.96875 125.640625 C 411.378906 125.582031 411.757812 125.863281 411.820312 126.269531 C 412.097656 128.023438 412.238281 129.796875 412.238281 131.570312 C 412.238281 131.839844 412.238281 132.109375 412.238281 132.378906 C 412.230469 132.792969 411.882812 133.121094 411.46875 133.109375 Z M 410 122.261719 C 409.667969 122.261719 409.378906 122.046875 409.28125 121.730469 C 408.710938 119.855469 407.996094 118.023438 407.140625 116.261719 C 406.960938 115.890625 407.113281 115.445312 407.480469 115.261719 C 407.851562 115.085938 408.296875 115.242188 408.480469 115.609375 C 409.367188 117.449219 410.113281 119.351562 410.710938 121.300781 C 410.769531 121.488281 410.75 121.695312 410.65625 121.871094 C 410.5625 122.042969 410.402344 122.175781 410.210938 122.230469 C 410.140625 122.25 410.070312 122.257812 410 122.261719 Z M 405.359375 112.328125 C 405.105469 112.332031 404.867188 112.203125 404.730469 111.988281 C 403.660156 110.339844 402.476562 108.765625 401.191406 107.28125 C 400.925781 106.964844 400.960938 106.492188 401.269531 106.21875 C 401.421875 106.089844 401.617188 106.023438 401.816406 106.039062 C 402.015625 106.054688 402.199219 106.148438 402.328125 106.300781 C 403.660156 107.839844 404.882812 109.472656 405.988281 111.179688 C 406.1875 111.523438 406.089844 111.960938 405.761719 112.179688 C 405.632812 112.277344 405.480469 112.328125 405.320312 112.328125 Z M 398.308594 103.929688 C 398.117188 103.929688 397.929688 103.855469 397.789062 103.71875 C 396.355469 102.371094 394.847656 101.101562 393.269531 99.921875 C 392.9375 99.671875 392.871094 99.203125 393.121094 98.871094 C 393.367188 98.539062 393.839844 98.472656 394.171875 98.71875 C 395.792969 99.933594 397.34375 101.242188 398.820312 102.628906 C 399.113281 102.921875 399.113281 103.398438 398.820312 103.691406 C 398.679688 103.847656 398.480469 103.933594 398.269531 103.929688 Z M 389.589844 97.261719 C 389.449219 97.261719 389.308594 97.21875 389.191406 97.140625 C 388.5 96.71875 387.800781 96.300781 387.078125 95.890625 C 386.078125 95.320312 385.078125 94.769531 384.011719 94.238281 C 383.648438 94.050781 383.507812 93.605469 383.691406 93.238281 C 383.878906 92.878906 384.320312 92.734375 384.691406 92.910156 C 385.691406 93.449219 386.78125 94.019531 387.808594 94.589844 C 388.539062 95.011719 389.269531 95.441406 389.96875 95.878906 C 390.300781 96.097656 390.40625 96.535156 390.210938 96.878906 C 390.078125 97.117188 389.824219 97.265625 389.550781 97.261719 Z M 299.941406 96.75 C 299.597656 96.753906 299.300781 96.523438 299.210938 96.195312 C 299.121094 95.867188 299.265625 95.519531 299.558594 95.351562 C 301.300781 94.351562 303.101562 93.351562 304.898438 92.511719 C 305.269531 92.328125 305.714844 92.480469 305.898438 92.851562 C 306.074219 93.222656 305.917969 93.667969 305.550781 93.851562 C 303.78125 94.710938 302.011719 95.648438 300.300781 96.640625 C 300.179688 96.714844 300.042969 96.753906 299.898438 96.75 Z M 379.839844 92.179688 C 379.734375 92.179688 379.632812 92.15625 379.539062 92.109375 C 377.730469 91.320312 375.871094 90.578125 374.019531 89.910156 C 373.820312 89.847656 373.65625 89.703125 373.566406 89.511719 C 373.480469 89.320312 373.476562 89.101562 373.558594 88.910156 C 373.625 88.710938 373.769531 88.550781 373.960938 88.460938 C 374.148438 88.375 374.367188 88.371094 374.558594 88.449219 C 376.449219 89.128906 378.339844 89.878906 380.179688 90.691406 C 380.507812 90.832031 380.691406 91.183594 380.621094 91.53125 C 380.546875 91.882812 380.238281 92.132812 379.878906 92.128906 Z M 309.789062 91.871094 C 309.488281 91.867188 309.210938 91.6875 309.089844 91.410156 C 309.007812 91.222656 309.003906 91.011719 309.082031 90.824219 C 309.160156 90.632812 309.308594 90.484375 309.5 90.410156 C 311.339844 89.628906 313.25 88.910156 315.148438 88.261719 C 315.523438 88.167969 315.90625 88.378906 316.035156 88.742188 C 316.160156 89.105469 315.988281 89.507812 315.640625 89.671875 C 313.761719 90.320312 311.890625 91.03125 310.078125 91.789062 C 309.976562 91.839844 309.863281 91.867188 309.75 91.871094 Z M 369.519531 88.410156 C 369.449219 88.417969 369.378906 88.417969 369.308594 88.410156 C 367.421875 87.859375 365.480469 87.410156 363.539062 86.941406 C 363.132812 86.847656 362.878906 86.445312 362.96875 86.039062 C 363.0625 85.632812 363.464844 85.378906 363.871094 85.46875 C 365.871094 85.898438 367.808594 86.410156 369.730469 86.96875 C 370.089844 87.074219 370.316406 87.425781 370.261719 87.796875 C 370.210938 88.164062 369.894531 88.441406 369.519531 88.441406 Z M 320.171875 88.25 C 319.832031 88.246094 319.535156 88.023438 319.441406 87.699219 C 319.386719 87.507812 319.410156 87.304688 319.507812 87.128906 C 319.605469 86.957031 319.769531 86.832031 319.960938 86.78125 C 321.890625 86.230469 323.871094 85.78125 325.839844 85.328125 C 326.242188 85.253906 326.628906 85.511719 326.71875 85.910156 C 326.765625 86.105469 326.730469 86.308594 326.621094 86.476562 C 326.515625 86.640625 326.34375 86.757812 326.148438 86.800781 C 324.210938 87.210938 322.269531 87.691406 320.371094 88.21875 Z M 358.761719 86 L 358.640625 86 C 356.691406 85.691406 354.699219 85.441406 352.730469 85.261719 C 352.320312 85.21875 352.019531 84.851562 352.058594 84.441406 C 352.078125 84.242188 352.171875 84.0625 352.324219 83.9375 C 352.476562 83.808594 352.671875 83.75 352.871094 83.769531 C 354.871094 83.949219 356.871094 84.199219 358.871094 84.519531 C 359.28125 84.585938 359.558594 84.96875 359.5 85.378906 C 359.4375 85.738281 359.125 86 358.761719 86 Z M 330.871094 85.929688 C 330.5 85.933594 330.183594 85.664062 330.128906 85.300781 C 330.0625 84.890625 330.339844 84.507812 330.75 84.441406 C 332.75 84.140625 334.75 83.890625 336.75 83.71875 C 337.164062 83.683594 337.527344 83.992188 337.566406 84.40625 C 337.601562 84.820312 337.292969 85.183594 336.878906 85.21875 C 334.878906 85.390625 332.929688 85.621094 330.96875 85.921875 Z M 347.808594 84.929688 C 345.808594 84.855469 343.808594 84.855469 341.808594 84.929688 C 341.609375 84.941406 341.417969 84.871094 341.269531 84.734375 C 341.125 84.597656 341.042969 84.410156 341.039062 84.210938 C 341.03125 84.011719 341.101562 83.816406 341.238281 83.671875 C 341.375 83.523438 341.5625 83.4375 341.761719 83.429688 C 343.761719 83.371094 345.761719 83.371094 347.761719 83.429688 C 348.175781 83.429688 348.511719 83.765625 348.511719 84.179688 C 348.511719 84.59375 348.175781 84.929688 347.761719 84.929688 Z M 347.808594 84.929688 "/>
</g>
</svg>
