<?xml version="1.0" encoding="UTF-8"?>
<svg xmlns="http://www.w3.org/2000/svg" xmlns:xlink="http://www.w3.org/1999/xlink" width="500px" height="500px" viewBox="0 0 500 500" version="1.1">
<defs>
<filter id="alpha" filterUnits="objectBoundingBox" x="0%" y="0%" width="100%" height="100%">
  <feColorMatrix type="matrix" in="SourceGraphic" values="0 0 0 0 1 0 0 0 0 1 0 0 0 0 1 0 0 0 1 0"/>
</filter>
<mask id="mask0">
  <g filter="url(#alpha)">
<rect x="0" y="0" width="500" height="500" style="fill:rgb(0%,0%,0%);fill-opacity:0.701961;stroke:none;"/>
  </g>
</mask>
<clipPath id="clip1">
  <rect x="0" y="0" width="500" height="500"/>
</clipPath>
<g id="surface5" clip-path="url(#clip1)">
<path style=" stroke:none;fill-rule:nonzero;fill:rgb(100%,100%,100%);fill-opacity:1;" d="M 317.539062 102.410156 C 312.527344 100.261719 307.453125 98.285156 302.320312 96.480469 C 266.570312 84 223.828125 91.101562 192.5 111.761719 C 175.929688 122.691406 164.390625 137.320312 155.789062 155.089844 C 147.050781 173.160156 140.96875 192.648438 128.460938 208.648438 C 116.21875 224.320312 99.070312 236.710938 92.171875 256 C 77.171875 298.140625 102.828125 355.679688 150.890625 359.671875 C 184.800781 362.488281 197.359375 381.730469 232.890625 391.441406 C 268.421875 401.148438 303.460938 400 344.050781 371 C 360.441406 359.300781 374.800781 343.878906 381.050781 324.390625 C 386.679688 306.851562 381.480469 288.53125 382.269531 270.621094 C 383.269531 248.519531 398.699219 231.960938 406.960938 212.441406 C 419.21875 183.488281 402.089844 158.03125 379.671875 140.050781 C 360.738281 124.777344 339.839844 112.121094 317.539062 102.410156 Z M 317.539062 102.410156 "/>
</g>
</defs>
<g id="surface1">
<path style=" stroke:none;fill-rule:nonzero;fill:rgb(57.254902%,89.019608%,66.27451%);fill-opacity:1;" d="M 317.539062 102.410156 C 312.527344 100.261719 307.453125 98.285156 302.320312 96.480469 C 266.570312 84 223.828125 91.101562 192.5 111.761719 C 175.929688 122.691406 164.390625 137.320312 155.789062 155.089844 C 147.050781 173.160156 140.96875 192.648438 128.460938 208.648438 C 116.21875 224.320312 99.070312 236.710938 92.171875 256 C 77.171875 298.140625 102.828125 355.679688 150.890625 359.671875 C 184.800781 362.488281 197.359375 381.730469 232.890625 391.441406 C 268.421875 401.148438 303.460938 400 344.050781 371 C 360.441406 359.300781 374.800781 343.878906 381.050781 324.390625 C 386.679688 306.851562 381.480469 288.53125 382.269531 270.621094 C 383.269531 248.519531 398.699219 231.960938 406.960938 212.441406 C 419.21875 183.488281 402.089844 158.03125 379.671875 140.050781 C 360.738281 124.777344 339.839844 112.121094 317.539062 102.410156 Z M 317.539062 102.410156 "/>
<use xlink:href="#surface5" mask="url(#mask0)"/>
<path style=" stroke:none;fill-rule:nonzero;fill:rgb(14.901961%,19.607843%,21.960784%);fill-opacity:1;" d="M 314.941406 397.03125 C 314.941406 390.210938 288.226562 384.679688 255.269531 384.679688 C 222.316406 384.679688 195.601562 390.210938 195.601562 397.03125 C 195.601562 403.851562 222.316406 409.378906 255.269531 409.378906 C 288.226562 409.378906 314.941406 403.851562 314.941406 397.03125 Z M 314.941406 397.03125 "/>
<path style="fill-rule:nonzero;fill:rgb(100%,100%,100%);fill-opacity:1;stroke-width:1;stroke-linecap:butt;stroke-linejoin:miter;stroke:rgb(14.901961%,19.607843%,21.960784%);stroke-opacity:1;stroke-miterlimit:10;" d="M 387.340168 238.288467 C 387.340168 311.230951 328.211125 370.359993 255.268642 370.359993 C 182.331682 370.359993 123.199877 311.228188 123.199877 238.291229 C 123.199877 165.348745 182.32892 106.219702 255.271404 106.219702 C 328.208363 106.219702 387.340168 165.351507 387.340168 238.288467 Z M 387.340168 238.288467 " transform="matrix(0.707107,-0.707107,0.707107,0.707107,-93.73,250.29)"/>
<path style="fill-rule:nonzero;fill:rgb(14.901961%,19.607843%,21.960784%);fill-opacity:1;stroke-width:1;stroke-linecap:butt;stroke-linejoin:miter;stroke:rgb(14.901961%,19.607843%,21.960784%);stroke-opacity:1;stroke-miterlimit:10;" d="M 255.269531 356.351562 C 185.050781 356.347656 127.105469 301.402344 123.378906 231.28125 C 123.261719 233.601562 123.191406 235.941406 123.191406 238.28125 C 123.820312 310.773438 182.769531 369.210938 255.265625 369.210938 C 327.761719 369.210938 386.710938 310.773438 387.339844 238.28125 C 387.339844 235.925781 387.28125 233.59375 387.160156 231.28125 C 383.433594 301.402344 325.492188 356.347656 255.269531 356.351562 Z M 255.269531 356.351562 "/>
<path style="fill-rule:nonzero;fill:rgb(57.254902%,89.019608%,66.27451%);fill-opacity:1;stroke-width:1;stroke-linecap:butt;stroke-linejoin:miter;stroke:rgb(14.901961%,19.607843%,21.960784%);stroke-opacity:1;stroke-miterlimit:10;" d="M 248.011719 179.03125 L 251.769531 184.039062 L 260.238281 187.179688 L 262.121094 193.761719 L 256.789062 195.949219 L 256.789062 197.210938 L 266.191406 200.96875 L 270.578125 200.03125 L 272.769531 196.578125 L 272.148438 190.621094 L 266.5 188.429688 L 263.058594 182.789062 L 250.519531 177.140625 Z M 248.011719 179.03125 "/>
<path style="fill-rule:nonzero;fill:rgb(57.254902%,89.019608%,66.27451%);fill-opacity:1;stroke-width:1;stroke-linecap:butt;stroke-linejoin:miter;stroke:rgb(14.901961%,19.607843%,21.960784%);stroke-opacity:1;stroke-miterlimit:10;" d="M 329.511719 322 L 319.511719 317.929688 L 307.28125 313.539062 L 297.570312 313.539062 L 288.480469 311.660156 L 278.480469 313.851562 L 272.828125 314.171875 L 269.390625 314.171875 L 262.800781 317.929688 L 256.53125 320.429688 L 248 315.070312 L 250.191406 306.289062 L 244.871094 304.089844 L 238.601562 304.089844 L 237.660156 301.269531 L 238.28125 295.628906 L 236.089844 292.5 L 231.699219 293.121094 L 230.449219 296.261719 L 225.121094 296.570312 L 220.421875 290.929688 L 218.539062 283.410156 L 223.238281 274.628906 L 232.328125 275.261719 L 234.839844 277.449219 L 238.601562 277.449219 L 243.300781 274.628906 L 247.371094 275.878906 L 253 285.601562 L 255.191406 285.289062 L 254.558594 278.078125 L 252.679688 274.320312 L 253.308594 268.320312 L 264.910156 263.320312 L 266.46875 251.730469 L 271.46875 247.648438 L 275.550781 240.441406 L 278.679688 239.820312 L 285.890625 235.109375 L 286.199219 232.609375 L 281.199219 232.921875 L 280.261719 230.410156 L 276.808594 230.410156 L 271.480469 231.671875 L 273.988281 227.589844 L 284.988281 224.460938 L 287.5 221.628906 L 291.878906 228.53125 L 294.710938 231.351562 L 299.089844 230.101562 L 297.21875 226 L 290.640625 221.300781 L 283.121094 212.839844 L 275.28125 207.511719 L 267.761719 206.261719 L 264 202.53125 L 259 201.28125 L 258.371094 202.53125 L 257.75 211.621094 L 259 214.761719 L 256.179688 224.761719 L 249.910156 219.761719 L 250.851562 215.378906 L 244.269531 212.238281 L 241.449219 208.789062 L 243 201 L 252.089844 194.410156 L 252.710938 186.890625 L 249.261719 187.199219 L 247.070312 184.378906 L 246.128906 179.679688 L 243.941406 179.371094 L 242.679688 184.371094 L 239.230469 185 L 237.671875 174 L 235.160156 172.429688 L 230.769531 170.550781 L 225.769531 173.058594 L 232.03125 179.058594 L 233.289062 184.390625 L 222 175.890625 L 214.171875 167.429688 L 213.539062 158.960938 L 205.390625 156.460938 L 199.121094 160.53125 C 197.601562 161.453125 196.03125 162.289062 194.421875 163.039062 C 192.851562 163.671875 186.898438 164.289062 186.898438 164.289062 L 185.640625 169.621094 L 178.429688 169.929688 L 179.058594 173.378906 L 190.660156 175.261719 L 196.609375 181.851562 L 196.609375 192.851562 L 193.171875 202.558594 L 193.789062 212.910156 L 185 228.238281 L 183.121094 251.121094 L 186 264.289062 L 190.070312 274.289062 L 194.769531 274.910156 L 193.210938 269.910156 L 190.699219 266.148438 L 189.128906 259.25 L 191.949219 258.621094 L 196.339844 269.910156 L 199.46875 279.910156 L 199.46875 288.058594 L 205.46875 295.269531 L 216 303.148438 L 232.300781 307.539062 L 237.300781 312.238281 L 241.058594 317.238281 L 246.710938 320.691406 L 253.601562 322.570312 L 260.5 322.25 C 260.5 322.25 260.191406 325.390625 260.191406 326.960938 C 260.191406 328.53125 255.800781 333.851562 255.800781 333.851562 L 252.351562 340.121094 L 254.859375 347.019531 L 261.75 349.839844 L 271.46875 359.839844 L 275.859375 361.71875 L 275.859375 366.421875 L 276.410156 368.609375 C 300.800781 364.65625 323.582031 353.914062 342.148438 337.609375 L 342.308594 335.339844 L 350.78125 319.980469 L 346.699219 317.160156 Z M 329.511719 322 "/>
<path style="fill-rule:nonzero;fill:rgb(57.254902%,89.019608%,66.27451%);fill-opacity:1;stroke-width:1;stroke-linecap:butt;stroke-linejoin:miter;stroke:rgb(14.901961%,19.607843%,21.960784%);stroke-opacity:1;stroke-miterlimit:10;" d="M 362.109375 198.148438 L 358.660156 192.148438 L 354.269531 185.25 L 353.019531 175.851562 L 358.660156 176.789062 L 358.96875 173.660156 L 354.898438 173.339844 L 358.351562 171.78125 L 362.109375 169.578125 L 362.109375 166.449219 L 358.351562 161.449219 L 357.539062 154.710938 C 320.105469 108.902344 256.789062 93.5625 202.539062 117.148438 L 209.769531 122.269531 L 205.378906 127.910156 L 199.378906 129.160156 L 198.761719 137.628906 L 196.25 138.570312 L 193.160156 142 L 193.46875 147.640625 L 198.800781 148.269531 L 196.601562 153.589844 L 201.929688 153.589844 L 211 142 L 211.941406 137 L 220.71875 136.371094 L 222.910156 132.609375 L 232 131.671875 L 232.941406 126.339844 L 239.53125 126.03125 C 239.53125 126.03125 244.230469 123.519531 245.171875 123.519531 C 246.980469 123.914062 248.765625 124.4375 250.5 125.089844 L 255.199219 128.851562 L 261.78125 128.851562 L 267.429688 125.398438 L 274.628906 126.03125 C 275.664062 126.714844 276.847656 127.144531 278.078125 127.28125 C 279.648438 127.28125 284.351562 125.089844 284.351562 125.089844 L 293.441406 130.730469 L 297.199219 133.550781 L 297.199219 138.261719 L 301.910156 138.878906 L 303.46875 136.058594 L 307.550781 137.941406 L 307.230469 140.449219 L 297.828125 142.960938 L 303.160156 149.851562 L 314.441406 156.121094 L 319.148438 162.390625 L 326.039062 163.019531 L 327.609375 159.878906 L 330.121094 159.261719 L 322 153 L 317 152.371094 L 321.078125 151.121094 L 317.308594 145.789062 L 322.640625 145.46875 L 329.539062 149.238281 L 331.109375 156.761719 L 334.558594 160.828125 L 337.378906 169.921875 L 344.269531 174.921875 L 344.269531 185.261719 L 351.480469 189.96875 L 351.171875 193.410156 L 350.230469 197.488281 L 352.109375 203.128906 L 352.738281 205.949219 L 358.058594 206.890625 L 360.570312 201.558594 Z M 362.109375 198.148438 "/>
<path style="fill-rule:nonzero;fill:rgb(57.254902%,89.019608%,66.27451%);fill-opacity:1;stroke-width:1;stroke-linecap:butt;stroke-linejoin:miter;stroke:rgb(14.901961%,19.607843%,21.960784%);stroke-opacity:1;stroke-miterlimit:10;" d="M 366.179688 166.570312 L 366.179688 168.371094 L 364.621094 173.371094 L 365.558594 177.761719 L 369 179 L 369 185 L 365.230469 183.429688 L 364.289062 200.359375 L 360.53125 207.261719 L 363.039062 216.03125 L 367.109375 219.789062 L 367.109375 236.699219 L 371.191406 249.871094 L 375.578125 259.871094 L 382.789062 261.75 L 385.300781 255.480469 L 386.300781 254.679688 C 386.96875 249.230469 387.300781 243.75 387.300781 238.261719 C 387.347656 212.824219 380.011719 187.917969 366.179688 166.570312 Z M 366.179688 166.570312 "/>
<path style="fill-rule:nonzero;fill:rgb(57.254902%,89.019608%,66.27451%);fill-opacity:1;stroke-width:1;stroke-linecap:butt;stroke-linejoin:miter;stroke:rgb(14.901961%,19.607843%,21.960784%);stroke-opacity:1;stroke-miterlimit:10;" d="M 293.78125 164.609375 L 273.089844 155.511719 L 264 155.828125 L 261.800781 161.78125 L 258.039062 157.710938 L 251.148438 159.28125 L 250.519531 169.621094 L 256.160156 173.699219 L 260.238281 167.738281 L 264.941406 172.441406 L 274.648438 180.910156 L 276.539062 190 L 284.691406 200.339844 L 297.851562 198.148438 L 297.539062 193.441406 L 294.71875 188.121094 L 294.089844 175.578125 L 297.21875 170.25 Z M 293.78125 164.609375 "/>
<path style="fill-rule:nonzero;fill:rgb(57.254902%,89.019608%,66.27451%);fill-opacity:1;stroke-width:1;stroke-linecap:butt;stroke-linejoin:miter;stroke:rgb(14.901961%,19.607843%,21.960784%);stroke-opacity:1;stroke-miterlimit:10;" d="M 310.699219 171.5 L 306 170.25 L 301.929688 173.699219 L 304.121094 182.789062 L 308.191406 182.789062 Z M 310.699219 171.5 "/>
<path style="fill-rule:nonzero;fill:rgb(57.254902%,89.019608%,66.27451%);fill-opacity:1;stroke-width:1;stroke-linecap:butt;stroke-linejoin:miter;stroke:rgb(14.901961%,19.607843%,21.960784%);stroke-opacity:1;stroke-miterlimit:10;" d="M 339.851562 177.460938 L 329.199219 171.808594 L 327 168.050781 L 324.488281 168.988281 L 326.691406 175.261719 L 328.570312 183.410156 L 333.269531 185.289062 L 334.210938 184.039062 L 331.390625 179.339844 L 339.539062 182.46875 Z M 339.851562 177.460938 "/>
<path style="fill-rule:nonzero;fill:rgb(57.254902%,89.019608%,66.27451%);fill-opacity:1;stroke-width:1;stroke-linecap:butt;stroke-linejoin:miter;stroke:rgb(14.901961%,19.607843%,21.960784%);stroke-opacity:1;stroke-miterlimit:10;" d="M 248.320312 290.621094 L 247.070312 291.871094 L 256.46875 294.691406 L 260.238281 299.078125 L 266.191406 299.710938 L 268.390625 296.261719 L 261.179688 295 Z M 248.320312 290.621094 "/>
<path style="fill-rule:nonzero;fill:rgb(57.254902%,89.019608%,66.27451%);fill-opacity:1;stroke-width:1;stroke-linecap:butt;stroke-linejoin:miter;stroke:rgb(14.901961%,19.607843%,21.960784%);stroke-opacity:1;stroke-miterlimit:10;" d="M 276.21875 296.570312 L 269.640625 298.449219 L 270.578125 300.960938 L 278.730469 300.960938 L 280.300781 298.449219 L 277.480469 298.769531 Z M 276.21875 296.570312 "/>
<path style="fill:none;stroke-width:1;stroke-linecap:butt;stroke-linejoin:miter;stroke:rgb(14.901961%,19.607843%,21.960784%);stroke-opacity:1;stroke-dasharray:2,2;stroke-miterlimit:10;" d="M 211.121094 291 C 164.980469 291 127.570312 250.179688 127.570312 199.828125 C 127.570312 149.480469 164.980469 108.648438 211.121094 108.648438 C 215.4375 108.644531 219.746094 109.007812 224 109.730469 "/>
<path style=" stroke:none;fill-rule:nonzero;fill:rgb(14.901961%,19.607843%,21.960784%);fill-opacity:1;" d="M 218.660156 296 C 219.675781 296.132812 220.617188 295.441406 220.789062 294.429688 C 220.996094 293.210938 220.207031 292.046875 219 291.78125 L 209.101562 289.671875 L 208.878906 289.671875 L 205.648438 283.320312 L 207.230469 283.488281 C 207.707031 283.539062 208.152344 283.242188 208.289062 282.78125 C 208.351562 282.523438 208.300781 282.25 208.152344 282.03125 C 208.003906 281.8125 207.773438 281.667969 207.511719 281.628906 L 204.578125 281.21875 L 202.160156 276.441406 L 204.351562 276.679688 C 204.832031 276.722656 205.269531 276.386719 205.351562 275.910156 C 205.527344 275.777344 205.609375 275.546875 205.558594 275.332031 C 205.507812 275.113281 205.332031 274.949219 205.109375 274.910156 L 201.050781 274.339844 L 199.429688 271.171875 C 198.824219 269.988281 197.726562 269.140625 196.429688 268.859375 L 195.429688 268.628906 L 198.261719 279.191406 C 198.261719 279.191406 200.171875 285.960938 197.339844 288.191406 L 186 286.78125 L 185.851562 286.78125 L 182.410156 280.070312 L 179.789062 279.308594 L 180.710938 286.648438 L 179.429688 286.648438 C 179.382812 286.664062 179.351562 286.707031 179.351562 286.753906 C 179.351562 286.804688 179.382812 286.84375 179.429688 286.859375 L 180.730469 287.449219 L 177.148438 294.140625 L 180.148438 294.519531 L 185.148438 289.398438 L 185.390625 289.511719 L 195.621094 291.828125 C 196.878906 292.53125 198.621094 293.980469 197.511719 296.28125 C 195.828125 299.679688 188.089844 309.890625 188.089844 309.890625 L 189.878906 309.890625 C 191.046875 309.90625 192.179688 309.484375 193.050781 308.710938 L 195.53125 306.46875 L 198.898438 306.839844 C 199.378906 306.890625 199.824219 306.589844 199.960938 306.128906 C 200.023438 305.871094 199.972656 305.601562 199.824219 305.382812 C 199.675781 305.164062 199.441406 305.019531 199.179688 304.980469 L 197.46875 304.738281 L 201.121094 301.449219 L 204.488281 301.820312 C 204.96875 301.867188 205.414062 301.570312 205.550781 301.109375 C 205.613281 300.851562 205.5625 300.582031 205.414062 300.363281 C 205.265625 300.144531 205.03125 299.996094 204.769531 299.960938 L 203.058594 299.71875 L 208.609375 294.71875 Z M 218.660156 296 "/>
<path style="fill:none;stroke-width:1;stroke-linecap:butt;stroke-linejoin:miter;stroke:rgb(14.901961%,19.607843%,21.960784%);stroke-opacity:1;stroke-dasharray:2,2;stroke-miterlimit:10;" d="M 130.398438 281.25 C 119.417969 275.109375 110.648438 265.660156 105.339844 254.25 C 91.179688 223.808594 104.78125 187.46875 135.730469 173.058594 C 166.679688 158.648438 203.238281 171.648438 217.410156 202.058594 C 218.078125 203.5 218.683594 204.949219 219.230469 206.410156 "/>
<path style=" stroke:none;fill-rule:nonzero;fill:rgb(14.901961%,19.607843%,21.960784%);fill-opacity:1;" d="M 226.488281 240.109375 C 226.828125 241.078125 227.863281 241.617188 228.851562 241.328125 C 230.039062 240.972656 230.734375 239.742188 230.429688 238.539062 L 227.898438 228.730469 L 227.828125 228.53125 L 232.078125 222.808594 L 232.621094 224.300781 C 232.789062 224.75 233.257812 225.015625 233.730469 224.929688 C 233.988281 224.875 234.210938 224.707031 234.339844 224.476562 C 234.472656 224.246094 234.496094 223.972656 234.410156 223.71875 L 233.480469 220.921875 L 236.671875 216.621094 L 237.441406 218.691406 C 237.609375 219.15625 238.113281 219.410156 238.589844 219.269531 C 238.792969 219.382812 239.042969 219.355469 239.21875 219.207031 C 239.394531 219.058594 239.464844 218.820312 239.390625 218.601562 L 238.089844 214.699219 L 240.210938 211.851562 C 241 210.789062 241.269531 209.433594 240.949219 208.148438 L 240.699219 207.148438 L 232.511719 214.390625 C 232.511719 214.390625 227.300781 219.121094 224.011719 217.589844 L 220.238281 206.789062 L 220.179688 206.648438 L 224.648438 200.589844 L 224.160156 197.910156 L 218 202 L 217.460938 200.851562 C 217.433594 200.808594 217.382812 200.785156 217.332031 200.796875 C 217.285156 200.808594 217.246094 200.851562 217.238281 200.898438 L 217.300781 202.320312 L 209.71875 202.101562 L 210.71875 204.929688 L 217.519531 207.109375 L 217.519531 207.378906 L 220 217.578125 C 219.941406 219.011719 219.429688 221.25 216.859375 221.25 C 213.070312 221.25 200.480469 218.871094 200.480469 218.871094 L 201.25 220.488281 C 201.753906 221.542969 202.636719 222.363281 203.71875 222.789062 L 206.828125 224.03125 L 208 227.210938 C 208.171875 227.660156 208.636719 227.925781 209.109375 227.839844 C 209.367188 227.78125 209.585938 227.613281 209.714844 227.386719 C 209.847656 227.15625 209.871094 226.878906 209.789062 226.628906 L 209.238281 224.988281 L 213.808594 226.800781 L 215 230 C 215.171875 230.449219 215.636719 230.714844 216.109375 230.628906 C 216.367188 230.574219 216.589844 230.410156 216.722656 230.175781 C 216.851562 229.945312 216.875 229.671875 216.789062 229.421875 L 216.25 227.78125 L 223.179688 230.53125 Z M 226.488281 240.109375 "/>
<path style="fill:none;stroke-width:1;stroke-linecap:butt;stroke-linejoin:miter;stroke:rgb(14.901961%,19.607843%,21.960784%);stroke-opacity:1;stroke-dasharray:2,2;stroke-miterlimit:10;" d="M 273 258 C 277.0625 263.953125 280.359375 270.394531 282.820312 277.171875 C 289.53125 295.539062 289.601562 314.171875 284.28125 328.800781 "/>
<path style=" stroke:none;fill-rule:nonzero;fill:rgb(14.901961%,19.607843%,21.960784%);fill-opacity:1;" d="M 267 242.550781 C 266.472656 241.667969 265.34375 241.359375 264.441406 241.851562 C 263.347656 242.4375 262.910156 243.777344 263.441406 244.898438 L 267.929688 253.980469 L 268.039062 254.160156 L 265.039062 260.628906 L 264.191406 259.289062 C 263.933594 258.886719 263.425781 258.722656 262.980469 258.898438 C 262.738281 259.007812 262.554688 259.214844 262.476562 259.464844 C 262.394531 259.71875 262.425781 259.992188 262.558594 260.21875 L 264.050781 262.769531 L 261.800781 267.640625 L 260.628906 265.761719 C 260.367188 265.339844 259.824219 265.195312 259.390625 265.429688 C 259.167969 265.359375 258.925781 265.433594 258.78125 265.617188 C 258.636719 265.796875 258.621094 266.050781 258.738281 266.25 L 260.808594 269.800781 L 259.320312 273 C 258.75 274.195312 258.75 275.585938 259.320312 276.78125 L 259.769531 277.730469 L 266.308594 268.960938 C 266.308594 268.960938 270.441406 263.269531 273.96875 264.089844 L 279.878906 273.890625 L 279.96875 274.011719 L 276.828125 280.871094 L 277.828125 283.390625 L 283.019531 278.128906 L 283.789062 279.128906 C 283.816406 279.183594 283.886719 279.207031 283.941406 279.179688 C 283.996094 279.152344 284.019531 279.085938 283.988281 279.03125 L 283.640625 277.648438 L 291.109375 276.320312 L 289.570312 273.75 L 282.460938 273.011719 L 282.390625 272.738281 L 277.878906 263.269531 C 277.648438 261.851562 277.691406 259.558594 280.210938 259.03125 C 283.921875 258.261719 296.730469 258.03125 296.730469 258.03125 L 295.640625 256.601562 C 294.929688 255.675781 293.898438 255.050781 292.75 254.851562 L 289.460938 254.28125 L 287.660156 251.410156 C 287.402344 251.003906 286.886719 250.839844 286.441406 251.019531 C 286.199219 251.128906 286.019531 251.335938 285.941406 251.589844 C 285.863281 251.839844 285.894531 252.113281 286.03125 252.339844 L 286.898438 253.839844 L 282.058594 253 L 280.261719 250.121094 C 280 249.710938 279.488281 249.546875 279.039062 249.730469 C 278.5625 249.988281 278.375 250.574219 278.621094 251.058594 L 279.488281 252.558594 L 272.140625 251.28125 Z M 267 242.550781 "/>
<path style="fill:none;stroke-width:1;stroke-linecap:butt;stroke-linejoin:miter;stroke:rgb(14.901961%,19.607843%,21.960784%);stroke-opacity:1;stroke-miterlimit:10;" d="M 393.28125 291.351562 C 393.488281 291.089844 393.691406 290.828125 393.890625 290.558594 "/>
<path style="fill:none;stroke-width:1;stroke-linecap:butt;stroke-linejoin:miter;stroke:rgb(14.901961%,19.607843%,21.960784%);stroke-opacity:1;stroke-dasharray:2.001844,2.001844;stroke-miterlimit:10;" d="M 395.101562 289 C 414.691406 262.371094 418.328125 226.851562 401.441406 198 C 389.761719 178.050781 370.488281 165.101562 348.871094 160.339844 "/>
<path style="fill:none;stroke-width:1;stroke-linecap:butt;stroke-linejoin:miter;stroke:rgb(14.901961%,19.607843%,21.960784%);stroke-opacity:1;stroke-miterlimit:10;" d="M 347.890625 160.078125 L 346.890625 159.878906 "/>
<path style=" stroke:none;fill-rule:nonzero;fill:rgb(14.901961%,19.607843%,21.960784%);fill-opacity:1;" d="M 387.371094 296.109375 C 386.882812 297.011719 387.191406 298.136719 388.070312 298.660156 C 389.136719 299.292969 390.507812 298.972656 391.191406 297.941406 L 396.699219 289.441406 L 396.800781 289.25 L 403.878906 288.511719 L 403.160156 289.921875 C 402.945312 290.347656 403.0625 290.867188 403.441406 291.160156 C 403.90625 291.441406 404.507812 291.296875 404.800781 290.839844 L 406.230469 288.261719 L 411.550781 287.699219 L 410.550781 289.699219 C 410.328125 290.140625 410.484375 290.679688 410.910156 290.929688 C 410.976562 291.136719 411.152344 291.285156 411.367188 291.316406 C 411.578125 291.34375 411.789062 291.25 411.910156 291.070312 L 413.910156 287.480469 L 417.441406 287.109375 C 418.761719 286.960938 419.949219 286.226562 420.671875 285.109375 L 421.261719 284.230469 L 410.378906 283.109375 C 410.378906 283.109375 403.378906 282.46875 402.269531 279.011719 L 407.671875 268.929688 L 407.730469 268.789062 L 415.21875 267.980469 L 416.859375 265.800781 L 409.691406 264 L 410.179688 262.820312 C 410.199219 262.769531 410.183594 262.714844 410.140625 262.683594 C 410.097656 262.65625 410.035156 262.660156 410 262.699219 L 409 263.699219 L 404 258 L 402.578125 260.640625 L 405.578125 267.121094 L 405.390625 267.308594 L 399.558594 276.039062 C 398.460938 276.960938 396.46875 278.101562 394.730469 276.210938 C 392.160156 273.421875 385.390625 262.539062 385.390625 262.539062 L 384.71875 264.199219 C 384.296875 265.285156 384.296875 266.492188 384.71875 267.578125 L 385.910156 270.699219 L 384.359375 273.699219 C 384.148438 274.128906 384.269531 274.648438 384.648438 274.941406 C 384.867188 275.089844 385.140625 275.144531 385.398438 275.082031 C 385.65625 275.019531 385.875 274.851562 386 274.621094 L 386.839844 273.109375 L 388.601562 277.699219 L 387.050781 280.699219 C 386.835938 281.128906 386.957031 281.648438 387.339844 281.941406 C 387.558594 282.089844 387.828125 282.136719 388.085938 282.078125 C 388.34375 282.015625 388.5625 281.851562 388.691406 281.621094 L 389.53125 280.109375 L 392.199219 287.109375 Z M 387.371094 296.109375 "/>
<path style="fill:none;stroke-width:1;stroke-linecap:butt;stroke-linejoin:miter;stroke:rgb(14.901961%,19.607843%,21.960784%);stroke-opacity:1;stroke-dasharray:2,2;stroke-miterlimit:10;" d="M 213.238281 111.421875 C 225.589844 103.871094 239.765625 99.84375 254.238281 99.769531 C 309.121094 99.769531 353.609375 158.46875 353.609375 230.890625 C 353.609375 272.429688 338.96875 309.449219 316.140625 333.480469 "/>
<path style=" stroke:none;fill-rule:nonzero;fill:rgb(14.901961%,19.607843%,21.960784%);fill-opacity:1;" d="M 294 358.851562 C 293.390625 359.675781 293.542969 360.835938 294.339844 361.480469 C 295.308594 362.25 296.714844 362.121094 297.53125 361.191406 L 304.160156 353.519531 L 304.28125 353.351562 L 311.398438 353.589844 L 310.488281 354.878906 C 310.210938 355.277344 310.257812 355.816406 310.601562 356.160156 C 310.800781 356.339844 311.066406 356.425781 311.335938 356.394531 C 311.605469 356.363281 311.84375 356.222656 312 356 L 313.78125 353.640625 L 319.128906 353.820312 L 317.859375 355.628906 C 317.570312 356.035156 317.652344 356.59375 318.039062 356.898438 C 318.066406 357.125 318.226562 357.316406 318.445312 357.378906 C 318.664062 357.4375 318.902344 357.359375 319.039062 357.179688 L 321.5 353.898438 L 325 354 C 326.320312 354.042969 327.59375 353.496094 328.46875 352.511719 L 329.160156 351.71875 L 318.539062 349.109375 C 318.539062 349.109375 311.691406 347.511719 311.070312 343.941406 L 317.808594 334.691406 L 317.878906 334.558594 L 325.421875 334.789062 L 327.339844 332.859375 L 320.46875 330.121094 L 321.121094 329.011719 C 321.160156 328.964844 321.152344 328.894531 321.105469 328.855469 C 321.058594 328.816406 320.988281 328.824219 320.949219 328.871094 L 319.820312 329.730469 L 315.679688 323.359375 L 313.910156 325.78125 L 315.988281 332.621094 L 315.78125 332.78125 L 308.78125 340.621094 C 307.558594 341.390625 305.429688 342.238281 303.96875 340.128906 C 301.808594 337.011719 296.601562 325.308594 296.601562 325.308594 L 295.710938 326.859375 C 295.128906 327.875 294.953125 329.070312 295.21875 330.210938 L 295.96875 333.460938 L 294.019531 336.238281 C 293.75 336.636719 293.800781 337.171875 294.140625 337.511719 C 294.335938 337.691406 294.59375 337.777344 294.859375 337.753906 C 295.121094 337.730469 295.363281 337.59375 295.519531 337.378906 L 296.519531 336 L 297.628906 340.78125 L 295.679688 343.558594 C 295.410156 343.957031 295.460938 344.492188 295.800781 344.828125 C 295.996094 345.007812 296.257812 345.09375 296.519531 345.070312 C 296.78125 345.042969 297.019531 344.910156 297.179688 344.699219 L 298.179688 343.308594 L 299.871094 350.589844 Z M 294 358.851562 "/>
<path style=" stroke:none;fill-rule:nonzero;fill:rgb(14.901961%,19.607843%,21.960784%);fill-opacity:1;" d="M 231.53125 88.078125 C 227.367188 88.089844 224 91.46875 224 95.628906 C 224 99.800781 231.550781 109.179688 231.550781 109.179688 C 231.550781 109.179688 239.101562 99.800781 239.101562 95.628906 C 239.101562 93.625 238.300781 91.699219 236.882812 90.285156 C 235.460938 88.867188 233.535156 88.074219 231.53125 88.078125 Z M 231.429688 98.628906 C 229.71875 98.628906 228.328125 97.242188 228.328125 95.53125 C 228.328125 93.816406 229.71875 92.429688 231.429688 92.429688 C 233.140625 92.429688 234.53125 93.816406 234.53125 95.53125 C 234.53125 97.242188 233.140625 98.628906 231.429688 98.628906 Z M 231.429688 98.628906 "/>
<path style=" stroke:none;fill-rule:nonzero;fill:rgb(14.901961%,19.607843%,21.960784%);fill-opacity:1;" d="M 336.769531 123.328125 C 332.601562 123.328125 329.21875 126.710938 329.21875 130.878906 C 329.21875 135.050781 336.769531 144.429688 336.769531 144.429688 C 336.769531 144.429688 344.320312 135.050781 344.320312 130.878906 C 344.320312 126.710938 340.941406 123.328125 336.769531 123.328125 Z M 336.671875 133.878906 C 334.957031 133.878906 333.570312 132.492188 333.570312 130.78125 C 333.570312 129.066406 334.957031 127.679688 336.671875 127.679688 C 338.382812 127.679688 339.769531 129.066406 339.769531 130.78125 C 339.769531 132.492188 338.382812 133.878906 336.671875 133.878906 Z M 336.671875 133.878906 "/>
<path style=" stroke:none;fill-rule:nonzero;fill:rgb(14.901961%,19.607843%,21.960784%);fill-opacity:1;" d="M 283.769531 338.46875 C 279.601562 338.46875 276.21875 341.851562 276.21875 346.019531 C 276.21875 350.191406 283.769531 359.570312 283.769531 359.570312 C 283.769531 359.570312 291.320312 350.191406 291.320312 346.019531 C 291.320312 341.851562 287.941406 338.46875 283.769531 338.46875 Z M 283.660156 349 C 281.949219 348.996094 280.566406 347.605469 280.570312 345.894531 C 280.574219 344.183594 281.960938 342.796875 283.671875 342.800781 C 285.382812 342.800781 286.769531 344.1875 286.769531 345.898438 C 286.769531 346.722656 286.441406 347.515625 285.859375 348.09375 C 285.273438 348.675781 284.484375 349.003906 283.660156 349 Z M 283.660156 349 "/>
<path style=" stroke:none;fill-rule:nonzero;fill:rgb(14.901961%,19.607843%,21.960784%);fill-opacity:1;" d="M 230.070312 246.640625 C 225.898438 246.640625 222.519531 250.019531 222.519531 254.191406 C 222.519531 258.359375 230.070312 267.730469 230.070312 267.730469 C 230.070312 267.730469 237.621094 258.359375 237.621094 254.191406 C 237.621094 250.019531 234.238281 246.640625 230.070312 246.640625 Z M 230 257.191406 C 228.28125 257.191406 226.890625 255.796875 226.890625 254.078125 C 226.890625 252.363281 228.28125 250.96875 230 250.96875 C 231.71875 250.96875 233.109375 252.363281 233.109375 254.078125 C 233.113281 254.90625 232.785156 255.699219 232.203125 256.28125 C 231.617188 256.867188 230.824219 257.191406 230 257.191406 Z M 230 257.191406 "/>
</g>
</svg>
