<?xml version="1.0" encoding="UTF-8"?>
<svg xmlns="http://www.w3.org/2000/svg" xmlns:xlink="http://www.w3.org/1999/xlink" width="500px" height="500px" viewBox="0 0 500 500" version="1.1">
<defs>
<filter id="alpha" filterUnits="objectBoundingBox" x="0%" y="0%" width="100%" height="100%">
  <feColorMatrix type="matrix" in="SourceGraphic" values="0 0 0 0 1 0 0 0 0 1 0 0 0 0 1 0 0 0 1 0"/>
</filter>
<mask id="mask0">
  <g filter="url(#alpha)">
<rect x="0" y="0" width="500" height="500" style="fill:rgb(0%,0%,0%);fill-opacity:0.2;stroke:none;"/>
  </g>
</mask>
<clipPath id="clip1">
  <rect x="0" y="0" width="500" height="500"/>
</clipPath>
<g id="surface5" clip-path="url(#clip1)">
<path style=" stroke:none;fill-rule:nonzero;fill:rgb(0%,0%,0%);fill-opacity:1;" d="M 322.148438 177.261719 L 319.558594 191.25 L 324.78125 194.800781 Z M 322.148438 177.261719 "/>
</g>
<mask id="mask1">
  <g filter="url(#alpha)">
<rect x="0" y="0" width="500" height="500" style="fill:rgb(0%,0%,0%);fill-opacity:0.2;stroke:none;"/>
  </g>
</mask>
<clipPath id="clip2">
  <rect x="0" y="0" width="500" height="500"/>
</clipPath>
<g id="surface8" clip-path="url(#clip2)">
<path style=" stroke:none;fill-rule:nonzero;fill:rgb(0%,0%,0%);fill-opacity:1;" d="M 331.371094 388.921875 L 331.648438 398.699219 L 339.839844 398.699219 L 339.558594 388.921875 Z M 331.371094 388.921875 "/>
<path style=" stroke:none;fill-rule:nonzero;fill:rgb(0%,0%,0%);fill-opacity:1;" d="M 387.121094 367.191406 L 379.539062 370.289062 L 384.488281 378.820312 L 392.070312 375.730469 Z M 387.121094 367.191406 "/>
</g>
<mask id="mask2">
  <g filter="url(#alpha)">
<rect x="0" y="0" width="500" height="500" style="fill:rgb(0%,0%,0%);fill-opacity:0.2;stroke:none;"/>
  </g>
</mask>
<clipPath id="clip3">
  <rect x="0" y="0" width="500" height="500"/>
</clipPath>
<g id="surface11" clip-path="url(#clip3)">
<path style=" stroke:none;fill-rule:nonzero;fill:rgb(0%,0%,0%);fill-opacity:1;" d="M 345.511719 158.289062 L 340 163 C 340.234375 163.878906 340.390625 164.773438 340.46875 165.679688 C 342.539062 165.378906 345.378906 163.109375 345.601562 160.941406 C 345.730469 160.058594 345.699219 159.160156 345.511719 158.289062 Z M 345.511719 158.289062 "/>
</g>
<mask id="mask3">
  <g filter="url(#alpha)">
<rect x="0" y="0" width="500" height="500" style="fill:rgb(0%,0%,0%);fill-opacity:0.2;stroke:none;"/>
  </g>
</mask>
<clipPath id="clip4">
  <rect x="0" y="0" width="500" height="500"/>
</clipPath>
<g id="surface14" clip-path="url(#clip4)">
<path style=" stroke:none;fill-rule:nonzero;fill:rgb(0%,0%,0%);fill-opacity:1;" d="M 340.101562 239.261719 C 331.929688 255.691406 338.460938 285.660156 341.351562 296.808594 C 342.828125 280.070312 345.351562 259.589844 347.269531 244.558594 C 346 236.058594 343.871094 231.691406 340.101562 239.261719 Z M 340.101562 239.261719 "/>
</g>
<mask id="mask4">
  <g filter="url(#alpha)">
<rect x="0" y="0" width="500" height="500" style="fill:rgb(0%,0%,0%);fill-opacity:0.2;stroke:none;"/>
  </g>
</mask>
<clipPath id="clip5">
  <rect x="0" y="0" width="500" height="500"/>
</clipPath>
<g id="surface17" clip-path="url(#clip5)">
<path style=" stroke:none;fill-rule:nonzero;fill:rgb(98.039216%,98.039216%,98.039216%);fill-opacity:1;" d="M 359.511719 221.621094 L 360.359375 224.621094 C 360.46875 224.859375 360.199219 225.089844 359.808594 225.089844 L 325.589844 225.089844 C 325.289062 225.089844 325.039062 224.941406 325.03125 224.761719 L 324.730469 221.761719 C 324.730469 221.550781 324.960938 221.378906 325.289062 221.378906 L 359 221.378906 C 359.199219 221.375 359.386719 221.460938 359.511719 221.621094 Z M 359.511719 221.621094 "/>
</g>
<mask id="mask5">
  <g filter="url(#alpha)">
<rect x="0" y="0" width="500" height="500" style="fill:rgb(0%,0%,0%);fill-opacity:0.4;stroke:none;"/>
  </g>
</mask>
<clipPath id="clip6">
  <rect x="0" y="0" width="500" height="500"/>
</clipPath>
<g id="surface20" clip-path="url(#clip6)">
<path style=" stroke:none;fill-rule:nonzero;fill:rgb(0%,0%,0%);fill-opacity:1;" d="M 330.5 204.398438 C 323.488281 197.289062 312.242188 196.601562 304.414062 202.800781 C 296.585938 209.003906 294.683594 220.105469 300 228.558594 L 299.128906 235.738281 L 306.320312 234.878906 C 314.769531 240.195312 325.863281 238.296875 332.070312 230.476562 C 338.273438 222.65625 337.597656 211.417969 330.5 204.398438 Z M 310.890625 224 C 307.703125 220.8125 307.703125 215.648438 310.890625 212.460938 C 314.078125 209.273438 319.242188 209.273438 322.429688 212.460938 C 325.617188 215.648438 325.617188 220.8125 322.429688 224 C 320.902344 225.53125 318.824219 226.394531 316.660156 226.394531 C 314.496094 226.394531 312.417969 225.53125 310.890625 224 Z M 310.890625 224 "/>
</g>
<clipPath id="clip7">
  <path d="M 118 193 L 309 193 L 309 385 L 118 385 Z M 118 193 "/>
</clipPath>
<clipPath id="clip8">
  <path d="M 308.96875 288.691406 C 308.96875 341.398438 266.238281 384.128906 213.53125 384.128906 C 160.820312 384.128906 118.089844 341.398438 118.089844 288.691406 C 118.089844 235.980469 160.820312 193.25 213.53125 193.25 C 266.238281 193.25 308.96875 235.980469 308.96875 288.691406 Z M 308.96875 288.691406 "/>
</clipPath>
<mask id="mask6">
  <g filter="url(#alpha)">
<rect x="0" y="0" width="500" height="500" style="fill:rgb(0%,0%,0%);fill-opacity:0.2;stroke:none;"/>
  </g>
</mask>
<clipPath id="clip9">
  <rect x="0" y="0" width="500" height="500"/>
</clipPath>
<g id="surface23" clip-path="url(#clip9)">
<path style=" stroke:none;fill-rule:nonzero;fill:rgb(0%,0%,0%);fill-opacity:1;" d="M 286.890625 210.449219 L 295.449219 212.089844 C 294.699219 212.660156 294.179688 213.539062 293.398438 214.089844 C 299.519531 214.160156 305.988281 213.460938 311.890625 215.089844 C 317.398438 216.628906 322.128906 214.660156 327.761719 215.261719 C 331.058594 215.621094 367.488281 218.070312 366.441406 223.011719 C 363.871094 222.609375 360.511719 221.328125 358.089844 222.738281 L 362.429688 224.601562 C 360.128906 225.871094 353.929688 226.949219 353.960938 229.140625 C 353.960938 230.710938 356.121094 231.410156 356.699219 232.808594 C 357.28125 234.210938 357.019531 236.429688 357.148438 237.898438 C 355.359375 236.28125 350.480469 233.390625 349.800781 231.21875 C 349.121094 229.050781 353.089844 225.03125 347.261719 225.890625 C 345.128906 226.199219 345.351562 228.109375 344.800781 228.320312 C 343.441406 228.851562 340.910156 228.460938 339.429688 228.511719 C 334.519531 228.679688 334.851562 229.609375 332.671875 233.851562 C 335.621094 234.378906 339.480469 234.339844 341.410156 236.28125 C 343.339844 238.21875 344.828125 244.640625 342.671875 246.609375 C 341.609375 247.609375 340.089844 246.828125 339.421875 247.359375 C 338.75 247.890625 337.558594 250.699219 337.78125 251.46875 C 338.398438 253.640625 345.199219 256.070312 339.121094 257.671875 C 338.351562 256.398438 336.648438 251.910156 335.308594 251.378906 C 333.421875 250.628906 331.171875 253.601562 331.109375 249.679688 L 328.390625 252 C 329.707031 253.597656 331.828125 254.300781 333.839844 253.808594 C 329.988281 254.808594 332.621094 257.808594 333.78125 259.179688 C 335.570312 261.28125 335.671875 261.339844 335.78125 263.691406 C 335.988281 268.011719 333.03125 271.46875 328.589844 272.449219 C 326.359375 272.941406 324.738281 272.199219 323.300781 273.769531 C 321.109375 276.140625 323.238281 276.328125 324.46875 278.300781 C 325.328125 279.691406 327.078125 282.488281 326.789062 284.171875 C 326.539062 285.601562 323.789062 287.359375 322.601562 288.480469 C 321.089844 286.269531 319.960938 283.328125 317.039062 282.621094 C 316.78125 286.269531 316.449219 287.671875 319.039062 290.5 C 319.839844 291.371094 320.828125 291.808594 321.378906 292.75 C 321.929688 293.691406 321.789062 295.679688 322.378906 296.910156 C 314.738281 292.808594 315.929688 284.988281 313.308594 277.738281 C 311.570312 282.179688 309.878906 276.109375 309.121094 274.738281 C 307.398438 271.738281 305.609375 270.738281 302.21875 272.738281 C 300.578125 273.691406 296.160156 277.890625 295.511719 279.609375 C 294.011719 283.550781 296.738281 285.140625 293.511719 288.609375 C 291.089844 286.898438 290.511719 283.148438 289.609375 280.609375 C 288.609375 277.828125 286.839844 274.738281 287.109375 271.710938 C 285.328125 275.519531 282.808594 270.800781 281.171875 269.410156 C 278.75 267.410156 277.171875 268.289062 273.941406 267.988281 C 272.679688 267.753906 271.445312 267.398438 270.25 266.929688 C 270.878906 267.101562 268.808594 265.710938 269.101562 265.828125 C 268.671875 265.640625 267.988281 266.460938 267.390625 266.230469 C 265.5 265.488281 261.96875 261.671875 260.300781 262.621094 C 261.019531 264.039062 262.449219 268.101562 263.910156 268.910156 C 266.179688 270.171875 267.910156 267.601562 269.660156 267.910156 C 271.011719 268.820312 272.195312 269.957031 273.160156 271.269531 C 273.460938 272.578125 273.160156 272.109375 272.160156 273.820312 C 271.011719 276.03125 269.15625 277.789062 266.890625 278.820312 C 265.121094 279.820312 261.011719 282.421875 258.890625 282.46875 C 256.128906 282.53125 256.179688 281.351562 255 279.128906 C 253.820312 276.910156 248.371094 263.480469 245.710938 265 C 247.789062 269.5 249.558594 274.351562 252.128906 278.621094 C 253.050781 280.148438 255.660156 285.128906 257.328125 285.808594 C 259.328125 286.621094 263.148438 284.808594 264.898438 284.28125 C 264.050781 292.28125 257.480469 295.28125 253.640625 301.441406 C 250.160156 306.980469 256.488281 313.441406 252.300781 318.300781 C 251.179688 319.609375 248.070312 320.21875 247.300781 321.710938 C 246.660156 322.941406 247.878906 324.820312 247.5 326.191406 C 247 327.980469 245.921875 327.328125 244.820312 328.910156 C 243.921875 330.191406 244.210938 332.03125 243.179688 333.488281 C 241.511719 336.222656 238.765625 338.128906 235.621094 338.730469 C 230.828125 339.808594 230.421875 339.660156 228.851562 335.46875 L 224 322.609375 C 222.78125 319.359375 223.289062 318.070312 224.269531 314.609375 C 225.25 311.148438 225.609375 310.359375 224.160156 307.21875 C 223.082031 305.261719 222.136719 303.234375 221.328125 301.148438 C 220.800781 299.371094 221.328125 298.050781 221.101562 296.199219 C 220.898438 294.738281 220.960938 293.949219 219.601562 292.761719 C 219.230469 292.429688 217.949219 293.109375 217.488281 292.871094 C 217.03125 292.628906 216.601562 291.171875 216.03125 291.058594 C 213.640625 290.609375 210.359375 292.210938 207.601562 292.320312 C 203.398438 292.480469 200.601562 292.410156 197.839844 289.828125 C 195.078125 287.25 192.671875 284.320312 192.449219 280.441406 C 191.96875 271.960938 198.28125 268.859375 201.78125 262.019531 C 202.941406 259.75 201.78125 258.921875 204.730469 257.179688 C 206.21875 256.289062 206.628906 256.371094 208.5 256.019531 C 212.941406 255.191406 217.609375 255.019531 222.101562 254.480469 C 221.710938 257.859375 221.429688 257.351562 224.179688 259.011719 C 226.371094 260.328125 228.910156 261.300781 231.179688 262.421875 C 231.949219 257.609375 238.390625 261.121094 241.929688 261.421875 C 247.351562 261.898438 246.398438 259.320312 247.308594 254.789062 C 245.191406 254.898438 242.398438 255.53125 240.378906 254.859375 C 237.378906 253.859375 237.839844 252.589844 237.378906 249.800781 L 234.039062 250.410156 C 234.757812 251.765625 234.84375 253.367188 234.269531 254.789062 C 233.132812 253.753906 232.085938 252.625 231.140625 251.410156 C 230.699219 250.691406 230.660156 249.289062 230.261719 248.761719 C 228.820312 246.851562 226.070312 245.28125 224.199219 243.761719 C 221.960938 246.949219 227.199219 249.429688 229.480469 250.660156 C 227.308594 253.21875 226.699219 255.78125 223.589844 253.019531 C 227.089844 253.238281 227.480469 252.339844 225.761719 249.929688 C 223.929688 247.351562 221.511719 245.929688 218.910156 246.078125 C 218.511719 246.078125 218.199219 247.171875 217.800781 247.210938 C 217.398438 247.25 216.179688 246.398438 215.800781 246.589844 C 215.421875 246.78125 214.730469 246.351562 214.390625 246.5 C 214.050781 246.648438 214.558594 247.871094 214.390625 248.03125 C 212.859375 249.390625 211.738281 251.46875 210.390625 252.859375 C 208.601562 254.730469 206.679688 256.410156 203.941406 254.859375 C 201.941406 253.691406 201.199219 249.710938 202.519531 247.621094 C 204.128906 245.070312 207.679688 248.25 209.988281 246.53125 C 212.300781 244.808594 209.199219 242.171875 207.988281 240.839844 C 209.882812 240.277344 211.734375 239.574219 213.519531 238.730469 C 215.519531 237.578125 214.949219 236.671875 216.578125 235.46875 C 217.839844 234.53125 218.691406 235.109375 219.511719 234.039062 C 220.71875 232.46875 218.070312 230.808594 221.621094 230.648438 C 219.679688 235.648438 228.429688 235.03125 230.960938 233.238281 C 231.5 232.859375 231.03125 231.589844 231.410156 231.050781 C 231.890625 230.570312 232.414062 230.132812 232.96875 229.738281 L 232.96875 228.410156 L 234.671875 228.410156 C 235.808594 227.570312 236.589844 229.101562 237.148438 227.039062 C 234.691406 227.460938 233.28125 228.359375 231.710938 226.761719 C 229.488281 224.5 231.390625 223.960938 233.359375 222.378906 C 229.75 219.800781 224.441406 227.101562 228.859375 227.75 C 228.03125 228.75 225.800781 232.800781 224.570312 233.058594 C 222.121094 233.589844 222.570312 230.179688 222.238281 228.519531 C 220.601562 229.171875 219.488281 229.980469 218.378906 229.28125 C 217.101562 228.480469 217.140625 226.339844 217.511719 225.679688 C 218.269531 224.328125 221.75 223.871094 223.070312 222.820312 C 224.390625 221.769531 225.070312 219.601562 226.589844 218.628906 C 231.660156 215.308594 241.691406 216.53125 246.320312 220.078125 C 244.210938 221.359375 241.578125 220.519531 239.261719 220.25 C 240.621094 222.050781 242.519531 224.25 244.988281 223.480469 C 245.300781 223.378906 245.878906 221.800781 246.460938 221.429688 C 247.789062 220.558594 250.078125 220.160156 251.601562 219.621094 C 256.691406 217.828125 260.601562 217.789062 265.960938 218.769531 C 263.351562 211.769531 267.570312 215.769531 272.421875 214.898438 C 274.738281 214.488281 276.871094 212.660156 279.109375 211.949219 C 281.671875 211.296875 284.269531 210.796875 286.890625 210.449219 Z M 286.890625 210.449219 "/>
<path style=" stroke:none;fill-rule:nonzero;fill:rgb(0%,0%,0%);fill-opacity:1;" d="M 212.449219 237.71875 L 206.609375 239 C 207.25 238.058594 208.988281 236.390625 209.089844 235.351562 C 209.289062 233.140625 208.089844 234.289062 207.730469 233.46875 C 206.070312 230.050781 206.96875 229.941406 210.058594 228.21875 C 210.480469 229.910156 210.601562 232.289062 211.449219 233.859375 C 212.300781 235.429688 214.859375 236.160156 212.449219 237.71875 Z M 212.449219 237.71875 "/>
<path style=" stroke:none;fill-rule:nonzero;fill:rgb(0%,0%,0%);fill-opacity:1;" d="M 207.171875 233.640625 C 205.46875 236.558594 206.859375 236.53125 202.890625 237.171875 C 203.910156 234.808594 203.328125 232.128906 207.171875 233.640625 Z M 207.171875 233.640625 "/>
<path style=" stroke:none;fill-rule:nonzero;fill:rgb(0%,0%,0%);fill-opacity:1;" d="M 257.679688 216.46875 C 250.769531 214.378906 261.609375 211.339844 262.96875 211 C 260.148438 211 256.21875 210.429688 253.96875 212.640625 C 251.5 215.089844 254.429688 217.851562 257.679688 216.46875 Z M 257.679688 216.46875 "/>
<path style=" stroke:none;fill-rule:nonzero;fill:rgb(0%,0%,0%);fill-opacity:1;" d="M 225.859375 211 L 228.359375 209 C 226.144531 208.085938 223.71875 207.820312 221.359375 208.230469 Z M 225.859375 211 "/>
<path style=" stroke:none;fill-rule:nonzero;fill:rgb(0%,0%,0%);fill-opacity:1;" d="M 227.25 207.488281 C 229.089844 209.488281 231.589844 208.488281 234.039062 208.179688 C 231.769531 207.859375 229.539062 207.640625 227.25 207.488281 Z M 227.25 207.488281 "/>
<path style=" stroke:none;fill-rule:nonzero;fill:rgb(0%,0%,0%);fill-opacity:1;" d="M 343 258.371094 C 343.558594 259.53125 344.289062 260.601562 345.171875 261.539062 C 346.171875 257.191406 348.890625 259.410156 351.738281 256.769531 C 353.28125 255.351562 353.171875 252.351562 351.121094 250.320312 C 348.238281 247.449219 350.539062 251.871094 349.390625 253.898438 C 348.109375 256.101562 344.648438 256.199219 343 258.371094 Z M 343 258.371094 "/>
<path style=" stroke:none;fill-rule:nonzero;fill:rgb(0%,0%,0%);fill-opacity:1;" d="M 348.800781 249 L 349.691406 248.671875 C 349.550781 248.339844 349.398438 248.011719 349.25 247.671875 C 350.890625 248.269531 352.53125 248.261719 353.03125 246.46875 L 347.578125 244.21875 C 349.101562 246.308594 346.761719 247.429688 348.800781 249 Z M 348.800781 249 "/>
<path style=" stroke:none;fill-rule:nonzero;fill:rgb(0%,0%,0%);fill-opacity:1;" d="M 347.191406 243.421875 L 348.578125 243.421875 C 346.539062 240.167969 344.230469 237.089844 341.679688 234.21875 C 340.789062 236.269531 345.851562 241.359375 347.191406 243.421875 Z M 347.191406 243.421875 "/>
<path style=" stroke:none;fill-rule:nonzero;fill:rgb(0%,0%,0%);fill-opacity:1;" d="M 337.898438 268.441406 C 336.308594 269.148438 336.378906 270.75 337.488281 272.089844 Z M 337.898438 268.441406 "/>
<path style=" stroke:none;fill-rule:nonzero;fill:rgb(0%,0%,0%);fill-opacity:1;" d="M 325.851562 274.789062 L 327.550781 274.789062 C 327.03125 276.378906 327.25 276.171875 325.621094 276.359375 Z M 325.851562 274.789062 "/>
<path style=" stroke:none;fill-rule:nonzero;fill:rgb(0%,0%,0%);fill-opacity:1;" d="M 312.269531 291.480469 C 318.140625 293.949219 323.878906 299.179688 323.878906 305.390625 C 320.828125 305.148438 318.628906 301.25 317.371094 298.96875 C 316.109375 296.691406 312.878906 293.648438 312.269531 291.480469 Z M 312.269531 291.480469 "/>
<path style=" stroke:none;fill-rule:nonzero;fill:rgb(0%,0%,0%);fill-opacity:1;" d="M 329.609375 296.699219 L 327.890625 296.320312 C 326.21875 300.929688 331.628906 305.320312 335.179688 301.898438 C 336.820312 300.320312 336.480469 297.390625 336.820312 295.519531 C 337.300781 292.910156 338.300781 292.011719 335.730469 290.019531 Z M 329.609375 296.699219 "/>
<path style=" stroke:none;fill-rule:nonzero;fill:rgb(0%,0%,0%);fill-opacity:1;" d="M 335.558594 289.25 C 336.808594 287.738281 338.558594 286.359375 338.558594 284.320312 C 337.570312 286 336.558594 287.609375 335.558594 289.25 Z M 335.558594 289.25 "/>
<path style=" stroke:none;fill-rule:nonzero;fill:rgb(0%,0%,0%);fill-opacity:1;" d="M 339.851562 283.449219 C 337.851562 280.660156 337.980469 279.75 338.230469 276.359375 C 340.660156 276.640625 339.429688 280.039062 340.898438 281.769531 C 343.019531 284.261719 345.609375 284.238281 345.78125 288.21875 C 345.878906 290.621094 344.558594 292.730469 341.878906 290.140625 C 340.109375 288.429688 341.289062 285.589844 339.851562 283.449219 Z M 339.851562 283.449219 "/>
<path style=" stroke:none;fill-rule:nonzero;fill:rgb(0%,0%,0%);fill-opacity:1;" d="M 344.628906 296.75 C 342.289062 297.988281 340.03125 296.070312 338.570312 298.839844 C 340.570312 297.378906 342.140625 298.019531 344.351562 298.429688 C 344.507812 297.882812 344.601562 297.320312 344.628906 296.75 Z M 344.628906 296.75 "/>
<path style=" stroke:none;fill-rule:nonzero;fill:rgb(0%,0%,0%);fill-opacity:1;" d="M 342.410156 299.160156 C 340.128906 300.808594 338.921875 298.621094 338 301.640625 C 337.628906 302.851562 338.230469 305.429688 339.570312 305.390625 C 339.519531 303.949219 338.988281 302.390625 340.148438 301.460938 C 339.859375 303.199219 340.46875 304.300781 342.410156 303.601562 L 340.789062 300.601562 C 341.53125 300.679688 342.328125 300.289062 343.070312 300.378906 Z M 342.410156 299.160156 "/>
<path style=" stroke:none;fill-rule:nonzero;fill:rgb(0%,0%,0%);fill-opacity:1;" d="M 333.171875 307.871094 C 330.960938 307.289062 325.691406 304.761719 323.878906 306.390625 C 326.160156 307.398438 331.289062 310 333.171875 307.871094 Z M 333.171875 307.871094 "/>
<path style=" stroke:none;fill-rule:nonzero;fill:rgb(0%,0%,0%);fill-opacity:1;" d="M 348.078125 295.441406 C 346.917969 296.582031 346.6875 298.371094 347.519531 299.769531 C 348.28125 298.460938 348.480469 296.898438 348.078125 295.441406 Z M 348.078125 295.441406 "/>
<path style=" stroke:none;fill-rule:nonzero;fill:rgb(0%,0%,0%);fill-opacity:1;" d="M 347.660156 302 C 347.929688 303.308594 349.359375 303 350.859375 303.148438 C 350.558594 301.71875 349.210938 301.660156 347.660156 302 Z M 347.660156 302 "/>
<path style=" stroke:none;fill-rule:nonzero;fill:rgb(0%,0%,0%);fill-opacity:1;" d="M 346.128906 302 L 346.738281 302.578125 C 346.367188 302.726562 345.953125 302.726562 345.578125 302.578125 Z M 346.128906 302 "/>
<path style=" stroke:none;fill-rule:nonzero;fill:rgb(0%,0%,0%);fill-opacity:1;" d="M 351.078125 299.769531 C 351.078125 302.769531 353.980469 303.679688 356.078125 304.628906 C 358.179688 305.578125 360.601562 306.539062 357.300781 308.691406 C 358.890625 308.460938 360.25 309.511719 361.5 309.398438 C 362.164062 309.449219 362.835938 309.449219 363.5 309.398438 C 364.019531 309.28125 364.289062 307.539062 364.808594 307.53125 C 366.339844 307.53125 366.140625 308.101562 367.5 309.078125 C 368.726562 310.152344 370.199219 310.90625 371.789062 311.269531 C 369.941406 309.03125 367.898438 305.429688 365.640625 303.710938 C 364.640625 302.949219 360.398438 301.011719 359.039062 300.980469 C 357.421875 300.980469 356.941406 301.601562 355.378906 302.78125 C 354.78125 300.769531 353.859375 298 351.078125 299.769531 Z M 351.078125 299.769531 "/>
<path style=" stroke:none;fill-rule:nonzero;fill:rgb(0%,0%,0%);fill-opacity:1;" d="M 368.828125 304.691406 C 370.589844 306 375.828125 305.601562 374.171875 302.78125 C 372.648438 304.910156 371.320312 304.691406 368.828125 304.691406 Z M 368.828125 304.691406 "/>
<path style=" stroke:none;fill-rule:nonzero;fill:rgb(0%,0%,0%);fill-opacity:1;" d="M 351.808594 311.808594 C 351.058594 312.75 349.269531 316.011719 348.191406 316.359375 C 346.511719 316.890625 345.859375 315.269531 344.550781 315.511719 C 341.679688 316.050781 338.621094 321.121094 336.128906 322.578125 C 331.808594 325.101562 329.519531 324.410156 328.898438 329.988281 C 328.679688 332.039062 329.738281 334.421875 329.261719 336.421875 C 328.820312 338.269531 326.261719 339.109375 329.558594 340.140625 C 332.691406 341.140625 339.011719 337.539062 342.320312 336.921875 C 344.101562 336.578125 344.898438 335.921875 346.671875 336.921875 C 348.089844 337.75 348.140625 339.300781 349.101562 340.699219 C 355.011719 349.351562 365.101562 340.761719 368.550781 334.429688 C 370.878906 330.191406 369.730469 326.738281 367.121094 322.949219 C 366 321.328125 365.351562 320.949219 364.609375 319.121094 C 363.691406 316.839844 363.378906 314.121094 362.78125 311.769531 L 358.851562 319.769531 C 355.140625 317.019531 353.851562 317.261719 356.039062 313.269531 Z M 351.808594 311.808594 "/>
<path style=" stroke:none;fill-rule:nonzero;fill:rgb(0%,0%,0%);fill-opacity:1;" d="M 353.21875 346.640625 L 357.890625 346.929688 C 356.519531 348.730469 355.640625 351.210938 352.890625 350.441406 Z M 353.21875 346.640625 "/>
<path style=" stroke:none;fill-rule:nonzero;fill:rgb(0%,0%,0%);fill-opacity:1;" d="M 370.648438 352.78125 C 374.230469 354.671875 374.269531 354 377.648438 351.78125 C 379.46875 350.578125 384.171875 349.058594 381.648438 346.621094 Z M 370.648438 352.78125 "/>
<path style=" stroke:none;fill-rule:nonzero;fill:rgb(0%,0%,0%);fill-opacity:1;" d="M 382.589844 346.640625 C 382.933594 347.167969 383.332031 347.65625 383.78125 348.101562 C 384.78125 347.300781 389.058594 344.839844 389.21875 343.730469 C 389.378906 342.621094 386.828125 340.429688 386 339.410156 Z M 382.589844 346.640625 "/>
<path style=" stroke:none;fill-rule:nonzero;fill:rgb(0%,0%,0%);fill-opacity:1;" d="M 399.148438 318.878906 C 398.5625 319.132812 398.003906 319.445312 397.480469 319.808594 C 399 320.929688 400.820312 320.800781 399.148438 318.878906 Z M 399.148438 318.878906 "/>
<path style=" stroke:none;fill-rule:nonzero;fill:rgb(0%,0%,0%);fill-opacity:1;" d="M 382.289062 322.820312 C 382.289062 322.820312 386.949219 326.398438 386.578125 325.289062 C 386.109375 323.898438 383.671875 322.71875 382.289062 322.820312 Z M 382.289062 322.820312 "/>
<path style=" stroke:none;fill-rule:nonzero;fill:rgb(0%,0%,0%);fill-opacity:1;" d="M 334.519531 308.308594 C 335.160156 310.621094 343.191406 308.828125 345.578125 308.308594 Z M 334.519531 308.308594 "/>
<path style=" stroke:none;fill-rule:nonzero;fill:rgb(0%,0%,0%);fill-opacity:1;" d="M 338.570312 310.058594 C 339.070312 311.179688 341.738281 312.390625 342.460938 310.941406 Z M 338.570312 310.058594 "/>
<path style=" stroke:none;fill-rule:nonzero;fill:rgb(0%,0%,0%);fill-opacity:1;" d="M 263.128906 313.128906 C 260.851562 315.191406 257.980469 316.910156 257.300781 319.820312 C 256.941406 321.339844 255.839844 327.699219 257.179688 328.679688 C 260.28125 330.960938 261.320312 323.910156 261.921875 322.25 C 263.269531 318.480469 264 317 263.128906 313.128906 Z M 263.128906 313.128906 "/>
<path style=" stroke:none;fill-rule:nonzero;fill:rgb(0%,0%,0%);fill-opacity:1;" d="M 200.558594 220.671875 C 202.859375 221.289062 203.960938 220.570312 206.039062 219.671875 C 204.898438 218.660156 197.589844 218.210938 200.558594 220.671875 Z M 200.558594 220.671875 "/>
<path style=" stroke:none;fill-rule:nonzero;fill:rgb(0%,0%,0%);fill-opacity:1;" d="M 140.730469 292.101562 C 138.800781 295.300781 136.988281 297.878906 136.328125 301.480469 C 135.449219 306.28125 136.71875 307.480469 139.261719 311.808594 C 139.941406 313.304688 140.804688 314.714844 141.828125 316 C 143.308594 317.511719 145.828125 318.058594 147.378906 319.558594 C 149.71875 321.898438 149.179688 324.019531 149.378906 327.558594 C 149.859375 335.089844 149.550781 342.648438 152.03125 349.839844 C 153.28125 353.46875 153.96875 356.480469 156.46875 359.351562 C 160.050781 363.46875 161.359375 363.589844 166.75 363.589844 C 162.359375 360.121094 160.53125 359.589844 160.429688 354.308594 C 160.328125 349.449219 159.921875 348.050781 162.921875 344.308594 C 168.558594 337.308594 176.371094 330.308594 179.378906 321.960938 C 180.367188 319.21875 181.351562 316.480469 182.328125 313.738281 C 182.898438 312.160156 185.480469 307.808594 185.058594 306.140625 C 184.46875 303.808594 176.550781 302.058594 173.738281 301 C 172.550781 300.539062 170.011719 300.078125 169.160156 299.171875 C 167.558594 297.46875 168.101562 294.03125 166.601562 292.238281 C 164.601562 289.828125 156.480469 287.039062 153.320312 286.121094 C 151.050781 285.460938 150.21875 285.558594 147.621094 285.929688 C 145.328125 286.25 142.808594 287.449219 140.828125 287.71875 C 139.140625 287.722656 137.457031 287.492188 135.828125 287.03125 C 132.988281 285.550781 134.320312 282.589844 134.71875 280.28125 L 129.148438 279.628906 L 132.148438 272.628906 C 129.800781 273.300781 129.238281 274.238281 127.550781 275.109375 C 126.449219 275.671875 124.121094 277 122.769531 276.300781 C 119.769531 274.738281 120.289062 268.300781 122.070312 265.960938 C 123.570312 263.960938 129.128906 262.550781 132 262.261719 C 137.699219 261.691406 137.46875 264.261719 139.050781 268.679688 C 141.191406 265.96875 138.761719 263.128906 140.050781 260.578125 C 141.121094 258.519531 145.449219 257.171875 147.179688 255.410156 C 152.070312 250.46875 153.980469 246.511719 160.890625 244.078125 L 160.890625 245.539062 L 166.820312 243.199219 L 162.589844 243.199219 C 162.722656 242.035156 163.160156 240.929688 163.859375 239.988281 L 159.410156 240.648438 C 163.148438 238.648438 168.898438 239.378906 172.078125 237.359375 C 175.460938 235.210938 171.25 229.890625 170.011719 227.210938 L 165.929688 229.621094 C 164.398438 227.429688 167.238281 226.851562 163.671875 225.511719 C 160.671875 224.398438 160.21875 225.511719 158.609375 227.351562 C 157 229.191406 152.609375 237.878906 149.910156 237.871094 C 150.699219 234.550781 151.679688 234.148438 149.058594 232.691406 C 147.339844 231.691406 141.601562 232.148438 142.429688 228.691406 C 143 226.320312 153.019531 222.390625 155.550781 220.949219 C 155.089844 221.789062 154.988281 222.800781 154.550781 223.648438 L 159.378906 223.578125 L 156.378906 220.949219 C 160.148438 220.480469 160.828125 220.75 162.691406 217.589844 C 160.230469 217.109375 158.558594 218.589844 156.609375 219.78125 C 157.128906 217.078125 154.109375 218 152.128906 217.96875 L 138.511719 217.761719 C 134.980469 217.761719 131.359375 217.421875 127.839844 217.601562 C 125.210938 217.738281 122.539062 218.738281 119.929688 218.71875 C 113.320312 218.71875 108.808594 215.871094 102.199219 217.410156 C 95.199219 219.03125 91.199219 222.238281 85.328125 226.28125 C 86.039062 227.109375 86.761719 227.941406 87.480469 228.761719 L 82.480469 232.269531 C 87.691406 230.519531 94.898438 226.53125 100.320312 226.800781 C 103.46875 226.960938 106.828125 227.921875 107.621094 230.238281 C 108.410156 232.558594 107.871094 236.671875 107.199219 238.921875 C 105.679688 244.039062 98.109375 251.730469 101.691406 257.53125 C 102.148438 258.28125 103.691406 258.371094 104.191406 259.171875 C 105.039062 260.519531 104.300781 263.46875 104.671875 265.039062 C 105.128906 267.039062 106.671875 271.230469 109.261719 271.109375 C 107.570312 267.289062 106.429688 264.609375 106.070312 260.53125 C 109.070312 261.359375 111.988281 268.53125 112.539062 270.988281 C 112.78125 272.070312 112.28125 273.589844 112.710938 274.449219 C 113.289062 275.609375 117.449219 277.910156 118.570312 278.378906 C 120.128906 279.03125 122.171875 278.378906 123.648438 279.070312 C 124.75 279.558594 126.550781 281.601562 127.648438 282.378906 C 128.46875 282.949219 129.5 282.828125 130.230469 283.46875 C 130.960938 284.109375 131.230469 285.570312 131.941406 286.359375 C 133.210938 287.71875 135.371094 288.558594 137.050781 289.511719 C 138 285.359375 140.25 290.941406 140.730469 292.101562 Z M 140.730469 292.101562 "/>
<path style=" stroke:none;fill-rule:nonzero;fill:rgb(0%,0%,0%);fill-opacity:1;" d="M 134.539062 272 C 138.609375 270.429688 141.011719 275.179688 145.070312 274.410156 C 140.710938 272.148438 139.140625 270.25 134.539062 272 Z M 134.539062 272 "/>
<path style=" stroke:none;fill-rule:nonzero;fill:rgb(0%,0%,0%);fill-opacity:1;" d="M 146 274.941406 C 148 275.148438 150.761719 274.640625 151.339844 276.769531 C 148.929688 277.199219 146.898438 277.898438 144.671875 276.550781 C 145.421875 276.550781 146.21875 276.25 146.96875 276.21875 Z M 146 274.941406 "/>
<path style=" stroke:none;fill-rule:nonzero;fill:rgb(0%,0%,0%);fill-opacity:1;" d="M 140.621094 276.21875 C 141.34375 276.335938 142.0625 276.496094 142.769531 276.691406 C 142.09375 277.058594 141.371094 277.328125 140.621094 277.5 Z M 140.621094 276.21875 "/>
<path style=" stroke:none;fill-rule:nonzero;fill:rgb(0%,0%,0%);fill-opacity:1;" d="M 152.410156 276.21875 C 152.925781 276.957031 153.890625 277.222656 154.710938 276.859375 C 154 276.648438 153.191406 276.390625 152.410156 276.21875 Z M 152.410156 276.21875 "/>
<path style=" stroke:none;fill-rule:nonzero;fill:rgb(0%,0%,0%);fill-opacity:1;" d="M 171.769531 237.828125 L 168.050781 241.390625 L 174.5 243 C 174.410156 242.070312 174.621094 240.230469 174.160156 239.378906 C 173.609375 238.320312 171.558594 240.328125 171.769531 237.828125 Z M 171.769531 237.828125 "/>
<path style=" stroke:none;fill-rule:nonzero;fill:rgb(0%,0%,0%);fill-opacity:1;" d="M 168.050781 219.671875 L 161.679688 222.511719 C 163.53125 223.171875 167.679688 225.578125 169.550781 225.289062 C 171.421875 225 174.449219 221.628906 176 220.46875 C 174 218.601562 171.191406 214.808594 168.609375 213.898438 C 165.042969 212.820312 161.175781 213.566406 158.269531 215.898438 C 158.96875 216.488281 159.988281 217.808594 160.871094 218.089844 C 161.480469 218.289062 162.550781 217.171875 163.191406 217.28125 C 165 217.589844 167.449219 217.800781 168.050781 219.671875 Z M 168.050781 219.671875 "/>
<path style=" stroke:none;fill-rule:nonzero;fill:rgb(0%,0%,0%);fill-opacity:1;" d="M 165.910156 218.789062 C 163.070312 219.609375 164.789062 220.488281 166.730469 219.410156 Z M 165.910156 218.789062 "/>
<path style=" stroke:none;fill-rule:nonzero;fill:rgb(0%,0%,0%);fill-opacity:1;" d="M 153.230469 218.789062 C 148.878906 215.789062 157.789062 212.511719 160.351562 212.511719 C 159.039062 213.269531 156.121094 214.320312 155.449219 215.511719 C 154.578125 217.121094 156.699219 219.769531 153.230469 218.789062 Z M 153.230469 218.789062 "/>
<path style=" stroke:none;fill-rule:nonzero;fill:rgb(0%,0%,0%);fill-opacity:1;" d="M 134.691406 218.789062 C 134.691406 217.589844 136.390625 215.570312 136.980469 214.480469 C 135.25 214.941406 132.699219 216.558594 131.980469 214.480469 C 135.121094 213.421875 136.820312 212.578125 139.921875 213.160156 C 143.539062 213.839844 144.589844 214.53125 148.289062 213.898438 C 147.621094 215.601562 146.78125 216.960938 147.289062 218.789062 Z M 134.691406 218.789062 "/>
<path style=" stroke:none;fill-rule:nonzero;fill:rgb(0%,0%,0%);fill-opacity:1;" d="M 139.730469 211.269531 C 144.238281 213.410156 146.730469 212.75 151.730469 212.179688 C 150.03125 211.800781 147.730469 210.519531 146.160156 210.320312 C 144.28125 210.078125 141.640625 211 139.730469 211.269531 Z M 139.730469 211.269531 "/>
<path style=" stroke:none;fill-rule:nonzero;fill:rgb(0%,0%,0%);fill-opacity:1;" d="M 152.640625 213.101562 C 151.652344 213.277344 150.679688 213.546875 149.738281 213.898438 C 150.035156 214.546875 150.4375 215.140625 150.929688 215.648438 L 155.078125 213.101562 C 154.265625 213.054688 153.453125 213.054688 152.640625 213.101562 Z M 152.640625 213.101562 "/>
<path style=" stroke:none;fill-rule:nonzero;fill:rgb(0%,0%,0%);fill-opacity:1;" d="M 154.191406 211.421875 C 156.128906 212.679688 161.800781 212.089844 164.128906 212.261719 C 167.339844 212.5 167.96875 212.261719 170.851562 210.828125 C 176.140625 208.171875 181.511719 207.289062 187.351562 206.011719 C 181.28125 206.011719 174.71875 205.300781 168.710938 206.011719 C 165.449219 206.398438 154.398438 207.570312 154.191406 211.421875 Z M 154.191406 211.421875 "/>
<path style=" stroke:none;fill-rule:nonzero;fill:rgb(0%,0%,0%);fill-opacity:1;" d="M 177.800781 210.851562 C 183.011719 209.238281 187.320312 207.980469 192.800781 207.621094 C 198.140625 207.242188 203.507812 207.460938 208.800781 208.269531 C 206.328125 210.78125 203.570312 214.890625 200.390625 216.410156 C 198.089844 217.511719 194.941406 217.03125 192.640625 218.128906 C 190.859375 218.988281 189.238281 221 187.75 222.28125 C 183.988281 225.550781 182.199219 221.910156 182.851562 218.03125 C 183.109375 216.429688 185.109375 213.660156 183.328125 212.03125 C 182.058594 211 179.21875 212.058594 177.800781 210.851562 Z M 177.800781 210.851562 "/>
</g>
</defs>
<g id="surface1">
<path style=" stroke:none;fill-rule:nonzero;fill:rgb(92.156863%,92.156863%,92.156863%);fill-opacity:1;" d="M 0 382.398438 L 500 382.398438 L 500 382.648438 L 0 382.648438 Z M 0 382.398438 "/>
<path style=" stroke:none;fill-rule:nonzero;fill:rgb(92.156863%,92.156863%,92.156863%);fill-opacity:1;" d="M 328.878906 390.339844 L 362 390.339844 L 362 390.589844 L 328.878906 390.589844 Z M 328.878906 390.339844 "/>
<path style=" stroke:none;fill-rule:nonzero;fill:rgb(92.156863%,92.156863%,92.156863%);fill-opacity:1;" d="M 399.78125 390.46875 L 440.921875 390.46875 L 440.921875 390.71875 L 399.78125 390.71875 Z M 399.78125 390.46875 "/>
<path style=" stroke:none;fill-rule:nonzero;fill:rgb(92.156863%,92.156863%,92.156863%);fill-opacity:1;" d="M 356.761719 397 L 375.949219 397 L 375.949219 397.25 L 356.761719 397.25 Z M 356.761719 397 "/>
<path style=" stroke:none;fill-rule:nonzero;fill:rgb(92.156863%,92.156863%,92.156863%);fill-opacity:1;" d="M 174 395.109375 L 225.671875 395.109375 L 225.671875 395.359375 L 174 395.359375 Z M 174 395.109375 "/>
<path style=" stroke:none;fill-rule:nonzero;fill:rgb(92.156863%,92.156863%,92.156863%);fill-opacity:1;" d="M 130.710938 395.109375 L 165.101562 395.109375 L 165.101562 395.359375 L 130.710938 395.359375 Z M 130.710938 395.109375 "/>
<path style=" stroke:none;fill-rule:nonzero;fill:rgb(92.156863%,92.156863%,92.156863%);fill-opacity:1;" d="M 63.289062 390.890625 L 110.128906 390.890625 L 110.128906 391.140625 L 63.289062 391.140625 Z M 63.289062 390.890625 "/>
<path style=" stroke:none;fill-rule:nonzero;fill:rgb(92.156863%,92.156863%,92.156863%);fill-opacity:1;" d="M 237 337.800781 L 43.910156 337.800781 C 40.761719 337.792969 38.210938 335.238281 38.210938 332.089844 L 38.210938 60.660156 C 38.238281 57.53125 40.78125 55.003906 43.910156 55 L 237 55 C 240.152344 55 242.710938 57.554688 242.710938 60.710938 L 242.710938 332.089844 C 242.710938 335.242188 240.152344 337.800781 237 337.800781 Z M 43.910156 55.199219 C 40.898438 55.207031 38.460938 57.648438 38.460938 60.660156 L 38.460938 332.089844 C 38.460938 335.101562 40.898438 337.542969 43.910156 337.550781 L 237 337.550781 C 240.011719 337.542969 242.453125 335.101562 242.460938 332.089844 L 242.460938 60.660156 C 242.453125 57.648438 240.011719 55.207031 237 55.199219 Z M 43.910156 55.199219 "/>
<path style=" stroke:none;fill-rule:nonzero;fill:rgb(92.156863%,92.156863%,92.156863%);fill-opacity:1;" d="M 453.308594 337.800781 L 260.210938 337.800781 C 257.058594 337.792969 254.503906 335.242188 254.5 332.089844 L 254.5 60.660156 C 254.53125 57.527344 257.078125 55.003906 260.210938 55 L 453.308594 55 C 456.4375 55.011719 458.972656 57.535156 459 60.660156 L 459 332.089844 C 459 335.234375 456.457031 337.789062 453.308594 337.800781 Z M 260.210938 55.199219 C 257.195312 55.207031 254.753906 57.648438 254.75 60.660156 L 254.75 332.089844 C 254.753906 335.101562 257.195312 337.542969 260.210938 337.550781 L 453.308594 337.550781 C 456.324219 337.542969 458.765625 335.101562 458.769531 332.089844 L 458.769531 60.660156 C 458.765625 57.648438 456.324219 55.207031 453.308594 55.199219 Z M 260.210938 55.199219 "/>
<path style=" stroke:none;fill-rule:nonzero;fill:rgb(98.039216%,98.039216%,98.039216%);fill-opacity:1;" d="M 278.558594 135.628906 C 280 133.429688 282.429688 132.074219 285.058594 132.011719 C 285.800781 131.988281 286.515625 132.257812 287.058594 132.761719 C 290.929688 130.148438 295.570312 128.539062 299.589844 128.761719 C 301.34375 128.769531 303.054688 129.296875 304.511719 130.269531 C 308.511719 126.320312 313.910156 123.53125 318.101562 123.53125 C 320.46875 123.53125 322.101562 124.429688 322.800781 125.941406 C 327.089844 123.300781 331.648438 121.671875 335.488281 121.671875 C 341.628906 121.671875 344.171875 125.800781 342.421875 131.601562 C 343.570312 132.691406 348.609375 134.21875 348.660156 136.050781 L 278.339844 136.050781 Z M 278.558594 135.628906 "/>
<path style=" stroke:none;fill-rule:nonzero;fill:rgb(98.039216%,98.039216%,98.039216%);fill-opacity:1;" d="M 63.289062 115.238281 C 65.335938 112.125 68.773438 110.210938 72.5 110.109375 C 73.527344 110.097656 74.519531 110.480469 75.269531 111.179688 C 80.761719 107.480469 87.328125 105.179688 93.039062 105.449219 C 95.53125 105.460938 97.964844 106.199219 100.039062 107.578125 C 105.671875 102 113.320312 98 119.25 98 C 122.621094 98 124.878906 99.28125 125.910156 101.421875 C 131.988281 97.671875 138.449219 95.421875 143.910156 95.421875 C 152.601562 95.421875 156.191406 101.269531 153.730469 109.488281 C 155.359375 111.03125 162.488281 113.199219 162.558594 115.789062 L 63 115.789062 C 63.078125 115.601562 63.171875 115.421875 63.289062 115.238281 Z M 63.289062 115.238281 "/>
<path style=" stroke:none;fill-rule:nonzero;fill:rgb(98.039216%,98.039216%,98.039216%);fill-opacity:1;" d="M 171.101562 90.101562 C 172.222656 88.394531 174.109375 87.34375 176.148438 87.289062 C 176.710938 87.28125 177.257812 87.488281 177.671875 87.871094 C 180.515625 85.847656 183.917969 84.75 187.410156 84.730469 C 188.769531 84.742188 190.097656 85.148438 191.230469 85.898438 C 194.339844 82.839844 198.53125 80.671875 201.789062 80.671875 C 203.628906 80.671875 204.871094 81.371094 205.441406 82.539062 C 208.769531 80.488281 212.308594 79.21875 215.300781 79.21875 C 220.070312 79.21875 222.039062 82.429688 220.691406 86.941406 C 221.578125 87.789062 225.5 88.941406 225.53125 90.398438 L 170.929688 90.398438 C 171 90.300781 171 90.199219 171.101562 90.101562 Z M 171.101562 90.101562 "/>
<path style=" stroke:none;fill-rule:nonzero;fill:rgb(98.039216%,98.039216%,98.039216%);fill-opacity:1;" d="M 374.609375 119.550781 C 375.230469 119.546875 375.816406 119.832031 376.199219 120.320312 C 379.449219 117.640625 383.300781 116 386.601562 116.191406 C 388.074219 116.203125 389.496094 116.75 390.601562 117.730469 C 393.988281 113.730469 398.488281 110.851562 401.929688 110.851562 C 403.609375 110.707031 405.175781 111.71875 405.730469 113.308594 C 409.320312 110.601562 413.109375 108.941406 416.269531 108.941406 C 420.191406 108.941406 422.269531 111.5 422.269531 115.421875 C 423.734375 114.359375 425.464844 113.734375 427.269531 113.609375 C 428.167969 113.546875 429.054688 113.871094 429.695312 114.503906 C 430.335938 115.140625 430.675781 116.019531 430.621094 116.921875 L 431.171875 116.921875 C 434.410156 117.261719 435.980469 119.921875 434.828125 122.921875 L 369.359375 122.921875 C 370.53125 120.921875 372.808594 119.449219 374.609375 119.550781 Z M 374.609375 119.550781 "/>
<path style=" stroke:none;fill-rule:nonzero;fill:rgb(92.156863%,92.156863%,92.156863%);fill-opacity:1;" d="M 187.320312 155 C 188.089844 155.179688 188.839844 155.429688 189.558594 155.75 C 190.308594 156.082031 191.023438 156.492188 191.691406 156.96875 C 192.234375 157.363281 192.734375 157.816406 193.179688 158.320312 C 194.039062 157.09375 195.011719 155.949219 196.089844 154.910156 C 196.671875 154.347656 197.289062 153.824219 197.941406 153.339844 C 198.527344 152.886719 199.160156 152.492188 199.828125 152.171875 L 198.148438 154.28125 C 197.601562 154.988281 197.050781 155.679688 196.511719 156.390625 C 195.96875 157.101562 195.511719 157.820312 194.949219 158.539062 C 194.390625 159.261719 193.949219 160.03125 193.488281 160.789062 L 192.929688 161.699219 L 192.441406 161.101562 C 191.921875 160.484375 191.339844 159.921875 190.710938 159.421875 C 190.089844 158.898438 189.449219 158.421875 188.808594 157.921875 C 187.464844 156.925781 186.171875 155.855469 184.941406 154.71875 C 185.742188 154.707031 186.542969 154.800781 187.320312 155 Z M 187.320312 155 "/>
<path style=" stroke:none;fill-rule:nonzero;fill:rgb(92.156863%,92.156863%,92.156863%);fill-opacity:1;" d="M 304.269531 88.460938 C 305.039062 88.640625 305.792969 88.894531 306.519531 89.210938 C 307.269531 89.539062 307.976562 89.949219 308.640625 90.429688 C 309.183594 90.824219 309.683594 91.277344 310.128906 91.78125 C 310.992188 90.550781 311.96875 89.410156 313.050781 88.371094 C 313.632812 87.808594 314.253906 87.285156 314.898438 86.800781 C 315.488281 86.347656 316.121094 85.957031 316.789062 85.628906 L 315.101562 87.738281 C 314.550781 88.449219 314 89.140625 313.46875 89.851562 C 312.941406 90.558594 312.410156 91.28125 311.898438 92 C 311.390625 92.71875 310.898438 93.488281 310.441406 94.25 L 309.890625 95.160156 L 309.398438 94.558594 C 308.875 93.949219 308.296875 93.386719 307.671875 92.878906 C 307.050781 92.359375 306.410156 91.878906 305.761719 91.378906 C 304.480469 90.378906 303.160156 89.378906 301.898438 88.191406 C 302.699219 88.167969 303.496094 88.257812 304.269531 88.460938 Z M 304.269531 88.460938 "/>
<path style=" stroke:none;fill-rule:nonzero;fill:rgb(92.156863%,92.156863%,92.156863%);fill-opacity:1;" d="M 135.140625 144.511719 C 136.28125 144.785156 137.394531 145.160156 138.46875 145.628906 C 139.582031 146.121094 140.640625 146.730469 141.628906 147.441406 C 142.433594 148.027344 143.175781 148.695312 143.839844 149.441406 C 145.121094 147.621094 146.570312 145.925781 148.171875 144.378906 C 149.039062 143.542969 149.960938 142.761719 150.929688 142.039062 C 151.804688 141.375 152.742188 140.792969 153.730469 140.308594 L 151.230469 143.449219 C 150.410156 144.449219 149.589844 145.519531 148.800781 146.578125 C 148.011719 147.640625 147.230469 148.710938 146.46875 149.78125 C 145.710938 150.851562 145 152 144.300781 153.121094 L 143.480469 154.46875 L 142.761719 153.578125 C 141.976562 152.667969 141.113281 151.832031 140.179688 151.078125 C 139.261719 150.308594 138.308594 149.578125 137.351562 148.851562 C 135.355469 147.371094 133.441406 145.789062 131.609375 144.109375 C 132.800781 144.082031 133.988281 144.214844 135.140625 144.511719 Z M 135.140625 144.511719 "/>
<path style=" stroke:none;fill-rule:nonzero;fill:rgb(92.156863%,92.156863%,92.156863%);fill-opacity:1;" d="M 201.890625 122.148438 C 202.75 122.355469 203.589844 122.636719 204.398438 122.988281 C 205.234375 123.363281 206.027344 123.820312 206.769531 124.351562 C 207.382812 124.789062 207.941406 125.296875 208.441406 125.859375 C 209.398438 124.488281 210.488281 123.214844 211.691406 122.050781 C 212.34375 121.425781 213.035156 120.839844 213.761719 120.300781 C 214.417969 119.792969 215.125 119.355469 215.871094 118.988281 L 214 121.351562 C 213.378906 122.140625 212.769531 122.910156 212.171875 123.699219 C 211.570312 124.488281 210.988281 125.308594 210.421875 126.109375 C 209.851562 126.910156 209.308594 127.769531 208.789062 128.621094 L 208.171875 129.621094 L 207.628906 128.960938 C 207.042969 128.273438 206.394531 127.644531 205.691406 127.078125 C 205 126.5 204.289062 125.949219 203.558594 125.398438 C 202.058594 124.289062 200.621094 123.097656 199.25 121.828125 C 200.140625 121.820312 201.027344 121.925781 201.890625 122.148438 Z M 201.890625 122.148438 "/>
<path style=" stroke:none;fill-rule:nonzero;fill:rgb(92.156863%,92.156863%,92.156863%);fill-opacity:1;" d="M 377.691406 96.921875 C 378.550781 97.125 379.390625 97.40625 380.199219 97.761719 C 381.03125 98.136719 381.824219 98.589844 382.570312 99.121094 C 383.179688 99.558594 383.734375 100.066406 384.230469 100.628906 C 385.191406 99.257812 386.28125 97.980469 387.488281 96.820312 C 388.140625 96.1875 388.832031 95.601562 389.558594 95.058594 C 390.21875 94.558594 390.925781 94.121094 391.671875 93.761719 L 389.789062 96.121094 C 389.171875 96.910156 388.558594 97.679688 387.960938 98.46875 C 387.359375 99.261719 386.78125 100.070312 386.210938 100.878906 C 385.640625 101.691406 385.101562 102.539062 384.578125 103.390625 L 383.960938 104.390625 L 383.421875 103.71875 C 382.832031 103.039062 382.183594 102.414062 381.480469 101.851562 C 380.789062 101.269531 380.070312 100.71875 379.351562 100.171875 C 377.839844 99.0625 376.386719 97.871094 375 96.609375 C 375.90625 96.59375 376.8125 96.695312 377.691406 96.921875 Z M 377.691406 96.921875 "/>
<path style=" stroke:none;fill-rule:nonzero;fill:rgb(96.078431%,96.078431%,96.078431%);fill-opacity:1;" d="M 417.058594 381.671875 C 416.058594 377.71875 411.460938 374.671875 406.808594 374.859375 C 405.238281 374.890625 403.714844 375.378906 402.421875 376.269531 C 396.324219 371.125 388.542969 368.414062 380.570312 368.660156 C 376.8125 368.761719 373.128906 369.734375 369.808594 371.5 C 364.71875 364.070312 356.058594 358.808594 347.808594 358.808594 C 343.65625 358.640625 339.636719 360.300781 336.808594 363.351562 C 330.21875 358.351562 322.398438 355.300781 314.808594 355.300781 C 302.71875 355.300781 294.808594 363.078125 294.101562 374.011719 C 291.050781 376.070312 280.03125 378.949219 278.648438 382.398438 L 417.21875 382.398438 C 417.171875 382.160156 417.128906 381.921875 417.058594 381.671875 Z M 417.058594 381.671875 "/>
<path style=" stroke:none;fill-rule:nonzero;fill:rgb(98.039216%,98.039216%,98.039216%);fill-opacity:1;" d="M 214.210938 376.5 C 212.941406 376.546875 211.730469 377.023438 210.769531 377.851562 C 206.660156 373.082031 200.625 370.410156 194.328125 370.570312 C 191.339844 370.703125 188.441406 371.640625 185.941406 373.289062 C 182.371094 366.191406 175.941406 361.160156 169.601562 361.160156 C 166.1875 361.125 162.972656 362.746094 160.96875 365.511719 C 156.140625 360.730469 150.261719 357.808594 144.429688 357.808594 C 137.199219 357.808594 131.691406 362.300781 129.121094 369.230469 C 126.898438 367.277344 124.074219 366.148438 121.121094 366.03125 C 117.382812 366.035156 114.046875 368.367188 112.75 371.871094 C 112.414062 371.871094 112.082031 371.890625 111.75 371.929688 C 105.550781 372.519531 100.921875 377.128906 101.039062 382.398438 L 221.671875 382.398438 C 220.867188 378.933594 217.769531 376.484375 214.210938 376.5 Z M 214.210938 376.5 "/>
<path style=" stroke:none;fill-rule:nonzero;fill:rgb(94.117647%,94.117647%,94.117647%);fill-opacity:1;" d="M 363.628906 344.308594 L 363.28125 329.808594 L 355.839844 310.261719 L 362.808594 310.261719 L 362.28125 288.328125 L 383.941406 288.328125 L 386.058594 327.890625 L 391.300781 328.769531 L 388.601562 349.738281 L 387.238281 349.820312 L 388.980469 382.398438 L 364.558594 382.398438 L 364.179688 366.820312 L 361.140625 344.050781 Z M 363.628906 344.308594 "/>
<path style=" stroke:none;fill-rule:nonzero;fill:rgb(90.196078%,90.196078%,90.196078%);fill-opacity:1;" d="M 435.28125 251.898438 C 438.640625 244.171875 436.5 238.621094 430.28125 236.128906 C 427.859375 226.578125 411.148438 215.929688 389.28125 210.78125 C 364.441406 204.921875 347.070312 210.378906 339.121094 218.429688 C 333.777344 217.632812 328.324219 218.597656 323.578125 221.179688 C 314.980469 225.640625 309.660156 233.050781 309.628906 239.578125 C 303.488281 242.191406 301.511719 247.851562 305.101562 255.699219 C 307.433594 260.386719 311.238281 264.183594 315.929688 266.511719 C 315.84375 269.261719 316.449219 271.992188 317.691406 274.449219 C 318.433594 276.046875 319.386719 277.539062 320.519531 278.890625 C 317.710938 281.949219 317.339844 286.53125 319.980469 292.289062 C 322.449219 297.679688 328.160156 302.988281 337.148438 305.648438 C 340.570312 312.109375 352.289062 316.878906 366.230469 316.878906 C 380.839844 316.878906 393.019531 311.640625 395.75 304.710938 C 397.519531 304.871094 399.328125 304.960938 401.191406 304.960938 C 417.808594 304.960938 427.789062 297.46875 431.28125 289.828125 C 433.28125 285.519531 433.550781 281.828125 432.390625 279.019531 C 436.617188 276.691406 440.027344 273.125 442.171875 268.800781 C 446.109375 260 443.191406 254 435.28125 251.898438 Z M 435.28125 251.898438 "/>
<path style=" stroke:none;fill-rule:nonzero;fill:rgb(94.117647%,94.117647%,94.117647%);fill-opacity:1;" d="M 181.039062 282.28125 L 166.71875 282.28125 L 161.128906 296.78125 L 156.519531 296.78125 L 156.140625 309.699219 L 152.441406 319.289062 L 150.859375 319.109375 L 148.371094 328.109375 L 146.800781 319.359375 L 150.949219 295.929688 L 142.589844 295.929688 L 137.871094 269.628906 L 111.910156 269.628906 L 119.03125 317.058594 L 112.960938 318.109375 L 121.308594 343.25 L 122.96875 343.339844 L 128.828125 382.398438 L 158.109375 382.398438 L 154.761719 363.71875 L 153.71875 348.988281 L 166.539062 322.921875 L 167.46875 322.871094 L 174.941406 309.011719 L 171.710938 308.429688 Z M 181.039062 282.28125 "/>
<path style=" stroke:none;fill-rule:nonzero;fill:rgb(96.078431%,96.078431%,96.078431%);fill-opacity:1;" d="M 79 226 C 75 216.730469 77.539062 210.078125 85 207.089844 C 87.910156 195.648438 107.929688 182.890625 134.179688 176.699219 C 163.96875 169.699219 184.78125 176.230469 194.320312 185.878906 C 200.734375 184.898438 207.296875 186.042969 213 189.140625 C 223.308594 194.488281 229.691406 203.371094 229.71875 211.199219 C 237.089844 214.328125 239.46875 221.109375 235.148438 230.53125 C 232.960938 235.320312 228.640625 240.050781 222.148438 243.480469 C 222.234375 246.78125 221.496094 250.054688 220 253 C 219.105469 254.914062 217.96875 256.703125 216.609375 258.320312 C 219.96875 261.988281 220.410156 267.46875 217.25 274.378906 C 214.25 280.839844 207.449219 287.210938 196.671875 290.378906 C 192.570312 298.128906 178.519531 303.839844 161.808594 303.839844 C 144.289062 303.839844 129.699219 297.558594 126.421875 289.25 C 124.308594 289.441406 122.128906 289.550781 119.910156 289.550781 C 99.980469 289.550781 88.019531 280.550781 83.828125 271.421875 C 81.460938 266.238281 81.121094 261.871094 82.5 258.421875 C 77.445312 255.644531 73.359375 251.386719 70.800781 246.21875 C 66 235.71875 69.5 228.488281 79 226 Z M 79 226 "/>
<path style=" stroke:none;fill-rule:nonzero;fill:rgb(96.078431%,96.078431%,96.078431%);fill-opacity:1;" d="M 443.890625 416.238281 C 443.890625 409.988281 357.082031 404.921875 250 404.921875 C 142.917969 404.921875 56.109375 409.988281 56.109375 416.238281 C 56.109375 422.492188 142.917969 427.558594 250 427.558594 C 357.082031 427.558594 443.890625 422.492188 443.890625 416.238281 Z M 443.890625 416.238281 "/>
<path style=" stroke:none;fill-rule:nonzero;fill:rgb(100%,70.980392%,45.098039%);fill-opacity:1;" d="M 327.539062 184.128906 C 327.378906 186.898438 327.058594 189.441406 326.699219 192.128906 C 326.339844 194.820312 325.839844 197.328125 325.269531 199.910156 C 324.699219 202.488281 324.078125 205.078125 323.269531 207.628906 C 322.488281 210.203125 321.566406 212.730469 320.5 215.199219 L 319.660156 217.070312 C 319.539062 217.351562 319.308594 217.761719 319.128906 218.070312 C 318.949219 218.378906 318.738281 218.75 318.539062 219.070312 C 317.761719 220.289062 316.890625 221.449219 315.941406 222.539062 C 314.171875 224.574219 312.269531 226.484375 310.238281 228.261719 C 306.316406 231.714844 302.140625 234.878906 297.75 237.71875 L 295.210938 234.441406 C 297 232.710938 298.820312 230.921875 300.578125 229.140625 C 302.339844 227.359375 304.078125 225.539062 305.730469 223.699219 C 307.359375 221.914062 308.898438 220.042969 310.339844 218.101562 C 310.992188 217.203125 311.589844 216.265625 312.121094 215.289062 C 312.21875 215.070312 312.351562 214.839844 312.441406 214.628906 C 312.546875 214.40625 312.644531 214.175781 312.730469 213.941406 L 313.371094 212.269531 C 314.992188 207.679688 316.257812 202.96875 317.148438 198.179688 C 317.628906 195.769531 317.980469 193.320312 318.339844 190.878906 C 318.699219 188.441406 318.96875 185.878906 319.191406 183.601562 Z M 327.539062 184.128906 "/>
<path style=" stroke:none;fill-rule:nonzero;fill:rgb(25.098039%,48.235294%,100%);fill-opacity:1;" d="M 321.839844 174.160156 C 318.46875 175.011719 316.109375 188.898438 316.109375 188.898438 L 325.410156 195.21875 C 325.410156 195.21875 334.320312 181.21875 331.730469 177.511719 C 329 173.640625 326.769531 172.898438 321.839844 174.160156 Z M 321.839844 174.160156 "/>
<use xlink:href="#surface5" mask="url(#mask0)"/>
<path style=" stroke:none;fill-rule:nonzero;fill:rgb(100%,70.980392%,45.098039%);fill-opacity:1;" d="M 296.75 233.261719 L 287.46875 233.929688 L 293.011719 240.140625 C 293.011719 240.140625 298.140625 238.96875 299.011719 235.691406 Z M 296.75 233.261719 "/>
<path style=" stroke:none;fill-rule:nonzero;fill:rgb(100%,70.980392%,45.098039%);fill-opacity:1;" d="M 282.351562 237.21875 L 286.148438 243.070312 L 293.011719 240.140625 L 287.46875 233.929688 Z M 282.351562 237.21875 "/>
<path style=" stroke:none;fill-rule:nonzero;fill:rgb(100%,70.980392%,45.098039%);fill-opacity:1;" d="M 340.101562 407.878906 L 331.910156 407.878906 L 331.371094 388.921875 L 339.550781 388.921875 Z M 340.101562 407.878906 "/>
<path style=" stroke:none;fill-rule:nonzero;fill:rgb(100%,70.980392%,45.098039%);fill-opacity:1;" d="M 396.71875 383.75 L 389.140625 386.839844 L 379.539062 370.289062 L 387.121094 367.191406 Z M 396.71875 383.75 "/>
<path style=" stroke:none;fill-rule:nonzero;fill:rgb(14.901961%,19.607843%,21.960784%);fill-opacity:1;" d="M 387.710938 385.710938 L 395.621094 381.011719 C 395.902344 380.835938 396.265625 380.902344 396.46875 381.160156 L 401.089844 386.878906 C 401.3125 387.179688 401.394531 387.5625 401.320312 387.925781 C 401.246094 388.292969 401.019531 388.609375 400.699219 388.800781 C 397.921875 390.390625 396.488281 391.019531 393.011719 393.078125 C 390.871094 394.351562 385.839844 398.710938 382.890625 400.46875 C 379.941406 402.230469 378.039062 399.390625 379.121094 398.398438 C 382.605469 395.25 385.242188 391.273438 386.789062 386.839844 C 386.957031 386.367188 387.28125 385.96875 387.710938 385.710938 Z M 387.710938 385.710938 "/>
<path style=" stroke:none;fill-rule:nonzero;fill:rgb(14.901961%,19.607843%,21.960784%);fill-opacity:1;" d="M 331.628906 406.929688 L 340.828125 406.929688 C 341.160156 406.917969 341.445312 407.160156 341.480469 407.488281 L 342.480469 414.769531 C 342.519531 415.140625 342.398438 415.511719 342.148438 415.789062 C 341.898438 416.066406 341.542969 416.222656 341.171875 416.21875 C 337.960938 416.171875 336.421875 415.980469 332.371094 415.980469 C 329.878906 415.980469 324.738281 416.238281 321.300781 416.238281 C 317.859375 416.238281 317.679688 412.839844 319.109375 412.53125 C 325.53125 411.148438 328.050781 409.25 330.210938 407.429688 C 330.609375 407.101562 331.113281 406.921875 331.628906 406.929688 Z M 331.628906 406.929688 "/>
<use xlink:href="#surface8" mask="url(#mask1)"/>
<path style=" stroke:none;fill-rule:nonzero;fill:rgb(25.098039%,48.235294%,100%);fill-opacity:1;" d="M 321.839844 174.160156 C 321.839844 174.160156 317.941406 175.53125 325.761719 223.570312 L 359 223.570312 C 358.441406 210.039062 358.421875 201.691406 364.890625 173.921875 C 360.234375 172.957031 355.515625 172.332031 350.769531 172.058594 C 345.742188 171.699219 340.695312 171.699219 335.671875 172.058594 C 329.199219 172.648438 321.839844 174.160156 321.839844 174.160156 Z M 321.839844 174.160156 "/>
<path style=" stroke:none;fill-rule:nonzero;fill:rgb(100%,100%,100%);fill-opacity:1;" d="M 350.78125 172.058594 C 345.753906 171.699219 340.707031 171.699219 335.679688 172.058594 C 333.871094 172.21875 331.988281 172.460938 330.21875 172.710938 C 329.449219 175.628906 329.601562 179.710938 332.578125 185.050781 C 333.566406 186.8125 335.710938 187.5625 337.578125 186.800781 C 340 185.800781 352.25 180.648438 356.191406 174.269531 L 357.191406 172.621094 C 355.210938 172.378906 353 172.171875 350.78125 172.058594 Z M 350.78125 172.058594 "/>
<path style=" stroke:none;fill-rule:nonzero;fill:rgb(14.901961%,19.607843%,21.960784%);fill-opacity:1;" d="M 364.898438 143.71875 C 364.898438 155.71875 355.019531 163.640625 344.550781 168.648438 C 333.71875 173.828125 322.820312 158.921875 322.820312 146.921875 C 322.816406 134.914062 332.546875 125.179688 344.550781 125.179688 C 356.550781 125.179688 364.898438 131.71875 364.898438 143.71875 Z M 364.898438 143.71875 "/>
<path style=" stroke:none;fill-rule:nonzero;fill:rgb(14.901961%,19.607843%,21.960784%);fill-opacity:1;" d="M 367.660156 129.851562 C 367.660156 134.398438 364.5 139.300781 359.941406 139.300781 C 355.390625 139.300781 351.699219 135.609375 351.699219 131.058594 C 351.699219 126.507812 355.390625 122.820312 359.941406 122.820312 C 364.5 122.820312 367.660156 125.300781 367.660156 129.851562 Z M 367.660156 129.851562 "/>
<path style=" stroke:none;fill-rule:nonzero;fill:rgb(100%,70.980392%,45.098039%);fill-opacity:1;" d="M 349.289062 155.058594 C 348.289062 159.910156 347.378906 168.820312 350.78125 172.058594 C 350.78125 172.058594 349.449219 176.988281 340.429688 176.988281 C 330.5 176.988281 335.679688 172.058594 335.679688 172.058594 C 341.101562 170.761719 340.960938 166.738281 340.019531 162.96875 Z M 349.289062 155.058594 "/>
<path style=" stroke:none;fill-rule:nonzero;fill:rgb(100%,70.980392%,45.098039%);fill-opacity:1;" d="M 350.78125 172.058594 C 345.753906 171.699219 340.707031 171.699219 335.679688 172.058594 L 334.679688 172.160156 C 333.65625 174.25 333.5 176.65625 334.238281 178.859375 C 334.550781 180.007812 335.355469 180.957031 336.433594 181.449219 C 337.515625 181.945312 338.757812 181.933594 339.828125 181.421875 C 344.011719 179.421875 350.488281 175.851562 352.75 172.191406 C 352.109375 172.140625 351.441406 172.089844 350.78125 172.058594 Z M 350.78125 172.058594 "/>
<use xlink:href="#surface11" mask="url(#mask2)"/>
<path style=" stroke:none;fill-rule:nonzero;fill:rgb(100%,70.980392%,45.098039%);fill-opacity:1;" d="M 350.078125 142.460938 C 351.589844 150.460938 352.398438 153.789062 349.449219 158.828125 C 345.011719 166.410156 334.871094 166.519531 331.011719 159.140625 C 327.53125 152.511719 325.648438 140.558594 332.558594 135.488281 C 335.644531 133.199219 339.695312 132.667969 343.265625 134.089844 C 346.832031 135.507812 349.414062 138.675781 350.078125 142.460938 Z M 350.078125 142.460938 "/>
<path style=" stroke:none;fill-rule:nonzero;fill:rgb(14.901961%,19.607843%,21.960784%);fill-opacity:1;" d="M 325.761719 223.570312 C 325.761719 223.570312 319.300781 286.640625 319.839844 311.570312 C 320.390625 337.570312 329.910156 396.761719 329.910156 396.761719 L 341 396.761719 C 341 396.761719 339.25 339.050781 340.230469 313.550781 C 341.289062 285.738281 350.128906 223.550781 350.128906 223.550781 Z M 325.761719 223.570312 "/>
<path style=" stroke:none;fill-rule:nonzero;fill:rgb(25.098039%,48.235294%,100%);fill-opacity:1;" d="M 341.941406 397.199219 L 328.949219 397.199219 L 328 393.058594 L 342.539062 392.550781 Z M 341.941406 397.199219 "/>
<use xlink:href="#surface14" mask="url(#mask3)"/>
<path style=" stroke:none;fill-rule:nonzero;fill:rgb(14.901961%,19.607843%,21.960784%);fill-opacity:1;" d="M 334.539062 223.570312 C 334.539062 223.570312 342.070312 289.140625 347.761719 310.191406 C 354.511719 335.191406 381.949219 377.820312 381.949219 377.820312 L 392.28125 373.601562 C 392.28125 373.601562 374.570312 325.050781 369.398438 311.878906 C 358.398438 283.78125 367.820312 241.878906 359.011719 223.570312 Z M 334.539062 223.570312 "/>
<path style=" stroke:none;fill-rule:nonzero;fill:rgb(25.098039%,48.235294%,100%);fill-opacity:1;" d="M 393.691406 373.648438 L 380.871094 378.890625 L 377.859375 375.410156 L 392.671875 368.578125 Z M 393.691406 373.648438 "/>
<path style=" stroke:none;fill-rule:nonzero;fill:rgb(14.901961%,19.607843%,21.960784%);fill-opacity:1;" d="M 338.070312 147.71875 C 338.230469 148.359375 338.019531 148.960938 337.609375 149.070312 C 337.199219 149.179688 336.71875 148.738281 336.550781 148.070312 C 336.378906 147.398438 336.601562 146.828125 337.019531 146.71875 C 337.441406 146.609375 337.910156 147.078125 338.070312 147.71875 Z M 338.070312 147.71875 "/>
<path style=" stroke:none;fill-rule:nonzero;fill:rgb(14.901961%,19.607843%,21.960784%);fill-opacity:1;" d="M 330.828125 149.550781 C 331 150.191406 330.828125 150.800781 330.371094 150.898438 C 329.910156 151 329.480469 150.570312 329.320312 149.898438 C 329.160156 149.230469 329.320312 148.660156 329.78125 148.550781 C 330.238281 148.441406 330.671875 148.910156 330.828125 149.550781 Z M 330.828125 149.550781 "/>
<path style=" stroke:none;fill-rule:nonzero;fill:rgb(14.901961%,19.607843%,21.960784%);fill-opacity:1;" d="M 330 148.570312 L 328.351562 148.570312 C 328.351562 148.570312 329.421875 149.519531 330 148.570312 Z M 330 148.570312 "/>
<path style=" stroke:none;fill-rule:nonzero;fill:rgb(92.941176%,53.72549%,24.313725%);fill-opacity:1;" d="M 333.359375 150.140625 C 333.160156 151.742188 332.738281 153.3125 332.109375 154.800781 C 332.890625 155.109375 333.765625 155.050781 334.5 154.648438 Z M 333.359375 150.140625 "/>
<path style=" stroke:none;fill-rule:nonzero;fill:rgb(14.901961%,19.607843%,21.960784%);fill-opacity:1;" d="M 338.628906 156.28125 C 338.328125 156.402344 338.015625 156.507812 337.699219 156.589844 C 337.597656 156.609375 337.492188 156.550781 337.460938 156.449219 C 337.433594 156.34375 337.496094 156.238281 337.601562 156.210938 C 339.21875 155.835938 340.566406 154.726562 341.238281 153.210938 C 341.277344 153.109375 341.386719 153.058594 341.484375 153.09375 C 341.585938 153.132812 341.636719 153.242188 341.601562 153.339844 C 341.042969 154.675781 339.972656 155.738281 338.628906 156.28125 Z M 338.628906 156.28125 "/>
<path style=" stroke:none;fill-rule:nonzero;fill:rgb(14.901961%,19.607843%,21.960784%);fill-opacity:1;" d="M 329.828125 136.5 C 329.828125 136.5 340.53125 147.5 351.199219 147.5 C 359.980469 147.5 359.691406 132.78125 348.078125 132.171875 C 336.46875 131.558594 324.71875 128.421875 329.828125 136.5 Z M 329.828125 136.5 "/>
<path style=" stroke:none;fill-rule:nonzero;fill:rgb(100%,70.980392%,45.098039%);fill-opacity:1;" d="M 354.050781 149.179688 C 353.847656 150.738281 353.035156 152.152344 351.789062 153.109375 C 350.128906 154.371094 348.539062 153.109375 348.359375 151.109375 C 348.199219 149.339844 348.871094 146.550781 350.839844 146.109375 C 351.710938 145.914062 352.621094 146.167969 353.265625 146.785156 C 353.910156 147.402344 354.203125 148.300781 354.050781 149.179688 Z M 354.050781 149.179688 "/>
<path style=" stroke:none;fill-rule:nonzero;fill:rgb(14.901961%,19.607843%,21.960784%);fill-opacity:1;" d="M 339.5 143.808594 C 339.382812 143.929688 339.199219 143.960938 339.050781 143.878906 C 337.460938 143.058594 335.398438 144.109375 335.378906 144.121094 C 335.191406 144.21875 334.960938 144.148438 334.859375 143.960938 C 334.761719 143.773438 334.832031 143.539062 335.019531 143.441406 C 335.121094 143.378906 337.460938 142.191406 339.410156 143.191406 C 339.5 143.238281 339.570312 143.320312 339.597656 143.417969 C 339.628906 143.515625 339.617188 143.621094 339.570312 143.710938 C 339.550781 143.746094 339.527344 143.78125 339.5 143.808594 Z M 339.5 143.808594 "/>
<path style=" stroke:none;fill-rule:nonzero;fill:rgb(14.901961%,19.607843%,21.960784%);fill-opacity:1;" d="M 327.078125 145.46875 C 326.953125 145.523438 326.808594 145.503906 326.699219 145.421875 C 326.527344 145.292969 326.488281 145.054688 326.609375 144.878906 C 327.328125 143.855469 328.5 143.238281 329.75 143.230469 C 329.960938 143.246094 330.121094 143.429688 330.109375 143.640625 C 330.109375 143.742188 330.0625 143.839844 329.988281 143.910156 C 329.914062 143.980469 329.8125 144.015625 329.710938 144.011719 C 328.722656 144.03125 327.804688 144.527344 327.238281 145.339844 C 327.199219 145.398438 327.144531 145.441406 327.078125 145.46875 Z M 327.078125 145.46875 "/>
<path style=" stroke:none;fill-rule:nonzero;fill:rgb(25.098039%,48.235294%,100%);fill-opacity:1;" d="M 384.570312 388.808594 L 384.46875 388.808594 C 384.097656 388.722656 383.796875 388.449219 383.671875 388.089844 C 383.5625 387.871094 383.585938 387.613281 383.730469 387.421875 C 384.320312 386.558594 387.28125 386.671875 387.621094 386.691406 C 387.695312 386.691406 387.765625 386.738281 387.789062 386.808594 C 387.820312 386.882812 387.800781 386.96875 387.738281 387.019531 C 387 387.75 385.578125 388.929688 384.570312 388.808594 Z M 387.128906 387.050781 C 385.949219 387.050781 384.359375 387.179688 384.039062 387.628906 C 383.988281 387.722656 383.988281 387.835938 384.039062 387.929688 C 384.117188 388.171875 384.3125 388.355469 384.558594 388.421875 C 385.109375 388.539062 386.050781 388 387.128906 387.050781 Z M 387.128906 387.050781 "/>
<path style=" stroke:none;fill-rule:nonzero;fill:rgb(25.098039%,48.235294%,100%);fill-opacity:1;" d="M 387.308594 387.050781 C 386.308594 386.929688 384.5 386.238281 384.21875 385.441406 C 384.117188 385.140625 384.230469 384.808594 384.5 384.640625 C 384.738281 384.457031 385.042969 384.382812 385.339844 384.441406 C 386.511719 384.671875 387.71875 386.691406 387.769531 386.769531 C 387.804688 386.832031 387.804688 386.90625 387.769531 386.96875 C 387.730469 387.027344 387.667969 387.0625 387.601562 387.070312 Z M 385.210938 384.820312 C 385.042969 384.796875 384.871094 384.84375 384.738281 384.949219 C 384.539062 385.101562 384.550781 385.21875 384.589844 385.308594 C 384.78125 385.851562 386.25 386.519531 387.238281 386.648438 C 386.800781 386 385.96875 384.960938 385.238281 384.820312 Z M 385.210938 384.820312 "/>
<path style=" stroke:none;fill-rule:nonzero;fill:rgb(25.098039%,48.235294%,100%);fill-opacity:1;" d="M 328.558594 408.359375 C 327.855469 408.425781 327.152344 408.246094 326.558594 407.859375 C 326.296875 407.617188 326.167969 407.265625 326.210938 406.910156 C 326.222656 406.695312 326.347656 406.5 326.539062 406.398438 C 327.539062 405.839844 330.808594 407.511719 331.179688 407.710938 C 331.253906 407.746094 331.292969 407.828125 331.28125 407.910156 C 331.269531 407.988281 331.207031 408.054688 331.128906 408.070312 C 330.285156 408.246094 329.421875 408.34375 328.558594 408.359375 Z M 327.101562 406.671875 C 326.976562 406.664062 326.851562 406.6875 326.738281 406.738281 C 326.660156 406.78125 326.609375 406.863281 326.609375 406.949219 C 326.578125 407.179688 326.660156 407.410156 326.828125 407.570312 C 327.328125 408.019531 328.679688 408.089844 330.488281 407.789062 C 329.433594 407.222656 328.285156 406.847656 327.101562 406.671875 Z M 327.101562 406.671875 "/>
<path style=" stroke:none;fill-rule:nonzero;fill:rgb(25.098039%,48.235294%,100%);fill-opacity:1;" d="M 331.101562 408.070312 L 331 408.070312 C 330 407.621094 328.089844 405.859375 328.238281 404.929688 C 328.238281 404.710938 328.429688 404.441406 328.96875 404.378906 C 329.359375 404.339844 329.75 404.464844 330.050781 404.71875 C 331.050781 405.578125 331.261719 407.78125 331.269531 407.871094 C 331.28125 407.941406 331.25 408.011719 331.191406 408.050781 C 331.160156 408.0625 331.132812 408.070312 331.101562 408.070312 Z M 329.101562 404.75 L 329 404.75 C 328.648438 404.75 328.621094 404.929688 328.621094 404.96875 C 328.519531 405.53125 329.839844 406.921875 330.828125 407.519531 C 330.761719 406.597656 330.414062 405.71875 329.828125 405 C 329.640625 404.835938 329.398438 404.746094 329.148438 404.75 Z M 329.101562 404.75 "/>
<path style=" stroke:none;fill-rule:nonzero;fill:rgb(14.901961%,19.607843%,21.960784%);fill-opacity:1;" d="M 337.210938 146.738281 L 335.558594 146.691406 C 335.558594 146.691406 336.660156 147.691406 337.210938 146.738281 Z M 337.210938 146.738281 "/>
<path style=" stroke:none;fill-rule:nonzero;fill:rgb(25.098039%,48.235294%,100%);fill-opacity:1;" d="M 359.511719 221.621094 L 360.359375 224.621094 C 360.46875 224.859375 360.199219 225.089844 359.808594 225.089844 L 325.589844 225.089844 C 325.289062 225.089844 325.039062 224.941406 325.03125 224.761719 L 324.730469 221.761719 C 324.730469 221.550781 324.960938 221.378906 325.289062 221.378906 L 359 221.378906 C 359.199219 221.375 359.386719 221.460938 359.511719 221.621094 Z M 359.511719 221.621094 "/>
<use xlink:href="#surface17" mask="url(#mask4)"/>
<path style=" stroke:none;fill-rule:nonzero;fill:rgb(14.901961%,19.607843%,21.960784%);fill-opacity:1;" d="M 355 225.378906 L 355.910156 225.378906 C 356.089844 225.378906 356.21875 225.289062 356.210938 225.179688 L 355.789062 221.308594 C 355.734375 221.171875 355.589844 221.085938 355.441406 221.101562 L 354.539062 221.101562 C 354.359375 221.101562 354.21875 221.199219 354.230469 221.308594 L 354.648438 225.179688 C 354.648438 225.289062 354.800781 225.378906 355 225.378906 Z M 355 225.378906 "/>
<path style=" stroke:none;fill-rule:nonzero;fill:rgb(14.901961%,19.607843%,21.960784%);fill-opacity:1;" d="M 328.128906 225.378906 L 329.03125 225.378906 C 329.210938 225.378906 329.339844 225.289062 329.328125 225.179688 L 328.910156 221.308594 C 328.910156 221.199219 328.738281 221.101562 328.558594 221.101562 L 327.660156 221.101562 C 327.480469 221.101562 327.339844 221.199219 327.351562 221.308594 L 327.78125 225.179688 C 327.789062 225.289062 328 225.378906 328.128906 225.378906 Z M 328.128906 225.378906 "/>
<path style=" stroke:none;fill-rule:nonzero;fill:rgb(14.901961%,19.607843%,21.960784%);fill-opacity:1;" d="M 341.558594 225.378906 L 342.460938 225.378906 C 342.640625 225.378906 342.769531 225.289062 342.761719 225.179688 L 342.339844 221.308594 C 342.339844 221.199219 342.171875 221.101562 341.988281 221.101562 L 341.089844 221.101562 C 340.910156 221.101562 340.769531 221.199219 340.78125 221.308594 L 341.210938 225.179688 C 341.21875 225.289062 341.378906 225.378906 341.558594 225.378906 Z M 341.558594 225.378906 "/>
<path style=" stroke:none;fill-rule:nonzero;fill:rgb(100%,70.980392%,45.098039%);fill-opacity:1;" d="M 345.46875 223.25 L 338.269531 218.109375 L 338.941406 226.410156 C 338.941406 226.410156 343.738281 228.558594 346.429688 226.488281 Z M 345.46875 223.25 "/>
<path style=" stroke:none;fill-rule:nonzero;fill:rgb(100%,70.980392%,45.098039%);fill-opacity:1;" d="M 368.78125 183.78125 C 369.398438 188.671875 369.929688 193.578125 370.421875 198.488281 C 370.910156 203.398438 371.371094 208.308594 371.78125 213.21875 L 371.851562 214.140625 L 371.851562 214.628906 C 371.851562 214.890625 371.851562 215.148438 371.851562 215.410156 C 371.859375 216.5 371.65625 217.582031 371.261719 218.601562 C 370.515625 220.390625 369.257812 221.921875 367.648438 223 C 366.390625 223.871094 365.015625 224.566406 363.570312 225.070312 C 362.261719 225.53125 360.925781 225.90625 359.570312 226.191406 C 354.480469 227.160156 349.285156 227.457031 344.121094 227.070312 L 344.070312 222.929688 C 346.398438 222.621094 348.820312 222.25 351.140625 221.78125 C 353.464844 221.34375 355.757812 220.75 358 220 C 359.957031 219.429688 361.796875 218.515625 363.429688 217.300781 C 363.878906 216.980469 364.207031 216.523438 364.371094 216 C 364.394531 215.855469 364.394531 215.707031 364.371094 215.558594 L 364.148438 214.070312 C 363.429688 209.179688 362.761719 204.300781 362.148438 199.398438 C 361.539062 194.5 360.921875 189.601562 360.421875 184.691406 Z M 368.78125 183.78125 "/>
<path style=" stroke:none;fill-rule:nonzero;fill:rgb(25.098039%,48.235294%,100%);fill-opacity:1;" d="M 364.898438 173.921875 C 368.230469 174.921875 372.238281 186.398438 372.238281 186.398438 L 359.308594 195.640625 C 359.308594 195.640625 354.601562 186.070312 356 181.761719 C 357.449219 177.28125 361.101562 172.761719 364.898438 173.921875 Z M 364.898438 173.921875 "/>
<path style=" stroke:none;fill-rule:nonzero;fill:rgb(25.098039%,48.235294%,100%);fill-opacity:1;" d="M 330.5 204.398438 C 323.488281 197.289062 312.242188 196.601562 304.414062 202.800781 C 296.585938 209.003906 294.683594 220.105469 300 228.558594 L 299.128906 235.738281 L 306.320312 234.878906 C 314.769531 240.195312 325.863281 238.296875 332.070312 230.476562 C 338.273438 222.65625 337.597656 211.417969 330.5 204.398438 Z M 310.890625 224 C 307.703125 220.8125 307.703125 215.648438 310.890625 212.460938 C 314.078125 209.273438 319.242188 209.273438 322.429688 212.460938 C 325.617188 215.648438 325.617188 220.8125 322.429688 224 C 320.902344 225.53125 318.824219 226.394531 316.660156 226.394531 C 314.496094 226.394531 312.417969 225.53125 310.890625 224 Z M 310.890625 224 "/>
<use xlink:href="#surface20" mask="url(#mask5)"/>
<path style=" stroke:none;fill-rule:nonzero;fill:rgb(100%,70.980392%,45.098039%);fill-opacity:1;" d="M 331.390625 218.421875 L 332.328125 225.339844 L 338.941406 226.410156 L 338.269531 218.109375 Z M 331.390625 218.421875 "/>
<path style=" stroke:none;fill-rule:nonzero;fill:rgb(25.098039%,48.235294%,100%);fill-opacity:1;" d="M 213.53125 400.890625 C 168.148438 400.890625 127.234375 373.554688 109.867188 331.628906 C 92.5 289.699219 102.097656 241.4375 134.191406 209.351562 C 134.578125 208.960938 135.210938 208.960938 135.601562 209.351562 L 147.480469 221.21875 C 147.871094 221.613281 147.871094 222.246094 147.480469 222.640625 C 147.085938 223.03125 146.453125 223.03125 146.058594 222.640625 L 134.898438 211.480469 C 92.527344 254.625 92.835938 323.859375 135.597656 366.621094 C 178.359375 409.382812 247.59375 409.695312 290.738281 367.320312 L 279.558594 356.140625 C 279.167969 355.746094 279.167969 355.113281 279.558594 354.71875 C 279.953125 354.328125 280.585938 354.328125 280.980469 354.71875 L 292.871094 366.609375 C 293.058594 366.796875 293.164062 367.054688 293.164062 367.320312 C 293.164062 367.585938 293.058594 367.84375 292.871094 368.03125 C 271.871094 389.136719 243.304688 400.96875 213.53125 400.890625 Z M 213.53125 400.890625 "/>
<path style=" stroke:none;fill-rule:nonzero;fill:rgb(25.098039%,48.235294%,100%);fill-opacity:1;" d="M 308.96875 288.691406 C 308.96875 341.398438 266.238281 384.128906 213.53125 384.128906 C 160.820312 384.128906 118.089844 341.398438 118.089844 288.691406 C 118.089844 235.980469 160.820312 193.25 213.53125 193.25 C 266.238281 193.25 308.96875 235.980469 308.96875 288.691406 Z M 308.96875 288.691406 "/>
<g clip-path="url(#clip7)" clip-rule="nonzero">
<g clip-path="url(#clip8)" clip-rule="nonzero">
<use xlink:href="#surface23" mask="url(#mask6)"/>
</g>
</g>
<path style=" stroke:none;fill-rule:nonzero;fill:rgb(25.098039%,48.235294%,100%);fill-opacity:1;" d="M 213.53125 414.308594 C 212.976562 414.308594 212.53125 413.863281 212.53125 413.308594 L 212.53125 399.890625 C 212.53125 399.335938 212.976562 398.890625 213.53125 398.890625 C 214.082031 398.890625 214.53125 399.335938 214.53125 399.890625 L 214.53125 413.308594 C 214.53125 413.863281 214.082031 414.308594 213.53125 414.308594 Z M 213.53125 414.308594 "/>
<path style=" stroke:none;fill-rule:nonzero;fill:rgb(25.098039%,48.235294%,100%);fill-opacity:1;" d="M 242.191406 413.308594 C 242.191406 414.929688 229.359375 416.238281 213.53125 416.238281 C 197.699219 416.238281 184.859375 414.929688 184.859375 413.308594 C 184.859375 411.691406 197.699219 407.648438 213.53125 407.648438 C 229.359375 407.648438 242.191406 411.691406 242.191406 413.308594 Z M 242.191406 413.308594 "/>
</g>
</svg>
