<?xml version="1.0" encoding="UTF-8"?>
<svg xmlns="http://www.w3.org/2000/svg" xmlns:xlink="http://www.w3.org/1999/xlink" width="500px" height="500px" viewBox="0 0 500 500" version="1.1">
<defs>
<filter id="alpha" filterUnits="objectBoundingBox" x="0%" y="0%" width="100%" height="100%">
  <feColorMatrix type="matrix" in="SourceGraphic" values="0 0 0 0 1 0 0 0 0 1 0 0 0 0 1 0 0 0 1 0"/>
</filter>
<mask id="mask0">
  <g filter="url(#alpha)">
<rect x="0" y="0" width="500" height="500" style="fill:rgb(0%,0%,0%);fill-opacity:0.14902;stroke:none;"/>
  </g>
</mask>
<clipPath id="clip1">
  <rect x="0" y="0" width="500" height="500"/>
</clipPath>
<g id="surface5" clip-path="url(#clip1)">
<path style=" stroke:none;fill-rule:nonzero;fill:rgb(0%,0%,0%);fill-opacity:1;" d="M 107.5 64.5 C 107.5 64.5 105.5 56.800781 112.96875 40.171875 C 120.550781 23.328125 140.96875 15.171875 152.578125 13.730469 C 164.191406 12.289062 180.910156 14.628906 197.769531 26.21875 C 188.328125 26.5625 179.121094 29.277344 171 34.109375 C 165.226562 30.011719 158.277344 27.90625 151.199219 28.109375 C 151.199219 28.109375 162.101562 34.210938 165.039062 37.289062 C 165.039062 37.289062 156.039062 44.96875 145.039062 45.578125 C 145.039062 45.578125 135.699219 40.03125 128.039062 39.890625 C 128.039062 39.890625 136.800781 43.800781 140.179688 49.058594 C 140.058594 49.089844 119.351562 63.789062 107.5 64.5 Z M 107.5 64.5 "/>
</g>
<mask id="mask1">
  <g filter="url(#alpha)">
<rect x="0" y="0" width="500" height="500" style="fill:rgb(0%,0%,0%);fill-opacity:0.14902;stroke:none;"/>
  </g>
</mask>
<clipPath id="clip2">
  <rect x="0" y="0" width="500" height="500"/>
</clipPath>
<g id="surface8" clip-path="url(#clip2)">
<path style=" stroke:none;fill-rule:nonzero;fill:rgb(0%,0%,0%);fill-opacity:1;" d="M 109.550781 63.761719 C 110.34375 70.128906 109.957031 76.589844 108.410156 82.820312 C 105.820312 92.359375 100.699219 97.480469 100.699219 97.480469 L 94.859375 88.480469 L 95.140625 107.21875 C 92.898438 112.945312 89.585938 118.195312 85.378906 122.679688 L 81.480469 104.679688 L 79.191406 129.238281 C 79.191406 129.238281 66.421875 146.421875 63.191406 154.800781 C 63.191406 154.800781 56.089844 124.800781 66.730469 100.128906 C 77.371094 75.460938 91 61 109.550781 63.761719 Z M 109.550781 63.761719 "/>
</g>
<mask id="mask2">
  <g filter="url(#alpha)">
<rect x="0" y="0" width="500" height="500" style="fill:rgb(0%,0%,0%);fill-opacity:0.25098;stroke:none;"/>
  </g>
</mask>
<clipPath id="clip3">
  <rect x="0" y="0" width="500" height="500"/>
</clipPath>
<g id="surface11" clip-path="url(#clip3)">
<path style=" stroke:none;fill-rule:nonzero;fill:rgb(0%,0%,0%);fill-opacity:1;" d="M 436.878906 201.691406 L 418.261719 214.441406 L 435.871094 207.769531 C 435.714844 212.480469 434.527344 217.097656 432.390625 221.300781 C 432.390625 221.300781 420.761719 226.941406 414.441406 232.898438 L 429.929688 228 C 430.417969 230.695312 430.253906 233.46875 429.449219 236.089844 C 429.351562 236.449219 429.238281 236.820312 429.121094 237.191406 C 428.300781 239.660156 427.121094 244.351562 425.121094 249.898438 C 423.429688 254.757812 421.289062 259.445312 418.71875 263.898438 C 417.441406 266.089844 416.015625 268.191406 414.460938 270.191406 C 414.371094 270.320312 414.269531 270.441406 414.171875 270.570312 C 411.296875 268.648438 408.296875 266.773438 405.171875 264.941406 C 403.378906 260.359375 401.410156 249.261719 401.050781 240.25 C 399.75 205.800781 427 188 448.28125 182.898438 C 448.28125 182.898438 440.5 191.359375 436.878906 201.691406 Z M 436.878906 201.691406 "/>
</g>
<mask id="mask3">
  <g filter="url(#alpha)">
<rect x="0" y="0" width="500" height="500" style="fill:rgb(0%,0%,0%);fill-opacity:0.101961;stroke:none;"/>
  </g>
</mask>
<clipPath id="clip4">
  <rect x="0" y="0" width="500" height="500"/>
</clipPath>
<g id="surface14" clip-path="url(#clip4)">
<path style=" stroke:none;fill-rule:nonzero;fill:rgb(0%,0%,0%);fill-opacity:1;" d="M 482.128906 222.890625 C 463.128906 222.949219 441.300781 232.089844 429.191406 244.820312 C 427.71875 246.398438 426.378906 248.097656 425.191406 249.898438 C 422.394531 254.234375 420.238281 258.949219 418.789062 263.898438 C 417.960938 266.648438 417.292969 269.441406 416.789062 272.269531 L 414.558594 270.769531 L 414.558594 270.179688 C 414.203125 260.601562 417.042969 251.175781 422.640625 243.390625 C 424.578125 240.636719 426.898438 238.175781 429.53125 236.078125 C 444.640625 223.820312 470.109375 220.789062 482.128906 222.890625 Z M 482.128906 222.890625 "/>
</g>
<mask id="mask4">
  <g filter="url(#alpha)">
<rect x="0" y="0" width="500" height="500" style="fill:rgb(0%,0%,0%);fill-opacity:0.25098;stroke:none;"/>
  </g>
</mask>
<clipPath id="clip5">
  <rect x="0" y="0" width="500" height="500"/>
</clipPath>
<g id="surface17" clip-path="url(#clip5)">
<path style=" stroke:none;fill-rule:nonzero;fill:rgb(0%,0%,0%);fill-opacity:1;" d="M 112.058594 350.921875 C 111.578125 363.03125 108.851562 375.921875 106.441406 381.921875 C 104.925781 385.363281 103.105469 388.664062 101 391.78125 L 90.648438 385.78125 C 80.648438 370.511719 76.808594 353.121094 74.648438 346.78125 C 72.269531 339.601562 73.558594 334.53125 73.558594 334.53125 L 94.230469 341.019531 C 85.789062 333.078125 70.289062 325.539062 70.289062 325.539062 C 67.4375 319.953125 65.847656 313.808594 65.628906 307.539062 L 89.121094 316.449219 L 64.289062 299.449219 C 62.308594 294.003906 59.679688 288.816406 56.460938 284 C 54.257812 280.621094 51.8125 277.410156 49.140625 274.390625 C 53.371094 275.410156 57.523438 276.722656 61.570312 278.320312 C 87.050781 288.378906 113.621094 311.449219 112.058594 350.921875 Z M 112.058594 350.921875 "/>
</g>
<mask id="mask5">
  <g filter="url(#alpha)">
<rect x="0" y="0" width="500" height="500" style="fill:rgb(0%,0%,0%);fill-opacity:0.101961;stroke:none;"/>
  </g>
</mask>
<clipPath id="clip6">
  <rect x="0" y="0" width="500" height="500"/>
</clipPath>
<g id="surface20" clip-path="url(#clip6)">
<path style=" stroke:none;fill-rule:nonzero;fill:rgb(0%,0%,0%);fill-opacity:1;" d="M 82.878906 346.160156 C 96.988281 366.480469 90.238281 385.160156 90.238281 385.160156 C 90.238281 385.160156 88.941406 361.800781 75.558594 347.730469 C 62.179688 333.660156 38.050781 323.570312 17.078125 323.488281 C 32.671875 320.75 68.78125 325.839844 82.878906 346.160156 Z M 82.878906 346.160156 "/>
</g>
<mask id="mask6">
  <g filter="url(#alpha)">
<rect x="0" y="0" width="500" height="500" style="fill:rgb(0%,0%,0%);fill-opacity:0.25098;stroke:none;"/>
  </g>
</mask>
<clipPath id="clip7">
  <rect x="0" y="0" width="500" height="500"/>
</clipPath>
<g id="surface23" clip-path="url(#clip7)">
<path style=" stroke:none;fill-rule:nonzero;fill:rgb(0%,0%,0%);fill-opacity:1;" d="M 197.140625 198.210938 C 198.691406 200.378906 202.300781 197.78125 208.738281 194.699219 C 215.179688 191.621094 210.269531 162.25 210.269531 162.25 C 210.269531 162.25 199.679688 163.121094 198.53125 173.160156 C 197.378906 183.199219 197.140625 198.210938 197.140625 198.210938 Z M 197.140625 198.210938 "/>
</g>
<mask id="mask7">
  <g filter="url(#alpha)">
<rect x="0" y="0" width="500" height="500" style="fill:rgb(0%,0%,0%);fill-opacity:0.101961;stroke:none;"/>
  </g>
</mask>
<clipPath id="clip8">
  <rect x="0" y="0" width="500" height="500"/>
</clipPath>
<g id="surface26" clip-path="url(#clip8)">
<path style=" stroke:none;fill-rule:nonzero;fill:rgb(100%,100%,100%);fill-opacity:1;" d="M 248.261719 142.210938 C 254.5 141.621094 268.871094 147.769531 271.441406 152.46875 C 274.128906 157.390625 287.699219 225.839844 282.878906 232.710938 C 276.820312 241.328125 245.160156 259.710938 230.71875 260.378906 C 218.800781 260.921875 206.660156 250.878906 204.601562 247.839844 C 201.230469 242.839844 199.488281 171.46875 202.800781 165.191406 C 208.171875 155 240.308594 143 248.261719 142.210938 Z M 248.261719 142.210938 "/>
</g>
<mask id="mask8">
  <g filter="url(#alpha)">
<rect x="0" y="0" width="500" height="500" style="fill:rgb(0%,0%,0%);fill-opacity:0.2;stroke:none;"/>
  </g>
</mask>
<clipPath id="clip9">
  <rect x="0" y="0" width="500" height="500"/>
</clipPath>
<g id="surface29" clip-path="url(#clip9)">
<path style=" stroke:none;fill-rule:nonzero;fill:rgb(0%,0%,0%);fill-opacity:1;" d="M 248.261719 142.210938 C 254.5 141.621094 268.871094 147.769531 271.441406 152.46875 C 274.128906 157.390625 287.699219 225.839844 282.878906 232.710938 C 276.820312 241.328125 245.160156 259.710938 230.71875 260.378906 C 218.800781 260.921875 206.660156 250.878906 204.601562 247.839844 C 201.230469 242.839844 199.488281 171.46875 202.800781 165.191406 C 208.171875 155 240.308594 143 248.261719 142.210938 Z M 248.261719 142.210938 "/>
</g>
<mask id="mask9">
  <g filter="url(#alpha)">
<rect x="0" y="0" width="500" height="500" style="fill:rgb(0%,0%,0%);fill-opacity:0.4;stroke:none;"/>
  </g>
</mask>
<clipPath id="clip10">
  <rect x="0" y="0" width="500" height="500"/>
</clipPath>
<g id="surface32" clip-path="url(#clip10)">
<path style=" stroke:none;fill-rule:nonzero;fill:rgb(0%,0%,0%);fill-opacity:1;" d="M 201.921875 169.210938 C 202.015625 167.839844 202.3125 166.492188 202.800781 165.210938 C 208.171875 155.039062 240.308594 142.96875 248.261719 142.210938 C 254.5 141.621094 268.871094 147.769531 271.441406 152.46875 C 272.246094 154.492188 272.878906 156.582031 273.328125 158.710938 C 261.328125 166.289062 230.230469 183.488281 226.820312 182.539062 C 222.628906 181.371094 202.320312 169.769531 201.929688 169.230469 Z M 201.921875 169.210938 "/>
</g>
<mask id="mask10">
  <g filter="url(#alpha)">
<rect x="0" y="0" width="500" height="500" style="fill:rgb(0%,0%,0%);fill-opacity:0.180392;stroke:none;"/>
  </g>
</mask>
<clipPath id="clip11">
  <rect x="0" y="0" width="500" height="500"/>
</clipPath>
<g id="surface35" clip-path="url(#clip11)">
<path style=" stroke:none;fill-rule:nonzero;fill:rgb(0%,0%,0%);fill-opacity:1;" d="M 199.558594 215.820312 C 199.921875 215.601562 205.101562 211.101562 205.710938 210.730469 C 206.789062 210.078125 223.820312 219.898438 225.460938 221.648438 C 226.589844 222.878906 226.410156 243.058594 225.878906 244.539062 C 225.679688 245.070312 219.878906 249.089844 219.730469 249.621094 C 219.191406 251.101562 201.238281 241.171875 199.980469 238.539062 C 198.71875 235.910156 198 216.769531 199.558594 215.820312 Z M 199.558594 215.820312 "/>
</g>
<mask id="mask11">
  <g filter="url(#alpha)">
<rect x="0" y="0" width="500" height="500" style="fill:rgb(0%,0%,0%);fill-opacity:0.4;stroke:none;"/>
  </g>
</mask>
<clipPath id="clip12">
  <rect x="0" y="0" width="500" height="500"/>
</clipPath>
<g id="surface38" clip-path="url(#clip12)">
<path style=" stroke:none;fill-rule:nonzero;fill:rgb(0%,0%,0%);fill-opacity:1;" d="M 205.710938 210.730469 C 205.101562 211.089844 199.929688 215.601562 199.570312 215.808594 C 200.640625 215.171875 217.671875 224.988281 219.300781 226.738281 L 225.449219 221.660156 C 223.820312 219.890625 206.789062 210.078125 205.710938 210.730469 Z M 205.710938 210.730469 "/>
</g>
<mask id="mask12">
  <g filter="url(#alpha)">
<rect x="0" y="0" width="500" height="500" style="fill:rgb(0%,0%,0%);fill-opacity:0.301961;stroke:none;"/>
  </g>
</mask>
<clipPath id="clip13">
  <rect x="0" y="0" width="500" height="500"/>
</clipPath>
<g id="surface41" clip-path="url(#clip13)">
<path style=" stroke:none;fill-rule:nonzero;fill:rgb(0%,0%,0%);fill-opacity:1;" d="M 219.308594 226.738281 C 220.449219 227.960938 220.261719 248.148438 219.730469 249.621094 C 219.199219 251.089844 201.238281 241.171875 199.980469 238.539062 C 198.71875 235.910156 197.980469 216.769531 199.558594 215.820312 C 200.640625 215.171875 217.671875 225 219.308594 226.738281 Z M 219.308594 226.738281 "/>
</g>
<mask id="mask13">
  <g filter="url(#alpha)">
<rect x="0" y="0" width="500" height="500" style="fill:rgb(0%,0%,0%);fill-opacity:0.101961;stroke:none;"/>
  </g>
</mask>
<clipPath id="clip14">
  <rect x="0" y="0" width="500" height="500"/>
</clipPath>
<g id="surface44" clip-path="url(#clip14)">
<path style=" stroke:none;fill-rule:nonzero;fill:rgb(0%,0%,0%);fill-opacity:1;" d="M 225.449219 221.660156 C 224.191406 220.949219 220.710938 223.140625 219.25 224.589844 C 217.789062 226.039062 216.53125 232.449219 212.578125 233.730469 C 208.628906 235.011719 202.578125 230.089844 201.121094 226.730469 C 199.660156 223.371094 197.761719 216.328125 199.53125 213.628906 C 201.300781 210.929688 204.609375 209.300781 207.53125 210.628906 C 210.449219 211.960938 224.890625 218.539062 225.449219 221.660156 Z M 225.449219 221.660156 "/>
</g>
<mask id="mask14">
  <g filter="url(#alpha)">
<rect x="0" y="0" width="500" height="500" style="fill:rgb(0%,0%,0%);fill-opacity:0.101961;stroke:none;"/>
  </g>
</mask>
<clipPath id="clip15">
  <rect x="0" y="0" width="500" height="500"/>
</clipPath>
<g id="surface47" clip-path="url(#clip15)">
<path style=" stroke:none;fill-rule:nonzero;fill:rgb(0%,0%,0%);fill-opacity:1;" d="M 227.269531 182.570312 C 227.269531 182.570312 224.460938 174.421875 214 169.308594 C 203.539062 164.199219 203.371094 166.058594 200.550781 171.910156 C 198.011719 177.171875 198.179688 196.109375 198.171875 197.910156 C 198.160156 199.710938 196 199.550781 195.5 188 C 195 176.449219 195.859375 165.28125 206.140625 157.691406 C 220 147.460938 242 139.878906 252.71875 141.429688 C 263.441406 142.980469 273.308594 147.628906 273.328125 158.710938 C 273.328125 158.710938 260.921875 178 227.269531 182.570312 Z M 227.269531 182.570312 "/>
</g>
<mask id="mask15">
  <g filter="url(#alpha)">
<rect x="0" y="0" width="500" height="500" style="fill:rgb(0%,0%,0%);fill-opacity:0.301961;stroke:none;"/>
  </g>
</mask>
<clipPath id="clip16">
  <rect x="0" y="0" width="500" height="500"/>
</clipPath>
<g id="surface50" clip-path="url(#clip16)">
<path style=" stroke:none;fill-rule:nonzero;fill:rgb(100%,100%,100%);fill-opacity:1;" d="M 255.539062 155.390625 C 255.539062 155.390625 259.628906 157.460938 260 159.960938 C 260.371094 162.460938 262 168.449219 261.070312 170.171875 C 260.140625 171.890625 256.980469 172.300781 256.5 171.171875 C 256.019531 170.039062 255.128906 162.820312 254.328125 160.988281 C 253.53125 159.160156 250.328125 156.988281 250.328125 156.988281 Z M 255.539062 155.390625 "/>
<path style=" stroke:none;fill-rule:nonzero;fill:rgb(100%,100%,100%);fill-opacity:1;" d="M 231.789062 162.601562 C 231.789062 162.601562 235.789062 164.359375 236.199219 166.871094 C 236.609375 169.378906 238.199219 175.109375 237.308594 176.871094 C 236.421875 178.628906 233.21875 179.011719 232.730469 177.871094 C 232.238281 176.730469 231.359375 169.53125 230.558594 167.699219 C 229.761719 165.871094 226.558594 164.121094 226.558594 164.121094 Z M 231.789062 162.601562 "/>
</g>
<mask id="mask16">
  <g filter="url(#alpha)">
<rect x="0" y="0" width="500" height="500" style="fill:rgb(0%,0%,0%);fill-opacity:0.14902;stroke:none;"/>
  </g>
</mask>
<clipPath id="clip17">
  <rect x="0" y="0" width="500" height="500"/>
</clipPath>
<g id="surface53" clip-path="url(#clip17)">
<path style=" stroke:none;fill-rule:nonzero;fill:rgb(0%,0%,0%);fill-opacity:1;" d="M 254 141.449219 C 255.40625 145.953125 255.933594 150.6875 255.550781 155.390625 L 250.359375 157 C 250.5625 152.410156 249.945312 147.824219 248.539062 143.449219 Z M 254 141.449219 "/>
<path style=" stroke:none;fill-rule:nonzero;fill:rgb(0%,0%,0%);fill-opacity:1;" d="M 230.710938 149.789062 C 231.84375 153.933594 232.253906 158.246094 231.921875 162.53125 L 226.71875 164.101562 C 226.867188 159.9375 226.320312 155.78125 225.101562 151.800781 Z M 230.710938 149.789062 "/>
</g>
<mask id="mask17">
  <g filter="url(#alpha)">
<rect x="0" y="0" width="500" height="500" style="fill:rgb(0%,0%,0%);fill-opacity:0.4;stroke:none;"/>
  </g>
</mask>
<clipPath id="clip18">
  <rect x="0" y="0" width="500" height="500"/>
</clipPath>
<g id="surface56" clip-path="url(#clip18)">
<path style=" stroke:none;fill-rule:nonzero;fill:rgb(0%,0%,0%);fill-opacity:1;" d="M 226 372.460938 C 225.101562 375.789062 223.789062 385.011719 228.910156 392.019531 C 232.359375 396.738281 234.398438 401.53125 233.71875 406.019531 C 233.011719 410.679688 215.878906 406.449219 213.339844 403.359375 C 210.765625 400.1875 209.074219 396.394531 208.429688 392.359375 C 207.710938 388.839844 207.988281 386.359375 207.148438 383.808594 C 206.25 381.011719 204.148438 377.671875 204.578125 375.011719 C 204.789062 373.558594 206.710938 371.121094 208.5 369.148438 C 210.140625 367.339844 211.5 365.5 212.601562 365.929688 L 211.921875 367 C 212.890625 368.191406 214.109375 369.15625 215.488281 369.828125 C 216.058594 370.148438 216.128906 372.550781 216.828125 372.691406 C 217.53125 372.828125 217.339844 370.910156 218.609375 370.441406 C 222.699219 369 226 372.460938 226 372.460938 Z M 226 372.460938 "/>
</g>
<mask id="mask18">
  <g filter="url(#alpha)">
<rect x="0" y="0" width="500" height="500" style="fill:rgb(0%,0%,0%);fill-opacity:0.4;stroke:none;"/>
  </g>
</mask>
<clipPath id="clip19">
  <rect x="0" y="0" width="500" height="500"/>
</clipPath>
<g id="surface59" clip-path="url(#clip19)">
<path style=" stroke:none;fill-rule:nonzero;fill:rgb(0%,0%,0%);fill-opacity:1;" d="M 302.910156 404.578125 C 304.511719 407.808594 308.71875 416.421875 315.308594 419.988281 C 320.550781 422.839844 327.488281 425.898438 330.050781 429.878906 C 332.710938 434.019531 323.421875 437.929688 319.25 438.210938 C 316 438.421875 311.71875 438.851562 308.25 437.148438 C 306.558594 436.316406 304.957031 435.3125 303.46875 434.148438 C 300.46875 431.890625 298.179688 428.910156 295.988281 427.089844 C 293.800781 425.269531 289.410156 423.730469 287.890625 421.378906 C 287.050781 420.089844 286.890625 416.859375 286.890625 414.078125 C 286.890625 411.519531 286.480469 409.191406 287.648438 408.761719 L 288.011719 410.199219 C 289.628906 410.210938 291.246094 410.070312 292.839844 409.78125 C 293.511719 409.640625 295.21875 411.46875 295.839844 411.101562 C 296.460938 410.730469 295.011719 409.351562 295.679688 408.101562 C 298 404.078125 302.910156 404.578125 302.910156 404.578125 Z M 302.910156 404.578125 "/>
</g>
<mask id="mask19">
  <g filter="url(#alpha)">
<rect x="0" y="0" width="500" height="500" style="fill:rgb(0%,0%,0%);fill-opacity:0.4;stroke:none;"/>
  </g>
</mask>
<clipPath id="clip20">
  <rect x="0" y="0" width="500" height="500"/>
</clipPath>
<g id="surface62" clip-path="url(#clip20)">
<path style=" stroke:none;fill-rule:nonzero;fill:rgb(0%,0%,0%);fill-opacity:1;" d="M 302.859375 169.769531 C 301.601562 160.628906 295.929688 150.269531 281.769531 149.710938 L 263.488281 150.578125 C 258.988281 151.75 246.738281 154.75 242.039062 156.398438 L 241.160156 193.480469 C 241.160156 193.480469 240.039062 222.058594 240.390625 237.371094 C 253.480469 245.671875 285.390625 247.320312 303.269531 233.75 C 303.800781 221.109375 304.109375 178.820312 302.859375 169.769531 Z M 302.859375 169.769531 "/>
</g>
<mask id="mask20">
  <g filter="url(#alpha)">
<rect x="0" y="0" width="500" height="500" style="fill:rgb(0%,0%,0%);fill-opacity:0.4;stroke:none;"/>
  </g>
</mask>
<clipPath id="clip21">
  <rect x="0" y="0" width="500" height="500"/>
</clipPath>
<g id="surface65" clip-path="url(#clip21)">
<path style=" stroke:none;fill-rule:nonzero;fill:rgb(0%,0%,0%);fill-opacity:1;" d="M 281.75 123.78125 C 281.496094 124.894531 280.960938 125.925781 280.199219 126.78125 C 278.953125 128.023438 277.238281 128.679688 275.480469 128.578125 C 273.71875 128.71875 272.015625 127.914062 271 126.46875 L 270.859375 126.261719 L 270.738281 126.050781 L 270.628906 125.851562 L 270.539062 125.671875 L 270.46875 125.519531 C 270.464844 125.480469 270.464844 125.441406 270.46875 125.398438 L 270.378906 125.179688 C 270.300781 124.972656 270.230469 124.761719 270.171875 124.550781 C 270.171875 124.421875 270.101562 124.289062 270.070312 124.171875 C 270.039062 124.050781 269.96875 123.738281 269.929688 123.558594 C 269.925781 123.523438 269.925781 123.488281 269.929688 123.449219 L 269.929688 123.339844 C 269.628906 121.828125 269.289062 118.878906 270.039062 118.199219 C 270.789062 117.519531 272.761719 116.78125 275.96875 117.039062 L 276.308594 117.039062 C 276.800781 117.089844 277.289062 117.167969 277.769531 117.269531 L 278.328125 117.398438 C 278.8125 117.523438 279.285156 117.671875 279.75 117.851562 L 280.191406 118.03125 C 280.347656 118.09375 280.5 118.167969 280.648438 118.25 C 280.683594 118.246094 280.71875 118.246094 280.75 118.25 L 280.921875 118.339844 C 281.289062 118.527344 281.609375 118.792969 281.859375 119.121094 C 282.371094 120.140625 282.140625 122.101562 281.75 123.78125 Z M 281.75 123.78125 "/>
</g>
<mask id="mask21">
  <g filter="url(#alpha)">
<rect x="0" y="0" width="500" height="500" style="fill:rgb(0%,0%,0%);fill-opacity:0.4;stroke:none;"/>
  </g>
</mask>
<clipPath id="clip22">
  <rect x="0" y="0" width="500" height="500"/>
</clipPath>
<g id="surface68" clip-path="url(#clip22)">
<path style=" stroke:none;fill-rule:nonzero;fill:rgb(0%,0%,0%);fill-opacity:1;" d="M 300.46875 122.800781 C 300.199219 123.980469 299.621094 126.53125 297.351562 127.679688 C 296.601562 128.050781 295.78125 128.246094 294.949219 128.261719 C 293.085938 128.488281 291.25 127.648438 290.199219 126.089844 L 290.109375 125.949219 L 290.019531 125.789062 L 289.96875 125.710938 L 289.851562 125.46875 L 289.730469 125.191406 L 289.671875 125.058594 L 289.671875 124.980469 C 289.675781 124.945312 289.675781 124.90625 289.671875 124.871094 L 289.671875 124.78125 C 289.546875 124.414062 289.453125 124.039062 289.390625 123.660156 C 289.089844 121.988281 288.949219 120.039062 289.570312 119.101562 C 290.191406 118.160156 292.570312 117.101562 294.859375 116.78125 C 295.347656 116.707031 295.835938 116.660156 296.328125 116.640625 L 298.03125 116.640625 C 298.277344 116.667969 298.527344 116.707031 298.769531 116.761719 L 299.109375 116.761719 L 299.28125 116.808594 L 299.488281 116.878906 C 299.609375 116.917969 299.726562 116.964844 299.839844 117.019531 L 299.898438 117.019531 C 300.1875 117.140625 300.449219 117.308594 300.679688 117.519531 C 301.25 118.308594 300.808594 121.289062 300.46875 122.800781 Z M 300.46875 122.800781 "/>
</g>
<mask id="mask22">
  <g filter="url(#alpha)">
<rect x="0" y="0" width="500" height="500" style="fill:rgb(0%,0%,0%);fill-opacity:0.501961;stroke:none;"/>
  </g>
</mask>
<clipPath id="clip23">
  <rect x="0" y="0" width="500" height="500"/>
</clipPath>
<g id="surface71" clip-path="url(#clip23)">
<path style=" stroke:none;fill-rule:nonzero;fill:rgb(100%,100%,100%);fill-opacity:1;" d="M 265.179688 243.121094 L 265.179688 244.320312 C 265.148438 245.539062 265.769531 246.683594 266.808594 247.320312 L 298.808594 266.710938 C 299.847656 267.339844 301.144531 267.367188 302.210938 266.78125 L 362.480469 233.78125 C 363.550781 233.199219 364.226562 232.089844 364.25 230.871094 L 364.25 230.039062 L 300.53125 264.980469 Z M 265.179688 243.121094 "/>
</g>
<mask id="mask23">
  <g filter="url(#alpha)">
<rect x="0" y="0" width="500" height="500" style="fill:rgb(0%,0%,0%);fill-opacity:0.101961;stroke:none;"/>
  </g>
</mask>
<clipPath id="clip24">
  <rect x="0" y="0" width="500" height="500"/>
</clipPath>
<g id="surface74" clip-path="url(#clip24)">
<path style=" stroke:none;fill-rule:nonzero;fill:rgb(0%,0%,0%);fill-opacity:1;" d="M 265.179688 243.121094 L 265.179688 244.320312 C 265.148438 245.539062 265.769531 246.683594 266.808594 247.320312 L 298.808594 266.710938 C 299.847656 267.339844 301.144531 267.367188 302.210938 266.78125 L 362.480469 233.78125 C 363.550781 233.199219 364.226562 232.089844 364.25 230.871094 L 364.25 230.039062 L 300.53125 264.980469 Z M 265.179688 243.121094 "/>
</g>
<mask id="mask24">
  <g filter="url(#alpha)">
<rect x="0" y="0" width="500" height="500" style="fill:rgb(0%,0%,0%);fill-opacity:0.85098;stroke:none;"/>
  </g>
</mask>
<clipPath id="clip25">
  <rect x="0" y="0" width="500" height="500"/>
</clipPath>
<g id="surface77" clip-path="url(#clip25)">
<path style=" stroke:none;fill-rule:nonzero;fill:rgb(100%,100%,100%);fill-opacity:1;" d="M 364.28125 230 L 329.441406 208.851562 C 328.820312 208.492188 328.058594 208.492188 327.441406 208.851562 L 265.441406 242.851562 C 265.300781 242.929688 265.214844 243.078125 265.214844 243.238281 C 265.214844 243.402344 265.300781 243.550781 265.441406 243.628906 L 300.609375 264.988281 Z M 364.28125 230 "/>
</g>
<mask id="mask25">
  <g filter="url(#alpha)">
<rect x="0" y="0" width="500" height="500" style="fill:rgb(0%,0%,0%);fill-opacity:0.6;stroke:none;"/>
  </g>
</mask>
<clipPath id="clip26">
  <rect x="0" y="0" width="500" height="500"/>
</clipPath>
<g id="surface80" clip-path="url(#clip26)">
<path style=" stroke:none;fill-rule:nonzero;fill:rgb(100%,100%,100%);fill-opacity:1;" d="M 300.859375 261.609375 L 282.058594 250.210938 L 337.871094 219.621094 L 356.769531 230.960938 Z M 300.859375 261.609375 "/>
</g>
<mask id="mask26">
  <g filter="url(#alpha)">
<rect x="0" y="0" width="500" height="500" style="fill:rgb(0%,0%,0%);fill-opacity:0.6;stroke:none;"/>
  </g>
</mask>
<clipPath id="clip27">
  <rect x="0" y="0" width="500" height="500"/>
</clipPath>
<g id="surface83" clip-path="url(#clip27)">
<path style=" stroke:none;fill-rule:nonzero;fill:rgb(100%,100%,100%);fill-opacity:1;" d="M 291.96875 231.390625 L 301.179688 236.980469 L 317.980469 227.761719 L 308.761719 222.171875 Z M 291.96875 231.390625 "/>
</g>
<mask id="mask27">
  <g filter="url(#alpha)">
<rect x="0" y="0" width="500" height="500" style="fill:rgb(0%,0%,0%);fill-opacity:0.0313725;stroke:none;"/>
  </g>
</mask>
<clipPath id="clip28">
  <rect x="0" y="0" width="500" height="500"/>
</clipPath>
<g id="surface86" clip-path="url(#clip28)">
<path style=" stroke:none;fill-rule:nonzero;fill:rgb(100%,100%,100%);fill-opacity:1;" d="M 300.558594 264.921875 L 300.511719 267.191406 C 301.105469 267.199219 301.695312 267.054688 302.21875 266.769531 L 362.488281 233.769531 C 363.5625 233.191406 364.238281 232.078125 364.261719 230.859375 L 364.261719 230.03125 Z M 300.558594 264.921875 "/>
</g>
<mask id="mask28">
  <g filter="url(#alpha)">
<rect x="0" y="0" width="500" height="500" style="fill:rgb(0%,0%,0%);fill-opacity:0.2;stroke:none;"/>
  </g>
</mask>
<clipPath id="clip29">
  <rect x="0" y="0" width="500" height="500"/>
</clipPath>
<g id="surface89" clip-path="url(#clip29)">
<path style=" stroke:none;fill-rule:nonzero;fill:rgb(0%,0%,0%);fill-opacity:1;" d="M 300.558594 264.921875 L 300.511719 267.191406 C 301.105469 267.199219 301.695312 267.054688 302.21875 266.769531 L 362.488281 233.769531 C 363.5625 233.191406 364.238281 232.078125 364.261719 230.859375 L 364.261719 230.03125 Z M 300.558594 264.921875 "/>
</g>
<mask id="mask29">
  <g filter="url(#alpha)">
<rect x="0" y="0" width="500" height="500" style="fill:rgb(0%,0%,0%);fill-opacity:0.4;stroke:none;"/>
  </g>
</mask>
<clipPath id="clip30">
  <rect x="0" y="0" width="500" height="500"/>
</clipPath>
<g id="surface92" clip-path="url(#clip30)">
<path style=" stroke:none;fill-rule:nonzero;fill:rgb(100%,100%,100%);fill-opacity:1;" d="M 301.511719 265.449219 C 302.640625 265.914062 303.917969 265.84375 304.988281 265.261719 L 364.988281 232.351562 C 366.039062 231.773438 366.769531 230.757812 366.988281 229.578125 L 374.359375 191 C 374.398438 190.78125 374.421875 190.5625 374.429688 190.339844 C 374.457031 189.265625 374.050781 188.222656 373.300781 187.449219 L 310.941406 221.648438 C 310.171875 222.066406 309.625 222.796875 309.441406 223.648438 Z M 301.511719 265.449219 "/>
</g>
<mask id="mask30">
  <g filter="url(#alpha)">
<rect x="0" y="0" width="500" height="500" style="fill:rgb(0%,0%,0%);fill-opacity:0.6;stroke:none;"/>
  </g>
</mask>
<clipPath id="clip31">
  <rect x="0" y="0" width="500" height="500"/>
</clipPath>
<g id="surface95" clip-path="url(#clip31)">
<path style=" stroke:none;fill-rule:nonzero;fill:rgb(100%,100%,100%);fill-opacity:1;" d="M 300.558594 264.929688 L 300.960938 265.171875 C 301.136719 265.273438 301.320312 265.367188 301.511719 265.449219 L 309.441406 223.730469 C 309.625 222.875 310.171875 222.148438 310.941406 221.730469 L 373.300781 187.53125 C 373.058594 187.28125 372.785156 187.066406 372.488281 186.890625 L 310 221.101562 C 309.226562 221.53125 308.679688 222.28125 308.511719 223.148438 Z M 300.558594 264.929688 "/>
</g>
<mask id="mask31">
  <g filter="url(#alpha)">
<rect x="0" y="0" width="500" height="500" style="fill:rgb(0%,0%,0%);fill-opacity:0.501961;stroke:none;"/>
  </g>
</mask>
<clipPath id="clip32">
  <rect x="0" y="0" width="500" height="500"/>
</clipPath>
<g id="surface98" clip-path="url(#clip32)">
<path style=" stroke:none;fill-rule:nonzero;fill:rgb(100%,100%,100%);fill-opacity:1;" d="M 310 222.46875 L 309.058594 221.890625 C 308.769531 222.257812 308.570312 222.691406 308.480469 223.148438 L 300.53125 264.929688 L 300.929688 265.171875 C 301.109375 265.273438 301.292969 265.367188 301.480469 265.449219 L 309.410156 223.730469 C 309.503906 223.269531 309.703125 222.835938 310 222.46875 Z M 310 222.46875 "/>
</g>
<mask id="mask32">
  <g filter="url(#alpha)">
<rect x="0" y="0" width="500" height="500" style="fill:rgb(0%,0%,0%);fill-opacity:0.101961;stroke:none;"/>
  </g>
</mask>
<clipPath id="clip33">
  <rect x="0" y="0" width="500" height="500"/>
</clipPath>
<g id="surface101" clip-path="url(#clip33)">
<path style=" stroke:none;fill-rule:nonzero;fill:rgb(0%,0%,0%);fill-opacity:1;" d="M 310 222.46875 L 309.058594 221.890625 C 308.769531 222.257812 308.570312 222.691406 308.480469 223.148438 L 300.53125 264.929688 L 300.929688 265.171875 C 301.109375 265.273438 301.292969 265.367188 301.480469 265.449219 L 309.410156 223.730469 C 309.503906 223.269531 309.703125 222.835938 310 222.46875 Z M 310 222.46875 "/>
</g>
<mask id="mask33">
  <g filter="url(#alpha)">
<rect x="0" y="0" width="500" height="500" style="fill:rgb(0%,0%,0%);fill-opacity:0.2;stroke:none;"/>
  </g>
</mask>
<clipPath id="clip34">
  <rect x="0" y="0" width="500" height="500"/>
</clipPath>
<g id="surface104" clip-path="url(#clip34)">
<path style=" stroke:none;fill-rule:nonzero;fill:rgb(0%,0%,0%);fill-opacity:1;" d="M 352.570312 114.140625 L 349.46875 105.320312 L 351.960938 98.121094 L 351.960938 93.71875 L 344.328125 98.121094 L 344.328125 102.53125 L 347.609375 111.210938 C 347.660156 111.296875 347.738281 111.363281 347.828125 111.398438 Z M 352.570312 114.140625 "/>
</g>
<mask id="mask34">
  <g filter="url(#alpha)">
<rect x="0" y="0" width="500" height="500" style="fill:rgb(0%,0%,0%);fill-opacity:0.2;stroke:none;"/>
  </g>
</mask>
<clipPath id="clip35">
  <rect x="0" y="0" width="500" height="500"/>
</clipPath>
<g id="surface107" clip-path="url(#clip35)">
<path style=" stroke:none;fill-rule:nonzero;fill:rgb(0%,0%,0%);fill-opacity:1;" d="M 331.199219 105.578125 C 331.277344 107.203125 332.128906 108.691406 333.488281 109.578125 L 335.351562 110.660156 C 336.65625 111.320312 338.183594 111.386719 339.539062 110.839844 C 338.460938 111.25 337.640625 110.640625 337.640625 109.339844 L 337.640625 77.851562 C 337.667969 77.054688 337.898438 76.28125 338.308594 75.601562 L 331.871094 71.878906 C 331.460938 72.5625 331.230469 73.335938 331.199219 74.128906 Z M 331.199219 105.578125 "/>
</g>
<mask id="mask35">
  <g filter="url(#alpha)">
<rect x="0" y="0" width="500" height="500" style="fill:rgb(0%,0%,0%);fill-opacity:0.301961;stroke:none;"/>
  </g>
</mask>
<clipPath id="clip36">
  <rect x="0" y="0" width="500" height="500"/>
</clipPath>
<g id="surface110" clip-path="url(#clip36)">
<path style=" stroke:none;fill-rule:nonzero;fill:rgb(100%,100%,100%);fill-opacity:1;" d="M 370.71875 58 C 370.449219 57 369.570312 56.71875 368.511719 57.328125 L 339.929688 73.890625 C 339.25 74.304688 338.695312 74.894531 338.320312 75.601562 L 331.878906 71.878906 C 332.257812 71.183594 332.816406 70.597656 333.488281 70.179688 L 362.058594 53.640625 C 363.5 52.921875 365.199219 52.921875 366.640625 53.640625 L 368.511719 54.71875 C 369.667969 55.464844 370.464844 56.648438 370.71875 58 Z M 370.71875 58 "/>
</g>
</defs>
<g id="surface1">
<path style=" stroke:none;fill-rule:nonzero;fill:rgb(92.156863%,92.156863%,92.156863%);fill-opacity:1;" d="M 467.101562 352.601562 C 467.101562 283.375 369.902344 227.261719 250 227.261719 C 130.097656 227.261719 32.898438 283.375 32.898438 352.601562 C 32.898438 421.824219 130.097656 477.941406 250 477.941406 C 369.902344 477.941406 467.101562 421.824219 467.101562 352.601562 Z M 467.101562 352.601562 "/>
<path style=" stroke:none;fill-rule:nonzero;fill:rgb(98.039216%,98.039216%,98.039216%);fill-opacity:1;" d="M 404.691406 440.550781 L 403.511719 441.238281 C 399.828125 443.367188 396.054688 445.394531 392.179688 447.320312 C 391.550781 447.648438 390.921875 447.949219 390.289062 448.269531 C 383.988281 451.351562 377.46875 454.191406 370.730469 456.800781 C 369.449219 457.300781 368.160156 457.800781 366.871094 458.261719 L 366.550781 458.378906 L 362.960938 459.679688 L 362.171875 459.941406 C 360.929688 460.390625 359.671875 460.808594 358.410156 461.230469 C 357.148438 461.648438 355.621094 462.148438 354.21875 462.589844 C 352.820312 463.03125 351.460938 463.449219 350.070312 463.878906 C 349.949219 463.902344 349.832031 463.9375 349.71875 463.980469 L 346.589844 464.898438 C 344.488281 465.5 342.390625 466.070312 340.261719 466.640625 C 339.199219 466.910156 338.140625 467.191406 337.070312 467.449219 C 336 467.710938 334.890625 468 333.789062 468.269531 C 331.601562 468.800781 329.390625 469.269531 327.179688 469.789062 L 323.851562 470.5 C 322.371094 470.8125 320.878906 471.113281 319.378906 471.398438 C 317.910156 471.691406 316.429688 471.949219 314.941406 472.230469 L 314.828125 472.230469 C 313.351562 472.5 311.828125 472.761719 310.378906 473 C 308.929688 473.238281 307.378906 473.488281 305.890625 473.71875 L 305.640625 473.71875 C 301.160156 474.386719 296.648438 474.984375 292.101562 475.511719 C 291.171875 475.628906 290.230469 475.730469 289.289062 475.828125 C 288.351562 475.929688 287.46875 476.011719 286.550781 476.101562 C 285.210938 476.238281 283.859375 476.371094 282.550781 476.480469 C 281.480469 476.578125 280.410156 476.671875 279.339844 476.738281 C 278.609375 476.808594 277.890625 476.851562 277.160156 476.910156 C 276.429688 476.96875 275.46875 477.03125 274.628906 477.078125 C 273.980469 477.128906 273.339844 477.171875 272.691406 477.199219 L 269.820312 477.371094 C 269 477.421875 268.191406 477.460938 267.371094 477.488281 C 266.550781 477.519531 265.5 477.578125 264.570312 477.601562 C 264.160156 477.601562 263.738281 477.601562 263.328125 477.601562 C 262.191406 477.660156 261.058594 477.691406 259.921875 477.71875 C 258.371094 477.71875 256.808594 477.789062 255.261719 477.800781 C 253.710938 477.808594 251.929688 477.800781 250.261719 477.800781 L 32.898438 352.480469 C 32.898438 351.570312 32.898438 350.691406 32.949219 349.789062 C 32.949219 348.71875 33.058594 347.648438 33.148438 346.570312 C 33.148438 346.070312 33.238281 345.570312 33.289062 345.089844 C 33.339844 344.609375 33.398438 344.089844 33.460938 343.589844 C 33.519531 343.089844 33.589844 342.589844 33.660156 342.089844 C 33.730469 341.589844 33.769531 341.320312 33.839844 340.941406 C 34.011719 339.820312 34.21875 338.71875 34.449219 337.601562 C 34.558594 337.101562 34.660156 336.601562 34.78125 336.109375 C 35 335.109375 35.238281 334.179688 35.5 333.21875 C 35.640625 332.691406 35.789062 332.160156 35.941406 331.640625 L 36.359375 330.261719 C 36.679688 329.261719 37.019531 328.199219 37.359375 327.191406 C 37.53125 326.691406 37.710938 326.191406 37.898438 325.699219 C 38.28125 324.699219 38.671875 323.75 39.078125 322.78125 C 39.289062 322.289062 39.5 321.78125 39.71875 321.308594 C 39.941406 320.839844 40.101562 320.449219 40.300781 320.039062 C 45.710938 308.390625 54.078125 297.101562 65.410156 286.570312 L 66.488281 285.570312 L 67.171875 284.949219 C 67.578125 284.578125 67.988281 284.210938 68.410156 283.859375 C 69.160156 283.199219 69.929688 282.539062 70.699219 281.859375 L 72.089844 280.699219 C 72.550781 280.320312 73.019531 279.929688 73.5 279.550781 L 75 278.441406 C 76 277.679688 77 276.929688 78 276.179688 L 79.511719 275.058594 L 80.691406 274.191406 L 82.789062 272.71875 C 83.261719 272.398438 83.71875 272.070312 84.191406 271.71875 C 88.089844 269.054688 92.214844 266.464844 96.570312 263.949219 C 96.691406 263.871094 96.808594 263.808594 96.941406 263.738281 Z M 404.691406 440.550781 "/>
<path style=" stroke:none;fill-rule:nonzero;fill:rgb(94.117647%,94.117647%,94.117647%);fill-opacity:1;" d="M 228.328125 391.191406 C 218.214844 388.796875 207.613281 389.492188 197.898438 393.191406 C 194.898438 394.320312 191.898438 395.898438 190.429688 398.679688 C 187.871094 403.46875 191.011719 409.378906 194.921875 413.148438 C 202.128906 420.101562 211.921875 423.738281 221.628906 426.039062 C 231.339844 428.339844 241.390625 429.449219 250.980469 432.300781 C 263.980469 436.179688 275.980469 443.148438 288.78125 447.691406 C 301.578125 452.230469 316.359375 454.160156 328.488281 447.980469 C 333.96875 445.191406 339.019531 439.898438 338.488281 433.769531 C 338.019531 428.320312 333.398438 424.25 328.910156 421.121094 C 297.5 399.210938 257.71875 394.121094 219.671875 389.730469 "/>
<path style=" stroke:none;fill-rule:nonzero;fill:rgb(69.411765%,40%,40.784314%);fill-opacity:1;" d="M 104.410156 64.851562 C 104.410156 64.851562 134.96875 92.640625 141.410156 146.578125 C 147.328125 196.140625 133.28125 242.648438 127.941406 261.359375 C 126.738281 265.070312 130.441406 269.359375 143.828125 269.359375 C 157.21875 269.359375 157.539062 261.359375 157.539062 261.359375 C 157.539062 261.359375 167.300781 203.359375 158.429688 151.839844 C 149.648438 101 128.128906 77.46875 112.539062 62 Z M 104.410156 64.851562 "/>
<path style=" stroke:none;fill-rule:nonzero;fill:rgb(72.941176%,40.784314%,78.431373%);fill-opacity:1;" d="M 109.550781 63.761719 C 109.550781 63.761719 104.25 49.648438 74.261719 49.230469 C 44.269531 48.808594 23.691406 85.75 20.441406 108.628906 C 20.441406 108.628906 28.558594 99.628906 39.070312 94.761719 L 50.609375 73.910156 L 45.351562 93.101562 C 50.289062 92.472656 55.03125 90.765625 59.238281 88.101562 C 59.238281 88.101562 64.019531 75.308594 69.648438 68.101562 L 66.070312 84.828125 C 69.363281 85.09375 72.667969 84.476562 75.648438 83.050781 C 81.140625 80.640625 97.609375 75.410156 109.550781 63.761719 Z M 109.550781 63.761719 "/>
<path style=" stroke:none;fill-rule:nonzero;fill:rgb(72.941176%,40.784314%,78.431373%);fill-opacity:1;" d="M 107.5 64.5 C 107.5 64.5 105.5 56.800781 112.96875 40.171875 C 120.550781 23.328125 140.96875 15.171875 152.578125 13.730469 C 164.191406 12.289062 180.910156 14.628906 197.769531 26.21875 C 188.328125 26.5625 179.121094 29.277344 171 34.109375 C 165.226562 30.011719 158.277344 27.90625 151.199219 28.109375 C 151.199219 28.109375 162.101562 34.210938 165.039062 37.289062 C 165.039062 37.289062 156.039062 44.96875 145.039062 45.578125 C 145.039062 45.578125 135.699219 40.03125 128.039062 39.890625 C 128.039062 39.890625 136.800781 43.800781 140.179688 49.058594 C 140.058594 49.089844 119.351562 63.789062 107.5 64.5 Z M 107.5 64.5 "/>
<use xlink:href="#surface5" mask="url(#mask0)"/>
<path style=" stroke:none;fill-rule:nonzero;fill:rgb(72.941176%,40.784314%,78.431373%);fill-opacity:1;" d="M 108.351562 64.21875 C 108.351562 64.21875 120.621094 49.75 144.191406 51.800781 C 167.761719 53.851562 189.140625 81.371094 194.289062 95.609375 C 194.289062 95.609375 183.558594 88.519531 162.96875 85.609375 L 152.148438 70.410156 L 154.800781 84.339844 L 141 81.519531 L 130.820312 65.449219 L 133.761719 79.921875 C 133.761719 79.921875 115.570312 72.859375 108.351562 64.21875 Z M 108.351562 64.21875 "/>
<path style=" stroke:none;fill-rule:nonzero;fill:rgb(72.941176%,40.784314%,78.431373%);fill-opacity:1;" d="M 109.550781 63.761719 C 110.34375 70.128906 109.957031 76.589844 108.410156 82.820312 C 105.820312 92.359375 100.699219 97.480469 100.699219 97.480469 L 94.859375 88.480469 L 95.140625 107.21875 C 92.898438 112.945312 89.585938 118.195312 85.378906 122.679688 L 81.480469 104.679688 L 79.191406 129.238281 C 79.191406 129.238281 66.421875 146.421875 63.191406 154.800781 C 63.191406 154.800781 56.089844 124.800781 66.730469 100.128906 C 77.371094 75.460938 91 61 109.550781 63.761719 Z M 109.550781 63.761719 "/>
<use xlink:href="#surface8" mask="url(#mask1)"/>
<path style=" stroke:none;fill-rule:nonzero;fill:rgb(72.941176%,40.784314%,78.431373%);fill-opacity:1;" d="M 436.878906 201.691406 L 418.261719 214.441406 L 435.871094 207.769531 C 435.714844 212.480469 434.527344 217.097656 432.390625 221.300781 C 432.390625 221.300781 420.761719 226.941406 414.441406 232.898438 L 429.929688 228 C 430.417969 230.695312 430.253906 233.46875 429.449219 236.089844 C 429.351562 236.449219 429.238281 236.820312 429.121094 237.191406 C 428.300781 239.660156 427.121094 244.351562 425.121094 249.898438 C 423.429688 254.757812 421.289062 259.445312 418.71875 263.898438 C 417.441406 266.089844 416.015625 268.191406 414.460938 270.191406 C 414.371094 270.320312 414.269531 270.441406 414.171875 270.570312 C 411.296875 268.648438 408.296875 266.773438 405.171875 264.941406 C 403.378906 260.359375 401.410156 249.261719 401.050781 240.25 C 399.75 205.800781 427 188 448.28125 182.898438 C 448.28125 182.898438 440.5 191.359375 436.878906 201.691406 Z M 436.878906 201.691406 "/>
<use xlink:href="#surface11" mask="url(#mask2)"/>
<path style=" stroke:none;fill-rule:nonzero;fill:rgb(72.941176%,40.784314%,78.431373%);fill-opacity:1;" d="M 482.128906 222.890625 C 481.480469 223.230469 470.898438 228.890625 459.238281 243.890625 L 441.621094 245.609375 L 454.320312 249.980469 L 445.53125 259.980469 L 427.53125 260.789062 L 440.789062 265.191406 C 440.789062 265.191406 433.960938 273.921875 423.699219 277.339844 C 421.480469 275.621094 419.171875 273.949219 416.78125 272.289062 L 414.550781 270.789062 L 414.550781 270.199219 C 414.191406 260.621094 417.035156 251.195312 422.628906 243.410156 C 424.566406 240.65625 426.886719 238.195312 429.519531 236.101562 C 444.640625 223.820312 470.109375 220.789062 482.128906 222.890625 Z M 482.128906 222.890625 "/>
<path style=" stroke:none;fill-rule:nonzero;fill:rgb(72.941176%,40.784314%,78.431373%);fill-opacity:1;" d="M 482.128906 222.890625 C 481.609375 223.351562 473.078125 230.730469 459.789062 245.621094 L 441.621094 245.621094 L 454.320312 249.988281 L 445.53125 259.988281 L 427.53125 260.800781 L 440.789062 265.199219 C 440.789062 265.199219 433.960938 273.929688 423.699219 277.351562 C 421.480469 275.628906 419.171875 273.960938 416.78125 272.300781 L 414.550781 270.800781 L 414.550781 270.210938 C 414.191406 260.628906 417.035156 251.203125 422.628906 243.421875 C 424.566406 240.667969 426.886719 238.207031 429.519531 236.109375 C 444.640625 223.820312 470.109375 220.789062 482.128906 222.890625 Z M 482.128906 222.890625 "/>
<use xlink:href="#surface14" mask="url(#mask3)"/>
<path style=" stroke:none;fill-rule:nonzero;fill:rgb(72.941176%,40.784314%,78.431373%);fill-opacity:1;" d="M 112.058594 350.921875 C 111.578125 363.039062 108.851562 375.921875 106.441406 381.921875 C 104.921875 385.359375 103.101562 388.660156 101 391.78125 L 90.648438 385.78125 C 80.648438 370.511719 76.808594 353.121094 74.648438 346.78125 C 72.269531 339.601562 73.558594 334.53125 73.558594 334.53125 L 94.230469 341.019531 C 85.789062 333.078125 70.289062 325.539062 70.289062 325.539062 C 67.4375 319.953125 65.847656 313.808594 65.628906 307.539062 L 89.121094 316.449219 L 64.289062 299.449219 C 62.308594 294.003906 59.679688 288.816406 56.460938 284 C 54.257812 280.621094 51.8125 277.410156 49.140625 274.390625 C 53.371094 275.410156 57.523438 276.722656 61.570312 278.320312 C 87.050781 288.378906 113.621094 311.449219 112.058594 350.921875 Z M 112.058594 350.921875 "/>
<use xlink:href="#surface17" mask="url(#mask4)"/>
<path style=" stroke:none;fill-rule:nonzero;fill:rgb(72.941176%,40.784314%,78.431373%);fill-opacity:1;" d="M 90.238281 385.140625 C 90.238281 385.140625 96.988281 366.480469 82.878906 346.140625 C 68.769531 325.800781 32.671875 320.730469 17.078125 323.449219 C 17.078125 323.449219 29.078125 329.449219 42.398438 346.691406 L 61.859375 348.589844 L 47.859375 353.429688 L 57.570312 364.429688 L 77.46875 365.339844 L 62.808594 370.199219 C 62.808594 370.199219 74.289062 385 90.238281 385.140625 Z M 90.238281 385.140625 "/>
<path style=" stroke:none;fill-rule:nonzero;fill:rgb(72.941176%,40.784314%,78.431373%);fill-opacity:1;" d="M 90.238281 385.140625 C 90.238281 385.140625 96.988281 366.480469 82.878906 346.140625 C 68.769531 325.800781 32.671875 320.730469 17.078125 323.449219 C 17.078125 323.449219 26.621094 331.589844 41.78125 348.578125 L 61.859375 348.578125 L 47.859375 353.421875 L 57.570312 364.421875 L 77.46875 365.328125 L 62.808594 370.191406 C 62.808594 370.191406 74.289062 385 90.238281 385.140625 Z M 90.238281 385.140625 "/>
<use xlink:href="#surface20" mask="url(#mask5)"/>
<path style=" stroke:none;fill-rule:nonzero;fill:rgb(100%,65.882353%,65.490196%);fill-opacity:1;" d="M 389.339844 149.550781 C 389.417969 149.21875 389.566406 148.902344 389.769531 148.628906 C 390.519531 147.296875 390.484375 145.660156 389.679688 144.359375 C 389.433594 144.050781 389.226562 143.714844 389.058594 143.359375 C 388.78125 142.578125 389.128906 141.71875 389.058594 140.890625 C 388.800781 137.179688 382.058594 138.800781 379.960938 139.539062 C 379.351562 139.75 376.339844 140.71875 374.960938 141.210938 C 375.023438 139.15625 374.773438 137.105469 374.21875 135.128906 C 373.21875 131.28125 369.328125 129.851562 369.148438 132.191406 C 368.953125 134.847656 368.515625 137.480469 367.839844 140.058594 C 367.46875 141.964844 366.867188 143.820312 366.050781 145.578125 C 364.644531 148.507812 362.761719 151.179688 360.480469 153.488281 C 356.289062 157.488281 336.898438 171.320312 336.898438 171.320312 C 331.480469 167.839844 309.398438 155.058594 301.898438 150.191406 C 294.96875 145.691406 281.839844 149 281.839844 149 L 298.28125 173 C 298.28125 173 325.710938 187.648438 333.410156 191.820312 C 339.710938 195.238281 342.878906 193.070312 350.121094 186.609375 C 355.878906 181.160156 363.460938 173.300781 371.648438 166.050781 C 374.921875 163.160156 377.238281 161.671875 379.648438 161.558594 C 380.519531 161.558594 381.398438 161.46875 382.269531 161.371094 C 384.199219 161.160156 386.5 160.671875 387.441406 158.75 C 387.761719 158.089844 387.921875 157.359375 388.179688 156.679688 C 388.589844 155.679688 389.238281 154.679688 389.640625 153.679688 C 389.933594 152.980469 390.035156 152.210938 389.929688 151.460938 C 389.761719 150.851562 389.261719 150.230469 389.339844 149.550781 Z M 389.339844 149.550781 "/>
<path style=" stroke:none;fill-rule:nonzero;fill:rgb(94.901961%,56.078431%,56.078431%);fill-opacity:1;" d="M 376.710938 142.320312 C 374.488281 142.859375 373.800781 144.25 373.648438 147.371094 C 373.570312 149.21875 372.789062 152.589844 370.648438 153.820312 C 371.628906 153.769531 372.566406 153.417969 373.339844 152.820312 C 374.339844 151.910156 374.621094 151.820312 375.109375 152.410156 C 375.480469 152.804688 375.933594 153.109375 376.441406 153.300781 C 375.691406 154.050781 375.523438 155.207031 376.03125 156.140625 C 376.890625 157.800781 381.21875 158.140625 384.890625 156.539062 C 384.890625 156.539062 379.011719 157.941406 377.800781 156.019531 C 376.589844 154.101562 379.800781 152.019531 382.101562 151.558594 C 382.101562 151.558594 376.449219 152.5 375.730469 150.621094 C 375.011719 148.738281 377.390625 147.53125 380.730469 146.910156 C 380.730469 146.910156 376.070312 147.429688 375.390625 145.820312 C 374.589844 143.898438 376.058594 142.898438 376.710938 142.320312 Z M 376.710938 142.320312 "/>
<path style=" stroke:none;fill-rule:nonzero;fill:rgb(72.941176%,40.784314%,78.431373%);fill-opacity:1;" d="M 197.140625 198.210938 C 198.691406 200.378906 202.300781 197.78125 208.738281 194.699219 C 215.179688 191.621094 210.269531 162.25 210.269531 162.25 C 210.269531 162.25 199.679688 163.121094 198.53125 173.160156 C 197.378906 183.199219 197.140625 198.210938 197.140625 198.210938 Z M 197.140625 198.210938 "/>
<use xlink:href="#surface23" mask="url(#mask6)"/>
<path style=" stroke:none;fill-rule:nonzero;fill:rgb(72.941176%,40.784314%,78.431373%);fill-opacity:1;" d="M 248.261719 142.210938 C 254.5 141.621094 268.871094 147.769531 271.441406 152.46875 C 274.128906 157.390625 287.699219 225.839844 282.878906 232.710938 C 276.820312 241.328125 245.160156 259.710938 230.71875 260.378906 C 218.800781 260.921875 206.660156 250.878906 204.601562 247.839844 C 201.230469 242.839844 199.488281 171.46875 202.800781 165.191406 C 208.171875 155 240.308594 143 248.261719 142.210938 Z M 248.261719 142.210938 "/>
<use xlink:href="#surface26" mask="url(#mask7)"/>
<use xlink:href="#surface29" mask="url(#mask8)"/>
<path style=" stroke:none;fill-rule:nonzero;fill:rgb(72.941176%,40.784314%,78.431373%);fill-opacity:1;" d="M 201.089844 201.601562 C 201.089844 198.601562 201.03125 195.648438 201.03125 192.789062 C 201.03125 191.648438 201.03125 190.519531 201.03125 189.410156 C 201.03125 187.191406 201.078125 185.050781 201.121094 183.019531 C 201.121094 182.019531 201.171875 181.019531 201.199219 180.019531 C 201.199219 178.578125 201.308594 177.21875 201.371094 175.941406 C 201.429688 174.660156 201.511719 173.460938 201.601562 172.371094 C 201.601562 172 201.660156 171.640625 201.691406 171.300781 C 201.960938 168.210938 202.328125 166.039062 202.789062 165.148438 C 202.949219 164.871094 203.121094 164.578125 203.320312 164.28125 L 203.519531 163.988281 C 203.660156 163.789062 203.800781 163.589844 203.960938 163.390625 L 204.230469 163.039062 L 204.71875 162.480469 L 205.039062 162.121094 C 205.289062 161.851562 205.550781 161.578125 205.828125 161.300781 L 206.390625 160.769531 L 206.769531 160.421875 L 207.421875 159.839844 L 207.75 159.558594 L 208.511719 158.929688 C 214.300781 160.828125 219.78125 162.640625 219.941406 162.730469 C 220.300781 162.929688 226.269531 165.929688 226.660156 174.671875 L 229.351562 210 L 229.621094 213.351562 C 229.898438 218.039062 237.25 260.949219 223.828125 259.480469 L 223.289062 259.480469 C 214.160156 257.011719 206.21875 250.25 204.601562 247.851562 C 204.222656 247.121094 203.964844 246.339844 203.839844 245.53125 C 203.75 245.070312 203.648438 244.53125 203.558594 244 C 203.511719 243.71875 203.46875 243.429688 203.421875 243.128906 C 203.28125 242.210938 203.148438 241.191406 203.019531 240.058594 C 203.019531 239.691406 202.941406 239.308594 202.898438 238.910156 C 202.28125 232.988281 201.789062 224.78125 201.460938 215.96875 C 201.398438 214.199219 201.339844 212.421875 201.289062 210.621094 C 201.289062 209.421875 201.21875 208.21875 201.199219 207.011719 C 201.199219 206.410156 201.199219 205.808594 201.199219 205.210938 C 201.128906 204 201.109375 202.800781 201.089844 201.601562 Z M 201.089844 201.601562 "/>
<use xlink:href="#surface32" mask="url(#mask9)"/>
<path style=" stroke:none;fill-rule:nonzero;fill:rgb(72.941176%,40.784314%,78.431373%);fill-opacity:1;" d="M 199.558594 215.820312 C 199.921875 215.601562 205.101562 211.101562 205.710938 210.730469 C 206.789062 210.078125 223.820312 219.898438 225.460938 221.648438 C 226.589844 222.878906 226.410156 243.058594 225.878906 244.539062 C 225.679688 245.070312 219.878906 249.089844 219.730469 249.621094 C 219.191406 251.101562 201.238281 241.171875 199.980469 238.539062 C 198.71875 235.910156 198 216.769531 199.558594 215.820312 Z M 199.558594 215.820312 "/>
<use xlink:href="#surface35" mask="url(#mask10)"/>
<path style=" stroke:none;fill-rule:nonzero;fill:rgb(72.941176%,40.784314%,78.431373%);fill-opacity:1;" d="M 219.308594 226.738281 C 220.449219 227.960938 220.261719 248.148438 219.730469 249.621094 C 219.199219 251.089844 201.238281 241.171875 199.980469 238.539062 C 198.71875 235.910156 197.980469 216.769531 199.558594 215.820312 C 200.640625 215.171875 217.671875 225 219.308594 226.738281 Z M 219.308594 226.738281 "/>
<use xlink:href="#surface38" mask="url(#mask11)"/>
<use xlink:href="#surface41" mask="url(#mask12)"/>
<path style=" stroke:none;fill-rule:nonzero;fill:rgb(72.941176%,40.784314%,78.431373%);fill-opacity:1;" d="M 225.449219 221.660156 C 224.191406 220.949219 220.710938 223.140625 219.25 224.589844 C 217.789062 226.039062 216.53125 232.449219 212.578125 233.730469 C 208.628906 235.011719 202.578125 230.089844 201.121094 226.730469 C 199.660156 223.371094 197.761719 216.328125 199.53125 213.628906 C 201.300781 210.929688 204.609375 209.300781 207.53125 210.628906 C 210.449219 211.960938 224.890625 218.539062 225.449219 221.660156 Z M 225.449219 221.660156 "/>
<use xlink:href="#surface44" mask="url(#mask13)"/>
<path style=" stroke:none;fill-rule:nonzero;fill:rgb(21.568627%,27.843137%,30.980392%);fill-opacity:1;" d="M 207.511719 225.71875 C 208.503906 226.242188 209.121094 227.277344 209.109375 228.398438 C 209.15625 228.84375 208.953125 229.277344 208.582031 229.523438 C 208.210938 229.773438 207.734375 229.796875 207.339844 229.589844 C 206.335938 229.078125 205.714844 228.035156 205.738281 226.910156 C 205.789062 225.828125 206.578125 225.289062 207.511719 225.71875 Z M 207.511719 225.71875 "/>
<path style=" stroke:none;fill-rule:nonzero;fill:rgb(72.941176%,40.784314%,78.431373%);fill-opacity:1;" d="M 227.269531 182.570312 C 227.269531 182.570312 224.460938 174.421875 214 169.308594 C 203.539062 164.199219 203.371094 166.058594 200.550781 171.910156 C 198.011719 177.171875 198.179688 196.109375 198.171875 197.910156 C 198.160156 199.710938 196 199.550781 195.5 188 C 195 176.449219 195.859375 165.28125 206.140625 157.691406 C 220 147.460938 242 139.878906 252.71875 141.429688 C 263.441406 142.980469 273.308594 147.628906 273.328125 158.710938 C 273.328125 158.710938 260.921875 178 227.269531 182.570312 Z M 227.269531 182.570312 "/>
<use xlink:href="#surface47" mask="url(#mask14)"/>
<path style=" stroke:none;fill-rule:nonzero;fill:rgb(72.941176%,40.784314%,78.431373%);fill-opacity:1;" d="M 255.539062 155.390625 C 255.539062 155.390625 259.628906 157.460938 260 159.960938 C 260.371094 162.460938 262 168.449219 261.070312 170.171875 C 260.140625 171.890625 256.980469 172.300781 256.5 171.171875 C 256.019531 170.039062 255.128906 162.820312 254.328125 160.988281 C 253.53125 159.160156 250.328125 156.988281 250.328125 156.988281 Z M 255.539062 155.390625 "/>
<path style=" stroke:none;fill-rule:nonzero;fill:rgb(72.941176%,40.784314%,78.431373%);fill-opacity:1;" d="M 231.789062 162.601562 C 231.789062 162.601562 235.789062 164.359375 236.199219 166.871094 C 236.609375 169.378906 238.199219 175.109375 237.308594 176.871094 C 236.421875 178.628906 233.21875 179.011719 232.730469 177.871094 C 232.238281 176.730469 231.359375 169.53125 230.558594 167.699219 C 229.761719 165.871094 226.558594 164.121094 226.558594 164.121094 Z M 231.789062 162.601562 "/>
<use xlink:href="#surface50" mask="url(#mask15)"/>
<path style=" stroke:none;fill-rule:nonzero;fill:rgb(27.058824%,35.294118%,39.215686%);fill-opacity:1;" d="M 259.21875 120.46875 C 261.488281 119.699219 264.21875 120.46875 267.011719 122.851562 C 272.488281 127.679688 275.761719 137.398438 274.320312 144.570312 C 273.558594 148.320312 271.648438 150.570312 269.210938 151.261719 L 206.359375 170.261719 L 195.871094 139.628906 L 213.558594 136.921875 L 220.058594 134.800781 L 241.898438 127.878906 L 244.898438 126.800781 Z M 259.21875 120.46875 "/>
<path style=" stroke:none;fill-rule:nonzero;fill:rgb(21.568627%,27.843137%,30.980392%);fill-opacity:1;" d="M 203.878906 141.910156 C 209.359375 146.738281 212.628906 156.460938 211.191406 163.621094 C 209.75 170.78125 204.140625 172.621094 198.660156 167.839844 C 193.179688 163.058594 189.898438 153.289062 191.339844 146.128906 C 192.78125 138.96875 198.398438 137.078125 203.878906 141.910156 Z M 203.878906 141.910156 "/>
<path style=" stroke:none;fill-rule:nonzero;fill:rgb(72.941176%,40.784314%,78.431373%);fill-opacity:1;" d="M 243.710938 127.21875 C 243.710938 127.21875 256.921875 134.921875 255.539062 155.390625 L 250.359375 157 C 250.359375 157 251.890625 137.289062 237.359375 129.351562 Z M 243.710938 127.21875 "/>
<path style=" stroke:none;fill-rule:nonzero;fill:rgb(72.941176%,40.784314%,78.431373%);fill-opacity:1;" d="M 220.058594 134.789062 C 220.058594 134.789062 233.289062 142.058594 231.921875 162.53125 L 226.71875 164.101562 C 226.71875 164.101562 228.058594 144.851562 213.558594 136.910156 Z M 220.058594 134.789062 "/>
<use xlink:href="#surface53" mask="url(#mask16)"/>
<path style=" stroke:none;fill-rule:nonzero;fill:rgb(14.901961%,19.607843%,21.960784%);fill-opacity:1;" d="M 195.601562 149 C 197.699219 147.648438 199.949219 149.46875 200.980469 151.269531 C 201.757812 152.832031 202.105469 154.578125 201.980469 156.320312 C 202.050781 157.050781 201.902344 157.789062 201.558594 158.441406 C 201.179688 158.988281 200.558594 159.238281 200.058594 158.679688 C 199.871094 158.460938 200.058594 157.78125 200.410156 157.859375 C 200.761719 157.941406 200.640625 158.03125 200.71875 157.910156 C 200.800781 157.789062 200.78125 157.398438 200.789062 157.230469 C 200.773438 156.558594 200.6875 155.886719 200.539062 155.230469 C 200.414062 154.183594 200.105469 153.167969 199.628906 152.230469 C 199.183594 151.398438 198.542969 150.6875 197.761719 150.160156 C 197.078125 149.75 196.058594 149.578125 195.820312 150.519531 C 195.429688 152.019531 196.308594 154.050781 196.820312 155.449219 C 197.453125 157.542969 198.46875 159.5 199.820312 161.21875 C 200.589844 162.148438 202.738281 164.21875 204.089844 163.371094 C 205.441406 162.519531 205.328125 159.980469 205.339844 158.769531 C 205.347656 156.785156 205.011719 154.816406 204.339844 152.949219 C 203.695312 150.769531 202.636719 148.734375 201.230469 146.949219 C 200.644531 146.289062 199.898438 145.792969 199.058594 145.511719 C 198.390625 145.28125 196.820312 144.78125 196.558594 145.738281 C 196.488281 145.96875 196.03125 146.421875 195.808594 146.078125 C 195.03125 144.898438 196.179688 143.890625 197.351562 143.601562 C 199.191406 143.207031 201.113281 143.675781 202.558594 144.878906 C 204.660156 146.53125 205.839844 149.539062 206.761719 151.96875 C 207.773438 154.574219 208.1875 157.375 207.980469 160.160156 C 207.789062 162.328125 207.089844 165.058594 204.628906 165.609375 C 202 166.199219 199.25 164.269531 197.769531 162.238281 C 196.148438 159.851562 195.058594 157.144531 194.570312 154.300781 C 194.140625 152.578125 193.871094 150.050781 195.601562 149 Z M 195.601562 149 "/>
<path style=" stroke:none;fill-rule:nonzero;fill:rgb(100%,65.882353%,65.490196%);fill-opacity:1;" d="M 302.519531 229.269531 L 261.339844 230.761719 L 260.210938 298.171875 C 260.210938 298.171875 249.210938 306.171875 242.210938 316.25 C 237.089844 323.539062 220.398438 354.351562 217.441406 359 L 211.890625 367.699219 C 211.351562 369.25 211.660156 372.589844 215.339844 374.460938 C 219.019531 376.328125 223.230469 375.179688 224.019531 373.808594 C 224.019531 373.808594 224.769531 372.070312 231.109375 366.039062 C 237.449219 360.011719 283.109375 316.640625 285.558594 313.671875 C 289.210938 309.230469 291.371094 305.191406 295.761719 289.578125 C 301.160156 270.21875 303 237.71875 302.519531 229.269531 Z M 302.519531 229.269531 "/>
<path style=" stroke:none;fill-rule:nonzero;fill:rgb(27.058824%,35.294118%,39.215686%);fill-opacity:1;" d="M 303.128906 227.621094 C 303.128906 227.621094 303.128906 241.050781 301.269531 262.371094 C 299.410156 283.691406 297.679688 299.109375 289.269531 310.730469 C 280.859375 322.351562 268.058594 334.640625 264 338.308594 C 253.328125 334.941406 244.640625 327.113281 240.179688 316.851562 L 252.308594 299.609375 L 245.898438 235.21875 Z M 303.128906 227.621094 "/>
<path style=" stroke:none;fill-rule:nonzero;fill:rgb(21.568627%,27.843137%,30.980392%);fill-opacity:1;" d="M 251.308594 301.230469 C 251.308594 301.230469 256.019531 316.328125 256.699219 318.851562 C 257.378906 321.371094 262.699219 338.339844 262.699219 338.339844 C 262.699219 338.339844 263.21875 315.601562 262.210938 311.46875 C 261.199219 307.339844 251.308594 301.230469 251.308594 301.230469 Z M 251.308594 301.230469 "/>
<path style=" stroke:none;fill-rule:nonzero;fill:rgb(21.568627%,27.843137%,30.980392%);fill-opacity:1;" d="M 301.890625 234.738281 C 301.890625 234.738281 302.480469 245.421875 296.621094 253.429688 C 290.761719 261.441406 286.371094 263.738281 286.371094 263.738281 L 291.421875 299.238281 L 281.5 262.570312 Z M 301.890625 234.738281 "/>
<path style=" stroke:none;fill-rule:nonzero;fill:rgb(27.058824%,35.294118%,39.215686%);fill-opacity:1;" d="M 205.390625 373.75 C 204.578125 373.5 202.898438 376.191406 202.71875 377.140625 C 202.539062 378.089844 203.121094 380.300781 204.039062 382.429688 C 205.199219 384.988281 205.933594 387.714844 206.210938 390.511719 C 206.492188 394.40625 207.488281 398.214844 209.148438 401.75 C 211.300781 406.199219 217.46875 413.949219 228.488281 412.019531 C 235.171875 410.839844 235.890625 408.019531 235.628906 406.449219 Z M 205.390625 373.75 "/>
<path style=" stroke:none;fill-rule:nonzero;fill:rgb(72.941176%,40.784314%,78.431373%);fill-opacity:1;" d="M 226.351562 372.449219 C 225.449219 375.789062 224.140625 385 229.261719 392.011719 C 232.710938 396.730469 234.75 401.519531 234.070312 406.011719 C 233.359375 410.671875 216.230469 406.441406 213.691406 403.351562 C 211.125 400.191406 209.433594 396.417969 208.78125 392.398438 C 208.058594 388.878906 208.339844 386.449219 207.5 383.859375 C 206.601562 381.058594 204.5 377.710938 204.929688 375.058594 C 205.140625 373.601562 207.058594 371.160156 208.851562 369.191406 C 210.488281 367.378906 211.851562 365.539062 212.949219 365.96875 L 212.269531 367.050781 C 213.242188 368.234375 214.460938 369.199219 215.839844 369.871094 C 216.410156 370.199219 216.480469 372.589844 217.179688 372.738281 C 217.878906 372.890625 217.691406 370.949219 218.960938 370.488281 C 223.101562 369 226.351562 372.449219 226.351562 372.449219 Z M 226.351562 372.449219 "/>
<use xlink:href="#surface56" mask="url(#mask17)"/>
<path style=" stroke:none;fill-rule:nonzero;fill:rgb(98.039216%,98.039216%,98.039216%);fill-opacity:1;" d="M 213.691406 403.339844 C 213.691406 403.339844 216.769531 396.488281 224.109375 395.160156 C 231.449219 393.828125 233.371094 396.691406 234.179688 397.691406 C 234.988281 398.691406 238.660156 404.53125 234.078125 408.269531 C 234.078125 408.269531 222.449219 413.550781 213.691406 403.339844 Z M 213.691406 403.339844 "/>
<path style=" stroke:none;fill-rule:nonzero;fill:rgb(100%,65.882353%,65.490196%);fill-opacity:1;" d="M 300.320312 403.390625 C 300.320312 403.390625 295.320312 345.949219 293.019531 321.191406 C 288.441406 292.558594 279.289062 263.488281 279.289062 263.488281 C 279.289062 263.488281 285.480469 260.039062 291.21875 251.800781 C 299.558594 239.800781 299.371094 229.730469 299.371094 229.730469 L 294.550781 229.398438 L 242.390625 231.53125 C 242.550781 240.148438 242.230469 252.25 243.390625 263.421875 C 245.808594 286.320312 268.050781 326.851562 268.050781 326.851562 C 267.839844 330.011719 265.558594 343.410156 268.789062 355.121094 C 273.878906 373.589844 285.101562 396.769531 287.199219 406.859375 L 289.289062 415.308594 L 302.289062 412.109375 L 300.289062 403.390625 Z M 300.320312 403.390625 "/>
<path style=" stroke:none;fill-rule:nonzero;fill:rgb(27.058824%,35.294118%,39.215686%);fill-opacity:1;" d="M 241.171875 229.058594 C 240.320312 238.71875 239.648438 246.691406 239.78125 253.78125 C 239.910156 260.871094 241.929688 270.570312 245.199219 280.378906 C 248.46875 290.191406 257.960938 313.878906 259.199219 317.328125 C 260.441406 320.78125 263.449219 343.511719 263.449219 343.511719 C 263.449219 343.511719 283.851562 348 297.511719 339 C 297.511719 339 295.511719 316.21875 294.28125 310.441406 C 293.050781 304.660156 281.5 262.601562 281.5 262.601562 C 281.5 262.601562 302.160156 248.851562 302.5 229.300781 Z M 241.171875 229.058594 "/>
<path style=" stroke:none;fill-rule:nonzero;fill:rgb(27.058824%,35.294118%,39.215686%);fill-opacity:1;" d="M 287.378906 420.070312 C 286.578125 420.429688 287.121094 423.699219 287.628906 424.570312 C 288.738281 426.125 290.230469 427.367188 291.960938 428.171875 C 294.425781 429.378906 296.574219 431.144531 298.238281 433.328125 C 301.085938 436.65625 304.621094 439.320312 308.601562 441.140625 C 313.351562 443.140625 319.390625 442.789062 324.691406 440.210938 C 329.988281 437.628906 330.371094 436.058594 330.019531 433.949219 Z M 287.378906 420.070312 "/>
<path style=" stroke:none;fill-rule:nonzero;fill:rgb(72.941176%,40.784314%,78.431373%);fill-opacity:1;" d="M 302.910156 404.578125 C 304.511719 407.808594 308.71875 416.421875 315.308594 419.988281 C 320.550781 422.839844 327.488281 425.898438 330.050781 429.878906 C 332.710938 434.019531 323.421875 437.929688 319.25 438.210938 C 316 438.421875 311.71875 438.851562 308.25 437.148438 C 306.558594 436.316406 304.957031 435.3125 303.46875 434.148438 C 300.46875 431.890625 298.179688 428.910156 295.988281 427.089844 C 293.800781 425.269531 289.410156 423.730469 287.890625 421.378906 C 287.050781 420.089844 286.890625 416.859375 286.890625 414.078125 C 286.890625 411.519531 286.480469 409.191406 287.648438 408.761719 L 288.011719 410.199219 C 289.628906 410.210938 291.246094 410.070312 292.839844 409.78125 C 293.511719 409.640625 295.21875 411.46875 295.839844 411.101562 C 296.460938 410.730469 295.011719 409.351562 295.679688 408.101562 C 298 404.078125 302.910156 404.578125 302.910156 404.578125 Z M 302.910156 404.578125 "/>
<use xlink:href="#surface59" mask="url(#mask18)"/>
<path style=" stroke:none;fill-rule:nonzero;fill:rgb(98.039216%,98.039216%,98.039216%);fill-opacity:1;" d="M 308.28125 437.148438 C 308.28125 437.148438 308.75 428.828125 315.441406 424.828125 C 322.128906 420.828125 325.019531 423.578125 326.191406 424.25 C 327.359375 424.921875 333.109375 428.601562 330.019531 433.949219 C 330 434 321.488281 443.140625 308.28125 437.148438 Z M 308.28125 437.148438 "/>
<path style=" stroke:none;fill-rule:nonzero;fill:rgb(72.941176%,40.784314%,78.431373%);fill-opacity:1;" d="M 302.859375 169.769531 C 301.601562 160.628906 295.929688 150.269531 281.769531 149.710938 L 263.488281 150.578125 C 258.988281 151.75 246.738281 154.75 242.039062 156.398438 L 241.160156 193.480469 C 241.160156 193.480469 240.039062 222.058594 240.390625 237.371094 C 253.480469 245.671875 285.390625 247.320312 303.269531 233.75 C 303.800781 221.109375 304.109375 178.820312 302.859375 169.769531 Z M 302.859375 169.769531 "/>
<use xlink:href="#surface62" mask="url(#mask19)"/>
<path style=" stroke:none;fill-rule:nonzero;fill:rgb(14.901961%,19.607843%,21.960784%);fill-opacity:1;" d="M 301.769531 110.308594 C 301.5 100.496094 293.570312 92.621094 283.753906 92.421875 C 273.933594 92.222656 265.691406 99.765625 265.019531 109.558594 L 256.558594 103.769531 C 254.554688 103.597656 252.582031 104.359375 251.21875 105.839844 C 248.96875 108.289062 250.511719 115.679688 253.640625 122.839844 C 253.640625 122.839844 256.890625 136 258.089844 138.140625 C 258.886719 139.460938 260.160156 140.425781 261.648438 140.828125 L 261.21875 132.828125 L 294.601562 129.828125 L 291.25 127.53125 C 297.871094 124.394531 302.003906 117.632812 301.769531 110.308594 Z M 301.769531 110.308594 "/>
<path style=" stroke:none;fill-rule:nonzero;fill:rgb(100%,65.882353%,65.490196%);fill-opacity:1;" d="M 260.558594 123.261719 C 259.558594 123.929688 257.929688 121.929688 256.558594 120.601562 C 255.191406 119.269531 250.859375 117.53125 248.859375 122.109375 C 246.859375 126.691406 251.101562 132.710938 254.511719 133.660156 C 260.390625 135.300781 261.140625 131.539062 261.140625 131.539062 L 262.269531 152.539062 C 267.46875 157.980469 284.578125 156.078125 281.191406 151.371094 L 281 145 C 281 145 286.300781 145.628906 288.859375 145.148438 C 293.121094 144.351562 295.699219 140.878906 296.859375 136.210938 C 298.699219 128.699219 299.300781 122.660156 297.058594 108.078125 C 294.601562 92.078125 275.929688 92.550781 266.058594 99.210938 C 256.191406 105.871094 260.558594 123.261719 260.558594 123.261719 Z M 260.558594 123.261719 "/>
<path style=" stroke:none;fill-rule:nonzero;fill:rgb(14.901961%,19.607843%,21.960784%);fill-opacity:1;" d="M 300.828125 93 C 299.414062 92.34375 297.816406 92.191406 296.300781 92.558594 C 296.464844 90.210938 295.109375 88.019531 292.929688 87.121094 C 290.640625 86.042969 287.929688 86.4375 286.039062 88.121094 C 286.460938 86.488281 284.949219 84.859375 283.289062 84.519531 C 281.601562 84.34375 279.894531 84.65625 278.378906 85.421875 C 276.050781 86.359375 273.761719 87.421875 271.378906 88.238281 C 267.210938 89.710938 262.75 90.589844 258.988281 92.941406 C 258.078125 93.460938 257.28125 94.160156 256.648438 95 C 255.859375 96.242188 255.507812 97.714844 255.648438 99.179688 C 255.6875 99.664062 255.761719 100.140625 255.878906 100.609375 C 255.589844 100.304688 255.253906 100.046875 254.878906 99.851562 C 254.007812 99.425781 253 99.375 252.089844 99.707031 C 251.175781 100.042969 250.441406 100.730469 250.050781 101.621094 L 256.441406 104.789062 C 256.308594 106.070312 256.171875 107.339844 256.058594 108.621094 C 255.78125 112.011719 255.199219 115.949219 256.058594 119.289062 C 256.109375 119.691406 256.257812 120.078125 256.488281 120.410156 C 256.828125 120.742188 257.128906 121.117188 257.378906 121.519531 L 258.511719 123.519531 C 259.019531 124.429688 259.820312 125.519531 261.011719 125.351562 C 261.671875 125.269531 262.011719 124.351562 262.148438 123.808594 C 263.738281 117.808594 263.691406 111.488281 265.691406 105.640625 C 265.734375 105.464844 265.824219 105.308594 265.949219 105.179688 C 266.195312 105.039062 266.488281 105.003906 266.761719 105.078125 C 269.761719 105.570312 272.859375 106.078125 275.921875 106.429688 C 282.871094 107.25 290.320312 107.308594 296.378906 103.800781 C 298.738281 102.429688 302.699219 99.609375 303.070312 96.660156 C 303.117188 95.101562 302.238281 93.667969 300.828125 93 Z M 300.828125 93 "/>
<path style=" stroke:none;fill-rule:nonzero;fill:rgb(94.901961%,56.078431%,56.078431%);fill-opacity:1;" d="M 281 145 C 281 145 271.378906 143.378906 268 141.71875 C 266 140.761719 264.339844 139.21875 263.230469 137.300781 C 263.800781 139.234375 264.75 141.039062 266.03125 142.601562 C 268.570312 145.648438 281.089844 147.539062 281.089844 147.539062 Z M 281 145 "/>
<path style=" stroke:none;fill-rule:nonzero;fill:rgb(14.901961%,19.607843%,21.960784%);fill-opacity:1;" d="M 277.898438 121.191406 C 277.894531 122.125 277.136719 122.882812 276.203125 122.890625 C 275.265625 122.894531 274.5 122.148438 274.480469 121.214844 C 274.460938 120.28125 275.195312 119.503906 276.128906 119.46875 C 277.09375 119.457031 277.882812 120.226562 277.898438 121.191406 Z M 277.898438 121.191406 "/>
<path style=" stroke:none;fill-rule:nonzero;fill:rgb(14.901961%,19.607843%,21.960784%);fill-opacity:1;" d="M 275.429688 113.601562 L 271.261719 115.71875 C 270.695312 114.535156 271.167969 113.113281 272.328125 112.5 C 272.886719 112.222656 273.53125 112.183594 274.113281 112.390625 C 274.699219 112.597656 275.175781 113.035156 275.429688 113.601562 Z M 275.429688 113.601562 "/>
<path style=" stroke:none;fill-rule:nonzero;fill:rgb(94.901961%,56.078431%,56.078431%);fill-opacity:1;" d="M 279.839844 134.050781 L 284.269531 135.550781 C 284.097656 136.148438 283.6875 136.652344 283.136719 136.941406 C 282.585938 137.230469 281.941406 137.285156 281.351562 137.089844 C 280.109375 136.648438 279.441406 135.304688 279.839844 134.050781 Z M 279.839844 134.050781 "/>
<path style=" stroke:none;fill-rule:nonzero;fill:rgb(14.901961%,19.607843%,21.960784%);fill-opacity:1;" d="M 296.210938 115.371094 L 292.46875 112.730469 C 292.804688 112.234375 293.328125 111.894531 293.917969 111.792969 C 294.507812 111.6875 295.117188 111.828125 295.601562 112.179688 C 296.632812 112.902344 296.902344 114.316406 296.210938 115.371094 Z M 296.210938 115.371094 "/>
<path style=" stroke:none;fill-rule:nonzero;fill:rgb(14.901961%,19.607843%,21.960784%);fill-opacity:1;" d="M 268 116 L 253 119.128906 C 254.707031 119.144531 256.304688 119.957031 257.328125 121.320312 L 267.941406 119.320312 Z M 268 116 "/>
<path style=" stroke:none;fill-rule:nonzero;fill:rgb(14.901961%,19.607843%,21.960784%);fill-opacity:1;" d="M 295.25 120.878906 C 295.238281 121.8125 294.480469 122.566406 293.546875 122.570312 C 292.613281 122.570312 291.847656 121.824219 291.832031 120.890625 C 291.8125 119.957031 292.546875 119.183594 293.480469 119.148438 C 294.445312 119.144531 295.234375 119.914062 295.25 120.878906 Z M 295.25 120.878906 "/>
<path style=" stroke:none;fill-rule:nonzero;fill:rgb(14.901961%,19.607843%,21.960784%);fill-opacity:1;" d="M 302.570312 115.351562 L 301.570312 115.238281 C 298.398438 114.960938 294.261719 114.929688 291.75 115.75 C 288.601562 116.75 287.46875 117.878906 285.75 117.921875 C 284.03125 117.960938 282.75 116.921875 279.421875 115.921875 C 276.761719 115.210938 272.328125 115.390625 268.929688 115.800781 L 267.878906 115.941406 C 267.117188 116.191406 266.621094 116.929688 266.679688 117.730469 C 266.804688 118.480469 267.15625 119.179688 267.679688 119.730469 C 267.839844 119.980469 267.945312 120.257812 268 120.550781 C 268.339844 121.980469 268.511719 124.710938 269.179688 126.21875 C 269.496094 126.960938 269.9375 127.636719 270.488281 128.21875 C 270.699219 128.433594 270.921875 128.636719 271.160156 128.820312 L 271.550781 129.078125 C 271.917969 129.304688 272.3125 129.488281 272.71875 129.628906 L 272.921875 129.691406 L 273.230469 129.78125 L 273.550781 129.851562 C 273.878906 129.925781 274.214844 129.976562 274.550781 130 C 274.691406 130 274.839844 130 274.988281 130 L 275.550781 130 C 279.859375 129.941406 281.699219 127.808594 282.808594 125.628906 C 283.921875 123.449219 283.699219 120.410156 285.679688 120.378906 L 285.871094 120.378906 C 285.929688 120.371094 285.992188 120.371094 286.050781 120.378906 C 287.511719 120.699219 287.28125 123.5 288.160156 125.5 C 288.503906 126.289062 288.964844 127.019531 289.53125 127.671875 C 289.644531 127.789062 289.753906 127.898438 289.859375 128 L 290.039062 128.160156 L 290.21875 128.308594 L 290.390625 128.441406 L 290.578125 128.570312 L 290.71875 128.660156 L 290.820312 128.71875 C 291.347656 129.03125 291.921875 129.257812 292.519531 129.390625 L 292.679688 129.390625 C 293.371094 129.535156 294.074219 129.597656 294.78125 129.570312 C 297.488281 129.675781 299.960938 128.042969 300.929688 125.511719 C 301.621094 123.96875 301.929688 121.230469 302.269531 119.789062 C 302.335938 119.511719 302.464844 119.25 302.648438 119.03125 C 303.164062 118.433594 303.496094 117.699219 303.601562 116.921875 C 303.679688 116.230469 303.109375 115.410156 302.570312 115.351562 Z M 281.75 123.78125 C 281.496094 124.894531 280.960938 125.925781 280.199219 126.78125 C 278.953125 128.023438 277.238281 128.679688 275.480469 128.578125 C 273.71875 128.71875 272.015625 127.914062 271 126.46875 L 270.859375 126.261719 L 270.738281 126.050781 L 270.628906 125.851562 L 270.539062 125.671875 L 270.46875 125.519531 C 270.464844 125.480469 270.464844 125.441406 270.46875 125.398438 L 270.378906 125.179688 C 270.300781 124.972656 270.230469 124.761719 270.171875 124.550781 C 270.171875 124.421875 270.101562 124.289062 270.070312 124.171875 C 270.039062 124.050781 269.96875 123.738281 269.929688 123.558594 C 269.925781 123.523438 269.925781 123.488281 269.929688 123.449219 L 269.929688 123.339844 C 269.628906 121.828125 269.289062 118.878906 270.039062 118.199219 C 270.789062 117.519531 272.761719 116.78125 275.96875 117.039062 L 276.308594 117.039062 C 276.800781 117.089844 277.289062 117.167969 277.769531 117.269531 L 278.328125 117.398438 C 278.8125 117.523438 279.285156 117.671875 279.75 117.851562 L 280.191406 118.03125 C 280.347656 118.09375 280.5 118.167969 280.648438 118.25 C 280.683594 118.246094 280.71875 118.246094 280.75 118.25 L 280.921875 118.339844 C 281.289062 118.527344 281.609375 118.792969 281.859375 119.121094 C 282.371094 120.140625 282.140625 122.101562 281.75 123.78125 Z M 300.46875 122.78125 C 300.199219 123.960938 299.621094 126.511719 297.351562 127.660156 C 296.601562 128.027344 295.78125 128.226562 294.949219 128.238281 C 293.085938 128.464844 291.25 127.628906 290.199219 126.070312 L 290.109375 125.929688 L 290.019531 125.769531 L 289.96875 125.691406 L 289.851562 125.449219 L 289.730469 125.171875 L 289.671875 125.039062 L 289.671875 124.960938 C 289.675781 124.921875 289.675781 124.886719 289.671875 124.851562 L 289.671875 124.761719 C 289.546875 124.394531 289.453125 124.019531 289.390625 123.640625 C 289.089844 121.96875 288.949219 120.019531 289.570312 119.078125 C 290.191406 118.140625 292.570312 117.078125 294.859375 116.761719 C 295.347656 116.6875 295.835938 116.640625 296.328125 116.621094 L 298.03125 116.621094 C 298.277344 116.648438 298.527344 116.6875 298.769531 116.738281 L 299.109375 116.738281 L 299.28125 116.789062 L 299.488281 116.859375 C 299.609375 116.898438 299.726562 116.945312 299.839844 117 L 299.898438 117 C 300.1875 117.121094 300.449219 117.289062 300.679688 117.5 C 301.25 118.308594 300.808594 121.289062 300.46875 122.800781 Z M 300.46875 122.78125 "/>
<path style=" stroke:none;fill-rule:nonzero;fill:rgb(72.941176%,40.784314%,78.431373%);fill-opacity:1;" d="M 281.75 123.78125 C 281.496094 124.894531 280.960938 125.925781 280.199219 126.78125 C 278.953125 128.023438 277.238281 128.679688 275.480469 128.578125 C 273.71875 128.71875 272.015625 127.914062 271 126.46875 L 270.859375 126.261719 L 270.738281 126.050781 L 270.628906 125.851562 L 270.539062 125.671875 L 270.46875 125.519531 C 270.464844 125.480469 270.464844 125.441406 270.46875 125.398438 L 270.378906 125.179688 C 270.300781 124.972656 270.230469 124.761719 270.171875 124.550781 C 270.171875 124.421875 270.101562 124.289062 270.070312 124.171875 C 270.039062 124.050781 269.96875 123.738281 269.929688 123.558594 C 269.925781 123.523438 269.925781 123.488281 269.929688 123.449219 L 269.929688 123.339844 C 269.628906 121.828125 269.289062 118.878906 270.039062 118.199219 C 270.789062 117.519531 272.761719 116.78125 275.96875 117.039062 L 276.308594 117.039062 C 276.800781 117.089844 277.289062 117.167969 277.769531 117.269531 L 278.328125 117.398438 C 278.8125 117.523438 279.285156 117.671875 279.75 117.851562 L 280.191406 118.03125 C 280.347656 118.09375 280.5 118.167969 280.648438 118.25 C 280.683594 118.246094 280.71875 118.246094 280.75 118.25 L 280.921875 118.339844 C 281.289062 118.527344 281.609375 118.792969 281.859375 119.121094 C 282.371094 120.140625 282.140625 122.101562 281.75 123.78125 Z M 281.75 123.78125 "/>
<use xlink:href="#surface65" mask="url(#mask20)"/>
<path style=" stroke:none;fill-rule:nonzero;fill:rgb(72.941176%,40.784314%,78.431373%);fill-opacity:1;" d="M 300.46875 122.800781 C 300.199219 123.980469 299.621094 126.53125 297.351562 127.679688 C 296.601562 128.050781 295.78125 128.246094 294.949219 128.261719 C 293.085938 128.488281 291.25 127.648438 290.199219 126.089844 L 290.109375 125.949219 L 290.019531 125.789062 L 289.96875 125.710938 L 289.851562 125.46875 L 289.730469 125.191406 L 289.671875 125.058594 L 289.671875 124.980469 C 289.675781 124.945312 289.675781 124.90625 289.671875 124.871094 L 289.671875 124.78125 C 289.546875 124.414062 289.453125 124.039062 289.390625 123.660156 C 289.089844 121.988281 288.949219 120.039062 289.570312 119.101562 C 290.191406 118.160156 292.570312 117.101562 294.859375 116.78125 C 295.347656 116.707031 295.835938 116.660156 296.328125 116.640625 L 298.03125 116.640625 C 298.277344 116.667969 298.527344 116.707031 298.769531 116.761719 L 299.109375 116.761719 L 299.28125 116.808594 L 299.488281 116.878906 C 299.609375 116.917969 299.726562 116.964844 299.839844 117.019531 L 299.898438 117.019531 C 300.1875 117.140625 300.449219 117.308594 300.679688 117.519531 C 301.25 118.308594 300.808594 121.289062 300.46875 122.800781 Z M 300.46875 122.800781 "/>
<use xlink:href="#surface68" mask="url(#mask21)"/>
<path style=" stroke:none;fill-rule:nonzero;fill:rgb(94.901961%,56.078431%,56.078431%);fill-opacity:1;" d="M 284.941406 121.078125 L 285.5 132.691406 L 292.320312 130.980469 Z M 284.941406 121.078125 "/>
<path style=" stroke:none;fill-rule:nonzero;fill:rgb(21.568627%,27.843137%,30.980392%);fill-opacity:1;" d="M 242.050781 269.371094 C 242.050781 269.371094 257.28125 270.058594 265.820312 268.480469 C 265.820312 268.480469 274.71875 300.039062 275.191406 303.699219 C 275.660156 307.359375 260.339844 307.621094 257.238281 307.199219 C 254.140625 306.78125 251.75 306.351562 249.378906 298.300781 C 247.011719 290.25 243.078125 277.320312 242.050781 269.371094 Z M 242.050781 269.371094 "/>
<path style=" stroke:none;fill-rule:nonzero;fill:rgb(100%,65.882353%,65.490196%);fill-opacity:1;" d="M 246.78125 155 C 238 156.519531 234.839844 158.539062 232.171875 167.78125 C 229.308594 177.699219 221.308594 205.539062 219.460938 215.46875 C 218.328125 221.578125 216.570312 225.46875 221.75 229.46875 C 228.378906 234.621094 247.800781 248.871094 259.519531 255.011719 C 271.238281 261.148438 289.738281 261.261719 289.738281 261.261719 L 276.898438 253.488281 L 276.351562 248.789062 L 240.269531 218.730469 L 254.050781 178.160156 C 254.050781 178.160156 259.148438 158.921875 246.78125 155 Z M 246.78125 155 "/>
<path style=" stroke:none;fill-rule:nonzero;fill:rgb(72.941176%,40.784314%,78.431373%);fill-opacity:1;" d="M 265.179688 243.121094 L 265.179688 244.320312 C 265.148438 245.539062 265.769531 246.683594 266.808594 247.320312 L 298.808594 266.710938 C 299.847656 267.339844 301.144531 267.367188 302.210938 266.78125 L 362.480469 233.78125 C 363.550781 233.199219 364.226562 232.089844 364.25 230.871094 L 364.25 230.039062 L 300.53125 264.980469 Z M 265.179688 243.121094 "/>
<use xlink:href="#surface71" mask="url(#mask22)"/>
<use xlink:href="#surface74" mask="url(#mask23)"/>
<path style=" stroke:none;fill-rule:nonzero;fill:rgb(72.941176%,40.784314%,78.431373%);fill-opacity:1;" d="M 364.28125 230 L 329.441406 208.851562 C 328.820312 208.492188 328.058594 208.492188 327.441406 208.851562 L 265.441406 242.851562 C 265.300781 242.929688 265.214844 243.078125 265.214844 243.238281 C 265.214844 243.402344 265.300781 243.550781 265.441406 243.628906 L 300.609375 264.988281 Z M 364.28125 230 "/>
<use xlink:href="#surface77" mask="url(#mask24)"/>
<path style=" stroke:none;fill-rule:nonzero;fill:rgb(72.941176%,40.784314%,78.431373%);fill-opacity:1;" d="M 300.859375 261.609375 L 282.058594 250.210938 L 337.871094 219.621094 L 356.769531 230.960938 Z M 300.859375 261.609375 "/>
<use xlink:href="#surface80" mask="url(#mask25)"/>
<path style=" stroke:none;fill-rule:nonzero;fill:rgb(72.941176%,40.784314%,78.431373%);fill-opacity:1;" d="M 291.621094 231.179688 L 291.96875 231.390625 L 301.179688 236.980469 L 317.980469 227.761719 L 318.328125 227.578125 L 308.769531 221.78125 Z M 291.621094 231.179688 "/>
<path style=" stroke:none;fill-rule:nonzero;fill:rgb(72.941176%,40.784314%,78.431373%);fill-opacity:1;" d="M 291.96875 231.390625 L 301.179688 236.980469 L 317.980469 227.761719 L 308.761719 222.171875 Z M 291.96875 231.390625 "/>
<use xlink:href="#surface83" mask="url(#mask26)"/>
<path style=" stroke:none;fill-rule:nonzero;fill:rgb(72.941176%,40.784314%,78.431373%);fill-opacity:1;" d="M 300.558594 264.921875 L 300.511719 267.191406 C 301.105469 267.199219 301.695312 267.054688 302.21875 266.769531 L 362.488281 233.769531 C 363.5625 233.191406 364.238281 232.078125 364.261719 230.859375 L 364.261719 230.03125 Z M 300.558594 264.921875 "/>
<use xlink:href="#surface86" mask="url(#mask27)"/>
<use xlink:href="#surface89" mask="url(#mask28)"/>
<path style=" stroke:none;fill-rule:nonzero;fill:rgb(72.941176%,40.784314%,78.431373%);fill-opacity:1;" d="M 301.511719 265.449219 C 302.640625 265.914062 303.917969 265.84375 304.988281 265.261719 L 364.988281 232.351562 C 366.039062 231.773438 366.769531 230.757812 366.988281 229.578125 L 374.359375 191 C 374.398438 190.78125 374.421875 190.5625 374.429688 190.339844 C 374.457031 189.265625 374.050781 188.222656 373.300781 187.449219 L 310.941406 221.648438 C 310.171875 222.066406 309.625 222.796875 309.441406 223.648438 Z M 301.511719 265.449219 "/>
<use xlink:href="#surface92" mask="url(#mask29)"/>
<path style=" stroke:none;fill-rule:nonzero;fill:rgb(72.941176%,40.784314%,78.431373%);fill-opacity:1;" d="M 300.558594 264.929688 L 300.960938 265.171875 C 301.136719 265.273438 301.320312 265.367188 301.511719 265.449219 L 309.441406 223.730469 C 309.625 222.875 310.171875 222.148438 310.941406 221.730469 L 373.300781 187.53125 C 373.058594 187.28125 372.785156 187.066406 372.488281 186.890625 L 310 221.101562 C 309.226562 221.53125 308.679688 222.28125 308.511719 223.148438 Z M 300.558594 264.929688 "/>
<use xlink:href="#surface95" mask="url(#mask30)"/>
<path style=" stroke:none;fill-rule:nonzero;fill:rgb(72.941176%,40.784314%,78.431373%);fill-opacity:1;" d="M 310 222.46875 L 309.058594 221.890625 C 308.769531 222.257812 308.570312 222.691406 308.480469 223.148438 L 300.53125 264.929688 L 300.929688 265.171875 C 301.109375 265.273438 301.292969 265.367188 301.480469 265.449219 L 309.410156 223.730469 C 309.503906 223.269531 309.703125 222.835938 310 222.46875 Z M 310 222.46875 "/>
<use xlink:href="#surface98" mask="url(#mask31)"/>
<use xlink:href="#surface101" mask="url(#mask32)"/>
<path style=" stroke:none;fill-rule:nonzero;fill:rgb(27.058824%,35.294118%,39.215686%);fill-opacity:1;" d="M 335.671875 230.46875 C 336.160156 227.890625 338.910156 224.46875 341.808594 222.921875 C 344.710938 221.371094 346.660156 222.128906 346.171875 224.710938 C 345.679688 227.289062 342.929688 230.710938 340.03125 232.261719 C 337.128906 233.808594 335.179688 233.050781 335.671875 230.46875 Z M 335.671875 230.46875 "/>
<path style=" stroke:none;fill-rule:nonzero;fill:rgb(100%,65.882353%,65.490196%);fill-opacity:1;" d="M 264.910156 239.191406 C 268.261719 241.550781 271.910156 240.191406 276.339844 240.699219 C 280.769531 241.210938 284.609375 242.328125 288.179688 242.21875 C 291.75 242.109375 293.519531 242.851562 291.019531 245.710938 C 288.519531 248.570312 281.328125 246.929688 279.398438 247.800781 C 277.46875 248.671875 276.25 251.800781 278.488281 254.398438 C 280.589844 256.839844 266.488281 252.121094 264.660156 249.230469 C 262.828125 246.339844 262.359375 239.558594 264.910156 239.191406 Z M 264.910156 239.191406 "/>
<path style=" stroke:none;fill-rule:nonzero;fill:rgb(72.941176%,40.784314%,78.431373%);fill-opacity:1;" d="M 352.570312 114.140625 L 349.46875 105.320312 L 351.960938 98.121094 L 351.960938 93.71875 L 344.328125 98.121094 L 344.328125 102.53125 L 347.609375 111.210938 C 347.660156 111.296875 347.738281 111.363281 347.828125 111.398438 Z M 352.570312 114.140625 "/>
<use xlink:href="#surface104" mask="url(#mask33)"/>
<path style=" stroke:none;fill-rule:nonzero;fill:rgb(72.941176%,40.784314%,78.431373%);fill-opacity:1;" d="M 370.800781 58.679688 C 370.722656 57.054688 369.871094 55.566406 368.511719 54.679688 L 366.640625 53.601562 C 365.207031 52.863281 363.503906 52.863281 362.070312 53.601562 L 333.488281 70.171875 C 332.121094 71.050781 331.265625 72.542969 331.199219 74.171875 L 331.199219 105.621094 C 331.277344 107.242188 332.128906 108.730469 333.488281 109.621094 L 335.351562 110.699219 C 336.789062 111.429688 338.492188 111.429688 339.929688 110.699219 L 349.121094 105.390625 L 352.398438 114 C 352.496094 114.160156 352.675781 114.253906 352.863281 114.238281 C 353.054688 114.21875 353.214844 114.097656 353.28125 113.921875 L 356.738281 100.921875 L 368.511719 94.109375 C 369.871094 93.222656 370.722656 91.734375 370.800781 90.109375 Z M 370.800781 58.679688 "/>
<use xlink:href="#surface107" mask="url(#mask34)"/>
<use xlink:href="#surface110" mask="url(#mask35)"/>
<path style=" stroke:none;fill-rule:nonzero;fill:rgb(100%,100%,100%);fill-opacity:1;" d="M 365.679688 81 L 365.519531 81 L 363.328125 80.878906 C 363.234375 80.882812 363.136719 80.847656 363.070312 80.777344 C 363 80.710938 362.960938 80.617188 362.960938 80.519531 C 362.960938 80.179688 363.011719 79.828125 363.011719 79.519531 C 363.03125 79.15625 363.03125 78.792969 363.011719 78.429688 C 363.011719 78.195312 363.097656 77.96875 363.25 77.789062 L 365.691406 74.789062 C 365.839844 74.625 365.894531 74.394531 365.839844 74.179688 L 364.679688 71.621094 C 364.679688 71.621094 364.679688 71.550781 364.609375 71.539062 C 364.476562 71.496094 364.328125 71.539062 364.238281 71.648438 L 361.558594 74 C 361.414062 74.160156 361.175781 74.199219 360.988281 74.089844 C 360.65625 73.8125 360.277344 73.59375 359.871094 73.441406 C 359.6875 73.371094 359.578125 73.183594 359.609375 72.988281 L 360.421875 69.339844 C 360.445312 69.234375 360.394531 69.128906 360.300781 69.078125 C 360.222656 69.050781 360.136719 69.050781 360.058594 69.078125 L 357.511719 69.328125 C 357.269531 69.355469 357.054688 69.5 356.949219 69.71875 L 355.570312 73.429688 C 355.445312 73.667969 355.25 73.855469 355.011719 73.96875 C 354.460938 74.230469 353.929688 74.535156 353.429688 74.878906 C 353.21875 75.03125 352.980469 75.039062 352.890625 74.878906 L 351.578125 72.878906 C 351.488281 72.738281 351.28125 72.769531 351.109375 72.941406 L 348.308594 75.941406 C 348.148438 76.105469 348.066406 76.332031 348.089844 76.558594 L 348.871094 79.199219 C 348.910156 79.421875 348.859375 79.648438 348.730469 79.828125 C 348.257812 80.527344 347.828125 81.253906 347.441406 82 C 347.304688 82.222656 347.085938 82.386719 346.828125 82.449219 L 344.441406 83.03125 C 344.195312 83.085938 343.992188 83.253906 343.890625 83.480469 L 342.691406 87.539062 C 342.664062 87.632812 342.683594 87.730469 342.742188 87.804688 C 342.804688 87.878906 342.894531 87.917969 342.988281 87.910156 L 345.179688 88.03125 C 345.277344 88.027344 345.371094 88.0625 345.441406 88.132812 C 345.511719 88.199219 345.550781 88.292969 345.550781 88.390625 C 345.484375 89.09375 345.484375 89.796875 345.550781 90.5 C 345.546875 90.734375 345.460938 90.960938 345.308594 91.140625 L 342.871094 94.140625 C 342.722656 94.304688 342.664062 94.535156 342.71875 94.75 L 343.878906 97.308594 C 343.894531 97.34375 343.917969 97.375 343.949219 97.398438 C 343.980469 97.410156 344.011719 97.410156 344.039062 97.398438 C 344.144531 97.390625 344.246094 97.347656 344.320312 97.269531 L 346.929688 94.878906 C 347.078125 94.722656 347.3125 94.6875 347.5 94.789062 C 347.832031 95.0625 348.207031 95.28125 348.609375 95.441406 C 348.792969 95.507812 348.90625 95.695312 348.878906 95.890625 L 348.070312 99.550781 C 348.046875 99.648438 348.09375 99.75 348.179688 99.800781 C 348.257812 99.828125 348.34375 99.828125 348.421875 99.800781 L 350.96875 99.539062 C 351.210938 99.515625 351.421875 99.367188 351.53125 99.148438 L 352.921875 95.449219 C 353.035156 95.210938 353.230469 95.019531 353.46875 94.910156 C 353.738281 94.78125 354.011719 94.640625 354.28125 94.480469 C 354.542969 94.328125 354.800781 94.167969 355.050781 93.988281 C 355.269531 93.851562 355.511719 93.839844 355.601562 93.988281 L 356.910156 95.988281 C 356.917969 96.019531 356.941406 96.042969 356.96875 96.050781 C 357.078125 96.121094 357.238281 96.050781 357.378906 95.929688 L 360.179688 92.929688 C 360.34375 92.769531 360.421875 92.539062 360.390625 92.308594 L 359.609375 89.679688 C 359.578125 89.457031 359.632812 89.226562 359.761719 89.039062 C 360.234375 88.324219 360.664062 87.574219 361.039062 86.800781 C 361.179688 86.578125 361.398438 86.417969 361.648438 86.351562 L 364.050781 85.769531 C 364.292969 85.714844 364.492188 85.546875 364.589844 85.320312 L 365.800781 81.261719 C 365.8125 81.15625 365.765625 81.058594 365.679688 81 Z M 352.890625 90.898438 L 351.921875 90.898438 C 350.859375 90.914062 349.902344 90.269531 349.519531 89.28125 C 349.328125 88.859375 349.210938 88.410156 349.171875 87.949219 C 349.148438 87.699219 349.148438 87.449219 349.171875 87.199219 C 349.324219 84.484375 350.445312 81.910156 352.328125 79.949219 C 352.894531 79.339844 353.542969 78.8125 354.261719 78.390625 C 354.46875 78.265625 354.6875 78.152344 354.910156 78.058594 C 355.472656 77.796875 356.089844 77.660156 356.710938 77.671875 L 357 77.671875 C 357.902344 77.808594 358.664062 78.414062 359 79.261719 C 360.089844 81.648438 358.839844 85.828125 356.230469 88.589844 C 355.355469 89.660156 354.199219 90.460938 352.890625 90.898438 Z M 352.890625 90.898438 "/>
</g>
</svg>
