<?xml version="1.0" encoding="UTF-8"?>
<svg xmlns="http://www.w3.org/2000/svg" xmlns:xlink="http://www.w3.org/1999/xlink" width="500px" height="500px" viewBox="0 0 500 500" version="1.1">
<defs>
<filter id="alpha" filterUnits="objectBoundingBox" x="0%" y="0%" width="100%" height="100%">
  <feColorMatrix type="matrix" in="SourceGraphic" values="0 0 0 0 1 0 0 0 0 1 0 0 0 0 1 0 0 0 1 0"/>
</filter>
<mask id="mask0">
  <g filter="url(#alpha)">
<rect x="0" y="0" width="500" height="500" style="fill:rgb(0%,0%,0%);fill-opacity:0.14902;stroke:none;"/>
  </g>
</mask>
<clipPath id="clip1">
  <rect x="0" y="0" width="500" height="500"/>
</clipPath>
<g id="surface5" clip-path="url(#clip1)">
<path style=" stroke:none;fill-rule:nonzero;fill:rgb(0%,0%,0%);fill-opacity:1;" d="M 132.859375 189.898438 C 136.101562 188.851562 139.859375 189.671875 143.101562 188.898438 C 141.210938 188.460938 139.292969 188.160156 137.359375 188 C 132.726562 187.796875 128.230469 189.585938 125 192.910156 C 126.695312 195.003906 127.578125 197.636719 127.488281 200.328125 C 119.488281 202.511719 111.488281 191.730469 103.871094 195.011719 C 104.339844 198.898438 103.871094 204.128906 100.101562 205.011719 C 97.871094 205.511719 95.628906 204.011719 94.25 202.199219 C 92.871094 200.390625 92.019531 198.199219 90.628906 196.378906 C 86.597656 191.503906 79.523438 190.472656 74.269531 194 C 72.191406 195.511719 69.589844 197.789062 67.519531 196.28125 C 65.289062 194.671875 66.648438 190.28125 64.191406 189.070312 C 62.550781 188.25 60.261719 189.539062 58.890625 188.339844 C 58.378906 187.785156 58.050781 187.085938 57.949219 186.339844 C 56.949219 182.230469 56.128906 177.480469 58.71875 174.140625 C 61.019531 171.140625 65.890625 169.339844 65.371094 165.621094 C 64.921875 162.441406 60.878906 161.46875 57.679688 161.101562 C 54.480469 160.730469 50.449219 159.230469 50.609375 156.019531 C 50.769531 152.808594 55.039062 151.351562 55.671875 148.261719 C 55.929688 146.941406 55.488281 145.46875 56.089844 144.261719 C 57 142.449219 59.601562 142.378906 61.089844 141.039062 C 63.820312 138.621094 61.699219 134.101562 62.46875 130.539062 C 63.019531 128.019531 65.058594 126.039062 65.730469 123.539062 C 67.089844 118.539062 62.558594 113.839844 57.828125 111.808594 C 55.960938 111.152344 54.167969 110.308594 52.46875 109.289062 L 52.300781 109.160156 C 52.410156 111.410156 54.078125 113.5 56.179688 115.378906 C 60.109375 118.898438 58.03125 120.449219 57.519531 125.011719 C 57.269531 127.210938 57.769531 127.878906 55.808594 129.339844 C 52.089844 132.101562 50.019531 131.171875 51.058594 136.570312 C 52.058594 141.5 50.539062 139.808594 46.269531 141.648438 C 42.480469 143.28125 39.980469 147.359375 36.910156 149.898438 C 34.910156 151.539062 31.910156 152.800781 31.75 155.671875 C 31.390625 161.171875 38.230469 159.96875 41.480469 161.28125 C 46.789062 163.429688 45.210938 170.390625 41.058594 173 C 36.671875 175.75 30.269531 176.78125 29.921875 183.070312 C 29.648438 187.898438 32.390625 188.96875 36.140625 190.578125 C 39.140625 191.871094 38.75 192.25 38.738281 195.820312 C 38.738281 203.019531 41.160156 205.058594 48.261719 203.878906 C 50.199219 203.558594 53.171875 202.738281 55.109375 203.320312 C 57.820312 204.140625 56.910156 204.808594 56.980469 207.078125 C 57.179688 212.890625 63.980469 211.25 66.808594 208.761719 C 70.109375 205.898438 74.261719 202.570312 78.738281 202.128906 C 80.535156 201.953125 82.347656 202.277344 83.96875 203.070312 C 87.109375 204.589844 89.710938 207.011719 92.5 209.070312 C 95.289062 211.128906 98.5 213.070312 101.960938 213.160156 C 105.421875 213.25 109.210938 211.101562 109.839844 207.671875 C 109.878906 207.0625 110.03125 206.46875 110.289062 205.921875 C 111 205.015625 112.230469 204.699219 113.289062 205.148438 C 114.300781 205.605469 115.261719 206.164062 116.160156 206.808594 C 119.691406 208.890625 124.160156 208.421875 128.160156 207.808594 C 131.53125 207.320312 135.789062 205.808594 135.78125 202.421875 C 135.78125 200.199219 133.78125 198.550781 132.300781 196.941406 C 130.820312 195.328125 129.519531 192.738281 130.921875 191.011719 C 131.453125 190.46875 132.125 190.085938 132.859375 189.898438 Z M 132.859375 189.898438 "/>
</g>
<mask id="mask1">
  <g filter="url(#alpha)">
<rect x="0" y="0" width="500" height="500" style="fill:rgb(0%,0%,0%);fill-opacity:0.2;stroke:none;"/>
  </g>
</mask>
<clipPath id="clip2">
  <rect x="0" y="0" width="500" height="500"/>
</clipPath>
<g id="surface8" clip-path="url(#clip2)">
<path style=" stroke:none;fill-rule:nonzero;fill:rgb(0%,0%,0%);fill-opacity:1;" d="M 377 165.398438 C 377.25 180.128906 399.609375 222.578125 399.609375 222.578125 C 399.609375 222.578125 421 204.421875 420.71875 189.699219 L 420.71875 186.351562 C 420.46875 171.621094 410.480469 154.238281 398.398438 147.53125 C 386.320312 140.820312 376.71875 147.308594 376.96875 162.050781 Z M 387.851562 166.46875 C 387.738281 159.609375 392.550781 156.679688 398.578125 160.03125 C 405.039062 164.101562 409.175781 171.003906 409.71875 178.621094 C 409.839844 185.480469 405.03125 188.410156 398.988281 185.058594 C 392.519531 180.996094 388.371094 174.089844 387.820312 166.46875 Z M 387.851562 166.46875 "/>
</g>
<mask id="mask2">
  <g filter="url(#alpha)">
<rect x="0" y="0" width="500" height="500" style="fill:rgb(0%,0%,0%);fill-opacity:0.4;stroke:none;"/>
  </g>
</mask>
<clipPath id="clip3">
  <rect x="0" y="0" width="500" height="500"/>
</clipPath>
<g id="surface11" clip-path="url(#clip3)">
<path style=" stroke:none;fill-rule:nonzero;fill:rgb(0%,0%,0%);fill-opacity:1;" d="M 179.710938 315.871094 L 178.710938 315.871094 L 178.710938 275.261719 C 178.714844 274.164062 179.285156 273.144531 180.21875 272.570312 L 201 260.070312 C 201.613281 259.695312 201.992188 259.03125 202 258.308594 L 202 189.53125 C 202.003906 188.105469 202.765625 186.792969 204 186.078125 L 241.261719 163.71875 C 242.59375 162.914062 243.414062 161.46875 243.421875 159.910156 L 243.421875 139.480469 L 244.421875 139.480469 L 244.421875 159.910156 C 244.414062 161.820312 243.40625 163.585938 241.769531 164.570312 L 204.519531 186.929688 C 203.601562 187.472656 203.042969 188.464844 203.050781 189.53125 L 203.050781 258.308594 C 203.042969 259.378906 202.484375 260.371094 201.570312 260.929688 L 180.839844 273.429688 C 180.210938 273.824219 179.832031 274.515625 179.839844 275.261719 Z M 179.710938 315.871094 "/>
</g>
<mask id="mask3">
  <g filter="url(#alpha)">
<rect x="0" y="0" width="500" height="500" style="fill:rgb(0%,0%,0%);fill-opacity:0.4;stroke:none;"/>
  </g>
</mask>
<clipPath id="clip4">
  <rect x="0" y="0" width="500" height="500"/>
</clipPath>
<g id="surface14" clip-path="url(#clip4)">
<path style=" stroke:none;fill-rule:nonzero;fill:rgb(0%,0%,0%);fill-opacity:1;" d="M 314.558594 280.808594 C 314.558594 280.808594 315.730469 333.210938 317.25 342.808594 C 318.300781 349.378906 325.25 399.148438 325.25 399.148438 C 328.332031 400.765625 332.015625 400.734375 335.070312 399.070312 C 335.070312 399.070312 335.070312 397.320312 335.308594 394.46875 C 335.550781 391.621094 337.71875 367.308594 337.5 358.171875 C 337.417969 352.867188 336.375 347.621094 334.421875 342.691406 L 337.5 297.511719 L 338.929688 297.691406 C 338.929688 297.691406 338.859375 302.511719 339.460938 311.070312 C 339.460938 311.070312 340.601562 328.320312 341 331.710938 C 341.761719 338.03125 346 361.039062 347.238281 367.140625 C 348.359375 372.609375 350.179688 382.710938 350.179688 382.710938 C 352.851562 385.371094 358.671875 383.269531 358.671875 383.269531 C 358.671875 383.269531 358.960938 376.410156 359.261719 372.21875 C 359.558594 368.03125 360.839844 349.21875 360.328125 344.28125 C 359.621094 337.398438 356.808594 330.78125 357.058594 329.03125 C 358.519531 318.898438 358.660156 275.78125 358.660156 275.78125 Z M 314.558594 280.808594 "/>
</g>
<mask id="mask4">
  <g filter="url(#alpha)">
<rect x="0" y="0" width="500" height="500" style="fill:rgb(0%,0%,0%);fill-opacity:0.4;stroke:none;"/>
  </g>
</mask>
<clipPath id="clip5">
  <rect x="0" y="0" width="500" height="500"/>
</clipPath>
<g id="surface17" clip-path="url(#clip5)">
<path style=" stroke:none;fill-rule:nonzero;fill:rgb(0%,0%,0%);fill-opacity:1;" d="M 337.5 297.460938 L 338.929688 297.648438 C 338.929688 297.648438 338.851562 302.769531 339.488281 311.871094 C 339.488281 311.871094 339.769531 316.210938 340.109375 321.070312 L 342.449219 297.898438 C 346.800781 295.351562 350.59375 291.949219 353.601562 287.898438 C 344.101562 295.179688 337.5 297.429688 337.5 297.429688 Z M 337.5 297.460938 "/>
</g>
<mask id="mask5">
  <g filter="url(#alpha)">
<rect x="0" y="0" width="500" height="500" style="fill:rgb(0%,0%,0%);fill-opacity:0.4;stroke:none;"/>
  </g>
</mask>
<clipPath id="clip6">
  <rect x="0" y="0" width="500" height="500"/>
</clipPath>
<g id="surface20" clip-path="url(#clip6)">
<path style=" stroke:none;fill-rule:nonzero;fill:rgb(100%,100%,100%);fill-opacity:1;" d="M 314.441406 244.289062 L 314.441406 281 C 314.441406 281 327.539062 286.160156 339.960938 284.328125 C 352.378906 282.5 358.960938 275.589844 358.960938 275.589844 C 358.960938 275.589844 359.511719 227.171875 358.621094 221.289062 C 357.730469 215.410156 353.761719 212.621094 350.71875 211.949219 C 347.679688 211.28125 343.128906 212.539062 343.128906 212.539062 C 339.082031 214.746094 334.503906 215.785156 329.898438 215.539062 C 326.410156 216.699219 322.589844 218.539062 319.398438 219.738281 C 310.308594 223.289062 314.441406 244.289062 314.441406 244.289062 Z M 314.441406 244.289062 "/>
</g>
</defs>
<g id="surface1">
<path style=" stroke:none;fill-rule:nonzero;fill:rgb(96.078431%,96.078431%,96.078431%);fill-opacity:1;" d="M 465.988281 341.160156 C 465.988281 269.816406 368.523438 211.980469 248.289062 211.980469 C 128.058594 211.980469 30.589844 269.816406 30.589844 341.160156 C 30.589844 412.503906 128.058594 470.339844 248.289062 470.339844 C 368.523438 470.339844 465.988281 412.503906 465.988281 341.160156 Z M 465.988281 341.160156 "/>
<path style=" stroke:none;fill-rule:nonzero;fill:rgb(87.843137%,87.843137%,87.843137%);fill-opacity:1;" d="M 295.210938 308.320312 L 164.558594 383.789062 C 162.96875 384.601562 161.082031 384.601562 159.488281 383.789062 L 144 375.25 C 142.601562 374.441406 142.601562 373.128906 144 372.328125 L 274.691406 296.851562 C 276.28125 296.039062 278.167969 296.039062 279.761719 296.851562 L 295.261719 305.390625 C 296.609375 306.25 296.609375 307.511719 295.210938 308.320312 Z M 295.210938 308.320312 "/>
<path style=" stroke:none;fill-rule:nonzero;fill:rgb(87.843137%,87.843137%,87.843137%);fill-opacity:1;" d="M 384.820312 400.308594 C 384.820312 384.847656 361.75 372.308594 333.289062 372.308594 C 304.832031 372.308594 281.761719 384.847656 281.761719 400.308594 C 281.761719 415.773438 304.832031 428.308594 333.289062 428.308594 C 361.75 428.308594 384.820312 415.773438 384.820312 400.308594 Z M 384.820312 400.308594 "/>
<path style=" stroke:none;fill-rule:nonzero;fill:rgb(87.843137%,87.843137%,87.843137%);fill-opacity:1;" d="M 424.761719 315.871094 C 424.761719 309.304688 414.964844 303.980469 402.878906 303.980469 C 390.796875 303.980469 381 309.304688 381 315.871094 C 381 322.4375 390.796875 327.761719 402.878906 327.761719 C 414.964844 327.761719 424.761719 322.4375 424.761719 315.871094 Z M 424.761719 315.871094 "/>
<path style=" stroke:none;fill-rule:nonzero;fill:rgb(87.843137%,87.843137%,87.843137%);fill-opacity:1;" d="M 124.011719 322.25 C 124.011719 311.804688 108.429688 303.339844 89.210938 303.339844 C 69.992188 303.339844 54.410156 311.804688 54.410156 322.25 C 54.410156 332.695312 69.992188 341.160156 89.210938 341.160156 C 108.429688 341.160156 124.011719 332.695312 124.011719 322.25 Z M 124.011719 322.25 "/>
<path style=" stroke:none;fill-rule:nonzero;fill:rgb(87.843137%,87.843137%,87.843137%);fill-opacity:1;" d="M 373.890625 65.078125 L 380.628906 69 L 380.628906 63.621094 C 380.628906 60.511719 383.171875 59.441406 386.28125 61.230469 L 386.511719 61.371094 C 387.941406 62.226562 389.171875 63.378906 390.121094 64.75 C 390.289062 59.519531 394.699219 57.75 400.121094 60.851562 L 400.53125 61.089844 C 406.019531 64.261719 410.53125 71.351562 410.53125 76.828125 L 410.53125 86.191406 L 416.75 89.789062 C 419.390625 91.308594 421.550781 94.710938 421.550781 97.351562 C 421.550781 99.988281 419.390625 100.890625 416.75 99.351562 L 408.46875 94.570312 L 392.238281 85.199219 L 373.890625 74.660156 C 371.25 73.140625 369.089844 69.738281 369.089844 67.101562 C 369.089844 64.460938 371.25 63.558594 373.890625 65.078125 Z M 373.890625 65.078125 "/>
<path style=" stroke:none;fill-rule:nonzero;fill:rgb(87.843137%,87.843137%,87.843137%);fill-opacity:1;" d="M 421.570312 55.050781 L 426.21875 57.730469 L 426.21875 54 C 426.21875 51.859375 427.980469 51.121094 430.121094 52.359375 L 430.28125 52.449219 C 431.265625 53.042969 432.113281 53.84375 432.769531 54.789062 C 432.890625 51.179688 435.929688 49.960938 439.640625 52.101562 L 439.921875 52.261719 C 443.710938 54.449219 446.808594 59.328125 446.808594 63.121094 L 446.808594 69.570312 L 451.101562 72.050781 C 452.964844 73.171875 454.1875 75.105469 454.398438 77.269531 C 454.398438 79.089844 452.921875 79.710938 451.101562 78.660156 L 445.378906 75.371094 L 434.179688 69 L 421.570312 61.71875 C 419.707031 60.605469 418.484375 58.671875 418.269531 56.511719 C 418.269531 54.628906 419.75 54 421.570312 55.050781 Z M 421.570312 55.050781 "/>
<path style=" stroke:none;fill-rule:nonzero;fill:rgb(72.941176%,40.784314%,78.431373%);fill-opacity:1;" d="M 78.75 202.160156 C 80.546875 201.984375 82.359375 202.308594 83.980469 203.101562 C 87.121094 204.621094 89.71875 207.039062 92.511719 209.101562 C 95.300781 211.160156 98.511719 213.101562 101.96875 213.191406 C 105.429688 213.28125 109.21875 211.128906 109.851562 207.699219 C 109.890625 207.09375 110.042969 206.5 110.300781 205.949219 C 111.011719 205.046875 112.242188 204.730469 113.300781 205.179688 C 114.308594 205.636719 115.269531 206.191406 116.171875 206.839844 C 119.699219 208.921875 124.171875 208.449219 128.171875 207.839844 C 131.539062 207.351562 135.800781 205.839844 135.789062 202.449219 C 135.789062 200.230469 133.789062 198.578125 132.308594 196.96875 C 130.828125 195.359375 129.53125 192.769531 130.929688 191.039062 C 131.46875 190.457031 132.160156 190.039062 132.929688 189.839844 C 137.148438 188.46875 142.320312 190.300781 145.929688 187.660156 C 148.570312 185.660156 149.191406 181.660156 147.800781 178.730469 C 146.238281 175.777344 143.460938 173.660156 140.199219 172.941406 C 137.371094 172.21875 133.769531 171.890625 132.710938 169.160156 C 131.789062 166.769531 133.648438 164.160156 135.710938 162.71875 C 137.769531 161.28125 140.339844 160.21875 141.800781 158.121094 C 143.261719 155.832031 143.339844 152.921875 142 150.558594 C 140.617188 148.253906 138.300781 146.664062 135.648438 146.199219 C 134.332031 146.101562 133.03125 145.820312 131.789062 145.359375 C 130.609375 144.761719 129.71875 143.269531 130.359375 142.109375 C 130.738281 141.410156 131.550781 141.050781 132.011719 140.398438 C 132.898438 139.148438 132.128906 137.289062 130.871094 136.398438 C 129.523438 135.640625 128.070312 135.082031 126.558594 134.75 C 123.5 133.75 120.558594 130.75 121.441406 127.671875 C 122.320312 124.589844 126.78125 123.410156 128.078125 120.308594 C 129.238281 117.578125 127.410156 114.378906 124.949219 112.710938 C 122.488281 111.039062 119.429688 110.410156 116.75 109.140625 C 114.070312 107.871094 111.46875 105.628906 111.25 102.660156 C 111.03125 99.691406 113.25 97.070312 115.160156 94.660156 C 117.070312 92.25 118.589844 88.871094 116.96875 86.300781 C 115.351562 83.730469 111.96875 83.679688 109.160156 82.789062 C 105.726562 81.683594 102.925781 79.160156 101.46875 75.859375 C 100.730469 74.140625 100.371094 72.269531 99.46875 70.628906 C 96.75 65.519531 89.75 63.289062 84.371094 63.910156 C 81.550781 64.289062 80.609375 65.289062 79.238281 67.390625 C 78.449219 68.621094 77.640625 69.238281 77.359375 70.929688 C 76.949219 73.398438 78.261719 76.53125 75.929688 78.421875 C 72.390625 81.28125 66.929688 77.421875 67.171875 83.828125 C 67.160156 86.542969 67.5625 89.238281 68.359375 91.828125 C 69.359375 94.519531 71.25 95.679688 69.648438 98.699219 C 67.570312 102.601562 66.210938 102.578125 62.050781 102.570312 C 59.050781 102.570312 56.519531 102.398438 54.308594 104.691406 C 50.421875 108.691406 52.730469 112.339844 56.179688 115.441406 C 60.109375 118.960938 58.03125 120.511719 57.519531 125.070312 C 57.269531 127.269531 57.769531 127.941406 55.808594 129.398438 C 52.089844 132.160156 50.019531 131.230469 51.058594 136.628906 C 52.058594 141.558594 50.539062 139.871094 46.269531 141.710938 C 42.480469 143.339844 39.980469 147.421875 36.910156 149.960938 C 34.910156 151.601562 31.910156 152.859375 31.75 155.730469 C 31.390625 161.230469 38.230469 160.03125 41.480469 161.339844 C 46.789062 163.488281 45.210938 170.449219 41.058594 173.058594 C 36.671875 175.808594 30.269531 176.839844 29.921875 183.128906 C 29.648438 187.960938 32.390625 189.03125 36.140625 190.640625 C 39.140625 191.929688 38.75 192.308594 38.738281 195.878906 C 38.738281 203.078125 41.160156 205.121094 48.261719 203.941406 C 50.199219 203.621094 53.171875 202.800781 55.109375 203.378906 C 57.820312 204.199219 56.910156 204.871094 56.980469 207.140625 C 57.179688 212.949219 63.980469 211.308594 66.808594 208.820312 C 70.109375 205.929688 74.261719 202.601562 78.75 202.160156 Z M 78.75 202.160156 "/>
<use xlink:href="#surface5" mask="url(#mask0)"/>
<path style=" stroke:none;fill-rule:nonzero;fill:rgb(27.058824%,35.294118%,39.215686%);fill-opacity:1;" d="M 64.75 135.089844 L 86.609375 178.429688 L 86.609375 158.488281 L 88.839844 106.660156 L 92.070312 158.488281 L 92.070312 171.898438 L 116.070312 129.898438 L 92.070312 181.460938 L 92.070312 325.699219 C 92.019531 326.183594 91.714844 326.609375 91.269531 326.808594 C 90.054688 327.421875 88.625 327.421875 87.410156 326.808594 C 86.960938 326.613281 86.652344 326.1875 86.609375 325.699219 L 86.609375 189.488281 Z M 64.75 135.089844 "/>
<path style=" stroke:none;fill-rule:nonzero;fill:rgb(72.941176%,40.784314%,78.431373%);fill-opacity:1;" d="M 407.558594 142.519531 C 401.558594 139.050781 396.058594 138.921875 392.128906 141.519531 L 384.480469 146 C 379.761719 148.21875 376.828125 153.871094 376.96875 162.101562 L 376.96875 165.449219 C 377.199219 179.261719 396.890625 217.449219 399.328125 222.160156 L 398.890625 222.628906 L 399.421875 222.328125 L 399.578125 222.628906 C 399.578125 222.628906 400.050781 222.230469 400.851562 221.5 L 407.558594 217.628906 C 407.558594 217.628906 429.21875 199.78125 429.21875 185.109375 L 429.21875 181.761719 C 429.21875 167 419.519531 149.429688 407.558594 142.519531 Z M 398.558594 160.03125 C 405.019531 164.101562 409.15625 171.003906 409.699219 178.621094 C 409.710938 179.402344 409.65625 180.1875 409.53125 180.960938 C 408.835938 180.714844 408.167969 180.40625 407.53125 180.039062 C 401.148438 175.863281 397.144531 168.894531 396.75 161.28125 L 396.691406 161.28125 C 396.695312 160.609375 396.75 159.941406 396.859375 159.28125 C 397.4375 159.484375 398.003906 159.722656 398.550781 160 Z M 398.558594 160.03125 "/>
<use xlink:href="#surface8" mask="url(#mask1)"/>
<path style=" stroke:none;fill-rule:nonzero;fill:rgb(27.058824%,35.294118%,39.215686%);fill-opacity:1;" d="M 274.828125 58.21875 L 170.730469 118.820312 C 167.632812 120.625 165.726562 123.945312 165.730469 127.53125 L 165.730469 371.910156 C 165.726562 373.238281 166.4375 374.464844 167.585938 375.125 C 168.738281 375.785156 170.15625 375.78125 171.300781 375.109375 L 274.171875 315.230469 C 277.347656 313.378906 279.304688 309.976562 279.300781 306.300781 L 279.300781 60.789062 C 279.285156 59.734375 278.710938 58.761719 277.796875 58.234375 C 276.878906 57.707031 275.75 57.703125 274.828125 58.21875 Z M 274.828125 58.21875 "/>
<path style=" stroke:none;fill-rule:nonzero;fill:rgb(21.568627%,27.843137%,30.980392%);fill-opacity:1;" d="M 279.289062 60.78125 L 279.289062 61.109375 C 279.289062 60.921875 279.289062 60.730469 279.289062 60.539062 C 279.300781 60.621094 279.300781 60.699219 279.289062 60.78125 Z M 279.289062 60.78125 "/>
<path style=" stroke:none;fill-rule:nonzero;fill:rgb(100%,100%,100%);fill-opacity:1;" d="M 271.71875 93 L 173.910156 149.898438 C 171.605469 151.242188 170.191406 153.707031 170.191406 156.371094 L 170.191406 338.511719 C 170.191406 339.160156 170.539062 339.761719 171.101562 340.082031 C 171.667969 340.40625 172.359375 340.398438 172.921875 340.070312 L 271.578125 282.699219 C 273.367188 281.667969 274.464844 279.761719 274.460938 277.699219 L 274.460938 94.609375 C 274.472656 93.949219 274.132812 93.335938 273.5625 93 C 272.992188 92.667969 272.289062 92.667969 271.71875 93 Z M 271.71875 93 "/>
<path style=" stroke:none;fill-rule:nonzero;fill:rgb(21.568627%,27.843137%,30.980392%);fill-opacity:1;" d="M 171.28125 375.109375 C 171.125 375.207031 170.960938 375.285156 170.789062 375.351562 C 171 375.269531 171.121094 375.210938 171.28125 375.109375 Z M 171.28125 375.109375 "/>
<path style=" stroke:none;fill-rule:nonzero;fill:rgb(14.901961%,19.607843%,21.960784%);fill-opacity:1;" d="M 279.230469 60.148438 C 279.015625 59.230469 278.378906 58.464844 277.511719 58.082031 C 276.648438 57.703125 275.652344 57.753906 274.828125 58.21875 L 170.738281 118.820312 C 167.652344 120.632812 165.753906 123.941406 165.738281 127.519531 L 165.738281 371.910156 C 165.746094 373.136719 166.355469 374.28125 167.367188 374.96875 C 168.378906 375.660156 169.667969 375.804688 170.808594 375.359375 C 165.039062 378.199219 157.558594 373.488281 157.558594 373.488281 C 153.574219 371.402344 151.101562 367.25 151.171875 362.75 L 151.171875 118.371094 C 151.175781 114.785156 153.078125 111.472656 156.171875 109.660156 L 260.261719 49.070312 C 260.261719 49.070312 264.511719 46.378906 271.921875 51.070312 C 271.921875 51.070312 278.53125 54.601562 279.230469 60.148438 Z M 279.230469 60.148438 "/>
<path style=" stroke:none;fill-rule:nonzero;fill:rgb(21.568627%,27.843137%,30.980392%);fill-opacity:1;" d="M 279.230469 60.148438 C 279.015625 59.230469 278.378906 58.464844 277.511719 58.082031 C 276.648438 57.703125 275.652344 57.753906 274.828125 58.21875 L 170.738281 118.820312 C 169.335938 119.632812 168.152344 120.773438 167.289062 122.148438 L 152.460938 113.410156 C 153.335938 111.855469 154.609375 110.558594 156.148438 109.660156 L 260.261719 49.070312 C 260.261719 49.070312 264.511719 46.378906 271.921875 51.070312 C 271.921875 51.070312 278.53125 54.601562 279.230469 60.148438 Z M 279.230469 60.148438 "/>
<path style=" stroke:none;fill-rule:nonzero;fill:rgb(21.568627%,27.843137%,30.980392%);fill-opacity:1;" d="M 208.800781 118.609375 C 208.550781 121.167969 207.097656 123.457031 204.890625 124.769531 C 202.730469 126.019531 200.980469 125.28125 200.980469 123.121094 C 201.234375 120.558594 202.683594 118.269531 204.890625 116.949219 C 207.050781 115.710938 208.800781 116.449219 208.800781 118.609375 Z M 208.800781 118.609375 "/>
<path style=" stroke:none;fill-rule:nonzero;fill:rgb(21.568627%,27.843137%,30.980392%);fill-opacity:1;" d="M 229.351562 325.570312 C 229.351562 329.460938 226.199219 334.421875 222.351562 336.671875 C 218.5 338.921875 215.351562 337.578125 215.351562 333.671875 C 215.351562 329.761719 218.5 324.820312 222.351562 322.578125 C 226.199219 320.339844 229.351562 321.691406 229.351562 325.570312 Z M 229.351562 325.570312 "/>
<path style=" stroke:none;fill-rule:nonzero;fill:rgb(27.058824%,35.294118%,39.215686%);fill-opacity:1;" d="M 154.75 160.289062 C 154.964844 162.507812 156.21875 164.488281 158.128906 165.628906 C 160 166.710938 161.519531 166.070312 161.519531 164.199219 C 161.304688 161.980469 160.046875 160 158.128906 158.859375 C 156.261719 157.78125 154.75 158.421875 154.75 160.289062 Z M 154.75 160.289062 "/>
<path style=" stroke:none;fill-rule:nonzero;fill:rgb(27.058824%,35.294118%,39.215686%);fill-opacity:1;" d="M 154.75 183.109375 C 154.964844 185.328125 156.21875 187.308594 158.128906 188.449219 C 160 189.53125 161.519531 188.890625 161.519531 187.019531 C 161.304688 184.800781 160.046875 182.820312 158.128906 181.679688 C 156.261719 180.601562 154.75 181.238281 154.75 183.109375 Z M 154.75 183.109375 "/>
<path style=" stroke:none;fill-rule:nonzero;fill:rgb(21.568627%,27.843137%,30.980392%);fill-opacity:1;" d="M 224.121094 98.539062 C 224.003906 99.726562 223.332031 100.789062 222.308594 101.398438 C 221.308594 101.980469 220.5 101.640625 220.5 100.640625 C 220.617188 99.453125 221.289062 98.394531 222.308594 97.78125 C 223.308594 97.199219 224.121094 97.539062 224.121094 98.539062 Z M 224.121094 98.539062 "/>
<path style=" stroke:none;fill-rule:nonzero;fill:rgb(21.568627%,27.843137%,30.980392%);fill-opacity:1;" d="M 216.398438 117.109375 L 240.78125 102.921875 C 242.089844 102.152344 242.898438 100.75 242.898438 99.230469 C 242.902344 98.554688 242.542969 97.929688 241.957031 97.59375 C 241.375 97.257812 240.652344 97.257812 240.070312 97.601562 L 215.679688 111.789062 C 214.367188 112.554688 213.5625 113.960938 213.558594 115.480469 C 213.5625 116.15625 213.921875 116.777344 214.507812 117.117188 C 215.09375 117.453125 215.816406 117.449219 216.398438 117.109375 Z M 216.398438 117.109375 "/>
<path style=" stroke:none;fill-rule:nonzero;fill:rgb(87.843137%,87.843137%,87.843137%);fill-opacity:1;" d="M 198.589844 135.550781 L 198.589844 180.699219 C 198.59375 182.734375 197.921875 184.710938 196.679688 186.320312 L 170.199219 220.910156 L 170.199219 156.371094 C 170.191406 153.707031 171.605469 151.238281 173.910156 149.898438 Z M 198.589844 135.550781 "/>
<path style=" stroke:none;fill-rule:nonzero;fill:rgb(87.843137%,87.843137%,87.843137%);fill-opacity:1;" d="M 207.871094 180.378906 L 237 163.480469 C 238.902344 162.367188 240.070312 160.332031 240.070312 158.128906 L 240.070312 111.460938 L 205.128906 131.78125 L 205.128906 178.78125 C 205.136719 179.429688 205.484375 180.027344 206.046875 180.355469 C 206.609375 180.683594 207.300781 180.691406 207.871094 180.378906 Z M 207.871094 180.378906 "/>
<path style=" stroke:none;fill-rule:nonzero;fill:rgb(87.843137%,87.843137%,87.843137%);fill-opacity:1;" d="M 240 172.480469 L 240 199.410156 C 239.996094 200.554688 239.386719 201.613281 238.398438 202.191406 L 219.898438 213 C 219.039062 213.507812 218.511719 214.429688 218.511719 215.429688 L 218.511719 232.949219 C 218.503906 234.15625 217.863281 235.269531 216.820312 235.878906 L 206.609375 241.808594 C 206.296875 242.007812 205.898438 242.015625 205.578125 241.828125 C 205.253906 241.640625 205.0625 241.292969 205.078125 240.921875 L 205.078125 193 C 205.078125 191.480469 205.886719 190.078125 207.199219 189.320312 L 238 171.339844 C 238.410156 171.09375 238.917969 171.089844 239.332031 171.324219 C 239.75 171.5625 240.003906 172.003906 240 172.480469 Z M 240 172.480469 "/>
<path style=" stroke:none;fill-rule:nonzero;fill:rgb(87.843137%,87.843137%,87.843137%);fill-opacity:1;" d="M 223.550781 215.449219 L 238.921875 206.5 C 239.148438 206.367188 239.429688 206.367188 239.660156 206.5 C 239.886719 206.632812 240.03125 206.875 240.03125 207.140625 L 240.03125 220.820312 C 240.027344 221.765625 239.527344 222.636719 238.710938 223.109375 L 223.710938 231.839844 C 223.464844 231.976562 223.164062 231.976562 222.917969 231.832031 C 222.675781 231.691406 222.523438 231.433594 222.519531 231.148438 L 222.519531 217.28125 C 222.515625 216.53125 222.90625 215.835938 223.550781 215.449219 Z M 223.550781 215.449219 "/>
<path style=" stroke:none;fill-rule:nonzero;fill:rgb(87.843137%,87.843137%,87.843137%);fill-opacity:1;" d="M 223.550781 241.761719 L 238.921875 232.808594 C 239.148438 232.679688 239.425781 232.675781 239.65625 232.808594 C 239.882812 232.9375 240.027344 233.175781 240.03125 233.441406 L 240.03125 247.121094 C 240.035156 248.066406 239.53125 248.9375 238.710938 249.410156 L 223.710938 258.140625 C 223.464844 258.285156 223.160156 258.285156 222.914062 258.140625 C 222.667969 258 222.515625 257.734375 222.519531 257.449219 L 222.519531 243.589844 C 222.515625 242.839844 222.90625 242.144531 223.550781 241.761719 Z M 223.550781 241.761719 "/>
<path style=" stroke:none;fill-rule:nonzero;fill:rgb(87.843137%,87.843137%,87.843137%);fill-opacity:1;" d="M 223.550781 262.71875 L 238.921875 253.71875 C 239.148438 253.585938 239.429688 253.585938 239.660156 253.71875 C 239.886719 253.851562 240.03125 254.097656 240.03125 254.359375 L 240.03125 276.359375 C 240.027344 277.304688 239.527344 278.175781 238.710938 278.648438 L 223.710938 287.378906 C 223.464844 287.523438 223.160156 287.523438 222.914062 287.382812 C 222.667969 287.238281 222.515625 286.976562 222.519531 286.691406 L 222.519531 264.550781 C 222.515625 263.800781 222.90625 263.105469 223.550781 262.71875 Z M 223.550781 262.71875 "/>
<path style=" stroke:none;fill-rule:nonzero;fill:rgb(87.843137%,87.843137%,87.843137%);fill-opacity:1;" d="M 243.820312 286.71875 L 243.820312 298.851562 L 207.488281 320 L 207.488281 307.621094 C 207.492188 306.191406 208.253906 304.875 209.488281 304.160156 L 242.300781 285.851562 C 242.609375 285.660156 243 285.65625 243.316406 285.835938 C 243.632812 286.015625 243.824219 286.355469 243.820312 286.71875 Z M 243.820312 286.71875 "/>
<path style=" stroke:none;fill-rule:nonzero;fill:rgb(87.843137%,87.843137%,87.843137%);fill-opacity:1;" d="M 198.589844 197.878906 L 198.589844 255.171875 C 198.585938 256.859375 197.683594 258.421875 196.21875 259.269531 L 170.21875 274.398438 L 170.21875 232.578125 L 197.21875 197.390625 C 197.4375 197.164062 197.769531 197.089844 198.0625 197.195312 C 198.355469 197.300781 198.5625 197.566406 198.589844 197.878906 Z M 198.589844 197.878906 "/>
<path style=" stroke:none;fill-rule:nonzero;fill:rgb(87.843137%,87.843137%,87.843137%);fill-opacity:1;" d="M 274.46875 94.609375 L 274.46875 121.609375 L 249.238281 136 C 248.792969 136.257812 248.246094 136.257812 247.796875 136 C 247.351562 135.742188 247.078125 135.265625 247.078125 134.75 L 247.078125 107.351562 L 271.71875 93 C 272.289062 92.667969 272.996094 92.667969 273.566406 93.003906 C 274.132812 93.335938 274.480469 93.949219 274.46875 94.609375 Z M 274.46875 94.609375 "/>
<path style=" stroke:none;fill-rule:nonzero;fill:rgb(87.843137%,87.843137%,87.843137%);fill-opacity:1;" d="M 274.46875 138.410156 L 274.46875 202.289062 L 248.671875 217.289062 C 248.34375 217.480469 247.941406 217.480469 247.613281 217.292969 C 247.285156 217.105469 247.082031 216.757812 247.078125 216.378906 L 247.078125 167.449219 C 247.082031 165.734375 247.78125 164.09375 249.019531 162.910156 Z M 274.46875 138.410156 "/>
<path style=" stroke:none;fill-rule:nonzero;fill:rgb(87.843137%,87.843137%,87.843137%);fill-opacity:1;" d="M 274.460938 125.378906 L 248.460938 141.449219 C 247.59375 141.980469 247.070312 142.925781 247.070312 143.941406 L 247.070312 154.21875 C 247.066406 154.574219 247.273438 154.890625 247.597656 155.03125 C 247.921875 155.167969 248.296875 155.097656 248.550781 154.851562 L 274.460938 130.21875 Z M 274.460938 125.378906 "/>
<path style=" stroke:none;fill-rule:nonzero;fill:rgb(87.843137%,87.843137%,87.843137%);fill-opacity:1;" d="M 218.511719 246.851562 L 218.511719 288 C 218.507812 289.480469 217.722656 290.847656 216.441406 291.589844 L 184.769531 310 C 184.460938 310.179688 184.078125 310.179688 183.769531 310 C 183.457031 309.820312 183.269531 309.488281 183.269531 309.128906 L 183.269531 277.339844 C 183.269531 276.390625 183.773438 275.511719 184.589844 275.03125 L 203.75 263.859375 C 204.574219 263.382812 205.082031 262.503906 205.078125 261.550781 L 205.078125 253.871094 C 205.078125 252.886719 205.601562 251.976562 206.449219 251.480469 L 216.449219 245.671875 C 216.871094 245.417969 217.398438 245.410156 217.824219 245.65625 C 218.253906 245.902344 218.515625 246.359375 218.511719 246.851562 Z M 218.511719 246.851562 "/>
<path style=" stroke:none;fill-rule:nonzero;fill:rgb(87.843137%,87.843137%,87.843137%);fill-opacity:1;" d="M 200.570312 311.871094 L 200.570312 324 L 172.910156 340.078125 C 172.347656 340.402344 171.65625 340.398438 171.097656 340.074219 C 170.539062 339.746094 170.195312 339.148438 170.199219 338.5 L 170.199219 283.421875 L 173.691406 281.421875 C 173.996094 281.25 174.371094 281.257812 174.671875 281.433594 C 174.976562 281.609375 175.164062 281.929688 175.171875 282.28125 L 175.171875 320.808594 C 175.171875 321.339844 175.453125 321.832031 175.910156 322.101562 C 176.367188 322.371094 176.933594 322.378906 177.398438 322.121094 L 198.199219 310.519531 C 198.6875 310.246094 199.28125 310.246094 199.765625 310.523438 C 200.253906 310.800781 200.558594 311.3125 200.570312 311.871094 Z M 200.570312 311.871094 "/>
<path style=" stroke:none;fill-rule:nonzero;fill:rgb(87.843137%,87.843137%,87.843137%);fill-opacity:1;" d="M 274.46875 212.109375 L 274.46875 275.359375 L 251.210938 289 C 250.691406 289.308594 250.042969 289.316406 249.515625 289.015625 C 248.992188 288.714844 248.667969 288.15625 248.671875 287.550781 L 248.671875 229.640625 C 248.675781 228.09375 249.496094 226.664062 250.828125 225.878906 Z M 274.46875 212.109375 "/>
<path style=" stroke:none;fill-rule:nonzero;fill:rgb(72.941176%,40.784314%,78.431373%);fill-opacity:1;" d="M 179.710938 315.871094 L 178.710938 315.871094 L 178.710938 275.261719 C 178.714844 274.164062 179.285156 273.144531 180.21875 272.570312 L 201 260.070312 C 201.613281 259.695312 201.992188 259.03125 202 258.308594 L 202 189.53125 C 202.003906 188.105469 202.765625 186.792969 204 186.078125 L 241.261719 163.71875 C 242.59375 162.914062 243.414062 161.46875 243.421875 159.910156 L 243.421875 139.480469 L 244.421875 139.480469 L 244.421875 159.910156 C 244.414062 161.820312 243.40625 163.585938 241.769531 164.570312 L 204.519531 186.929688 C 203.601562 187.472656 203.042969 188.464844 203.050781 189.53125 L 203.050781 258.308594 C 203.042969 259.378906 202.484375 260.371094 201.570312 260.929688 L 180.839844 273.429688 C 180.210938 273.824219 179.832031 274.515625 179.839844 275.261719 Z M 179.710938 315.871094 "/>
<use xlink:href="#surface11" mask="url(#mask2)"/>
<path style=" stroke:none;fill-rule:nonzero;fill:rgb(72.941176%,40.784314%,78.431373%);fill-opacity:1;" d="M 181.910156 314 C 181.738281 315.769531 180.734375 317.355469 179.210938 318.269531 C 177.710938 319.128906 176.5 318.621094 176.5 317.121094 C 176.675781 315.351562 177.679688 313.769531 179.210938 312.859375 C 180.699219 312 181.910156 312.511719 181.910156 314 Z M 181.910156 314 "/>
<path style=" stroke:none;fill-rule:nonzero;fill:rgb(72.941176%,40.784314%,78.431373%);fill-opacity:1;" d="M 246.429688 137.921875 C 246.253906 139.6875 245.253906 141.273438 243.730469 142.191406 C 242.230469 143.050781 241.019531 142.539062 241.019531 141.039062 C 241.195312 139.269531 242.199219 137.6875 243.730469 136.78125 C 245.21875 135.921875 246.429688 136.429688 246.429688 137.921875 Z M 246.429688 137.921875 "/>
<path style=" stroke:none;fill-rule:nonzero;fill:rgb(72.941176%,40.784314%,78.431373%);fill-opacity:1;" d="M 252.371094 122.261719 C 253.496094 120.574219 254.234375 118.65625 254.53125 116.648438 C 255.101562 111.78125 251.339844 109.648438 246.148438 111.910156 C 240.960938 114.171875 236.269531 119.910156 235.699219 124.800781 C 235.417969 126.285156 235.78125 127.820312 236.699219 129.019531 L 236.761719 129.070312 C 236.917969 129.246094 237.089844 129.402344 237.28125 129.539062 L 242.71875 134.449219 C 243.078125 134.769531 243.890625 134.449219 244.359375 133.738281 L 251.53125 123.410156 C 251.820312 123.03125 252.089844 122.648438 252.339844 122.261719 Z M 245.640625 116.261719 C 248.261719 115.121094 250.148438 116.191406 249.871094 118.648438 C 249.589844 121.109375 247.230469 124.019531 244.609375 125.148438 C 241.988281 126.28125 240.101562 125.21875 240.378906 122.761719 C 240.660156 120.300781 243 117.410156 245.640625 116.28125 Z M 245.640625 116.261719 "/>
<path style=" stroke:none;fill-rule:nonzero;fill:rgb(72.941176%,40.784314%,78.431373%);fill-opacity:1;" d="M 220.46875 249.359375 L 210.46875 255.121094 C 209.917969 255.433594 209.578125 256.023438 209.578125 256.660156 L 209.578125 267.738281 C 209.578125 267.886719 209.65625 268.019531 209.78125 268.09375 C 209.90625 268.167969 210.0625 268.171875 210.191406 268.101562 L 213.589844 266.101562 L 214.769531 268.101562 C 214.800781 268.15625 214.855469 268.191406 214.921875 268.191406 C 214.984375 268.191406 215.039062 268.15625 215.070312 268.101562 L 216.148438 264.679688 L 220.148438 262.398438 C 220.816406 262.011719 221.226562 261.300781 221.230469 260.53125 L 221.230469 249.78125 C 221.242188 249.59375 221.144531 249.417969 220.984375 249.328125 C 220.820312 249.238281 220.621094 249.25 220.46875 249.359375 Z M 220.46875 249.359375 "/>
<path style=" stroke:none;fill-rule:nonzero;fill:rgb(100%,100%,100%);fill-opacity:1;" d="M 212.71875 261 L 212.71875 262.171875 L 212.101562 262.519531 L 212.101562 261.359375 L 210.800781 259.960938 L 211.460938 259.578125 L 212.460938 260.628906 L 213.460938 258.449219 L 214.058594 258.101562 Z M 212.71875 261 "/>
<path style=" stroke:none;fill-rule:nonzero;fill:rgb(100%,100%,100%);fill-opacity:1;" d="M 214.519531 261 C 214.339844 261.019531 214.160156 260.953125 214.039062 260.820312 C 213.914062 260.660156 213.851562 260.453125 213.871094 260.25 C 213.871094 259.984375 213.929688 259.722656 214.039062 259.480469 C 214.15625 259.207031 214.320312 258.957031 214.519531 258.738281 C 214.722656 258.519531 214.953125 258.332031 215.210938 258.179688 C 215.421875 258.046875 215.660156 257.964844 215.910156 257.941406 C 216.089844 257.933594 216.261719 257.996094 216.390625 258.121094 C 216.511719 258.285156 216.574219 258.484375 216.558594 258.691406 C 216.554688 258.957031 216.496094 259.21875 216.390625 259.460938 C 216.144531 260.007812 215.730469 260.46875 215.210938 260.769531 C 215.003906 260.90625 214.765625 260.988281 214.519531 261 Z M 215.75 259.730469 C 215.90625 259.519531 215.996094 259.261719 216 259 C 216 258.761719 215.929688 258.609375 215.789062 258.550781 C 215.605469 258.488281 215.40625 258.523438 215.25 258.640625 C 215.027344 258.769531 214.84375 258.949219 214.710938 259.171875 C 214.578125 259.375 214.503906 259.613281 214.5 259.859375 C 214.5 260.101562 214.570312 260.25 214.710938 260.320312 C 214.894531 260.375 215.097656 260.339844 215.25 260.21875 C 215.457031 260.09375 215.628906 259.914062 215.75 259.699219 Z M 215.75 259.730469 "/>
<path style=" stroke:none;fill-rule:nonzero;fill:rgb(100%,100%,100%);fill-opacity:1;" d="M 219.578125 255.660156 L 219.578125 258.191406 L 219.019531 258.511719 L 219.019531 258.191406 C 218.917969 258.359375 218.796875 258.515625 218.660156 258.660156 C 218.523438 258.800781 218.371094 258.917969 218.199219 259.011719 C 217.976562 259.1875 217.679688 259.253906 217.398438 259.191406 C 217.210938 259.121094 217.109375 258.890625 217.109375 258.53125 L 217.109375 257.078125 L 217.699219 256.738281 L 217.699219 258.101562 C 217.699219 258.328125 217.75 258.46875 217.859375 258.519531 C 217.96875 258.570312 218.109375 258.519531 218.300781 258.441406 C 218.507812 258.324219 218.679688 258.152344 218.800781 257.949219 C 218.921875 257.75 218.988281 257.515625 218.988281 257.28125 L 218.988281 256 Z M 219.578125 255.660156 "/>
<path style=" stroke:none;fill-rule:nonzero;fill:rgb(14.901961%,19.607843%,21.960784%);fill-opacity:1;" d="M 358.660156 385.578125 C 358.96875 386.117188 359.128906 386.722656 359.128906 387.339844 C 359.265625 389.203125 359.265625 391.074219 359.128906 392.941406 C 358.960938 393.800781 357.128906 395.050781 354.800781 394.789062 C 352.46875 394.53125 350.910156 392.789062 349.800781 391.019531 C 348.691406 389.25 343.660156 383.28125 342.75 381.828125 C 341.839844 380.378906 340.421875 376.53125 342.191406 374.949219 C 343.679688 373.621094 349.261719 376.660156 350.75 378.339844 C 352.238281 380.019531 358.660156 385.578125 358.660156 385.578125 Z M 358.660156 385.578125 "/>
<path style=" stroke:none;fill-rule:nonzero;fill:rgb(14.901961%,19.607843%,21.960784%);fill-opacity:1;" d="M 334.910156 403.21875 C 335.441406 404.070312 335.808594 405.015625 336 406 C 336.359375 407.609375 336.941406 411.46875 336.640625 412.628906 C 336.488281 413.191406 334.488281 414.628906 332.519531 414.730469 C 331.351562 414.789062 329.941406 414.839844 328.800781 414.878906 C 327.957031 414.898438 327.128906 415.113281 326.378906 415.5 C 324.335938 416.554688 322.234375 417.503906 320.089844 418.339844 C 316.351562 419.769531 311.441406 420.339844 309.089844 419.828125 C 306.738281 419.320312 303.949219 417.828125 302.828125 416.371094 C 302.363281 415.613281 302.40625 414.652344 302.941406 413.941406 C 305.828125 411.53125 310.628906 410.339844 313.601562 409.109375 C 317.628906 407.359375 321.5 405.269531 325.171875 402.859375 C 325.898438 402.300781 334.910156 403.21875 334.910156 403.21875 Z M 334.910156 403.21875 "/>
<path style=" stroke:none;fill-rule:nonzero;fill:rgb(100%,65.882353%,65.490196%);fill-opacity:1;" d="M 334.910156 397.730469 L 334.910156 403.21875 C 333.683594 404.671875 331.871094 405.5 329.96875 405.480469 C 327.988281 405.6875 326.078125 404.65625 325.171875 402.878906 C 325.3125 401.167969 325.355469 399.449219 325.300781 397.730469 Z M 334.910156 397.730469 "/>
<path style=" stroke:none;fill-rule:nonzero;fill:rgb(100%,65.882353%,65.490196%);fill-opacity:1;" d="M 358.660156 382.269531 L 358.660156 385.578125 C 358.660156 385.578125 358.171875 387.320312 354.851562 387.429688 C 353.386719 387.511719 351.941406 387.066406 350.78125 386.171875 L 350.089844 381.300781 Z M 358.660156 382.269531 "/>
<path style=" stroke:none;fill-rule:nonzero;fill:rgb(72.941176%,40.784314%,78.431373%);fill-opacity:1;" d="M 314.558594 280.808594 C 314.558594 280.808594 315.730469 333.210938 317.25 342.808594 C 318.300781 349.378906 325.25 399.148438 325.25 399.148438 C 328.332031 400.765625 332.015625 400.734375 335.070312 399.070312 C 335.070312 399.070312 335.070312 397.320312 335.308594 394.46875 C 335.550781 391.621094 337.71875 367.308594 337.5 358.171875 C 337.417969 352.867188 336.375 347.621094 334.421875 342.691406 L 337.5 297.511719 L 338.929688 297.691406 C 338.929688 297.691406 338.859375 302.511719 339.460938 311.070312 C 339.460938 311.070312 340.601562 328.320312 341 331.710938 C 341.761719 338.03125 346 361.039062 347.238281 367.140625 C 348.359375 372.609375 350.179688 382.710938 350.179688 382.710938 C 352.851562 385.371094 358.671875 383.269531 358.671875 383.269531 C 358.671875 383.269531 358.960938 376.410156 359.261719 372.21875 C 359.558594 368.03125 360.839844 349.21875 360.328125 344.28125 C 359.621094 337.398438 356.808594 330.78125 357.058594 329.03125 C 358.519531 318.898438 358.660156 275.78125 358.660156 275.78125 Z M 314.558594 280.808594 "/>
<use xlink:href="#surface14" mask="url(#mask3)"/>
<use xlink:href="#surface17" mask="url(#mask4)"/>
<path style=" stroke:none;fill-rule:nonzero;fill:rgb(21.568627%,27.843137%,30.980392%);fill-opacity:1;" d="M 361.230469 218.621094 C 359.855469 216.738281 357.925781 215.339844 355.710938 214.621094 L 357.46875 267.949219 C 357.46875 267.949219 370.46875 262.148438 370.871094 258.710938 C 371.261719 255.628906 363.640625 222 361.230469 218.621094 Z M 361.230469 218.621094 "/>
<path style=" stroke:none;fill-rule:nonzero;fill:rgb(100%,65.882353%,65.490196%);fill-opacity:1;" d="M 317.699219 189.699219 C 317.640625 187.488281 317.640625 184.699219 317.699219 183.640625 C 317.960938 179.691406 319.140625 178.121094 319.140625 178.121094 C 323.96875 171.808594 341.671875 173.230469 342.929688 176.78125 C 344.191406 180.328125 346.648438 199.710938 341.191406 203.171875 C 341.75 206.171875 343.320312 213.589844 343.320312 213.589844 C 338.910156 217.589844 329.671875 216.320312 329.671875 216.320312 C 329.941406 214.96875 328.671875 209.558594 328.03125 206.808594 C 324.25 207.261719 320.960938 207.210938 319.890625 206.410156 C 319.808594 206.351562 319.734375 206.28125 319.671875 206.199219 C 318.851562 205.03125 318.269531 200.578125 317.949219 195.199219 C 316.949219 195.328125 315.398438 195.460938 315.199219 195.070312 C 315 194.679688 316.769531 191.339844 317.699219 189.699219 Z M 317.699219 189.699219 "/>
<path style=" stroke:none;fill-rule:nonzero;fill:rgb(14.901961%,19.607843%,21.960784%);fill-opacity:1;" d="M 327.820312 190.058594 C 327.820312 190.058594 327.320312 186.589844 330.820312 186.261719 C 334.320312 185.929688 336.460938 190.378906 334.75 193.628906 C 333.039062 196.878906 330.820312 197.089844 330.820312 197.089844 C 330.59375 199.238281 330.59375 201.402344 330.820312 203.550781 C 331.007812 204.785156 332.09375 205.679688 333.339844 205.628906 C 335.839844 205.558594 340.339844 205.191406 343.660156 203.570312 C 348.511719 201.199219 351.820312 196.289062 353.660156 189.308594 C 355.5 182.328125 355.789062 175.769531 350.660156 175.53125 C 350.660156 175.53125 350.609375 173.578125 353.488281 172.808594 C 353.488281 172.808594 350.28125 171.339844 348.898438 174.019531 C 348.578125 170.898438 346.417969 168.273438 343.421875 167.351562 C 338.300781 165.820312 331.949219 168.101562 326.421875 169.351562 C 320.890625 170.601562 313.621094 169.941406 312.988281 170.730469 C 312.359375 171.519531 309.648438 186.988281 324.988281 186.269531 C 324.941406 186.238281 325.648438 190 327.820312 190.058594 Z M 327.820312 190.058594 "/>
<path style=" stroke:none;fill-rule:nonzero;fill:rgb(94.901961%,56.078431%,56.078431%);fill-opacity:1;" d="M 319.890625 206.410156 C 320.960938 207.210938 324.25 207.261719 328.03125 206.808594 C 328.835938 206.300781 329.519531 205.617188 330.03125 204.808594 C 329.75 204.910156 323.71875 207.519531 319.890625 206.410156 Z M 319.890625 206.410156 "/>
<path style=" stroke:none;fill-rule:nonzero;fill:rgb(72.941176%,40.784314%,78.431373%);fill-opacity:1;" d="M 314.441406 244.289062 L 314.441406 281 C 314.441406 281 327.539062 286.160156 339.960938 284.328125 C 352.378906 282.5 358.960938 275.589844 358.960938 275.589844 C 358.960938 275.589844 359.511719 227.171875 358.621094 221.289062 C 357.730469 215.410156 353.761719 212.621094 350.71875 211.949219 C 347.679688 211.28125 343.128906 212.539062 343.128906 212.539062 C 339.082031 214.746094 334.503906 215.785156 329.898438 215.539062 C 326.410156 216.699219 322.589844 218.539062 319.398438 219.738281 C 310.308594 223.289062 314.441406 244.289062 314.441406 244.289062 Z M 314.441406 244.289062 "/>
<use xlink:href="#surface20" mask="url(#mask5)"/>
<path style=" stroke:none;fill-rule:nonzero;fill:rgb(21.568627%,27.843137%,30.980392%);fill-opacity:1;" d="M 290.300781 241.820312 L 281.929688 216.671875 L 295.25 209.261719 L 296.308594 209.511719 L 303.609375 234.410156 Z M 290.300781 241.820312 "/>
<path style=" stroke:none;fill-rule:nonzero;fill:rgb(27.058824%,35.294118%,39.215686%);fill-opacity:1;" d="M 291.359375 242.070312 L 282.988281 216.921875 L 296.308594 209.511719 L 304.679688 234.660156 Z M 291.359375 242.070312 "/>
<path style=" stroke:none;fill-rule:nonzero;fill:rgb(100%,100%,100%);fill-opacity:1;" d="M 291.648438 239.5 L 284.75 218.738281 L 296.21875 212.289062 L 303.121094 233.050781 Z M 291.648438 239.5 "/>
<path style=" stroke:none;fill-rule:nonzero;fill:rgb(100%,65.882353%,65.490196%);fill-opacity:1;" d="M 284.28125 222.878906 C 284.28125 222.878906 284.921875 222.378906 285.21875 224.171875 C 285.519531 225.960938 287.21875 232.28125 290.21875 234.308594 C 290.21875 234.308594 290.890625 234.589844 290.910156 233.988281 C 290.929688 232.59375 291.15625 231.210938 291.578125 229.878906 C 292.179688 228.320312 293.761719 227.261719 294.5 227.53125 C 295.238281 227.800781 294.429688 230.648438 294.5 231.738281 C 294.570312 232.828125 296.039062 235.351562 296.109375 236.519531 C 296.179688 237.691406 295.988281 238.519531 296.109375 239.070312 C 297.1875 240.515625 298.355469 241.894531 299.601562 243.199219 L 293.089844 251.441406 C 293.089844 251.441406 288.859375 245.820312 287.769531 244.710938 C 286.679688 243.601562 284.769531 241.421875 284.230469 239.441406 C 283.46875 236.65625 282.914062 233.816406 282.570312 230.949219 C 282.570312 229.238281 282.550781 223.421875 284.28125 222.878906 Z M 284.28125 222.878906 "/>
<path style=" stroke:none;fill-rule:nonzero;fill:rgb(21.568627%,27.843137%,30.980392%);fill-opacity:1;" d="M 322 218.671875 L 326.261719 218.078125 C 326.261719 218.078125 329.628906 218.269531 328.828125 228.371094 C 328.03125 238.46875 317.980469 265.789062 315.46875 269.109375 C 312.101562 273.570312 308.238281 270.859375 307.46875 269.828125 C 306.699219 268.800781 298.308594 259.359375 293.210938 251.441406 C 293.210938 251.441406 294.398438 243.96875 300.140625 243.121094 L 306.800781 250 C 306.800781 250 308.859375 242.289062 311.019531 234 C 313 226.558594 315 220.25 322 218.671875 Z M 322 218.671875 "/>
</g>
</svg>
