<?xml version="1.0" encoding="UTF-8"?>
<svg xmlns="http://www.w3.org/2000/svg" xmlns:xlink="http://www.w3.org/1999/xlink" width="500px" height="500px" viewBox="0 0 500 500" version="1.1">
<defs>
<filter id="alpha" filterUnits="objectBoundingBox" x="0%" y="0%" width="100%" height="100%">
  <feColorMatrix type="matrix" in="SourceGraphic" values="0 0 0 0 1 0 0 0 0 1 0 0 0 0 1 0 0 0 1 0"/>
</filter>
<mask id="mask0">
  <g filter="url(#alpha)">
<rect x="0" y="0" width="500" height="500" style="fill:rgb(0%,0%,0%);fill-opacity:0.701961;stroke:none;"/>
  </g>
</mask>
<clipPath id="clip1">
  <rect x="0" y="0" width="500" height="500"/>
</clipPath>
<g id="surface5" clip-path="url(#clip1)">
<path style=" stroke:none;fill-rule:nonzero;fill:rgb(100%,100%,100%);fill-opacity:1;" d="M 335.808594 76.300781 C 299.808594 70.75 262.660156 76.800781 234.898438 99.300781 C 207.898438 121.191406 195.648438 157.828125 167.488281 178.179688 C 124 209.671875 62.230469 199.210938 37 255.738281 C 28 275.921875 25.679688 298.46875 26 320.558594 C 26.371094 348.230469 30.878906 376.230469 42.828125 401.179688 C 54.78125 426.128906 74.679688 447.898438 100.140625 458.71875 C 137.71875 474.71875 181.269531 465.148438 218.988281 449.539062 C 234.550781 443.109375 250.171875 435.539062 266.988281 434.679688 C 288.171875 433.570312 308.21875 443.121094 328.339844 449.828125 C 352.480469 457.898438 379.21875 461.960938 403.191406 453.378906 C 421.949219 446.671875 437.371094 432.761719 449.738281 417.140625 C 471.839844 389.117188 485.429688 355.339844 488.890625 319.820312 C 498.480469 219.179688 446.550781 93.351562 335.808594 76.300781 Z M 335.808594 76.300781 "/>
</g>
</defs>
<g id="surface1">
<path style=" stroke:none;fill-rule:nonzero;fill:rgb(57.254902%,89.019608%,66.27451%);fill-opacity:1;" d="M 335.808594 76.300781 C 299.808594 70.75 262.660156 76.800781 234.898438 99.300781 C 207.898438 121.191406 195.648438 157.828125 167.488281 178.179688 C 124 209.671875 62.230469 199.210938 37 255.738281 C 28 275.921875 25.679688 298.46875 26 320.558594 C 26.371094 348.230469 30.878906 376.230469 42.828125 401.179688 C 54.78125 426.128906 74.679688 447.898438 100.140625 458.71875 C 137.71875 474.71875 181.269531 465.148438 218.988281 449.539062 C 234.550781 443.109375 250.171875 435.539062 266.988281 434.679688 C 288.171875 433.570312 308.21875 443.121094 328.339844 449.828125 C 352.480469 457.898438 379.21875 461.960938 403.191406 453.378906 C 421.949219 446.671875 437.371094 432.761719 449.738281 417.140625 C 471.839844 389.117188 485.429688 355.339844 488.890625 319.820312 C 498.480469 219.179688 446.550781 93.351562 335.808594 76.300781 Z M 335.808594 76.300781 "/>
<use xlink:href="#surface5" mask="url(#mask0)"/>
<path style=" stroke:none;fill-rule:nonzero;fill:rgb(57.254902%,89.019608%,66.27451%);fill-opacity:1;" d="M 284.050781 234.339844 C 278.390625 236.421875 264.921875 235.339844 264.910156 235.339844 C 264.898438 235.339844 268.339844 226.679688 268.628906 226.160156 C 271.960938 220.160156 281.941406 210.488281 289.488281 211.980469 C 294.941406 213.050781 297.660156 218.730469 296.109375 223.820312 C 294.558594 228.910156 288.871094 232.570312 284.050781 234.339844 Z M 284.050781 234.339844 "/>
<path style=" stroke:none;fill-rule:nonzero;fill:rgb(57.254902%,89.019608%,66.27451%);fill-opacity:1;" d="M 110.109375 177.769531 C 117.800781 177.410156 126.25 188.429688 128.671875 194.859375 C 128.871094 195.421875 131.140625 204.5 131 204.488281 L 130.828125 204.488281 C 132.179688 206.21875 133.609375 208.089844 135.121094 210.171875 C 137.890625 214.019531 140.980469 218.398438 144.019531 223.390625 C 147.363281 228.730469 150.390625 234.261719 153.078125 239.960938 C 156.128906 246.320312 158.605469 252.941406 160.480469 259.738281 L 160.539062 259.988281 C 160.628906 257.738281 161.109375 251.449219 161.199219 250.988281 C 162.5 244.238281 168.960938 231.988281 176.601562 230.988281 C 182.109375 230.308594 186.460938 234.851562 186.601562 240.171875 C 186.738281 245.488281 182.46875 250.78125 178.441406 253.96875 C 173.898438 257.558594 161.699219 260.558594 160.730469 260.800781 C 162.46875 267.765625 163.738281 274.84375 164.53125 281.980469 C 165.019531 286.140625 165.378906 290.339844 165.679688 294.558594 C 165.828125 292.558594 165.96875 290.871094 166.019531 290.628906 C 167.308594 283.878906 173.78125 271.628906 181.421875 270.628906 C 186.929688 269.949219 191.28125 274.5 191.421875 279.820312 C 191.558594 285.140625 187.289062 290.421875 183.269531 293.609375 C 179.25 296.800781 168.839844 299.609375 166.089844 300.308594 C 166.191406 301.929688 166.308594 303.539062 166.398438 305.160156 C 166.859375 312.929688 167.28125 320.691406 167.929688 328.28125 C 168.160156 330.949219 168.480469 333.578125 168.789062 336.210938 C 168.921875 334.480469 169.050781 333.03125 169.089844 332.808594 C 170.378906 326.058594 176.851562 313.808594 184.488281 312.808594 C 189.988281 312.128906 194.351562 316.671875 194.488281 321.988281 C 194.628906 327.308594 190.359375 332.601562 186.328125 335.789062 C 182.300781 338.980469 172.910156 341.519531 169.648438 342.359375 C 170.050781 345.039062 170.449219 347.730469 170.960938 350.308594 C 171.339844 352.070312 171.601562 353.78125 172.078125 355.53125 C 172.558594 357.28125 172.96875 358.980469 173.410156 360.679688 C 174.410156 363.921875 175.351562 367.269531 176.359375 370.410156 C 177.058594 372.601562 177.761719 374.671875 178.460938 376.761719 C 178.199219 374.101562 177.808594 368.878906 177.820312 368.441406 C 178.273438 362.410156 180.257812 356.597656 183.589844 351.550781 C 183.613281 350.878906 183.695312 350.207031 183.839844 349.550781 C 185 344.351562 190.160156 340.75 195.429688 342.5 C 202.738281 344.929688 206.660156 358.25 206.601562 365.121094 C 206.601562 365.53125 206.058594 369.921875 205.679688 372.691406 C 206.160156 371.101562 206.589844 369.550781 207.101562 367.910156 C 208.101562 364.671875 209.101562 361.46875 210.28125 358.019531 L 212.128906 353.019531 C 212.710938 351.339844 213.53125 349.648438 214.238281 347.941406 C 215.949219 344.011719 217.871094 340.109375 219.898438 336.230469 C 217.058594 335.371094 207.050781 332.160156 203.148438 328.78125 C 199.25 325.398438 195.269531 320.050781 195.628906 314.628906 C 195.988281 309.210938 200.550781 304.980469 206.019531 305.910156 C 213.609375 307.199219 219.511719 319.769531 220.488281 326.570312 C 220.550781 327 220.699219 331.960938 220.738281 334.691406 C 221.96875 332.359375 223.191406 330.039062 224.519531 327.691406 C 228.351562 321.011719 232.429688 314.378906 236.519531 307.738281 C 237.761719 305.738281 238.96875 303.671875 240.191406 301.640625 C 239.191406 301.339844 227.191406 297.789062 222.828125 294 C 218.949219 290.628906 214.941406 285.269531 215.308594 279.851562 C 215.679688 274.429688 220.21875 270.199219 225.691406 271.128906 C 233.28125 272.421875 239.179688 284.988281 240.160156 291.789062 C 240.238281 292.308594 240.449219 299.449219 240.410156 301.261719 C 243.101562 296.78125 245.730469 292.261719 248.148438 287.738281 C 251.449219 281.628906 254.34375 275.308594 256.820312 268.820312 C 256.351562 268.679688 243.820312 265.03125 239.351562 261.148438 C 235.46875 257.789062 231.46875 252.421875 231.828125 247 C 232.191406 241.578125 236.75 237.351562 242.21875 238.28125 C 249.808594 239.570312 255.699219 252.140625 256.691406 258.949219 C 256.761719 259.480469 256.988281 267.160156 256.929688 268.558594 C 257.070312 268.179688 257.261719 267.808594 257.398438 267.429688 C 259.699219 260.855469 261.414062 254.089844 262.519531 247.210938 C 263.179688 243.421875 263.589844 239.761719 263.921875 236.210938 C 261.519531 235.769531 250.558594 233.628906 246.148438 230.578125 C 241.921875 227.660156 237.351562 222.769531 237.148438 217.339844 C 236.949219 211.910156 240.980469 207.210938 246.511719 207.53125 C 254.199219 207.980469 261.441406 219.828125 263.160156 226.53125 C 263.261719 226.890625 263.800781 230.671875 264.160156 233.441406 C 264.28125 231.820312 264.441406 230.160156 264.53125 228.609375 C 264.871094 222.800781 264.820312 217.460938 264.738281 212.71875 C 264.671875 210.03125 264.558594 207.601562 264.429688 205.328125 C 262.300781 203.660156 253.789062 196.851562 251.320312 192.210938 C 248.851562 187.570312 247.121094 181.210938 249.410156 176.289062 C 251.699219 171.371094 257.480469 169.070312 262.238281 171.898438 C 268.859375 175.898438 269.828125 189.699219 268.289062 196.398438 C 268.148438 196.980469 265.039062 205.789062 264.921875 205.710938 L 264.789062 205.609375 C 264.960938 207.789062 265.121094 210.140625 265.238281 212.710938 C 265.421875 217.449219 265.589844 222.800781 265.371094 228.640625 C 265.207031 234.9375 264.679688 241.222656 263.789062 247.460938 C 262.820312 254.449219 261.230469 261.339844 259.039062 268.050781 C 259.015625 268.128906 258.984375 268.207031 258.949219 268.28125 C 260.269531 266.460938 264.148438 261.46875 264.488281 261.121094 C 269.289062 256.210938 281.488281 249.519531 288.351562 252.949219 C 293.351562 255.429688 294.449219 261.621094 291.601562 266.121094 C 288.75 270.621094 282.308594 272.691406 277.191406 273.121094 C 271.421875 273.609375 259.589844 269.390625 258.648438 269.050781 C 256.210938 275.828125 253.320312 282.4375 250 288.828125 C 248.121094 292.558594 246.101562 296.261719 244 299.949219 C 245.191406 298.410156 246.28125 297.039062 246.449219 296.859375 C 251.25 291.941406 263.449219 285.261719 270.308594 288.691406 C 275.308594 291.160156 276.398438 297.351562 273.570312 301.859375 C 270.738281 306.371094 264.269531 308.429688 259.148438 308.859375 C 254.03125 309.289062 243.800781 305.910156 241.148438 304.96875 C 240.339844 306.378906 239.550781 307.789062 238.730469 309.199219 C 234.828125 315.929688 230.898438 322.628906 227.25 329.320312 C 225.96875 331.671875 224.789062 334.039062 223.589844 336.410156 C 224.660156 335.039062 225.589844 333.898438 225.71875 333.730469 C 230.519531 328.820312 242.71875 322.128906 249.589844 325.558594 C 254.589844 328.039062 255.679688 334.230469 252.839844 338.730469 C 250 343.230469 243.539062 345.300781 238.429688 345.730469 C 233.429688 346.148438 224.070312 343.101562 220.878906 342.011719 C 219.738281 344.46875 218.589844 346.929688 217.589844 349.359375 C 216.941406 351.039062 216.199219 352.609375 215.648438 354.359375 C 215.101562 356.109375 214.488281 357.730469 213.921875 359.359375 C 212.921875 362.601562 211.921875 365.929688 211.011719 369.109375 C 210.378906 371.320312 209.820312 373.441406 209.25 375.570312 C 210.5 373.199219 213.058594 368.628906 213.308594 368.28125 C 217.308594 362.691406 228.308594 354.28125 235.671875 356.578125 C 240.949219 358.28125 243 364.21875 240.871094 369.101562 C 238.738281 373.980469 232.679688 377.011719 227.691406 378.210938 C 222.191406 379.53125 210.328125 377.308594 208.851562 377.019531 C 207.921875 380.550781 207.050781 384.019531 206.28125 387.238281 C 206.109375 387.941406 205.96875 388.570312 205.808594 389.238281 L 201 389.238281 C 201.261719 388.238281 201.519531 387.179688 201.800781 386.121094 C 202.730469 382.53125 203.800781 378.71875 204.929688 374.820312 C 201.421875 373.15625 198.015625 371.292969 194.71875 369.238281 C 190.53125 373.238281 180.148438 377.640625 178.808594 378.238281 C 179.980469 381.691406 181.148438 385.039062 182.300781 388.179688 L 182.710938 389.28125 L 177.898438 389.28125 C 176.738281 385.890625 175.578125 382.28125 174.421875 378.550781 C 172.949219 378.761719 160.980469 380.449219 155.539062 378.878906 C 150.609375 377.449219 144.71875 374.25 142.78125 369.171875 C 140.839844 364.089844 143.210938 358.351562 148.558594 356.910156 C 155.988281 354.910156 166.609375 363.839844 170.359375 369.609375 C 170.578125 369.949219 172.558594 373.910156 173.769531 376.429688 C 173.28125 374.839844 172.769531 373.300781 172.308594 371.660156 C 171.308594 368.421875 170.46875 365.160156 169.519531 361.660156 C 169.109375 359.949219 168.710938 358.21875 168.300781 356.480469 C 167.890625 354.738281 167.609375 352.890625 167.25 351.070312 C 166.511719 346.851562 165.96875 342.539062 165.511719 338.191406 C 162.679688 339.03125 152.511719 341.878906 147.441406 341.191406 C 142.371094 340.5 136.050781 338.261719 133.359375 333.53125 C 130.671875 328.800781 132.140625 322.769531 137.210938 320.53125 C 144.210938 317.421875 156.109375 324.648438 160.679688 329.789062 C 160.96875 330.109375 163.828125 334.160156 165.359375 336.421875 C 165.109375 333.800781 164.851562 331.179688 164.679688 328.519531 C 164.191406 320.851562 163.941406 313.058594 163.679688 305.289062 C 163.601562 302.910156 163.480469 300.539062 163.378906 298.171875 C 162.378906 298.480469 150.378906 302.171875 144.679688 301.378906 C 139.589844 300.71875 133.289062 298.449219 130.601562 293.71875 C 127.910156 288.988281 129.378906 282.960938 134.449219 280.71875 C 141.5 277.609375 153.351562 284.839844 157.921875 289.980469 C 158.269531 290.371094 162.378906 296.199219 163.359375 297.738281 C 163.121094 292.511719 162.839844 287.308594 162.359375 282.191406 C 161.742188 275.273438 160.667969 268.40625 159.148438 261.628906 C 158.691406 261.78125 146.21875 265.628906 140.351562 264.871094 C 135.261719 264.199219 128.960938 261.941406 126.28125 257.210938 C 123.601562 252.480469 125.050781 246.449219 130.128906 244.210938 C 137.128906 241.101562 149.019531 248.328125 153.601562 253.46875 C 153.949219 253.871094 158.378906 260.148438 159.101562 261.351562 C 159.011719 260.960938 158.960938 260.539062 158.859375 260.148438 C 157.160156 253.394531 154.855469 246.804688 151.980469 240.460938 C 150.441406 236.941406 148.769531 233.648438 147.070312 230.460938 C 144.820312 231.460938 134.5 235.691406 129.148438 235.578125 C 124.011719 235.46875 117.5 233.910156 114.308594 229.511719 C 111.121094 225.109375 111.921875 218.949219 116.710938 216.171875 C 123.371094 212.300781 135.949219 218.171875 141.058594 222.789062 C 141.328125 223.039062 143.878906 225.898438 145.699219 228 C 144.910156 226.589844 144.121094 225.121094 143.339844 223.78125 C 140.421875 218.78125 137.429688 214.308594 134.761719 210.410156 C 133.21875 208.199219 131.761719 206.238281 130.410156 204.410156 C 127.71875 204.199219 116.871094 203.210938 112.238281 200.699219 C 107.609375 198.191406 102.679688 193.851562 101.871094 188.480469 C 101.058594 183.109375 104.570312 178 110.109375 177.769531 Z M 110.109375 177.769531 "/>
<path style=" stroke:none;fill-rule:nonzero;fill:rgb(57.254902%,89.019608%,66.27451%);fill-opacity:1;" d="M 147.429688 229.078125 C 147.308594 229.148438 145.519531 219.96875 145.429688 219.378906 C 144.890625 212.519531 147.890625 198.960938 155.011719 196.039062 C 160.140625 193.929688 165.539062 197.160156 167.011719 202.261719 C 168.480469 207.359375 165.828125 213.589844 162.789062 217.71875 C 159.289062 222.578125 147.441406 229.070312 147.429688 229.078125 Z M 147.429688 229.078125 "/>
<path style="fill-rule:nonzero;fill:rgb(100%,100%,100%);fill-opacity:1;stroke-width:1;stroke-linecap:butt;stroke-linejoin:miter;stroke:rgb(14.901961%,19.607843%,21.960784%);stroke-opacity:1;stroke-miterlimit:10;" d="M 143.171875 372.519531 C 143.171875 372.519531 112.851562 372.140625 105.761719 360.800781 L 26.558594 360.800781 C 26.558594 360.800781 33 372.421875 43 372.519531 Z M 143.171875 372.519531 "/>
<path style="fill-rule:nonzero;fill:rgb(100%,100%,100%);fill-opacity:1;stroke-width:1;stroke-linecap:butt;stroke-linejoin:miter;stroke:rgb(14.901961%,19.607843%,21.960784%);stroke-opacity:1;stroke-miterlimit:10;" d="M 103.460938 364.539062 L 38.941406 364.539062 C 38.941406 364.539062 40.140625 367.160156 36.851562 368.601562 C 38.925781 370.515625 41.527344 371.765625 44.320312 372.179688 L 126.460938 372.179688 C 126.460938 372.179688 116 371.179688 110.328125 367.878906 C 110.328125 367.878906 103.761719 368.839844 103.460938 364.539062 Z M 103.460938 364.539062 "/>
<path style="fill-rule:nonzero;fill:rgb(14.901961%,19.607843%,21.960784%);fill-opacity:1;stroke-width:1;stroke-linecap:butt;stroke-linejoin:miter;stroke:rgb(14.901961%,19.607843%,21.960784%);stroke-opacity:1;stroke-miterlimit:10;" d="M 131.209531 440.658125 L 313.229062 440.658125 L 313.229062 463.181563 L 131.209531 463.181562 Z M 131.209531 440.658125 " transform="matrix(-1,0.000000000000000122,-0.000000000000000122,-1,444.44,903.83)"/>
<path style="fill-rule:nonzero;fill:rgb(100%,100%,100%);fill-opacity:1;stroke-width:1;stroke-linecap:butt;stroke-linejoin:miter;stroke:rgb(14.901961%,19.607843%,21.960784%);stroke-opacity:1;stroke-miterlimit:10;" d="M 31.031406 440.658125 L 213.050937 440.658125 L 213.050937 463.181563 L 31.031406 463.181563 Z M 31.031406 440.658125 " transform="matrix(-1,0.000000000000000122,-0.000000000000000122,-1,244.09,903.83)"/>
<path style="fill:none;stroke-width:1;stroke-linecap:butt;stroke-linejoin:miter;stroke:rgb(14.901961%,19.607843%,21.960784%);stroke-opacity:1;stroke-miterlimit:10;" d="M 211.800781 446.660156 L 167.351562 446.660156 "/>
<path style="fill:none;stroke-width:1;stroke-linecap:butt;stroke-linejoin:miter;stroke:rgb(14.901961%,19.607843%,21.960784%);stroke-opacity:1;stroke-miterlimit:10;" d="M 203.03125 451.671875 L 138.550781 451.671875 "/>
<path style="fill:none;stroke-width:1;stroke-linecap:butt;stroke-linejoin:miter;stroke:rgb(14.901961%,19.607843%,21.960784%);stroke-opacity:1;stroke-miterlimit:10;" d="M 177.359375 456.171875 L 188.628906 456.171875 "/>
<path style="fill:none;stroke-width:1;stroke-linecap:butt;stroke-linejoin:miter;stroke:rgb(14.901961%,19.607843%,21.960784%);stroke-opacity:1;stroke-miterlimit:10;" d="M 193.019531 456.171875 L 211.171875 456.171875 "/>
<path style="fill:none;stroke-width:1;stroke-linecap:butt;stroke-linejoin:miter;stroke:rgb(14.901961%,19.607843%,21.960784%);stroke-opacity:1;stroke-miterlimit:10;" d="M 32.109375 455.171875 L 89.078125 455.171875 "/>
<path style="fill:none;stroke-width:1;stroke-linecap:butt;stroke-linejoin:miter;stroke:rgb(14.901961%,19.607843%,21.960784%);stroke-opacity:1;stroke-miterlimit:10;" d="M 37.121094 452.171875 L 44.628906 452.171875 "/>
<path style="fill:none;stroke-width:1;stroke-linecap:butt;stroke-linejoin:miter;stroke:rgb(14.901961%,19.607843%,21.960784%);stroke-opacity:1;stroke-miterlimit:10;" d="M 79.691406 451.671875 L 54.648438 451.671875 "/>
<path style="fill:none;stroke-width:1;stroke-linecap:butt;stroke-linejoin:miter;stroke:rgb(14.901961%,19.607843%,21.960784%);stroke-opacity:1;stroke-miterlimit:10;" d="M 32.109375 445.660156 L 54.019531 445.660156 "/>
<path style="fill:none;stroke-width:1;stroke-linecap:butt;stroke-linejoin:miter;stroke:rgb(54.117647%,54.117647%,54.117647%);stroke-opacity:1;stroke-miterlimit:10;" d="M 310.71875 450.160156 L 299.449219 450.160156 "/>
<path style="fill:none;stroke-width:1;stroke-linecap:butt;stroke-linejoin:miter;stroke:rgb(54.117647%,54.117647%,54.117647%);stroke-opacity:1;stroke-miterlimit:10;" d="M 313.230469 455.171875 L 278.171875 455.171875 "/>
<path style="fill:none;stroke-width:1;stroke-linecap:butt;stroke-linejoin:miter;stroke:rgb(54.117647%,54.117647%,54.117647%);stroke-opacity:1;stroke-miterlimit:10;" d="M 214.929688 458.171875 L 231.839844 458.171875 "/>
<path style="fill:none;stroke-width:1;stroke-linecap:butt;stroke-linejoin:miter;stroke:rgb(54.117647%,54.117647%,54.117647%);stroke-opacity:1;stroke-miterlimit:10;" d="M 213.050781 450.160156 L 258.761719 450.160156 "/>
<path style="fill:none;stroke-width:1;stroke-linecap:butt;stroke-linejoin:miter;stroke:rgb(54.117647%,54.117647%,54.117647%);stroke-opacity:1;stroke-miterlimit:10;" d="M 298.199219 443.660156 L 271.910156 443.660156 "/>
<path style="fill-rule:nonzero;fill:rgb(100%,100%,100%);fill-opacity:1;stroke-width:1;stroke-linecap:butt;stroke-linejoin:miter;stroke:rgb(14.901961%,19.607843%,21.960784%);stroke-opacity:1;stroke-miterlimit:10;" d="M 114.129844 440.658125 L 135.418906 440.658125 L 135.418906 462.681563 L 114.129844 462.681563 Z M 114.129844 440.658125 " transform="matrix(-1,0.000000000000000122,-0.000000000000000122,-1,249.54,903.33)"/>
<path style="fill-rule:nonzero;fill:rgb(14.901961%,19.607843%,21.960784%);fill-opacity:1;stroke-width:1;stroke-linecap:butt;stroke-linejoin:miter;stroke:rgb(14.901961%,19.607843%,21.960784%);stroke-opacity:1;stroke-miterlimit:10;" d="M 128.879375 417.94125 L 310.898906 417.94125 L 310.898906 440.460781 L 128.879375 440.460781 Z M 128.879375 417.94125 " transform="matrix(-1,0.000000000000000122,-0.000000000000000122,-1,439.77,858.41)"/>
<path style="fill-rule:nonzero;fill:rgb(100%,100%,100%);fill-opacity:1;stroke-width:1;stroke-linecap:butt;stroke-linejoin:miter;stroke:rgb(14.901961%,19.607843%,21.960784%);stroke-opacity:1;stroke-miterlimit:10;" d="M 28.70125 417.94125 L 210.720781 417.94125 L 210.720781 440.460781 L 28.70125 440.460781 Z M 28.70125 417.94125 " transform="matrix(-1,0.000000000000000122,-0.000000000000000122,-1,239.42,858.41)"/>
<path style="fill:none;stroke-width:1;stroke-linecap:butt;stroke-linejoin:miter;stroke:rgb(14.901961%,19.607843%,21.960784%);stroke-opacity:1;stroke-miterlimit:10;" d="M 209.460938 423.949219 L 165.011719 423.949219 "/>
<path style="fill:none;stroke-width:1;stroke-linecap:butt;stroke-linejoin:miter;stroke:rgb(14.901961%,19.607843%,21.960784%);stroke-opacity:1;stroke-miterlimit:10;" d="M 200.699219 428.949219 L 136.210938 428.949219 "/>
<path style="fill:none;stroke-width:1;stroke-linecap:butt;stroke-linejoin:miter;stroke:rgb(14.901961%,19.607843%,21.960784%);stroke-opacity:1;stroke-miterlimit:10;" d="M 175.03125 433.460938 L 186.300781 433.460938 "/>
<path style="fill:none;stroke-width:1;stroke-linecap:butt;stroke-linejoin:miter;stroke:rgb(14.901961%,19.607843%,21.960784%);stroke-opacity:1;stroke-miterlimit:10;" d="M 190.679688 433.460938 L 208.839844 433.460938 "/>
<path style="fill:none;stroke-width:1;stroke-linecap:butt;stroke-linejoin:miter;stroke:rgb(14.901961%,19.607843%,21.960784%);stroke-opacity:1;stroke-miterlimit:10;" d="M 29.769531 432.460938 L 86.75 432.460938 "/>
<path style="fill:none;stroke-width:1;stroke-linecap:butt;stroke-linejoin:miter;stroke:rgb(14.901961%,19.607843%,21.960784%);stroke-opacity:1;stroke-miterlimit:10;" d="M 34.78125 429.449219 L 42.289062 429.449219 "/>
<path style="fill:none;stroke-width:1;stroke-linecap:butt;stroke-linejoin:miter;stroke:rgb(14.901961%,19.607843%,21.960784%);stroke-opacity:1;stroke-miterlimit:10;" d="M 77.359375 428.949219 L 52.308594 428.949219 "/>
<path style="fill:none;stroke-width:1;stroke-linecap:butt;stroke-linejoin:miter;stroke:rgb(14.901961%,19.607843%,21.960784%);stroke-opacity:1;stroke-miterlimit:10;" d="M 29.769531 422.949219 L 51.691406 422.949219 "/>
<path style="fill:none;stroke-width:1;stroke-linecap:butt;stroke-linejoin:miter;stroke:rgb(54.117647%,54.117647%,54.117647%);stroke-opacity:1;stroke-miterlimit:10;" d="M 308.390625 427.449219 L 297.121094 427.449219 "/>
<path style="fill:none;stroke-width:1;stroke-linecap:butt;stroke-linejoin:miter;stroke:rgb(54.117647%,54.117647%,54.117647%);stroke-opacity:1;stroke-miterlimit:10;" d="M 310.890625 432.460938 L 275.828125 432.460938 "/>
<path style="fill:none;stroke-width:1;stroke-linecap:butt;stroke-linejoin:miter;stroke:rgb(54.117647%,54.117647%,54.117647%);stroke-opacity:1;stroke-miterlimit:10;" d="M 212.601562 435.460938 L 229.5 435.460938 "/>
<path style="fill:none;stroke-width:1;stroke-linecap:butt;stroke-linejoin:miter;stroke:rgb(54.117647%,54.117647%,54.117647%);stroke-opacity:1;stroke-miterlimit:10;" d="M 210.71875 427.449219 L 256.421875 427.449219 "/>
<path style="fill:none;stroke-width:1;stroke-linecap:butt;stroke-linejoin:miter;stroke:rgb(54.117647%,54.117647%,54.117647%);stroke-opacity:1;stroke-miterlimit:10;" d="M 295.871094 420.949219 L 269.570312 420.949219 "/>
<path style="fill-rule:nonzero;fill:rgb(100%,100%,100%);fill-opacity:1;stroke-width:1;stroke-linecap:butt;stroke-linejoin:miter;stroke:rgb(14.901961%,19.607843%,21.960784%);stroke-opacity:1;stroke-miterlimit:10;" d="M 111.791875 417.94125 L 133.080937 417.94125 L 133.080937 439.960781 L 111.791875 439.960781 Z M 111.791875 417.94125 " transform="matrix(-1,0.000000000000000122,-0.000000000000000122,-1,244.87,857.91)"/>
<path style="fill-rule:nonzero;fill:rgb(14.901961%,19.607843%,21.960784%);fill-opacity:1;stroke-width:1;stroke-linecap:butt;stroke-linejoin:miter;stroke:rgb(14.901961%,19.607843%,21.960784%);stroke-opacity:1;stroke-miterlimit:10;" d="M 136.270937 395.228281 L 318.290469 395.228281 L 318.290469 417.751719 L 136.270937 417.751719 Z M 136.270937 395.228281 " transform="matrix(-1,0.000000000000000122,-0.000000000000000122,-1,454.56,812.99)"/>
<path style="fill-rule:nonzero;fill:rgb(100%,100%,100%);fill-opacity:1;stroke-width:1;stroke-linecap:butt;stroke-linejoin:miter;stroke:rgb(14.901961%,19.607843%,21.960784%);stroke-opacity:1;stroke-miterlimit:10;" d="M 36.088906 395.228281 L 218.108437 395.228281 L 218.108437 417.751719 L 36.088906 417.751719 Z M 36.088906 395.228281 " transform="matrix(-1,0.000000000000000122,-0.000000000000000122,-1,254.21,812.99)"/>
<path style="fill:none;stroke-width:1;stroke-linecap:butt;stroke-linejoin:miter;stroke:rgb(14.901961%,19.607843%,21.960784%);stroke-opacity:1;stroke-miterlimit:10;" d="M 216.859375 401.238281 L 172.410156 401.238281 "/>
<path style="fill:none;stroke-width:1;stroke-linecap:butt;stroke-linejoin:miter;stroke:rgb(14.901961%,19.607843%,21.960784%);stroke-opacity:1;stroke-miterlimit:10;" d="M 208.089844 406.238281 L 143.609375 406.238281 "/>
<path style="fill:none;stroke-width:1;stroke-linecap:butt;stroke-linejoin:miter;stroke:rgb(14.901961%,19.607843%,21.960784%);stroke-opacity:1;stroke-miterlimit:10;" d="M 182.421875 410.75 L 193.691406 410.75 "/>
<path style="fill:none;stroke-width:1;stroke-linecap:butt;stroke-linejoin:miter;stroke:rgb(14.901961%,19.607843%,21.960784%);stroke-opacity:1;stroke-miterlimit:10;" d="M 198.078125 410.75 L 216.230469 410.75 "/>
<path style="fill:none;stroke-width:1;stroke-linecap:butt;stroke-linejoin:miter;stroke:rgb(14.901961%,19.607843%,21.960784%);stroke-opacity:1;stroke-miterlimit:10;" d="M 37.171875 409.75 L 94.140625 409.75 "/>
<path style="fill:none;stroke-width:1;stroke-linecap:butt;stroke-linejoin:miter;stroke:rgb(14.901961%,19.607843%,21.960784%);stroke-opacity:1;stroke-miterlimit:10;" d="M 42.179688 406.738281 L 49.691406 406.738281 "/>
<path style="fill:none;stroke-width:1;stroke-linecap:butt;stroke-linejoin:miter;stroke:rgb(14.901961%,19.607843%,21.960784%);stroke-opacity:1;stroke-miterlimit:10;" d="M 84.75 406.238281 L 59.710938 406.238281 "/>
<path style="fill:none;stroke-width:1;stroke-linecap:butt;stroke-linejoin:miter;stroke:rgb(14.901961%,19.607843%,21.960784%);stroke-opacity:1;stroke-miterlimit:10;" d="M 37.171875 400.238281 L 59.078125 400.238281 "/>
<path style="fill:none;stroke-width:1;stroke-linecap:butt;stroke-linejoin:miter;stroke:rgb(54.117647%,54.117647%,54.117647%);stroke-opacity:1;stroke-miterlimit:10;" d="M 315.78125 404.738281 L 304.511719 404.738281 "/>
<path style="fill:none;stroke-width:1;stroke-linecap:butt;stroke-linejoin:miter;stroke:rgb(54.117647%,54.117647%,54.117647%);stroke-opacity:1;stroke-miterlimit:10;" d="M 318.289062 409.75 L 283.230469 409.75 "/>
<path style="fill:none;stroke-width:1;stroke-linecap:butt;stroke-linejoin:miter;stroke:rgb(54.117647%,54.117647%,54.117647%);stroke-opacity:1;stroke-miterlimit:10;" d="M 219.988281 412.75 L 236.898438 412.75 "/>
<path style="fill:none;stroke-width:1;stroke-linecap:butt;stroke-linejoin:miter;stroke:rgb(54.117647%,54.117647%,54.117647%);stroke-opacity:1;stroke-miterlimit:10;" d="M 218.109375 404.738281 L 263.820312 404.738281 "/>
<path style="fill:none;stroke-width:1;stroke-linecap:butt;stroke-linejoin:miter;stroke:rgb(54.117647%,54.117647%,54.117647%);stroke-opacity:1;stroke-miterlimit:10;" d="M 303.261719 398.238281 L 276.96875 398.238281 "/>
<path style="fill-rule:nonzero;fill:rgb(100%,100%,100%);fill-opacity:1;stroke-width:1;stroke-linecap:butt;stroke-linejoin:miter;stroke:rgb(14.901961%,19.607843%,21.960784%);stroke-opacity:1;stroke-miterlimit:10;" d="M 119.19125 395.228281 L 140.480312 395.228281 L 140.480312 417.251719 L 119.19125 417.251719 Z M 119.19125 395.228281 " transform="matrix(-1,0.000000000000000122,-0.000000000000000122,-1,259.66,812.49)"/>
<path style="fill-rule:nonzero;fill:rgb(14.901961%,19.607843%,21.960784%);fill-opacity:1;stroke-width:1;stroke-linecap:butt;stroke-linejoin:miter;stroke:rgb(14.901961%,19.607843%,21.960784%);stroke-opacity:1;stroke-miterlimit:10;" d="M 130.629375 372.520937 L 312.648906 372.520937 L 312.648906 395.040469 L 130.629375 395.040469 Z M 130.629375 372.520937 " transform="matrix(-1,0.000000000000000122,-0.000000000000000122,-1,443.27,767.56)"/>
<path style="fill-rule:nonzero;fill:rgb(100%,100%,100%);fill-opacity:1;stroke-width:1;stroke-linecap:butt;stroke-linejoin:miter;stroke:rgb(14.901961%,19.607843%,21.960784%);stroke-opacity:1;stroke-miterlimit:10;" d="M 30.45125 372.520937 L 212.470781 372.520937 L 212.470781 395.040469 L 30.45125 395.040469 Z M 30.45125 372.520937 " transform="matrix(-1,0.000000000000000122,-0.000000000000000122,-1,242.92,767.56)"/>
<path style="fill:none;stroke-width:1;stroke-linecap:butt;stroke-linejoin:miter;stroke:rgb(14.901961%,19.607843%,21.960784%);stroke-opacity:1;stroke-miterlimit:10;" d="M 211.21875 378.53125 L 166.761719 378.53125 "/>
<path style="fill:none;stroke-width:1;stroke-linecap:butt;stroke-linejoin:miter;stroke:rgb(14.901961%,19.607843%,21.960784%);stroke-opacity:1;stroke-miterlimit:10;" d="M 202.449219 383.53125 L 137.960938 383.53125 "/>
<path style="fill:none;stroke-width:1;stroke-linecap:butt;stroke-linejoin:miter;stroke:rgb(14.901961%,19.607843%,21.960784%);stroke-opacity:1;stroke-miterlimit:10;" d="M 176.78125 388.03125 L 188.050781 388.03125 "/>
<path style="fill:none;stroke-width:1;stroke-linecap:butt;stroke-linejoin:miter;stroke:rgb(14.901961%,19.607843%,21.960784%);stroke-opacity:1;stroke-miterlimit:10;" d="M 192.429688 388.03125 L 210.589844 388.03125 "/>
<path style="fill:none;stroke-width:1;stroke-linecap:butt;stroke-linejoin:miter;stroke:rgb(14.901961%,19.607843%,21.960784%);stroke-opacity:1;stroke-miterlimit:10;" d="M 31.519531 387.03125 L 88.5 387.03125 "/>
<path style="fill:none;stroke-width:1;stroke-linecap:butt;stroke-linejoin:miter;stroke:rgb(14.901961%,19.607843%,21.960784%);stroke-opacity:1;stroke-miterlimit:10;" d="M 36.53125 384.03125 L 44.050781 384.03125 "/>
<path style="fill:none;stroke-width:1;stroke-linecap:butt;stroke-linejoin:miter;stroke:rgb(14.901961%,19.607843%,21.960784%);stroke-opacity:1;stroke-miterlimit:10;" d="M 79.109375 383.53125 L 54.058594 383.53125 "/>
<path style="fill:none;stroke-width:1;stroke-linecap:butt;stroke-linejoin:miter;stroke:rgb(14.901961%,19.607843%,21.960784%);stroke-opacity:1;stroke-miterlimit:10;" d="M 31.519531 377.53125 L 53.441406 377.53125 "/>
<path style="fill:none;stroke-width:1;stroke-linecap:butt;stroke-linejoin:miter;stroke:rgb(54.117647%,54.117647%,54.117647%);stroke-opacity:1;stroke-miterlimit:10;" d="M 310.140625 382.03125 L 298.871094 382.03125 "/>
<path style="fill:none;stroke-width:1;stroke-linecap:butt;stroke-linejoin:miter;stroke:rgb(54.117647%,54.117647%,54.117647%);stroke-opacity:1;stroke-miterlimit:10;" d="M 312.640625 387.03125 L 277.578125 387.03125 "/>
<path style="fill:none;stroke-width:1;stroke-linecap:butt;stroke-linejoin:miter;stroke:rgb(54.117647%,54.117647%,54.117647%);stroke-opacity:1;stroke-miterlimit:10;" d="M 214.351562 390.039062 L 231.25 390.039062 "/>
<path style="fill:none;stroke-width:1;stroke-linecap:butt;stroke-linejoin:miter;stroke:rgb(54.117647%,54.117647%,54.117647%);stroke-opacity:1;stroke-miterlimit:10;" d="M 212.46875 382.03125 L 258.171875 382.03125 "/>
<path style="fill:none;stroke-width:1;stroke-linecap:butt;stroke-linejoin:miter;stroke:rgb(54.117647%,54.117647%,54.117647%);stroke-opacity:1;stroke-miterlimit:10;" d="M 297.621094 375.519531 L 271.320312 375.519531 "/>
<path style="fill-rule:nonzero;fill:rgb(100%,100%,100%);fill-opacity:1;stroke-width:1;stroke-linecap:butt;stroke-linejoin:miter;stroke:rgb(14.901961%,19.607843%,21.960784%);stroke-opacity:1;stroke-miterlimit:10;" d="M 113.541875 372.520937 L 134.830937 372.520937 L 134.830937 394.540469 L 113.541875 394.540469 Z M 113.541875 372.520937 " transform="matrix(-1,0.000000000000000122,-0.000000000000000122,-1,248.37,767.06)"/>
<path style="fill-rule:nonzero;fill:rgb(14.901961%,19.607843%,21.960784%);fill-opacity:1;stroke-width:1;stroke-linecap:butt;stroke-linejoin:miter;stroke:rgb(14.901961%,19.607843%,21.960784%);stroke-opacity:1;stroke-miterlimit:10;" d="M 283.28125 118.621094 L 457.519531 118.621094 L 457.519531 463.179688 L 283.28125 463.179688 Z M 283.28125 118.621094 "/>
<path style="fill:none;stroke-width:1;stroke-linecap:butt;stroke-linejoin:miter;stroke:rgb(54.117647%,54.117647%,54.117647%);stroke-opacity:1;stroke-miterlimit:10;" d="M 438.679688 120.191406 L 438.679688 179.839844 "/>
<path style="fill:none;stroke-width:1;stroke-linecap:butt;stroke-linejoin:miter;stroke:rgb(54.117647%,54.117647%,54.117647%);stroke-opacity:1;stroke-miterlimit:10;" d="M 449.671875 135.101562 L 449.671875 160.21875 "/>
<path style="fill:none;stroke-width:1;stroke-linecap:butt;stroke-linejoin:miter;stroke:rgb(54.117647%,54.117647%,54.117647%);stroke-opacity:1;stroke-miterlimit:10;" d="M 444.179688 129.609375 L 444.179688 219.078125 "/>
<path style="fill:none;stroke-width:1;stroke-linecap:butt;stroke-linejoin:miter;stroke:rgb(54.117647%,54.117647%,54.117647%);stroke-opacity:1;stroke-miterlimit:10;" d="M 453.601562 118.621094 L 453.601562 235.570312 "/>
<path style="fill:none;stroke-width:1;stroke-linecap:butt;stroke-linejoin:miter;stroke:rgb(54.117647%,54.117647%,54.117647%);stroke-opacity:1;stroke-miterlimit:10;" d="M 440.25 462.390625 L 440.25 401.171875 "/>
<path style="fill:none;stroke-width:1;stroke-linecap:butt;stroke-linejoin:miter;stroke:rgb(54.117647%,54.117647%,54.117647%);stroke-opacity:1;stroke-miterlimit:10;" d="M 446.53125 463.179688 L 446.53125 449.828125 "/>
<path style="fill:none;stroke-width:1;stroke-linecap:butt;stroke-linejoin:miter;stroke:rgb(54.117647%,54.117647%,54.117647%);stroke-opacity:1;stroke-miterlimit:10;" d="M 448.101562 445.121094 L 448.101562 390.96875 "/>
<path style="fill:none;stroke-width:1;stroke-linecap:butt;stroke-linejoin:miter;stroke:rgb(54.117647%,54.117647%,54.117647%);stroke-opacity:1;stroke-miterlimit:10;" d="M 441.039062 393.320312 L 441.039062 304.628906 "/>
<path style="fill-rule:nonzero;fill:rgb(57.254902%,89.019608%,66.27451%);fill-opacity:1;stroke-width:1;stroke-linecap:butt;stroke-linejoin:miter;stroke:rgb(14.901961%,19.607843%,21.960784%);stroke-opacity:1;stroke-miterlimit:10;" d="M 258.949219 118.621094 L 433.191406 118.621094 L 433.191406 463.179688 L 258.949219 463.179688 Z M 258.949219 118.621094 "/>
<path style="fill-rule:nonzero;fill:rgb(100%,100%,100%);fill-opacity:1;stroke-width:1;stroke-linecap:butt;stroke-linejoin:miter;stroke:rgb(14.901961%,19.607843%,21.960784%);stroke-opacity:1;stroke-miterlimit:10;" d="M 418.28125 143 C 411.210938 142.984375 405.382812 137.449219 405 130.390625 L 287.160156 130.390625 C 286.789062 137.460938 280.941406 143.003906 273.859375 143 C 273.070312 143 272.285156 142.925781 271.511719 142.78125 L 271.511719 432 C 272.285156 431.859375 273.070312 431.785156 273.859375 431.78125 C 278.546875 431.78125 282.890625 434.238281 285.300781 438.257812 C 287.710938 442.277344 287.835938 447.265625 285.628906 451.398438 L 406.511719 451.398438 C 404.296875 447.265625 404.417969 442.273438 406.832031 438.253906 C 409.242188 434.230469 413.589844 431.773438 418.28125 431.78125 C 419.066406 431.785156 419.855469 431.859375 420.628906 432 L 420.628906 142.730469 C 419.855469 142.890625 419.070312 142.980469 418.28125 143 Z M 342.539062 343.089844 C 315.011719 343.089844 292.699219 318.851562 292.699219 288.941406 C 292.699219 259.03125 315.011719 234.78125 342.539062 234.78125 C 370.070312 234.78125 392.378906 259.03125 392.378906 288.941406 C 392.378906 318.851562 370.058594 343.089844 342.539062 343.089844 Z M 342.539062 343.089844 "/>
<path style="fill-rule:nonzero;fill:rgb(100%,100%,100%);fill-opacity:1;stroke-width:1;stroke-linecap:butt;stroke-linejoin:miter;stroke:rgb(14.901961%,19.607843%,21.960784%);stroke-opacity:1;stroke-miterlimit:10;" d="M 259.730469 270.101562 L 457.199219 270.101562 L 457.199219 305.421875 L 259.730469 305.421875 Z M 259.730469 270.101562 "/>
<path style="fill-rule:nonzero;fill:rgb(23.921569%,23.921569%,23.921569%);fill-opacity:1;stroke-width:1;stroke-linecap:butt;stroke-linejoin:miter;stroke:rgb(54.117647%,54.117647%,54.117647%);stroke-opacity:1;stroke-miterlimit:10;" d="M 433.570312 270.101562 L 457.199219 270.101562 L 457.199219 305.421875 L 433.570312 305.421875 Z M 433.570312 270.101562 "/>
<path style="fill-rule:nonzero;fill:rgb(14.901961%,19.607843%,21.960784%);fill-opacity:1;stroke-width:1;stroke-linecap:butt;stroke-linejoin:miter;stroke:rgb(14.901961%,19.607843%,21.960784%);stroke-opacity:1;stroke-miterlimit:10;" d="M 68.679688 441.75 L 62.859375 450.480469 L 51.488281 459.480469 L 51.488281 463.191406 L 90.378906 463.191406 L 89.050781 450.191406 L 89.050781 444.371094 C 89.050781 444.371094 73.179688 437.511719 68.679688 441.75 Z M 68.679688 441.75 "/>
<path style="fill-rule:nonzero;fill:rgb(100%,100%,100%);fill-opacity:1;stroke-width:1;stroke-linecap:butt;stroke-linejoin:miter;stroke:rgb(14.901961%,19.607843%,21.960784%);stroke-opacity:1;stroke-miterlimit:10;" d="M 90.03125 459.738281 L 51.488281 459.738281 L 51.488281 463.179688 L 90.378906 463.179688 Z M 90.03125 459.738281 "/>
<path style="fill-rule:nonzero;fill:rgb(14.901961%,19.607843%,21.960784%);fill-opacity:1;stroke-width:1;stroke-linecap:butt;stroke-linejoin:miter;stroke:rgb(14.901961%,19.607843%,21.960784%);stroke-opacity:1;stroke-miterlimit:10;" d="M 132.898438 441.75 L 139.101562 450.480469 L 151.230469 459.480469 L 151.230469 463.191406 L 109.78125 463.191406 L 111.191406 450.191406 L 111.191406 444.371094 C 111.191406 444.371094 128.109375 437.511719 132.898438 441.75 Z M 132.898438 441.75 "/>
<path style="fill-rule:nonzero;fill:rgb(100%,100%,100%);fill-opacity:1;stroke-width:1;stroke-linecap:butt;stroke-linejoin:miter;stroke:rgb(14.901961%,19.607843%,21.960784%);stroke-opacity:1;stroke-miterlimit:10;" d="M 110.148438 459.738281 L 151.230469 459.738281 L 151.230469 463.179688 L 109.78125 463.179688 Z M 110.148438 459.738281 "/>
<path style="fill-rule:nonzero;fill:rgb(57.254902%,89.019608%,66.27451%);fill-opacity:1;stroke-width:1;stroke-linecap:butt;stroke-linejoin:miter;stroke:rgb(14.901961%,19.607843%,21.960784%);stroke-opacity:1;stroke-miterlimit:10;" d="M 51.328125 260.679688 C 51.328125 260.679688 60.410156 363.160156 61.058594 382.621094 C 61.710938 402.078125 67.871094 428.351562 67.871094 428.351562 L 65 432.890625 L 67.921875 442.941406 C 67.921875 442.941406 74.730469 441.320312 78.300781 442.621094 C 81.871094 443.921875 88.300781 445.539062 88.300781 445.539062 C 88.300781 445.539062 91.550781 436.78125 91.871094 432.890625 C 92.191406 429 88 419.589844 88 419.589844 L 87.351562 302.519531 L 93.191406 302.519531 L 108.089844 426.398438 L 107.441406 433.859375 L 110.359375 445.539062 C 110.359375 445.539062 127.550781 441.96875 128.839844 441.640625 C 129.824219 441.492188 130.832031 441.605469 131.761719 441.96875 C 131.761719 441.96875 133.761719 437.75 133.761719 436.449219 C 133.761719 435.148438 131.160156 427.699219 131.160156 427.699219 L 130.511719 369.648438 L 130.511719 259.710938 L 51.378906 258.089844 Z M 51.328125 260.679688 "/>
<path style="fill:none;stroke-width:1;stroke-linecap:round;stroke-linejoin:round;stroke:rgb(14.901961%,19.607843%,21.960784%);stroke-opacity:1;stroke-miterlimit:4;" d="M 127.71875 305.941406 L 129.488281 344.710938 L 121.941406 345.390625 L 121.941406 350.199219 L 127.429688 350.539062 "/>
<path style="fill:none;stroke-width:1;stroke-linecap:round;stroke-linejoin:round;stroke:rgb(14.901961%,19.607843%,21.960784%);stroke-opacity:1;stroke-miterlimit:4;" d="M 126.398438 277.101562 L 127.550781 302.140625 "/>
<path style="fill:none;stroke-width:1;stroke-linecap:round;stroke-linejoin:round;stroke:rgb(14.901961%,19.607843%,21.960784%);stroke-opacity:1;stroke-miterlimit:4;" d="M 123.101562 373.210938 C 123.351562 380.140625 123.898438 386.148438 125.03125 386.570312 C 127.78125 387.570312 128.460938 388.628906 128.460938 388.628906 "/>
<path style="fill:none;stroke-width:1;stroke-linecap:round;stroke-linejoin:round;stroke:rgb(14.901961%,19.607843%,21.960784%);stroke-opacity:1;stroke-miterlimit:4;" d="M 123 351.570312 C 123 351.570312 122.820312 360.328125 123 369.089844 "/>
<path style="fill:none;stroke-width:1;stroke-linecap:round;stroke-linejoin:round;stroke:rgb(14.901961%,19.607843%,21.960784%);stroke-opacity:1;stroke-miterlimit:4;" d="M 79.390625 299.058594 L 93.109375 300.089844 "/>
<path style="fill:none;stroke-width:1;stroke-linecap:round;stroke-linejoin:round;stroke:rgb(14.901961%,19.607843%,21.960784%);stroke-opacity:1;stroke-miterlimit:4;" d="M 83.851562 266.121094 L 84.191406 285.328125 L 90.371094 289.800781 "/>
<path style="fill:none;stroke-width:1;stroke-linecap:round;stroke-linejoin:round;stroke:rgb(14.901961%,19.607843%,21.960784%);stroke-opacity:1;stroke-miterlimit:4;" d="M 90.371094 272.980469 L 91.398438 296.660156 "/>
<path style="fill:none;stroke-width:1;stroke-linecap:round;stroke-linejoin:round;stroke:rgb(14.901961%,19.607843%,21.960784%);stroke-opacity:1;stroke-miterlimit:4;" d="M 86.128906 382.808594 L 86.589844 406.480469 "/>
<path style="fill:none;stroke-width:1;stroke-linecap:round;stroke-linejoin:round;stroke:rgb(14.901961%,19.607843%,21.960784%);stroke-opacity:1;stroke-miterlimit:4;" d="M 84.53125 300.429688 L 86.019531 376.960938 "/>
<path style="fill:none;stroke-width:1;stroke-linecap:round;stroke-linejoin:round;stroke:rgb(14.901961%,19.607843%,21.960784%);stroke-opacity:1;stroke-miterlimit:4;" d="M 112.328125 276.070312 C 112.328125 276.070312 117.140625 286.019531 126.058594 282.929688 "/>
<path style="fill:none;stroke-width:1;stroke-linecap:round;stroke-linejoin:round;stroke:rgb(14.901961%,19.607843%,21.960784%);stroke-opacity:1;stroke-miterlimit:4;" d="M 64.289062 276.070312 C 64.289062 276.070312 60.851562 283.621094 55.359375 284.648438 "/>
<path style="fill-rule:nonzero;fill:rgb(100%,100%,100%);fill-opacity:1;stroke-width:1;stroke-linecap:butt;stroke-linejoin:miter;stroke:rgb(14.901961%,19.607843%,21.960784%);stroke-opacity:1;stroke-miterlimit:10;" d="M 84.671875 146.328125 L 74.359375 149.449219 L 65.71875 260.25 L 111.289062 260.980469 L 113.691406 147.050781 Z M 84.671875 146.328125 "/>
<path style="fill-rule:nonzero;fill:rgb(100%,100%,100%);fill-opacity:1;stroke-width:1;stroke-linecap:butt;stroke-linejoin:miter;stroke:rgb(14.901961%,19.607843%,21.960784%);stroke-opacity:1;stroke-miterlimit:10;" d="M 81 142 L 78.578125 142 L 77.359375 145.160156 L 77.851562 171.910156 L 92.929688 162.191406 L 107.761719 176.289062 L 109.710938 144.429688 C 109.710938 144.429688 110.441406 142.96875 108.25 142 C 106.058594 141.03125 105.328125 140.78125 105.328125 140.78125 Z M 81 142 "/>
<path style="fill-rule:nonzero;fill:rgb(100%,100%,100%);fill-opacity:1;stroke-width:1;stroke-linecap:butt;stroke-linejoin:miter;stroke:rgb(14.901961%,19.607843%,21.960784%);stroke-opacity:1;stroke-miterlimit:10;" d="M 79.550781 134.199219 L 80.28125 145.199219 C 80.28125 145.199219 87.28125 160.519531 91.949219 162.710938 C 96.621094 164.898438 107.28125 144.46875 107.28125 144.46875 L 106.550781 132.308594 L 79.300781 132.308594 Z M 79.550781 134.199219 "/>
<path style="fill-rule:nonzero;fill:rgb(14.901961%,19.607843%,21.960784%);fill-opacity:1;stroke-width:1;stroke-linecap:butt;stroke-linejoin:miter;stroke:rgb(14.901961%,19.607843%,21.960784%);stroke-opacity:1;stroke-miterlimit:10;" d="M 79.550781 134.199219 C 79.550781 134.199219 88.300781 153.199219 93.410156 153.910156 C 98.519531 154.621094 106.789062 136.390625 106.789062 134.691406 C 106.789062 132.988281 79.550781 134.199219 79.550781 134.199219 Z M 79.550781 134.199219 "/>
<path style="fill-rule:nonzero;fill:rgb(100%,100%,100%);fill-opacity:1;stroke-width:1;stroke-linecap:butt;stroke-linejoin:miter;stroke:rgb(14.901961%,19.607843%,21.960784%);stroke-opacity:1;stroke-miterlimit:10;" d="M 74.929688 117.921875 C 74.929688 117.921875 70.710938 114.460938 70.128906 119.261719 C 69.550781 124.058594 75.699219 128.480469 75.699219 128.480469 Z M 74.929688 117.921875 "/>
<path style="fill-rule:nonzero;fill:rgb(100%,100%,100%);fill-opacity:1;stroke-width:1;stroke-linecap:butt;stroke-linejoin:miter;stroke:rgb(14.901961%,19.607843%,21.960784%);stroke-opacity:1;stroke-miterlimit:10;" d="M 109.230469 117.921875 C 109.230469 117.921875 113.460938 114.460938 114.039062 119.261719 C 114.621094 124.058594 108.46875 128.480469 108.46875 128.480469 Z M 109.230469 117.921875 "/>
<path style="fill-rule:nonzero;fill:rgb(100%,100%,100%);fill-opacity:1;stroke-width:1;stroke-linecap:butt;stroke-linejoin:miter;stroke:rgb(14.901961%,19.607843%,21.960784%);stroke-opacity:1;stroke-miterlimit:10;" d="M 74.160156 118.488281 C 74.160156 118.488281 76.46875 131.941406 78.390625 134.429688 C 80.308594 136.921875 86.261719 145.570312 91.828125 147.109375 C 97.398438 148.648438 106.050781 137.890625 107.769531 134.238281 C 109.488281 130.589844 110.078125 114.460938 110.078125 114.460938 L 109.890625 105.820312 C 109.890625 105.820312 109.308594 99.480469 106.808594 96.019531 C 104.308594 92.558594 93.558594 90.261719 86.460938 93 C 79.359375 95.738281 73.398438 108.121094 73.398438 110.621094 C 73.398438 113.121094 74.160156 118.488281 74.160156 118.488281 Z M 74.160156 118.488281 "/>
<path style="fill-rule:nonzero;fill:rgb(14.901961%,19.607843%,21.960784%);fill-opacity:1;stroke-width:1;stroke-linecap:butt;stroke-linejoin:miter;stroke:rgb(14.901961%,19.607843%,21.960784%);stroke-opacity:1;stroke-miterlimit:10;" d="M 86.839844 103.511719 C 86.839844 103.511719 80.839844 110.429688 78.199219 111.769531 C 77 112.324219 75.84375 112.964844 74.738281 113.691406 L 75.121094 121.761719 L 72.050781 110.761719 C 72.050781 110.761719 68.210938 99.089844 69 93.910156 C 69.789062 88.730469 87.238281 83.730469 93.390625 81.808594 C 99.539062 79.890625 101.839844 83.730469 105.871094 86.808594 C 109.898438 89.890625 114.128906 92.191406 113.558594 97.378906 C 113.0625 100.988281 112.160156 104.53125 110.871094 107.941406 C 110.871094 107.941406 109.871094 122.339844 109.871094 122.941406 C 109.871094 123.539062 108.140625 108.730469 108.140625 108.730469 C 106.136719 108.203125 104.632812 106.546875 104.300781 104.5 C 103.789062 101.964844 103.457031 99.398438 103.300781 96.820312 C 103.300781 96.820312 100.800781 102.011719 98.300781 104.5 C 95.800781 106.988281 89.660156 109.300781 88.699219 109.109375 C 87.738281 108.921875 89.699219 104.308594 89.699219 104.308594 L 86.238281 107.578125 Z M 86.839844 103.511719 "/>
<path style="fill:none;stroke-width:1;stroke-linecap:butt;stroke-linejoin:miter;stroke:rgb(14.901961%,19.607843%,21.960784%);stroke-opacity:1;stroke-miterlimit:10;" d="M 88.378906 130.398438 C 89.332031 131.246094 90.4375 131.898438 91.640625 132.320312 C 93.179688 132.699219 95.871094 130.398438 96.640625 129.820312 "/>
<path style="fill-rule:nonzero;fill:rgb(100%,100%,100%);fill-opacity:1;stroke-width:1;stroke-linecap:butt;stroke-linejoin:miter;stroke:rgb(14.901961%,19.607843%,21.960784%);stroke-opacity:1;stroke-miterlimit:10;" d="M 87.800781 135.78125 C 87.800781 135.78125 92.21875 139.230469 98.171875 135.199219 "/>
<path style=" stroke:none;fill-rule:nonzero;fill:rgb(14.901961%,19.607843%,21.960784%);fill-opacity:1;" d="M 86.070312 121.371094 C 86.070312 120.203125 85.511719 119.261719 84.820312 119.261719 C 84.128906 119.261719 83.570312 120.203125 83.570312 121.371094 C 83.570312 122.535156 84.128906 123.480469 84.820312 123.480469 C 85.511719 123.480469 86.070312 122.535156 86.070312 121.371094 Z M 86.070312 121.371094 "/>
<path style=" stroke:none;fill-rule:nonzero;fill:rgb(14.901961%,19.607843%,21.960784%);fill-opacity:1;" d="M 100.671875 121.371094 C 100.671875 120.203125 100.109375 119.261719 99.421875 119.261719 C 98.730469 119.261719 98.171875 120.203125 98.171875 121.371094 C 98.171875 122.535156 98.730469 123.480469 99.421875 123.480469 C 100.109375 123.480469 100.671875 122.535156 100.671875 121.371094 Z M 100.671875 121.371094 "/>
<path style="fill:none;stroke-width:1;stroke-linecap:butt;stroke-linejoin:miter;stroke:rgb(14.901961%,19.607843%,21.960784%);stroke-opacity:1;stroke-miterlimit:10;" d="M 96.441406 114.648438 C 98.980469 113.320312 102.089844 113.785156 104.128906 115.800781 "/>
<path style="fill:none;stroke-width:1;stroke-linecap:butt;stroke-linejoin:miter;stroke:rgb(14.901961%,19.607843%,21.960784%);stroke-opacity:1;stroke-miterlimit:10;" d="M 86.261719 114.460938 C 84.242188 113.265625 81.65625 113.683594 80.121094 115.460938 "/>
<path style="fill:none;stroke-width:1;stroke-linecap:butt;stroke-linejoin:miter;stroke:rgb(14.901961%,19.607843%,21.960784%);stroke-opacity:1;stroke-miterlimit:10;" d="M 99.898438 125.019531 L 104.128906 124.058594 "/>
<path style="fill:none;stroke-width:1;stroke-linecap:butt;stroke-linejoin:miter;stroke:rgb(14.901961%,19.607843%,21.960784%);stroke-opacity:1;stroke-miterlimit:10;" d="M 80.5 123.871094 L 83.960938 125.019531 "/>
<path style="fill-rule:nonzero;fill:rgb(14.901961%,19.607843%,21.960784%);fill-opacity:1;stroke-width:1;stroke-linecap:butt;stroke-linejoin:miter;stroke:rgb(14.901961%,19.607843%,21.960784%);stroke-opacity:1;stroke-miterlimit:10;" d="M 77.601562 170 L 75.410156 275 L 50.410156 273.789062 L 48.898438 270.898438 C 48.898438 270.898438 45.5 270.898438 45.011719 268.21875 C 44.519531 265.539062 48.410156 206.691406 48.410156 206.691406 L 27 204.738281 L 41.351562 176.738281 C 41.351562 176.738281 45.730469 157.28125 46.699219 155.820312 C 47.671875 154.359375 78.078125 143.898438 78.078125 143.898438 Z M 77.601562 170 "/>
<path style="fill-rule:nonzero;fill:rgb(14.901961%,19.607843%,21.960784%);fill-opacity:1;stroke-width:1;stroke-linecap:butt;stroke-linejoin:miter;stroke:rgb(14.901961%,19.607843%,21.960784%);stroke-opacity:1;stroke-miterlimit:10;" d="M 108.738281 143.28125 L 105.171875 275.28125 L 137.269531 274.949219 L 138.570312 270.089844 L 141.808594 267.820312 L 141.808594 257.441406 C 141.808594 252.25 135.648438 214.628906 135.648438 214.628906 C 135.648438 214.628906 151.871094 212.359375 152.191406 209.121094 C 152.511719 205.878906 145.378906 156.910156 141.488281 153.339844 C 137.601562 149.769531 108.738281 143.28125 108.738281 143.28125 Z M 108.738281 143.28125 "/>
<path style="fill-rule:nonzero;fill:rgb(100%,100%,100%);fill-opacity:1;stroke-width:1;stroke-linecap:butt;stroke-linejoin:miter;stroke:rgb(14.901961%,19.607843%,21.960784%);stroke-opacity:1;stroke-miterlimit:10;" d="M 116.789062 218.550781 L 121.058594 230.851562 C 121.058594 230.851562 123.53125 224.910156 123.160156 221.171875 C 122.789062 217.429688 122.78125 216.300781 121.660156 216.109375 C 120.539062 215.921875 117 215.179688 116.789062 218.550781 Z M 116.789062 218.550781 "/>
<path style="fill-rule:nonzero;fill:rgb(57.254902%,89.019608%,66.27451%);fill-opacity:1;stroke-width:1;stroke-linecap:butt;stroke-linejoin:miter;stroke:rgb(14.901961%,19.607843%,21.960784%);stroke-opacity:1;stroke-miterlimit:10;" d="M 74.121094 186.589844 L 87.789062 213.75 L 102.210938 206.628906 L 90.039062 177.980469 Z M 74.121094 186.589844 "/>
<path style="fill-rule:nonzero;fill:rgb(100%,100%,100%);fill-opacity:1;stroke-width:1;stroke-linecap:butt;stroke-linejoin:miter;stroke:rgb(14.901961%,19.607843%,21.960784%);stroke-opacity:1;stroke-miterlimit:10;" d="M 97.828125 205.539062 C 97.488281 204.640625 97.933594 203.632812 98.828125 203.28125 C 98.910156 203.269531 98.992188 203.269531 99.070312 203.28125 L 90.070312 182.191406 C 89.902344 182.589844 89.566406 182.890625 89.148438 183.011719 C 88.519531 183.15625 87.867188 182.902344 87.5 182.371094 L 78 187.480469 C 78.121094 187.664062 78.214844 187.867188 78.269531 188.078125 C 78.542969 188.867188 78.257812 189.738281 77.570312 190.210938 L 87.058594 209 C 87.230469 208.8125 87.449219 208.671875 87.691406 208.601562 C 88.523438 208.441406 89.34375 208.914062 89.628906 209.710938 L 97.859375 205.648438 Z M 89.710938 200.679688 C 87.960938 201.171875 86.070312 199.878906 85.480469 197.789062 C 84.890625 195.699219 85.820312 193.601562 87.558594 193.109375 C 89.300781 192.621094 91.199219 193.910156 91.789062 196 C 92.378906 198.089844 91.449219 200.179688 89.710938 200.679688 Z M 89.710938 200.679688 "/>
<path style="fill-rule:nonzero;fill:rgb(57.254902%,89.019608%,66.27451%);fill-opacity:1;stroke-width:1;stroke-linecap:butt;stroke-linejoin:miter;stroke:rgb(14.901961%,19.607843%,21.960784%);stroke-opacity:1;stroke-miterlimit:10;" d="M 79.96875 183.25 L 87.269531 212.761719 L 102.910156 209.019531 L 97.398438 178.390625 Z M 79.96875 183.25 "/>
<path style="fill-rule:nonzero;fill:rgb(100%,100%,100%);fill-opacity:1;stroke-width:1;stroke-linecap:butt;stroke-linejoin:miter;stroke:rgb(14.901961%,19.607843%,21.960784%);stroke-opacity:1;stroke-miterlimit:10;" d="M 98.878906 207 C 98.8125 206.535156 98.929688 206.066406 99.210938 205.691406 C 99.488281 205.316406 99.90625 205.066406 100.371094 205 C 100.449219 204.992188 100.53125 204.992188 100.609375 205 L 96.609375 182.449219 C 96.355469 182.800781 95.960938 183.019531 95.53125 183.050781 C 94.878906 183.046875 94.296875 182.652344 94.050781 182.050781 L 83.589844 185 C 83.671875 185.207031 83.71875 185.425781 83.730469 185.648438 C 83.820312 186.476562 83.34375 187.265625 82.570312 187.570312 L 87.621094 208 C 87.828125 207.855469 88.070312 207.773438 88.320312 207.761719 C 89.164062 207.78125 89.863281 208.421875 89.960938 209.261719 L 98.890625 207.128906 C 98.890625 207.128906 98.878906 207 98.878906 207 Z M 92 200.441406 C 90.191406 200.539062 88.628906 198.859375 88.519531 196.691406 C 88.410156 194.519531 89.78125 192.691406 91.589844 192.589844 C 93.398438 192.488281 94.949219 194.179688 95.070312 196.351562 C 95.191406 198.519531 93.851562 200.351562 92 200.441406 Z M 92 200.441406 "/>
<path style="fill-rule:nonzero;fill:rgb(57.254902%,89.019608%,66.27451%);fill-opacity:1;stroke-width:1;stroke-linecap:butt;stroke-linejoin:miter;stroke:rgb(14.901961%,19.607843%,21.960784%);stroke-opacity:1;stroke-miterlimit:10;" d="M 88.621094 180.96875 L 86.941406 211.320312 L 102.988281 212.339844 L 106.710938 181.429688 Z M 88.621094 180.96875 "/>
<path style="fill-rule:nonzero;fill:rgb(100%,100%,100%);fill-opacity:1;stroke-width:1;stroke-linecap:butt;stroke-linejoin:miter;stroke:rgb(14.901961%,19.607843%,21.960784%);stroke-opacity:1;stroke-miterlimit:10;" d="M 99.730469 209.210938 C 99.882812 208.257812 100.777344 207.605469 101.730469 207.75 C 101.8125 207.769531 101.894531 207.800781 101.96875 207.839844 L 104.710938 185.078125 C 104.367188 185.347656 103.921875 185.441406 103.5 185.339844 C 102.878906 185.152344 102.433594 184.605469 102.378906 183.960938 L 91.570312 183.691406 C 91.589844 183.910156 91.570312 184.128906 91.511719 184.339844 C 91.355469 185.160156 90.671875 185.773438 89.839844 185.839844 L 88.679688 206.839844 C 88.925781 206.769531 89.183594 206.769531 89.429688 206.839844 C 90.230469 207.113281 90.710938 207.9375 90.550781 208.769531 L 99.71875 209.351562 C 99.710938 209.304688 99.714844 209.253906 99.730469 209.210938 Z M 95.109375 200.941406 C 93.359375 200.5 92.359375 198.441406 92.890625 196.328125 C 93.421875 194.21875 95.269531 192.871094 97.03125 193.328125 C 98.789062 193.789062 99.769531 195.839844 99.25 197.949219 C 98.730469 200.058594 96.871094 201.378906 95.109375 200.941406 Z M 95.109375 200.941406 "/>
<path style="fill-rule:nonzero;fill:rgb(100%,100%,100%);fill-opacity:1;stroke-width:1;stroke-linecap:round;stroke-linejoin:round;stroke:rgb(14.901961%,19.607843%,21.960784%);stroke-opacity:1;stroke-miterlimit:4;" d="M 121.660156 210.679688 C 119.890625 210.414062 118.140625 210.039062 116.421875 209.558594 C 115.671875 209.191406 110.238281 207.308594 105.929688 205.070312 C 101.621094 202.828125 98.070312 205.070312 91.929688 206.191406 C 85.789062 207.308594 84.058594 207.691406 84.058594 209.191406 C 84.058594 210.691406 87.25 211.058594 87.25 211.058594 C 87.25 211.058594 84.25 211.429688 85.75 213.488281 C 86.632812 214.714844 87.878906 215.628906 89.308594 216.109375 C 90.140625 217.484375 91.21875 218.691406 92.488281 219.671875 C 94.359375 220.980469 95.671875 222.109375 95.671875 222.109375 C 96.84375 223.570312 98.402344 224.671875 100.171875 225.289062 C 102.789062 226.039062 117.578125 221.539062 117.578125 221.539062 C 117.578125 221.539062 122.070312 222.851562 123.199219 220.421875 C 124.328125 217.988281 121.660156 210.679688 121.660156 210.679688 Z M 121.660156 210.679688 "/>
<path style="fill:none;stroke-width:1;stroke-linecap:round;stroke-linejoin:round;stroke:rgb(14.901961%,19.607843%,21.960784%);stroke-opacity:1;stroke-miterlimit:4;" d="M 87.210938 211.058594 C 87.210938 211.058594 98.441406 210.679688 102 209.558594 "/>
<path style="fill:none;stroke-width:1;stroke-linecap:round;stroke-linejoin:round;stroke:rgb(14.901961%,19.607843%,21.960784%);stroke-opacity:1;stroke-miterlimit:4;" d="M 89.269531 216.109375 C 92.367188 216.605469 95.496094 216.855469 98.628906 216.859375 C 100.476562 216.824219 102.28125 216.308594 103.871094 215.371094 "/>
<path style="fill:none;stroke-width:1;stroke-linecap:round;stroke-linejoin:round;stroke:rgb(14.901961%,19.607843%,21.960784%);stroke-opacity:1;stroke-miterlimit:4;" d="M 94 220.800781 C 94 220.800781 100.550781 222.800781 105 221.359375 "/>
<path style="fill-rule:nonzero;fill:rgb(14.901961%,19.607843%,21.960784%);fill-opacity:1;stroke-width:1;stroke-linecap:butt;stroke-linejoin:miter;stroke:rgb(14.901961%,19.607843%,21.960784%);stroke-opacity:1;stroke-miterlimit:10;" d="M 127.21875 178.628906 L 130.789062 206.519531 L 120.730469 209.441406 C 120.730469 209.441406 122.359375 217.871094 121.730469 221.769531 C 121.308594 224.777344 121.089844 227.8125 121.078125 230.851562 C 121.078125 230.851562 132.078125 227.28125 139.238281 226.628906 C 146.398438 225.980469 152.539062 222.738281 154.480469 217.550781 C 156.421875 212.359375 150.269531 194.550781 150.269531 194.550781 "/>
<path style="fill:none;stroke-width:1;stroke-linecap:butt;stroke-linejoin:miter;stroke:rgb(41.960784%,41.960784%,41.960784%);stroke-opacity:1;stroke-miterlimit:10;" d="M 125.890625 208.621094 L 130.789062 206.519531 L 143.191406 203.191406 "/>
<path style="fill:none;stroke-width:1;stroke-linecap:butt;stroke-linejoin:miter;stroke:rgb(41.960784%,41.960784%,41.960784%);stroke-opacity:1;stroke-miterlimit:10;" d="M 130.789062 206.519531 L 126.941406 173.578125 "/>
<path style="fill-rule:nonzero;fill:rgb(100%,100%,100%);fill-opacity:1;stroke-width:1;stroke-linecap:butt;stroke-linejoin:miter;stroke:rgb(14.901961%,19.607843%,21.960784%);stroke-opacity:1;stroke-miterlimit:10;" d="M 67.378906 205.878906 C 67.378906 205.878906 65.140625 195.960938 64.199219 194.078125 C 63.261719 192.199219 58.199219 197.460938 57.828125 199.140625 C 57.460938 200.820312 65.878906 206.070312 67.378906 205.878906 Z M 67.378906 205.878906 "/>
<path style="fill-rule:nonzero;fill:rgb(100%,100%,100%);fill-opacity:1;stroke-width:1;stroke-linecap:butt;stroke-linejoin:miter;stroke:rgb(14.901961%,19.607843%,21.960784%);stroke-opacity:1;stroke-miterlimit:10;" d="M 62.488281 185 L 57.648438 190.679688 C 57.648438 190.679688 59 199 60.078125 199.328125 C 61.160156 199.660156 68.878906 193.710938 68.878906 193.710938 Z M 62.488281 185 "/>
<path style="fill-rule:nonzero;fill:rgb(100%,100%,100%);fill-opacity:1;stroke-width:1;stroke-linecap:round;stroke-linejoin:round;stroke:rgb(14.901961%,19.607843%,21.960784%);stroke-opacity:1;stroke-miterlimit:4;" d="M 71.480469 173.609375 C 71.480469 173.609375 63.050781 181.851562 62.480469 185.03125 C 61.910156 188.210938 67.910156 194.210938 68.660156 194.769531 C 69.410156 195.328125 74.839844 191.019531 75.019531 190.269531 C 75.199219 189.519531 71.46875 183.71875 71.46875 183.71875 C 73.1875 184.5625 74.859375 185.5 76.46875 186.53125 C 77.03125 187.089844 80.589844 192.148438 81.898438 191.769531 C 83.210938 191.390625 82.648438 188.960938 81.898438 186.71875 C 81.148438 184.480469 73.101562 176.980469 73.101562 176.980469 L 78.53125 178.289062 C 78.53125 178.289062 84.898438 184.46875 86.398438 184.46875 C 87.898438 184.46875 87.148438 182.96875 86.210938 181.660156 C 85.269531 180.351562 80.78125 175.109375 79.660156 173.800781 C 78.539062 172.488281 74.230469 171.738281 73.660156 171.738281 C 73.089844 171.738281 71.480469 173.609375 71.480469 173.609375 Z M 71.480469 173.609375 "/>
<path style="fill:none;stroke-width:1;stroke-linecap:round;stroke-linejoin:round;stroke:rgb(14.901961%,19.607843%,21.960784%);stroke-opacity:1;stroke-miterlimit:4;" d="M 71.480469 183.71875 L 68.859375 181.101562 "/>
<path style="fill:none;stroke-width:1;stroke-linecap:round;stroke-linejoin:round;stroke:rgb(14.901961%,19.607843%,21.960784%);stroke-opacity:1;stroke-miterlimit:4;" d="M 65.488281 184.28125 L 72.230469 192.519531 "/>
<path style="fill-rule:nonzero;fill:rgb(14.901961%,19.607843%,21.960784%);fill-opacity:1;stroke-width:1;stroke-linecap:butt;stroke-linejoin:miter;stroke:rgb(14.901961%,19.607843%,21.960784%);stroke-opacity:1;stroke-miterlimit:10;" d="M 57.460938 189.78125 C 57.460938 189.78125 58.769531 194.269531 59.519531 197.078125 C 60.269531 199.890625 67.378906 205.878906 67.378906 205.878906 C 67.378906 205.878906 57.269531 216.550781 48.28125 221.230469 C 39.289062 225.910156 28.730469 223.558594 25.550781 219.820312 C 22.371094 216.078125 23.679688 205.21875 26.300781 202.96875 C 28.921875 200.71875 44.160156 197.828125 47.910156 195.769531 C 51.660156 193.710938 57.460938 189.78125 57.460938 189.78125 Z M 57.460938 189.78125 "/>
<path style="fill:none;stroke-width:1;stroke-linecap:butt;stroke-linejoin:miter;stroke:rgb(41.960784%,41.960784%,41.960784%);stroke-opacity:1;stroke-miterlimit:10;" d="M 57.460938 189.78125 L 32.820312 201.820312 "/>
<path style="fill:none;stroke-width:1;stroke-linecap:butt;stroke-linejoin:miter;stroke:rgb(41.960784%,41.960784%,41.960784%);stroke-opacity:1;stroke-miterlimit:10;" d="M 54.261719 191.359375 L 54.261719 179.859375 "/>
<path style="fill-rule:nonzero;fill:rgb(57.254902%,89.019608%,66.27451%);fill-opacity:1;stroke-width:1;stroke-linecap:butt;stroke-linejoin:round;stroke:rgb(14.901961%,19.607843%,21.960784%);stroke-opacity:1;stroke-miterlimit:4;" d="M 218.238281 444.300781 C 218.238281 444.300781 215.238281 445.148438 207.238281 439.21875 C 199.238281 433.289062 189.878906 424.820312 189.878906 424.820312 C 189.878906 424.820312 199.121094 423.578125 203.390625 421.328125 C 208.089844 418.839844 213.589844 412.960938 213.589844 412.960938 C 213.589844 412.960938 232.21875 438.371094 255.519531 436.679688 C 254.699219 441.082031 251.679688 444.757812 247.519531 446.421875 C 240.261719 449.378906 218.238281 444.300781 218.238281 444.300781 Z M 218.238281 444.300781 "/>
<path style="fill-rule:nonzero;fill:rgb(100%,100%,100%);fill-opacity:1;stroke-width:1;stroke-linecap:butt;stroke-linejoin:miter;stroke:rgb(14.901961%,19.607843%,21.960784%);stroke-opacity:1;stroke-miterlimit:10;" d="M 248.46875 439.589844 C 248.46875 439.589844 228.691406 434.398438 218 423.050781 C 216.957031 423.335938 215.839844 423.136719 214.960938 422.507812 C 214.082031 421.878906 213.53125 420.890625 213.460938 419.808594 C 209.722656 423.320312 204.929688 425.496094 199.828125 426 C 199.828125 426 200.148438 428.269531 199.179688 428.921875 C 199.179688 428.921875 214.421875 442.21875 223.179688 443.839844 C 229.261719 445.054688 235.484375 445.394531 241.660156 444.839844 C 244.328125 444.558594 246.832031 443.421875 248.800781 441.601562 C 248.800781 441.601562 245.550781 440.890625 248.46875 439.589844 Z M 229.789062 438.859375 C 229.078125 440.609375 225.550781 440.859375 221.898438 439.339844 C 218.25 437.820312 215.898438 435.25 216.558594 433.511719 C 217.21875 431.769531 220.800781 431.511719 224.449219 433.03125 C 228.101562 434.550781 230.488281 437.121094 229.789062 438.859375 Z M 229.789062 438.859375 "/>
<path style="fill-rule:nonzero;fill:rgb(57.254902%,89.019608%,66.27451%);fill-opacity:1;stroke-width:1;stroke-linecap:butt;stroke-linejoin:round;stroke:rgb(14.901961%,19.607843%,21.960784%);stroke-opacity:1;stroke-miterlimit:4;" d="M 215.238281 443.769531 C 215.238281 443.769531 225.441406 447.96875 233.488281 447.96875 C 238.199219 447.996094 242.898438 447.476562 247.488281 446.421875 C 247.488281 446.421875 244.738281 447.921875 240.269531 445.050781 C 237.71875 443.410156 236.078125 439.761719 236.078125 439.761719 C 229.351562 442.054688 222.339844 443.40625 215.238281 443.769531 Z M 215.238281 443.769531 "/>
<path style="fill-rule:nonzero;fill:rgb(57.254902%,89.019608%,66.27451%);fill-opacity:1;stroke-width:1;stroke-linecap:butt;stroke-linejoin:round;stroke:rgb(14.901961%,19.607843%,21.960784%);stroke-opacity:1;stroke-miterlimit:4;" d="M 329.820312 401.058594 C 329.820312 401.058594 348.390625 394.949219 359.25 387.699219 L 370.800781 406.699219 C 370.800781 406.699219 343.179688 428.210938 335.929688 422.550781 Z M 329.820312 401.058594 "/>
<path style="fill-rule:nonzero;fill:rgb(100%,100%,100%);fill-opacity:1;stroke-width:1;stroke-linecap:butt;stroke-linejoin:miter;stroke:rgb(14.901961%,19.607843%,21.960784%);stroke-opacity:1;stroke-miterlimit:10;" d="M 362.878906 405.589844 C 362.929688 404.464844 363.714844 403.507812 364.808594 403.238281 L 359.679688 394.730469 C 359.25 394.875 358.800781 394.949219 358.351562 394.949219 C 357.234375 395.011719 356.160156 394.515625 355.480469 393.628906 C 345.890625 400.339844 331.179688 403.78125 331.179688 403.78125 L 334.121094 415.328125 C 334.121094 415.328125 333.671875 421.671875 341.589844 420.078125 C 347.730469 418.851562 359.28125 411.078125 364.191406 407.691406 C 363.40625 407.28125 362.902344 406.476562 362.878906 405.589844 Z M 343.089844 414.089844 C 339.621094 414.878906 336.390625 413.699219 335.871094 411.449219 C 335.351562 409.199219 337.75 406.71875 341.21875 405.921875 C 344.691406 405.121094 347.929688 406.308594 348.449219 408.558594 C 348.96875 410.808594 346.570312 413.289062 343.089844 414.089844 Z M 343.089844 414.089844 "/>
<path style="fill-rule:nonzero;fill:rgb(57.254902%,89.019608%,66.27451%);fill-opacity:1;stroke-width:1;stroke-linecap:butt;stroke-linejoin:round;stroke:rgb(14.901961%,19.607843%,21.960784%);stroke-opacity:1;stroke-miterlimit:4;" d="M 327.101562 392.460938 L 339.78125 417.589844 C 339.78125 417.589844 335.480469 419.851562 335.929688 422.589844 L 323.710938 398.589844 C 323.710938 398.589844 322.121094 394.71875 327.101562 392.460938 Z M 327.101562 392.460938 "/>
<path style="fill-rule:nonzero;fill:rgb(100%,100%,100%);fill-opacity:1;stroke-width:1;stroke-linecap:butt;stroke-linejoin:miter;stroke:rgb(14.901961%,19.607843%,21.960784%);stroke-opacity:1;stroke-miterlimit:10;" d="M 324.789062 400.699219 L 334.210938 419.179688 C 334.609375 418.292969 335.320312 417.582031 336.210938 417.179688 L 325.738281 398.800781 Z M 324.789062 400.699219 "/>
<path style="fill-rule:nonzero;fill:rgb(57.254902%,89.019608%,66.27451%);fill-opacity:1;stroke-width:1;stroke-linecap:butt;stroke-linejoin:miter;stroke:rgb(14.901961%,19.607843%,21.960784%);stroke-opacity:1;stroke-miterlimit:10;" d="M 189.488281 260.789062 L 189.691406 308.960938 L 214.828125 308.851562 L 214.910156 259.699219 Z M 189.488281 260.789062 "/>
<path style="fill-rule:nonzero;fill:rgb(100%,100%,100%);fill-opacity:1;stroke-width:1;stroke-linecap:butt;stroke-linejoin:miter;stroke:rgb(14.901961%,19.607843%,21.960784%);stroke-opacity:1;stroke-miterlimit:10;" d="M 209.320312 304.230469 C 209.363281 303.503906 209.699219 302.824219 210.246094 302.347656 C 210.796875 301.867188 211.515625 301.632812 212.238281 301.691406 C 212.367188 301.714844 212.488281 301.753906 212.609375 301.800781 L 212.558594 265.128906 C 212.109375 265.535156 211.5 265.71875 210.898438 265.621094 C 210 265.398438 209.316406 264.664062 209.160156 263.75 L 194 264.398438 C 194.050781 264.710938 194.050781 265.027344 194 265.339844 C 193.894531 266.511719 193.011719 267.460938 191.851562 267.648438 L 191.851562 301.648438 C 192.21875 301.503906 192.617188 301.457031 193.011719 301.519531 C 194.296875 301.894531 195.136719 303.128906 195.011719 304.460938 L 209.371094 304.398438 C 209.320312 304.320312 209.308594 304.269531 209.320312 304.230469 Z M 201 291.570312 C 198.210938 291.058594 196.371094 287.890625 196.890625 284.480469 C 197.410156 281.070312 200.121094 278.71875 202.890625 279.238281 C 205.660156 279.761719 207.53125 282.921875 207 286.328125 C 206.46875 289.738281 203.761719 292.089844 201 291.570312 Z M 201 291.570312 "/>
<path style="fill-rule:nonzero;fill:rgb(57.254902%,89.019608%,66.27451%);fill-opacity:1;stroke-width:1;stroke-linecap:butt;stroke-linejoin:miter;stroke:rgb(14.901961%,19.607843%,21.960784%);stroke-opacity:1;stroke-miterlimit:10;" d="M 424.558594 56.96875 L 389.5 92.03125 L 407.800781 110.328125 L 443.78125 74.769531 Z M 424.558594 56.96875 "/>
<path style="fill-rule:nonzero;fill:rgb(100%,100%,100%);fill-opacity:1;stroke-width:1;stroke-linecap:butt;stroke-linejoin:miter;stroke:rgb(14.901961%,19.607843%,21.960784%);stroke-opacity:1;stroke-miterlimit:10;" d="M 407.179688 103 C 407.742188 102.496094 408.488281 102.242188 409.242188 102.296875 C 409.996094 102.351562 410.695312 102.710938 411.179688 103.289062 C 411.253906 103.402344 411.320312 103.523438 411.371094 103.648438 L 438.121094 77 C 437.492188 76.96875 436.914062 76.652344 436.550781 76.140625 C 436.058594 75.320312 436.101562 74.285156 436.660156 73.511719 L 425.179688 62.859375 C 424.984375 63.121094 424.75 63.355469 424.488281 63.550781 C 423.558594 64.328125 422.214844 64.363281 421.238281 63.640625 L 396.371094 88.238281 C 396.742188 88.394531 397.066406 88.652344 397.300781 88.980469 C 397.976562 90.1875 397.691406 91.710938 396.621094 92.589844 L 407.070312 103.050781 Z M 410.378906 87.71875 C 408.71875 85.308594 409.710938 81.660156 412.578125 79.570312 C 415.449219 77.480469 419.128906 77.761719 420.78125 80.171875 C 422.429688 82.578125 421.441406 86.238281 418.570312 88.320312 C 415.699219 90.398438 412 90.089844 410.378906 87.671875 Z M 410.378906 87.71875 "/>
<path style="fill-rule:nonzero;fill:rgb(57.254902%,89.019608%,66.27451%);fill-opacity:1;stroke-width:1;stroke-linecap:butt;stroke-linejoin:miter;stroke:rgb(14.901961%,19.607843%,21.960784%);stroke-opacity:1;stroke-miterlimit:10;" d="M 183 203.941406 L 231.78125 184.648438 L 221.710938 159.191406 L 171.820312 178.578125 Z M 183 203.941406 "/>
<path style="fill-rule:nonzero;fill:rgb(100%,100%,100%);fill-opacity:1;stroke-width:1;stroke-linecap:butt;stroke-linejoin:miter;stroke:rgb(14.901961%,19.607843%,21.960784%);stroke-opacity:1;stroke-miterlimit:10;" d="M 219.199219 166.609375 C 217.429688 167 215.761719 166.128906 215.46875 164.609375 C 215.460938 164.46875 215.460938 164.324219 215.46875 164.179688 L 178.28125 178.761719 C 178.875 179.058594 179.300781 179.609375 179.441406 180.261719 C 179.566406 181.257812 179.09375 182.242188 178.230469 182.761719 L 184.878906 198 C 185.195312 197.828125 185.53125 197.703125 185.878906 197.628906 C 187.109375 197.269531 188.425781 197.792969 189.070312 198.898438 L 223.558594 185.480469 C 223.261719 185.175781 223.054688 184.789062 222.96875 184.371094 C 222.808594 182.90625 223.730469 181.542969 225.148438 181.148438 L 219.390625 166.601562 Z M 209.679688 180.101562 C 210.269531 183.101562 207.78125 186.269531 204.109375 187.101562 C 200.441406 187.929688 197 186.101562 196.410156 183.101562 C 195.820312 180.101562 198.308594 176.941406 201.980469 176.101562 C 205.648438 175.261719 209.089844 177.058594 209.679688 180.101562 Z M 209.679688 180.101562 "/>
<path style="fill-rule:nonzero;fill:rgb(57.254902%,89.019608%,66.27451%);fill-opacity:1;stroke-width:1;stroke-linecap:butt;stroke-linejoin:round;stroke:rgb(14.901961%,19.607843%,21.960784%);stroke-opacity:1;stroke-miterlimit:4;" d="M 355.171875 56.808594 C 355.171875 56.808594 358.171875 57.601562 362.03125 66.808594 C 365.890625 76.019531 369.589844 88.058594 369.589844 88.058594 C 369.589844 88.058594 361.011719 84.398438 356.191406 84.148438 C 350.871094 83.878906 343.140625 86.148438 343.140625 86.148438 C 343.140625 86.148438 340.140625 54.78125 319.25 44.328125 C 322.203125 40.929688 326.703125 39.296875 331.148438 40 C 338.851562 41.179688 355.171875 56.808594 355.171875 56.808594 Z M 355.171875 56.808594 "/>
<path style="fill-rule:nonzero;fill:rgb(100%,100%,100%);fill-opacity:1;stroke-width:1;stroke-linecap:butt;stroke-linejoin:miter;stroke:rgb(14.901961%,19.607843%,21.960784%);stroke-opacity:1;stroke-miterlimit:10;" d="M 326.789062 45.390625 C 326.789062 45.390625 341.128906 60 344.519531 75.191406 C 345.558594 75.484375 346.414062 76.226562 346.847656 77.214844 C 347.28125 78.203125 347.25 79.335938 346.761719 80.300781 C 351.765625 79.214844 356.988281 79.8125 361.621094 82 C 361.621094 82 362.5 79.878906 363.671875 79.820312 C 363.671875 79.820312 357.371094 60.601562 350.671875 54.730469 C 346.058594 50.578125 340.875 47.109375 335.28125 44.429688 C 332.84375 43.316406 330.113281 43.015625 327.488281 43.570312 C 327.488281 43.570312 330 45.769531 326.789062 45.390625 Z M 342.46875 55.570312 C 343.960938 54.441406 347.109375 56.058594 349.46875 59.199219 C 351.828125 62.339844 352.570312 65.800781 351.070312 66.941406 C 349.570312 68.078125 346.429688 66.449219 344.070312 63.308594 C 341.710938 60.171875 341 56.710938 342.46875 55.570312 Z M 342.46875 55.570312 "/>
<path style="fill-rule:nonzero;fill:rgb(57.254902%,89.019608%,66.27451%);fill-opacity:1;stroke-width:1;stroke-linecap:butt;stroke-linejoin:round;stroke:rgb(14.901961%,19.607843%,21.960784%);stroke-opacity:1;stroke-miterlimit:4;" d="M 357.480469 58.800781 C 357.480469 58.800781 350.859375 50 343.941406 45.851562 C 339.917969 43.414062 335.625 41.453125 331.148438 40 C 331.148438 40 334.28125 40.121094 336.648438 44.871094 C 338 47.589844 337.550781 51.558594 337.550781 51.558594 C 344.496094 53.039062 351.203125 55.476562 357.480469 58.800781 Z M 357.480469 58.800781 "/>
<path style="fill-rule:nonzero;fill:rgb(57.254902%,89.019608%,66.27451%);fill-opacity:1;stroke-width:1;stroke-linecap:butt;stroke-linejoin:miter;stroke:rgb(14.901961%,19.607843%,21.960784%);stroke-opacity:1;stroke-miterlimit:10;" d="M 96.390625 31.601562 L 101.21875 49.300781 C 101.21875 49.300781 77.078125 67.179688 40.609375 62.171875 L 42.609375 43.039062 C 42.609375 43.039062 56.910156 45.898438 69.960938 43.21875 C 83.011719 40.539062 96.390625 31.601562 96.390625 31.601562 Z M 96.390625 31.601562 "/>
<path style="fill-rule:nonzero;fill:rgb(100%,100%,100%);fill-opacity:1;stroke-width:1;stroke-linecap:butt;stroke-linejoin:miter;stroke:rgb(14.901961%,19.607843%,21.960784%);stroke-opacity:1;stroke-miterlimit:10;" d="M 93.628906 48.519531 C 93.734375 47.628906 94.378906 46.894531 95.25 46.679688 L 92.398438 38.808594 C 91.984375 38.949219 91.546875 39.019531 91.109375 39.019531 C 90.355469 39.03125 89.617188 38.804688 89 38.371094 C 85 40.46875 77.488281 44.128906 70 45.679688 C 63.175781 46.902344 56.21875 47.1875 49.320312 46.519531 C 48.777344 47.101562 48 47.398438 47.210938 47.328125 L 46.261719 58.050781 C 46.5 58.050781 46.75 58.050781 47 58.050781 C 49 58.050781 50.570312 58.648438 50.570312 59.390625 C 50.542969 59.628906 50.40625 59.84375 50.199219 59.96875 C 73.371094 60.851562 89.589844 52.839844 94.511719 50.039062 C 93.980469 49.714844 93.648438 49.140625 93.628906 48.519531 Z M 70.699219 54.109375 C 67.160156 54.820312 64.058594 54.21875 63.769531 52.769531 C 63.480469 51.320312 66.109375 49.578125 69.648438 48.871094 C 73.191406 48.160156 76.289062 48.761719 76.578125 50.210938 C 76.871094 51.660156 74.238281 53.398438 70.699219 54.109375 Z M 70.699219 54.109375 "/>
<path style="fill-rule:nonzero;fill:rgb(57.254902%,89.019608%,66.27451%);fill-opacity:1;stroke-width:1;stroke-linecap:butt;stroke-linejoin:miter;stroke:rgb(14.901961%,19.607843%,21.960784%);stroke-opacity:1;stroke-miterlimit:10;" d="M 422.078125 425.769531 L 426.898438 443.46875 C 426.898438 443.46875 402.769531 461.351562 366.289062 456.339844 L 368.289062 437.210938 C 368.289062 437.210938 382.589844 440.070312 395.648438 437.390625 C 408.710938 434.710938 422.078125 425.769531 422.078125 425.769531 Z M 422.078125 425.769531 "/>
<path style="fill-rule:nonzero;fill:rgb(100%,100%,100%);fill-opacity:1;stroke-width:1;stroke-linecap:butt;stroke-linejoin:miter;stroke:rgb(14.901961%,19.607843%,21.960784%);stroke-opacity:1;stroke-miterlimit:10;" d="M 419.308594 442.699219 C 419.410156 441.804688 420.054688 441.066406 420.929688 440.851562 L 418.078125 433 C 417.664062 433.132812 417.226562 433.199219 416.789062 433.199219 C 416.019531 433.21875 415.265625 432.996094 414.628906 432.558594 C 410.71875 434.648438 403.171875 438.308594 395.691406 439.859375 C 388.867188 441.085938 381.910156 441.367188 375.011719 440.699219 C 374.46875 441.28125 373.691406 441.578125 372.898438 441.511719 L 372 452.230469 C 372.238281 452.230469 372.488281 452.230469 372.75 452.230469 C 374.75 452.230469 376.308594 452.820312 376.308594 453.558594 C 376.285156 453.800781 376.148438 454.015625 375.941406 454.140625 C 399.109375 455.03125 415.328125 447.019531 420.261719 444.210938 C 419.707031 443.902344 419.347656 443.332031 419.308594 442.699219 Z M 396.378906 448.28125 C 392.839844 448.988281 389.738281 448.390625 389.449219 446.949219 C 389.160156 445.511719 391.789062 443.75 395.328125 443.039062 C 398.871094 442.328125 401.96875 442.941406 402.261719 444.378906 C 402.550781 445.820312 399.921875 447.578125 396.378906 448.28125 Z M 396.378906 448.28125 "/>
<path style="fill-rule:nonzero;fill:rgb(57.254902%,89.019608%,66.27451%);fill-opacity:1;stroke-width:1;stroke-linecap:butt;stroke-linejoin:round;stroke:rgb(14.901961%,19.607843%,21.960784%);stroke-opacity:1;stroke-miterlimit:4;" d="M 169.238281 54.160156 C 169.238281 54.160156 187.800781 48.050781 198.671875 40.800781 L 210.21875 59.800781 C 210.21875 59.800781 182.601562 81.328125 175.351562 75.671875 Z M 169.238281 54.160156 "/>
<path style="fill-rule:nonzero;fill:rgb(100%,100%,100%);fill-opacity:1;stroke-width:1;stroke-linecap:butt;stroke-linejoin:miter;stroke:rgb(14.901961%,19.607843%,21.960784%);stroke-opacity:1;stroke-miterlimit:10;" d="M 202.289062 58.691406 C 202.34375 57.5625 203.132812 56.605469 204.230469 56.339844 L 199.089844 47.828125 C 198.664062 47.976562 198.21875 48.050781 197.769531 48.050781 C 196.652344 48.109375 195.582031 47.617188 194.898438 46.730469 C 185.308594 53.441406 170.601562 56.878906 170.601562 56.878906 L 173.539062 68.429688 C 173.539062 68.429688 173.089844 74.769531 181.011719 73.179688 C 187.140625 71.949219 198.691406 64.179688 203.609375 60.789062 C 202.820312 60.382812 202.316406 59.578125 202.289062 58.691406 Z M 182.511719 67.191406 C 179.039062 67.980469 175.800781 66.800781 175.289062 64.550781 C 174.78125 62.300781 177.171875 59.820312 180.640625 59.019531 C 184.109375 58.21875 187.351562 59.410156 187.871094 61.671875 C 188.390625 63.929688 186 66.390625 182.511719 67.191406 Z M 182.511719 67.191406 "/>
<path style="fill-rule:nonzero;fill:rgb(57.254902%,89.019608%,66.27451%);fill-opacity:1;stroke-width:1;stroke-linecap:butt;stroke-linejoin:round;stroke:rgb(14.901961%,19.607843%,21.960784%);stroke-opacity:1;stroke-miterlimit:4;" d="M 166.519531 45.558594 L 179.199219 70.691406 C 179.199219 70.691406 174.898438 72.949219 175.351562 75.691406 L 163.121094 51.691406 C 163.121094 51.691406 161.539062 47.820312 166.519531 45.558594 Z M 166.519531 45.558594 "/>
<path style="fill-rule:nonzero;fill:rgb(100%,100%,100%);fill-opacity:1;stroke-width:1;stroke-linecap:butt;stroke-linejoin:miter;stroke:rgb(14.901961%,19.607843%,21.960784%);stroke-opacity:1;stroke-miterlimit:10;" d="M 164.210938 53.800781 L 173.621094 72.28125 C 174.019531 71.390625 174.730469 70.679688 175.621094 70.28125 L 165.160156 51.898438 Z M 164.210938 53.800781 "/>
<path style="fill-rule:nonzero;fill:rgb(57.254902%,89.019608%,66.27451%);fill-opacity:1;stroke-width:1;stroke-linecap:butt;stroke-linejoin:miter;stroke:rgb(14.901961%,19.607843%,21.960784%);stroke-opacity:1;stroke-miterlimit:10;" d="M 324.511719 165.621094 L 289.449219 200.679688 L 307.75 218.96875 L 343.738281 183.410156 Z M 324.511719 165.621094 "/>
<path style="fill-rule:nonzero;fill:rgb(100%,100%,100%);fill-opacity:1;stroke-width:1;stroke-linecap:butt;stroke-linejoin:miter;stroke:rgb(14.901961%,19.607843%,21.960784%);stroke-opacity:1;stroke-miterlimit:10;" d="M 307.140625 211.601562 C 307.703125 211.097656 308.449219 210.84375 309.203125 210.898438 C 309.957031 210.953125 310.65625 211.308594 311.140625 211.890625 C 311.210938 212.003906 311.273438 212.125 311.320312 212.25 L 338.101562 185.628906 C 337.472656 185.605469 336.898438 185.285156 336.539062 184.769531 C 336.046875 183.953125 336.085938 182.917969 336.640625 182.140625 L 325.160156 171.511719 C 324.964844 171.769531 324.734375 172 324.46875 172.191406 C 323.539062 172.972656 322.195312 173.015625 321.21875 172.289062 L 296.351562 196.878906 C 296.722656 197.039062 297.046875 197.300781 297.28125 197.628906 C 297.957031 198.839844 297.671875 200.359375 296.601562 201.238281 L 307 211.691406 Z M 310.328125 196.320312 C 308.679688 193.898438 309.671875 190.261719 312.539062 188.171875 C 315.410156 186.078125 319.078125 186.359375 320.730469 188.769531 C 322.378906 191.179688 321.398438 194.828125 318.519531 196.921875 C 315.640625 199.011719 312 198.730469 310.328125 196.320312 Z M 310.328125 196.320312 "/>
<path style="fill-rule:nonzero;fill:rgb(57.254902%,89.019608%,66.27451%);fill-opacity:1;stroke-width:1;stroke-linecap:butt;stroke-linejoin:miter;stroke:rgb(14.901961%,19.607843%,21.960784%);stroke-opacity:1;stroke-miterlimit:10;" d="M 388.601562 251.160156 L 436.511719 256.160156 L 439.109375 231.160156 L 390.261719 225.769531 Z M 388.601562 251.160156 "/>
<path style="fill-rule:nonzero;fill:rgb(100%,100%,100%);fill-opacity:1;stroke-width:1;stroke-linecap:butt;stroke-linejoin:miter;stroke:rgb(14.901961%,19.607843%,21.960784%);stroke-opacity:1;stroke-miterlimit:10;" d="M 433.921875 236.128906 C 433.203125 236.007812 432.566406 235.605469 432.152344 235.007812 C 431.734375 234.410156 431.578125 233.675781 431.710938 232.960938 C 431.753906 232.835938 431.804688 232.714844 431.871094 232.601562 L 395.398438 228.691406 C 395.757812 229.183594 395.871094 229.8125 395.710938 230.398438 C 395.402344 231.257812 394.617188 231.851562 393.710938 231.921875 L 392.710938 247.089844 C 393.027344 247.078125 393.34375 247.113281 393.648438 247.191406 C 394.804688 247.421875 395.65625 248.414062 395.710938 249.589844 L 429.480469 253.300781 C 429.371094 252.921875 429.371094 252.519531 429.480469 252.140625 C 429.976562 250.886719 431.300781 250.171875 432.621094 250.441406 L 434.101562 236.160156 Z M 420.441406 243.128906 C 419.628906 245.851562 416.28125 247.339844 412.949219 246.449219 C 409.621094 245.558594 407.570312 242.621094 408.378906 239.898438 C 409.191406 237.179688 412.550781 235.691406 415.878906 236.578125 C 419.210938 237.46875 421.25 240.351562 420.441406 243.078125 Z M 420.441406 243.128906 "/>
<path style="fill-rule:nonzero;fill:rgb(57.254902%,89.019608%,66.27451%);fill-opacity:1;stroke-width:1;stroke-linecap:butt;stroke-linejoin:round;stroke:rgb(14.901961%,19.607843%,21.960784%);stroke-opacity:1;stroke-miterlimit:4;" d="M 443.179688 296.429688 C 443.179688 296.429688 446.179688 297.21875 450.039062 306.429688 C 453.898438 315.640625 457.589844 327.679688 457.589844 327.679688 C 457.589844 327.679688 449.019531 324.019531 444.191406 323.769531 C 438.878906 323.5 431.191406 325.769531 431.191406 325.769531 C 431.191406 325.769531 428.191406 294.398438 407.300781 283.949219 C 410.265625 280.578125 414.757812 278.96875 419.191406 279.691406 C 426.851562 280.800781 443.179688 296.429688 443.179688 296.429688 Z M 443.179688 296.429688 "/>
<path style="fill-rule:nonzero;fill:rgb(100%,100%,100%);fill-opacity:1;stroke-width:1;stroke-linecap:butt;stroke-linejoin:miter;stroke:rgb(14.901961%,19.607843%,21.960784%);stroke-opacity:1;stroke-miterlimit:10;" d="M 414.789062 285 C 414.789062 285 429.140625 299.578125 432.53125 314.808594 C 433.570312 315.097656 434.429688 315.839844 434.863281 316.828125 C 435.296875 317.816406 435.261719 318.949219 434.769531 319.910156 C 439.769531 318.816406 444.992188 319.40625 449.621094 321.589844 C 449.621094 321.589844 450.511719 319.46875 451.671875 319.410156 C 451.671875 319.410156 445.378906 300.191406 438.671875 294.320312 C 434.066406 290.160156 428.890625 286.6875 423.300781 284 C 420.863281 282.886719 418.132812 282.585938 415.511719 283.140625 C 415.511719 283.140625 418 285.390625 414.789062 285 Z M 430.46875 295.179688 C 431.96875 294.050781 435.109375 295.671875 437.46875 298.808594 C 439.828125 301.949219 440.570312 305.410156 439.070312 306.550781 C 437.570312 307.691406 434.429688 306.058594 432.070312 302.921875 C 429.710938 299.78125 429 296.328125 430.46875 295.191406 Z M 430.46875 295.179688 "/>
<path style="fill-rule:nonzero;fill:rgb(57.254902%,89.019608%,66.27451%);fill-opacity:1;stroke-width:1;stroke-linecap:butt;stroke-linejoin:round;stroke:rgb(14.901961%,19.607843%,21.960784%);stroke-opacity:1;stroke-miterlimit:4;" d="M 445.480469 298.421875 C 445.480469 298.421875 438.859375 289.589844 431.949219 285.46875 C 427.921875 283.046875 423.625 281.097656 419.148438 279.660156 C 419.148438 279.660156 422.289062 279.78125 424.648438 284.53125 C 426.011719 287.25 425.550781 291.21875 425.550781 291.21875 C 432.496094 292.6875 439.203125 295.109375 445.480469 298.421875 Z M 445.480469 298.421875 "/>
<path style="fill-rule:nonzero;fill:rgb(57.254902%,89.019608%,66.27451%);fill-opacity:1;stroke-width:1;stroke-linecap:butt;stroke-linejoin:round;stroke:rgb(14.901961%,19.607843%,21.960784%);stroke-opacity:1;stroke-miterlimit:4;" d="M 420 180.828125 C 420 180.828125 403.808594 191.78125 395.328125 201.71875 L 379 186.578125 C 379 186.578125 399.691406 158.339844 408.210938 161.808594 Z M 420 180.828125 "/>
<path style="fill-rule:nonzero;fill:rgb(100%,100%,100%);fill-opacity:1;stroke-width:1;stroke-linecap:butt;stroke-linejoin:miter;stroke:rgb(14.901961%,19.607843%,21.960784%);stroke-opacity:1;stroke-miterlimit:10;" d="M 387 185.511719 C 387.261719 186.605469 386.761719 187.738281 385.78125 188.289062 L 393.039062 195.078125 C 393.414062 194.824219 393.824219 194.632812 394.261719 194.511719 C 395.316406 194.144531 396.484375 194.324219 397.378906 194.988281 C 404.78125 185.921875 417.988281 178.589844 417.988281 178.589844 L 411.988281 168.28125 C 411.988281 168.28125 410.691406 162.058594 403.5 165.75 C 397.941406 168.609375 388.941406 179.199219 385.148438 183.851562 C 386.023438 184.023438 386.734375 184.660156 387 185.511719 Z M 403.710938 171.929688 C 406.828125 170.210938 410.269531 170.46875 411.378906 172.488281 C 412.488281 174.511719 410.859375 177.558594 407.738281 179.269531 C 404.621094 180.980469 401.179688 180.730469 400.058594 178.699219 C 398.941406 176.671875 400.550781 173.640625 403.679688 171.929688 Z M 403.710938 171.929688 "/>
<path style="fill-rule:nonzero;fill:rgb(57.254902%,89.019608%,66.27451%);fill-opacity:1;stroke-width:1;stroke-linecap:butt;stroke-linejoin:round;stroke:rgb(14.901961%,19.607843%,21.960784%);stroke-opacity:1;stroke-miterlimit:4;" d="M 425 188.359375 L 405.941406 167.648438 C 405.941406 167.648438 409.460938 164.300781 408.28125 161.808594 L 426.601562 181.550781 C 426.601562 181.550781 429.140625 184.820312 425 188.359375 Z M 425 188.359375 "/>
<path style="fill-rule:nonzero;fill:rgb(100%,100%,100%);fill-opacity:1;stroke-width:1;stroke-linecap:butt;stroke-linejoin:miter;stroke:rgb(14.901961%,19.607843%,21.960784%);stroke-opacity:1;stroke-miterlimit:10;" d="M 424.941406 179.800781 L 410.839844 164.601562 C 410.710938 165.566406 410.238281 166.453125 409.511719 167.101562 L 424.511719 181.890625 Z M 424.941406 179.800781 "/>
<path style="fill:none;stroke-width:1;stroke-linecap:round;stroke-linejoin:round;stroke:rgb(14.901961%,19.607843%,21.960784%);stroke-opacity:1;stroke-miterlimit:4;" d="M 9.660156 463.179688 L 488 463.179688 "/>
</g>
</svg>
