<?xml version="1.0" encoding="UTF-8"?>
<svg xmlns="http://www.w3.org/2000/svg" xmlns:xlink="http://www.w3.org/1999/xlink" width="500px" height="500px" viewBox="0 0 500 500" version="1.1">
<defs>
<filter id="alpha" filterUnits="objectBoundingBox" x="0%" y="0%" width="100%" height="100%">
  <feColorMatrix type="matrix" in="SourceGraphic" values="0 0 0 0 1 0 0 0 0 1 0 0 0 0 1 0 0 0 1 0"/>
</filter>
<mask id="mask0">
  <g filter="url(#alpha)">
<rect x="0" y="0" width="500" height="500" style="fill:rgb(0%,0%,0%);fill-opacity:0.2;stroke:none;"/>
  </g>
</mask>
<clipPath id="clip1">
  <rect x="0" y="0" width="500" height="500"/>
</clipPath>
<g id="surface5" clip-path="url(#clip1)">
<path style=" stroke:none;fill-rule:nonzero;fill:rgb(0%,0%,0%);fill-opacity:1;" d="M 87 191.089844 L 407 191.089844 L 407 382.109375 L 87 382.109375 Z M 87 191.089844 "/>
</g>
<mask id="mask1">
  <g filter="url(#alpha)">
<rect x="0" y="0" width="500" height="500" style="fill:rgb(0%,0%,0%);fill-opacity:0.2;stroke:none;"/>
  </g>
</mask>
<clipPath id="clip2">
  <rect x="0" y="0" width="500" height="500"/>
</clipPath>
<g id="surface8" clip-path="url(#clip2)">
<path style=" stroke:none;fill-rule:nonzero;fill:rgb(0%,0%,0%);fill-opacity:1;" d="M 87 191.089844 L 407 191.089844 L 407 217.28125 L 87 223.671875 Z M 87 191.089844 "/>
</g>
<mask id="mask2">
  <g filter="url(#alpha)">
<rect x="0" y="0" width="500" height="500" style="fill:rgb(0%,0%,0%);fill-opacity:0.2;stroke:none;"/>
  </g>
</mask>
<clipPath id="clip3">
  <rect x="0" y="0" width="500" height="500"/>
</clipPath>
<g id="surface11" clip-path="url(#clip3)">
<path style=" stroke:none;fill-rule:nonzero;fill:rgb(0%,0%,0%);fill-opacity:1;" d="M 125.988281 260.78125 L 253.660156 253.671875 L 253.660156 240.328125 L 125.988281 240.328125 Z M 125.988281 260.78125 "/>
</g>
<mask id="mask3">
  <g filter="url(#alpha)">
<rect x="0" y="0" width="500" height="500" style="fill:rgb(0%,0%,0%);fill-opacity:0.301961;stroke:none;"/>
  </g>
</mask>
<clipPath id="clip4">
  <rect x="0" y="0" width="500" height="500"/>
</clipPath>
<g id="surface14" clip-path="url(#clip4)">
<path style=" stroke:none;fill-rule:nonzero;fill:rgb(100%,100%,100%);fill-opacity:1;" d="M 197.339844 288.601562 L 188.421875 321.328125 C 188.894531 321.371094 189.363281 321.390625 189.828125 321.390625 C 190.882812 321.390625 191.933594 321.292969 192.96875 321.101562 L 201.140625 291.101562 C 199.992188 290.101562 198.710938 289.261719 197.339844 288.601562 Z M 197.339844 288.601562 "/>
</g>
<mask id="mask4">
  <g filter="url(#alpha)">
<rect x="0" y="0" width="500" height="500" style="fill:rgb(0%,0%,0%);fill-opacity:0.301961;stroke:none;"/>
  </g>
</mask>
<clipPath id="clip5">
  <rect x="0" y="0" width="500" height="500"/>
</clipPath>
<g id="surface17" clip-path="url(#clip5)">
<path style=" stroke:none;fill-rule:nonzero;fill:rgb(100%,100%,100%);fill-opacity:1;" d="M 189.828125 286.890625 C 187.78125 286.882812 185.75 287.242188 183.828125 287.949219 L 176.449219 315.070312 C 178.429688 317.488281 181.027344 319.324219 183.96875 320.378906 L 193.019531 287.191406 C 191.96875 286.988281 190.898438 286.890625 189.828125 286.890625 Z M 189.828125 286.890625 "/>
</g>
<mask id="mask5">
  <g filter="url(#alpha)">
<rect x="0" y="0" width="500" height="500" style="fill:rgb(0%,0%,0%);fill-opacity:0.301961;stroke:none;"/>
  </g>
</mask>
<clipPath id="clip6">
  <rect x="0" y="0" width="500" height="500"/>
</clipPath>
<g id="surface20" clip-path="url(#clip6)">
<path style=" stroke:none;fill-rule:nonzero;fill:rgb(100%,100%,100%);fill-opacity:1;" d="M 291.550781 361 L 306.28125 251 L 325.390625 251 L 310.648438 361 Z M 291.550781 361 "/>
</g>
<mask id="mask6">
  <g filter="url(#alpha)">
<rect x="0" y="0" width="500" height="500" style="fill:rgb(0%,0%,0%);fill-opacity:0.301961;stroke:none;"/>
  </g>
</mask>
<clipPath id="clip7">
  <rect x="0" y="0" width="500" height="500"/>
</clipPath>
<g id="surface23" clip-path="url(#clip7)">
<path style=" stroke:none;fill-rule:nonzero;fill:rgb(100%,100%,100%);fill-opacity:1;" d="M 330.609375 361 L 345.351562 251 L 351.871094 251 L 337.128906 361 Z M 330.609375 361 "/>
</g>
<mask id="mask7">
  <g filter="url(#alpha)">
<rect x="0" y="0" width="500" height="500" style="fill:rgb(0%,0%,0%);fill-opacity:0.2;stroke:none;"/>
  </g>
</mask>
<clipPath id="clip8">
  <rect x="0" y="0" width="500" height="500"/>
</clipPath>
<g id="surface26" clip-path="url(#clip8)">
<path style=" stroke:none;fill-rule:nonzero;fill:rgb(0%,0%,0%);fill-opacity:1;" d="M 229 55.371094 L 120.980469 151.378906 L 232.46875 58.460938 Z M 229 55.371094 "/>
</g>
<mask id="mask8">
  <g filter="url(#alpha)">
<rect x="0" y="0" width="500" height="500" style="fill:rgb(0%,0%,0%);fill-opacity:0.2;stroke:none;"/>
  </g>
</mask>
<clipPath id="clip9">
  <rect x="0" y="0" width="500" height="500"/>
</clipPath>
<g id="surface29" clip-path="url(#clip9)">
<path style=" stroke:none;fill-rule:nonzero;fill:rgb(0%,0%,0%);fill-opacity:1;" d="M 233.351562 81.875 C 248.132812 84.273438 258.167969 98.199219 255.769531 112.976562 C 253.367188 127.757812 239.445312 137.792969 224.664062 135.394531 C 209.886719 132.996094 199.847656 119.070312 202.25 104.289062 C 204.648438 89.511719 218.574219 79.476562 233.351562 81.875 Z M 233.351562 81.875 "/>
</g>
<mask id="mask9">
  <g filter="url(#alpha)">
<rect x="0" y="0" width="500" height="500" style="fill:rgb(0%,0%,0%);fill-opacity:0.301961;stroke:none;"/>
  </g>
</mask>
<clipPath id="clip10">
  <rect x="0" y="0" width="500" height="500"/>
</clipPath>
<g id="surface32" clip-path="url(#clip10)">
<path style=" stroke:none;fill-rule:nonzero;fill:rgb(100%,100%,100%);fill-opacity:1;" d="M 239.128906 84.75 L 227.128906 128.910156 C 227.761719 128.960938 228.398438 128.988281 229.03125 128.988281 C 230.453125 128.988281 231.871094 128.855469 233.269531 128.601562 L 244.269531 88.148438 C 242.71875 86.792969 240.988281 85.648438 239.128906 84.75 Z M 239.128906 84.75 "/>
</g>
<mask id="mask10">
  <g filter="url(#alpha)">
<rect x="0" y="0" width="500" height="500" style="fill:rgb(0%,0%,0%);fill-opacity:0.301961;stroke:none;"/>
  </g>
</mask>
<clipPath id="clip11">
  <rect x="0" y="0" width="500" height="500"/>
</clipPath>
<g id="surface35" clip-path="url(#clip11)">
<path style=" stroke:none;fill-rule:nonzero;fill:rgb(100%,100%,100%);fill-opacity:1;" d="M 229 82.441406 C 226.269531 82.441406 223.5625 82.921875 221 83.871094 L 211 120.460938 C 213.667969 123.726562 217.171875 126.203125 221.140625 127.628906 L 233.351562 82.851562 C 231.917969 82.574219 230.460938 82.4375 229 82.441406 Z M 229 82.441406 "/>
</g>
<mask id="mask11">
  <g filter="url(#alpha)">
<rect x="0" y="0" width="500" height="500" style="fill:rgb(0%,0%,0%);fill-opacity:0.6;stroke:none;"/>
  </g>
</mask>
<clipPath id="clip12">
  <rect x="0" y="0" width="500" height="500"/>
</clipPath>
<g id="surface38" clip-path="url(#clip12)">
<path style=" stroke:none;fill-rule:nonzero;fill:rgb(0%,0%,0%);fill-opacity:1;" d="M 301.679688 368.441406 C 295.199219 368.5625 288.953125 370.910156 284 375.089844 L 284 422.890625 L 303.480469 422.890625 L 308.21875 368.441406 Z M 301.679688 368.441406 "/>
</g>
<mask id="mask12">
  <g filter="url(#alpha)">
<rect x="0" y="0" width="500" height="500" style="fill:rgb(0%,0%,0%);fill-opacity:0.301961;stroke:none;"/>
  </g>
</mask>
<clipPath id="clip13">
  <rect x="0" y="0" width="500" height="500"/>
</clipPath>
<g id="surface41" clip-path="url(#clip13)">
<path style=" stroke:none;fill-rule:nonzero;fill:rgb(100%,100%,100%);fill-opacity:1;" d="M 391.710938 291.230469 C 388.871094 292.039062 388.308594 289.410156 389.039062 286.988281 C 389.769531 284.570312 390.761719 283.339844 390.609375 280.640625 C 393.058594 285.46875 394.621094 290.410156 391.710938 291.230469 Z M 391.710938 291.230469 "/>
</g>
<mask id="mask13">
  <g filter="url(#alpha)">
<rect x="0" y="0" width="500" height="500" style="fill:rgb(0%,0%,0%);fill-opacity:0.301961;stroke:none;"/>
  </g>
</mask>
<clipPath id="clip14">
  <rect x="0" y="0" width="500" height="500"/>
</clipPath>
<g id="surface44" clip-path="url(#clip14)">
<path style=" stroke:none;fill-rule:nonzero;fill:rgb(100%,100%,100%);fill-opacity:1;" d="M 390.808594 290.878906 C 392.269531 291.359375 392.53125 289.878906 392.148438 288.488281 C 391.769531 287.101562 391.25 286.398438 391.308594 284.871094 C 390.089844 287.601562 389.328125 290.390625 390.808594 290.878906 Z M 390.808594 290.878906 "/>
</g>
<mask id="mask14">
  <g filter="url(#alpha)">
<rect x="0" y="0" width="500" height="500" style="fill:rgb(0%,0%,0%);fill-opacity:0.101961;stroke:none;"/>
  </g>
</mask>
<clipPath id="clip15">
  <rect x="0" y="0" width="500" height="500"/>
</clipPath>
<g id="surface47" clip-path="url(#clip15)">
<path style=" stroke:none;fill-rule:nonzero;fill:rgb(0%,0%,0%);fill-opacity:1;" d="M 392.890625 421 C 389.71875 421 382.460938 419 379.371094 415.328125 C 375.671875 409.925781 375.671875 402.804688 379.371094 397.398438 C 382.460938 393.738281 389.71875 391.730469 392.890625 391.738281 C 396.058594 391.738281 403.320312 393.738281 406.410156 397.398438 C 410.109375 402.804688 410.109375 409.925781 406.410156 415.328125 C 403.320312 419 396.058594 421 392.890625 421 Z M 392.890625 421 "/>
</g>
<mask id="mask15">
  <g filter="url(#alpha)">
<rect x="0" y="0" width="500" height="500" style="fill:rgb(0%,0%,0%);fill-opacity:0.101961;stroke:none;"/>
  </g>
</mask>
<clipPath id="clip16">
  <rect x="0" y="0" width="500" height="500"/>
</clipPath>
<g id="surface50" clip-path="url(#clip16)">
<path style=" stroke:none;fill-rule:nonzero;fill:rgb(0%,0%,0%);fill-opacity:1;" d="M 392.890625 421 C 389.191406 420.847656 386.078125 418.175781 385.371094 414.539062 C 384.75 409.109375 384.75 403.621094 385.371094 398.191406 C 386.082031 394.558594 389.195312 391.890625 392.890625 391.738281 C 396.585938 391.890625 399.695312 394.558594 400.410156 398.191406 C 401.019531 403.621094 401.019531 409.105469 400.410156 414.539062 C 399.699219 418.175781 396.589844 420.847656 392.890625 421 Z M 392.890625 421 "/>
</g>
<mask id="mask16">
  <g filter="url(#alpha)">
<rect x="0" y="0" width="500" height="500" style="fill:rgb(0%,0%,0%);fill-opacity:0.101961;stroke:none;"/>
  </g>
</mask>
<clipPath id="clip17">
  <rect x="0" y="0" width="500" height="500"/>
</clipPath>
<g id="surface53" clip-path="url(#clip17)">
<path style=" stroke:none;fill-rule:nonzero;fill:rgb(0%,0%,0%);fill-opacity:1;" d="M 95.378906 419.898438 C 92.480469 419.898438 85.839844 418.070312 83.019531 414.730469 C 79.640625 409.789062 79.640625 403.28125 83.019531 398.339844 C 85.839844 394.988281 92.480469 393.148438 95.378906 393.160156 C 98.269531 393.160156 104.910156 394.988281 107.738281 398.339844 C 111.121094 403.28125 111.121094 409.789062 107.738281 414.730469 C 104.910156 418.070312 98.269531 419.910156 95.378906 419.898438 Z M 95.378906 419.898438 "/>
</g>
<mask id="mask17">
  <g filter="url(#alpha)">
<rect x="0" y="0" width="500" height="500" style="fill:rgb(0%,0%,0%);fill-opacity:0.101961;stroke:none;"/>
  </g>
</mask>
<clipPath id="clip18">
  <rect x="0" y="0" width="500" height="500"/>
</clipPath>
<g id="surface56" clip-path="url(#clip18)">
<path style=" stroke:none;fill-rule:nonzero;fill:rgb(0%,0%,0%);fill-opacity:1;" d="M 95.378906 419.898438 C 91.996094 419.769531 89.148438 417.324219 88.511719 414 C 87.941406 409.035156 87.941406 404.023438 88.511719 399.058594 C 89.148438 395.734375 91.996094 393.289062 95.378906 393.160156 C 98.761719 393.292969 101.605469 395.738281 102.25 399.058594 C 102.808594 404.023438 102.808594 409.035156 102.25 414 C 101.605469 417.324219 98.761719 419.765625 95.378906 419.898438 Z M 95.378906 419.898438 "/>
</g>
</defs>
<g id="surface1">
<path style=" stroke:none;fill-rule:nonzero;fill:rgb(92.156863%,92.156863%,92.156863%);fill-opacity:1;" d="M 0 382.398438 L 500 382.398438 L 500 382.648438 L 0 382.648438 Z M 0 382.398438 "/>
<path style=" stroke:none;fill-rule:nonzero;fill:rgb(92.156863%,92.156863%,92.156863%);fill-opacity:1;" d="M 359 391.921875 L 449.898438 391.921875 L 449.898438 392.171875 L 359 392.171875 Z M 359 391.921875 "/>
<path style=" stroke:none;fill-rule:nonzero;fill:rgb(92.156863%,92.156863%,92.156863%);fill-opacity:1;" d="M 306.328125 389.210938 L 331.21875 389.210938 L 331.21875 389.460938 L 306.328125 389.460938 Z M 306.328125 389.210938 "/>
<path style=" stroke:none;fill-rule:nonzero;fill:rgb(92.156863%,92.156863%,92.156863%);fill-opacity:1;" d="M 349.519531 401.210938 L 388.109375 401.210938 L 388.109375 401.460938 L 349.519531 401.460938 Z M 349.519531 401.210938 "/>
<path style=" stroke:none;fill-rule:nonzero;fill:rgb(92.156863%,92.156863%,92.156863%);fill-opacity:1;" d="M 52.460938 399.53125 L 75.101562 399.53125 L 75.101562 399.78125 L 52.460938 399.78125 Z M 52.460938 399.53125 "/>
<path style=" stroke:none;fill-rule:nonzero;fill:rgb(92.156863%,92.156863%,92.156863%);fill-opacity:1;" d="M 84 399.53125 L 110.890625 399.53125 L 110.890625 399.78125 L 84 399.78125 Z M 84 399.53125 "/>
<path style=" stroke:none;fill-rule:nonzero;fill:rgb(92.156863%,92.156863%,92.156863%);fill-opacity:1;" d="M 178.308594 395.308594 L 225.148438 395.308594 L 225.148438 395.558594 L 178.308594 395.558594 Z M 178.308594 395.308594 "/>
<path style=" stroke:none;fill-rule:nonzero;fill:rgb(92.156863%,92.156863%,92.156863%);fill-opacity:1;" d="M 237 337.800781 L 43.910156 337.800781 C 40.761719 337.792969 38.210938 335.238281 38.210938 332.089844 L 38.210938 60.660156 C 38.238281 57.53125 40.78125 55.003906 43.910156 55 L 237 55 C 240.152344 55 242.710938 57.554688 242.710938 60.710938 L 242.710938 332.089844 C 242.710938 335.242188 240.152344 337.800781 237 337.800781 Z M 43.910156 55.199219 C 40.898438 55.207031 38.460938 57.648438 38.460938 60.660156 L 38.460938 332.089844 C 38.460938 335.101562 40.898438 337.542969 43.910156 337.550781 L 237 337.550781 C 240.011719 337.542969 242.453125 335.101562 242.460938 332.089844 L 242.460938 60.660156 C 242.453125 57.648438 240.011719 55.207031 237 55.199219 Z M 43.910156 55.199219 "/>
<path style=" stroke:none;fill-rule:nonzero;fill:rgb(92.156863%,92.156863%,92.156863%);fill-opacity:1;" d="M 453.308594 337.800781 L 260.210938 337.800781 C 257.058594 337.792969 254.503906 335.242188 254.5 332.089844 L 254.5 60.660156 C 254.53125 57.527344 257.078125 55.003906 260.210938 55 L 453.308594 55 C 456.4375 55.011719 458.972656 57.535156 459 60.660156 L 459 332.089844 C 459 335.234375 456.457031 337.789062 453.308594 337.800781 Z M 260.210938 55.199219 C 257.195312 55.207031 254.753906 57.648438 254.75 60.660156 L 254.75 332.089844 C 254.753906 335.101562 257.195312 337.542969 260.210938 337.550781 L 453.308594 337.550781 C 456.324219 337.542969 458.765625 335.101562 458.769531 332.089844 L 458.769531 60.660156 C 458.765625 57.648438 456.324219 55.207031 453.308594 55.199219 Z M 260.210938 55.199219 "/>
<path style=" stroke:none;fill-rule:nonzero;fill:rgb(98.039216%,98.039216%,98.039216%);fill-opacity:1;" d="M 418.121094 130.730469 C 418.121094 149.949219 402.539062 165.53125 383.320312 165.53125 C 364.101562 165.53125 348.519531 149.949219 348.519531 130.730469 C 348.519531 111.511719 364.101562 95.929688 383.320312 95.929688 C 402.539062 95.929688 418.121094 111.511719 418.121094 130.730469 Z M 418.121094 130.730469 "/>
<path style=" stroke:none;fill-rule:nonzero;fill:rgb(90.196078%,90.196078%,90.196078%);fill-opacity:1;" d="M 60 159.050781 C 61.191406 159.113281 62.367188 159.339844 63.5 159.71875 C 63.78125 157.398438 66.578125 155.96875 71.558594 156.128906 C 74.324219 156.257812 77.0625 156.707031 79.71875 157.46875 C 77.988281 153.960938 79.71875 151.46875 84.621094 151.46875 C 87.859375 151.59375 91.046875 152.320312 94.019531 153.609375 C 94.71875 151.261719 97.390625 149.808594 101.878906 149.808594 C 109.019531 149.808594 118.691406 153.488281 126.070312 158.640625 C 129.628906 158.738281 136.449219 160.769531 137.609375 162.640625 L 58.691406 162.640625 L 58.308594 162.300781 C 56.390625 160.398438 57.148438 159 60 159.050781 Z M 60 159.050781 "/>
<path style=" stroke:none;fill-rule:nonzero;fill:rgb(94.117647%,94.117647%,94.117647%);fill-opacity:1;" d="M 370.289062 133.210938 C 371.609375 133.277344 372.910156 133.527344 374.160156 133.949219 C 374.460938 131.390625 377.558594 129.808594 383.070312 129.949219 C 386.117188 130.097656 389.136719 130.59375 392.070312 131.429688 C 390.148438 127.558594 392.070312 124.808594 397.488281 124.808594 C 401.070312 124.953125 404.59375 125.753906 407.878906 127.179688 C 408.660156 124.578125 411.609375 122.980469 416.570312 122.980469 C 424.46875 122.980469 435.160156 127.039062 443.328125 132.75 C 447.261719 132.851562 454.808594 135.101562 456.089844 137.121094 L 368.789062 137.121094 L 368.371094 136.738281 C 366.28125 134.710938 367.121094 133.109375 370.289062 133.210938 Z M 370.289062 133.210938 "/>
<path style=" stroke:none;fill-rule:nonzero;fill:rgb(94.117647%,94.117647%,94.117647%);fill-opacity:1;" d="M 82.449219 109.171875 C 84.386719 109.300781 86.289062 109.722656 88.101562 110.421875 C 87.101562 106.089844 90.421875 103.421875 97.960938 103.730469 C 102.382812 104.003906 106.75 104.84375 110.960938 106.21875 C 106.238281 99.699219 107.378906 95.078125 114.679688 95.078125 C 118.828125 95.078125 124.300781 96.570312 130.019531 99.078125 C 129.640625 94.691406 132.769531 92 139.480469 92 C 147.800781 92 159.738281 96.140625 171.308594 102.5 C 171.628906 100.648438 173.378906 99.558594 176.578125 99.558594 C 181.03125 99.558594 187.289062 101.648438 193.480469 104.929688 C 193.878906 104.929688 194.300781 104.929688 194.738281 104.929688 C 202.621094 105.480469 213.679688 109.710938 220.101562 114.550781 L 81.210938 114.550781 C 77.871094 111.398438 78.328125 109 82.449219 109.171875 Z M 82.449219 109.171875 "/>
<path style=" stroke:none;fill-rule:nonzero;fill:rgb(98.039216%,98.039216%,98.039216%);fill-opacity:1;" d="M 343.140625 163.300781 C 343.9375 163.359375 344.722656 163.53125 345.46875 163.808594 C 345.050781 162.03125 346.421875 160.929688 349.53125 161.058594 C 351.359375 161.164062 353.167969 161.5 354.910156 162.058594 C 352.96875 159.378906 353.429688 157.46875 356.441406 157.46875 C 358.636719 157.605469 360.785156 158.167969 362.769531 159.121094 C 362.609375 157.308594 363.898438 156.199219 366.671875 156.199219 C 370.101562 156.199219 375.019531 157.898438 379.800781 160.53125 C 379.929688 159.761719 380.648438 159.308594 381.96875 159.308594 C 384.4375 159.519531 386.832031 160.28125 388.96875 161.53125 C 389.144531 161.519531 389.316406 161.519531 389.488281 161.53125 C 393.253906 161.964844 396.847656 163.339844 399.941406 165.53125 L 342.628906 165.53125 C 341.25 164.21875 341.441406 163.238281 343.140625 163.300781 Z M 343.140625 163.300781 "/>
<path style=" stroke:none;fill-rule:nonzero;fill:rgb(87.843137%,87.843137%,87.843137%);fill-opacity:1;" d="M 388.421875 65.621094 C 393.828125 63.859375 397.070312 60.789062 401.300781 65.320312 C 395.621094 61.980469 388.769531 67.890625 388.769531 67.890625 C 388.769531 67.890625 380.449219 64.339844 376.058594 69.25 C 378.699219 63.648438 382.71875 65.601562 388.421875 65.621094 Z M 388.421875 65.621094 "/>
<path style=" stroke:none;fill-rule:nonzero;fill:rgb(87.843137%,87.843137%,87.843137%);fill-opacity:1;" d="M 364.101562 83.140625 C 367.539062 82.03125 369.601562 80.070312 372.28125 82.949219 C 368.671875 80.828125 364.28125 84.589844 364.28125 84.589844 C 364.28125 84.589844 359 82.328125 356.210938 85.449219 C 357.929688 81.890625 360.480469 83.128906 364.101562 83.140625 Z M 364.101562 83.140625 "/>
<path style=" stroke:none;fill-rule:nonzero;fill:rgb(87.843137%,87.843137%,87.843137%);fill-opacity:1;" d="M 110.210938 75.609375 C 114.828125 74.460938 117.699219 72.078125 120.960938 76.101562 C 116.421875 72.988281 110.378906 77.53125 110.378906 77.53125 C 110.378906 77.53125 103.648438 74.089844 99.710938 77.941406 C 102.230469 73.421875 105.46875 75.269531 110.210938 75.609375 Z M 110.210938 75.609375 "/>
<path style=" stroke:none;fill-rule:nonzero;fill:rgb(94.117647%,94.117647%,94.117647%);fill-opacity:1;" d="M 145.820312 243.890625 L 90.390625 243.890625 L 73.199219 256.941406 L 73.199219 251.679688 L 62.421875 251.679688 L 62.421875 265.121094 L 50.21875 274.390625 L 50.21875 382.398438 L 186 382.398438 L 186 274.390625 Z M 145.820312 243.890625 "/>
<path style=" stroke:none;fill-rule:nonzero;fill:rgb(96.078431%,96.078431%,96.078431%);fill-opacity:1;" d="M 57.988281 299.910156 L 101.628906 299.910156 L 115.171875 310.191406 L 115.171875 306.050781 L 123.648438 306.050781 L 123.648438 316.628906 L 133.261719 323.921875 L 133.261719 382.398438 L 26.359375 382.398438 L 26.359375 323.921875 Z M 57.988281 299.910156 "/>
<path style=" stroke:none;fill-rule:nonzero;fill:rgb(96.078431%,96.078431%,96.078431%);fill-opacity:1;" d="M 376.320312 299.910156 L 419.960938 299.910156 L 433.488281 310.191406 L 433.488281 306.050781 L 441.980469 306.050781 L 441.980469 316.628906 L 451.589844 323.921875 L 451.589844 382.398438 L 344.691406 382.398438 L 344.691406 323.921875 Z M 376.320312 299.910156 "/>
<path style=" stroke:none;fill-rule:nonzero;fill:rgb(96.078431%,96.078431%,96.078431%);fill-opacity:1;" d="M 443.890625 416.238281 C 443.890625 409.988281 357.082031 404.921875 250 404.921875 C 142.917969 404.921875 56.109375 409.988281 56.109375 416.238281 C 56.109375 422.492188 142.917969 427.558594 250 427.558594 C 357.082031 427.558594 443.890625 422.492188 443.890625 416.238281 Z M 443.890625 416.238281 "/>
<path style=" stroke:none;fill-rule:nonzero;fill:rgb(25.098039%,48.235294%,100%);fill-opacity:1;" d="M 87 191.089844 L 407 191.089844 L 407 382.109375 L 87 382.109375 Z M 87 191.089844 "/>
<use xlink:href="#surface5" mask="url(#mask0)"/>
<use xlink:href="#surface8" mask="url(#mask1)"/>
<path style=" stroke:none;fill-rule:nonzero;fill:rgb(14.901961%,19.607843%,21.960784%);fill-opacity:1;" d="M 87 382.109375 L 425.671875 382.109375 L 425.671875 416.238281 L 87 416.238281 Z M 87 382.109375 "/>
<path style=" stroke:none;fill-rule:nonzero;fill:rgb(25.098039%,48.235294%,100%);fill-opacity:1;" d="M 125.988281 240.328125 L 253.660156 240.328125 L 253.660156 421.789062 L 125.988281 421.789062 Z M 125.988281 240.328125 "/>
<use xlink:href="#surface11" mask="url(#mask2)"/>
<path style=" stroke:none;fill-rule:nonzero;fill:rgb(100%,100%,100%);fill-opacity:1;" d="M 115.148438 239.171875 L 264.5 239.171875 L 264.5 246.28125 L 115.148438 246.28125 Z M 115.148438 239.171875 "/>
<path style=" stroke:none;fill-rule:nonzero;fill:rgb(14.901961%,19.607843%,21.960784%);fill-opacity:1;" d="M 135.148438 215.441406 L 244.5 215.441406 L 264.5 239.171875 L 115.148438 239.171875 Z M 135.148438 215.441406 "/>
<path style=" stroke:none;fill-rule:nonzero;fill:rgb(100%,100%,100%);fill-opacity:1;" d="M 159.769531 266.78125 L 219.878906 266.78125 L 219.878906 387.128906 L 159.769531 387.128906 Z M 159.769531 266.78125 "/>
<path style=" stroke:none;fill-rule:nonzero;fill:rgb(87.843137%,87.843137%,87.843137%);fill-opacity:1;" d="M 217.378906 387.128906 L 216.378906 387.128906 L 216.378906 270.28125 L 163.269531 270.28125 L 163.269531 387.128906 L 162.269531 387.128906 L 162.269531 269.28125 L 217.378906 269.28125 Z M 217.378906 387.128906 "/>
<path style=" stroke:none;fill-rule:nonzero;fill:rgb(25.098039%,48.235294%,100%);fill-opacity:1;" d="M 169.910156 330.761719 C 169.914062 331.914062 169.222656 332.957031 168.15625 333.398438 C 167.09375 333.84375 165.867188 333.601562 165.046875 332.789062 C 164.230469 331.972656 163.984375 330.746094 164.425781 329.683594 C 164.867188 328.617188 165.90625 327.921875 167.058594 327.921875 C 168.628906 327.921875 169.90625 329.191406 169.910156 330.761719 Z M 169.910156 330.761719 "/>
<path style=" stroke:none;fill-rule:nonzero;fill:rgb(14.901961%,19.607843%,21.960784%);fill-opacity:1;" d="M 154.941406 387.128906 L 224.71875 387.128906 L 224.71875 399.320312 L 154.941406 399.320312 Z M 154.941406 387.128906 "/>
<path style=" stroke:none;fill-rule:nonzero;fill:rgb(14.901961%,19.607843%,21.960784%);fill-opacity:1;" d="M 145.941406 399.320312 L 233.71875 399.320312 L 233.71875 411.511719 L 145.941406 411.511719 Z M 145.941406 399.320312 "/>
<path style=" stroke:none;fill-rule:nonzero;fill:rgb(14.901961%,19.607843%,21.960784%);fill-opacity:1;" d="M 134.691406 411.511719 L 244.96875 411.511719 L 244.96875 423.699219 L 134.691406 423.699219 Z M 134.691406 411.511719 "/>
<path style=" stroke:none;fill-rule:nonzero;fill:rgb(25.098039%,48.235294%,100%);fill-opacity:1;" d="M 202.019531 291.949219 C 208.757812 298.683594 208.757812 309.609375 202.019531 316.34375 C 195.285156 323.082031 184.363281 323.082031 177.625 316.34375 C 170.886719 309.609375 170.886719 298.683594 177.625 291.949219 C 184.363281 285.210938 195.285156 285.210938 202.019531 291.949219 Z M 202.019531 291.949219 "/>
<use xlink:href="#surface14" mask="url(#mask3)"/>
<use xlink:href="#surface17" mask="url(#mask4)"/>
<path style=" stroke:none;fill-rule:nonzero;fill:rgb(100%,100%,100%);fill-opacity:1;" d="M 189.769531 326.921875 C 189.035156 326.914062 188.441406 326.316406 188.441406 325.578125 L 188.441406 282.578125 C 188.445312 281.847656 189.039062 281.253906 189.769531 281.25 C 190.503906 281.253906 191.09375 281.847656 191.101562 282.578125 L 191.101562 325.578125 C 191.101562 326.316406 190.507812 326.914062 189.769531 326.921875 Z M 189.769531 326.921875 "/>
<path style=" stroke:none;fill-rule:nonzero;fill:rgb(100%,100%,100%);fill-opacity:1;" d="M 166.941406 304.078125 C 166.945312 303.347656 167.539062 302.753906 168.269531 302.75 L 211.269531 302.75 C 212.003906 302.753906 212.59375 303.347656 212.601562 304.078125 C 212.601562 304.816406 212.007812 305.414062 211.269531 305.421875 L 168.269531 305.421875 C 167.535156 305.414062 166.941406 304.816406 166.941406 304.078125 Z M 166.941406 304.078125 "/>
<path style=" stroke:none;fill-rule:nonzero;fill:rgb(100%,100%,100%);fill-opacity:1;" d="M 278.78125 248.78125 L 374.78125 248.78125 L 374.78125 363.21875 L 278.78125 363.21875 Z M 278.78125 248.78125 "/>
<path style=" stroke:none;fill-rule:nonzero;fill:rgb(25.098039%,48.235294%,100%);fill-opacity:1;" d="M 84.109375 248.78125 L 87 248.78125 L 87 363.21875 L 84.109375 363.21875 Z M 84.109375 248.78125 "/>
<path style=" stroke:none;fill-rule:nonzero;fill:rgb(25.098039%,48.235294%,100%);fill-opacity:1;" d="M 371.78125 251.78125 L 371.78125 360.21875 L 281.78125 360.21875 L 281.78125 251.78125 Z M 371.78125 251.78125 "/>
<path style=" stroke:none;fill-rule:nonzero;fill:rgb(100%,100%,100%);fill-opacity:1;" d="M 331.671875 251 L 331.671875 361 L 321.890625 361 L 321.890625 251 Z M 331.671875 251 "/>
<use xlink:href="#surface20" mask="url(#mask5)"/>
<use xlink:href="#surface23" mask="url(#mask6)"/>
<path style=" stroke:none;fill-rule:nonzero;fill:rgb(87.843137%,87.843137%,87.843137%);fill-opacity:1;" d="M 253.910156 376.671875 L 425.671875 376.671875 L 425.671875 382.109375 L 253.910156 382.109375 Z M 253.910156 376.671875 "/>
<path style=" stroke:none;fill-rule:nonzero;fill:rgb(87.843137%,87.843137%,87.843137%);fill-opacity:1;" d="M 253.910156 313.671875 L 425.671875 313.671875 L 425.671875 319.109375 L 253.910156 319.109375 Z M 253.910156 313.671875 "/>
<path style=" stroke:none;fill-rule:nonzero;fill:rgb(87.843137%,87.843137%,87.843137%);fill-opacity:1;" d="M 420.371094 319.109375 L 423.890625 319.109375 L 423.890625 376.671875 L 420.371094 376.671875 Z M 420.371094 319.109375 "/>
<path style=" stroke:none;fill-rule:nonzero;fill:rgb(87.843137%,87.843137%,87.843137%);fill-opacity:1;" d="M 380.808594 319.109375 L 384.328125 319.109375 L 384.328125 376.671875 L 380.808594 376.671875 Z M 380.808594 319.109375 "/>
<path style=" stroke:none;fill-rule:nonzero;fill:rgb(87.843137%,87.843137%,87.843137%);fill-opacity:1;" d="M 341.238281 319.109375 L 344.761719 319.109375 L 344.761719 376.671875 L 341.238281 376.671875 Z M 341.238281 319.109375 "/>
<path style=" stroke:none;fill-rule:nonzero;fill:rgb(87.843137%,87.843137%,87.843137%);fill-opacity:1;" d="M 301.679688 319.109375 L 305.199219 319.109375 L 305.199219 376.671875 L 301.679688 376.671875 Z M 301.679688 319.109375 "/>
<path style=" stroke:none;fill-rule:nonzero;fill:rgb(87.843137%,87.843137%,87.843137%);fill-opacity:1;" d="M 262.109375 319.109375 L 265.628906 319.109375 L 265.628906 376.671875 L 262.109375 376.671875 Z M 262.109375 319.109375 "/>
<path style=" stroke:none;fill-rule:nonzero;fill:rgb(100%,100%,100%);fill-opacity:1;" d="M 82.320312 189.078125 L 411.671875 189.078125 L 411.671875 196.191406 L 82.320312 196.191406 Z M 82.320312 189.078125 "/>
<path style=" stroke:none;fill-rule:nonzero;fill:rgb(14.901961%,19.607843%,21.960784%);fill-opacity:1;" d="M 112.21875 147.609375 L 229 43.820312 L 345.78125 147.609375 C 348.125 149.695312 348.945312 153.011719 347.835938 155.945312 C 346.726562 158.882812 343.917969 160.828125 340.78125 160.839844 L 117.25 160.839844 C 114.105469 160.839844 111.289062 158.898438 110.171875 155.960938 C 109.054688 153.019531 109.871094 149.699219 112.21875 147.609375 Z M 112.21875 147.609375 "/>
<path style=" stroke:none;fill-rule:nonzero;fill:rgb(14.901961%,19.607843%,21.960784%);fill-opacity:1;" d="M 282 61.878906 L 317.511719 61.878906 C 319.304688 61.878906 320.761719 63.335938 320.761719 65.128906 L 320.761719 130 L 278.761719 130 L 278.761719 65.121094 C 278.765625 63.332031 280.210938 61.886719 282 61.878906 Z M 282 61.878906 "/>
<path style=" stroke:none;fill-rule:nonzero;fill:rgb(25.098039%,48.235294%,100%);fill-opacity:1;" d="M 229 55.371094 L 120.980469 151.378906 L 337.019531 151.378906 Z M 229 55.371094 "/>
<use xlink:href="#surface26" mask="url(#mask7)"/>
<path style=" stroke:none;fill-rule:nonzero;fill:rgb(14.901961%,19.607843%,21.960784%);fill-opacity:1;" d="M 102.328125 145.480469 L 391.679688 145.480469 L 411.679688 189.078125 L 82.328125 189.078125 Z M 102.328125 145.480469 "/>
<use xlink:href="#surface29" mask="url(#mask8)"/>
<path style=" stroke:none;fill-rule:nonzero;fill:rgb(100%,100%,100%);fill-opacity:1;" d="M 256.109375 105.710938 C 256.109375 120.683594 243.972656 132.820312 229 132.820312 C 214.027344 132.820312 201.890625 120.683594 201.890625 105.710938 C 201.890625 90.738281 214.027344 78.601562 229 78.601562 C 243.972656 78.601562 256.109375 90.738281 256.109375 105.710938 Z M 256.109375 105.710938 "/>
<path style=" stroke:none;fill-rule:nonzero;fill:rgb(25.098039%,48.235294%,100%);fill-opacity:1;" d="M 252.269531 105.710938 C 252.269531 118.5625 241.851562 128.980469 229 128.980469 C 216.148438 128.980469 205.730469 118.5625 205.730469 105.710938 C 205.730469 92.859375 216.148438 82.441406 229 82.441406 C 241.851562 82.441406 252.269531 92.859375 252.269531 105.710938 Z M 252.269531 105.710938 "/>
<use xlink:href="#surface32" mask="url(#mask9)"/>
<use xlink:href="#surface35" mask="url(#mask10)"/>
<path style=" stroke:none;fill-rule:nonzero;fill:rgb(100%,100%,100%);fill-opacity:1;" d="M 228.800781 79.210938 L 229.058594 79.210938 C 229.980469 79.210938 230.730469 79.957031 230.730469 80.878906 L 230.730469 130.410156 C 230.730469 131.332031 229.980469 132.078125 229.058594 132.078125 L 228.800781 132.078125 C 227.878906 132.078125 227.128906 131.332031 227.128906 130.410156 L 227.128906 80.878906 C 227.128906 79.957031 227.878906 79.210938 228.800781 79.210938 Z M 228.800781 79.210938 "/>
<path style=" stroke:none;fill-rule:nonzero;fill:rgb(100%,100%,100%);fill-opacity:1;" d="M 254.628906 105.480469 L 254.628906 105.800781 C 254.628906 106.707031 253.894531 107.441406 252.988281 107.441406 L 204.851562 107.441406 C 203.945312 107.441406 203.210938 106.707031 203.210938 105.800781 L 203.210938 105.480469 C 203.210938 104.574219 203.945312 103.839844 204.851562 103.839844 L 252.988281 103.839844 C 253.894531 103.839844 254.628906 104.574219 254.628906 105.480469 Z M 254.628906 105.480469 "/>
<path style=" stroke:none;fill-rule:nonzero;fill:rgb(25.098039%,48.235294%,100%);fill-opacity:1;" d="M 301.679688 368.441406 C 295.199219 368.5625 288.953125 370.910156 284 375.089844 L 284 422.890625 L 303.480469 422.890625 L 308.21875 368.441406 Z M 301.679688 368.441406 "/>
<use xlink:href="#surface38" mask="url(#mask11)"/>
<path style=" stroke:none;fill-rule:nonzero;fill:rgb(25.098039%,48.235294%,100%);fill-opacity:1;" d="M 308.171875 368.441406 C 301.671875 368.550781 295.40625 370.898438 290.441406 375.089844 L 290.441406 422.890625 L 325.890625 422.890625 L 325.890625 375.089844 C 320.925781 370.898438 314.667969 368.550781 308.171875 368.441406 Z M 308.171875 368.441406 "/>
<path style=" stroke:none;fill-rule:nonzero;fill:rgb(100%,100%,100%);fill-opacity:1;" d="M 322.390625 419.890625 L 321.390625 419.890625 L 321.390625 377.289062 C 313.449219 371.4375 302.609375 371.496094 294.730469 377.429688 L 294.148438 376.621094 C 302.445312 370.398438 313.855469 370.398438 322.148438 376.621094 L 322.359375 376.769531 Z M 322.390625 419.890625 "/>
<path style=" stroke:none;fill-rule:nonzero;fill:rgb(100%,100%,100%);fill-opacity:1;" d="M 298.890625 387.5 L 317.449219 387.5 L 317.449219 388.5 L 298.890625 388.5 Z M 298.890625 387.5 "/>
<path style=" stroke:none;fill-rule:nonzero;fill:rgb(100%,100%,100%);fill-opacity:1;" d="M 302.890625 392.5 L 313.449219 392.5 L 313.449219 393.5 L 302.890625 393.5 Z M 302.890625 392.5 "/>
<use xlink:href="#surface41" mask="url(#mask12)"/>
<use xlink:href="#surface44" mask="url(#mask13)"/>
<path style=" stroke:none;fill-rule:nonzero;fill:rgb(14.901961%,19.607843%,21.960784%);fill-opacity:1;" d="M 390.871094 295.589844 L 390.800781 295.589844 C 390.667969 295.570312 390.550781 295.5 390.472656 295.390625 C 390.394531 295.285156 390.359375 295.152344 390.378906 295.019531 C 390.597656 293.492188 390.691406 291.945312 390.648438 290.398438 C 390.640625 290.269531 390.6875 290.140625 390.777344 290.042969 C 390.863281 289.941406 390.988281 289.886719 391.121094 289.878906 C 391.253906 289.867188 391.386719 289.914062 391.484375 290 C 391.585938 290.089844 391.644531 290.214844 391.648438 290.351562 C 391.691406 291.960938 391.597656 293.574219 391.371094 295.171875 C 391.328125 295.414062 391.117188 295.589844 390.871094 295.589844 Z M 390.871094 295.589844 "/>
<path style=" stroke:none;fill-rule:nonzero;fill:rgb(100%,100%,100%);fill-opacity:1;" d="M 395.351562 312.609375 C 394.710938 312.390625 394.441406 310.71875 394.441406 310.71875 C 394.441406 310.71875 395.671875 311.328125 395.28125 309.71875 C 394.671875 305.097656 394.339844 300.441406 394.28125 295.78125 C 394.941406 295.5 395.441406 293.609375 394.28125 293.71875 C 392.210938 293.921875 388.78125 293.441406 387.671875 293.71875 C 386.558594 294 386.671875 295 387.441406 295.21875 C 387.441406 296.171875 387.28125 301.71875 386.441406 303.109375 C 385.601562 304.5 387.21875 304.609375 387.21875 304.609375 C 387.171875 307.28125 387.21875 311.21875 386.21875 312.058594 C 385.21875 312.898438 386.109375 313.671875 388.109375 313.671875 L 395.351562 313.671875 C 395.351562 313.671875 396 312.828125 395.351562 312.609375 Z M 395.351562 312.609375 "/>
<path style=" stroke:none;fill-rule:nonzero;fill:rgb(100%,100%,100%);fill-opacity:1;" d="M 159.769531 264.808594 C 159.730469 264.820312 159.691406 264.820312 159.648438 264.808594 L 125.871094 246.5 C 125.753906 246.429688 125.707031 246.28125 125.769531 246.160156 C 125.800781 246.101562 125.855469 246.058594 125.917969 246.039062 C 125.984375 246.019531 126.050781 246.027344 126.109375 246.058594 L 159.890625 264.339844 C 159.949219 264.371094 159.992188 264.421875 160.011719 264.484375 C 160.027344 264.546875 160.023438 264.613281 159.988281 264.671875 C 159.949219 264.753906 159.863281 264.808594 159.769531 264.808594 Z M 159.769531 264.808594 "/>
<path style=" stroke:none;fill-rule:nonzero;fill:rgb(100%,100%,100%);fill-opacity:1;" d="M 166.71875 253.359375 L 126 246.519531 C 125.933594 246.511719 125.875 246.476562 125.835938 246.425781 C 125.796875 246.371094 125.785156 246.304688 125.800781 246.238281 C 125.800781 246.125 125.886719 246.023438 126 246 L 166.730469 252.828125 C 166.867188 252.855469 166.957031 252.984375 166.941406 253.121094 C 166.933594 253.242188 166.839844 253.339844 166.71875 253.359375 Z M 166.71875 253.359375 "/>
<path style=" stroke:none;fill-rule:nonzero;fill:rgb(100%,100%,100%);fill-opacity:1;" d="M 160.5 281.859375 C 160.433594 281.863281 160.367188 281.835938 160.320312 281.789062 L 125.808594 246.449219 C 125.714844 246.351562 125.714844 246.195312 125.808594 246.101562 C 125.855469 246.050781 125.917969 246.023438 125.984375 246.023438 C 126.050781 246.023438 126.113281 246.050781 126.160156 246.101562 L 160.671875 281.441406 C 160.71875 281.484375 160.746094 281.546875 160.746094 281.613281 C 160.746094 281.679688 160.71875 281.746094 160.671875 281.789062 C 160.625 281.835938 160.5625 281.863281 160.5 281.859375 Z M 160.5 281.859375 "/>
<path style=" stroke:none;fill-rule:nonzero;fill:rgb(100%,100%,100%);fill-opacity:1;" d="M 130.21875 255.671875 C 130.109375 255.667969 130.015625 255.59375 129.980469 255.488281 C 129.941406 255.359375 130.011719 255.222656 130.140625 255.179688 L 133.699219 254 C 133.761719 253.976562 133.832031 253.984375 133.890625 254.011719 C 133.949219 254.042969 133.992188 254.097656 134.011719 254.160156 C 134.058594 254.289062 133.988281 254.433594 133.859375 254.480469 L 130.300781 255.640625 Z M 130.21875 255.671875 "/>
<path style=" stroke:none;fill-rule:nonzero;fill:rgb(100%,100%,100%);fill-opacity:1;" d="M 143.25 283.808594 C 143.148438 283.808594 143.058594 283.75 143.019531 283.660156 L 125.769531 246.378906 C 125.738281 246.320312 125.734375 246.25 125.757812 246.1875 C 125.78125 246.125 125.828125 246.074219 125.890625 246.050781 C 126.015625 245.992188 126.160156 246.046875 126.21875 246.171875 L 143.46875 283.449219 C 143.5 283.507812 143.503906 283.578125 143.480469 283.640625 C 143.460938 283.703125 143.410156 283.753906 143.351562 283.78125 C 143.320312 283.800781 143.285156 283.808594 143.25 283.808594 Z M 143.25 283.808594 "/>
<path style=" stroke:none;fill-rule:nonzero;fill:rgb(100%,100%,100%);fill-opacity:1;" d="M 130.328125 277 C 130.207031 277 130.105469 276.910156 130.089844 276.789062 L 125.75 246.339844 C 125.71875 246.261719 125.730469 246.171875 125.78125 246.101562 C 125.832031 246.03125 125.914062 245.996094 126 246 C 126.136719 245.980469 126.257812 246.074219 126.28125 246.210938 L 130.621094 276.660156 C 130.636719 276.796875 130.542969 276.917969 130.410156 276.941406 Z M 130.328125 277 "/>
<path style=" stroke:none;fill-rule:nonzero;fill:rgb(100%,100%,100%);fill-opacity:1;" d="M 128.558594 264.558594 L 125.988281 264.199219 C 125.925781 264.191406 125.863281 264.160156 125.824219 264.105469 C 125.785156 264.050781 125.769531 263.984375 125.78125 263.921875 C 125.789062 263.855469 125.820312 263.792969 125.875 263.753906 C 125.925781 263.714844 125.996094 263.699219 126.058594 263.710938 L 128.628906 264.070312 C 128.769531 264.070312 128.878906 264.183594 128.878906 264.320312 C 128.878906 264.457031 128.769531 264.570312 128.628906 264.570312 Z M 128.558594 264.558594 "/>
<path style=" stroke:none;fill-rule:nonzero;fill:rgb(100%,100%,100%);fill-opacity:1;" d="M 128.289062 262.679688 C 128.175781 262.675781 128.082031 262.597656 128.050781 262.488281 C 128.019531 262.359375 128.097656 262.222656 128.230469 262.191406 L 132.871094 261.019531 C 133.003906 260.988281 133.136719 261.070312 133.171875 261.199219 C 133.203125 261.332031 133.121094 261.464844 132.988281 261.5 L 128.359375 262.671875 Z M 128.289062 262.679688 "/>
<path style=" stroke:none;fill-rule:nonzero;fill:rgb(100%,100%,100%);fill-opacity:1;" d="M 135.769531 267.640625 C 135.691406 267.640625 135.621094 267.609375 135.570312 267.550781 C 135.523438 267.503906 135.496094 267.441406 135.496094 267.375 C 135.496094 267.308594 135.523438 267.246094 135.570312 267.199219 L 141.769531 262.429688 C 141.816406 262.382812 141.878906 262.355469 141.945312 262.355469 C 142.011719 262.355469 142.074219 262.382812 142.121094 262.429688 C 142.214844 262.527344 142.214844 262.683594 142.121094 262.78125 L 135.929688 267.550781 C 135.890625 267.601562 135.832031 267.632812 135.769531 267.640625 Z M 135.769531 267.640625 "/>
<path style=" stroke:none;fill-rule:nonzero;fill:rgb(100%,100%,100%);fill-opacity:1;" d="M 140 260.890625 C 139.945312 260.890625 139.890625 260.875 139.851562 260.839844 C 139.738281 260.757812 139.71875 260.601562 139.800781 260.488281 L 143.460938 255.699219 C 143.542969 255.589844 143.699219 255.566406 143.808594 255.648438 C 143.921875 255.734375 143.941406 255.890625 143.859375 256 L 140.199219 260.800781 C 140.152344 260.859375 140.078125 260.890625 140 260.890625 Z M 140 260.890625 "/>
<path style=" stroke:none;fill-rule:nonzero;fill:rgb(100%,100%,100%);fill-opacity:1;" d="M 148.808594 258.878906 C 148.742188 258.871094 148.683594 258.832031 148.648438 258.777344 C 148.609375 258.722656 148.59375 258.65625 148.609375 258.589844 L 150.121094 250.320312 C 150.144531 250.183594 150.273438 250.09375 150.410156 250.121094 C 150.542969 250.148438 150.628906 250.277344 150.609375 250.410156 L 149.101562 258.679688 C 149.070312 258.8125 148.945312 258.898438 148.808594 258.878906 Z M 148.808594 258.878906 "/>
<path style=" stroke:none;fill-rule:nonzero;fill:rgb(100%,100%,100%);fill-opacity:1;" d="M 146.25 257.488281 L 146.191406 257.488281 C 146.058594 257.457031 145.976562 257.324219 146.011719 257.191406 L 147.941406 249.949219 C 147.949219 249.851562 148.015625 249.769531 148.109375 249.738281 C 148.203125 249.707031 148.304688 249.734375 148.371094 249.804688 C 148.4375 249.875 148.457031 249.980469 148.421875 250.070312 L 146.5 257.320312 C 146.460938 257.425781 146.359375 257.492188 146.25 257.488281 Z M 146.25 257.488281 "/>
<path style=" stroke:none;fill-rule:nonzero;fill:rgb(100%,100%,100%);fill-opacity:1;" d="M 148.941406 270 C 148.894531 270.015625 148.84375 270.015625 148.800781 270 C 148.746094 269.960938 148.707031 269.902344 148.695312 269.835938 C 148.6875 269.773438 148.703125 269.703125 148.738281 269.648438 L 154.378906 261.648438 C 154.425781 261.566406 154.515625 261.511719 154.609375 261.515625 C 154.707031 261.519531 154.792969 261.578125 154.832031 261.667969 C 154.871094 261.753906 154.851562 261.855469 154.789062 261.929688 L 149.148438 269.929688 C 149.09375 269.984375 149.015625 270.007812 148.941406 270 Z M 148.941406 270 "/>
<path style=" stroke:none;fill-rule:nonzero;fill:rgb(100%,100%,100%);fill-opacity:1;" d="M 136.871094 257.671875 C 136.828125 257.683594 136.78125 257.683594 136.738281 257.671875 C 136.625 257.597656 136.589844 257.445312 136.660156 257.328125 L 139.140625 253.410156 C 139.175781 253.355469 139.234375 253.316406 139.300781 253.300781 C 139.367188 253.289062 139.433594 253.300781 139.488281 253.339844 C 139.546875 253.375 139.585938 253.429688 139.597656 253.496094 C 139.609375 253.558594 139.597656 253.625 139.558594 253.679688 L 137.078125 257.589844 C 137.03125 257.652344 136.949219 257.683594 136.871094 257.671875 Z M 136.871094 257.671875 "/>
<path style=" stroke:none;fill-rule:nonzero;fill:rgb(100%,100%,100%);fill-opacity:1;" d="M 141.171875 254.738281 C 141.132812 254.75 141.097656 254.75 141.058594 254.738281 C 140.9375 254.671875 140.890625 254.523438 140.949219 254.398438 L 143.519531 249.171875 C 143.546875 249.109375 143.597656 249.0625 143.660156 249.039062 C 143.722656 249.015625 143.789062 249.019531 143.851562 249.050781 C 143.910156 249.078125 143.960938 249.128906 143.980469 249.195312 C 144.003906 249.257812 144 249.328125 143.96875 249.390625 L 141.398438 254.621094 C 141.351562 254.699219 141.261719 254.746094 141.171875 254.738281 Z M 141.171875 254.738281 "/>
<path style=" stroke:none;fill-rule:nonzero;fill:rgb(100%,100%,100%);fill-opacity:1;" d="M 136.78125 269.839844 C 136.664062 269.839844 136.566406 269.761719 136.535156 269.652344 C 136.507812 269.539062 136.558594 269.425781 136.660156 269.371094 L 144.371094 265 C 144.488281 264.933594 144.640625 264.972656 144.710938 265.089844 C 144.777344 265.214844 144.734375 265.371094 144.609375 265.441406 L 136.898438 269.808594 C 136.863281 269.832031 136.820312 269.839844 136.78125 269.839844 Z M 136.78125 269.839844 "/>
<path style=" stroke:none;fill-rule:nonzero;fill:rgb(100%,100%,100%);fill-opacity:1;" d="M 158 251.898438 C 157.875 251.898438 157.769531 251.804688 157.75 251.679688 L 157 245.738281 C 156.984375 245.601562 157.082031 245.476562 157.21875 245.460938 C 157.359375 245.445312 157.484375 245.542969 157.5 245.679688 L 158.25 251.621094 C 158.257812 251.6875 158.238281 251.753906 158.199219 251.804688 C 158.15625 251.859375 158.097656 251.890625 158.03125 251.898438 Z M 158 251.898438 "/>
<path style=" stroke:none;fill-rule:nonzero;fill:rgb(100%,100%,100%);fill-opacity:1;" d="M 127.800781 259.199219 C 127.703125 259.203125 127.609375 259.148438 127.570312 259.058594 C 127.511719 258.929688 127.570312 258.777344 127.699219 258.71875 L 131.050781 257.199219 C 131.132812 257.144531 131.242188 257.144531 131.324219 257.195312 C 131.410156 257.25 131.453125 257.351562 131.4375 257.449219 C 131.421875 257.546875 131.347656 257.625 131.25 257.648438 L 127.898438 259.179688 Z M 127.800781 259.199219 "/>
<path style=" stroke:none;fill-rule:nonzero;fill:rgb(100%,100%,100%);fill-opacity:1;" d="M 332.921875 223.238281 C 332.8125 223.238281 332.71875 223.171875 332.679688 223.070312 C 332.632812 222.941406 332.699219 222.796875 332.828125 222.75 L 406.921875 196.75 C 407.050781 196.707031 407.195312 196.777344 407.238281 196.910156 C 407.285156 197.042969 407.210938 197.1875 407.078125 197.230469 L 333 223.230469 Z M 332.921875 223.238281 "/>
<path style=" stroke:none;fill-rule:nonzero;fill:rgb(100%,100%,100%);fill-opacity:1;" d="M 317.671875 207 C 317.539062 207 317.429688 206.898438 317.421875 206.769531 C 317.410156 206.703125 317.429688 206.640625 317.472656 206.585938 C 317.511719 206.535156 317.574219 206.503906 317.640625 206.5 L 407 196.75 C 407.136719 196.738281 407.257812 196.835938 407.28125 196.96875 C 407.292969 197.105469 407.195312 197.230469 407.058594 197.25 L 317.691406 207 Z M 317.671875 207 "/>
<path style=" stroke:none;fill-rule:nonzero;fill:rgb(100%,100%,100%);fill-opacity:1;" d="M 378.769531 216 C 378.707031 215.996094 378.648438 215.972656 378.601562 215.929688 L 371.839844 209.460938 C 371.746094 209.363281 371.746094 209.207031 371.839844 209.109375 C 371.941406 209.011719 372.097656 209.011719 372.199219 209.109375 L 378.960938 215.570312 C 379.007812 215.617188 379.035156 215.683594 379.035156 215.75 C 379.035156 215.816406 379.007812 215.882812 378.960938 215.929688 C 378.910156 215.980469 378.839844 216.007812 378.769531 216 Z M 378.769531 216 "/>
<path style=" stroke:none;fill-rule:nonzero;fill:rgb(100%,100%,100%);fill-opacity:1;" d="M 373.808594 200.859375 C 373.703125 200.859375 373.605469 200.789062 373.570312 200.691406 L 372 195.910156 C 371.957031 195.777344 372.027344 195.632812 372.160156 195.589844 C 372.292969 195.546875 372.4375 195.617188 372.480469 195.75 L 374.070312 200.53125 C 374.109375 200.664062 374.039062 200.804688 373.910156 200.851562 Z M 373.808594 200.859375 "/>
<path style=" stroke:none;fill-rule:nonzero;fill:rgb(100%,100%,100%);fill-opacity:1;" d="M 327.148438 250.25 C 327.066406 250.25 326.988281 250.207031 326.941406 250.140625 C 326.867188 250.023438 326.898438 249.871094 327.011719 249.789062 L 406.859375 196.789062 C 406.976562 196.710938 407.132812 196.742188 407.210938 196.859375 C 407.289062 196.976562 407.257812 197.132812 407.140625 197.210938 L 327.289062 250.210938 C 327.25 250.238281 327.199219 250.25 327.148438 250.25 Z M 327.148438 250.25 "/>
<path style=" stroke:none;fill-rule:nonzero;fill:rgb(100%,100%,100%);fill-opacity:1;" d="M 397.71875 210.238281 L 397.671875 210.238281 L 389.871094 208.578125 C 389.734375 208.550781 389.648438 208.414062 389.679688 208.28125 C 389.710938 208.144531 389.84375 208.058594 389.980469 208.089844 L 397.769531 209.75 C 397.835938 209.761719 397.894531 209.800781 397.933594 209.855469 C 397.972656 209.914062 397.984375 209.984375 397.96875 210.050781 C 397.9375 210.164062 397.835938 210.238281 397.71875 210.238281 Z M 397.71875 210.238281 "/>
<path style=" stroke:none;fill-rule:nonzero;fill:rgb(100%,100%,100%);fill-opacity:1;" d="M 369.160156 250.25 C 369.105469 250.246094 369.054688 250.230469 369.011719 250.199219 C 368.957031 250.160156 368.917969 250.101562 368.90625 250.039062 C 368.894531 249.972656 368.910156 249.902344 368.949219 249.851562 L 406.800781 196.851562 C 406.882812 196.738281 407.039062 196.71875 407.148438 196.800781 C 407.261719 196.882812 407.28125 197.039062 407.199219 197.148438 L 369.359375 250.148438 C 369.3125 250.210938 369.238281 250.25 369.160156 250.25 Z M 369.160156 250.25 "/>
<path style=" stroke:none;fill-rule:nonzero;fill:rgb(100%,100%,100%);fill-opacity:1;" d="M 397.480469 240.53125 L 397.421875 240.53125 C 397.355469 240.515625 397.296875 240.476562 397.261719 240.417969 C 397.226562 240.363281 397.214844 240.296875 397.230469 240.230469 L 406.761719 197 C 406.773438 196.9375 406.808594 196.878906 406.863281 196.84375 C 406.917969 196.808594 406.984375 196.796875 407.050781 196.808594 C 407.113281 196.820312 407.171875 196.859375 407.207031 196.914062 C 407.242188 196.96875 407.253906 197.035156 407.238281 197.101562 L 397.71875 240.390625 C 397.679688 240.484375 397.582031 240.539062 397.480469 240.53125 Z M 397.480469 240.53125 "/>
<path style=" stroke:none;fill-rule:nonzero;fill:rgb(100%,100%,100%);fill-opacity:1;" d="M 401.359375 222.878906 C 401.230469 222.886719 401.121094 222.789062 401.109375 222.660156 C 401.097656 222.519531 401.199219 222.394531 401.339844 222.378906 L 406.980469 221.871094 C 407.046875 221.863281 407.109375 221.878906 407.164062 221.921875 C 407.214844 221.964844 407.246094 222.023438 407.25 222.089844 C 407.261719 222.230469 407.160156 222.355469 407.019531 222.371094 L 401.378906 222.878906 Z M 401.359375 222.878906 "/>
<path style=" stroke:none;fill-rule:nonzero;fill:rgb(100%,100%,100%);fill-opacity:1;" d="M 402 220.210938 L 391.839844 218.550781 L 379.980469 215.191406 C 379.847656 215.152344 379.769531 215.011719 379.808594 214.878906 C 379.847656 214.746094 379.984375 214.667969 380.121094 214.699219 L 391.949219 218.058594 L 402 219.71875 C 402.132812 219.742188 402.226562 219.863281 402.210938 220 C 402.1875 220.105469 402.105469 220.1875 402 220.210938 Z M 402 220.210938 "/>
<path style=" stroke:none;fill-rule:nonzero;fill:rgb(100%,100%,100%);fill-opacity:1;" d="M 385.558594 227.269531 L 385.449219 227.269531 L 371.871094 220.488281 C 371.75 220.421875 371.699219 220.273438 371.761719 220.148438 C 371.824219 220.03125 371.96875 219.980469 372.089844 220.039062 L 385.679688 226.820312 C 385.800781 226.882812 385.847656 227.027344 385.789062 227.148438 C 385.742188 227.230469 385.652344 227.277344 385.558594 227.269531 Z M 385.558594 227.269531 "/>
<path style=" stroke:none;fill-rule:nonzero;fill:rgb(100%,100%,100%);fill-opacity:1;" d="M 376.230469 217.671875 C 376.175781 217.6875 376.113281 217.6875 376.058594 217.671875 L 368.058594 210.851562 C 368.011719 210.804688 367.984375 210.738281 367.984375 210.671875 C 367.984375 210.601562 368.011719 210.539062 368.058594 210.488281 C 368.15625 210.394531 368.3125 210.394531 368.410156 210.488281 L 376.410156 217.300781 C 376.507812 217.402344 376.507812 217.558594 376.410156 217.660156 C 376.355469 217.6875 376.289062 217.691406 376.230469 217.671875 Z M 376.230469 217.671875 "/>
<path style=" stroke:none;fill-rule:nonzero;fill:rgb(100%,100%,100%);fill-opacity:1;" d="M 357 214.808594 C 356.890625 214.808594 356.792969 214.738281 356.761719 214.628906 L 353.449219 202.871094 C 353.414062 202.78125 353.433594 202.679688 353.5 202.609375 C 353.566406 202.539062 353.664062 202.511719 353.753906 202.539062 C 353.847656 202.566406 353.914062 202.644531 353.929688 202.738281 L 357.238281 214.488281 C 357.273438 214.625 357.191406 214.761719 357.058594 214.800781 Z M 357 214.808594 "/>
<path style=" stroke:none;fill-rule:nonzero;fill:rgb(100%,100%,100%);fill-opacity:1;" d="M 362.558594 212.839844 C 362.457031 212.839844 362.367188 212.773438 362.328125 212.679688 L 358.109375 202.390625 C 358.058594 202.261719 358.117188 202.117188 358.238281 202.058594 C 358.300781 202.035156 358.371094 202.035156 358.433594 202.058594 C 358.496094 202.085938 358.546875 202.136719 358.570312 202.199219 L 362.789062 212.488281 C 362.816406 212.550781 362.816406 212.621094 362.789062 212.683594 C 362.761719 212.746094 362.714844 212.796875 362.648438 212.820312 Z M 362.558594 212.839844 "/>
<path style=" stroke:none;fill-rule:nonzero;fill:rgb(100%,100%,100%);fill-opacity:1;" d="M 356.660156 230.660156 C 356.582031 230.660156 356.507812 230.621094 356.460938 230.558594 L 347.121094 218.089844 C 347.039062 217.980469 347.058594 217.824219 347.171875 217.738281 C 347.28125 217.65625 347.4375 217.679688 347.519531 217.789062 L 356.859375 230.261719 C 356.941406 230.371094 356.921875 230.527344 356.808594 230.609375 C 356.765625 230.640625 356.714844 230.660156 356.660156 230.660156 Z M 356.660156 230.660156 "/>
<path style=" stroke:none;fill-rule:nonzero;fill:rgb(100%,100%,100%);fill-opacity:1;" d="M 383.128906 213.089844 C 383.078125 213.078125 383.03125 213.042969 383 213 L 377.558594 207.441406 C 377.511719 207.394531 377.484375 207.332031 377.484375 207.265625 C 377.484375 207.199219 377.511719 207.136719 377.558594 207.089844 C 377.605469 207.042969 377.671875 207.011719 377.738281 207.011719 C 377.808594 207.011719 377.871094 207.042969 377.921875 207.089844 L 383.351562 212.660156 C 383.417969 212.734375 383.433594 212.835938 383.398438 212.929688 C 383.359375 213.019531 383.269531 213.078125 383.171875 213.078125 Z M 383.128906 213.089844 "/>
<path style=" stroke:none;fill-rule:nonzero;fill:rgb(100%,100%,100%);fill-opacity:1;" d="M 373.699219 208.929688 C 373.621094 208.929688 373.546875 208.894531 373.5 208.828125 L 367.871094 201.378906 C 367.789062 201.269531 367.808594 201.113281 367.921875 201.03125 C 368.03125 200.945312 368.1875 200.96875 368.269531 201.078125 L 373.898438 208.53125 C 373.996094 208.628906 373.996094 208.78125 373.898438 208.878906 C 373.84375 208.921875 373.769531 208.941406 373.699219 208.929688 Z M 373.699219 208.929688 "/>
<path style=" stroke:none;fill-rule:nonzero;fill:rgb(100%,100%,100%);fill-opacity:1;" d="M 383.339844 230.390625 L 383.25 230.390625 L 366.339844 224.171875 C 366.210938 224.121094 366.144531 223.980469 366.191406 223.851562 C 366.242188 223.722656 366.378906 223.660156 366.511719 223.699219 L 383.421875 229.921875 C 383.527344 229.964844 383.589844 230.078125 383.570312 230.191406 C 383.550781 230.304688 383.457031 230.390625 383.339844 230.398438 Z M 383.339844 230.390625 "/>
<path style=" stroke:none;fill-rule:nonzero;fill:rgb(100%,100%,100%);fill-opacity:1;" d="M 336.789062 204.890625 L 336.738281 204.890625 C 336.609375 204.859375 336.519531 204.734375 336.539062 204.601562 L 338.199219 196.148438 C 338.210938 196.085938 338.25 196.027344 338.304688 195.992188 C 338.359375 195.957031 338.425781 195.945312 338.488281 195.960938 C 338.554688 195.96875 338.617188 196.007812 338.652344 196.0625 C 338.691406 196.117188 338.703125 196.183594 338.691406 196.25 L 337 204.679688 C 336.976562 204.785156 336.894531 204.867188 336.789062 204.890625 Z M 336.789062 204.890625 "/>
<path style=" stroke:none;fill-rule:nonzero;fill:rgb(100%,100%,100%);fill-opacity:1;" d="M 403 215.269531 L 395.648438 213.101562 C 395.519531 213.058594 395.445312 212.921875 395.480469 212.789062 C 395.5 212.722656 395.542969 212.667969 395.605469 212.636719 C 395.664062 212.605469 395.734375 212.597656 395.800781 212.621094 L 403.148438 214.789062 C 403.28125 214.828125 403.359375 214.96875 403.320312 215.101562 C 403.277344 215.234375 403.136719 215.308594 403 215.269531 Z M 403 215.269531 "/>
<path style=" stroke:none;fill-rule:nonzero;fill:rgb(100%,100%,100%);fill-opacity:1;" d="M 392 392.308594 C 389.769531 388.019531 388.140625 388.109375 386.699219 387.359375 C 385.261719 386.609375 387.210938 383.640625 389.949219 384.359375 C 392.691406 385.078125 394.148438 390.578125 393.578125 392.289062 C 392 393.320312 392 392.308594 392 392.308594 Z M 392 392.308594 "/>
<path style=" stroke:none;fill-rule:nonzero;fill:rgb(25.098039%,48.235294%,100%);fill-opacity:1;" d="M 392.890625 421 C 390.519531 421.042969 388.144531 420.921875 385.789062 420.640625 C 382.628906 420.210938 378.269531 419.210938 376.308594 417.320312 C 370.308594 411.699219 370.308594 401.03125 376.308594 395.410156 C 378.308594 393.519531 382.628906 392.519531 385.789062 392.089844 C 388.144531 391.808594 390.519531 391.691406 392.890625 391.738281 C 395.261719 391.691406 397.632812 391.808594 399.988281 392.089844 C 403.148438 392.519531 407.511719 393.519531 409.460938 395.410156 C 415.511719 401.03125 415.511719 411.699219 409.460938 417.320312 C 407.511719 419.210938 403.148438 420.210938 399.988281 420.640625 C 397.632812 420.921875 395.261719 421.042969 392.890625 421 Z M 392.890625 421 "/>
<use xlink:href="#surface47" mask="url(#mask14)"/>
<use xlink:href="#surface50" mask="url(#mask15)"/>
<path style=" stroke:none;fill-rule:nonzero;fill:rgb(14.901961%,19.607843%,21.960784%);fill-opacity:1;" d="M 392.890625 405.390625 L 394.859375 408.398438 L 390.921875 408.398438 Z M 392.890625 405.390625 "/>
<path style=" stroke:none;fill-rule:nonzero;fill:rgb(14.901961%,19.607843%,21.960784%);fill-opacity:1;" d="M 379.671875 409.671875 L 380.5 411.960938 L 384.28125 411.859375 L 386.378906 415 L 389.929688 413.699219 L 392.890625 416.050781 L 395.851562 413.699219 L 399.398438 415 L 401.5 411.859375 L 405.28125 411.960938 L 406.109375 409.679688 L 403.769531 408.789062 L 401.53125 411.5 L 398.410156 409.859375 L 395.78125 412.199219 L 392.890625 410.179688 L 390 412.199219 L 387.371094 409.859375 L 384.25 411.5 L 382 408.789062 Z M 379.671875 409.671875 "/>
<path style=" stroke:none;fill-rule:nonzero;fill:rgb(14.901961%,19.607843%,21.960784%);fill-opacity:1;" d="M 395.851562 402.910156 L 406.109375 399.679688 C 406.109375 399.679688 405 406.871094 395.851562 402.910156 Z M 395.851562 402.910156 "/>
<path style=" stroke:none;fill-rule:nonzero;fill:rgb(14.901961%,19.607843%,21.960784%);fill-opacity:1;" d="M 389.921875 402.910156 L 379.671875 399.679688 C 379.671875 399.679688 380.78125 406.871094 389.921875 402.910156 Z M 389.921875 402.910156 "/>
<path style=" stroke:none;fill-rule:nonzero;fill:rgb(100%,100%,100%);fill-opacity:1;" d="M 94.179688 394.101562 C 93.359375 390.03125 92.378906 389.988281 91.609375 389.199219 C 90.839844 388.410156 92.351562 385.871094 93.890625 386.75 C 95.429688 387.628906 95.648438 392.75 95.109375 394.21875 C 94.078125 395 94.179688 394.101562 94.179688 394.101562 Z M 94.179688 394.101562 "/>
<path style=" stroke:none;fill-rule:nonzero;fill:rgb(100%,100%,100%);fill-opacity:1;" d="M 95.699219 394.539062 C 97.359375 392.089844 98.171875 392.308594 98.988281 391.988281 C 99.808594 391.671875 99.191406 389.628906 97.71875 389.808594 C 96.25 389.988281 94.828125 393.261719 94.910156 394.378906 C 95.550781 395.160156 95.699219 394.539062 95.699219 394.539062 Z M 95.699219 394.539062 "/>
<path style=" stroke:none;fill-rule:nonzero;fill:rgb(25.098039%,48.235294%,100%);fill-opacity:1;" d="M 95.378906 419.898438 C 93.207031 419.949219 91.035156 419.84375 88.878906 419.578125 C 86 419.191406 82.011719 418.269531 80.230469 416.578125 C 74.699219 411.441406 74.699219 401.679688 80.230469 396.578125 C 82.011719 394.859375 86 393.941406 88.878906 393.578125 C 91.035156 393.320312 93.207031 393.214844 95.378906 393.261719 C 97.546875 393.214844 99.714844 393.324219 101.871094 393.578125 C 104.75 393.980469 108.738281 394.890625 110.53125 396.578125 C 116.058594 401.71875 116.058594 411.480469 110.53125 416.578125 C 108.738281 418.300781 104.761719 419.21875 101.871094 419.578125 C 99.714844 419.835938 97.546875 419.945312 95.378906 419.898438 Z M 95.378906 419.898438 "/>
<use xlink:href="#surface53" mask="url(#mask16)"/>
<use xlink:href="#surface56" mask="url(#mask17)"/>
<path style=" stroke:none;fill-rule:nonzero;fill:rgb(14.901961%,19.607843%,21.960784%);fill-opacity:1;" d="M 107.960938 412.769531 L 107.171875 410.601562 L 103.570312 410.691406 L 101.578125 407.710938 L 98.199219 408.941406 L 95.378906 406.710938 L 92.570312 408.941406 L 89.191406 407.710938 L 87.191406 410.691406 L 83.601562 410.601562 L 82.808594 412.769531 L 85.03125 413.609375 L 87.171875 411.039062 L 90.128906 412.601562 L 92.640625 410.371094 L 95.378906 412.289062 L 98.128906 410.371094 L 100.628906 412.601562 L 103.601562 411.039062 L 105.738281 413.609375 Z M 107.960938 412.769531 "/>
<path style=" stroke:none;fill-rule:nonzero;fill:rgb(14.901961%,19.607843%,21.960784%);fill-opacity:1;" d="M 98.089844 403.441406 L 107.460938 399.171875 C 107.460938 399.171875 106.441406 408.671875 98.089844 403.441406 Z M 98.089844 403.441406 "/>
<path style=" stroke:none;fill-rule:nonzero;fill:rgb(14.901961%,19.607843%,21.960784%);fill-opacity:1;" d="M 92.671875 403.441406 L 83.289062 399.171875 C 83.289062 399.171875 84.308594 408.671875 92.671875 403.441406 Z M 92.671875 403.441406 "/>
<path style=" stroke:none;fill-rule:nonzero;fill:rgb(14.901961%,19.607843%,21.960784%);fill-opacity:1;" d="M 247.28125 266.800781 C 244.976562 268.746094 242.386719 270.324219 239.601562 271.480469 L 238.808594 270.851562 L 238.648438 271.851562 L 238.199219 272.03125 L 237.75 272.199219 L 236.929688 271.539062 L 236.78125 272.539062 C 233.945312 273.574219 230.964844 274.171875 227.949219 274.308594 C 227.949219 274.308594 230.660156 274.671875 231.171875 276.890625 C 233.691406 275.71875 235.828125 276.328125 236.898438 277.941406 C 237.328125 277.277344 237.847656 276.679688 238.441406 276.160156 C 238.96875 276.871094 239.628906 277.238281 240.160156 277.03125 C 240.691406 276.820312 240.929688 276.101562 240.828125 275.21875 C 241.617188 275.199219 242.40625 275.289062 243.171875 275.488281 C 242.871094 273.570312 244.019531 271.679688 246.671875 270.828125 C 245.53125 268.898438 247.28125 266.800781 247.28125 266.800781 Z M 247.28125 266.800781 "/>
<path style=" stroke:none;fill-rule:nonzero;fill:rgb(14.901961%,19.607843%,21.960784%);fill-opacity:1;" d="M 153.730469 303.601562 C 150.488281 304.019531 147.207031 303.9375 143.988281 303.359375 L 143.640625 302.359375 L 142.890625 303.210938 L 142.371094 303.109375 L 141.859375 303 L 141.5 301.929688 L 140.769531 302.75 C 137.582031 302.03125 134.523438 300.832031 131.699219 299.191406 C 131.699219 299.191406 133.960938 301.109375 133.121094 303.429688 C 136.121094 303.839844 137.679688 305.640625 137.71875 307.738281 C 138.496094 307.390625 139.316406 307.148438 140.160156 307.019531 C 140.21875 307.96875 140.621094 308.699219 141.21875 308.820312 C 141.820312 308.941406 142.460938 308.429688 142.890625 307.570312 C 143.625 308.015625 144.296875 308.554688 144.890625 309.179688 C 145.738281 307.261719 147.890625 306.179688 150.800781 307 C 150.898438 304.488281 153.730469 303.601562 153.730469 303.601562 Z M 153.730469 303.601562 "/>
<path style=" stroke:none;fill-rule:nonzero;fill:rgb(14.901961%,19.607843%,21.960784%);fill-opacity:1;" d="M 191.078125 125.871094 C 187.8125 125.867188 184.5625 125.359375 181.449219 124.371094 L 181.238281 123.300781 L 180.390625 124.039062 L 179.890625 123.878906 L 179.390625 123.699219 L 179.171875 122.589844 L 178.351562 123.308594 C 175.28125 122.191406 172.40625 120.605469 169.820312 118.609375 C 169.820312 118.609375 171.820312 120.800781 170.671875 123 C 173.570312 123.789062 174.910156 125.78125 174.671875 127.871094 C 175.484375 127.621094 176.328125 127.488281 177.179688 127.46875 C 177.121094 128.421875 177.421875 129.199219 178 129.390625 C 178.578125 129.578125 179.28125 129.160156 179.808594 128.390625 C 180.480469 128.917969 181.066406 129.542969 181.558594 130.238281 C 182.648438 128.449219 184.929688 127.691406 187.710938 128.839844 C 188.160156 126.390625 191.078125 125.871094 191.078125 125.871094 Z M 191.078125 125.871094 "/>
<path style=" stroke:none;fill-rule:nonzero;fill:rgb(14.901961%,19.607843%,21.960784%);fill-opacity:1;" d="M 290.738281 123.769531 C 286.242188 126.285156 281.386719 128.09375 276.339844 129.128906 L 275.210938 127.808594 L 274.609375 129.5 L 273.800781 129.648438 L 272.980469 129.800781 L 271.820312 128.429688 L 271.238281 130.070312 C 266.152344 130.886719 260.96875 130.921875 255.871094 130.171875 C 255.871094 130.171875 260.300781 131.648438 260.429688 135.550781 C 265.039062 134.398438 268.429688 136.109375 269.699219 139.160156 C 270.632812 138.191406 271.695312 137.355469 272.859375 136.679688 C 273.511719 138.039062 274.511719 138.871094 275.460938 138.679688 C 276.410156 138.488281 277.050781 137.371094 277.171875 135.871094 C 278.496094 136.089844 279.785156 136.492188 281 137.070312 C 281.121094 133.761719 283.671875 130.960938 288.390625 130.398438 C 287.128906 126.730469 290.738281 123.769531 290.738281 123.769531 Z M 290.738281 123.769531 "/>
<path style=" stroke:none;fill-rule:nonzero;fill:rgb(14.901961%,19.607843%,21.960784%);fill-opacity:1;" d="M 304.890625 230.609375 C 300.8125 230.988281 296.703125 230.742188 292.699219 229.878906 L 292.300781 228.558594 L 291.300781 229.558594 L 290.660156 229.421875 L 290.019531 229.261719 L 289.609375 227.898438 L 288.660156 228.898438 C 284.699219 227.863281 280.921875 226.226562 277.460938 224.039062 C 277.460938 224.039062 280.199219 226.539062 279.050781 229.421875 C 282.769531 230.058594 284.671875 232.421875 284.628906 235.011719 C 285.617188 234.609375 286.660156 234.347656 287.71875 234.230469 C 287.71875 235.421875 288.210938 236.351562 288.960938 236.53125 C 289.710938 236.710938 290.539062 236.078125 291.109375 235.03125 C 292.003906 235.617188 292.808594 236.324219 293.511719 237.128906 C 294.660156 234.769531 297.410156 233.550781 301.011719 234.660156 C 301.308594 231.601562 304.890625 230.609375 304.890625 230.609375 Z M 304.890625 230.609375 "/>
<path style=" stroke:none;fill-rule:nonzero;fill:rgb(14.901961%,19.607843%,21.960784%);fill-opacity:1;" d="M 338.050781 328.890625 C 288.828125 328.890625 254.171875 314.890625 253.808594 314.78125 C 253.535156 314.667969 253.398438 314.355469 253.511719 314.078125 C 253.621094 313.804688 253.933594 313.667969 254.210938 313.78125 C 254.589844 313.929688 292.441406 329.171875 345.210938 327.710938 C 401.589844 326.160156 424.871094 313.921875 425.101562 313.800781 C 425.351562 313.691406 425.644531 313.792969 425.777344 314.035156 C 425.90625 314.277344 425.828125 314.578125 425.601562 314.730469 C 425.371094 314.851562 401.871094 327.199219 345.238281 328.730469 C 342.792969 328.84375 340.398438 328.898438 338.050781 328.890625 Z M 338.050781 328.890625 "/>
<path style=" stroke:none;fill-rule:nonzero;fill:rgb(14.901961%,19.607843%,21.960784%);fill-opacity:1;" d="M 263.480469 316.449219 L 273.941406 319.199219 L 263.128906 335.859375 Z M 263.480469 316.449219 "/>
<path style=" stroke:none;fill-rule:nonzero;fill:rgb(100%,100%,100%);fill-opacity:1;" d="M 290.441406 323.058594 L 301.089844 324.941406 L 291.691406 342.429688 Z M 290.441406 323.058594 "/>
<path style=" stroke:none;fill-rule:nonzero;fill:rgb(14.901961%,19.607843%,21.960784%);fill-opacity:1;" d="M 325.980469 326.828125 L 336.789062 327.160156 L 329.988281 345.820312 Z M 325.980469 326.828125 "/>
<path style=" stroke:none;fill-rule:nonzero;fill:rgb(14.901961%,19.607843%,21.960784%);fill-opacity:1;" d="M 397.859375 321.039062 L 408.5 319.078125 L 405.789062 338.75 Z M 397.859375 321.039062 "/>
<path style=" stroke:none;fill-rule:nonzero;fill:rgb(100%,100%,100%);fill-opacity:1;" d="M 355.929688 326.328125 L 366.699219 325.328125 L 362.230469 344.679688 Z M 355.929688 326.328125 "/>
<path style=" stroke:none;fill-rule:nonzero;fill:rgb(14.901961%,19.607843%,21.960784%);fill-opacity:1;" d="M 207.769531 340 C 207.21875 335.898438 202.988281 333.089844 198.320312 333.71875 C 193.648438 334.351562 190.320312 338.191406 190.878906 342.289062 C 191.171875 344.363281 192.375 346.199219 194.160156 347.289062 C 194.128906 347.351562 194.105469 347.414062 194.089844 347.480469 C 193.929688 348.101562 194.480469 348.75 195.371094 349.050781 L 195.371094 349.378906 C 195.539062 350.429688 196.375 351.242188 197.429688 351.378906 L 197.511719 351.921875 C 197.523438 352.015625 197.574219 352.101562 197.648438 352.160156 C 197.726562 352.21875 197.824219 352.246094 197.921875 352.230469 L 198.691406 352.128906 C 198.785156 352.117188 198.871094 352.066406 198.929688 351.988281 C 198.988281 351.914062 199.015625 351.816406 199 351.71875 L 198.941406 351.261719 L 199.828125 351.140625 L 199.898438 351.601562 C 199.910156 351.695312 199.957031 351.78125 200.035156 351.839844 C 200.109375 351.898438 200.207031 351.925781 200.300781 351.910156 L 201.078125 351.808594 C 201.175781 351.796875 201.261719 351.746094 201.320312 351.671875 C 201.378906 351.59375 201.402344 351.496094 201.390625 351.398438 L 201.328125 350.941406 L 202.21875 350.820312 L 202.28125 351.28125 C 202.292969 351.375 202.34375 351.460938 202.417969 351.519531 C 202.496094 351.578125 202.59375 351.605469 202.691406 351.589844 L 203.460938 351.480469 C 203.65625 351.453125 203.796875 351.277344 203.78125 351.078125 L 203.699219 350.53125 C 204.695312 350.117188 205.289062 349.089844 205.148438 348.019531 L 205.148438 347.679688 C 205.921875 347.160156 206.28125 346.390625 205.960938 345.828125 C 205.933594 345.789062 205.902344 345.753906 205.871094 345.71875 C 207.332031 344.199219 208.03125 342.09375 207.769531 340 Z M 207.769531 340 "/>
<path style=" stroke:none;fill-rule:nonzero;fill:rgb(100%,100%,100%);fill-opacity:1;" d="M 197.660156 342.890625 C 197.5 343.609375 196.550781 344.011719 195.539062 343.789062 C 194.53125 343.570312 193.828125 342.789062 193.980469 342.089844 C 194.128906 341.390625 195.089844 340.96875 196.101562 341.191406 C 197.109375 341.410156 197.808594 342.171875 197.660156 342.890625 Z M 197.660156 342.890625 "/>
<path style=" stroke:none;fill-rule:nonzero;fill:rgb(100%,100%,100%);fill-opacity:1;" d="M 204.640625 340.648438 C 204.988281 341.300781 204.519531 342.21875 203.640625 342.699219 C 202.917969 343.21875 201.921875 343.085938 201.359375 342.398438 C 201.011719 341.75 201.480469 340.828125 202.359375 340.339844 C 203.082031 339.824219 204.082031 339.960938 204.640625 340.648438 Z M 204.640625 340.648438 "/>
<path style=" stroke:none;fill-rule:nonzero;fill:rgb(14.901961%,19.607843%,21.960784%);fill-opacity:1;" d="M 171.878906 364.46875 C 172.429688 368.570312 176.660156 371.390625 181.328125 370.761719 C 186 370.128906 189.328125 366.289062 188.769531 362.191406 C 188.46875 360.121094 187.269531 358.289062 185.488281 357.191406 C 185.523438 357.132812 185.546875 357.074219 185.558594 357.011719 C 185.71875 356.378906 185.171875 355.730469 184.28125 355.441406 L 184.28125 355.101562 C 184.117188 354.046875 183.277344 353.230469 182.21875 353.101562 L 182.140625 352.550781 C 182.128906 352.453125 182.078125 352.367188 182 352.308594 C 181.921875 352.25 181.824219 352.226562 181.730469 352.238281 L 180.960938 352.351562 C 180.863281 352.359375 180.777344 352.40625 180.71875 352.484375 C 180.660156 352.558594 180.636719 352.65625 180.648438 352.75 L 180.710938 353.210938 L 179.820312 353.328125 L 179.75 352.878906 C 179.722656 352.683594 179.546875 352.542969 179.351562 352.558594 L 178.570312 352.671875 C 178.472656 352.683594 178.386719 352.734375 178.328125 352.808594 C 178.269531 352.886719 178.246094 352.984375 178.261719 353.078125 L 178.320312 353.539062 L 177.429688 353.660156 L 177.371094 353.199219 C 177.359375 353.105469 177.308594 353.015625 177.230469 352.957031 C 177.152344 352.902344 177.054688 352.875 176.960938 352.890625 L 176.191406 352.988281 C 175.992188 353.019531 175.851562 353.199219 175.871094 353.398438 L 175.949219 353.949219 C 174.953125 354.363281 174.359375 355.390625 174.5 356.460938 L 174.5 356.789062 C 173.730469 357.308594 173.371094 358.078125 173.691406 358.648438 C 173.71875 358.6875 173.746094 358.726562 173.78125 358.761719 C 172.320312 360.28125 171.621094 362.378906 171.878906 364.46875 Z M 171.878906 364.46875 "/>
<path style=" stroke:none;fill-rule:nonzero;fill:rgb(100%,100%,100%);fill-opacity:1;" d="M 182 361.558594 C 182.160156 360.851562 183.109375 360.441406 184.121094 360.671875 C 185.128906 360.898438 185.828125 361.671875 185.679688 362.371094 C 185.53125 363.070312 184.570312 363.488281 183.558594 363.261719 C 182.550781 363.03125 181.839844 362.28125 182 361.558594 Z M 182 361.558594 "/>
<path style=" stroke:none;fill-rule:nonzero;fill:rgb(100%,100%,100%);fill-opacity:1;" d="M 175 363.808594 C 174.648438 363.160156 175.121094 362.238281 176 361.761719 C 176.71875 361.238281 177.722656 361.371094 178.28125 362.058594 C 178.628906 362.710938 178.160156 363.628906 177.28125 364.109375 C 176.558594 364.628906 175.5625 364.496094 175 363.808594 Z M 175 363.808594 "/>
</g>
</svg>
