<?xml version="1.0" encoding="UTF-8"?>
<svg xmlns="http://www.w3.org/2000/svg" xmlns:xlink="http://www.w3.org/1999/xlink" width="500px" height="500px" viewBox="0 0 500 500" version="1.1">
<defs>
<filter id="alpha" filterUnits="objectBoundingBox" x="0%" y="0%" width="100%" height="100%">
  <feColorMatrix type="matrix" in="SourceGraphic" values="0 0 0 0 1 0 0 0 0 1 0 0 0 0 1 0 0 0 1 0"/>
</filter>
<mask id="mask0">
  <g filter="url(#alpha)">
<rect x="0" y="0" width="500" height="500" style="fill:rgb(0%,0%,0%);fill-opacity:0.701961;stroke:none;"/>
  </g>
</mask>
<clipPath id="clip1">
  <rect x="0" y="0" width="500" height="500"/>
</clipPath>
<g id="surface5" clip-path="url(#clip1)">
<path style=" stroke:none;fill-rule:nonzero;fill:rgb(100%,100%,100%);fill-opacity:1;" d="M 67.929688 167.089844 C 67.929688 167.089844 40.050781 239.089844 79.230469 311.589844 C 118.410156 384.089844 199.109375 422.390625 263.699219 455.140625 C 328.289062 487.890625 395.359375 471.941406 427.230469 418.300781 C 459.101562 364.660156 415.390625 326.371094 415.328125 249.878906 C 415.269531 173.390625 426.78125 153.140625 385.328125 88.519531 C 343.878906 23.898438 242.269531 9.589844 165.429688 57.519531 C 88.589844 105.449219 67.929688 167.089844 67.929688 167.089844 Z M 67.929688 167.089844 "/>
</g>
<mask id="mask1">
  <g filter="url(#alpha)">
<rect x="0" y="0" width="500" height="500" style="fill:rgb(0%,0%,0%);fill-opacity:0.701961;stroke:none;"/>
  </g>
</mask>
<clipPath id="clip2">
  <rect x="0" y="0" width="500" height="500"/>
</clipPath>
<g id="surface8" clip-path="url(#clip2)">
<path style=" stroke:none;fill-rule:nonzero;fill:rgb(100%,100%,100%);fill-opacity:1;" d="M 192 451.238281 C 219.199219 468.089844 269.269531 446.089844 288.148438 425.890625 C 349.410156 360.308594 457.871094 249.441406 434.320312 136.449219 C 424.320312 88.449219 375.980469 74.570312 356.601562 71.878906 C 310.070312 65.398438 262.699219 72.269531 216.789062 82.199219 C 168.789062 92.578125 118.421875 107.640625 81.789062 142.019531 C 68 155 55.679688 170.300781 49.28125 188.390625 C 42.78125 206.769531 41.570312 226.929688 44.878906 246.078125 C 50.238281 276.980469 66.351562 305.078125 85.949219 329.601562 C 105.550781 354.121094 128.699219 375.421875 150.679688 397.78125 C 165 412.371094 169.089844 437 192 451.238281 Z M 192 451.238281 "/>
</g>
<clipPath id="clip3">
  <path d="M 122 157 L 141 157 L 141 170 L 122 170 Z M 122 157 "/>
</clipPath>
<clipPath id="clip4">
  <path d="M 122.378906 165.730469 C 122.378906 165.730469 132.941406 156.03125 140.25 157.191406 C 141.46875 157.378906 135.199219 169.320312 135.199219 169.320312 Z M 122.378906 165.730469 "/>
</clipPath>
<mask id="mask2">
  <g filter="url(#alpha)">
<rect x="0" y="0" width="500" height="500" style="fill:rgb(0%,0%,0%);fill-opacity:0.501961;stroke:none;"/>
  </g>
</mask>
<clipPath id="clip5">
  <rect x="0" y="0" width="500" height="500"/>
</clipPath>
<g id="surface11" clip-path="url(#clip5)">
<path style=" stroke:none;fill-rule:nonzero;fill:rgb(0%,0%,0%);fill-opacity:0.701961;" d="M 122.378906 165.730469 C 122.378906 165.730469 132.941406 156.03125 140.25 157.191406 C 141.46875 157.378906 135.199219 169.320312 135.199219 169.320312 Z M 122.378906 165.730469 "/>
</g>
<clipPath id="clip6">
  <path d="M 102 244 L 197 244 L 197 423 L 102 423 Z M 102 244 "/>
</clipPath>
<clipPath id="clip7">
  <path d="M 140.25 244.929688 C 140.25 244.929688 129.511719 262.980469 132.941406 278.929688 C 132.941406 278.929688 128.851562 333.710938 127.261719 337.269531 C 125.671875 340.828125 115 356.570312 111.71875 379.488281 C 109.738281 393.359375 106.730469 407.0625 102.71875 420.488281 L 117 420.488281 C 117 420.488281 138.320312 353.019531 142.691406 349.488281 C 147.058594 345.960938 155.101562 322.359375 160.78125 301.300781 C 160.78125 301.300781 168.441406 338.660156 171.488281 345.789062 C 174.539062 352.921875 171.988281 373.511719 176.351562 386.671875 C 180.660156 399.671875 180.351562 420.53125 180.351562 420.53125 C 180.351562 420.53125 195.199219 424.210938 195.058594 420.53125 C 194.058594 395.070312 199.210938 373.03125 192.839844 350.371094 C 189.839844 339.789062 195.839844 277.960938 184.898438 244.980469 Z M 140.25 244.929688 "/>
</clipPath>
<mask id="mask3">
  <g filter="url(#alpha)">
<rect x="0" y="0" width="500" height="500" style="fill:rgb(0%,0%,0%);fill-opacity:0.301961;stroke:none;"/>
  </g>
</mask>
<clipPath id="clip8">
  <rect x="0" y="0" width="500" height="500"/>
</clipPath>
<g id="surface14" clip-path="url(#clip8)">
<path style=" stroke:none;fill-rule:nonzero;fill:rgb(0%,0%,0%);fill-opacity:0.701961;" d="M 160.46875 296.800781 C 160.46875 297.519531 160.578125 299.339844 160.710938 301.601562 C 155.03125 322.601562 147.050781 345.898438 142.710938 349.441406 C 138.371094 352.980469 117.019531 420.441406 117.019531 420.441406 L 102.761719 420.441406 C 106.769531 407.015625 109.777344 393.308594 111.761719 379.441406 C 115.011719 356.519531 125.761719 340.820312 127.300781 337.25 C 128.839844 333.679688 132.941406 279 132.941406 279 C 132.117188 274.855469 132.035156 270.59375 132.699219 266.421875 C 133.460938 271.851562 136.699219 278.589844 147.699219 280.328125 C 146.339844 276.09375 146.988281 271.46875 149.460938 267.769531 C 149.460938 267.769531 147.328125 279 156.351562 284.261719 C 156.75 284.488281 156.621094 286.078125 156.621094 286.078125 C 156.621094 286.078125 160.429688 294.191406 160.46875 296.800781 Z M 160.46875 296.800781 "/>
</g>
<mask id="mask4">
  <g filter="url(#alpha)">
<rect x="0" y="0" width="500" height="500" style="fill:rgb(0%,0%,0%);fill-opacity:0.301961;stroke:none;"/>
  </g>
</mask>
<clipPath id="clip9">
  <rect x="0" y="0" width="500" height="500"/>
</clipPath>
<g id="surface17" clip-path="url(#clip9)">
<path style=" stroke:none;fill-rule:nonzero;fill:rgb(0%,0%,0%);fill-opacity:0.701961;" d="M 186.320312 249.5 C 182.671875 251.710938 174.761719 254.289062 157.921875 253.609375 C 155.148438 255.886719 152.824219 258.660156 151.070312 261.789062 L 149.460938 260.511719 C 149.460938 260.511719 141.75 264.898438 133.371094 262.75 C 134.800781 256.507812 137.117188 250.503906 140.25 244.921875 L 185 244.921875 C 185.449219 246.390625 185.898438 247.921875 186.320312 249.5 Z M 186.320312 249.5 "/>
</g>
<mask id="mask5">
  <g filter="url(#alpha)">
<rect x="0" y="0" width="500" height="500" style="fill:rgb(0%,0%,0%);fill-opacity:0.2;stroke:none;"/>
  </g>
</mask>
<clipPath id="clip10">
  <rect x="0" y="0" width="500" height="500"/>
</clipPath>
<g id="surface20" clip-path="url(#clip10)">
<path style="fill:none;stroke-width:1;stroke-linecap:round;stroke-linejoin:round;stroke:rgb(100%,100%,100%);stroke-opacity:1;stroke-miterlimit:4;" d="M 140.25 107 C 140.25 107 145.449219 113.640625 139.199219 119.140625 "/>
<path style="fill:none;stroke-width:1;stroke-linecap:round;stroke-linejoin:round;stroke:rgb(100%,100%,100%);stroke-opacity:1;stroke-miterlimit:4;" d="M 167 106.21875 C 167 106.21875 175 114.949219 159 124.730469 "/>
<path style="fill:none;stroke-width:1;stroke-linecap:round;stroke-linejoin:round;stroke:rgb(100%,100%,100%);stroke-opacity:1;stroke-miterlimit:4;" d="M 164 104.691406 C 164 104.691406 167.121094 107.691406 160 113.578125 C 152.878906 119.46875 147.558594 121 142.308594 120.730469 "/>
<path style="fill:none;stroke-width:1;stroke-linecap:round;stroke-linejoin:round;stroke:rgb(100%,100%,100%);stroke-opacity:1;stroke-miterlimit:4;" d="M 137.859375 112.140625 C 137.859375 112.140625 133.25 104.640625 125.941406 109.78125 C 118.628906 114.921875 120.210938 122 124.160156 130.128906 C 128.109375 138.261719 125.429688 143.601562 125.429688 143.601562 "/>
<path style="fill:none;stroke-width:1;stroke-linecap:round;stroke-linejoin:round;stroke:rgb(100%,100%,100%);stroke-opacity:1;stroke-miterlimit:4;" d="M 124 103.449219 C 124 103.449219 115 103.710938 115.691406 115.449219 C 116.378906 127.191406 120.570312 127.121094 121.488281 132.78125 "/>
<path style="fill:none;stroke-width:1;stroke-linecap:round;stroke-linejoin:round;stroke:rgb(100%,100%,100%);stroke-opacity:1;stroke-miterlimit:4;" d="M 148.398438 130.128906 C 148.398438 130.128906 139.398438 132.128906 136.019531 124.730469 "/>
</g>
<clipPath id="clip11">
  <path d="M 96 410 L 134 410 L 134 439 L 96 439 Z M 96 410 "/>
</clipPath>
<clipPath id="clip12">
  <path d="M 100.570312 412.300781 C 100.570312 412.300781 107.570312 409.398438 114.699219 412.019531 L 114.019531 420.480469 L 122.710938 412.300781 C 122.710938 412.300781 117.238281 422.589844 118.851562 425.738281 C 120.460938 428.890625 130.050781 430.378906 131.621094 432.429688 C 133.191406 434.480469 133.699219 438.648438 133.699219 438.648438 L 96.410156 438.648438 L 100.269531 425.738281 Z M 100.570312 412.300781 "/>
</clipPath>
<mask id="mask6">
  <g filter="url(#alpha)">
<rect x="0" y="0" width="500" height="500" style="fill:rgb(0%,0%,0%);fill-opacity:0.301961;stroke:none;"/>
  </g>
</mask>
<clipPath id="clip13">
  <rect x="0" y="0" width="500" height="500"/>
</clipPath>
<g id="surface23" clip-path="url(#clip13)">
<path style=" stroke:none;fill-rule:nonzero;fill:rgb(0%,0%,0%);fill-opacity:0.701961;" d="M 100.570312 412.300781 C 100.570312 412.300781 107.570312 409.398438 114.699219 412.019531 L 114.019531 420.480469 L 122.710938 412.300781 C 122.710938 412.300781 117.238281 422.589844 118.851562 425.738281 C 120.460938 428.890625 130.050781 430.378906 131.621094 432.429688 C 133.191406 434.480469 133.699219 438.648438 133.699219 438.648438 L 96.410156 438.648438 L 100.269531 425.738281 Z M 100.570312 412.300781 "/>
</g>
<clipPath id="clip14">
  <path d="M 95 163 L 157 163 L 157 259 L 95 259 Z M 95 163 "/>
</clipPath>
<clipPath id="clip15">
  <path d="M 155 251.488281 C 151.078125 261.789062 113.101562 259.421875 105.710938 253.628906 C 104.078125 252.351562 102.570312 249.878906 101.25 246.761719 C 98.625 240.089844 96.859375 233.113281 96 226 C 95.769531 224.148438 95.609375 222.398438 95.539062 220.828125 C 95.371094 217.308594 95.621094 214.660156 96.371094 213.699219 C 99.371094 209.890625 102.71875 206.199219 102.71875 206.199219 C 102.71875 206.199219 96.878906 175 102.71875 172.019531 C 107.539062 169.144531 112.816406 167.113281 118.320312 166.019531 C 126.761719 164.53125 140.960938 160.328125 147.320312 169.019531 C 147.644531 169.476562 147.921875 169.964844 148.148438 170.480469 C 154.140625 183.191406 158.75 241.628906 155 251.488281 Z M 155 251.488281 "/>
</clipPath>
<mask id="mask7">
  <g filter="url(#alpha)">
<rect x="0" y="0" width="500" height="500" style="fill:rgb(0%,0%,0%);fill-opacity:0.301961;stroke:none;"/>
  </g>
</mask>
<clipPath id="clip16">
  <rect x="0" y="0" width="500" height="500"/>
</clipPath>
<g id="surface26" clip-path="url(#clip16)">
<path style=" stroke:none;fill-rule:nonzero;fill:rgb(0%,0%,0%);fill-opacity:0.701961;" d="M 155 251.488281 C 151.078125 261.789062 113.101562 259.421875 105.710938 253.628906 C 104.078125 252.351562 102.570312 249.878906 101.25 246.761719 C 99.171875 239.648438 97.25 231.441406 96.050781 226 C 95.300781 222.570312 94.820312 220.25 94.78125 220 C 94.972656 220.34375 95.25 220.628906 95.589844 220.828125 C 97.378906 222.109375 103.019531 224.5 120.589844 225.660156 C 120.589844 225.660156 107.808594 229.210938 97.789062 224.820312 C 97.789062 224.820312 101.21875 245.5 104.910156 249.578125 C 108.601562 253.660156 125.351562 257.101562 129.308594 254.859375 C 133.269531 252.621094 130.578125 231.601562 131.398438 229.449219 C 132.21875 227.300781 135.398438 225.511719 135.570312 224.820312 C 135.738281 224.128906 136.429688 214.039062 136.429688 214.039062 C 136.429688 214.039062 111.769531 208.980469 104.910156 209.171875 C 98.050781 209.359375 107.808594 204.480469 114.671875 205.269531 C 121.53125 206.058594 135.238281 208.980469 135.570312 209.171875 C 135.898438 209.359375 132.71875 179.011719 129.171875 174.46875 C 125.621094 169.929688 133.648438 170.128906 135.570312 177.351562 C 137.410156 184.351562 142.019531 209.75 142.351562 211.5 C 142.269531 210.109375 141.351562 195.199219 140.410156 189.640625 C 139.460938 183.808594 139.550781 176.128906 140.558594 175.339844 C 141.570312 174.550781 146.671875 172.53125 147.148438 171.429688 C 147.40625 171.039062 147.746094 170.714844 148.148438 170.480469 C 154.140625 183.191406 158.75 241.628906 155 251.488281 Z M 155 251.488281 "/>
</g>
<mask id="mask8">
  <g filter="url(#alpha)">
<rect x="0" y="0" width="500" height="500" style="fill:rgb(0%,0%,0%);fill-opacity:0.2;stroke:none;"/>
  </g>
</mask>
<clipPath id="clip17">
  <rect x="0" y="0" width="500" height="500"/>
</clipPath>
<g id="surface29" clip-path="url(#clip17)">
<path style="fill-rule:nonzero;fill:rgb(0%,0%,0%);fill-opacity:0.701961;stroke-width:1;stroke-linecap:butt;stroke-linejoin:miter;stroke:rgb(14.901961%,19.607843%,21.960784%);stroke-opacity:1;stroke-miterlimit:10;" d="M 365.628906 409.429688 C 365.628906 409.429688 363.53125 387.328125 367.800781 366.871094 C 372.070312 346.410156 363.800781 343.988281 360.378906 349.601562 C 356.960938 355.210938 355.851562 373.789062 355.851562 373.789062 C 355.851562 373.789062 354.128906 354.960938 351.171875 345.359375 C 346.828125 331.289062 342.171875 320.570312 335.980469 323.738281 C 328.789062 327.398438 345.5 352.738281 348.789062 382.398438 C 348.789062 382.398438 335.328125 368.539062 328.878906 355.621094 C 322.429688 342.699219 314.601562 350.550781 320.351562 362.121094 C 326.101562 373.691406 339.800781 377.921875 347.351562 390.191406 C 347.351562 390.191406 328.5 378.949219 324.691406 385.761719 C 322.539062 389.601562 330.210938 390.410156 333.628906 391.238281 C 350.25 395.238281 357.949219 412.511719 357.949219 412.511719 Z M 365.628906 409.429688 "/>
</g>
</defs>
<g id="surface1">
<use xlink:href="#surface5" mask="url(#mask0)"/>
<path style=" stroke:none;fill-rule:nonzero;fill:rgb(57.254902%,89.019608%,66.27451%);fill-opacity:1;" d="M 192 451.238281 C 219.199219 468.089844 269.269531 446.089844 288.148438 425.890625 C 349.410156 360.308594 457.871094 249.441406 434.320312 136.449219 C 424.320312 88.449219 375.980469 74.570312 356.601562 71.878906 C 310.070312 65.398438 262.699219 72.269531 216.789062 82.199219 C 168.789062 92.578125 118.421875 107.640625 81.789062 142.019531 C 68 155 55.679688 170.300781 49.28125 188.390625 C 42.78125 206.769531 41.570312 226.929688 44.878906 246.078125 C 50.238281 276.980469 66.351562 305.078125 85.949219 329.601562 C 105.550781 354.121094 128.699219 375.421875 150.679688 397.78125 C 165 412.371094 169.089844 437 192 451.238281 Z M 192 451.238281 "/>
<use xlink:href="#surface8" mask="url(#mask1)"/>
<path style="fill:none;stroke-width:1;stroke-linecap:round;stroke-linejoin:round;stroke:rgb(14.901961%,19.607843%,21.960784%);stroke-opacity:1;stroke-miterlimit:4;" d="M 72.328125 151.328125 L 54.679688 151.328125 C 54.679688 151.328125 56.441406 146.960938 70.171875 148.410156 C 70.171875 148.410156 77.011719 140.578125 86.980469 140.578125 C 87.375 136.769531 90.316406 133.714844 94.109375 133.179688 C 100.921875 131.871094 102.238281 137.941406 102.238281 137.941406 C 106 136.316406 110.261719 136.316406 114.019531 137.941406 C 120.769531 140.601562 119.398438 148.390625 119.398438 148.390625 C 119.398438 148.390625 138.878906 147.75 142.230469 151.328125 L 132.230469 151.328125 "/>
<path style="fill:none;stroke-width:1;stroke-linecap:round;stroke-linejoin:round;stroke:rgb(14.901961%,19.607843%,21.960784%);stroke-opacity:1;stroke-miterlimit:4;" d="M 75.398438 151.328125 L 78.351562 151.328125 "/>
<path style="fill:none;stroke-width:1;stroke-linecap:round;stroke-linejoin:round;stroke:rgb(14.901961%,19.607843%,21.960784%);stroke-opacity:1;stroke-miterlimit:4;" d="M 94.609375 151.28125 L 121.578125 151.28125 "/>
<path style="fill:none;stroke-width:1;stroke-linecap:round;stroke-linejoin:round;stroke:rgb(14.901961%,19.607843%,21.960784%);stroke-opacity:1;stroke-miterlimit:4;" d="M 222.769531 249.671875 L 197 249.671875 C 197 249.671875 198.511719 245.941406 210.21875 247.179688 C 210.21875 247.179688 216.058594 240.5 224.558594 240.5 C 224.902344 237.246094 227.410156 234.644531 230.648438 234.179688 C 236.460938 233.070312 237.589844 238.25 237.589844 238.25 C 240.796875 236.863281 244.433594 236.863281 247.640625 238.25 C 253.398438 240.519531 252.238281 247.171875 252.238281 247.171875 C 252.238281 247.171875 268.859375 246.621094 271.710938 249.671875 L 265.46875 249.671875 "/>
<path style="fill:none;stroke-width:1;stroke-linecap:round;stroke-linejoin:round;stroke:rgb(14.901961%,19.607843%,21.960784%);stroke-opacity:1;stroke-miterlimit:4;" d="M 228.859375 249.480469 L 232.550781 249.480469 "/>
<path style="fill:none;stroke-width:1;stroke-linecap:round;stroke-linejoin:round;stroke:rgb(14.901961%,19.607843%,21.960784%);stroke-opacity:1;stroke-miterlimit:4;" d="M 220.941406 75.769531 L 195.121094 75.769531 C 195.121094 75.769531 196.628906 72.039062 208.339844 73.289062 C 208.339844 73.289062 214.171875 66.601562 222.679688 66.601562 C 223.019531 63.347656 225.53125 60.746094 228.769531 60.289062 C 234.578125 59.171875 235.710938 64.351562 235.710938 64.351562 C 238.902344 62.976562 242.519531 62.976562 245.710938 64.351562 C 251.46875 66.621094 250.300781 73.269531 250.300781 73.269531 C 250.300781 73.269531 266.929688 72.71875 269.78125 75.769531 L 263.539062 75.769531 "/>
<path style="fill:none;stroke-width:1;stroke-linecap:round;stroke-linejoin:round;stroke:rgb(14.901961%,19.607843%,21.960784%);stroke-opacity:1;stroke-miterlimit:4;" d="M 227.019531 75.578125 L 230.71875 75.578125 "/>
<path style="fill:none;stroke-width:1;stroke-linecap:round;stroke-linejoin:round;stroke:rgb(14.901961%,19.607843%,21.960784%);stroke-opacity:1;stroke-miterlimit:4;" d="M 139.929688 296.800781 L 75.570312 296.800781 C 80.371094 291.671875 108.351562 292.578125 108.351562 292.578125 C 108.351562 292.578125 106.351562 281.398438 116.089844 277.578125 C 125.828125 273.761719 133.011719 277.578125 133.011719 277.578125 C 133.011719 277.578125 134.910156 268.859375 144.691406 270.738281 C 154.46875 272.621094 154.941406 281.371094 154.941406 281.371094 C 169.269531 281.371094 179.089844 292.628906 179.089844 292.628906 C 198.808594 290.53125 201.351562 296.808594 201.351562 296.808594 L 194.160156 296.808594 "/>
<path style="fill:none;stroke-width:1;stroke-linecap:round;stroke-linejoin:round;stroke:rgb(14.901961%,19.607843%,21.960784%);stroke-opacity:1;stroke-miterlimit:4;" d="M 188.769531 296.800781 L 186.039062 296.800781 "/>
<path style="fill:none;stroke-width:1;stroke-linecap:round;stroke-linejoin:round;stroke:rgb(14.901961%,19.607843%,21.960784%);stroke-opacity:1;stroke-miterlimit:4;" d="M 151.070312 296.800781 L 160.46875 296.800781 "/>
<path style="fill:none;stroke-width:1;stroke-linecap:round;stroke-linejoin:round;stroke:rgb(14.901961%,19.607843%,21.960784%);stroke-opacity:1;stroke-miterlimit:4;" d="M 360.480469 142.308594 L 283.480469 142.308594 C 283.480469 142.308594 286.671875 134.441406 311.390625 137.070312 C 311.390625 137.070312 323.710938 122.949219 341.660156 122.949219 C 341.660156 122.949219 342.261719 111.949219 354.519531 109.621094 C 366.78125 107.289062 369.160156 118.199219 369.160156 118.199219 C 369.160156 118.199219 378.21875 113.398438 390.378906 118.199219 C 402.539062 123 400.078125 137.03125 400.078125 137.03125 C 400.078125 137.03125 435.171875 135.878906 441.191406 142.308594 L 423.398438 142.308594 "/>
<path style="fill:none;stroke-width:1;stroke-linecap:round;stroke-linejoin:round;stroke:rgb(14.901961%,19.607843%,21.960784%);stroke-opacity:1;stroke-miterlimit:4;" d="M 367.839844 142.308594 L 375 142.308594 "/>
<path style="fill:none;stroke-width:1;stroke-linecap:round;stroke-linejoin:round;stroke:rgb(14.901961%,19.607843%,21.960784%);stroke-opacity:1;stroke-miterlimit:4;" d="M 382 316.421875 L 443.410156 316.421875 C 443.410156 316.421875 440.871094 310.148438 421.148438 312.238281 C 421.148438 312.238281 411.328125 300.980469 397.011719 300.980469 C 397.011719 300.980469 396.53125 292.230469 386.75 290.351562 C 376.96875 288.46875 375.070312 297.191406 375.070312 297.191406 C 375.070312 297.191406 367.851562 293.359375 358.148438 297.191406 C 348.449219 301.019531 350.421875 312.191406 350.421875 312.191406 C 350.421875 312.191406 322.421875 311.269531 317.628906 316.398438 L 336.210938 316.398438 "/>
<path style="fill:none;stroke-width:1;stroke-linecap:round;stroke-linejoin:round;stroke:rgb(14.901961%,19.607843%,21.960784%);stroke-opacity:1;stroke-miterlimit:4;" d="M 341.230469 316.421875 L 350.289062 316.421875 "/>
<path style="fill:none;stroke-width:1;stroke-linecap:round;stroke-linejoin:round;stroke:rgb(14.901961%,19.607843%,21.960784%);stroke-opacity:1;stroke-miterlimit:4;" d="M 255.851562 340.289062 L 255.851562 291.941406 L 263.820312 291.941406 L 263.820312 311.429688 L 271.660156 311.429688 L 271.660156 340.578125 "/>
<path style="fill:none;stroke-width:1;stroke-linecap:round;stroke-linejoin:round;stroke:rgb(14.901961%,19.607843%,21.960784%);stroke-opacity:1;stroke-miterlimit:4;" d="M 287.039062 310.96875 L 287.039062 265.671875 L 302.980469 265.671875 L 302.980469 246.03125 L 333.570312 246.03125 L 333.570312 253 L 341.230469 253 L 341.230469 299.121094 "/>
<path style="fill:none;stroke-width:1;stroke-linecap:round;stroke-linejoin:round;stroke:rgb(14.901961%,19.607843%,21.960784%);stroke-opacity:1;stroke-miterlimit:4;" d="M 375 281.589844 L 375 236.28125 L 385.261719 236.28125 L 385.261719 215.761719 L 389.300781 215.761719 L 389.300781 180.488281 L 392.648438 180.488281 L 392.648438 197.460938 L 400.878906 205.691406 L 400.878906 226.230469 L 410.289062 226.230469 L 410.289062 271.230469 L 418.851562 271.230469 L 418.851562 283.628906 "/>
<path style="fill:none;stroke-width:1;stroke-linecap:round;stroke-linejoin:round;stroke:rgb(14.901961%,19.607843%,21.960784%);stroke-opacity:1;stroke-miterlimit:4;" d="M 345.761719 274.988281 L 353.621094 274.988281 L 353.621094 225.75 L 359.941406 225.75 L 359.941406 154.949219 L 362.328125 154.949219 L 362.328125 202.46875 L 367.839844 202.46875 L 367.839844 252 L 371.761719 252 "/>
<path style="fill:none;stroke-width:1;stroke-linecap:round;stroke-linejoin:round;stroke:rgb(14.901961%,19.607843%,21.960784%);stroke-opacity:1;stroke-miterlimit:4;" d="M 283.480469 283.628906 L 276.851562 283.628906 L 276.851562 268.988281 L 273.320312 268.988281 L 273.320312 283.628906 L 268.378906 283.628906 L 268.378906 305.589844 "/>
<path style="fill:none;stroke-width:1;stroke-linecap:round;stroke-linejoin:round;stroke:rgb(14.901961%,19.607843%,21.960784%);stroke-opacity:1;stroke-miterlimit:4;" d="M 295.839844 260.660156 L 295.839844 226.230469 L 306.589844 226.230469 L 306.589844 197.460938 L 310.308594 197.460938 L 310.308594 226.230469 L 317.640625 226.230469 L 317.640625 241.300781 "/>
<path style="fill:none;stroke-width:1;stroke-linecap:round;stroke-linejoin:round;stroke:rgb(14.901961%,19.607843%,21.960784%);stroke-opacity:1;stroke-miterlimit:4;" d="M 306.738281 265.671875 L 323.851562 265.671875 L 323.851562 304.171875 "/>
<path style="fill:none;stroke-width:1;stroke-linecap:round;stroke-linejoin:round;stroke:rgb(14.901961%,19.607843%,21.960784%);stroke-opacity:1;stroke-miterlimit:4;" d="M 299.421875 338.148438 L 299.421875 315.28125 L 279.941406 315.28125 L 279.941406 363.640625 "/>
<path style="fill:none;stroke-width:1;stroke-linecap:round;stroke-linejoin:round;stroke:rgb(14.901961%,19.607843%,21.960784%);stroke-opacity:1;stroke-miterlimit:4;" d="M 263.820312 350.789062 L 263.820312 344.300781 L 243.898438 344.300781 L 243.898438 396.5 L 238.628906 396.5 "/>
<path style="fill:none;stroke-width:1;stroke-linecap:round;stroke-linejoin:round;stroke:rgb(14.901961%,19.607843%,21.960784%);stroke-opacity:1;stroke-miterlimit:4;" d="M 389.300781 251.488281 L 402.761719 251.488281 "/>
<path style="fill:none;stroke-width:1;stroke-linecap:round;stroke-linejoin:round;stroke:rgb(14.901961%,19.607843%,21.960784%);stroke-opacity:1;stroke-miterlimit:4;" d="M 389.300781 258.589844 L 402.761719 258.589844 "/>
<path style="fill:none;stroke-width:1;stroke-linecap:round;stroke-linejoin:round;stroke:rgb(14.901961%,19.607843%,21.960784%);stroke-opacity:1;stroke-miterlimit:4;" d="M 389.300781 266.488281 L 401.730469 266.488281 "/>
<path style="fill:none;stroke-width:1;stroke-linecap:round;stroke-linejoin:round;stroke:rgb(14.901961%,19.607843%,21.960784%);stroke-opacity:1;stroke-miterlimit:4;" d="M 328.550781 249.671875 L 310.308594 249.671875 "/>
<path style="fill:none;stroke-width:1;stroke-linecap:round;stroke-linejoin:round;stroke:rgb(14.901961%,19.607843%,21.960784%);stroke-opacity:1;stroke-miterlimit:4;" d="M 293.230469 274 L 314.128906 274 "/>
<path style="fill:none;stroke-width:1;stroke-linecap:round;stroke-linejoin:round;stroke:rgb(14.901961%,19.607843%,21.960784%);stroke-opacity:1;stroke-miterlimit:4;" d="M 293.230469 278.5 L 314.128906 278.5 "/>
<path style="fill:none;stroke-width:1;stroke-linecap:round;stroke-linejoin:round;stroke:rgb(14.901961%,19.607843%,21.960784%);stroke-opacity:1;stroke-miterlimit:4;" d="M 293.230469 283.628906 L 314.128906 283.628906 "/>
<path style="fill:none;stroke-width:1;stroke-linecap:round;stroke-linejoin:round;stroke:rgb(14.901961%,19.607843%,21.960784%);stroke-opacity:1;stroke-miterlimit:4;" d="M 358.761719 235.191406 L 358.761719 281.589844 "/>
<path style="fill:none;stroke-width:1;stroke-linecap:round;stroke-linejoin:round;stroke:rgb(14.901961%,19.607843%,21.960784%);stroke-opacity:1;stroke-miterlimit:4;" d="M 362.328125 235.191406 L 362.328125 281.589844 "/>
<path style=" stroke:none;fill-rule:nonzero;fill:rgb(57.254902%,89.019608%,66.27451%);fill-opacity:1;" d="M 122.378906 165.730469 C 122.378906 165.730469 132.941406 156.03125 140.25 157.191406 C 141.46875 157.378906 135.199219 169.320312 135.199219 169.320312 Z M 122.378906 165.730469 "/>
<g clip-path="url(#clip3)" clip-rule="nonzero">
<g clip-path="url(#clip4)" clip-rule="nonzero">
<use xlink:href="#surface11" mask="url(#mask2)"/>
</g>
</g>
<path style="fill:none;stroke-width:1;stroke-linecap:round;stroke-linejoin:round;stroke:rgb(14.901961%,19.607843%,21.960784%);stroke-opacity:1;stroke-miterlimit:4;" d="M 122.378906 165.730469 C 122.378906 165.730469 132.941406 156.03125 140.25 157.191406 C 141.46875 157.378906 135.199219 169.320312 135.199219 169.320312 Z M 122.378906 165.730469 "/>
<path style="fill-rule:nonzero;fill:rgb(45.882353%,45.882353%,45.882353%);fill-opacity:1;stroke-width:1;stroke-linecap:round;stroke-linejoin:round;stroke:rgb(14.901961%,19.607843%,21.960784%);stroke-opacity:1;stroke-miterlimit:4;" d="M 219.109375 207.851562 C 219.109375 207.851562 219.511719 239.628906 220.691406 244.929688 C 221.769531 248.863281 223.363281 252.636719 225.441406 256.148438 C 225.441406 256.148438 222 325.78125 223.121094 329 C 224.238281 332.21875 229 354.261719 229 354.261719 L 234.539062 438.648438 L 232.539062 438.648438 C 232.539062 438.648438 225 359 225 356.640625 C 225 354.28125 219.070312 333.519531 219.070312 333.519531 C 219.070312 333.519531 218.28125 264.460938 219.070312 260.519531 C 219.859375 256.578125 214.429688 246.171875 214.429688 246.171875 C 214.429688 246.171875 214.5 214.230469 212.828125 211.058594 C 212.871094 211.050781 216.339844 208.210938 219.109375 207.851562 Z M 219.109375 207.851562 "/>
<path style=" stroke:none;fill-rule:nonzero;fill:rgb(74.901961%,74.901961%,74.901961%);fill-opacity:1;" d="M 140.25 244.929688 C 140.25 244.929688 129.511719 262.980469 132.941406 278.929688 C 132.941406 278.929688 128.851562 333.710938 127.261719 337.269531 C 125.671875 340.828125 115 356.570312 111.71875 379.488281 C 109.738281 393.359375 106.730469 407.0625 102.71875 420.488281 L 117 420.488281 C 117 420.488281 138.320312 353.019531 142.691406 349.488281 C 147.058594 345.960938 155.101562 322.359375 160.78125 301.300781 C 160.78125 301.300781 168.441406 338.660156 171.488281 345.789062 C 174.539062 352.921875 171.988281 373.511719 176.351562 386.671875 C 180.660156 399.671875 180.351562 420.53125 180.351562 420.53125 C 180.351562 420.53125 195.199219 424.210938 195.058594 420.53125 C 194.058594 395.070312 199.210938 373.03125 192.839844 350.371094 C 189.839844 339.789062 195.839844 277.960938 184.898438 244.980469 Z M 140.25 244.929688 "/>
<g clip-path="url(#clip6)" clip-rule="nonzero">
<g clip-path="url(#clip7)" clip-rule="nonzero">
<use xlink:href="#surface14" mask="url(#mask3)"/>
<use xlink:href="#surface17" mask="url(#mask4)"/>
</g>
</g>
<path style="fill:none;stroke-width:1;stroke-linecap:round;stroke-linejoin:round;stroke:rgb(14.901961%,19.607843%,21.960784%);stroke-opacity:1;stroke-miterlimit:4;" d="M 140.25 244.929688 C 140.25 244.929688 129.511719 262.980469 132.941406 278.929688 C 132.941406 278.929688 128.851562 333.710938 127.261719 337.269531 C 125.671875 340.828125 115 356.570312 111.71875 379.488281 C 109.738281 393.359375 106.730469 407.0625 102.71875 420.488281 L 117 420.488281 C 117 420.488281 138.320312 353.019531 142.691406 349.488281 C 147.058594 345.960938 155.101562 322.359375 160.78125 301.300781 C 160.78125 301.300781 168.441406 338.660156 171.488281 345.789062 C 174.539062 352.921875 171.988281 373.511719 176.351562 386.671875 C 180.660156 399.671875 180.351562 420.53125 180.351562 420.53125 C 180.351562 420.53125 195.199219 424.210938 195.058594 420.53125 C 194.058594 395.070312 199.210938 373.03125 192.839844 350.371094 C 189.839844 339.789062 195.839844 277.960938 184.898438 244.980469 Z M 140.25 244.929688 "/>
<path style="fill:none;stroke-width:1;stroke-linecap:round;stroke-linejoin:round;stroke:rgb(14.901961%,19.607843%,21.960784%);stroke-opacity:1;stroke-miterlimit:4;" d="M 152.25 259.050781 C 152.25 259.050781 144.851562 273.179688 152.898438 281.578125 C 152.898438 281.578125 163.070312 291.128906 174.039062 288.839844 "/>
<path style="fill:none;stroke-width:1;stroke-linecap:round;stroke-linejoin:round;stroke:rgb(14.901961%,19.607843%,21.960784%);stroke-opacity:1;stroke-miterlimit:4;" d="M 160.800781 301.25 C 160.800781 301.25 159.800781 293.550781 157.890625 290.25 C 155.980469 286.949219 156.621094 286.050781 156.621094 286.050781 C 156.621094 286.050781 147.960938 288.71875 142.359375 286.679688 "/>
<path style="fill:none;stroke-width:1;stroke-linecap:round;stroke-linejoin:round;stroke:rgb(14.901961%,19.607843%,21.960784%);stroke-opacity:1;stroke-miterlimit:4;" d="M 132.941406 279 C 136.90625 282.738281 142.269531 284.617188 147.699219 284.171875 "/>
<path style="fill-rule:nonzero;fill:rgb(100%,100%,100%);fill-opacity:1;stroke-width:1;stroke-linecap:round;stroke-linejoin:round;stroke:rgb(14.901961%,19.607843%,21.960784%);stroke-opacity:1;stroke-miterlimit:4;" d="M 152.25 161.191406 C 153.050781 160.859375 192.960938 157.878906 194.949219 153.769531 C 192.992188 150.050781 191.519531 146.09375 190.570312 142 C 188.078125 132.550781 184.070312 123.566406 178.699219 115.398438 L 188.699219 113.570312 C 194.699219 130.429688 208.859375 145.390625 208.609375 161.03125 C 208.609375 161.03125 187.011719 175.71875 165.019531 178.109375 C 158.691406 178.78125 152.25 161.191406 152.25 161.191406 Z M 152.25 161.191406 "/>
<path style="fill-rule:nonzero;fill:rgb(100%,100%,100%);fill-opacity:1;stroke-width:1;stroke-linecap:round;stroke-linejoin:round;stroke:rgb(14.901961%,19.607843%,21.960784%);stroke-opacity:1;stroke-miterlimit:4;" d="M 165.550781 150.078125 C 164.195312 149.890625 162.820312 150.15625 161.628906 150.828125 C 157.570312 153.289062 158.308594 160.628906 158.308594 160.628906 L 140.25 157.191406 C 144.191406 151.460938 143.179688 138.308594 143.179688 138.308594 C 160.101562 122.449219 164.179688 136.980469 165.179688 145.308594 C 165.488281 147.660156 165.539062 149.511719 165.550781 150.078125 Z M 165.550781 150.078125 "/>
<path style=" stroke:none;fill-rule:nonzero;fill:rgb(14.901961%,19.607843%,21.960784%);fill-opacity:1;" d="M 165.550781 150.078125 C 164.195312 149.890625 162.820312 150.15625 161.628906 150.828125 C 160.183594 148.410156 159.273438 145.710938 158.960938 142.910156 L 165.210938 145.320312 C 165.488281 147.660156 165.539062 149.511719 165.550781 150.078125 Z M 165.550781 150.078125 "/>
<path style=" stroke:none;fill-rule:nonzero;fill:rgb(14.901961%,19.607843%,21.960784%);fill-opacity:1;" d="M 133.769531 111.238281 C 133.769531 111.238281 132.230469 102.238281 147.351562 100.859375 C 162.46875 99.480469 176.351562 103.648438 176.351562 114.671875 C 176.351562 125.691406 167.230469 148.449219 149.078125 138.308594 C 130.929688 128.171875 133.769531 111.238281 133.769531 111.238281 Z M 133.769531 111.238281 "/>
<path style="fill-rule:nonzero;fill:rgb(100%,100%,100%);fill-opacity:1;stroke-width:1;stroke-linecap:round;stroke-linejoin:round;stroke:rgb(14.901961%,19.607843%,21.960784%);stroke-opacity:1;stroke-miterlimit:4;" d="M 142.550781 139.558594 C 140.988281 137.558594 136.871094 130.378906 136.210938 127.640625 C 132.128906 110.789062 141.351562 109.570312 148.210938 106.160156 C 161.261719 99.691406 173.128906 112.808594 172.109375 124.488281 C 171.089844 136.171875 176.601562 134.789062 176.351562 136.398438 C 176.140625 137.761719 172.640625 139.140625 172.640625 139.140625 C 172.582031 140.140625 172.613281 141.144531 172.730469 142.140625 L 171.871094 142.929688 C 171.421875 145.148438 170.398438 150.75 169.671875 150.929688 C 168.210938 151.371094 160.019531 148.511719 158.671875 145.480469 "/>
<path style=" stroke:none;fill-rule:nonzero;fill:rgb(14.901961%,19.607843%,21.960784%);fill-opacity:1;" d="M 170.851562 129.421875 C 170.730469 130.269531 170.25 130.898438 169.78125 130.839844 C 169.308594 130.78125 169.011719 130.03125 169.121094 129.179688 C 169.230469 128.328125 169.71875 127.699219 170.199219 127.769531 C 170.679688 127.839844 171 128.570312 170.851562 129.421875 Z M 170.851562 129.421875 "/>
<path style="fill:none;stroke-width:1;stroke-linecap:round;stroke-linejoin:round;stroke:rgb(14.901961%,19.607843%,21.960784%);stroke-opacity:1;stroke-miterlimit:4;" d="M 171.488281 122.78125 C 171.488281 122.78125 169.308594 122.410156 167.121094 124.78125 "/>
<path style=" stroke:none;fill-rule:nonzero;fill:rgb(14.901961%,19.607843%,21.960784%);fill-opacity:1;" d="M 167 106.21875 C 161 101.628906 127.519531 96.910156 133.078125 123.371094 C 132.339844 126.648438 134.589844 132.179688 142.078125 141.148438 C 142.078125 141.148438 145.710938 138.308594 149.601562 140.75 C 149.601562 140.75 151.949219 133.46875 156 131.820312 C 156.875 131.4375 157.652344 130.859375 158.269531 130.128906 C 168.988281 127.449219 170.351562 117.28125 170.210938 113.71875 C 170.851562 112.75 172 110 167 106.21875 Z M 167 106.21875 "/>
<path style=" stroke:none;fill-rule:nonzero;fill:rgb(14.901961%,19.607843%,21.960784%);fill-opacity:1;" d="M 140.25 107 C 140.25 107 131.53125 97.199219 120.839844 102.671875 C 110.148438 108.140625 113.011719 123.421875 118.929688 131.671875 C 124.851562 139.921875 117.589844 146.570312 119.878906 151.058594 C 122.171875 155.550781 127 153.699219 127 153.699219 C 125.386719 152.722656 124.328125 151.046875 124.140625 149.171875 C 123.75 145.929688 130.25 144.398438 130.25 135.230469 C 130.25 126.058594 128.148438 117.851562 135.789062 121.671875 C 143.429688 125.488281 140.25 107 140.25 107 Z M 140.25 107 "/>
<path style="fill:none;stroke-width:1;stroke-linecap:round;stroke-linejoin:round;stroke:rgb(14.901961%,19.607843%,21.960784%);stroke-opacity:1;stroke-miterlimit:4;" d="M 171.878906 142.898438 C 171.878906 142.898438 168.539062 143.070312 167.121094 141.75 "/>
<use xlink:href="#surface20" mask="url(#mask5)"/>
<path style="fill-rule:nonzero;fill:rgb(100%,100%,100%);fill-opacity:1;stroke-width:1;stroke-linecap:round;stroke-linejoin:round;stroke:rgb(14.901961%,19.607843%,21.960784%);stroke-opacity:1;stroke-miterlimit:4;" d="M 157.078125 131.25 C 157.078125 131.25 155.601562 125.851562 151.679688 127.671875 C 147.761719 129.488281 151.191406 134.671875 153.128906 137.128906 C 153.65625 137.945312 154.613281 138.375 155.570312 138.230469 C 156.53125 138.082031 157.3125 137.386719 157.570312 136.449219 "/>
<path style=" stroke:none;fill-rule:nonzero;fill:rgb(14.901961%,19.607843%,21.960784%);fill-opacity:1;" d="M 139 154.390625 L 138.578125 157.441406 C 123.148438 171.871094 133.339844 205.78125 143.03125 227.441406 L 136.839844 247 C 136.839844 247 163.238281 255.789062 187.300781 248.910156 L 185 225.941406 L 182.328125 208 C 182.328125 208 184.53125 201.890625 184.960938 190 C 185.390625 178.109375 163 147.710938 139 154.390625 Z M 139 154.390625 "/>
<path style="fill-rule:nonzero;fill:rgb(100%,100%,100%);fill-opacity:1;stroke-width:1;stroke-linecap:round;stroke-linejoin:round;stroke:rgb(14.901961%,19.607843%,21.960784%);stroke-opacity:1;stroke-miterlimit:4;" d="M 183 118.46875 C 183 118.46875 179 120.609375 177.289062 120.03125 C 177.289062 120.03125 168.679688 120.519531 168.441406 116.878906 C 171.421875 116.363281 174.074219 114.679688 175.808594 112.199219 C 177.25 110.199219 189.671875 110.199219 188.941406 114.351562 C 188.695312 115.707031 187.828125 116.867188 186.601562 117.488281 "/>
<path style="fill-rule:nonzero;fill:rgb(100%,100%,100%);fill-opacity:1;stroke-width:1;stroke-linecap:round;stroke-linejoin:round;stroke:rgb(14.901961%,19.607843%,21.960784%);stroke-opacity:1;stroke-miterlimit:4;" d="M 175.800781 112.199219 C 177.570312 111.921875 176.699219 112.820312 177.960938 112.730469 C 179.21875 112.640625 179.328125 111.828125 180.25 113.03125 C 181.171875 114.230469 182.191406 113.03125 183.140625 113.429688 "/>
<path style="fill-rule:nonzero;fill:rgb(100%,100%,100%);fill-opacity:1;stroke-width:1;stroke-linecap:round;stroke-linejoin:round;stroke:rgb(14.901961%,19.607843%,21.960784%);stroke-opacity:1;stroke-miterlimit:4;" d="M 177.28125 120 C 177.398438 119 180.910156 117.109375 181.828125 115.871094 "/>
<path style="fill-rule:nonzero;fill:rgb(100%,100%,100%);fill-opacity:1;stroke-width:1;stroke-linecap:round;stroke-linejoin:round;stroke:rgb(14.901961%,19.607843%,21.960784%);stroke-opacity:1;stroke-miterlimit:4;" d="M 174.300781 120 C 173.210938 118.679688 175.730469 118.078125 178.140625 115.71875 "/>
<path style="fill-rule:nonzero;fill:rgb(100%,100%,100%);fill-opacity:1;stroke-width:1;stroke-linecap:round;stroke-linejoin:round;stroke:rgb(14.901961%,19.607843%,21.960784%);stroke-opacity:1;stroke-miterlimit:4;" d="M 171.390625 119.488281 C 170.03125 118.140625 170.601562 117.660156 172.730469 116.671875 C 173.902344 116.175781 174.933594 115.394531 175.730469 114.398438 "/>
<path style="fill-rule:nonzero;fill:rgb(57.254902%,89.019608%,66.27451%);fill-opacity:1;stroke-width:1;stroke-linecap:round;stroke-linejoin:round;stroke:rgb(14.901961%,19.607843%,21.960784%);stroke-opacity:1;stroke-miterlimit:4;" d="M 174.910156 412.300781 C 174.910156 412.300781 183.839844 409.398438 190.96875 412.019531 L 193.191406 420.480469 L 198 412.300781 C 198 412.300781 196.390625 422.589844 198 425.738281 C 199.609375 428.890625 209.199219 430.378906 210.769531 432.429688 C 212.339844 434.480469 212.851562 438.648438 212.851562 438.648438 L 175.578125 438.648438 L 178.480469 425.738281 Z M 174.910156 412.300781 "/>
<path style=" stroke:none;fill-rule:nonzero;fill:rgb(57.254902%,89.019608%,66.27451%);fill-opacity:1;" d="M 100.570312 412.300781 C 100.570312 412.300781 107.570312 409.398438 114.699219 412.019531 L 114.019531 420.480469 L 122.710938 412.300781 C 122.710938 412.300781 117.238281 422.589844 118.851562 425.738281 C 120.460938 428.890625 130.050781 430.378906 131.621094 432.429688 C 133.191406 434.480469 133.699219 438.648438 133.699219 438.648438 L 96.410156 438.648438 L 100.269531 425.738281 Z M 100.570312 412.300781 "/>
<g clip-path="url(#clip11)" clip-rule="nonzero">
<g clip-path="url(#clip12)" clip-rule="nonzero">
<use xlink:href="#surface23" mask="url(#mask6)"/>
</g>
</g>
<path style="fill:none;stroke-width:1;stroke-linecap:round;stroke-linejoin:round;stroke:rgb(14.901961%,19.607843%,21.960784%);stroke-opacity:1;stroke-miterlimit:4;" d="M 100.570312 412.300781 C 100.570312 412.300781 107.570312 409.398438 114.699219 412.019531 L 114.019531 420.480469 L 122.710938 412.300781 C 122.710938 412.300781 117.238281 422.589844 118.851562 425.738281 C 120.460938 428.890625 130.050781 430.378906 131.621094 432.429688 C 133.191406 434.480469 133.699219 438.648438 133.699219 438.648438 L 96.410156 438.648438 L 100.269531 425.738281 Z M 100.570312 412.300781 "/>
<path style="fill-rule:nonzero;fill:rgb(74.901961%,74.901961%,74.901961%);fill-opacity:1;stroke-width:1;stroke-linecap:round;stroke-linejoin:round;stroke:rgb(14.901961%,19.607843%,21.960784%);stroke-opacity:1;stroke-miterlimit:4;" d="M 175.589844 220.390625 C 175.589844 220.390625 180.980469 213.179688 181.941406 209.148438 L 183.050781 212.648438 C 183.050781 212.648438 180.199219 220.648438 175.589844 224.800781 Z M 175.589844 220.390625 "/>
<path style="fill-rule:nonzero;fill:rgb(57.254902%,89.019608%,66.27451%);fill-opacity:1;stroke-width:1;stroke-linecap:round;stroke-linejoin:round;stroke:rgb(14.901961%,19.607843%,21.960784%);stroke-opacity:1;stroke-miterlimit:4;" d="M 154.210938 223.839844 C 154.210938 223.839844 161.75 226.679688 167.089844 224.898438 C 170.605469 223.585938 173.78125 221.488281 176.371094 218.769531 L 178.109375 221.929688 C 178.109375 221.929688 166.058594 242.929688 154.210938 239.75 "/>
<path style=" stroke:none;fill-rule:nonzero;fill:rgb(57.254902%,89.019608%,66.27451%);fill-opacity:1;" d="M 155 251.488281 C 151.078125 261.789062 113.101562 259.421875 105.710938 253.628906 C 104.078125 252.351562 102.570312 249.878906 101.25 246.761719 C 98.625 240.089844 96.859375 233.113281 96 226 C 95.769531 224.148438 95.609375 222.398438 95.539062 220.828125 C 95.371094 217.308594 95.621094 214.660156 96.371094 213.699219 C 99.371094 209.890625 102.71875 206.199219 102.71875 206.199219 C 102.71875 206.199219 96.878906 175 102.71875 172.019531 C 107.539062 169.144531 112.816406 167.113281 118.320312 166.019531 C 126.761719 164.53125 140.960938 160.328125 147.320312 169.019531 C 147.644531 169.476562 147.921875 169.964844 148.148438 170.480469 C 154.140625 183.191406 158.75 241.628906 155 251.488281 Z M 155 251.488281 "/>
<g clip-path="url(#clip14)" clip-rule="nonzero">
<g clip-path="url(#clip15)" clip-rule="nonzero">
<use xlink:href="#surface26" mask="url(#mask7)"/>
</g>
</g>
<path style="fill:none;stroke-width:1;stroke-linecap:round;stroke-linejoin:round;stroke:rgb(14.901961%,19.607843%,21.960784%);stroke-opacity:1;stroke-miterlimit:4;" d="M 155 251.488281 C 151.078125 261.789062 113.101562 259.421875 105.710938 253.628906 C 104.078125 252.351562 102.570312 249.878906 101.25 246.761719 C 98.625 240.089844 96.859375 233.113281 96 226 C 95.769531 224.148438 95.609375 222.398438 95.539062 220.828125 C 95.371094 217.308594 95.621094 214.660156 96.371094 213.699219 C 99.371094 209.890625 102.71875 206.199219 102.71875 206.199219 C 102.71875 206.199219 96.878906 175 102.71875 172.019531 C 107.539062 169.144531 112.816406 167.113281 118.320312 166.019531 C 126.761719 164.53125 140.960938 160.328125 147.320312 169.019531 C 147.644531 169.476562 147.921875 169.964844 148.148438 170.480469 C 154.140625 183.191406 158.75 241.628906 155 251.488281 Z M 155 251.488281 "/>
<path style="fill-rule:nonzero;fill:rgb(57.254902%,89.019608%,66.27451%);fill-opacity:1;stroke-width:1;stroke-linecap:round;stroke-linejoin:round;stroke:rgb(14.901961%,19.607843%,21.960784%);stroke-opacity:1;stroke-miterlimit:4;" d="M 135.199219 165.558594 C 132.542969 163.371094 129.34375 161.9375 125.941406 161.410156 C 120.410156 160.621094 115.660156 168.128906 115.660156 168.128906 L 118.230469 168.128906 C 118.230469 168.128906 121.789062 161.210938 128.910156 167.339844 "/>
<path style="fill:none;stroke-width:1;stroke-linecap:round;stroke-linejoin:round;stroke:rgb(14.901961%,19.607843%,21.960784%);stroke-opacity:1;stroke-miterlimit:4;" d="M 108.929688 170.898438 C 108.929688 170.898438 123.570312 169.710938 128.320312 173.46875 C 133.070312 177.230469 135.570312 207.851562 135.570312 207.851562 C 135.570312 207.851562 113.648438 201.761719 107.351562 204.921875 "/>
<path style="fill:none;stroke-width:1;stroke-linecap:round;stroke-linejoin:round;stroke:rgb(14.901961%,19.607843%,21.960784%);stroke-opacity:1;stroke-miterlimit:4;" d="M 104.378906 198 C 104.378906 198 100.378906 184 102.761719 180.398438 C 105.140625 176.800781 120.210938 177.398438 122.980469 180.398438 C 125.75 183.398438 125.980469 200.179688 125.980469 200.179688 C 125.980469 200.179688 113.121094 197.300781 107.390625 198.179688 "/>
<path style="fill:none;stroke-width:1;stroke-linecap:round;stroke-linejoin:round;stroke:rgb(14.901961%,19.607843%,21.960784%);stroke-opacity:1;stroke-miterlimit:4;" d="M 97.261719 221.929688 C 98.050781 222.929688 125.820312 227.871094 130.628906 224.699219 "/>
<path style="fill:none;stroke-width:1;stroke-linecap:round;stroke-linejoin:round;stroke:rgb(14.901961%,19.607843%,21.960784%);stroke-opacity:1;stroke-miterlimit:4;" d="M 98.449219 216.601562 C 100.449219 215.019531 120.449219 218.96875 124.558594 219.160156 C 128.671875 219.351562 136 214.808594 136.429688 214 C 136.429688 214 141.898438 243.871094 140.25 249.609375 C 138.601562 255.351562 134.050781 256.328125 134.050781 256.328125 "/>
<path style="fill:none;stroke-width:1;stroke-linecap:round;stroke-linejoin:round;stroke:rgb(14.901961%,19.607843%,21.960784%);stroke-opacity:1;stroke-miterlimit:4;" d="M 103.589844 247.648438 C 103.589844 247.648438 104.78125 254.371094 129.308594 256.351562 "/>
<path style="fill:none;stroke-width:1;stroke-linecap:round;stroke-linejoin:round;stroke:rgb(14.901961%,19.607843%,21.960784%);stroke-opacity:1;stroke-miterlimit:4;" d="M 143.351562 222.730469 C 144.351562 222.328125 151.441406 221.578125 154.03125 219.960938 C 154.246094 223.304688 154.238281 226.65625 154 230 C 154 230 146.289062 233 144.898438 232.378906 C 143.511719 231.761719 142.980469 227.429688 142.980469 227.429688 "/>
<path style="fill:none;stroke-width:1;stroke-linecap:round;stroke-linejoin:round;stroke:rgb(14.901961%,19.607843%,21.960784%);stroke-opacity:1;stroke-miterlimit:4;" d="M 152.898438 230.460938 C 152.898438 230.460938 153.550781 243.191406 152.898438 244.929688 C 152.25 246.671875 145.328125 249.230469 144.539062 249.03125 C 143.75 248.828125 142.359375 236.570312 142.359375 236.570312 "/>
<path style="fill:none;stroke-width:1;stroke-linecap:round;stroke-linejoin:round;stroke:rgb(14.901961%,19.607843%,21.960784%);stroke-opacity:1;stroke-miterlimit:4;" d="M 127.261719 169.320312 C 127.261719 169.320312 134.449219 169.320312 137.019531 174.070312 C 139.589844 178.820312 142.480469 206.230469 143.019531 207.851562 "/>
<path style="fill-rule:nonzero;fill:rgb(57.254902%,89.019608%,66.27451%);fill-opacity:1;stroke-width:1;stroke-linecap:round;stroke-linejoin:round;stroke:rgb(14.901961%,19.607843%,21.960784%);stroke-opacity:1;stroke-miterlimit:4;" d="M 140.25 166 C 140.25 166 156.25 157.21875 164.621094 159.929688 C 172.988281 162.640625 176.371094 171.101562 176.371094 171.101562 C 176.371094 171.101562 173.511719 163.199219 165.550781 163.710938 C 157.589844 164.21875 146.121094 172.128906 146.121094 172.128906 "/>
<path style=" stroke:none;fill-rule:nonzero;fill:rgb(14.901961%,19.607843%,21.960784%);fill-opacity:1;" d="M 165.550781 163.671875 C 165.550781 163.671875 174.550781 162.921875 177.308594 167.140625 C 180.070312 171.359375 177.308594 182.328125 177.308594 182.328125 C 177.308594 182.328125 179.679688 185.128906 175.589844 187.148438 C 171.5 189.171875 160.511719 190.269531 157.898438 186.289062 C 155.289062 182.308594 156.691406 165.328125 165.550781 163.671875 Z M 165.550781 163.671875 "/>
<path style="fill-rule:nonzero;fill:rgb(100%,100%,100%);fill-opacity:1;stroke-width:1;stroke-linecap:round;stroke-linejoin:round;stroke:rgb(14.901961%,19.607843%,21.960784%);stroke-opacity:1;stroke-miterlimit:4;" d="M 176.671875 183.121094 C 176.671875 183.121094 167.148438 217.53125 170.269531 220.890625 C 174.289062 221.113281 178.269531 221.785156 182.140625 222.890625 C 200.011719 227.441406 210.140625 224.140625 210.140625 224.140625 L 208.238281 234.089844 C 190.339844 233.621094 173.03125 236.871094 158.550781 230.96875 C 158.550781 230.96875 152.660156 205.53125 158.390625 184.160156 C 158.390625 184.160156 160.050781 182.019531 164.96875 181.378906 C 168.957031 180.761719 173.035156 181.371094 176.671875 183.121094 Z M 176.671875 183.121094 "/>
<path style="fill-rule:nonzero;fill:rgb(100%,100%,100%);fill-opacity:1;stroke-width:1;stroke-linecap:round;stroke-linejoin:round;stroke:rgb(14.901961%,19.607843%,21.960784%);stroke-opacity:1;stroke-miterlimit:4;" d="M 207.371094 234.121094 C 210.769531 236.351562 215.691406 232.851562 220.238281 233.28125 C 224.789062 233.710938 222.589844 220.679688 222.589844 220.679688 C 222.589844 220.679688 216.898438 217.960938 215.230469 217.351562 C 213.558594 216.738281 211.070312 220.511719 205.808594 225.351562 "/>
<path style="fill:none;stroke-width:1;stroke-linecap:round;stroke-linejoin:round;stroke:rgb(100%,100%,100%);stroke-opacity:1;stroke-miterlimit:4;" d="M 140.878906 157.308594 C 145.90625 156.867188 150.976562 157.25 155.878906 158.441406 "/>
<path style="fill:none;stroke-width:1;stroke-linecap:round;stroke-linejoin:round;stroke:rgb(100%,100%,100%);stroke-opacity:1;stroke-miterlimit:4;" d="M 157.570312 185.660156 C 157.570312 185.660156 156.03125 183.410156 157.570312 182.328125 C 157.570312 182.328125 153.089844 178.878906 153.730469 175.328125 "/>
<path style="fill:none;stroke-width:1;stroke-linecap:round;stroke-linejoin:round;stroke:rgb(100%,100%,100%);stroke-opacity:1;stroke-miterlimit:4;" d="M 178.539062 177.941406 L 178.109375 182.328125 C 178.109375 182.328125 180.320312 183.738281 176.371094 185.660156 "/>
<path style="fill:none;stroke-width:1;stroke-linecap:round;stroke-linejoin:round;stroke:rgb(100%,100%,100%);stroke-opacity:1;stroke-miterlimit:4;" d="M 180.410156 209.148438 C 180.410156 209.148438 175.671875 212.738281 172.960938 212.148438 "/>
<path style="fill:none;stroke-width:1;stroke-linecap:round;stroke-linejoin:round;stroke:rgb(100%,100%,100%);stroke-opacity:1;stroke-miterlimit:4;" d="M 160.820312 243.761719 C 160.820312 243.761719 172.160156 250.351562 184.160156 247.648438 "/>
<path style="fill:none;stroke-width:1;stroke-linecap:round;stroke-linejoin:round;stroke:rgb(14.901961%,19.607843%,21.960784%);stroke-opacity:1;stroke-miterlimit:4;" d="M 216.601562 221.929688 C 218.738281 222.214844 220.851562 222.664062 222.921875 223.269531 "/>
<path style="fill:none;stroke-width:1;stroke-linecap:round;stroke-linejoin:round;stroke:rgb(14.901961%,19.607843%,21.960784%);stroke-opacity:1;stroke-miterlimit:4;" d="M 216.601562 226.078125 C 216.601562 226.078125 221.730469 226.078125 223.121094 226.230469 "/>
<path style="fill:none;stroke-width:1;stroke-linecap:round;stroke-linejoin:round;stroke:rgb(14.901961%,19.607843%,21.960784%);stroke-opacity:1;stroke-miterlimit:4;" d="M 216.601562 229.429688 C 216.601562 229.429688 223.050781 229.238281 222.921875 229.890625 "/>
<path style="fill:none;stroke-width:1;stroke-linecap:round;stroke-linejoin:round;stroke:rgb(14.901961%,19.607843%,21.960784%);stroke-opacity:1;stroke-miterlimit:4;" d="M 99.640625 434.179688 C 99.640625 434.179688 109.699219 433.179688 115.050781 435.359375 "/>
<path style="fill:none;stroke-width:1;stroke-linecap:round;stroke-linejoin:round;stroke:rgb(14.901961%,19.607843%,21.960784%);stroke-opacity:1;stroke-miterlimit:4;" d="M 102 424.789062 C 102 424.789062 107.539062 423.511719 110.511719 424.789062 "/>
<path style="fill:none;stroke-width:1;stroke-linecap:round;stroke-linejoin:round;stroke:rgb(14.901961%,19.607843%,21.960784%);stroke-opacity:1;stroke-miterlimit:4;" d="M 118.851562 425.738281 C 118.851562 425.738281 120.210938 428.238281 119.851562 430.019531 "/>
<path style="fill:none;stroke-width:1;stroke-linecap:round;stroke-linejoin:round;stroke:rgb(14.901961%,19.607843%,21.960784%);stroke-opacity:1;stroke-miterlimit:4;" d="M 131.621094 432.429688 C 129.207031 432.667969 126.773438 432.667969 124.359375 432.429688 "/>
<path style="fill:none;stroke-width:1;stroke-linecap:round;stroke-linejoin:round;stroke:rgb(14.901961%,19.607843%,21.960784%);stroke-opacity:1;stroke-miterlimit:4;" d="M 198 425.738281 C 198 425.738281 201.679688 430.019531 201.679688 431.210938 "/>
<path style="fill:none;stroke-width:1;stroke-linecap:round;stroke-linejoin:round;stroke:rgb(14.901961%,19.607843%,21.960784%);stroke-opacity:1;stroke-miterlimit:4;" d="M 210.789062 432.429688 C 209.03125 432.753906 207.238281 432.824219 205.460938 432.628906 "/>
<path style="fill:none;stroke-width:1;stroke-linecap:round;stroke-linejoin:round;stroke:rgb(14.901961%,19.607843%,21.960784%);stroke-opacity:1;stroke-miterlimit:4;" d="M 178.160156 435.359375 C 178.160156 435.359375 189.429688 433.578125 196.160156 435.359375 "/>
<path style="fill:none;stroke-width:1;stroke-linecap:round;stroke-linejoin:round;stroke:rgb(14.901961%,19.607843%,21.960784%);stroke-opacity:1;stroke-miterlimit:4;" d="M 180.929688 425.738281 C 180.929688 425.738281 186.46875 425.910156 188.851562 424.511719 "/>
<path style="fill:none;stroke-width:1;stroke-linecap:round;stroke-linejoin:round;stroke:rgb(14.901961%,19.607843%,21.960784%);stroke-opacity:1;stroke-miterlimit:4;" d="M 156.351562 295.320312 C 156.351562 295.320312 150.261719 331.980469 142.351562 340.679688 C 142.351562 340.679688 132.070312 369.109375 127.980469 376.679688 C 123.890625 384.25 118.839844 408.519531 118.839844 408.519531 "/>
<path style="fill:none;stroke-width:1;stroke-linecap:round;stroke-linejoin:round;stroke:rgb(14.901961%,19.607843%,21.960784%);stroke-opacity:1;stroke-miterlimit:4;" d="M 127.261719 337.300781 C 127.261719 337.300781 131.019531 331.820312 135.261719 337.300781 "/>
<path style="fill:none;stroke-width:1;stroke-linecap:round;stroke-linejoin:round;stroke:rgb(14.901961%,19.607843%,21.960784%);stroke-opacity:1;stroke-miterlimit:4;" d="M 175.160156 343 C 175.160156 343 176.980469 333.339844 184.890625 341.25 "/>
<path style="fill:none;stroke-width:1;stroke-linecap:round;stroke-linejoin:round;stroke:rgb(14.901961%,19.607843%,21.960784%);stroke-opacity:1;stroke-miterlimit:4;" d="M 184.890625 253 C 184.890625 253 189.570312 273.121094 188.78125 284.21875 C 188.78125 284.21875 191.421875 325.75 190.628906 337.300781 "/>
<path style="fill:none;stroke-width:1;stroke-linecap:round;stroke-linejoin:round;stroke:rgb(14.901961%,19.607843%,21.960784%);stroke-opacity:1;stroke-miterlimit:4;" d="M 195 153.769531 C 195 153.769531 199.910156 156.238281 202.808594 154.039062 "/>
<path style="fill-rule:nonzero;fill:rgb(57.254902%,89.019608%,66.27451%);fill-opacity:1;stroke-width:1;stroke-linecap:round;stroke-linejoin:round;stroke:rgb(14.901961%,19.607843%,21.960784%);stroke-opacity:1;stroke-miterlimit:4;" d="M 365.628906 409.429688 C 365.628906 409.429688 363.53125 387.328125 367.800781 366.871094 C 372.070312 346.410156 363.800781 343.988281 360.378906 349.601562 C 356.960938 355.210938 355.851562 373.789062 355.851562 373.789062 C 355.851562 373.789062 354.128906 354.960938 351.171875 345.359375 C 346.828125 331.289062 342.171875 320.570312 335.980469 323.738281 C 328.789062 327.398438 345.5 352.738281 348.789062 382.398438 C 348.789062 382.398438 335.328125 368.539062 328.878906 355.621094 C 322.429688 342.699219 314.601562 350.550781 320.351562 362.121094 C 326.101562 373.691406 339.800781 377.921875 347.351562 390.191406 C 347.351562 390.191406 328.5 378.949219 324.691406 385.761719 C 322.539062 389.601562 330.210938 390.410156 333.628906 391.238281 C 350.25 395.238281 357.949219 412.511719 357.949219 412.511719 Z M 365.628906 409.429688 "/>
<use xlink:href="#surface29" mask="url(#mask8)"/>
<path style="fill-rule:nonzero;fill:rgb(57.254902%,89.019608%,66.27451%);fill-opacity:1;stroke-width:1;stroke-linecap:round;stroke-linejoin:round;stroke:rgb(14.901961%,19.607843%,21.960784%);stroke-opacity:1;stroke-miterlimit:4;" d="M 364.851562 382.640625 C 364.851562 382.640625 365.960938 362.511719 358.621094 345.828125 C 351.28125 329.148438 357.828125 327.828125 361.761719 332.019531 C 365.691406 336.210938 368.691406 357.789062 368.691406 357.789062 C 368.691406 357.789062 372.140625 338.449219 370.570312 325.070312 C 369 311.691406 369.109375 304.171875 374.621094 304.171875 C 381.621094 304.171875 380.011719 336.910156 374.320312 356.53125 C 374.320312 356.53125 383.320312 342.269531 386.460938 330.078125 C 389.601562 317.890625 397.71875 323.171875 394.898438 334.078125 C 392.078125 344.988281 381.179688 351.078125 376.960938 362.910156 C 376.960938 362.910156 390.960938 349.910156 395.488281 355.03125 C 398.019531 357.921875 391.621094 360.03125 388.851562 361.320312 C 375.398438 367.761719 371.949219 383.871094 371.949219 383.871094 Z M 364.851562 382.640625 "/>
<path style="fill:none;stroke-width:1;stroke-linecap:round;stroke-linejoin:round;stroke:rgb(14.901961%,19.607843%,21.960784%);stroke-opacity:1;stroke-miterlimit:4;" d="M 362.328125 345 C 368.570312 359.070312 368.929688 379.601562 368.929688 379.601562 C 368.929688 379.601562 377.128906 338.808594 375.070312 321.601562 "/>
<path style="fill:none;stroke-width:1;stroke-linecap:round;stroke-linejoin:round;stroke:rgb(14.901961%,19.607843%,21.960784%);stroke-opacity:1;stroke-miterlimit:4;" d="M 389.300781 336.910156 C 389.300781 336.910156 380.140625 356.230469 371.761719 363.640625 "/>
<path style="fill:none;stroke-width:1;stroke-linecap:round;stroke-linejoin:round;stroke:rgb(14.901961%,19.607843%,21.960784%);stroke-opacity:1;stroke-miterlimit:4;" d="M 389.300781 357.730469 C 389.300781 357.730469 373.820312 367.730469 370.019531 373.789062 "/>
<path style="fill-rule:nonzero;fill:rgb(57.254902%,89.019608%,66.27451%);fill-opacity:1;stroke-width:1;stroke-linecap:round;stroke-linejoin:round;stroke:rgb(14.901961%,19.607843%,21.960784%);stroke-opacity:1;stroke-miterlimit:4;" d="M 351.871094 407.289062 C 351.871094 407.289062 340.050781 391 337.230469 373 C 334.410156 355 328.179688 357.449219 327.121094 363.078125 C 326.058594 368.710938 335.210938 388.5 335.210938 388.5 C 335.210938 388.5 321.851562 374 316 361.941406 C 310.148438 349.878906 305.941406 343.558594 301.300781 346.539062 C 295.378906 350.339844 314.449219 377 329.839844 390.429688 C 329.839844 390.429688 314.589844 383.28125 305.339844 374.738281 C 296.089844 366.199219 292.128906 375.011719 300.339844 382.671875 C 308.550781 390.328125 321.070312 389.550781 331.019531 397.230469 C 331.019531 397.230469 312.179688 393.878906 311.171875 400.609375 C 310.601562 404.410156 317.101562 402.699219 320.171875 402.320312 C 334.960938 400.46875 346.558594 412.160156 346.558594 412.160156 Z M 351.871094 407.289062 "/>
<path style="fill:none;stroke-width:1;stroke-linecap:round;stroke-linejoin:round;stroke:rgb(14.901961%,19.607843%,21.960784%);stroke-opacity:1;stroke-miterlimit:4;" d="M 333.640625 374.25 C 336 389.46875 346.789062 406.929688 346.789062 406.929688 C 346.789062 406.929688 317.851562 377.050781 310.308594 361.46875 "/>
<path style="fill:none;stroke-width:1;stroke-linecap:round;stroke-linejoin:round;stroke:rgb(14.901961%,19.607843%,21.960784%);stroke-opacity:1;stroke-miterlimit:4;" d="M 306.589844 382 C 306.589844 382 324.730469 393.308594 335.789062 395 "/>
<path style="fill:none;stroke-width:1;stroke-linecap:round;stroke-linejoin:round;stroke:rgb(14.901961%,19.607843%,21.960784%);stroke-opacity:1;stroke-miterlimit:4;" d="M 317.839844 399.539062 C 317.839844 399.539062 336.238281 399.539062 342.730469 402.640625 "/>
<path style="fill-rule:nonzero;fill:rgb(57.254902%,89.019608%,66.27451%);fill-opacity:1;stroke-width:1;stroke-linecap:round;stroke-linejoin:round;stroke:rgb(14.901961%,19.607843%,21.960784%);stroke-opacity:1;stroke-miterlimit:4;" d="M 394.921875 337.25 C 394.921875 337.25 409.980469 338.441406 410.601562 349.550781 C 410.601562 349.550781 395.359375 356.558594 394.921875 337.25 Z M 394.921875 337.25 "/>
<path style="fill-rule:nonzero;fill:rgb(57.254902%,89.019608%,66.27451%);fill-opacity:1;stroke-width:1;stroke-linecap:round;stroke-linejoin:round;stroke:rgb(14.901961%,19.607843%,21.960784%);stroke-opacity:1;stroke-miterlimit:4;" d="M 424.699219 340 C 424.699219 340 433.109375 328.628906 446.699219 334.460938 C 446.699219 334.46875 438.398438 348.21875 424.699219 340 Z M 424.699219 340 "/>
<path style="fill-rule:nonzero;fill:rgb(57.254902%,89.019608%,66.27451%);fill-opacity:1;stroke-width:1;stroke-linecap:round;stroke-linejoin:round;stroke:rgb(14.901961%,19.607843%,21.960784%);stroke-opacity:1;stroke-miterlimit:4;" d="M 445.550781 304.109375 C 445.550781 304.109375 448 326 428.058594 320 C 428.058594 320 434.378906 303.878906 445.550781 304.109375 Z M 445.550781 304.109375 "/>
<path style="fill-rule:nonzero;fill:rgb(57.254902%,89.019608%,66.27451%);fill-opacity:1;stroke-width:1;stroke-linecap:round;stroke-linejoin:round;stroke:rgb(14.901961%,19.607843%,21.960784%);stroke-opacity:1;stroke-miterlimit:4;" d="M 421.101562 291.941406 C 421.101562 291.941406 436.851562 300.429688 425.269531 313.308594 C 425.269531 313.308594 414.230469 304.109375 421.101562 291.941406 Z M 421.101562 291.941406 "/>
<path style="fill-rule:nonzero;fill:rgb(57.254902%,89.019608%,66.27451%);fill-opacity:1;stroke-width:1;stroke-linecap:round;stroke-linejoin:round;stroke:rgb(14.901961%,19.607843%,21.960784%);stroke-opacity:1;stroke-miterlimit:4;" d="M 401.730469 311.480469 C 401.730469 311.480469 418.851562 309.75 418.851562 325.601562 C 418.851562 325.601562 401.730469 326.28125 401.730469 311.480469 Z M 401.730469 311.480469 "/>
<path style="fill:none;stroke-width:1;stroke-linecap:round;stroke-linejoin:round;stroke:rgb(14.901961%,19.607843%,21.960784%);stroke-opacity:1;stroke-miterlimit:4;" d="M 417.871094 372.171875 C 417.871094 372.171875 410.070312 355.789062 417.558594 339.101562 C 425.050781 322.410156 427.558594 308.371094 423.671875 298.46875 "/>
<path style="fill:none;stroke-width:1;stroke-linecap:round;stroke-linejoin:round;stroke:rgb(14.901961%,19.607843%,21.960784%);stroke-opacity:1;stroke-miterlimit:4;" d="M 407.351562 315.738281 C 407.351562 315.738281 417.609375 319.820312 421.101562 330.390625 "/>
<path style="fill:none;stroke-width:1;stroke-linecap:round;stroke-linejoin:round;stroke:rgb(14.901961%,19.607843%,21.960784%);stroke-opacity:1;stroke-miterlimit:4;" d="M 440.140625 312.859375 C 440.140625 312.859375 434.210938 320.941406 424.140625 320.070312 "/>
<path style="fill:none;stroke-width:1;stroke-linecap:round;stroke-linejoin:round;stroke:rgb(14.901961%,19.607843%,21.960784%);stroke-opacity:1;stroke-miterlimit:4;" d="M 440.140625 336.789062 C 440.140625 336.789062 423.710938 341.53125 417.140625 339.980469 "/>
<path style="fill:none;stroke-width:1;stroke-linecap:round;stroke-linejoin:round;stroke:rgb(14.901961%,19.607843%,21.960784%);stroke-opacity:1;stroke-miterlimit:4;" d="M 399.828125 342.25 C 399.828125 342.25 407.171875 350.308594 414.558594 350.179688 "/>
<path style="fill-rule:nonzero;fill:rgb(57.254902%,89.019608%,66.27451%);fill-opacity:1;stroke-width:1;stroke-linecap:round;stroke-linejoin:round;stroke:rgb(14.901961%,19.607843%,21.960784%);stroke-opacity:1;stroke-miterlimit:4;" d="M 299.148438 394.300781 C 299.148438 394.300781 286.070312 397.5 287.148438 407.371094 C 287.101562 407.371094 301.53125 411.371094 299.148438 394.300781 Z M 299.148438 394.300781 "/>
<path style="fill-rule:nonzero;fill:rgb(57.254902%,89.019608%,66.27451%);fill-opacity:1;stroke-width:1;stroke-linecap:round;stroke-linejoin:round;stroke:rgb(14.901961%,19.607843%,21.960784%);stroke-opacity:1;stroke-miterlimit:4;" d="M 273.320312 401 C 273.320312 401 264.320312 392.191406 253.160156 399.269531 C 253.160156 399.25 262.429688 410.171875 273.320312 401 Z M 273.320312 401 "/>
<path style="fill-rule:nonzero;fill:rgb(57.254902%,89.019608%,66.27451%);fill-opacity:1;stroke-width:1;stroke-linecap:round;stroke-linejoin:round;stroke:rgb(14.901961%,19.607843%,21.960784%);stroke-opacity:1;stroke-miterlimit:4;" d="M 249.839844 372.351562 C 249.839844 372.351562 250.839844 391.960938 267.511719 383.808594 C 267.511719 383.808594 259.640625 370.550781 249.839844 372.351562 Z M 249.839844 372.351562 "/>
<path style="fill-rule:nonzero;fill:rgb(57.254902%,89.019608%,66.27451%);fill-opacity:1;stroke-width:1;stroke-linecap:round;stroke-linejoin:round;stroke:rgb(14.901961%,19.607843%,21.960784%);stroke-opacity:1;stroke-miterlimit:4;" d="M 269.628906 358.128906 C 269.628906 358.128906 257 367.859375 269 377.550781 C 269 377.550781 277.421875 367.871094 269.628906 358.128906 Z M 269.628906 358.128906 "/>
<path style="fill-rule:nonzero;fill:rgb(57.254902%,89.019608%,66.27451%);fill-opacity:1;stroke-width:1;stroke-linecap:round;stroke-linejoin:round;stroke:rgb(14.901961%,19.607843%,21.960784%);stroke-opacity:1;stroke-miterlimit:4;" d="M 289.480469 372.578125 C 289.480469 372.578125 274.160156 373.5 276.421875 387.460938 C 276.421875 387.460938 291.601562 385.609375 289.480469 372.578125 Z M 289.480469 372.578125 "/>
<path style="fill:none;stroke-width:1;stroke-linecap:round;stroke-linejoin:round;stroke:rgb(14.901961%,19.607843%,21.960784%);stroke-opacity:1;stroke-miterlimit:4;" d="M 283.929688 428.328125 C 283.929688 428.328125 288.46875 412.789062 279.488281 399.171875 C 270.511719 385.550781 266.269531 373.53125 268.300781 364.25 "/>
<path style="fill:none;stroke-width:1;stroke-linecap:round;stroke-linejoin:round;stroke:rgb(14.901961%,19.607843%,21.960784%);stroke-opacity:1;stroke-miterlimit:4;" d="M 285.140625 377.128906 C 285.140625 377.128906 276.679688 382.191406 275.140625 392 "/>
<path style="fill:none;stroke-width:1;stroke-linecap:round;stroke-linejoin:round;stroke:rgb(14.901961%,19.607843%,21.960784%);stroke-opacity:1;stroke-miterlimit:4;" d="M 255.859375 379.28125 C 255.859375 379.28125 262.230469 385.550781 270.949219 383.351562 "/>
<path style="fill:none;stroke-width:1;stroke-linecap:round;stroke-linejoin:round;stroke:rgb(14.901961%,19.607843%,21.960784%);stroke-opacity:1;stroke-miterlimit:4;" d="M 259.269531 400.359375 C 259.269531 400.359375 274.410156 402.179688 279.941406 399.878906 "/>
<path style="fill:none;stroke-width:1;stroke-linecap:round;stroke-linejoin:round;stroke:rgb(14.901961%,19.607843%,21.960784%);stroke-opacity:1;stroke-miterlimit:4;" d="M 295.550781 399.410156 C 295.550781 399.410156 290.230469 407.550781 283.710938 408.488281 "/>
<path style=" stroke:none;fill-rule:nonzero;fill:rgb(100%,100%,100%);fill-opacity:1;" d="M 443.28125 374.480469 L 441.621094 374.421875 L 442.039062 369.578125 C 442.128906 369.109375 442.0625 368.621094 441.851562 368.191406 C 441.5 367.648438 440.78125 367.539062 440.148438 367.398438 C 438.3125 366.980469 436.683594 365.914062 435.558594 364.398438 C 434.761719 363.308594 434.191406 361.96875 433.03125 361.28125 C 431.410156 360.28125 429.371094 361 427.558594 361.519531 C 425.75 362.039062 423.429688 362.191406 422.351562 360.648438 C 421.71875 359.75 421.679688 358.449219 420.808594 357.769531 C 419.941406 357.089844 418.339844 357.53125 417.191406 358.101562 C 412.761719 360.28125 407.808594 363.101562 406.960938 367.988281 C 406.660156 369.660156 401.480469 376.628906 399.628906 377.558594 C 396.398438 379.171875 390.289062 376.089844 387.011719 375 C 379.972656 374.828125 372.953125 374.160156 366.011719 373 C 364.011719 373 362.011719 375 360.011719 377 C 359.011719 378 359.011719 379 358.011719 380 C 355.011719 383 350.011719 385 349.011719 390 C 349.011719 397 341.011719 401 335.011719 404 C 326.011719 408 317.011719 409 308.011719 413 C 303.011719 415 297.011719 415 291.011719 415 C 284.011719 421 279.011719 428 274.011719 436 C 273.011719 437 272.011719 439 270.011719 439 C 206.011719 439 141.011719 439 76.699219 438.648438 L 76.699219 461.46875 L 443.699219 461.46875 Z M 443.28125 374.480469 "/>
<path style="fill:none;stroke-width:1;stroke-linecap:round;stroke-linejoin:round;stroke:rgb(14.901961%,19.607843%,21.960784%);stroke-opacity:1;stroke-miterlimit:4;" d="M 76.691406 438.648438 C 141 439 206 439 270 439 C 272 439 273 437 274 436 C 279 428 284 421 291 415 C 297 415 303 415 308 413 C 317 409 326 408 335 404 C 341 401 349 397 349 390 C 350 385 355 383 358 380 C 359 379 359 378 360 377 C 362 375 364 373 366 373 C 372.945312 374.160156 379.960938 374.828125 387 375 C 390.28125 376.089844 396.390625 379.171875 399.621094 377.558594 C 401.46875 376.628906 406.621094 369.660156 406.949219 367.988281 C 407.800781 363.128906 412.75 360.28125 417.179688 358.101562 C 418.328125 357.53125 419.789062 356.988281 420.800781 357.769531 C 421.808594 358.550781 421.710938 359.769531 422.339844 360.648438 C 423.421875 362.191406 425.730469 362.03125 427.550781 361.519531 C 429.371094 361.011719 431.398438 360.320312 433.019531 361.28125 C 434.179688 361.96875 434.75 363.28125 435.550781 364.398438 C 436.671875 365.914062 438.300781 366.980469 440.140625 367.398438 C 440.769531 367.539062 441.488281 367.648438 441.839844 368.191406 "/>
<path style="fill:none;stroke-width:1;stroke-linecap:round;stroke-linejoin:round;stroke:rgb(14.901961%,19.607843%,21.960784%);stroke-opacity:1;stroke-miterlimit:4;" d="M 389.300781 394.300781 C 393.570312 394.621094 399.761719 391.75 399.828125 392 C 399.898438 392.25 407.351562 393.148438 407.351562 393.148438 C 407.351562 393.148438 417.21875 395.960938 418.851562 394.300781 C 420.480469 392.640625 425.511719 393.78125 429.519531 393.410156 C 433.53125 393.039062 437.621094 396.289062 437.621094 396.289062 C 437.621094 396.289062 444.699219 402.359375 445.621094 402.640625 C 446.539062 402.921875 453.679688 405.011719 456.449219 406.929688 "/>
<path style="fill:none;stroke-width:1;stroke-linecap:round;stroke-linejoin:round;stroke:rgb(14.901961%,19.607843%,21.960784%);stroke-opacity:1;stroke-miterlimit:4;" d="M 270 439 L 287 439 C 287 439 298 433.328125 303.640625 433.949219 C 309.28125 434.570312 314.089844 438.648438 314.089844 438.648438 L 323.808594 438.648438 L 335.75 440.148438 L 343.628906 440.148438 "/>
<path style="fill:none;stroke-width:1;stroke-linecap:round;stroke-linejoin:round;stroke:rgb(14.901961%,19.607843%,21.960784%);stroke-opacity:1;stroke-miterlimit:4;" d="M 383.679688 414.238281 C 381.308594 411.628906 371.398438 411.078125 370.019531 408.589844 C 368.640625 406.101562 359.949219 411.800781 358.761719 410.921875 C 357.570312 410.039062 351.308594 411.621094 350.289062 414.589844 C 349.269531 417.558594 349.769531 418.101562 345.761719 419.589844 "/>
<path style="fill:none;stroke-width:1;stroke-linecap:round;stroke-linejoin:round;stroke:rgb(14.901961%,19.607843%,21.960784%);stroke-opacity:1;stroke-miterlimit:4;" d="M 447.191406 379.109375 C 445.628906 377.738281 443.304688 377.695312 441.691406 379 C 441.464844 379.214844 441.222656 379.417969 440.96875 379.601562 C 440.246094 379.914062 439.453125 380.035156 438.671875 379.949219 C 436.894531 379.992188 435.179688 380.605469 433.78125 381.699219 C 433.363281 382.101562 432.875 382.421875 432.339844 382.640625 C 432.011719 382.714844 431.675781 382.757812 431.339844 382.769531 C 430.457031 382.886719 429.621094 383.230469 428.910156 383.769531 "/>
<path style="fill:none;stroke-width:1;stroke-linecap:round;stroke-linejoin:round;stroke:rgb(14.901961%,19.607843%,21.960784%);stroke-opacity:1;stroke-miterlimit:4;" d="M 394.519531 439.398438 C 398.871094 441.320312 404.238281 439.628906 407.519531 436.160156 C 410.121094 433.390625 412.230469 429.269531 416.03125 429.109375 C 417.03125 429.109375 418.03125 429.328125 419.03125 429.339844 C 421.28125 429.339844 423.308594 428.128906 425.398438 427.339844 C 427.488281 426.550781 430.101562 426.121094 431.789062 427.601562 C 432.910156 428.601562 433.378906 430.191406 434.601562 431.050781 C 435.820312 431.910156 437.390625 431.78125 438.828125 432.050781 C 440.269531 432.320312 441.828125 433.488281 441.53125 434.929688 "/>
</g>
</svg>
