<?xml version="1.0" encoding="UTF-8"?>
<svg xmlns="http://www.w3.org/2000/svg" xmlns:xlink="http://www.w3.org/1999/xlink" width="500px" height="500px" viewBox="0 0 500 500" version="1.1">
<defs>
<filter id="alpha" filterUnits="objectBoundingBox" x="0%" y="0%" width="100%" height="100%">
  <feColorMatrix type="matrix" in="SourceGraphic" values="0 0 0 0 1 0 0 0 0 1 0 0 0 0 1 0 0 0 1 0"/>
</filter>
<mask id="mask0">
  <g filter="url(#alpha)">
<rect x="0" y="0" width="500" height="500" style="fill:rgb(0%,0%,0%);fill-opacity:0.8;stroke:none;"/>
  </g>
</mask>
<clipPath id="clip1">
  <rect x="0" y="0" width="500" height="500"/>
</clipPath>
<g id="surface5" clip-path="url(#clip1)">
<path style=" stroke:none;fill-rule:nonzero;fill:rgb(100%,100%,100%);fill-opacity:1;" d="M 291.710938 474.089844 C 248.710938 474.941406 196.761719 462.421875 168.808594 426.929688 C 126.558594 373.308594 74.660156 385.460938 36.058594 274.730469 C 30.351562 258.59375 26.410156 241.886719 24.308594 224.898438 C 23.308594 216.582031 22.839844 208.207031 22.898438 199.828125 C 23.46875 126 67.050781 70.328125 125.308594 44.058594 C 201.929688 9.5 260.71875 49.230469 296.519531 76 C 332.320312 102.769531 433.648438 112 472.449219 220.539062 C 478.445312 237.089844 482.507812 254.277344 484.558594 271.761719 C 489.078125 311.660156 482.019531 356.851562 458.910156 390.628906 C 457.179688 393.171875 455.351562 395.628906 453.460938 398.089844 C 416.410156 445.730469 350.390625 472.929688 291.710938 474.089844 Z M 291.710938 474.089844 "/>
</g>
<mask id="mask1">
  <g filter="url(#alpha)">
<rect x="0" y="0" width="500" height="500" style="fill:rgb(0%,0%,0%);fill-opacity:0.301961;stroke:none;"/>
  </g>
</mask>
<clipPath id="clip2">
  <rect x="0" y="0" width="500" height="500"/>
</clipPath>
<g id="surface8" clip-path="url(#clip2)">
<path style="fill:none;stroke-width:1;stroke-linecap:round;stroke-linejoin:round;stroke:rgb(0%,0%,0%);stroke-opacity:1;stroke-miterlimit:4;" d="M 319 84.851562 C 319 84.660156 319 84.460938 319 84.238281 C 319.199219 79.921875 316.851562 75.890625 313 73.929688 C 305.109375 69.351562 300.53125 73.929688 298.238281 78 C 295.949219 82.070312 292.390625 75.460938 286.789062 76.21875 C 281.191406 76.980469 281.449219 83.089844 279.921875 86.398438 C 278.390625 89.710938 275.089844 85.398438 270.761719 86.148438 C 266.429688 86.898438 266.179688 89.449219 265.421875 90.46875 C 264.660156 91.488281 257.761719 89 253.941406 91 C 251.511719 92.402344 249.492188 94.421875 248.089844 96.851562 L 331.558594 96.851562 C 331.558594 96.851562 332.558594 90.75 329.269531 88.460938 C 326.308594 86.378906 319.578125 89.671875 319 84.851562 Z M 319 84.851562 "/>
<path style="fill:none;stroke-width:1;stroke-linecap:round;stroke-linejoin:round;stroke:rgb(0%,0%,0%);stroke-opacity:1;stroke-miterlimit:4;" d="M 280.269531 92.46875 C 279.984375 92.535156 279.722656 92.667969 279.5 92.859375 C 278.421875 93.800781 278.421875 94.46875 278.421875 94.46875 "/>
<path style="fill:none;stroke-width:1;stroke-linecap:round;stroke-linejoin:round;stroke:rgb(0%,0%,0%);stroke-opacity:1;stroke-miterlimit:4;" d="M 298.710938 84.558594 C 297.960938 86.191406 297.308594 87.96875 295.78125 88.691406 C 293.589844 89.691406 291.539062 87.398438 289.53125 86.878906 C 288.355469 86.5 287.070312 86.898438 286.320312 87.878906 C 285.421875 88.878906 285.398438 91.269531 284.210938 91.941406 C 283.476562 92.21875 282.695312 92.34375 281.910156 92.300781 "/>
<path style="fill:none;stroke-width:1;stroke-linecap:round;stroke-linejoin:round;stroke:rgb(0%,0%,0%);stroke-opacity:1;stroke-miterlimit:4;" d="M 323.550781 92.078125 C 323.488281 91.929688 323.429688 91.789062 323.359375 91.648438 C 321.75 88.441406 317.960938 91.019531 315.628906 90.121094 C 313.550781 89.320312 314.230469 86.039062 313.949219 84.328125 C 313.410156 81.019531 309.25 78.488281 306 79 C 303.582031 79.40625 301.398438 80.679688 299.851562 82.578125 "/>
<path style="fill:none;stroke-width:1;stroke-linecap:round;stroke-linejoin:round;stroke:rgb(0%,0%,0%);stroke-opacity:1;stroke-miterlimit:4;" d="M 324.210938 95 C 324.148438 94.429688 324.054688 93.859375 323.929688 93.300781 "/>
</g>
<mask id="mask2">
  <g filter="url(#alpha)">
<rect x="0" y="0" width="500" height="500" style="fill:rgb(0%,0%,0%);fill-opacity:0.301961;stroke:none;"/>
  </g>
</mask>
<clipPath id="clip3">
  <rect x="0" y="0" width="500" height="500"/>
</clipPath>
<g id="surface11" clip-path="url(#clip3)">
<path style="fill:none;stroke-width:1;stroke-linecap:round;stroke-linejoin:round;stroke:rgb(0%,0%,0%);stroke-opacity:1;stroke-miterlimit:4;" d="M 165.519531 123.558594 C 165.476562 123.226562 165.457031 122.894531 165.460938 122.558594 C 165.371094 115.109375 162.601562 109.949219 155.851562 106.03125 C 143.210938 98.691406 135.851562 106.03125 132.199219 112.558594 C 128.550781 119.089844 122.820312 108.480469 113.839844 109.699219 C 104.859375 110.921875 105.28125 120.699219 102.839844 126.019531 C 100.398438 131.339844 95.089844 124.390625 88.148438 125.609375 C 81.210938 126.828125 80.808594 130.910156 79.589844 132.539062 C 78.371094 134.171875 67.351562 130.101562 61.230469 133.359375 C 57.332031 135.605469 54.09375 138.839844 51.851562 142.738281 L 185.628906 142.738281 C 185.628906 142.738281 187.261719 132.960938 181.960938 129.28125 C 177.210938 126 166.429688 131.289062 165.519531 123.558594 Z M 165.519531 123.558594 "/>
<path style="fill:none;stroke-width:1;stroke-linecap:round;stroke-linejoin:round;stroke:rgb(0%,0%,0%);stroke-opacity:1;stroke-miterlimit:4;" d="M 103.421875 135.769531 C 102.964844 135.878906 102.539062 136.097656 102.179688 136.398438 C 100.460938 137.910156 100.460938 138.980469 100.460938 138.980469 "/>
<path style="fill:none;stroke-width:1;stroke-linecap:round;stroke-linejoin:round;stroke:rgb(0%,0%,0%);stroke-opacity:1;stroke-miterlimit:4;" d="M 133 123.101562 C 131.808594 125.710938 130.761719 128.558594 128.300781 129.710938 C 124.800781 131.351562 121.519531 127.648438 118.300781 126.808594 C 116.425781 126.203125 114.375 126.828125 113.160156 128.378906 C 111.710938 130.050781 111.679688 133.820312 109.769531 134.890625 C 108.597656 135.347656 107.335938 135.542969 106.078125 135.46875 "/>
<path style="fill:none;stroke-width:1;stroke-linecap:round;stroke-linejoin:round;stroke:rgb(0%,0%,0%);stroke-opacity:1;stroke-miterlimit:4;" d="M 172.789062 135.148438 C 172.691406 134.910156 172.589844 134.679688 172.480469 134.460938 C 169.910156 129.308594 163.828125 133.460938 160.089844 132.011719 C 156.769531 130.730469 157.859375 125.480469 157.410156 122.730469 C 156.550781 117.421875 149.878906 113.371094 144.660156 114.191406 C 140.789062 114.839844 137.289062 116.878906 134.808594 119.921875 "/>
<path style="fill:none;stroke-width:1;stroke-linecap:round;stroke-linejoin:round;stroke:rgb(0%,0%,0%);stroke-opacity:1;stroke-miterlimit:4;" d="M 173.839844 139.859375 C 173.75 138.949219 173.605469 138.042969 173.398438 137.148438 "/>
</g>
<mask id="mask3">
  <g filter="url(#alpha)">
<rect x="0" y="0" width="500" height="500" style="fill:rgb(0%,0%,0%);fill-opacity:0.4;stroke:none;"/>
  </g>
</mask>
<clipPath id="clip4">
  <rect x="0" y="0" width="500" height="500"/>
</clipPath>
<g id="surface14" clip-path="url(#clip4)">
<path style=" stroke:none;fill-rule:nonzero;fill:rgb(100%,100%,100%);fill-opacity:1;" d="M 222.929688 265.21875 C 222.929688 264.808594 222.628906 264.511719 222.328125 264.570312 L 205.160156 268.25 C 204.550781 268.378906 204.308594 267.25 204.871094 266.929688 L 222.171875 257.171875 C 222.390625 257.011719 222.507812 256.75 222.480469 256.480469 C 221.761719 244.011719 220.648438 230.328125 219.199219 216.371094 C 219.199219 215.980469 218.878906 215.710938 218.589844 215.78125 L 203.398438 219.679688 C 202.839844 219.820312 202.539062 218.851562 203.011719 218.429688 L 217.660156 205.109375 C 217.835938 204.929688 217.917969 204.679688 217.878906 204.429688 C 217.101562 197.691406 216.238281 190.949219 215.308594 184.308594 L 214.109375 177.679688 C 214.039062 177.261719 213.699219 177.03125 213.410156 177.199219 L 204.570312 182.070312 C 204.039062 182.359375 203.570312 181.480469 204 180.941406 L 212.800781 169.21875 C 212.933594 169.035156 212.984375 168.804688 212.941406 168.578125 C 211.179688 157.660156 209.238281 147.269531 207.140625 137.921875 C 207.039062 137.480469 206.660156 137.289062 206.371094 137.53125 L 195 146.871094 C 194.519531 147.269531 194 146.5 194.308594 145.871094 L 204.308594 127.171875 C 204.414062 126.972656 204.4375 126.746094 204.378906 126.53125 C 202.855469 120.578125 200.96875 114.722656 198.730469 109 C 198.601562 108.679688 198.308594 108.550781 198.070312 108.699219 L 190.160156 113.328125 C 189.75 113.570312 189.320312 113.058594 189.449219 112.5 L 191.941406 102.5 C 191.941406 102.320312 192.160156 101.589844 192.351562 100.949219 L 193 98.378906 C 191.171875 96.128906 189.289062 94.890625 187.371094 94.890625 C 185.449219 94.890625 183.308594 96.289062 181.371094 98.890625 L 184.320312 112.519531 C 184.449219 113.078125 184.019531 113.589844 183.609375 113.351562 L 176.5 109.179688 C 176.371094 109.113281 176.21875 109.113281 176.089844 109.171875 C 175.960938 109.234375 175.863281 109.351562 175.828125 109.488281 C 173.539062 115.472656 171.613281 121.585938 170.058594 127.800781 C 170.003906 128.015625 170.023438 128.242188 170.121094 128.441406 L 179.488281 145.910156 C 179.820312 146.53125 179.28125 147.300781 178.800781 146.910156 L 168.230469 138.25 C 167.941406 138.011719 167.558594 138.199219 167.460938 138.640625 C 165.351562 148.121094 163.398438 158.640625 161.628906 169.691406 C 161.59375 169.914062 161.648438 170.144531 161.78125 170.328125 L 169.78125 180.980469 C 170.179688 181.519531 169.78125 182.398438 169.21875 182.109375 L 161 177.578125 C 160.699219 177.410156 160.351562 177.648438 160.289062 178.078125 C 158.96875 186.96875 157.78125 196.078125 156.71875 205.238281 C 156.6875 205.484375 156.769531 205.730469 156.941406 205.910156 L 170.71875 218.429688 C 171.179688 218.851562 170.878906 219.820312 170.328125 219.679688 L 156.128906 216 C 155.828125 215.921875 155.550781 216.191406 155.511719 216.578125 C 154.050781 230.660156 152.941406 244.441406 152.230469 256.980469 C 152.195312 257.25 152.316406 257.515625 152.539062 257.671875 L 168.890625 266.898438 C 169.449219 267.21875 169.210938 268.351562 168.601562 268.21875 L 152.398438 264.75 C 152.101562 264.679688 151.820312 264.988281 151.800781 265.398438 C 151.488281 272.609375 151.320312 279.289062 151.320312 285.230469 C 151.320312 288.988281 151.386719 292.601562 151.519531 296.070312 C 151.511719 296.332031 151.648438 296.574219 151.878906 296.699219 L 169 303.871094 C 169.550781 304.101562 169.449219 305.171875 168.878906 305.21875 L 152.730469 306.648438 C 152.386719 306.742188 152.175781 307.082031 152.238281 307.429688 C 152.953125 317.390625 154.730469 327.246094 157.539062 336.828125 C 157.640625 337.171875 157.921875 337.328125 158.179688 337.21875 L 168.101562 332.941406 C 168.609375 332.71875 169 333.550781 168.640625 334.070312 L 160.929688 345 C 160.765625 345.25 160.742188 345.570312 160.871094 345.839844 C 167.449219 360.339844 176.871094 366.609375 187.371094 366.609375 C 197.640625 366.609375 206.910156 360.609375 213.480469 346.691406 C 213.601562 346.414062 213.578125 346.097656 213.421875 345.839844 L 205.160156 334.109375 C 204.800781 333.589844 205.160156 332.761719 205.699219 332.980469 L 216.480469 337.640625 C 216.617188 337.6875 216.765625 337.667969 216.890625 337.59375 C 217.015625 337.519531 217.097656 337.394531 217.121094 337.25 C 219.992188 327.578125 221.804688 317.625 222.53125 307.558594 C 222.59375 307.210938 222.382812 306.871094 222.039062 306.78125 L 204.921875 305.261719 C 204.351562 305.210938 204.25 304.140625 204.800781 303.910156 L 222.660156 296.441406 C 222.847656 296.347656 222.976562 296.167969 223 295.960938 L 223.261719 294.691406 C 223.261719 294.691406 223.261719 294.589844 223.261719 294.539062 C 223.351562 291.539062 223.398438 288.488281 223.398438 285.300781 C 223.421875 279.269531 223.25 272.511719 222.929688 265.21875 Z M 222.929688 265.21875 "/>
</g>
<mask id="mask4">
  <g filter="url(#alpha)">
<rect x="0" y="0" width="500" height="500" style="fill:rgb(0%,0%,0%);fill-opacity:0.501961;stroke:none;"/>
  </g>
</mask>
<clipPath id="clip5">
  <rect x="0" y="0" width="500" height="500"/>
</clipPath>
<g id="surface17" clip-path="url(#clip5)">
<path style=" stroke:none;fill-rule:nonzero;fill:rgb(100%,100%,100%);fill-opacity:1;" d="M 188.800781 314.449219 L 187.699219 251.78125 L 206.960938 235.808594 L 187.550781 243.699219 L 187.191406 223.210938 L 187.03125 223.539062 L 187.148438 220.539062 L 186.628906 191.089844 L 202.578125 176.359375 L 186.941406 185.75 L 186.589844 188.871094 L 185.949219 152.371094 L 185.601562 159.558594 L 183.910156 214.109375 L 183.179688 212.660156 L 170.671875 204.519531 L 183.808594 217.300781 L 181.671875 286.460938 L 161.910156 280.25 L 181.449219 293.679688 L 179.980469 341.179688 L 172.539062 339.699219 L 179.75 348.699219 L 178.941406 374.589844 L 177.960938 428.789062 L 190.808594 428.789062 L 188.898438 320.128906 L 204.460938 316.539062 Z M 188.800781 314.449219 "/>
</g>
<mask id="mask5">
  <g filter="url(#alpha)">
<rect x="0" y="0" width="500" height="500" style="fill:rgb(0%,0%,0%);fill-opacity:0.4;stroke:none;"/>
  </g>
</mask>
<clipPath id="clip6">
  <rect x="0" y="0" width="500" height="500"/>
</clipPath>
<g id="surface20" clip-path="url(#clip6)">
<path style=" stroke:none;fill-rule:nonzero;fill:rgb(100%,100%,100%);fill-opacity:1;" d="M 115 292.441406 C 115 292.101562 114.75 291.851562 114.5 291.898438 L 100.199219 295 C 99.691406 295.109375 99.488281 294.160156 99.960938 293.898438 L 114.371094 285.761719 C 114.558594 285.636719 114.664062 285.414062 114.640625 285.191406 C 114.039062 274.789062 113.109375 263.390625 111.898438 251.761719 C 111.898438 251.429688 111.640625 251.199219 111.390625 251.269531 L 98.730469 254.511719 C 98.269531 254.628906 98.011719 253.820312 98.398438 253.511719 L 110.621094 242.410156 C 110.765625 242.257812 110.835938 242.050781 110.808594 241.839844 C 110.148438 236.230469 109.429688 230.609375 108.660156 225.070312 L 107.660156 219.539062 C 107.601562 219.199219 107.320312 219.011719 107.070312 219.140625 L 99.699219 223.210938 C 99.269531 223.449219 98.898438 222.710938 99.230469 222.261719 L 106.570312 212.488281 C 106.675781 212.335938 106.71875 212.144531 106.691406 211.960938 C 105.21875 202.851562 103.601562 194.191406 101.851562 186.398438 C 101.769531 186.039062 101.449219 185.878906 101.210938 186.078125 L 91.710938 193.859375 C 91.308594 194.191406 90.859375 193.550781 91.128906 193.039062 L 99.488281 177.449219 C 99.570312 177.285156 99.589844 177.097656 99.539062 176.921875 C 98.269531 171.949219 96.703125 167.058594 94.839844 162.28125 C 94.730469 162.019531 94.488281 161.910156 94.289062 162.03125 L 87.699219 165.898438 C 87.359375 166.101562 87 165.671875 87.109375 165.199219 L 89.179688 156.890625 C 89.179688 156.738281 89.359375 156.128906 89.519531 155.601562 L 90.058594 153.449219 C 88.53125 151.570312 86.96875 150.539062 85.371094 150.539062 C 83.769531 150.539062 81.988281 151.710938 80.371094 153.839844 L 82.828125 165.199219 C 82.941406 165.671875 82.578125 166.101562 82.238281 165.898438 L 76.308594 162.421875 C 76.101562 162.300781 75.859375 162.421875 75.75 162.679688 C 73.847656 167.667969 72.238281 172.761719 70.941406 177.941406 C 70.886719 178.117188 70.910156 178.308594 71 178.46875 L 78.789062 193 C 79.070312 193.511719 78.621094 194.148438 78.21875 193.820312 L 69.410156 186.601562 C 69.160156 186.398438 68.851562 186.601562 68.761719 186.929688 C 67.011719 194.828125 65.378906 203.601562 63.910156 212.808594 C 63.875 212.996094 63.917969 213.1875 64.03125 213.339844 L 70.691406 222.21875 C 71.03125 222.671875 70.691406 223.410156 70.21875 223.171875 L 63.421875 219.421875 C 63.171875 219.28125 62.878906 219.480469 62.828125 219.839844 C 61.730469 227.25 60.738281 234.839844 59.828125 242.46875 C 59.804688 242.664062 59.867188 242.855469 60 243 L 71.480469 253.429688 C 71.871094 253.78125 71.621094 254.589844 71.160156 254.429688 L 59.289062 251.429688 C 59.039062 251.371094 58.808594 251.589844 58.78125 251.921875 C 57.558594 263.648438 56.628906 275.140625 56.039062 285.589844 C 56.011719 285.816406 56.113281 286.039062 56.300781 286.171875 L 70 293.871094 C 70.46875 294.128906 70.269531 295.078125 69.769531 294.96875 L 56.261719 292.078125 C 56.011719 292.019531 55.78125 292.28125 55.761719 292.621094 C 55.5 298.621094 55.359375 304.199219 55.359375 309.148438 C 55.359375 312.28125 55.421875 315.300781 55.53125 318.148438 C 55.519531 318.367188 55.636719 318.570312 55.828125 318.671875 L 70.070312 324.671875 C 70.519531 324.859375 70.441406 325.75 69.96875 325.800781 L 56.460938 327 C 56.210938 327 56.03125 327.320312 56.058594 327.648438 C 56.65625 335.953125 58.132812 344.171875 60.46875 352.160156 C 60.558594 352.441406 60.789062 352.578125 61.011719 352.480469 L 69.269531 348.910156 C 69.699219 348.730469 70.03125 349.421875 69.71875 349.851562 L 63.328125 358.929688 C 63.214844 359.148438 63.214844 359.410156 63.328125 359.628906 C 68.820312 371.71875 76.679688 376.949219 85.421875 376.949219 C 93.980469 376.949219 101.710938 371.949219 107.179688 360.339844 C 107.304688 360.121094 107.304688 359.851562 107.179688 359.628906 L 100.300781 349.851562 C 100 349.421875 100.300781 348.730469 100.75 348.910156 L 109.75 352.789062 C 109.960938 352.890625 110.199219 352.789062 110.28125 352.46875 C 112.675781 344.40625 114.1875 336.109375 114.789062 327.71875 C 114.835938 327.429688 114.660156 327.152344 114.378906 327.070312 L 100 325.789062 C 99.519531 325.738281 99.441406 324.851562 99.898438 324.660156 L 114.789062 318.441406 C 114.945312 318.363281 115.050781 318.210938 115.070312 318.039062 L 115.289062 316.980469 C 115.289062 316.980469 115.289062 316.898438 115.289062 316.851562 C 115.371094 314.371094 115.410156 311.804688 115.410156 309.148438 C 115.421875 304.148438 115.28125 298.519531 115 292.441406 Z M 115 292.441406 "/>
</g>
<mask id="mask6">
  <g filter="url(#alpha)">
<rect x="0" y="0" width="500" height="500" style="fill:rgb(0%,0%,0%);fill-opacity:0.501961;stroke:none;"/>
  </g>
</mask>
<clipPath id="clip7">
  <rect x="0" y="0" width="500" height="500"/>
</clipPath>
<g id="surface23" clip-path="url(#clip7)">
<path style=" stroke:none;fill-rule:nonzero;fill:rgb(100%,100%,100%);fill-opacity:1;" d="M 86.558594 333.480469 L 85.640625 281.238281 L 101.699219 267.929688 L 85.519531 274.5 L 85.21875 257.429688 L 85.089844 257.699219 L 85.191406 255.199219 L 84.75 230.648438 L 98.050781 218.378906 L 85.011719 226.199219 L 84.71875 228.800781 L 84.191406 198.378906 L 83.890625 204.371094 L 82.488281 249.839844 L 81.878906 248.628906 L 71.449219 241.851562 L 82.410156 252.5 L 80.621094 310.148438 L 64.140625 304.96875 L 80.429688 316.171875 L 79.210938 355.761719 L 73.011719 354.519531 L 79.019531 362.03125 L 78.351562 383.621094 L 77.53125 428.789062 L 88.230469 428.789062 L 86.640625 338.21875 L 99.609375 335.21875 Z M 86.558594 333.480469 "/>
</g>
<mask id="mask7">
  <g filter="url(#alpha)">
<rect x="0" y="0" width="500" height="500" style="fill:rgb(0%,0%,0%);fill-opacity:0.4;stroke:none;"/>
  </g>
</mask>
<clipPath id="clip8">
  <rect x="0" y="0" width="500" height="500"/>
</clipPath>
<g id="surface26" clip-path="url(#clip8)">
<path style=" stroke:none;fill-rule:nonzero;fill:rgb(100%,100%,100%);fill-opacity:1;" d="M 459.328125 312.269531 C 459.328125 311.980469 459.121094 311.761719 458.898438 311.808594 L 446.671875 314.429688 C 446.238281 314.519531 446.070312 313.710938 446.46875 313.488281 L 458.789062 306.488281 C 458.941406 306.375 459.019531 306.1875 459 306 C 458.488281 297.121094 457.699219 287.371094 456.671875 277.429688 C 456.671875 277.148438 456.441406 276.960938 456.230469 277.011719 L 445.410156 279.789062 C 445.011719 279.890625 444.800781 279.199219 445.128906 278.898438 L 455.570312 269.410156 C 455.695312 269.28125 455.753906 269.105469 455.730469 268.929688 C 455.171875 264.128906 454.550781 259.328125 453.890625 254.601562 L 453.039062 249.871094 C 452.988281 249.570312 452.75 249.410156 452.539062 249.53125 L 446.238281 253 C 445.871094 253.210938 445.550781 252.578125 445.839844 252.199219 L 452.109375 243.839844 C 452.199219 243.707031 452.234375 243.546875 452.210938 243.390625 C 450.949219 235.609375 449.570312 228.210938 448.070312 221.550781 C 448 221.230469 447.730469 221.101562 447.519531 221.269531 L 439.421875 228 C 439.070312 228.289062 438.691406 227.738281 438.921875 227.300781 L 446.058594 213.980469 C 446.132812 213.839844 446.148438 213.675781 446.109375 213.519531 C 445.03125 209.277344 443.695312 205.101562 442.109375 201.019531 C 442.085938 200.921875 442.019531 200.839844 441.929688 200.796875 C 441.835938 200.753906 441.730469 200.753906 441.640625 200.800781 L 436.011719 204.101562 C 435.71875 204.269531 435.410156 203.910156 435.511719 203.511719 L 437.269531 196.410156 C 437.269531 196.28125 437.429688 195.761719 437.570312 195.300781 L 438.03125 193.46875 C 436.71875 191.859375 435.378906 190.980469 434.03125 190.980469 C 432.679688 190.980469 431.140625 191.980469 429.75 193.800781 L 431.851562 203.511719 C 431.941406 203.910156 431.640625 204.269531 431.351562 204.101562 L 426.28125 201.101562 C 426.191406 201.050781 426.082031 201.046875 425.988281 201.085938 C 425.894531 201.128906 425.824219 201.210938 425.800781 201.308594 C 424.171875 205.574219 422.800781 209.933594 421.691406 214.359375 C 421.632812 214.503906 421.632812 214.664062 421.691406 214.808594 L 428.359375 227.261719 C 428.601562 227.699219 428.210938 228.261719 427.871094 227.960938 L 420.339844 221.789062 C 420.128906 221.621094 419.859375 221.789062 419.789062 222.070312 C 418.289062 228.820312 416.898438 236.320312 415.640625 244.191406 C 415.609375 244.351562 415.644531 244.515625 415.738281 244.648438 L 421.441406 252.238281 C 421.71875 252.621094 421.441406 253.238281 421.03125 253.039062 L 415.21875 249.839844 C 415.011719 249.71875 414.761719 249.839844 414.71875 250.199219 C 413.78125 256.53125 412.929688 263.039062 412.179688 269.539062 C 412.148438 269.714844 412.207031 269.894531 412.328125 270.019531 L 422.148438 278.941406 C 422.480469 279.238281 422.261719 279.941406 421.871094 279.828125 L 411.71875 277.230469 C 411.519531 277.171875 411.320312 277.371094 411.289062 277.648438 C 410.289062 287.648438 409.449219 297.488281 408.949219 306.429688 C 408.925781 306.617188 409.011719 306.804688 409.171875 306.910156 L 420.808594 313.488281 C 421.21875 313.710938 421.039062 314.488281 420.609375 314.429688 L 409.089844 312 C 408.878906 312 408.679688 312.171875 408.660156 312.460938 C 408.441406 317.601562 408.320312 322.359375 408.320312 326.578125 C 408.320312 329.269531 408.371094 331.839844 408.460938 334.308594 C 408.457031 334.496094 408.554688 334.671875 408.71875 334.761719 L 420.890625 339.839844 C 421.28125 340 421.210938 340.769531 420.800781 340.839844 L 409.289062 341.839844 C 409.078125 341.839844 408.929688 342.109375 408.949219 342.390625 C 409.460938 349.484375 410.722656 356.503906 412.71875 363.328125 C 412.734375 363.433594 412.796875 363.523438 412.882812 363.578125 C 412.972656 363.632812 413.082031 363.644531 413.179688 363.609375 L 420.238281 360.558594 C 420.609375 360.398438 420.890625 360.988281 420.628906 361.371094 L 415.171875 369.128906 C 415.046875 369.304688 415.03125 369.527344 415.121094 369.71875 C 419.808594 380.050781 426.53125 384.519531 434 384.519531 C 441.320312 384.519531 447.921875 380.21875 452.601562 370.328125 C 452.703125 370.140625 452.703125 369.910156 452.601562 369.71875 L 446.71875 361.371094 C 446.460938 360.988281 446.71875 360.371094 447.101562 360.558594 L 454.78125 363.878906 C 454.960938 363.960938 455.160156 363.878906 455.238281 363.601562 C 457.28125 356.710938 458.574219 349.617188 459.089844 342.449219 C 459.136719 342.203125 458.980469 341.964844 458.738281 341.898438 L 446.539062 340.808594 C 446.128906 340.808594 446.070312 340.011719 446.460938 339.808594 L 459.179688 334.488281 C 459.3125 334.421875 459.402344 334.296875 459.429688 334.148438 L 459.609375 333.25 C 459.609375 333.25 459.609375 333.179688 459.609375 333.140625 C 459.671875 331.019531 459.710938 328.828125 459.710938 326.550781 C 459.679688 322.28125 459.558594 317.46875 459.328125 312.269531 Z M 459.328125 312.269531 "/>
</g>
<mask id="mask8">
  <g filter="url(#alpha)">
<rect x="0" y="0" width="500" height="500" style="fill:rgb(0%,0%,0%);fill-opacity:0.501961;stroke:none;"/>
  </g>
</mask>
<clipPath id="clip9">
  <rect x="0" y="0" width="500" height="500"/>
</clipPath>
<g id="surface29" clip-path="url(#clip9)">
<path style=" stroke:none;fill-rule:nonzero;fill:rgb(100%,100%,100%);fill-opacity:1;" d="M 435.019531 347.339844 L 434.230469 302.691406 L 447.960938 291.320312 L 434.128906 296.941406 L 433.878906 282.339844 L 433.761719 282.578125 L 433.839844 280.441406 L 433.46875 259.460938 L 444.839844 248.96875 L 433.691406 255.660156 L 433.441406 257.878906 L 432.988281 231.878906 L 432.738281 237.011719 L 431.539062 275.859375 L 431.019531 274.828125 L 422.101562 269.03125 L 431.46875 278.140625 L 429.941406 327.398438 L 415.859375 322.96875 L 429.78125 332.550781 L 428.738281 366.378906 L 423.441406 365.320312 L 428.570312 371.738281 L 428 390.179688 L 427.300781 428.789062 L 436.449219 428.789062 L 435.089844 351.390625 L 446.171875 348.828125 Z M 435.019531 347.339844 "/>
</g>
</defs>
<g id="surface1">
<path style=" stroke:none;fill-rule:nonzero;fill:rgb(57.254902%,89.019608%,66.27451%);fill-opacity:1;" d="M 291.710938 474.089844 C 248.710938 474.941406 196.761719 462.421875 168.808594 426.929688 C 126.558594 373.308594 74.660156 385.460938 36.058594 274.730469 C 30.351562 258.59375 26.410156 241.886719 24.308594 224.898438 C 23.308594 216.582031 22.839844 208.207031 22.898438 199.828125 C 23.46875 126 67.050781 70.328125 125.308594 44.058594 C 201.929688 9.5 260.71875 49.230469 296.519531 76 C 332.320312 102.769531 433.648438 112 472.449219 220.539062 C 478.445312 237.089844 482.507812 254.277344 484.558594 271.761719 C 489.078125 311.660156 482.019531 356.851562 458.910156 390.628906 C 457.179688 393.171875 455.351562 395.628906 453.460938 398.089844 C 416.410156 445.730469 350.390625 472.929688 291.710938 474.089844 Z M 291.710938 474.089844 "/>
<use xlink:href="#surface5" mask="url(#mask0)"/>
<path style="fill:none;stroke-width:1;stroke-linecap:round;stroke-linejoin:round;stroke:rgb(14.901961%,19.607843%,21.960784%);stroke-opacity:1;stroke-miterlimit:4;" d="M 386.429688 56 C 379.183594 60.847656 375.972656 69.871094 378.519531 78.207031 C 381.066406 86.542969 388.773438 92.226562 397.488281 92.199219 C 400.769531 92.210938 404 91.394531 406.878906 89.828125 "/>
<path style="fill:none;stroke-width:1;stroke-linecap:round;stroke-linejoin:round;stroke:rgb(14.901961%,19.607843%,21.960784%);stroke-opacity:1;stroke-miterlimit:4;" d="M 411 86.859375 C 418.113281 80.210938 419.324219 69.371094 413.855469 61.316406 C 408.386719 53.257812 397.867188 50.382812 389.058594 54.539062 "/>
<path style="fill:none;stroke-width:1;stroke-linecap:round;stroke-linejoin:round;stroke:rgb(14.901961%,19.607843%,21.960784%);stroke-opacity:1;stroke-miterlimit:4;" d="M 397.488281 98.289062 L 397.488281 111.96875 "/>
<path style="fill:none;stroke-width:1;stroke-linecap:round;stroke-linejoin:round;stroke:rgb(14.901961%,19.607843%,21.960784%);stroke-opacity:1;stroke-miterlimit:4;" d="M 397.488281 34.980469 L 397.488281 48.660156 "/>
<path style="fill:none;stroke-width:1;stroke-linecap:round;stroke-linejoin:round;stroke:rgb(14.901961%,19.607843%,21.960784%);stroke-opacity:1;stroke-miterlimit:4;" d="M 373.75 97.21875 L 370.261719 100.699219 "/>
<path style="fill:none;stroke-width:1;stroke-linecap:round;stroke-linejoin:round;stroke:rgb(14.901961%,19.607843%,21.960784%);stroke-opacity:1;stroke-miterlimit:4;" d="M 379.941406 91.019531 L 375.789062 95.179688 "/>
<path style="fill:none;stroke-width:1;stroke-linecap:round;stroke-linejoin:round;stroke:rgb(14.901961%,19.607843%,21.960784%);stroke-opacity:1;stroke-miterlimit:4;" d="M 424.710938 46.25 L 415.03125 55.929688 "/>
<path style="fill:none;stroke-width:1;stroke-linecap:round;stroke-linejoin:round;stroke:rgb(14.901961%,19.607843%,21.960784%);stroke-opacity:1;stroke-miterlimit:4;" d="M 422.300781 73.46875 L 435.988281 73.46875 "/>
<path style="fill:none;stroke-width:1;stroke-linecap:round;stroke-linejoin:round;stroke:rgb(14.901961%,19.607843%,21.960784%);stroke-opacity:1;stroke-miterlimit:4;" d="M 358.988281 73.46875 L 372.679688 73.46875 "/>
<path style="fill:none;stroke-width:1;stroke-linecap:round;stroke-linejoin:round;stroke:rgb(14.901961%,19.607843%,21.960784%);stroke-opacity:1;stroke-miterlimit:4;" d="M 422.140625 98.128906 L 424.710938 100.699219 "/>
<path style="fill:none;stroke-width:1;stroke-linecap:round;stroke-linejoin:round;stroke:rgb(14.901961%,19.607843%,21.960784%);stroke-opacity:1;stroke-miterlimit:4;" d="M 415.03125 91.019531 L 420.949219 96.929688 "/>
<path style="fill:none;stroke-width:1;stroke-linecap:round;stroke-linejoin:round;stroke:rgb(14.901961%,19.607843%,21.960784%);stroke-opacity:1;stroke-miterlimit:4;" d="M 374.660156 50.648438 L 379.941406 55.929688 "/>
<path style="fill:none;stroke-width:1;stroke-linecap:round;stroke-linejoin:round;stroke:rgb(14.901961%,19.607843%,21.960784%);stroke-opacity:1;stroke-miterlimit:4;" d="M 370.261719 46.25 L 372.789062 48.78125 "/>
<use xlink:href="#surface8" mask="url(#mask1)"/>
<use xlink:href="#surface11" mask="url(#mask2)"/>
<path style="fill:none;stroke-width:1;stroke-linecap:round;stroke-linejoin:round;stroke:rgb(69.803922%,69.803922%,69.803922%);stroke-opacity:1;stroke-miterlimit:4;" d="M 43.929688 290.648438 C 75.820312 259.941406 149.929688 189.429688 157.851562 189.429688 C 168.011719 189.429688 235.421875 238.371094 235.421875 238.371094 C 235.421875 238.371094 337 147.871094 349 148.789062 C 361 149.710938 476.441406 276.230469 476.441406 276.230469 "/>
<path style="fill:none;stroke-width:1;stroke-linecap:round;stroke-linejoin:round;stroke:rgb(69.803922%,69.803922%,69.803922%);stroke-opacity:1;stroke-miterlimit:4;" d="M 289.949219 192.671875 L 329.179688 176.980469 L 336.371094 197.898438 L 344.21875 192.671875 L 350.109375 199.859375 L 358.609375 187.441406 L 390.648438 225.371094 L 391.300781 195.941406 L 400.449219 201.820312 L 401.109375 195.941406 "/>
<path style="fill:none;stroke-width:1;stroke-linecap:round;stroke-linejoin:round;stroke:rgb(69.803922%,69.803922%,69.803922%);stroke-opacity:1;stroke-miterlimit:4;" d="M 120.589844 219.480469 L 135.628906 214.898438 L 136.28125 221.441406 L 150.671875 216.871094 L 148.050781 233.871094 L 173.550781 217.519531 L 193.171875 232.558594 L 194.480469 224.058594 L 200.359375 228.628906 L 206.898438 218.171875 "/>
<path style=" stroke:none;fill-rule:nonzero;fill:rgb(57.254902%,89.019608%,66.27451%);fill-opacity:1;" d="M 222.929688 265.21875 C 222.929688 264.808594 222.628906 264.511719 222.328125 264.570312 L 205.160156 268.25 C 204.550781 268.378906 204.308594 267.25 204.871094 266.929688 L 222.171875 257.171875 C 222.390625 257.011719 222.507812 256.75 222.480469 256.480469 C 221.761719 244.011719 220.648438 230.328125 219.199219 216.371094 C 219.199219 215.980469 218.878906 215.710938 218.589844 215.78125 L 203.398438 219.679688 C 202.839844 219.820312 202.539062 218.851562 203.011719 218.429688 L 217.660156 205.109375 C 217.835938 204.929688 217.917969 204.679688 217.878906 204.429688 C 217.101562 197.691406 216.238281 190.949219 215.308594 184.308594 L 214.109375 177.679688 C 214.039062 177.261719 213.699219 177.03125 213.410156 177.199219 L 204.570312 182.070312 C 204.039062 182.359375 203.570312 181.480469 204 180.941406 L 212.800781 169.21875 C 212.933594 169.035156 212.984375 168.804688 212.941406 168.578125 C 211.179688 157.660156 209.238281 147.269531 207.140625 137.921875 C 207.039062 137.480469 206.660156 137.289062 206.371094 137.53125 L 195 146.871094 C 194.519531 147.269531 194 146.5 194.308594 145.871094 L 204.308594 127.171875 C 204.414062 126.972656 204.4375 126.746094 204.378906 126.53125 C 202.855469 120.578125 200.96875 114.722656 198.730469 109 C 198.601562 108.679688 198.308594 108.550781 198.070312 108.699219 L 190.160156 113.328125 C 189.75 113.570312 189.320312 113.058594 189.449219 112.5 L 191.941406 102.5 C 191.941406 102.320312 192.160156 101.589844 192.351562 100.949219 L 193 98.378906 C 191.171875 96.128906 189.289062 94.890625 187.371094 94.890625 C 185.449219 94.890625 183.308594 96.289062 181.371094 98.890625 L 184.320312 112.519531 C 184.449219 113.078125 184.019531 113.589844 183.609375 113.351562 L 176.5 109.179688 C 176.371094 109.113281 176.21875 109.113281 176.089844 109.171875 C 175.960938 109.234375 175.863281 109.351562 175.828125 109.488281 C 173.539062 115.472656 171.613281 121.585938 170.058594 127.800781 C 170.003906 128.015625 170.023438 128.242188 170.121094 128.441406 L 179.488281 145.910156 C 179.820312 146.53125 179.28125 147.300781 178.800781 146.910156 L 168.230469 138.25 C 167.941406 138.011719 167.558594 138.199219 167.460938 138.640625 C 165.351562 148.121094 163.398438 158.640625 161.628906 169.691406 C 161.59375 169.914062 161.648438 170.144531 161.78125 170.328125 L 169.78125 180.980469 C 170.179688 181.519531 169.78125 182.398438 169.21875 182.109375 L 161 177.578125 C 160.699219 177.410156 160.351562 177.648438 160.289062 178.078125 C 158.96875 186.96875 157.78125 196.078125 156.71875 205.238281 C 156.6875 205.484375 156.769531 205.730469 156.941406 205.910156 L 170.71875 218.429688 C 171.179688 218.851562 170.878906 219.820312 170.328125 219.679688 L 156.128906 216 C 155.828125 215.921875 155.550781 216.191406 155.511719 216.578125 C 154.050781 230.660156 152.941406 244.441406 152.230469 256.980469 C 152.195312 257.25 152.316406 257.515625 152.539062 257.671875 L 168.890625 266.898438 C 169.449219 267.21875 169.210938 268.351562 168.601562 268.21875 L 152.398438 264.75 C 152.101562 264.679688 151.820312 264.988281 151.800781 265.398438 C 151.488281 272.609375 151.320312 279.289062 151.320312 285.230469 C 151.320312 288.988281 151.386719 292.601562 151.519531 296.070312 C 151.511719 296.332031 151.648438 296.574219 151.878906 296.699219 L 169 303.871094 C 169.550781 304.101562 169.449219 305.171875 168.878906 305.21875 L 152.730469 306.648438 C 152.386719 306.742188 152.175781 307.082031 152.238281 307.429688 C 152.953125 317.390625 154.730469 327.246094 157.539062 336.828125 C 157.640625 337.171875 157.921875 337.328125 158.179688 337.21875 L 168.101562 332.941406 C 168.609375 332.71875 169 333.550781 168.640625 334.070312 L 160.929688 345 C 160.765625 345.25 160.742188 345.570312 160.871094 345.839844 C 167.449219 360.339844 176.871094 366.609375 187.371094 366.609375 C 197.640625 366.609375 206.910156 360.609375 213.480469 346.691406 C 213.601562 346.414062 213.578125 346.097656 213.421875 345.839844 L 205.160156 334.109375 C 204.800781 333.589844 205.160156 332.761719 205.699219 332.980469 L 216.480469 337.640625 C 216.617188 337.6875 216.765625 337.667969 216.890625 337.59375 C 217.015625 337.519531 217.097656 337.394531 217.121094 337.25 C 219.992188 327.578125 221.804688 317.625 222.53125 307.558594 C 222.59375 307.210938 222.382812 306.871094 222.039062 306.78125 L 204.921875 305.261719 C 204.351562 305.210938 204.25 304.140625 204.800781 303.910156 L 222.660156 296.441406 C 222.847656 296.347656 222.976562 296.167969 223 295.960938 L 223.261719 294.691406 C 223.261719 294.691406 223.261719 294.589844 223.261719 294.539062 C 223.351562 291.539062 223.398438 288.488281 223.398438 285.300781 C 223.421875 279.269531 223.25 272.511719 222.929688 265.21875 Z M 222.929688 265.21875 "/>
<use xlink:href="#surface14" mask="url(#mask3)"/>
<path style=" stroke:none;fill-rule:nonzero;fill:rgb(14.901961%,19.607843%,21.960784%);fill-opacity:1;" d="M 188.800781 314.449219 L 187.699219 251.78125 L 206.960938 235.808594 L 187.550781 243.699219 L 187.191406 223.210938 L 187.03125 223.539062 L 187.148438 220.539062 L 186.628906 191.089844 L 202.578125 176.359375 L 186.941406 185.75 L 186.589844 188.871094 L 185.949219 152.371094 L 185.601562 159.558594 L 183.910156 214.109375 L 183.179688 212.660156 L 170.671875 204.519531 L 183.808594 217.300781 L 181.671875 286.460938 L 161.910156 280.25 L 181.449219 293.679688 L 179.980469 341.179688 L 172.539062 339.699219 L 179.75 348.699219 L 178.941406 374.589844 L 177.960938 428.789062 L 190.808594 428.789062 L 188.898438 320.128906 L 204.460938 316.539062 Z M 188.800781 314.449219 "/>
<use xlink:href="#surface17" mask="url(#mask4)"/>
<path style=" stroke:none;fill-rule:nonzero;fill:rgb(57.254902%,89.019608%,66.27451%);fill-opacity:1;" d="M 115 292.441406 C 115 292.101562 114.75 291.851562 114.5 291.898438 L 100.199219 295 C 99.691406 295.109375 99.488281 294.160156 99.960938 293.898438 L 114.371094 285.761719 C 114.558594 285.636719 114.664062 285.414062 114.640625 285.191406 C 114.039062 274.789062 113.109375 263.390625 111.898438 251.761719 C 111.898438 251.429688 111.640625 251.199219 111.390625 251.269531 L 98.730469 254.511719 C 98.269531 254.628906 98.011719 253.820312 98.398438 253.511719 L 110.621094 242.410156 C 110.765625 242.257812 110.835938 242.050781 110.808594 241.839844 C 110.148438 236.230469 109.429688 230.609375 108.660156 225.070312 L 107.660156 219.539062 C 107.601562 219.199219 107.320312 219.011719 107.070312 219.140625 L 99.699219 223.210938 C 99.269531 223.449219 98.898438 222.710938 99.230469 222.261719 L 106.570312 212.488281 C 106.675781 212.335938 106.71875 212.144531 106.691406 211.960938 C 105.21875 202.851562 103.601562 194.191406 101.851562 186.398438 C 101.769531 186.039062 101.449219 185.878906 101.210938 186.078125 L 91.710938 193.859375 C 91.308594 194.191406 90.859375 193.550781 91.128906 193.039062 L 99.488281 177.449219 C 99.570312 177.285156 99.589844 177.097656 99.539062 176.921875 C 98.269531 171.949219 96.703125 167.058594 94.839844 162.28125 C 94.730469 162.019531 94.488281 161.910156 94.289062 162.03125 L 87.699219 165.898438 C 87.359375 166.101562 87 165.671875 87.109375 165.199219 L 89.179688 156.890625 C 89.179688 156.738281 89.359375 156.128906 89.519531 155.601562 L 90.058594 153.449219 C 88.53125 151.570312 86.96875 150.539062 85.371094 150.539062 C 83.769531 150.539062 81.988281 151.710938 80.371094 153.839844 L 82.828125 165.199219 C 82.941406 165.671875 82.578125 166.101562 82.238281 165.898438 L 76.308594 162.421875 C 76.101562 162.300781 75.859375 162.421875 75.75 162.679688 C 73.847656 167.667969 72.238281 172.761719 70.941406 177.941406 C 70.886719 178.117188 70.910156 178.308594 71 178.46875 L 78.789062 193 C 79.070312 193.511719 78.621094 194.148438 78.21875 193.820312 L 69.410156 186.601562 C 69.160156 186.398438 68.851562 186.601562 68.761719 186.929688 C 67.011719 194.828125 65.378906 203.601562 63.910156 212.808594 C 63.875 212.996094 63.917969 213.1875 64.03125 213.339844 L 70.691406 222.21875 C 71.03125 222.671875 70.691406 223.410156 70.21875 223.171875 L 63.421875 219.421875 C 63.171875 219.28125 62.878906 219.480469 62.828125 219.839844 C 61.730469 227.25 60.738281 234.839844 59.828125 242.46875 C 59.804688 242.664062 59.867188 242.855469 60 243 L 71.480469 253.429688 C 71.871094 253.78125 71.621094 254.589844 71.160156 254.429688 L 59.289062 251.429688 C 59.039062 251.371094 58.808594 251.589844 58.78125 251.921875 C 57.558594 263.648438 56.628906 275.140625 56.039062 285.589844 C 56.011719 285.816406 56.113281 286.039062 56.300781 286.171875 L 70 293.871094 C 70.46875 294.128906 70.269531 295.078125 69.769531 294.96875 L 56.261719 292.078125 C 56.011719 292.019531 55.78125 292.28125 55.761719 292.621094 C 55.5 298.621094 55.359375 304.199219 55.359375 309.148438 C 55.359375 312.28125 55.421875 315.300781 55.53125 318.148438 C 55.519531 318.367188 55.636719 318.570312 55.828125 318.671875 L 70.070312 324.671875 C 70.519531 324.859375 70.441406 325.75 69.96875 325.800781 L 56.460938 327 C 56.210938 327 56.03125 327.320312 56.058594 327.648438 C 56.65625 335.953125 58.132812 344.171875 60.46875 352.160156 C 60.558594 352.441406 60.789062 352.578125 61.011719 352.480469 L 69.269531 348.910156 C 69.699219 348.730469 70.03125 349.421875 69.71875 349.851562 L 63.328125 358.929688 C 63.214844 359.148438 63.214844 359.410156 63.328125 359.628906 C 68.820312 371.71875 76.679688 376.949219 85.421875 376.949219 C 93.980469 376.949219 101.710938 371.949219 107.179688 360.339844 C 107.304688 360.121094 107.304688 359.851562 107.179688 359.628906 L 100.300781 349.851562 C 100 349.421875 100.300781 348.730469 100.75 348.910156 L 109.75 352.789062 C 109.960938 352.890625 110.199219 352.789062 110.28125 352.46875 C 112.675781 344.40625 114.1875 336.109375 114.789062 327.71875 C 114.835938 327.429688 114.660156 327.152344 114.378906 327.070312 L 100 325.789062 C 99.519531 325.738281 99.441406 324.851562 99.898438 324.660156 L 114.789062 318.441406 C 114.945312 318.363281 115.050781 318.210938 115.070312 318.039062 L 115.289062 316.980469 C 115.289062 316.980469 115.289062 316.898438 115.289062 316.851562 C 115.371094 314.371094 115.410156 311.804688 115.410156 309.148438 C 115.421875 304.148438 115.28125 298.519531 115 292.441406 Z M 115 292.441406 "/>
<use xlink:href="#surface20" mask="url(#mask5)"/>
<path style=" stroke:none;fill-rule:nonzero;fill:rgb(14.901961%,19.607843%,21.960784%);fill-opacity:1;" d="M 86.558594 333.480469 L 85.640625 281.238281 L 101.699219 267.929688 L 85.519531 274.5 L 85.21875 257.429688 L 85.089844 257.699219 L 85.191406 255.199219 L 84.75 230.648438 L 98.050781 218.378906 L 85.011719 226.199219 L 84.71875 228.800781 L 84.191406 198.378906 L 83.890625 204.371094 L 82.488281 249.839844 L 81.878906 248.628906 L 71.449219 241.851562 L 82.410156 252.5 L 80.621094 310.148438 L 64.140625 304.96875 L 80.429688 316.171875 L 79.210938 355.761719 L 73.011719 354.519531 L 79.019531 362.03125 L 78.351562 383.621094 L 77.53125 428.789062 L 88.230469 428.789062 L 86.640625 338.21875 L 99.609375 335.21875 Z M 86.558594 333.480469 "/>
<use xlink:href="#surface23" mask="url(#mask6)"/>
<path style=" stroke:none;fill-rule:nonzero;fill:rgb(57.254902%,89.019608%,66.27451%);fill-opacity:1;" d="M 459.328125 312.269531 C 459.328125 311.980469 459.121094 311.761719 458.898438 311.808594 L 446.671875 314.429688 C 446.238281 314.519531 446.070312 313.710938 446.46875 313.488281 L 458.789062 306.488281 C 458.941406 306.375 459.019531 306.1875 459 306 C 458.488281 297.121094 457.699219 287.371094 456.671875 277.429688 C 456.671875 277.148438 456.441406 276.960938 456.230469 277.011719 L 445.410156 279.789062 C 445.011719 279.890625 444.800781 279.199219 445.128906 278.898438 L 455.570312 269.410156 C 455.695312 269.28125 455.753906 269.105469 455.730469 268.929688 C 455.171875 264.128906 454.550781 259.328125 453.890625 254.601562 L 453.039062 249.871094 C 452.988281 249.570312 452.75 249.410156 452.539062 249.53125 L 446.238281 253 C 445.871094 253.210938 445.550781 252.578125 445.839844 252.199219 L 452.109375 243.839844 C 452.199219 243.707031 452.234375 243.546875 452.210938 243.390625 C 450.949219 235.609375 449.570312 228.210938 448.070312 221.550781 C 448 221.230469 447.730469 221.101562 447.519531 221.269531 L 439.421875 228 C 439.070312 228.289062 438.691406 227.738281 438.921875 227.300781 L 446.058594 213.980469 C 446.132812 213.839844 446.148438 213.675781 446.109375 213.519531 C 445.03125 209.277344 443.695312 205.101562 442.109375 201.019531 C 442.085938 200.921875 442.019531 200.839844 441.929688 200.796875 C 441.835938 200.753906 441.730469 200.753906 441.640625 200.800781 L 436.011719 204.101562 C 435.71875 204.269531 435.410156 203.910156 435.511719 203.511719 L 437.269531 196.410156 C 437.269531 196.28125 437.429688 195.761719 437.570312 195.300781 L 438.03125 193.46875 C 436.71875 191.859375 435.378906 190.980469 434.03125 190.980469 C 432.679688 190.980469 431.140625 191.980469 429.75 193.800781 L 431.851562 203.511719 C 431.941406 203.910156 431.640625 204.269531 431.351562 204.101562 L 426.28125 201.101562 C 426.191406 201.050781 426.082031 201.046875 425.988281 201.085938 C 425.894531 201.128906 425.824219 201.210938 425.800781 201.308594 C 424.171875 205.574219 422.800781 209.933594 421.691406 214.359375 C 421.632812 214.503906 421.632812 214.664062 421.691406 214.808594 L 428.359375 227.261719 C 428.601562 227.699219 428.210938 228.261719 427.871094 227.960938 L 420.339844 221.789062 C 420.128906 221.621094 419.859375 221.789062 419.789062 222.070312 C 418.289062 228.820312 416.898438 236.320312 415.640625 244.191406 C 415.609375 244.351562 415.644531 244.515625 415.738281 244.648438 L 421.441406 252.238281 C 421.71875 252.621094 421.441406 253.238281 421.03125 253.039062 L 415.21875 249.839844 C 415.011719 249.71875 414.761719 249.839844 414.71875 250.199219 C 413.78125 256.53125 412.929688 263.039062 412.179688 269.539062 C 412.148438 269.714844 412.207031 269.894531 412.328125 270.019531 L 422.148438 278.941406 C 422.480469 279.238281 422.261719 279.941406 421.871094 279.828125 L 411.71875 277.230469 C 411.519531 277.171875 411.320312 277.371094 411.289062 277.648438 C 410.289062 287.648438 409.449219 297.488281 408.949219 306.429688 C 408.925781 306.617188 409.011719 306.804688 409.171875 306.910156 L 420.808594 313.488281 C 421.21875 313.710938 421.039062 314.488281 420.609375 314.429688 L 409.089844 312 C 408.878906 312 408.679688 312.171875 408.660156 312.460938 C 408.441406 317.601562 408.320312 322.359375 408.320312 326.578125 C 408.320312 329.269531 408.371094 331.839844 408.460938 334.308594 C 408.457031 334.496094 408.554688 334.671875 408.71875 334.761719 L 420.890625 339.839844 C 421.28125 340 421.210938 340.769531 420.800781 340.839844 L 409.289062 341.839844 C 409.078125 341.839844 408.929688 342.109375 408.949219 342.390625 C 409.460938 349.484375 410.722656 356.503906 412.71875 363.328125 C 412.734375 363.433594 412.796875 363.523438 412.882812 363.578125 C 412.972656 363.632812 413.082031 363.644531 413.179688 363.609375 L 420.238281 360.558594 C 420.609375 360.398438 420.890625 360.988281 420.628906 361.371094 L 415.171875 369.128906 C 415.046875 369.304688 415.03125 369.527344 415.121094 369.71875 C 419.808594 380.050781 426.53125 384.519531 434 384.519531 C 441.320312 384.519531 447.921875 380.21875 452.601562 370.328125 C 452.703125 370.140625 452.703125 369.910156 452.601562 369.71875 L 446.71875 361.371094 C 446.460938 360.988281 446.71875 360.371094 447.101562 360.558594 L 454.78125 363.878906 C 454.960938 363.960938 455.160156 363.878906 455.238281 363.601562 C 457.28125 356.710938 458.574219 349.617188 459.089844 342.449219 C 459.136719 342.203125 458.980469 341.964844 458.738281 341.898438 L 446.539062 340.808594 C 446.128906 340.808594 446.070312 340.011719 446.460938 339.808594 L 459.179688 334.488281 C 459.3125 334.421875 459.402344 334.296875 459.429688 334.148438 L 459.609375 333.25 C 459.609375 333.25 459.609375 333.179688 459.609375 333.140625 C 459.671875 331.019531 459.710938 328.828125 459.710938 326.550781 C 459.679688 322.28125 459.558594 317.46875 459.328125 312.269531 Z M 459.328125 312.269531 "/>
<use xlink:href="#surface26" mask="url(#mask7)"/>
<path style=" stroke:none;fill-rule:nonzero;fill:rgb(14.901961%,19.607843%,21.960784%);fill-opacity:1;" d="M 435.019531 347.339844 L 434.230469 302.691406 L 447.960938 291.320312 L 434.128906 296.941406 L 433.878906 282.339844 L 433.761719 282.578125 L 433.839844 280.441406 L 433.46875 259.460938 L 444.839844 248.96875 L 433.691406 255.660156 L 433.441406 257.878906 L 432.988281 231.878906 L 432.738281 237.011719 L 431.539062 275.859375 L 431.019531 274.828125 L 422.101562 269.03125 L 431.46875 278.140625 L 429.941406 327.398438 L 415.859375 322.96875 L 429.78125 332.550781 L 428.738281 366.378906 L 423.441406 365.320312 L 428.570312 371.738281 L 428 390.179688 L 427.300781 428.789062 L 436.449219 428.789062 L 435.089844 351.390625 L 446.171875 348.828125 Z M 435.019531 347.339844 "/>
<use xlink:href="#surface29" mask="url(#mask8)"/>
<path style="fill-rule:nonzero;fill:rgb(14.901961%,19.607843%,21.960784%);fill-opacity:1;stroke-width:1;stroke-linecap:round;stroke-linejoin:round;stroke:rgb(14.901961%,19.607843%,21.960784%);stroke-opacity:1;stroke-miterlimit:4;" d="M 369.609375 382.25 L 361.421875 382.25 L 361.300781 382.429688 C 360.597656 382.316406 359.890625 382.253906 359.179688 382.25 C 349.179688 382.25 341.101562 392.671875 341.101562 405.519531 C 341.101562 418.371094 349.199219 428.789062 359.179688 428.789062 C 359.898438 428.789062 365.828125 428.71875 366.53125 428.621094 L 361.421875 428.789062 L 369.609375 428.789062 C 379.609375 428.789062 387.691406 418.371094 387.691406 405.519531 C 387.691406 392.671875 379.601562 382.25 369.609375 382.25 Z M 369.609375 382.25 "/>
<path style="fill-rule:nonzero;fill:rgb(14.901961%,19.607843%,21.960784%);fill-opacity:1;stroke-width:1;stroke-linecap:round;stroke-linejoin:round;stroke:rgb(14.901961%,19.607843%,21.960784%);stroke-opacity:1;stroke-miterlimit:4;" d="M 201.820312 382.25 L 193.621094 382.25 L 193.511719 382.429688 C 192.808594 382.316406 192.101562 382.253906 191.390625 382.25 C 181.390625 382.25 173.300781 392.671875 173.300781 405.519531 C 173.300781 418.371094 181.398438 428.789062 191.390625 428.789062 C 192.101562 428.785156 192.808594 428.726562 193.511719 428.621094 L 193.621094 428.789062 L 201.820312 428.789062 C 211.820312 428.789062 219.898438 418.371094 219.898438 405.519531 C 219.898438 392.671875 211.800781 382.25 201.820312 382.25 Z M 201.820312 382.25 "/>
<path style="fill-rule:nonzero;fill:rgb(57.254902%,89.019608%,66.27451%);fill-opacity:1;stroke-width:1;stroke-linecap:round;stroke-linejoin:round;stroke:rgb(14.901961%,19.607843%,21.960784%);stroke-opacity:1;stroke-miterlimit:4;" d="M 447.558594 382.941406 L 443.628906 382.941406 L 440.109375 358.25 C 439.683594 355.257812 437.132812 353.03125 434.109375 353.011719 L 412 353.011719 L 376.21875 315.011719 C 372.351562 310.898438 366.957031 308.570312 361.308594 308.570312 L 266.511719 308.570312 C 262.375 308.570312 258.421875 310.257812 255.558594 313.238281 L 92.671875 382 L 92.671875 411 L 336.890625 411 L 398.179688 410.570312 L 443.628906 407.570312 L 443.628906 407.359375 L 447.371094 407.359375 C 448.191406 407.359375 448.859375 406.691406 448.859375 405.871094 L 448.859375 384.238281 C 448.859375 383.523438 448.277344 382.941406 447.558594 382.941406 Z M 447.558594 382.941406 "/>
<path style="fill:none;stroke-width:1;stroke-linecap:round;stroke-linejoin:round;stroke:rgb(14.901961%,19.607843%,21.960784%);stroke-opacity:1;stroke-miterlimit:4;" d="M 384.140625 313.730469 L 399.519531 313.730469 "/>
<path style="fill:none;stroke-width:1;stroke-linecap:round;stroke-linejoin:round;stroke:rgb(14.901961%,19.607843%,21.960784%);stroke-opacity:1;stroke-miterlimit:4;" d="M 393.371094 327.058594 L 455.378906 327.058594 "/>
<path style="fill:none;stroke-width:1;stroke-linecap:round;stroke-linejoin:round;stroke:rgb(14.901961%,19.607843%,21.960784%);stroke-opacity:1;stroke-miterlimit:4;" d="M 445.640625 363.960938 L 460.5 363.960938 "/>
<path style="fill:none;stroke-width:1;stroke-linecap:round;stroke-linejoin:round;stroke:rgb(14.901961%,19.607843%,21.960784%);stroke-opacity:1;stroke-miterlimit:4;" d="M 452.820312 405.46875 L 471.75 405.46875 "/>
<path style="fill-rule:nonzero;fill:rgb(14.901961%,19.607843%,21.960784%);fill-opacity:1;stroke-width:1;stroke-linecap:round;stroke-linejoin:round;stroke:rgb(14.901961%,19.607843%,21.960784%);stroke-opacity:1;stroke-miterlimit:4;" d="M 378.179688 406.609375 L 378.179688 410.78125 L 398.179688 410.640625 L 443.628906 407.640625 L 443.628906 407.429688 L 447.371094 407.429688 C 447.9375 407.421875 448.449219 407.097656 448.699219 406.589844 Z M 378.179688 406.609375 "/>
<path style="fill-rule:nonzero;fill:rgb(14.901961%,19.607843%,21.960784%);fill-opacity:1;stroke-width:1;stroke-linecap:round;stroke-linejoin:round;stroke:rgb(14.901961%,19.607843%,21.960784%);stroke-opacity:1;stroke-miterlimit:4;" d="M 398.179688 410.640625 C 399.007812 410.613281 399.660156 409.921875 399.636719 409.09375 C 399.609375 408.265625 398.917969 407.613281 398.089844 407.640625 L 375.089844 407.640625 L 290.089844 308.578125 L 266.511719 308.578125 C 262.375 308.582031 258.421875 310.269531 255.558594 313.25 L 92.671875 382 L 92.671875 411 L 336.890625 411 Z M 398.179688 410.640625 "/>
<path style="fill-rule:nonzero;fill:rgb(14.901961%,19.607843%,21.960784%);fill-opacity:1;stroke-width:1;stroke-linecap:round;stroke-linejoin:round;stroke:rgb(14.901961%,19.607843%,21.960784%);stroke-opacity:1;stroke-miterlimit:4;" d="M 130.730469 382.25 L 122.53125 382.25 L 117.160156 390.140625 C 111.132812 399.511719 111.132812 411.539062 117.160156 420.910156 L 122.53125 428.789062 L 130.730469 428.789062 C 140.730469 428.789062 148.808594 418.371094 148.808594 405.519531 C 148.808594 392.671875 140.71875 382.25 130.730469 382.25 Z M 130.730469 382.25 "/>
<path style="fill-rule:nonzero;fill:rgb(38.823529%,38.823529%,38.823529%);fill-opacity:1;stroke-width:1;stroke-linecap:round;stroke-linejoin:round;stroke:rgb(14.901961%,19.607843%,21.960784%);stroke-opacity:1;stroke-miterlimit:4;" d="M 138.378906 405.519531 C 138.378906 392.667969 130.285156 382.25 120.300781 382.25 C 110.316406 382.25 102.21875 392.667969 102.21875 405.519531 C 102.21875 418.371094 110.316406 428.789062 120.300781 428.789062 C 130.285156 428.789062 138.378906 418.371094 138.378906 405.519531 Z M 138.378906 405.519531 "/>
<path style="fill-rule:nonzero;fill:rgb(100%,100%,100%);fill-opacity:1;stroke-width:1;stroke-linecap:round;stroke-linejoin:round;stroke:rgb(14.901961%,19.607843%,21.960784%);stroke-opacity:1;stroke-miterlimit:4;" d="M 134.730469 405.519531 C 134.730469 395.269531 128.269531 386.960938 120.300781 386.960938 C 112.332031 386.960938 105.871094 395.269531 105.871094 405.519531 C 105.871094 415.769531 112.332031 424.078125 120.300781 424.078125 C 128.269531 424.078125 134.730469 415.769531 134.730469 405.519531 Z M 134.730469 405.519531 "/>
<path style="fill-rule:nonzero;fill:rgb(100%,100%,100%);fill-opacity:1;stroke-width:1;stroke-linecap:round;stroke-linejoin:round;stroke:rgb(14.901961%,19.607843%,21.960784%);stroke-opacity:1;stroke-miterlimit:4;" d="M 123.351562 405.519531 C 123.351562 407.691406 121.980469 409.449219 120.351562 409.449219 C 118.71875 409.449219 117.351562 407.691406 117.351562 405.519531 C 117.351562 403.351562 118.71875 401.601562 120.351562 401.601562 C 121.980469 401.601562 123.351562 403.359375 123.351562 405.519531 Z M 123.351562 405.519531 "/>
<path style="fill-rule:nonzero;fill:rgb(14.901961%,19.607843%,21.960784%);fill-opacity:1;stroke-width:1;stroke-linecap:round;stroke-linejoin:round;stroke:rgb(14.901961%,19.607843%,21.960784%);stroke-opacity:1;stroke-miterlimit:4;" d="M 313.25 382.25 L 305.058594 382.25 L 299.691406 390.140625 C 293.664062 399.511719 293.664062 411.539062 299.691406 420.910156 L 305.058594 428.789062 L 313.25 428.789062 C 323.25 428.789062 331.339844 418.371094 331.339844 405.519531 C 331.339844 392.671875 323.238281 382.25 313.25 382.25 Z M 313.25 382.25 "/>
<path style="fill-rule:nonzero;fill:rgb(38.823529%,38.823529%,38.823529%);fill-opacity:1;stroke-width:1;stroke-linecap:round;stroke-linejoin:round;stroke:rgb(14.901961%,19.607843%,21.960784%);stroke-opacity:1;stroke-miterlimit:4;" d="M 320.910156 405.519531 C 320.910156 392.667969 312.816406 382.25 302.828125 382.25 C 292.84375 382.25 284.75 392.667969 284.75 405.519531 C 284.75 418.371094 292.84375 428.789062 302.828125 428.789062 C 312.816406 428.789062 320.910156 418.371094 320.910156 405.519531 Z M 320.910156 405.519531 "/>
<path style="fill-rule:nonzero;fill:rgb(100%,100%,100%);fill-opacity:1;stroke-width:1;stroke-linecap:round;stroke-linejoin:round;stroke:rgb(14.901961%,19.607843%,21.960784%);stroke-opacity:1;stroke-miterlimit:4;" d="M 317.261719 405.519531 C 317.261719 395.269531 310.800781 386.960938 302.828125 386.960938 C 294.859375 386.960938 288.398438 395.269531 288.398438 405.519531 C 288.398438 415.769531 294.859375 424.078125 302.828125 424.078125 C 310.800781 424.078125 317.261719 415.769531 317.261719 405.519531 Z M 317.261719 405.519531 "/>
<path style="fill-rule:nonzero;fill:rgb(100%,100%,100%);fill-opacity:1;stroke-width:1;stroke-linecap:round;stroke-linejoin:round;stroke:rgb(14.901961%,19.607843%,21.960784%);stroke-opacity:1;stroke-miterlimit:4;" d="M 305.871094 405.519531 C 305.871094 407.691406 304.511719 409.449219 302.871094 409.449219 C 301.230469 409.449219 299.820312 407.691406 299.820312 405.519531 C 299.820312 403.351562 301.179688 401.601562 302.871094 401.601562 C 304.558594 401.601562 305.871094 403.359375 305.871094 405.519531 Z M 305.871094 405.519531 "/>
<path style="fill-rule:nonzero;fill:rgb(14.901961%,19.607843%,21.960784%);fill-opacity:1;stroke-width:1;stroke-linecap:round;stroke-linejoin:round;stroke:rgb(14.901961%,19.607843%,21.960784%);stroke-opacity:1;stroke-miterlimit:4;" d="M 376.261719 315 C 375.96875 314.691406 375.648438 314.410156 375.339844 314.109375 L 301.460938 314.109375 L 301.460938 350.621094 L 409.828125 350.621094 Z M 376.261719 315 "/>
<path style="fill-rule:nonzero;fill:rgb(57.254902%,89.019608%,66.27451%);fill-opacity:1;stroke-width:1;stroke-linecap:round;stroke-linejoin:round;stroke:rgb(14.901961%,19.607843%,21.960784%);stroke-opacity:1;stroke-miterlimit:4;" d="M 384.75 382.941406 L 380.441406 382.941406 L 376.171875 353 L 348.851562 353 L 313.078125 315 C 309.207031 310.890625 303.808594 308.5625 298.160156 308.558594 L 211.101562 308.558594 C 206.96875 308.5625 203.015625 310.25 200.148438 313.230469 L 144.550781 350.410156 L 93.101562 372.648438 L 85.101562 383.460938 C 83.140625 386.125 82.085938 389.351562 82.101562 392.660156 L 82.101562 411.070312 L 98.21875 411.070312 L 98.21875 404.941406 C 98.21875 389.941406 109.140625 377.769531 122.589844 377.769531 C 134.589844 377.769531 142.039062 387.5 143.910156 400.699219 L 145.378906 411.070312 L 281 411.070312 L 281 404.941406 C 281 389.941406 287.160156 377.769531 303.710938 377.769531 C 318.449219 377.769531 323.710938 387.5 326.019531 400.699219 L 327.75 410.640625 L 380.480469 407.640625 L 380.480469 407.429688 L 384.789062 407.429688 Z M 384.75 382.941406 "/>
<path style="fill-rule:nonzero;fill:rgb(14.901961%,19.607843%,21.960784%);fill-opacity:1;stroke-width:1;stroke-linecap:round;stroke-linejoin:round;stroke:rgb(14.901961%,19.607843%,21.960784%);stroke-opacity:1;stroke-miterlimit:4;" d="M 227.140625 358.328125 L 236.800781 358.328125 L 236.800781 362.199219 L 227.140625 362.199219 Z M 227.140625 358.328125 "/>
<path style="fill-rule:nonzero;fill:rgb(14.901961%,19.607843%,21.960784%);fill-opacity:1;stroke-width:1;stroke-linecap:round;stroke-linejoin:round;stroke:rgb(14.901961%,19.607843%,21.960784%);stroke-opacity:1;stroke-miterlimit:4;" d="M 200.621094 318.75 L 152.878906 350.449219 L 242.109375 350.449219 L 242.109375 314.578125 L 210.511719 314.578125 C 206.785156 314.578125 203.21875 316.082031 200.621094 318.75 Z M 200.621094 318.75 "/>
<path style="fill-rule:nonzero;fill:rgb(43.137255%,43.137255%,43.137255%);fill-opacity:1;stroke-width:1;stroke-linecap:round;stroke-linejoin:round;stroke:rgb(14.901961%,19.607843%,21.960784%);stroke-opacity:1;stroke-miterlimit:4;" d="M 191.21875 350.308594 C 191.125 349.820312 191.074219 349.320312 191.070312 348.820312 C 191.214844 344.820312 194.503906 341.652344 198.503906 341.652344 C 202.507812 341.652344 205.792969 344.820312 205.941406 348.820312 C 205.941406 349.320312 205.890625 349.820312 205.789062 350.308594 L 209.921875 350.308594 C 209.988281 349.816406 210.023438 349.320312 210.03125 348.820312 C 209.671875 342.730469 204.628906 337.980469 198.53125 337.980469 C 192.429688 337.980469 187.390625 342.730469 187.03125 348.820312 C 187.03125 349.316406 187.066406 349.816406 187.128906 350.308594 Z M 191.21875 350.308594 "/>
<path style="fill-rule:nonzero;fill:rgb(100%,100%,100%);fill-opacity:1;stroke-width:1;stroke-linecap:round;stroke-linejoin:round;stroke:rgb(14.901961%,19.607843%,21.960784%);stroke-opacity:1;stroke-miterlimit:4;" d="M 221.550781 326.351562 L 218.199219 330.808594 L 220.058594 331.921875 L 222.660156 339.71875 L 227.871094 338.609375 L 228.238281 341.578125 L 236.039062 338.609375 L 232.699219 333.78125 L 228.238281 333.410156 Z M 221.550781 326.351562 "/>
<path style="fill-rule:nonzero;fill:rgb(100%,100%,100%);fill-opacity:1;stroke-width:1;stroke-linecap:round;stroke-linejoin:round;stroke:rgb(14.901961%,19.607843%,21.960784%);stroke-opacity:1;stroke-miterlimit:4;" d="M 224.890625 317.050781 L 223 319.660156 C 223 319.660156 208.140625 325.96875 212.601562 327.089844 C 217.058594 328.210938 230.441406 327.828125 233.410156 327.828125 C 236.378906 327.828125 241.960938 328.199219 241.960938 328.199219 L 235.960938 322.628906 L 228.53125 321.140625 Z M 224.890625 317.050781 "/>
<path style="fill-rule:nonzero;fill:rgb(100%,100%,100%);fill-opacity:1;stroke-width:1;stroke-linecap:round;stroke-linejoin:round;stroke:rgb(14.901961%,19.607843%,21.960784%);stroke-opacity:1;stroke-miterlimit:4;" d="M 222.289062 350.5 L 219 354.589844 C 219 354.589844 207.101562 348.269531 204.5 347.898438 C 201.898438 347.53125 198.21875 350.660156 198.21875 350.660156 C 200.246094 350.46875 202.285156 350.429688 204.320312 350.550781 C 207.71875 350.660156 204.550781 352.660156 219.320312 365.371094 C 220.449219 366.371094 222.101562 365.78125 223.03125 364.621094 C 223.960938 363.460938 230.101562 353.46875 230.101562 353.46875 Z M 222.289062 350.5 "/>
<path style="fill-rule:nonzero;fill:rgb(100%,100%,100%);fill-opacity:1;stroke-width:1;stroke-linecap:round;stroke-linejoin:round;stroke:rgb(14.901961%,19.607843%,21.960784%);stroke-opacity:1;stroke-miterlimit:4;" d="M 230.089844 339.351562 L 238.25 336 L 240 338.75 L 233 342 Z M 230.089844 339.351562 "/>
<path style="fill-rule:nonzero;fill:rgb(100%,100%,100%);fill-opacity:1;stroke-width:1;stroke-linecap:round;stroke-linejoin:round;stroke:rgb(14.901961%,19.607843%,21.960784%);stroke-opacity:1;stroke-miterlimit:4;" d="M 236.070312 345.558594 C 236.296875 343.960938 235.710938 342.351562 234.511719 341.269531 C 233.21875 340.109375 231.511719 338.949219 230.101562 339.351562 C 227.488281 340.101562 218.351562 354.640625 218.351562 354.640625 L 230.671875 362.75 Z M 236.070312 345.558594 "/>
<path style="fill-rule:nonzero;fill:rgb(100%,100%,100%);fill-opacity:1;stroke-width:1;stroke-linecap:round;stroke-linejoin:round;stroke:rgb(14.901961%,19.607843%,21.960784%);stroke-opacity:1;stroke-miterlimit:4;" d="M 200.691406 336.21875 L 196.460938 337.839844 L 199.878906 338.839844 L 201.011719 341.28125 L 198.898438 341.929688 C 198.898438 341.929688 200.53125 343.550781 201.179688 343.550781 C 202.109375 343.445312 203.03125 343.28125 203.941406 343.058594 L 211.089844 350.539062 L 220.25 350.539062 L 206.5 341 L 203 336.871094 Z M 200.691406 336.21875 "/>
<path style="fill-rule:nonzero;fill:rgb(14.901961%,19.607843%,21.960784%);fill-opacity:1;stroke-width:1;stroke-linecap:round;stroke-linejoin:round;stroke:rgb(14.901961%,19.607843%,21.960784%);stroke-opacity:1;stroke-miterlimit:4;" d="M 310.101562 320.421875 L 330.398438 341.179688 C 331.074219 341.875 331.550781 342.734375 331.789062 343.671875 C 332.195312 345.300781 331.828125 347.023438 330.796875 348.347656 C 329.765625 349.671875 328.179688 350.449219 326.5 350.449219 L 248.089844 350.449219 L 248.089844 314.578125 L 296.21875 314.578125 C 301.441406 314.582031 306.445312 316.6875 310.101562 320.421875 Z M 310.101562 320.421875 "/>
<path style="fill-rule:nonzero;fill:rgb(100%,100%,100%);fill-opacity:1;stroke-width:1;stroke-linecap:round;stroke-linejoin:round;stroke:rgb(14.901961%,19.607843%,21.960784%);stroke-opacity:1;stroke-miterlimit:4;" d="M 291.078125 314.578125 L 283.199219 314.578125 L 254.898438 350.449219 L 262.78125 350.449219 Z M 291.078125 314.578125 "/>
<path style="fill-rule:nonzero;fill:rgb(100%,100%,100%);fill-opacity:1;stroke-width:1;stroke-linecap:round;stroke-linejoin:round;stroke:rgb(14.901961%,19.607843%,21.960784%);stroke-opacity:1;stroke-miterlimit:4;" d="M 248.089844 317.121094 L 248.089844 345.761719 L 272.691406 314.578125 L 250.089844 314.578125 Z M 248.089844 317.121094 "/>
<path style="fill-rule:nonzero;fill:rgb(57.254902%,89.019608%,66.27451%);fill-opacity:1;stroke-width:1;stroke-linecap:round;stroke-linejoin:round;stroke:rgb(14.901961%,19.607843%,21.960784%);stroke-opacity:1;stroke-miterlimit:4;" d="M 376.171875 353 L 434.070312 353 C 437.09375 353.019531 439.644531 355.25 440.070312 358.238281 L 443.589844 382.929688 L 380.441406 382.929688 Z M 376.171875 353 "/>
<path style="fill-rule:nonzero;fill:rgb(100%,100%,100%);fill-opacity:1;stroke-width:1;stroke-linecap:round;stroke-linejoin:round;stroke:rgb(14.901961%,19.607843%,21.960784%);stroke-opacity:1;stroke-miterlimit:4;" d="M 403.671875 366.5 L 431.128906 366.5 L 431.128906 377.78125 L 403.671875 377.78125 Z M 403.671875 366.5 "/>
<path style="fill:none;stroke-width:2;stroke-linecap:round;stroke-linejoin:round;stroke:rgb(14.901961%,19.607843%,21.960784%);stroke-opacity:1;stroke-miterlimit:4;" d="M 446.648438 387.550781 L 329 387.550781 "/>
<path style="fill:none;stroke-width:2;stroke-linecap:round;stroke-linejoin:round;stroke:rgb(14.901961%,19.607843%,21.960784%);stroke-opacity:1;stroke-miterlimit:4;" d="M 276.421875 387.550781 L 146.039062 387.550781 "/>
<path style="fill:none;stroke-width:2;stroke-linecap:round;stroke-linejoin:round;stroke:rgb(14.901961%,19.607843%,21.960784%);stroke-opacity:1;stroke-miterlimit:4;" d="M 102.75 387.550781 L 87.828125 387.550781 "/>
<path style="fill-rule:nonzero;fill:rgb(100%,100%,100%);fill-opacity:1;stroke-width:1;stroke-linecap:round;stroke-linejoin:round;stroke:rgb(14.901961%,19.607843%,21.960784%);stroke-opacity:1;stroke-miterlimit:4;" d="M 398.929688 366.691406 L 373 366.691406 C 370.550781 366.6875 368.316406 368.070312 367.21875 370.261719 L 362.878906 378.941406 C 362.476562 379.75 362.523438 380.707031 363 381.476562 C 363.476562 382.242188 364.316406 382.710938 365.21875 382.710938 L 398.941406 382.710938 Z M 398.929688 366.691406 "/>
<path style="fill-rule:nonzero;fill:rgb(14.901961%,19.607843%,21.960784%);fill-opacity:1;stroke-width:1;stroke-linecap:round;stroke-linejoin:round;stroke:rgb(14.901961%,19.607843%,21.960784%);stroke-opacity:1;stroke-miterlimit:4;" d="M 398.929688 366.691406 L 378.03125 366.691406 L 380.308594 382.710938 L 398.929688 382.710938 Z M 398.929688 366.691406 "/>
<path style="fill-rule:nonzero;fill:rgb(14.901961%,19.607843%,21.960784%);fill-opacity:1;stroke-width:1;stroke-linecap:round;stroke-linejoin:round;stroke:rgb(14.901961%,19.607843%,21.960784%);stroke-opacity:1;stroke-miterlimit:4;" d="M 441.21875 366.691406 L 434.890625 366.691406 L 434.800781 382.710938 L 443.5 382.710938 Z M 441.21875 366.691406 "/>
<path style="fill-rule:nonzero;fill:rgb(14.901961%,19.607843%,21.960784%);fill-opacity:1;stroke-width:1;stroke-linecap:round;stroke-linejoin:round;stroke:rgb(14.901961%,19.607843%,21.960784%);stroke-opacity:1;stroke-miterlimit:4;" d="M 145.910156 342.96875 L 158.558594 342.96875 C 159.664062 342.96875 160.558594 343.867188 160.558594 344.96875 L 160.558594 355.058594 C 160.558594 356.164062 159.664062 357.058594 158.558594 357.058594 L 145.910156 357.058594 C 144.804688 357.058594 143.910156 356.164062 143.910156 355.058594 L 143.910156 344.96875 C 143.910156 343.867188 144.804688 342.96875 145.910156 342.96875 Z M 145.910156 342.96875 "/>
<path style="fill:none;stroke-width:1;stroke-linecap:round;stroke-linejoin:round;stroke:rgb(14.901961%,19.607843%,21.960784%);stroke-opacity:1;stroke-miterlimit:4;" d="M 243.820312 354.5 L 243.820312 403.179688 "/>
<path style="fill:none;stroke-width:1;stroke-linecap:round;stroke-linejoin:round;stroke:rgb(14.901961%,19.607843%,21.960784%);stroke-opacity:1;stroke-miterlimit:4;" d="M 135.578125 376.28125 C 135.578125 376.28125 147.308594 382.890625 148.808594 405.519531 L 273.28125 405.519531 "/>
<path style="fill:none;stroke-width:1;stroke-linecap:round;stroke-linejoin:round;stroke:rgb(14.901961%,19.607843%,21.960784%);stroke-opacity:1;stroke-miterlimit:4;" d="M 332.199219 385.878906 C 332.199219 385.878906 326.070312 369.878906 305.539062 369.878906 C 291.230469 369.878906 284.390625 377.398438 280.960938 383.328125 "/>
<path style="fill-rule:nonzero;fill:rgb(14.901961%,19.607843%,21.960784%);fill-opacity:1;stroke-width:1;stroke-linecap:round;stroke-linejoin:round;stroke:rgb(14.901961%,19.607843%,21.960784%);stroke-opacity:1;stroke-miterlimit:4;" d="M 220.960938 304.761719 L 356.421875 304.761719 L 356.421875 308.191406 L 220.960938 308.191406 Z M 220.960938 304.761719 "/>
<path style="fill-rule:nonzero;fill:rgb(100%,100%,100%);fill-opacity:1;stroke-width:1;stroke-linecap:round;stroke-linejoin:round;stroke:rgb(14.901961%,19.607843%,21.960784%);stroke-opacity:1;stroke-miterlimit:4;" d="M 275.601562 283.601562 C 275.601562 283.601562 253.300781 284.089844 240.351562 284.089844 C 227.398438 284.089844 225.609375 282.089844 225.96875 284.589844 C 226.328125 287.089844 226.691406 304.410156 226.691406 304.410156 L 275.960938 304.898438 Z M 275.601562 283.601562 "/>
<path style="fill-rule:nonzero;fill:rgb(100%,100%,100%);fill-opacity:1;stroke-width:1;stroke-linecap:round;stroke-linejoin:round;stroke:rgb(14.901961%,19.607843%,21.960784%);stroke-opacity:1;stroke-miterlimit:4;" d="M 265.820312 288.410156 L 270.648438 288.410156 L 270.648438 295.328125 L 265.820312 295.328125 Z M 265.820312 288.410156 "/>
<path style="fill-rule:nonzero;fill:rgb(100%,100%,100%);fill-opacity:1;stroke-width:1;stroke-linecap:round;stroke-linejoin:round;stroke:rgb(14.901961%,19.607843%,21.960784%);stroke-opacity:1;stroke-miterlimit:4;" d="M 229.230469 288.410156 L 234.058594 288.410156 L 234.058594 295.328125 L 229.230469 295.328125 Z M 229.230469 288.410156 "/>
<path style="fill-rule:nonzero;fill:rgb(14.901961%,19.607843%,21.960784%);fill-opacity:1;stroke-width:1;stroke-linecap:round;stroke-linejoin:round;stroke:rgb(14.901961%,19.607843%,21.960784%);stroke-opacity:1;stroke-miterlimit:4;" d="M 275.601562 283.601562 C 275.601562 283.601562 300.769531 284.601562 309.039062 283.601562 C 317.308594 282.601562 318.390625 282.601562 318.390625 284.601562 C 318.390625 286.601562 318.75 305.410156 318.75 305.410156 L 276 304.898438 Z M 275.601562 283.601562 "/>
<path style="fill-rule:nonzero;fill:rgb(14.901961%,19.607843%,21.960784%);fill-opacity:1;stroke-width:1;stroke-linecap:round;stroke-linejoin:round;stroke:rgb(14.901961%,19.607843%,21.960784%);stroke-opacity:1;stroke-miterlimit:4;" d="M 226.410156 292.429688 L 275.46875 292.148438 "/>
<path style="fill:none;stroke-width:1;stroke-linecap:round;stroke-linejoin:round;stroke:rgb(100%,100%,100%);stroke-opacity:1;stroke-miterlimit:4;" d="M 277.078125 292.710938 L 317.898438 292.710938 "/>
<path style="fill-rule:nonzero;fill:rgb(14.901961%,19.607843%,21.960784%);fill-opacity:1;stroke-width:1;stroke-linecap:round;stroke-linejoin:round;stroke:rgb(14.901961%,19.607843%,21.960784%);stroke-opacity:1;stroke-miterlimit:4;" d="M 240.890625 291.871094 L 253.359375 291.871094 L 253.359375 296.578125 L 240.890625 296.578125 Z M 240.890625 291.871094 "/>
<path style="fill-rule:nonzero;fill:rgb(57.254902%,89.019608%,66.27451%);fill-opacity:1;stroke-width:1;stroke-linecap:round;stroke-linejoin:round;stroke:rgb(14.901961%,19.607843%,21.960784%);stroke-opacity:1;stroke-miterlimit:4;" d="M 368.730469 254.429688 C 367.058594 254.160156 365.351562 253.960938 363.640625 253.808594 C 341.511719 251.878906 319.640625 246.808594 297.339844 246.398438 C 279.121094 246.21875 260.929688 247.894531 243.050781 251.398438 C 227.609375 254.300781 210.988281 255.011719 196.839844 262.519531 C 190.261719 266.011719 176.609375 286.050781 190.839844 289.210938 C 196.691406 290.511719 199.949219 284 211.648438 284 C 223.351562 284 373.28125 284.421875 377.179688 283.769531 C 381.078125 283.121094 385.628906 292.21875 391.488281 293.519531 C 397.949219 294.949219 396.28125 281.738281 395.929688 278.519531 C 394.199219 262.820312 382.320312 256.570312 368.730469 254.429688 Z M 368.730469 254.429688 "/>
<path style="fill:none;stroke-width:1;stroke-linecap:round;stroke-linejoin:round;stroke:rgb(14.901961%,19.607843%,21.960784%);stroke-opacity:1;stroke-miterlimit:4;" d="M 374.570312 257.109375 C 374.570312 257.109375 384.320312 259.058594 388.878906 265.558594 C 393.441406 272.058594 394.078125 277.921875 392.78125 287.019531 "/>
<path style="fill:none;stroke-width:1;stroke-linecap:round;stroke-linejoin:round;stroke:rgb(14.901961%,19.607843%,21.960784%);stroke-opacity:1;stroke-miterlimit:4;" d="M 234.558594 303.679688 C 234.558594 303.679688 228.699219 256.921875 246.289062 249.839844 "/>
<path style="fill:none;stroke-width:1;stroke-linecap:round;stroke-linejoin:round;stroke:rgb(14.901961%,19.607843%,21.960784%);stroke-opacity:1;stroke-miterlimit:4;" d="M 286.109375 304.070312 C 286.109375 304.070312 283.261719 256.890625 305.109375 246 "/>
<path style="fill:none;stroke-width:1;stroke-linecap:round;stroke-linejoin:round;stroke:rgb(14.901961%,19.607843%,21.960784%);stroke-opacity:1;stroke-miterlimit:4;" d="M 277.550781 304.070312 C 277.550781 304.070312 276.550781 257.691406 312.28125 246.398438 "/>
<path style="fill:none;stroke-width:1;stroke-linecap:round;stroke-linejoin:round;stroke:rgb(14.901961%,19.607843%,21.960784%);stroke-opacity:1;stroke-miterlimit:4;" d="M 252.640625 249.058594 C 252.640625 249.058594 234.078125 259.671875 229.191406 304.058594 "/>
<path style="fill-rule:nonzero;fill:rgb(72.941176%,72.941176%,72.941176%);fill-opacity:1;stroke-width:1;stroke-linecap:round;stroke-linejoin:round;stroke:rgb(14.901961%,19.607843%,21.960784%);stroke-opacity:1;stroke-miterlimit:4;" d="M 290.628906 277.621094 L 350.011719 277.621094 L 350.011719 305.058594 L 290.628906 305.058594 Z M 290.628906 277.621094 "/>
<path style="fill-rule:nonzero;fill:rgb(54.117647%,54.117647%,54.117647%);fill-opacity:1;stroke-width:1;stroke-linecap:round;stroke-linejoin:round;stroke:rgb(14.901961%,19.607843%,21.960784%);stroke-opacity:1;stroke-miterlimit:4;" d="M 328.871094 277.621094 L 350.011719 277.621094 L 350.011719 305.058594 L 328.871094 305.058594 Z M 328.871094 277.621094 "/>
<path style="fill-rule:nonzero;fill:rgb(100%,100%,100%);fill-opacity:1;stroke-width:1;stroke-linecap:round;stroke-linejoin:round;stroke:rgb(14.901961%,19.607843%,21.960784%);stroke-opacity:1;stroke-miterlimit:4;" d="M 290.628906 277.621094 L 294.289062 273.191406 C 295.96875 271.160156 298.46875 269.992188 301.101562 270 L 339.289062 270 C 341.824219 270.003906 344.230469 271.09375 345.898438 273 L 350.019531 277.660156 Z M 290.628906 277.621094 "/>
<path style="fill:none;stroke-width:1;stroke-linecap:round;stroke-linejoin:round;stroke:rgb(14.901961%,19.607843%,21.960784%);stroke-opacity:1;stroke-miterlimit:4;" d="M 339.910156 270.121094 L 335.28125 270.121094 C 333.429688 270.121094 331.753906 271.210938 331 272.898438 L 328.839844 277.621094 "/>
<path style="fill-rule:nonzero;fill:rgb(100%,100%,100%);fill-opacity:1;stroke-width:1;stroke-linecap:round;stroke-linejoin:round;stroke:rgb(14.901961%,19.607843%,21.960784%);stroke-opacity:1;stroke-miterlimit:4;" d="M 290.628906 277.621094 L 350.011719 277.621094 L 350.011719 283.210938 L 290.628906 283.210938 Z M 290.628906 277.621094 "/>
<path style="fill-rule:nonzero;fill:rgb(54.117647%,54.117647%,54.117647%);fill-opacity:1;stroke-width:1;stroke-linecap:round;stroke-linejoin:round;stroke:rgb(14.901961%,19.607843%,21.960784%);stroke-opacity:1;stroke-miterlimit:4;" d="M 328.390625 277.621094 L 350.019531 277.621094 L 350.019531 283.210938 L 328.390625 283.210938 Z M 328.390625 277.621094 "/>
<path style="fill-rule:nonzero;fill:rgb(14.901961%,19.607843%,21.960784%);fill-opacity:1;stroke-width:1;stroke-linecap:round;stroke-linejoin:round;stroke:rgb(14.901961%,19.607843%,21.960784%);stroke-opacity:1;stroke-miterlimit:4;" d="M 293.609375 283.230469 L 296.320312 284.941406 L 300.46875 284.941406 L 303.179688 283.511719 Z M 293.609375 283.230469 "/>
<path style="fill-rule:nonzero;fill:rgb(14.901961%,19.607843%,21.960784%);fill-opacity:1;stroke-width:1;stroke-linecap:round;stroke-linejoin:round;stroke:rgb(14.901961%,19.607843%,21.960784%);stroke-opacity:1;stroke-miterlimit:4;" d="M 314.320312 283.230469 L 317.039062 284.941406 L 321.179688 284.941406 L 323.890625 283.511719 Z M 314.320312 283.230469 "/>
<path style="fill:none;stroke-width:1;stroke-linecap:round;stroke-linejoin:round;stroke:rgb(14.901961%,19.607843%,21.960784%);stroke-opacity:1;stroke-miterlimit:4;" d="M 298.5 305.269531 L 312 270.078125 C 312 270.078125 313.648438 269.078125 317.589844 270.078125 C 317.589844 270.078125 314.300781 270.398438 312.988281 272.378906 C 311.679688 274.359375 301.480469 305.269531 301.480469 305.269531 "/>
<path style="fill:none;stroke-width:1;stroke-linecap:round;stroke-linejoin:round;stroke:rgb(14.901961%,19.607843%,21.960784%);stroke-opacity:1;stroke-miterlimit:4;" d="M 481.148438 428.789062 L 491.019531 428.789062 "/>
<path style="fill:none;stroke-width:1;stroke-linecap:round;stroke-linejoin:round;stroke:rgb(14.901961%,19.607843%,21.960784%);stroke-opacity:1;stroke-miterlimit:4;" d="M 55 428.789062 L 472.800781 428.789062 "/>
<path style="fill:none;stroke-width:1;stroke-linecap:round;stroke-linejoin:round;stroke:rgb(14.901961%,19.607843%,21.960784%);stroke-opacity:1;stroke-miterlimit:4;" d="M 6 428.789062 L 46 428.789062 "/>
</g>
</svg>
