<?xml version="1.0" encoding="UTF-8"?>
<svg xmlns="http://www.w3.org/2000/svg" xmlns:xlink="http://www.w3.org/1999/xlink" width="500px" height="500px" viewBox="0 0 500 500" version="1.1">
<defs>
<filter id="alpha" filterUnits="objectBoundingBox" x="0%" y="0%" width="100%" height="100%">
  <feColorMatrix type="matrix" in="SourceGraphic" values="0 0 0 0 1 0 0 0 0 1 0 0 0 0 1 0 0 0 1 0"/>
</filter>
<mask id="mask0">
  <g filter="url(#alpha)">
<rect x="0" y="0" width="500" height="500" style="fill:rgb(0%,0%,0%);fill-opacity:0.301961;stroke:none;"/>
  </g>
</mask>
<clipPath id="clip1">
  <rect x="0" y="0" width="500" height="500"/>
</clipPath>
<g id="surface5" clip-path="url(#clip1)">
<path style=" stroke:none;fill-rule:nonzero;fill:rgb(0%,0%,0%);fill-opacity:1;" d="M 93.230469 343 C 85.980469 346.75 80.429688 353.210938 76.429688 360.328125 C 72.429688 367.449219 69.871094 375.261719 67.320312 383 L 65.089844 423 C 73.511719 408.660156 80.28125 391.800781 82.089844 375.269531 L 76.480469 374.769531 C 80.238281 374.199219 83.398438 371.46875 85.398438 368.238281 C 87.398438 365.011719 88.398438 361.238281 89.460938 357.621094 L 82.609375 358.621094 C 88.03125 354.976562 91.835938 349.382812 93.230469 343 Z M 93.230469 343 "/>
</g>
</defs>
<g id="surface1">
<path style=" stroke:none;fill-rule:nonzero;fill:rgb(92.156863%,92.156863%,92.156863%);fill-opacity:1;" d="M 76.890625 404.671875 L 61.800781 397.320312 L 56.800781 375.261719 L 52.589844 376.238281 L 56.238281 397.078125 L 41.78125 388.78125 L 38.621094 391.859375 L 57.75 402.199219 L 76.890625 409.808594 Z M 76.890625 404.671875 "/>
<path style=" stroke:none;fill-rule:nonzero;fill:rgb(92.156863%,92.156863%,92.156863%);fill-opacity:1;" d="M 82.988281 465.960938 L 71.941406 465.960938 L 74.800781 372.488281 L 85.851562 372.488281 Z M 82.988281 465.960938 "/>
<path style=" stroke:none;fill-rule:nonzero;fill:rgb(87.843137%,87.843137%,87.843137%);fill-opacity:1;" d="M 77.308594 140 C 77.308594 141.289062 47.640625 220.691406 47.640625 220.691406 L 62.46875 207.890625 L 41.101562 263.378906 L 55.179688 246.730469 L 38.589844 316.320312 L 46.589844 309.058594 L 32.511719 358.160156 L 44.578125 345.351562 L 32.550781 382.070312 L 128.101562 376.070312 L 105.46875 306.910156 L 119.140625 319.710938 L 101.449219 269.328125 L 110.449219 273.601562 L 89.878906 208.730469 L 99.441406 214.28125 Z M 77.308594 140 "/>
<path style=" stroke:none;fill-rule:nonzero;fill:rgb(92.156863%,92.156863%,92.156863%);fill-opacity:1;" d="M 80.511719 281.730469 C 80.394531 282.140625 80.238281 282.535156 80.039062 282.910156 L 78.550781 286.128906 C 77.191406 288.949219 75.339844 292.789062 73.199219 297.25 L 72.960938 297.738281 L 72.671875 297.269531 C 71.175781 294.925781 69.871094 292.460938 68.769531 289.910156 C 68.339844 288.910156 67.949219 287.910156 67.609375 287 L 68.199219 287 C 65.558594 292.699219 62.980469 297.671875 61.039062 301.199219 C 60.039062 302.960938 59.261719 304.371094 58.679688 305.328125 C 58.421875 305.769531 58.191406 306.128906 58.011719 306.429688 C 57.828125 306.730469 57.761719 306.808594 57.738281 306.800781 C 57.941406 306.261719 58.1875 305.742188 58.480469 305.25 L 60.660156 301.058594 C 62.5 297.488281 65.011719 292.511719 67.660156 286.808594 L 67.980469 286.101562 L 68.238281 286.820312 C 68.578125 287.761719 68.96875 288.730469 69.390625 289.710938 C 70.484375 292.238281 71.765625 294.675781 73.230469 297.011719 L 72.691406 297.011719 L 78.210938 286 L 79.859375 282.839844 C 80.039062 282.449219 80.257812 282.078125 80.511719 281.730469 Z M 80.511719 281.730469 "/>
<path style=" stroke:none;fill-rule:nonzero;fill:rgb(92.156863%,92.156863%,92.156863%);fill-opacity:1;" d="M 90.691406 252.089844 C 90.476562 251.824219 90.296875 251.539062 90.148438 251.230469 L 88.78125 248.808594 C 87.601562 246.75 85.859375 243.871094 83.609375 240.648438 L 84.160156 240.578125 C 83.679688 242.148438 83.160156 243.828125 82.628906 245.578125 C 82.289062 246.671875 81.960938 247.730469 81.628906 248.761719 L 81.410156 249.46875 L 81.050781 248.800781 C 79.050781 244.949219 77.25 241.558594 76.050781 239.121094 L 74.621094 236.25 C 74.429688 235.910156 74.28125 235.550781 74.171875 235.179688 C 74.425781 235.488281 74.644531 235.824219 74.820312 236.179688 L 76.421875 238.980469 C 77.75 241.378906 79.589844 244.75 81.648438 248.589844 L 81.070312 248.589844 C 81.390625 247.589844 81.710938 246.5 82.070312 245.410156 C 82.609375 243.671875 83.128906 241.988281 83.621094 240.410156 L 83.800781 239.808594 L 84.171875 240.339844 C 86.003906 243 87.675781 245.765625 89.171875 248.628906 C 89.71875 249.628906 90.171875 250.53125 90.390625 251.121094 C 90.53125 251.429688 90.632812 251.753906 90.691406 252.089844 Z M 90.691406 252.089844 "/>
<path style=" stroke:none;fill-rule:nonzero;fill:rgb(92.156863%,92.156863%,92.156863%);fill-opacity:1;" d="M 77.160156 191.261719 C 76.671875 192.242188 76.109375 193.1875 75.46875 194.078125 C 74.359375 195.808594 72.769531 198.210938 70.929688 200.929688 L 70.511719 201.550781 L 70.359375 200.851562 C 70.199219 200.058594 70.019531 199.238281 69.851562 198.410156 C 69.550781 196.960938 69.261719 195.570312 69 194.28125 L 69.539062 194.371094 C 67.839844 196.671875 66.351562 198.628906 65.28125 200.011719 C 64.746094 200.777344 64.148438 201.496094 63.488281 202.160156 C 63.917969 201.339844 64.421875 200.5625 65 199.839844 C 66 198.421875 67.398438 196.421875 69.070312 194.109375 L 69.46875 193.550781 L 69.609375 194.199219 C 69.890625 195.480469 70.179688 196.871094 70.488281 198.308594 C 70.660156 199.148438 70.828125 199.96875 71 200.761719 L 70.429688 200.671875 C 72.289062 197.960938 73.949219 195.589844 75.148438 193.910156 C 75.742188 192.96875 76.414062 192.082031 77.160156 191.261719 Z M 77.160156 191.261719 "/>
<path style=" stroke:none;fill-rule:nonzero;fill:rgb(92.156863%,92.156863%,92.156863%);fill-opacity:1;" d="M 425.421875 413.171875 L 410.339844 405.820312 L 405.328125 383.761719 L 401.121094 384.738281 L 404.78125 405.578125 L 390.320312 397.28125 L 387.148438 400.359375 L 406.289062 410.699219 L 425.421875 418.308594 Z M 425.421875 413.171875 "/>
<path style=" stroke:none;fill-rule:nonzero;fill:rgb(92.156863%,92.156863%,92.156863%);fill-opacity:1;" d="M 431.519531 474.460938 L 420.46875 474.460938 L 423.328125 380.988281 L 434.378906 380.988281 Z M 431.519531 474.460938 "/>
<path style=" stroke:none;fill-rule:nonzero;fill:rgb(87.843137%,87.843137%,87.843137%);fill-opacity:1;" d="M 425.839844 148.488281 C 425.839844 149.78125 396.171875 229.191406 396.171875 229.191406 L 411 216.378906 L 389.621094 271.878906 L 403.699219 255.230469 L 387.109375 324.820312 L 395.109375 317.558594 L 381.03125 366.660156 L 393.101562 353.851562 L 381.03125 390.570312 L 476.578125 384.570312 L 454 315.429688 L 467.671875 328.230469 L 450 277.859375 L 459 282.121094 L 438.378906 217.230469 L 447.941406 222.78125 Z M 425.839844 148.488281 "/>
<path style=" stroke:none;fill-rule:nonzero;fill:rgb(92.156863%,92.156863%,92.156863%);fill-opacity:1;" d="M 429 290.230469 C 428.890625 290.640625 428.734375 291.039062 428.53125 291.410156 L 427.039062 294.628906 C 425.679688 297.449219 423.828125 301.289062 421.691406 305.75 L 421.449219 306.238281 L 421.160156 305.769531 C 419.667969 303.425781 418.363281 300.960938 417.261719 298.410156 C 416.828125 297.410156 416.441406 296.410156 416.109375 295.5 L 416.691406 295.5 C 414.050781 301.199219 411.46875 306.171875 409.53125 309.699219 C 408.53125 311.46875 407.75 312.871094 407.171875 313.828125 C 406.910156 314.269531 406.691406 314.628906 406.5 314.929688 C 406.308594 315.230469 406.25 315.308594 406.230469 315.300781 C 406.429688 314.761719 406.675781 314.242188 406.96875 313.75 L 409.148438 309.558594 C 410.988281 305.988281 413.5 301.011719 416.148438 295.308594 L 416.480469 294.601562 L 416.738281 295.328125 C 417.078125 296.261719 417.460938 297.230469 417.878906 298.210938 C 418.972656 300.738281 420.253906 303.179688 421.71875 305.511719 L 421.191406 305.511719 L 426.738281 294.460938 L 428.390625 291.300781 C 428.5625 290.925781 428.769531 290.570312 429 290.230469 Z M 429 290.230469 "/>
<path style=" stroke:none;fill-rule:nonzero;fill:rgb(92.156863%,92.156863%,92.156863%);fill-opacity:1;" d="M 439.21875 260.589844 C 439.011719 260.328125 438.835938 260.042969 438.691406 259.738281 L 437.308594 257.308594 C 436.128906 255.25 434.390625 252.371094 432.140625 249.148438 L 432.691406 249.078125 C 432.210938 250.648438 431.691406 252.328125 431.160156 254.078125 C 430.828125 255.171875 430.5 256.238281 430.160156 257.261719 L 430 258 L 429.640625 257.328125 C 427.640625 253.480469 425.839844 250.089844 424.640625 247.660156 C 424.070312 246.5 423.589844 245.539062 423.210938 244.78125 C 423.019531 244.441406 422.871094 244.082031 422.761719 243.710938 C 423.019531 244.015625 423.238281 244.351562 423.410156 244.710938 C 423.839844 245.449219 424.410156 246.390625 425.011719 247.511719 C 426.351562 249.910156 428.179688 253.28125 430.238281 257.121094 L 429.671875 257.121094 C 429.980469 256.121094 430.308594 255.03125 430.671875 253.941406 C 431.210938 252.199219 431.738281 250.519531 432.21875 248.941406 L 432.398438 248.339844 L 432.769531 248.871094 C 434.605469 251.527344 436.273438 254.296875 437.769531 257.160156 C 438.320312 258.210938 438.769531 259.058594 438.988281 259.648438 C 439.113281 259.949219 439.191406 260.265625 439.21875 260.589844 Z M 439.21875 260.589844 "/>
<path style=" stroke:none;fill-rule:nonzero;fill:rgb(92.156863%,92.156863%,92.156863%);fill-opacity:1;" d="M 425.691406 199.761719 C 425.207031 200.746094 424.644531 201.691406 424 202.578125 C 422.890625 204.308594 421.300781 206.710938 419.460938 209.429688 L 419.050781 210.058594 L 418.898438 209.351562 C 418.730469 208.558594 418.558594 207.738281 418.378906 206.910156 C 418.078125 205.460938 417.800781 204.070312 417.53125 202.78125 L 418.070312 202.871094 C 416.371094 205.171875 414.878906 207.128906 413.808594 208.511719 C 413.277344 209.277344 412.675781 209.996094 412.019531 210.660156 C 412.441406 209.84375 412.9375 209.066406 413.5 208.339844 C 414.5 206.921875 415.898438 204.921875 417.570312 202.609375 L 417.980469 202.050781 L 418.109375 202.699219 C 418.390625 203.980469 418.679688 205.371094 418.988281 206.808594 C 419.171875 207.648438 419.339844 208.46875 419.5 209.261719 L 418.929688 209.171875 C 420.789062 206.460938 422.449219 204.089844 423.660156 202.410156 C 424.257812 201.46875 424.9375 200.582031 425.691406 199.761719 Z M 425.691406 199.761719 "/>
<path style=" stroke:none;fill-rule:nonzero;fill:rgb(92.156863%,92.156863%,92.156863%);fill-opacity:1;" d="M 367.640625 79.601562 C 363.070312 72.140625 354.570312 67.398438 345.890625 66.289062 C 327.929688 64 318 71.460938 318 71.460938 C 318 71.460938 305.078125 58.851562 282.558594 60.871094 C 262.960938 62.628906 245.929688 79.25 242.261719 98.578125 C 231.296875 95.832031 219.683594 98.035156 210.492188 104.609375 C 201.296875 111.183594 195.457031 121.460938 194.511719 132.71875 C 184.28125 133.808594 166.78125 144.078125 176.109375 166.289062 L 198.769531 166.289062 C 201.871094 165.71875 206.960938 154.761719 205.699219 145.699219 C 221.589844 153.421875 242.390625 149.238281 254.070312 135.980469 C 270.339844 151.210938 299.160156 149.921875 314 133.300781 C 318.371094 128.410156 321.78125 118.859375 321.78125 118.859375 C 321.78125 118.859375 329.171875 124.859375 342.230469 123.699219 C 358.738281 122.199219 365.511719 113.699219 369.761719 106.320312 C 374.011719 98.941406 372.089844 86.851562 367.640625 79.601562 Z M 367.640625 79.601562 "/>
<path style=" stroke:none;fill-rule:nonzero;fill:rgb(96.078431%,96.078431%,96.078431%);fill-opacity:1;" d="M 458.289062 65 C 453.683594 59.351562 446.007812 57.238281 439.160156 59.738281 C 444.890625 54.738281 440.679688 42.941406 434.339844 38.738281 C 428 34.539062 419.609375 35.179688 412.339844 37.351562 C 407.808594 38.710938 405.101562 42.28125 402.101562 45.929688 C 399.101562 49.578125 397.609375 57.050781 400.289062 60.929688 C 392.339844 60.148438 384.601562 67.519531 384.980469 75.488281 C 385.359375 83.460938 393.761719 90.070312 401.601562 88.488281 C 400.910156 98.550781 409.480469 108.320312 419.539062 108.960938 C 429.601562 109.601562 439.328125 100.960938 439.921875 90.960938 C 446.871094 93.269531 454.515625 90.753906 458.742188 84.769531 C 462.96875 78.785156 462.78125 70.742188 458.28125 64.960938 Z M 458.289062 65 "/>
<path style=" stroke:none;fill-rule:nonzero;fill:rgb(96.078431%,96.078431%,96.078431%);fill-opacity:1;" d="M 158.710938 130.820312 C 154.359375 125.476562 147.105469 123.46875 140.628906 125.820312 C 146.050781 121.121094 142.070312 109.949219 136.078125 106.011719 C 130.089844 102.070312 122.171875 102.640625 115.300781 104.699219 C 111.019531 105.980469 108.460938 109.359375 105.628906 112.800781 C 102.800781 116.238281 101.378906 123.308594 103.921875 126.988281 C 96.410156 126.25 89.101562 133.210938 89.449219 140.75 C 89.800781 148.289062 97.75 154.519531 105.160156 153.078125 C 104.511719 162.578125 112.601562 171.820312 122.101562 172.421875 C 131.601562 173.019531 140.800781 164.890625 141.359375 155.421875 C 147.933594 157.617188 155.171875 155.242188 159.171875 149.578125 C 163.167969 143.914062 162.980469 136.300781 158.710938 130.839844 Z M 158.710938 130.820312 "/>
<path style=" stroke:none;fill-rule:nonzero;fill:rgb(96.078431%,96.078431%,96.078431%);fill-opacity:1;" d="M 212.761719 55.328125 C 208.761719 46.460938 198.558594 40.449219 189.378906 40.578125 C 168.71875 38.941406 161.78125 53.28125 162.140625 61.929688 C 162.5 70.578125 170.53125 78.058594 178.808594 77.46875 C 176.949219 78.558594 176.550781 81.371094 177.480469 83.371094 C 178.539062 85.296875 180.238281 86.796875 182.28125 87.609375 C 191.148438 91.621094 201.578125 89.621094 208.328125 82.609375 C 215.015625 75.164062 216.746094 64.507812 212.761719 55.328125 Z M 212.761719 55.328125 "/>
<path style=" stroke:none;fill-rule:nonzero;fill:rgb(96.078431%,96.078431%,96.078431%);fill-opacity:1;" d="M 331.601562 31.347656 C 336.199219 32.09375 339.324219 36.429688 338.574219 41.03125 C 337.828125 45.632812 333.492188 48.753906 328.890625 48.007812 C 324.289062 47.257812 321.167969 42.921875 321.914062 38.320312 C 322.664062 33.722656 327 30.597656 331.601562 31.347656 Z M 331.601562 31.347656 "/>
<path style=" stroke:none;fill-rule:nonzero;fill:rgb(14.901961%,19.607843%,21.960784%);fill-opacity:1;" d="M 484.371094 474.460938 C 484.371094 474.601562 379.429688 474.71875 250.011719 474.71875 C 120.589844 474.71875 15.628906 474.601562 15.628906 474.460938 C 15.628906 474.320312 120.550781 474.199219 250.011719 474.199219 C 379.46875 474.199219 484.371094 474.320312 484.371094 474.460938 Z M 484.371094 474.460938 "/>
<path style=" stroke:none;fill-rule:nonzero;fill:rgb(100%,44.705882%,36.862745%);fill-opacity:1;" d="M 168.761719 168.878906 L 208.230469 168.878906 L 208.230469 214.410156 L 168.761719 214.410156 Z M 168.761719 168.878906 "/>
<path style=" stroke:none;fill-rule:nonzero;fill:rgb(100%,44.705882%,36.862745%);fill-opacity:1;" d="M 164 164.921875 L 212.078125 164.921875 L 212.078125 179.671875 L 164 179.671875 Z M 164 164.921875 "/>
<path style=" stroke:none;fill-rule:nonzero;fill:rgb(14.901961%,19.607843%,21.960784%);fill-opacity:1;" d="M 212.371094 180 C 212.371094 180.148438 201.480469 180.261719 188.039062 180.261719 C 174.601562 180.261719 163.71875 180.148438 163.71875 180 C 163.71875 179.851562 174.609375 179.738281 188.039062 179.738281 C 201.46875 179.738281 212.371094 179.820312 212.371094 180 Z M 212.371094 180 "/>
<path style=" stroke:none;fill-rule:nonzero;fill:rgb(100%,44.705882%,36.862745%);fill-opacity:1;" d="M 112 212.699219 L 383.910156 212.699219 L 383.910156 474.460938 L 112 474.460938 Z M 112 212.699219 "/>
<path style=" stroke:none;fill-rule:nonzero;fill:rgb(14.901961%,19.607843%,21.960784%);fill-opacity:1;" d="M 225.78125 212.699219 C 225.78125 212.839844 200.539062 212.960938 169.421875 212.960938 C 138.300781 212.960938 113.050781 212.839844 113.050781 212.699219 C 113.050781 212.558594 138.28125 212.441406 169.421875 212.441406 C 200.558594 212.441406 225.78125 212.550781 225.78125 212.699219 Z M 225.78125 212.699219 "/>
<path style=" stroke:none;fill-rule:nonzero;fill:rgb(100%,100%,100%);fill-opacity:1;" d="M 264.800781 260.609375 L 356.578125 260.609375 L 356.578125 370.191406 L 264.800781 370.191406 Z M 264.800781 260.609375 "/>
<path style=" stroke:none;fill-rule:nonzero;fill:rgb(27.058824%,35.294118%,39.215686%);fill-opacity:1;" d="M 277.910156 370.191406 L 277.601562 368.191406 L 271.261719 327.308594 C 271.261719 327.308594 291.550781 291 290 260.609375 L 264.800781 260.609375 L 264.800781 370.191406 "/>
<path style=" stroke:none;fill-rule:nonzero;fill:rgb(87.843137%,87.843137%,87.843137%);fill-opacity:1;" d="M 345.191406 370.191406 L 342.191406 370.191406 L 342.191406 348.710938 C 342.054688 345.265625 339.222656 342.542969 335.773438 342.542969 C 332.328125 342.542969 329.496094 345.265625 329.359375 348.710938 L 329.359375 354.710938 L 326.359375 354.710938 L 326.359375 348.710938 C 326.527344 343.628906 330.691406 339.597656 335.773438 339.597656 C 340.859375 339.597656 345.023438 343.628906 345.191406 348.710938 Z M 345.191406 370.191406 "/>
<path style=" stroke:none;fill-rule:nonzero;fill:rgb(100%,44.705882%,36.862745%);fill-opacity:1;" d="M 308.121094 257.421875 L 313.269531 257.421875 L 313.269531 370.191406 L 308.121094 370.191406 Z M 308.121094 257.421875 "/>
<path style=" stroke:none;fill-rule:nonzero;fill:rgb(100%,44.705882%,36.862745%);fill-opacity:1;" d="M 264.21875 318.949219 L 264.21875 313.800781 L 362.320312 313.800781 L 362.320312 318.949219 Z M 264.21875 318.949219 "/>
<path style=" stroke:none;fill-rule:nonzero;fill:rgb(87.843137%,87.843137%,87.843137%);fill-opacity:1;" d="M 325.929688 260.609375 L 356.589844 260.609375 L 356.589844 307.929688 L 325.929688 307.929688 Z M 325.929688 260.609375 "/>
<path style=" stroke:none;fill-rule:nonzero;fill:rgb(14.901961%,19.607843%,21.960784%);fill-opacity:1;" d="M 356.589844 370.191406 C 356.589844 370.191406 356.589844 370.011719 356.589844 369.660156 C 356.589844 369.308594 356.589844 368.800781 356.589844 368.128906 C 356.589844 366.78125 356.589844 364.789062 356.589844 362.199219 C 356.589844 357.011719 356.589844 349.421875 356.519531 339.800781 C 356.519531 320.578125 356.460938 293.210938 356.410156 260.609375 L 356.640625 260.839844 L 264.859375 260.839844 L 265.121094 260.578125 C 265.121094 301.070312 265.121094 338.75 265.121094 370.160156 L 264.898438 369.941406 L 331.46875 370.050781 L 350.078125 370.109375 L 354.988281 370.109375 C 356.101562 370.109375 356.691406 370.109375 356.691406 370.109375 C 356.691406 370.109375 356.140625 370.109375 355.039062 370.109375 L 350.171875 370.109375 L 331.609375 370.171875 L 264.898438 370.28125 L 264.691406 370.28125 L 264.691406 370.058594 C 264.691406 338.648438 264.691406 300.96875 264.691406 260.480469 L 264.691406 260.21875 L 356.96875 260.21875 L 356.96875 260.449219 C 356.921875 293.109375 356.878906 320.53125 356.851562 339.789062 C 356.851562 349.390625 356.851562 356.960938 356.789062 362.140625 C 356.789062 364.699219 356.789062 366.679688 356.789062 368.03125 C 356.789062 368.679688 356.789062 369.179688 356.789062 369.53125 C 356.789062 369.878906 356.589844 370.191406 356.589844 370.191406 Z M 356.589844 370.191406 "/>
<path style=" stroke:none;fill-rule:nonzero;fill:rgb(87.843137%,87.843137%,87.843137%);fill-opacity:1;" d="M 171.121094 230.410156 L 205.890625 230.410156 L 205.890625 245.648438 L 171.121094 245.648438 Z M 171.121094 230.410156 "/>
<path style=" stroke:none;fill-rule:nonzero;fill:rgb(100%,100%,100%);fill-opacity:1;" d="M 183.21875 234.101562 L 183.21875 242 L 181 242 L 181 235.839844 L 179.539062 235.839844 L 179.539062 234.101562 Z M 183.21875 234.101562 "/>
<path style=" stroke:none;fill-rule:nonzero;fill:rgb(100%,100%,100%);fill-opacity:1;" d="M 190.488281 240.210938 L 190.488281 242 L 184.351562 242 L 184.351562 240.601562 L 187.351562 237.839844 C 187.578125 237.640625 187.773438 237.410156 187.929688 237.148438 C 188.019531 236.96875 188.066406 236.769531 188.070312 236.570312 C 188.085938 236.34375 187.988281 236.121094 187.808594 235.980469 C 187.59375 235.816406 187.328125 235.738281 187.058594 235.761719 C 186.78125 235.757812 186.503906 235.828125 186.261719 235.960938 C 186.007812 236.09375 185.800781 236.289062 185.648438 236.53125 L 184 235.601562 C 184.3125 235.089844 184.757812 234.671875 185.289062 234.398438 C 186.410156 233.871094 187.699219 233.816406 188.859375 234.25 C 189.289062 234.425781 189.664062 234.71875 189.941406 235.089844 C 190.195312 235.464844 190.328125 235.90625 190.320312 236.359375 C 190.320312 236.777344 190.230469 237.191406 190.050781 237.570312 C 189.773438 238.0625 189.410156 238.496094 188.980469 238.859375 L 187.5 240.230469 Z M 190.488281 240.210938 "/>
<path style=" stroke:none;fill-rule:nonzero;fill:rgb(100%,100%,100%);fill-opacity:1;" d="M 196.679688 238.050781 C 197.03125 238.453125 197.21875 238.976562 197.210938 239.511719 C 197.210938 239.972656 197.078125 240.421875 196.828125 240.808594 C 196.546875 241.246094 196.148438 241.589844 195.679688 241.808594 C 195.078125 242.066406 194.425781 242.191406 193.769531 242.171875 C 193.214844 242.171875 192.660156 242.105469 192.121094 241.96875 C 191.625 241.851562 191.148438 241.660156 190.710938 241.398438 L 191.519531 239.71875 C 191.828125 239.929688 192.164062 240.089844 192.519531 240.199219 C 192.890625 240.3125 193.28125 240.371094 193.671875 240.371094 C 193.988281 240.382812 194.300781 240.3125 194.578125 240.160156 C 194.792969 240.03125 194.917969 239.796875 194.910156 239.550781 C 194.910156 239.039062 194.511719 238.789062 193.710938 238.789062 L 192.78125 238.789062 L 192.78125 237.378906 L 194.179688 235.859375 L 191.078125 235.859375 L 191.078125 234.101562 L 196.769531 234.101562 L 196.769531 235.488281 L 195.140625 237.25 C 195.730469 237.332031 196.273438 237.613281 196.679688 238.050781 Z M 196.679688 238.050781 "/>
<path style=" stroke:none;fill-rule:nonzero;fill:rgb(68.235294%,45.490196%,38.039216%);fill-opacity:1;" d="M 132.761719 253.191406 L 240.03125 253.191406 L 240.03125 474.230469 L 132.761719 474.230469 Z M 132.761719 253.191406 "/>
<path style=" stroke:none;fill-rule:nonzero;fill:rgb(14.901961%,19.607843%,21.960784%);fill-opacity:1;" d="M 232 474.75 C 232 474.75 232 474.390625 232 473.699219 C 232 473.011719 232 471.980469 232 470.640625 C 232 467.941406 232 463.960938 232 458.800781 C 232 448.46875 232 433.429688 231.929688 414.519531 C 231.929688 376.730469 231.859375 323.519531 231.808594 261.660156 L 232.058594 261.910156 L 141.589844 261.910156 L 141.851562 261.648438 C 141.851562 344.761719 141.789062 420.050781 141.769531 474.738281 L 141.589844 474.550781 L 207.660156 474.648438 L 230.359375 474.648438 C 231.421875 474.648438 231.96875 474.648438 231.96875 474.648438 L 225.730469 474.648438 L 207.78125 474.699219 L 141.589844 474.800781 L 141.398438 474.800781 L 141.398438 474.621094 C 141.398438 419.929688 141.398438 344.621094 141.328125 261.53125 L 141.328125 261.269531 L 232.21875 261.269531 L 232.21875 261.519531 C 232.171875 323.421875 232.128906 376.71875 232.101562 414.519531 C 232.101562 433.398438 232.101562 448.429688 232.03125 458.738281 C 232.03125 463.878906 232.03125 467.839844 232.03125 470.519531 C 232.03125 471.851562 232.03125 472.871094 232.03125 473.519531 C 232.03125 474.171875 232 474.75 232 474.75 Z M 232 474.75 "/>
<path style=" stroke:none;fill-rule:nonzero;fill:rgb(14.901961%,19.607843%,21.960784%);fill-opacity:1;" d="M 141.160156 261.660156 C 139.582031 260.441406 138.113281 259.085938 136.769531 257.609375 C 135.3125 256.253906 133.972656 254.777344 132.769531 253.191406 C 134.34375 254.410156 135.808594 255.765625 137.148438 257.238281 C 138.609375 258.597656 139.953125 260.074219 141.160156 261.660156 Z M 141.160156 261.660156 "/>
<path style=" stroke:none;fill-rule:nonzero;fill:rgb(14.901961%,19.607843%,21.960784%);fill-opacity:1;" d="M 232 261.621094 C 233.222656 260.046875 234.578125 258.582031 236.050781 257.238281 C 237.398438 255.78125 238.875 254.441406 240.460938 253.238281 C 239.242188 254.816406 237.886719 256.28125 236.410156 257.621094 C 235.058594 259.078125 233.585938 260.417969 232 261.621094 Z M 232 261.621094 "/>
<path style=" stroke:none;fill-rule:nonzero;fill:rgb(87.843137%,87.843137%,87.843137%);fill-opacity:1;" d="M 215.980469 359.699219 L 223.320312 359.699219 L 223.320312 380.671875 L 215.980469 380.671875 Z M 215.980469 359.699219 "/>
<path style=" stroke:none;fill-rule:nonzero;fill:rgb(87.843137%,87.843137%,87.843137%);fill-opacity:1;" d="M 219.671875 366.871094 L 206.769531 366.871094 C 205.699219 366.871094 204.828125 366 204.828125 364.929688 C 204.835938 363.863281 205.703125 363 206.769531 363 L 219.671875 363 C 220.734375 363 221.601562 363.863281 221.601562 364.929688 C 221.601562 365.445312 221.402344 365.9375 221.039062 366.300781 C 220.675781 366.664062 220.183594 366.871094 219.671875 366.871094 Z M 219.671875 366.871094 "/>
<path style=" stroke:none;fill-rule:nonzero;fill:rgb(14.901961%,19.607843%,21.960784%);fill-opacity:1;" d="M 219.671875 366.871094 C 220.148438 366.796875 220.59375 366.578125 220.949219 366.25 C 221.328125 365.847656 221.511719 365.300781 221.449219 364.75 C 221.355469 364.027344 220.835938 363.433594 220.128906 363.25 C 219.703125 363.1875 219.269531 363.167969 218.839844 363.199219 L 206.769531 363.199219 C 206.195312 363.199219 205.664062 363.492188 205.359375 363.980469 C 205.054688 364.445312 205.007812 365.03125 205.230469 365.539062 C 205.4375 366.039062 205.867188 366.410156 206.390625 366.539062 C 206.664062 366.570312 206.945312 366.570312 207.21875 366.539062 L 208.078125 366.539062 L 214.078125 366.589844 L 218.148438 366.679688 C 218.648438 366.664062 219.148438 366.699219 219.640625 366.78125 C 219.148438 366.863281 218.648438 366.894531 218.148438 366.878906 L 214.078125 366.960938 L 208.078125 367.019531 L 207.21875 367.019531 C 206.90625 367.042969 206.589844 367.023438 206.28125 366.96875 C 205.203125 366.710938 204.488281 365.691406 204.613281 364.59375 C 204.738281 363.492188 205.664062 362.660156 206.769531 362.648438 L 218.839844 362.648438 C 219.304688 362.628906 219.769531 362.660156 220.230469 362.738281 C 221.0625 362.984375 221.660156 363.707031 221.738281 364.570312 C 221.796875 365.199219 221.558594 365.816406 221.089844 366.238281 C 220.753906 366.675781 220.21875 366.914062 219.671875 366.871094 Z M 219.671875 366.871094 "/>
<path style=" stroke:none;fill-rule:nonzero;fill:rgb(14.901961%,19.607843%,21.960784%);fill-opacity:1;" d="M 456.691406 474.230469 C 456.550781 474.230469 439.089844 416.589844 417.691406 345.410156 C 396.289062 274.230469 379.050781 216.46875 379.191406 216.410156 C 379.328125 216.351562 396.789062 274.039062 418.191406 345.238281 C 439.589844 416.441406 456.828125 474.191406 456.691406 474.230469 Z M 456.691406 474.230469 "/>
<path style=" stroke:none;fill-rule:nonzero;fill:rgb(14.901961%,19.607843%,21.960784%);fill-opacity:1;" d="M 423.921875 364.320312 C 423.921875 364.320312 424.019531 364.070312 424.25 363.609375 L 425.25 361.558594 C 426.160156 359.75 427.46875 357.121094 429.148438 353.761719 C 432.558594 347.011719 437.449219 337.308594 443.410156 325.480469 L 443.601562 325.769531 L 412.671875 325.769531 L 412.820312 325.429688 C 417.921875 313.609375 423.578125 300.648438 429.308594 287.019531 C 429.621094 286.28125 429.929688 285.539062 430.199219 284.808594 L 430.441406 285.148438 L 400.441406 285.148438 L 400.621094 284.789062 C 408.941406 268.210938 416.390625 253.371094 422.398438 241.378906 L 422.570312 241.648438 L 396.738281 241.570312 L 387.289062 241.570312 L 389.738281 241.570312 L 396.738281 241.519531 L 422.570312 241.441406 L 422.871094 241.441406 L 422.738281 241.710938 C 416.738281 253.710938 409.351562 268.570312 401.070312 285.171875 L 400.851562 284.808594 L 430.78125 284.808594 L 430.648438 285.148438 C 430.371094 285.921875 430.058594 286.660156 429.75 287.398438 C 424.019531 301.039062 418.351562 313.988281 413.21875 325.808594 L 413 325.46875 L 443.890625 325.46875 L 443.738281 325.761719 C 437.738281 337.558594 432.738281 347.230469 429.320312 353.96875 C 427.589844 357.308594 426.25 359.921875 425.320312 361.71875 L 424.261719 363.71875 C 424.058594 364.089844 423.921875 364.320312 423.921875 364.320312 Z M 423.921875 364.320312 "/>
<path style=" stroke:none;fill-rule:nonzero;fill:rgb(14.901961%,19.607843%,21.960784%);fill-opacity:1;" d="M 461.601562 474.460938 C 461.601562 474.460938 461.601562 474.261719 461.761719 473.871094 C 461.921875 473.480469 462.039062 472.871094 462.261719 472.148438 C 462.71875 470.621094 463.390625 468.398438 464.261719 465.558594 C 466.011719 459.839844 468.519531 451.628906 471.609375 441.558594 L 471.789062 441.808594 L 446.621094 441.808594 L 446.769531 441.480469 L 462.578125 404.820312 L 462.808594 405.191406 L 435.109375 405.191406 L 435.261719 404.839844 L 444.800781 382.839844 C 447.71875 376.03125 450.480469 369.789062 452.71875 364.210938 L 452.898438 364.449219 L 431.269531 364.371094 L 425.390625 364.320312 L 423.339844 364.320312 L 425.390625 364.320312 L 431.269531 364.269531 L 452.898438 364.191406 L 453.171875 364.191406 L 453.070312 364.441406 C 450.839844 370.078125 448.121094 376.300781 445.210938 383.128906 L 435.71875 405.128906 L 435.488281 404.78125 L 463.191406 404.78125 L 463.03125 405.140625 L 447.179688 441.699219 L 446.96875 441.371094 L 472 441.371094 L 471.921875 441.621094 L 464.410156 465.621094 C 463.511719 468.441406 462.808594 470.621094 462.328125 472.171875 L 461.769531 473.871094 C 461.679688 474.269531 461.601562 474.460938 461.601562 474.460938 Z M 461.601562 474.460938 "/>
<path style=" stroke:none;fill-rule:nonzero;fill:rgb(27.058824%,35.294118%,39.215686%);fill-opacity:1;" d="M 415.101562 433.160156 C 416.996094 434.058594 418.441406 435.695312 419.101562 437.691406 C 419.738281 439.671875 419.921875 441.777344 419.628906 443.839844 C 419.179688 447.839844 416.910156 451.839844 414.46875 455.039062 C 411.121094 452.109375 410.339844 447.039062 410.109375 444.378906 C 409.75 440.238281 411.609375 432.539062 415.109375 433.160156 "/>
<path style=" stroke:none;fill-rule:nonzero;fill:rgb(27.058824%,35.294118%,39.215686%);fill-opacity:1;" d="M 418.390625 461.621094 C 417.921875 459.300781 418.734375 456.90625 420.519531 455.351562 C 422.3125 453.84375 424.636719 453.125 426.96875 453.351562 C 428.058594 453.332031 429.097656 453.796875 429.808594 454.621094 C 430.332031 455.503906 430.332031 456.597656 429.808594 457.480469 C 429.300781 458.347656 428.574219 459.066406 427.699219 459.558594 C 424.789062 461.390625 421.640625 462.621094 418.351562 461.628906 "/>
<path style=" stroke:none;fill-rule:nonzero;fill:rgb(14.901961%,19.607843%,21.960784%);fill-opacity:1;" d="M 414.078125 473.851562 C 414.097656 473.574219 414.136719 473.300781 414.199219 473.03125 C 414.308594 472.449219 414.441406 471.710938 414.609375 470.820312 C 414.980469 468.351562 415.75 465.960938 416.890625 463.738281 C 418.074219 461.523438 419.828125 459.660156 421.96875 458.351562 C 422.621094 457.960938 423.316406 457.652344 424.039062 457.429688 C 424.234375 457.363281 424.4375 457.3125 424.640625 457.28125 C 424.710938 457.265625 424.78125 457.265625 424.851562 457.28125 C 421.492188 458.359375 418.714844 460.75 417.148438 463.910156 C 416.027344 466.113281 415.238281 468.472656 414.808594 470.910156 C 414.601562 471.828125 414.441406 472.589844 414.308594 473.101562 C 414.253906 473.355469 414.175781 473.605469 414.078125 473.851562 Z M 414.078125 473.851562 "/>
<path style=" stroke:none;fill-rule:nonzero;fill:rgb(14.901961%,19.607843%,21.960784%);fill-opacity:1;" d="M 414.210938 439.148438 C 414.21875 439.265625 414.21875 439.382812 414.210938 439.5 C 414.210938 439.769531 414.210938 440.109375 414.269531 440.5 C 414.320312 441.390625 414.371094 442.691406 414.421875 444.28125 C 414.519531 447.480469 414.609375 451.898438 414.578125 456.769531 C 414.550781 461.640625 414.441406 466.070312 414.308594 469.261719 C 414.25 470.859375 414.179688 472.148438 414.128906 473.050781 C 414.128906 473.46875 414.078125 473.808594 414.058594 474.050781 C 414.058594 474.171875 414.042969 474.292969 414.011719 474.410156 C 414 474.289062 414 474.167969 414.011719 474.050781 L 414.011719 473.050781 C 414.011719 472.121094 414.070312 470.839844 414.109375 469.269531 C 414.191406 466.070312 414.269531 461.660156 414.289062 456.78125 C 414.308594 451.898438 414.289062 447.488281 414.21875 444.300781 C 414.21875 442.730469 414.171875 441.449219 414.160156 440.519531 C 414.160156 440.089844 414.160156 439.75 414.160156 439.519531 C 414.160156 439.394531 414.175781 439.269531 414.210938 439.148438 Z M 414.210938 439.148438 "/>
<path style=" stroke:none;fill-rule:nonzero;fill:rgb(27.058824%,35.294118%,39.215686%);fill-opacity:1;" d="M 412.578125 464.050781 C 411.757812 459.148438 408.621094 454.941406 404.160156 452.75 C 403.03125 452.210938 401.570312 451.859375 400.648438 452.699219 C 399.730469 453.539062 399.929688 455.03125 400.378906 456.191406 C 402.394531 461.117188 407.175781 464.351562 412.5 464.378906 "/>
<path style=" stroke:none;fill-rule:nonzero;fill:rgb(14.901961%,19.607843%,21.960784%);fill-opacity:1;" d="M 404.699219 456.53125 C 404.941406 456.617188 405.179688 456.722656 405.410156 456.839844 C 405.6875 456.964844 405.960938 457.109375 406.21875 457.269531 C 406.519531 457.460938 406.878906 457.648438 407.21875 457.921875 C 407.628906 458.191406 408.023438 458.484375 408.398438 458.800781 C 408.832031 459.152344 409.246094 459.53125 409.640625 459.929688 C 410.539062 460.859375 411.332031 461.890625 412 463 C 412.660156 464.113281 413.183594 465.296875 413.570312 466.53125 C 413.730469 467.070312 413.859375 467.617188 413.960938 468.171875 C 414.0625 468.652344 414.128906 469.140625 414.160156 469.628906 C 414.203125 470.03125 414.222656 470.4375 414.21875 470.839844 C 414.242188 471.144531 414.242188 471.445312 414.21875 471.75 C 414.21875 472.007812 414.195312 472.265625 414.140625 472.519531 C 414.070312 472.519531 414.140625 471.410156 413.988281 469.648438 C 413.929688 469.210938 413.878906 468.730469 413.761719 468.21875 C 413.652344 467.675781 413.511719 467.136719 413.339844 466.609375 C 412.949219 465.40625 412.429688 464.246094 411.789062 463.148438 C 411.125 462.070312 410.347656 461.066406 409.46875 460.148438 C 409.085938 459.75 408.683594 459.367188 408.261719 459.011719 C 407.871094 458.660156 407.480469 458.378906 407.121094 458.109375 C 405.679688 457.050781 404.671875 456.589844 404.699219 456.53125 Z M 404.699219 456.53125 "/>
<path style=" stroke:none;fill-rule:nonzero;fill:rgb(27.058824%,35.294118%,39.215686%);fill-opacity:1;" d="M 93.230469 343 C 85.980469 346.75 80.429688 353.210938 76.429688 360.328125 C 72.429688 367.449219 69.871094 375.261719 67.320312 383 L 65.089844 423 C 73.511719 408.660156 80.28125 391.800781 82.089844 375.269531 L 76.480469 374.769531 C 80.238281 374.199219 83.398438 371.46875 85.398438 368.238281 C 87.398438 365.011719 88.398438 361.238281 89.460938 357.621094 L 82.609375 358.621094 C 88.03125 354.976562 91.835938 349.382812 93.230469 343 Z M 93.230469 343 "/>
<use xlink:href="#surface5" mask="url(#mask0)"/>
<path style=" stroke:none;fill-rule:nonzero;fill:rgb(27.058824%,35.294118%,39.215686%);fill-opacity:1;" d="M 66.601562 439.859375 C 66.601562 439.859375 48.308594 418 48.519531 397.058594 L 55.910156 397.058594 C 55.910156 397.058594 47.910156 391.78125 48.519531 388.828125 C 49.128906 385.878906 49.371094 374.679688 49.371094 374.679688 L 56.121094 376.371094 C 56.121094 376.371094 51.050781 373.839844 50.421875 369.820312 C 49.789062 365.800781 51.898438 347.230469 51.898438 347.230469 C 51.898438 347.230469 60.128906 355.890625 62.671875 364.761719 C 65.210938 373.628906 71.851562 384 69.898438 411 C 67.949219 438 66.601562 439.859375 66.601562 439.859375 Z M 66.601562 439.859375 "/>
<path style=" stroke:none;fill-rule:nonzero;fill:rgb(27.058824%,35.294118%,39.215686%);fill-opacity:1;" d="M 73.109375 434.410156 C 73.109375 434.410156 92.929688 421.210938 97.339844 404.351562 L 91.339844 402.738281 C 91.339844 402.738281 98.949219 400.25 99.089844 397.738281 C 99.230469 395.230469 101.5 386.179688 101.5 386.179688 L 95.699219 386.058594 C 95.699219 386.058594 100.328125 385.140625 101.699219 382.058594 C 103.070312 378.980469 105.449219 363.570312 105.449219 363.570312 C 105.449219 363.570312 97 368.710938 93 375.289062 C 89 381.871094 81.441406 388.71875 77.101562 410.878906 C 72.761719 433.039062 73.109375 434.410156 73.109375 434.410156 Z M 73.109375 434.410156 "/>
<path style=" stroke:none;fill-rule:nonzero;fill:rgb(14.901961%,19.607843%,21.960784%);fill-opacity:1;" d="M 56.898438 366.320312 C 56.933594 366.394531 56.957031 366.472656 56.96875 366.550781 C 57.019531 366.730469 57.070312 366.949219 57.140625 367.21875 C 57.28125 367.851562 57.480469 368.71875 57.730469 369.820312 C 58.25 372.070312 58.929688 375.351562 59.730469 379.410156 C 61.300781 387.53125 63.148438 398.808594 64.601562 411.351562 C 66.050781 423.890625 66.820312 435.300781 67.148438 443.558594 C 67.320312 447.691406 67.410156 451.039062 67.421875 453.351562 C 67.421875 454.480469 67.421875 455.351562 67.421875 456.011719 L 67.421875 456.710938 C 67.433594 456.785156 67.433594 456.863281 67.421875 456.941406 C 67.40625 456.863281 67.40625 456.785156 67.421875 456.710938 C 67.421875 456.519531 67.421875 456.289062 67.421875 456.019531 C 67.421875 455.371094 67.359375 454.480469 67.308594 453.359375 C 67.238281 451.050781 67.101562 447.710938 66.878906 443.578125 C 66.460938 435.328125 65.628906 423.941406 64.191406 411.410156 C 62.75 398.878906 60.941406 387.601562 59.46875 379.46875 C 58.738281 375.410156 58.109375 372.121094 57.660156 369.859375 C 57.449219 368.75 57.28125 367.859375 57.160156 367.238281 C 57.160156 366.96875 57.070312 366.738281 57.039062 366.558594 C 56.980469 366.488281 56.933594 366.40625 56.898438 366.320312 Z M 56.898438 366.320312 "/>
<path style=" stroke:none;fill-rule:nonzero;fill:rgb(27.058824%,35.294118%,39.215686%);fill-opacity:1;" d="M 55 432.398438 C 55 432.398438 38.261719 413.398438 33.058594 401.921875 L 37 400.25 C 34.082031 400.570312 31.167969 399.621094 29 397.640625 C 26.886719 395.671875 25.066406 393.414062 23.589844 390.929688 L 28.761719 390.058594 C 24.011719 388.699219 19.964844 385.566406 17.460938 381.308594 C 23.558594 382.308594 29.078125 385.660156 33.628906 389.851562 C 37.242188 393.324219 40.519531 397.121094 43.429688 401.199219 C 44.894531 403.160156 46.164062 405.257812 47.230469 407.460938 C 50 413.269531 55 425.429688 55 432.398438 Z M 55 432.398438 "/>
<path style=" stroke:none;fill-rule:nonzero;fill:rgb(14.901961%,19.607843%,21.960784%);fill-opacity:1;" d="M 97.601562 374.609375 C 97.515625 374.867188 97.410156 375.121094 97.28125 375.359375 C 97.03125 375.890625 96.699219 376.589844 96.28125 377.480469 C 95.398438 379.300781 94.128906 381.960938 92.601562 385.261719 C 89.53125 391.839844 85.488281 401.03125 81.480469 411.371094 C 77.46875 421.710938 74.300781 431.238281 72.140625 438.179688 C 71.058594 441.648438 70.199219 444.460938 69.628906 446.410156 C 69.351562 447.351562 69.121094 448.101562 68.949219 448.648438 C 68.886719 448.914062 68.792969 449.171875 68.679688 449.421875 C 68.71875 449.148438 68.773438 448.882812 68.851562 448.621094 C 69 448.058594 69.191406 447.308594 69.441406 446.359375 C 69.949219 444.359375 70.75 441.558594 71.800781 438.070312 C 73.871094 431.070312 77.011719 421.550781 81.011719 411.191406 C 85.011719 400.828125 89.121094 391.660156 92.28125 385.101562 C 93.851562 381.820312 95.160156 379.191406 96.109375 377.390625 C 96.558594 376.519531 96.929688 375.828125 97.199219 375.320312 C 97.308594 375.070312 97.441406 374.832031 97.601562 374.609375 Z M 97.601562 374.609375 "/>
<path style=" stroke:none;fill-rule:nonzero;fill:rgb(14.901961%,19.607843%,21.960784%);fill-opacity:1;" d="M 56.660156 439.941406 C 56.535156 439.558594 56.453125 439.167969 56.410156 438.769531 C 56.289062 438.019531 56.089844 436.921875 55.808594 435.578125 C 55.082031 432.082031 54.078125 428.648438 52.808594 425.308594 C 51.542969 421.972656 50.015625 418.746094 48.238281 415.648438 C 47.558594 414.460938 46.988281 413.511719 46.578125 412.859375 C 46.347656 412.53125 46.15625 412.179688 46 411.808594 C 46.285156 412.09375 46.535156 412.410156 46.75 412.75 C 47.210938 413.359375 47.828125 414.289062 48.550781 415.460938 C 50.425781 418.527344 52.015625 421.765625 53.289062 425.128906 C 54.558594 428.496094 55.503906 431.976562 56.121094 435.519531 C 56.351562 436.871094 56.5 437.980469 56.558594 438.75 C 56.640625 439.140625 56.671875 439.539062 56.660156 439.941406 Z M 56.660156 439.941406 "/>
<path style=" stroke:none;fill-rule:nonzero;fill:rgb(100%,44.705882%,36.862745%);fill-opacity:1;" d="M 40.441406 433.761719 L 92.039062 433.761719 L 92.039062 443.089844 L 40.441406 443.089844 Z M 40.441406 433.761719 "/>
<path style=" stroke:none;fill-rule:nonzero;fill:rgb(100%,44.705882%,36.862745%);fill-opacity:1;" d="M 45.359375 443.089844 L 50.941406 474.460938 L 82.121094 474.460938 L 87.328125 443.089844 Z M 45.359375 443.089844 "/>
<path style=" stroke:none;fill-rule:nonzero;fill:rgb(14.901961%,19.607843%,21.960784%);fill-opacity:1;" d="M 88.878906 443.089844 C 88.878906 443.230469 79.121094 443.339844 67.078125 443.339844 C 55.039062 443.339844 45.28125 443.230469 45.28125 443.089844 C 45.28125 442.949219 55.039062 442.839844 67.078125 442.839844 C 79.121094 442.839844 88.878906 443 88.878906 443.089844 Z M 88.878906 443.089844 "/>
<path style=" stroke:none;fill-rule:nonzero;fill:rgb(100%,44.705882%,36.862745%);fill-opacity:1;" d="M 82.554688 59.46875 C 91.261719 60.871094 97.179688 69.070312 95.773438 77.777344 C 94.371094 86.484375 86.171875 92.40625 77.464844 91 C 68.757812 89.59375 62.835938 81.394531 64.242188 72.6875 C 65.648438 63.980469 73.847656 58.0625 82.554688 59.46875 Z M 82.554688 59.46875 "/>
<path style=" stroke:none;fill-rule:nonzero;fill:rgb(100%,44.705882%,36.862745%);fill-opacity:1;" d="M 80 91.230469 C 72.40625 91.210938 65.871094 85.855469 64.359375 78.410156 C 62.851562 70.964844 66.78125 63.488281 73.769531 60.511719 C 79.78125 57.941406 86.75 59.289062 91.371094 63.910156 C 95.992188 68.53125 97.339844 75.5 94.769531 81.511719 C 92.257812 87.433594 86.433594 91.265625 80 91.230469 Z M 80 91.230469 "/>
<path style=" stroke:none;fill-rule:nonzero;fill:rgb(100%,44.705882%,36.862745%);fill-opacity:1;" d="M 77.730469 111 C 77.5625 108.808594 77.503906 106.609375 77.558594 104.410156 C 77.503906 102.210938 77.5625 100.011719 77.730469 97.820312 C 77.902344 100.011719 77.960938 102.210938 77.898438 104.410156 C 77.960938 106.609375 77.902344 108.808594 77.730469 111 Z M 77.730469 111 "/>
<path style=" stroke:none;fill-rule:nonzero;fill:rgb(100%,44.705882%,36.862745%);fill-opacity:1;" d="M 77.730469 111 C 77.730469 111 77.648438 111 77.601562 109 C 77.601562 107.761719 77.601562 106.101562 77.601562 104.339844 C 77.601562 102.578125 77.601562 100.929688 77.601562 99.679688 C 77.648438 97.738281 77.699219 97.738281 77.730469 97.738281 C 77.761719 97.738281 77.820312 97.738281 77.871094 99.679688 C 77.871094 100.929688 77.871094 102.578125 77.871094 104.339844 C 77.871094 106.101562 77.871094 107.761719 77.871094 109 C 77.820312 111 77.761719 111 77.730469 111 Z M 77.730469 97.828125 C 77.660156 98.070312 77.578125 100.578125 77.578125 104.390625 C 77.578125 108.199219 77.660156 110.710938 77.730469 110.949219 C 77.808594 110.710938 77.878906 108.210938 77.878906 104.390625 C 77.878906 100.570312 77.808594 98.058594 77.730469 97.808594 Z M 77.730469 97.828125 "/>
<path style=" stroke:none;fill-rule:nonzero;fill:rgb(100%,44.705882%,36.862745%);fill-opacity:1;" d="M 68.53125 94.070312 C 68.609375 94.070312 67.109375 96.871094 65.171875 100.21875 C 64.058594 102.28125 62.839844 104.285156 61.519531 106.21875 C 61.441406 106.21875 62.949219 103.429688 64.878906 100.078125 C 66.808594 96.730469 68.449219 94 68.53125 94.070312 Z M 68.53125 94.070312 "/>
<path style=" stroke:none;fill-rule:nonzero;fill:rgb(100%,44.705882%,36.862745%);fill-opacity:1;" d="M 61.53125 106.210938 C 61.53125 106.210938 61.449219 106.210938 62.441406 104.351562 C 63.078125 103.191406 63.941406 101.660156 64.878906 100.039062 C 65.820312 98.421875 66.710938 96.910156 67.390625 95.78125 C 68.390625 94.191406 68.5 94.050781 68.539062 94.050781 C 68.539062 94.050781 68.609375 94.050781 67.621094 95.910156 C 66.988281 97.070312 66.121094 98.601562 65.191406 100.21875 C 63.53125 103.101562 61.679688 106.21875 61.53125 106.21875 Z M 68.53125 94.101562 C 68.339844 94.289062 66.941406 96.550781 64.910156 100.101562 C 62.878906 103.648438 61.628906 105.941406 61.558594 106.210938 C 61.761719 106.019531 63.148438 103.761719 65.179688 100.210938 C 67.210938 96.660156 68.441406 94.359375 68.511719 94.101562 Z M 68.53125 94.101562 "/>
<path style=" stroke:none;fill-rule:nonzero;fill:rgb(100%,44.705882%,36.862745%);fill-opacity:1;" d="M 59.078125 88.191406 C 57.910156 89.332031 56.664062 90.394531 55.351562 91.371094 C 54.105469 92.433594 52.789062 93.40625 51.410156 94.28125 C 52.582031 93.136719 53.828125 92.074219 55.140625 91.101562 C 56.382812 90.039062 57.699219 89.066406 59.078125 88.191406 Z M 59.078125 88.191406 "/>
<path style=" stroke:none;fill-rule:nonzero;fill:rgb(100%,44.705882%,36.862745%);fill-opacity:1;" d="M 51.410156 94.300781 C 51.410156 94.300781 51.351562 94.238281 52.460938 93.300781 C 53.160156 92.699219 54.109375 91.921875 55.140625 91.109375 C 56.394531 90.058594 57.710938 89.082031 59.078125 88.191406 C 57.902344 89.332031 56.652344 90.398438 55.339844 91.378906 C 54.339844 92.191406 53.339844 92.949219 52.601562 93.5 C 52.238281 93.816406 51.839844 94.085938 51.410156 94.300781 Z M 59.058594 88.199219 C 57.703125 89.101562 56.398438 90.074219 55.148438 91.121094 C 53.847656 92.09375 52.605469 93.148438 51.429688 94.269531 C 52.785156 93.367188 54.089844 92.394531 55.339844 91.351562 C 56.636719 90.371094 57.878906 89.320312 59.058594 88.199219 Z M 59.058594 88.199219 Z M 59.058594 88.199219 "/>
<path style=" stroke:none;fill-rule:nonzero;fill:rgb(100%,44.705882%,36.862745%);fill-opacity:1;" d="M 93.671875 104.46875 C 93.480469 103.945312 93.339844 103.402344 93.25 102.851562 C 93.019531 101.851562 92.691406 100.460938 92.25 98.941406 C 91.808594 97.421875 91.429688 96.058594 91.128906 95.070312 C 90.925781 94.550781 90.777344 94.011719 90.679688 93.460938 C 90.972656 93.945312 91.207031 94.460938 91.378906 95 C 91.75 96 92.199219 97.328125 92.609375 98.859375 C 93.019531 100.390625 93.308594 101.789062 93.480469 102.859375 C 93.597656 103.390625 93.660156 103.929688 93.671875 104.46875 Z M 93.671875 104.46875 "/>
<path style=" stroke:none;fill-rule:nonzero;fill:rgb(100%,44.705882%,36.862745%);fill-opacity:1;" d="M 93.671875 104.488281 C 93.609375 104.488281 93.550781 104.238281 93.230469 102.851562 C 93.019531 101.910156 92.679688 100.488281 92.230469 98.941406 C 91.78125 97.390625 91.378906 95.941406 91.101562 95.078125 C 90.699219 93.769531 90.621094 93.480469 90.671875 93.460938 C 90.71875 93.441406 90.671875 93.460938 90.910156 93.871094 C 91.148438 94.28125 91.199219 94.558594 91.371094 95.011719 C 91.621094 95.671875 92.109375 97.011719 92.601562 98.871094 C 93.089844 100.730469 93.351562 102.121094 93.46875 102.871094 C 93.585938 103.421875 93.652344 103.984375 93.660156 104.550781 Z M 90.671875 93.488281 C 90.792969 94.019531 90.941406 94.546875 91.121094 95.058594 C 91.398438 95.960938 91.820312 97.339844 92.25 98.921875 C 92.679688 100.5 93 101.921875 93.25 102.839844 C 93.5 103.761719 93.589844 104.328125 93.648438 104.429688 C 93.632812 103.878906 93.566406 103.328125 93.449219 102.789062 C 93.226562 101.460938 92.9375 100.148438 92.578125 98.851562 C 92.089844 97.03125 91.578125 95.648438 91.359375 94.988281 C 91.179688 94.472656 90.96875 93.96875 90.71875 93.480469 Z M 90.671875 93.488281 "/>
<path style=" stroke:none;fill-rule:nonzero;fill:rgb(100%,44.705882%,36.862745%);fill-opacity:1;" d="M 109.871094 93 C 108.230469 91.785156 106.652344 90.484375 105.148438 89.101562 C 103.574219 87.796875 102.074219 86.40625 100.648438 84.941406 C 102.292969 86.15625 103.867188 87.460938 105.371094 88.851562 C 106.945312 90.148438 108.449219 91.535156 109.871094 93 Z M 109.871094 93 "/>
<path style=" stroke:none;fill-rule:nonzero;fill:rgb(100%,44.705882%,36.862745%);fill-opacity:1;" d="M 109.871094 93 C 108.226562 91.78125 106.648438 90.476562 105.140625 89.089844 C 103.910156 88.011719 102.761719 86.988281 101.910156 86.199219 C 100.578125 84.96875 100.621094 84.929688 100.640625 84.910156 C 102.285156 86.128906 103.863281 87.433594 105.371094 88.820312 C 106.601562 89.898438 107.75 90.921875 108.601562 91.710938 C 109.929688 92.941406 109.890625 92.980469 109.871094 93 Z M 100.671875 84.941406 C 100.789062 85.140625 102.488281 86.730469 105.160156 89.070312 C 107.828125 91.410156 109.628906 92.871094 109.851562 92.960938 C 109.730469 92.761719 108.03125 91.171875 105.359375 88.839844 C 102.691406 86.511719 100.890625 85 100.671875 84.929688 Z M 100.671875 84.941406 "/>
<path style=" stroke:none;fill-rule:nonzero;fill:rgb(100%,44.705882%,36.862745%);fill-opacity:1;" d="M 116.078125 77.171875 C 115.429688 77.128906 114.785156 77.039062 114.148438 76.898438 C 112.96875 76.699219 111.328125 76.449219 109.511719 76.238281 C 107.691406 76.03125 106.050781 75.898438 104.851562 75.828125 C 104.199219 75.820312 103.550781 75.765625 102.910156 75.660156 C 103.574219 75.574219 104.242188 75.550781 104.910156 75.589844 C 106.109375 75.589844 107.78125 75.691406 109.601562 75.898438 C 111.421875 76.109375 113.070312 76.398438 114.25 76.660156 C 114.875 76.773438 115.488281 76.945312 116.078125 77.171875 Z M 116.078125 77.171875 "/>
<path style=" stroke:none;fill-rule:nonzero;fill:rgb(100%,44.705882%,36.862745%);fill-opacity:1;" d="M 116 77.199219 C 115.859375 77.199219 115.46875 77.140625 114.511719 76.980469 L 114.128906 76.910156 C 112.511719 76.640625 110.949219 76.421875 109.488281 76.25 C 108.03125 76.078125 106.488281 75.949219 104.828125 75.851562 L 104.449219 75.851562 C 103.128906 75.769531 102.871094 75.75 102.871094 75.691406 C 103.53125 75.597656 104.203125 75.570312 104.871094 75.609375 C 105.699219 75.609375 107.410156 75.679688 109.558594 75.929688 C 111.121094 76.101562 112.675781 76.355469 114.210938 76.691406 C 114.855469 76.796875 115.488281 76.96875 116.101562 77.199219 C 116.101562 77.199219 116.070312 77.199219 116 77.199219 Z M 102.921875 75.660156 C 103.425781 75.730469 103.9375 75.773438 104.449219 75.789062 L 104.828125 75.789062 C 106.480469 75.898438 108.050781 76.03125 109.5 76.199219 C 110.949219 76.371094 112.5 76.589844 114.128906 76.859375 L 114.511719 76.921875 C 115.28125 77.050781 115.859375 77.148438 116.011719 77.148438 C 115.402344 76.941406 114.78125 76.777344 114.148438 76.660156 C 113.339844 76.480469 111.660156 76.148438 109.511719 75.898438 C 107.953125 75.71875 106.386719 75.613281 104.820312 75.589844 C 104.191406 75.578125 103.566406 75.601562 102.941406 75.660156 Z M 102.921875 75.660156 "/>
<path style=" stroke:none;fill-rule:nonzero;fill:rgb(100%,44.705882%,36.862745%);fill-opacity:1;" d="M 116.101562 61.640625 C 116.101562 61.730469 112.660156 62.640625 108.371094 63.640625 C 104.078125 64.640625 100.589844 65.460938 100.570312 65.371094 C 100.550781 65.28125 104.011719 64.371094 108.289062 63.308594 C 112.570312 62.25 116.078125 61.550781 116.101562 61.640625 Z M 116.101562 61.640625 "/>
<path style=" stroke:none;fill-rule:nonzero;fill:rgb(100%,44.705882%,36.862745%);fill-opacity:1;" d="M 100.609375 65.441406 C 100.609375 65.441406 100.609375 65.441406 100.550781 65.441406 C 100.488281 65.441406 100.550781 65.359375 102.808594 64.75 C 104.269531 64.359375 106.21875 63.871094 108.289062 63.371094 C 110.359375 62.871094 112.289062 62.371094 113.789062 62.078125 C 116.089844 61.570312 116.109375 61.621094 116.109375 61.648438 C 116.109375 61.648438 116.109375 61.738281 113.859375 62.339844 C 112.398438 62.730469 110.449219 63.21875 108.378906 63.730469 C 106.308594 64.238281 104.378906 64.730469 102.878906 65.019531 C 102.132812 65.203125 101.375 65.34375 100.609375 65.441406 Z M 116.058594 61.640625 C 115.75 61.640625 112.789062 62.289062 108.300781 63.378906 C 103.808594 64.46875 100.890625 65.261719 100.601562 65.378906 C 100.921875 65.378906 103.878906 64.738281 108.371094 63.640625 C 112.859375 62.539062 115.78125 61.789062 116.058594 61.640625 Z M 116.058594 61.640625 "/>
<path style=" stroke:none;fill-rule:nonzero;fill:rgb(100%,44.705882%,36.862745%);fill-opacity:1;" d="M 98.050781 43.53125 C 98.121094 43.53125 96.46875 46.21875 94.351562 49.429688 C 92.230469 52.640625 90.449219 55.191406 90.351562 55.140625 C 90.25 55.089844 91.921875 52.449219 94.039062 49.238281 C 96.160156 46.03125 98 43.480469 98.050781 43.53125 Z M 98.050781 43.53125 "/>
<path style=" stroke:none;fill-rule:nonzero;fill:rgb(100%,44.705882%,36.862745%);fill-opacity:1;" d="M 90.378906 55.160156 C 90.378906 55.011719 92.261719 52 94.078125 49.25 C 95.078125 47.699219 96.078125 46.25 96.828125 45.179688 C 98 43.5 98 43.5 98.058594 43.519531 C 98.058594 43.519531 98.128906 43.519531 97.058594 45.308594 C 96.359375 46.421875 95.410156 47.890625 94.390625 49.441406 C 93.371094 50.988281 92.390625 52.441406 91.628906 53.511719 C 91.277344 54.105469 90.855469 54.65625 90.378906 55.160156 Z M 98 43.558594 C 97.789062 43.738281 96.269531 45.890625 94 49.25 C 91.730469 52.609375 90.390625 54.851562 90.308594 55.109375 C 90.519531 54.941406 92.039062 52.78125 94.308594 49.421875 C 96.578125 46.058594 98 43.820312 98 43.558594 Z M 98 43.558594 "/>
<path style=" stroke:none;fill-rule:nonzero;fill:rgb(100%,44.705882%,36.862745%);fill-opacity:1;" d="M 80.128906 39.75 C 80.179688 40.484375 80.179688 41.21875 80.128906 41.949219 C 80.128906 43.300781 80.128906 45.171875 80.128906 47.230469 C 80.128906 49.289062 80.128906 51.160156 80.191406 52.511719 C 80.242188 53.242188 80.242188 53.976562 80.191406 54.710938 C 80.050781 53.988281 79.976562 53.253906 79.96875 52.519531 C 79.890625 51.171875 79.820312 49.300781 79.820312 47.230469 C 79.820312 45.160156 79.878906 43.289062 79.960938 41.941406 C 79.960938 41.207031 80.015625 40.472656 80.128906 39.75 Z M 80.128906 39.75 "/>
<path style=" stroke:none;fill-rule:nonzero;fill:rgb(100%,44.705882%,36.862745%);fill-opacity:1;" d="M 80.148438 54.71875 C 80.148438 54.71875 80.101562 54.71875 80.039062 54.121094 C 80.039062 53.71875 79.949219 53.121094 79.910156 52.519531 C 79.910156 51.609375 79.761719 49.710938 79.761719 47.230469 C 79.761719 44.75 79.851562 42.851562 79.898438 41.941406 C 79.898438 41.289062 79.980469 40.738281 80.019531 40.328125 C 80.078125 39.761719 80.109375 39.738281 80.128906 39.738281 C 80.179688 39.738281 80.199219 39.941406 80.128906 41.949219 C 80.128906 43.21875 80.128906 45.148438 80.128906 47.230469 C 80.128906 49.308594 80.128906 51.089844 80.179688 52.429688 L 80.179688 52.511719 C 80.179688 54.511719 80.179688 54.71875 80.179688 54.71875 Z M 80.148438 39.789062 C 80.046875 40.503906 79.984375 41.21875 79.960938 41.941406 C 79.898438 42.851562 79.808594 44.75 79.808594 47.230469 C 79.808594 49.710938 79.910156 51.609375 79.96875 52.519531 C 79.988281 53.242188 80.054688 53.957031 80.171875 54.671875 C 80.171875 54.488281 80.171875 53.308594 80.171875 52.511719 L 80.171875 52.429688 C 80.171875 51.089844 80.121094 49.25 80.109375 47.230469 C 80.101562 45.210938 80.109375 43.230469 80.109375 41.941406 C 80.148438 41.148438 80.171875 40 80.128906 39.789062 Z M 80.148438 39.789062 "/>
<path style=" stroke:none;fill-rule:nonzero;fill:rgb(100%,44.705882%,36.862745%);fill-opacity:1;" d="M 66.570312 56.648438 C 65.21875 54.769531 63.964844 52.824219 62.808594 50.820312 C 60.808594 47.550781 59.261719 44.820312 59.339844 44.820312 C 59.421875 44.820312 61.101562 47.378906 63.101562 50.648438 C 65.101562 53.921875 66.648438 56.601562 66.570312 56.648438 Z M 66.570312 56.648438 "/>
<path style=" stroke:none;fill-rule:nonzero;fill:rgb(100%,44.705882%,36.862745%);fill-opacity:1;" d="M 66.570312 56.671875 C 66.570312 56.671875 66.390625 56.53125 65.390625 54.988281 C 64.679688 53.890625 63.761719 52.410156 62.789062 50.828125 C 61.078125 48.03125 59.28125 44.96875 59.320312 44.828125 C 59.359375 44.691406 59.320312 44.828125 59.320312 44.828125 C 59.320312 44.828125 59.390625 44.828125 60.5 46.511719 C 61.210938 47.609375 62.128906 49.089844 63.101562 50.671875 C 64.070312 52.25 64.960938 53.738281 65.609375 54.871094 C 66.609375 56.648438 66.609375 56.679688 66.609375 56.691406 Z M 59.351562 44.839844 C 59.421875 45.101562 60.730469 47.390625 62.820312 50.839844 C 64.910156 54.289062 66.351562 56.46875 66.550781 56.648438 C 66.480469 56.390625 65.171875 54.109375 63.078125 50.648438 C 60.988281 47.191406 59.550781 45 59.351562 44.839844 Z M 59.351562 44.839844 "/>
<path style=" stroke:none;fill-rule:nonzero;fill:rgb(100%,44.705882%,36.862745%);fill-opacity:1;" d="M 58.460938 63.539062 C 57.886719 63.503906 57.316406 63.414062 56.761719 63.269531 C 55.761719 63.050781 54.300781 62.699219 52.761719 62.269531 C 51.21875 61.839844 49.820312 61.328125 48.828125 60.949219 C 48.28125 60.773438 47.75 60.542969 47.25 60.261719 C 47.8125 60.363281 48.367188 60.519531 48.898438 60.730469 C 49.898438 61.050781 51.300781 61.488281 52.898438 61.949219 C 54.5 62.410156 55.898438 62.789062 56.898438 63.058594 C 57.433594 63.171875 57.957031 63.332031 58.460938 63.539062 Z M 58.460938 63.539062 "/>
<path style=" stroke:none;fill-rule:nonzero;fill:rgb(100%,44.705882%,36.862745%);fill-opacity:1;" d="M 58.410156 63.558594 C 58.273438 63.554688 58.136719 63.539062 58 63.511719 C 57.679688 63.511719 57.25 63.390625 56.761719 63.28125 C 56.058594 63.128906 54.601562 62.808594 52.761719 62.28125 C 50.921875 61.75 49.5 61.210938 48.828125 60.960938 C 48.359375 60.78125 47.960938 60.609375 47.660156 60.480469 C 47.359375 60.351562 47.238281 60.261719 47.25 60.238281 C 47.261719 60.21875 47.488281 60.238281 48.921875 60.699219 C 49.730469 60.960938 51.230469 61.441406 52.921875 61.921875 C 54.398438 62.359375 55.75 62.730469 56.921875 63.039062 C 58.371094 63.429688 58.589844 63.511719 58.578125 63.558594 C 58.578125 63.558594 58.46875 63.558594 58.410156 63.558594 Z M 47.269531 60.238281 C 47.773438 60.496094 48.289062 60.71875 48.820312 60.910156 C 49.488281 61.160156 50.890625 61.679688 52.75 62.230469 C 54.609375 62.78125 56.070312 63.101562 56.75 63.230469 C 57.289062 63.359375 57.835938 63.453125 58.390625 63.511719 C 57.863281 63.320312 57.324219 63.160156 56.78125 63.03125 C 55.628906 62.71875 54.289062 62.351562 52.78125 61.910156 C 51.140625 61.429688 49.640625 60.910156 48.78125 60.691406 C 48.285156 60.515625 47.78125 60.367188 47.269531 60.238281 Z M 47.269531 60.238281 "/>
<path style=" stroke:none;fill-rule:nonzero;fill:rgb(100%,44.705882%,36.862745%);fill-opacity:1;" d="M 54.921875 75.808594 C 53.234375 76.140625 51.53125 76.363281 49.820312 76.46875 C 48.117188 76.6875 46.40625 76.792969 44.691406 76.789062 C 46.375 76.460938 48.078125 76.242188 49.789062 76.128906 C 51.492188 75.914062 53.203125 75.804688 54.921875 75.808594 Z M 54.921875 75.808594 "/>
<path style=" stroke:none;fill-rule:nonzero;fill:rgb(100%,44.705882%,36.862745%);fill-opacity:1;" d="M 45 76.839844 C 44.902344 76.859375 44.800781 76.859375 44.699219 76.839844 C 46.390625 76.527344 48.097656 76.3125 49.808594 76.191406 C 51.515625 75.972656 53.230469 75.863281 54.949219 75.859375 C 53.265625 76.183594 51.5625 76.40625 49.851562 76.519531 C 47.859375 76.671875 45.761719 76.839844 45 76.839844 Z M 44.730469 76.839844 C 46.433594 76.820312 48.136719 76.707031 49.828125 76.5 C 51.535156 76.382812 53.230469 76.167969 54.910156 75.859375 C 53.203125 75.878906 51.496094 75.996094 49.800781 76.199219 C 48.097656 76.300781 46.402344 76.496094 44.71875 76.789062 Z M 44.730469 76.839844 "/>
<path style=" stroke:none;fill-rule:nonzero;fill:rgb(100%,74.901961%,61.568627%);fill-opacity:1;" d="M 360 152.558594 C 359.386719 150.289062 359.992188 147.859375 361.601562 146.140625 C 363.515625 144.292969 365.730469 142.78125 368.148438 141.671875 C 369.628906 140.871094 372.589844 137.96875 373.199219 138.570312 C 373.957031 139.308594 374.050781 140.492188 373.421875 141.339844 C 372.710938 142.570312 368.238281 144.671875 369 146.101562 C 369.308594 146.679688 370.761719 146.671875 370.761719 146.671875 C 373.394531 146.65625 376.023438 146.503906 378.640625 146.21875 C 380.949219 145.839844 383.078125 146.121094 383.019531 146.929688 C 382.960938 147.738281 382.550781 148.21875 380.640625 148.53125 C 378.730469 148.839844 375.589844 148.960938 375.460938 149.421875 C 375.328125 149.878906 376 150.101562 377.109375 149.941406 C 378.21875 149.78125 383.53125 149.359375 383.941406 149.941406 C 384.140625 150.234375 384.199219 150.605469 384.097656 150.949219 C 384 151.292969 383.757812 151.574219 383.429688 151.71875 L 382.21875 152.25 C 382.21875 152.25 383.019531 153.199219 382.460938 153.808594 C 381.898438 154.421875 380.519531 154.320312 380.519531 154.320312 L 373.519531 154.671875 C 373.519531 154.671875 373.160156 155.121094 373.378906 155.398438 C 373.601562 155.679688 379.070312 154.839844 379.160156 155.398438 C 379.25 155.960938 379.75 156.238281 378.160156 156.769531 C 375.789062 157.359375 373.335938 157.550781 370.898438 157.339844 C 368.316406 157.171875 365.726562 157.140625 363.140625 157.25 Z M 360 152.558594 "/>
<path style=" stroke:none;fill-rule:nonzero;fill:rgb(100%,60.392157%,42.352941%);fill-opacity:1;" d="M 370 144.078125 C 370.058594 144.078125 369.710938 144.519531 369.28125 145.199219 C 369.03125 145.582031 368.875 146.015625 368.820312 146.46875 C 368.75 146.988281 368.820312 147.578125 368.769531 148.230469 C 368.710938 149.386719 368.183594 150.472656 367.308594 151.230469 C 366.648438 151.789062 366.121094 151.910156 366.101562 151.859375 C 366.078125 151.808594 366.539062 151.570312 367.101562 151 C 367.8125 150.253906 368.246094 149.28125 368.320312 148.25 C 368.320312 147.652344 368.347656 147.054688 368.410156 146.460938 C 368.488281 145.949219 368.695312 145.46875 369.011719 145.058594 C 369.261719 144.664062 369.601562 144.328125 370 144.078125 Z M 370 144.078125 "/>
<path style=" stroke:none;fill-rule:nonzero;fill:rgb(100%,60.392157%,42.352941%);fill-opacity:1;" d="M 371.890625 152.078125 C 373.625 151.855469 375.375 151.789062 377.121094 151.878906 C 378.863281 151.820312 380.609375 151.902344 382.339844 152.128906 C 380.605469 152.347656 378.855469 152.414062 377.109375 152.328125 C 375.367188 152.390625 373.621094 152.304688 371.890625 152.078125 Z M 371.890625 152.078125 "/>
<path style=" stroke:none;fill-rule:nonzero;fill:rgb(100%,74.901961%,61.568627%);fill-opacity:1;" d="M 363.300781 146.800781 L 328.679688 151.800781 C 328.679688 151.800781 306.929688 131.660156 300.871094 129.421875 C 300.382812 129.207031 299.867188 129.058594 299.339844 128.980469 L 306.890625 149.800781 C 306.890625 149.800781 321.210938 165.660156 328.890625 166.21875 C 336.570312 166.78125 364.648438 157.058594 364.648438 157.058594 Z M 363.300781 146.800781 "/>
<path style=" stroke:none;fill-rule:nonzero;fill:rgb(100%,74.901961%,61.568627%);fill-opacity:1;" d="M 276.421875 123.828125 L 279 91.628906 C 279.390625 83.628906 284.390625 77.128906 292.410156 77.738281 L 293.148438 77.839844 C 300.558594 78.851562 305.960938 85.371094 305.578125 92.839844 C 305.199219 99.839844 304.691406 107.480469 304.140625 111.171875 C 303.011719 118.800781 295.199219 118.960938 295.199219 118.960938 C 295.199219 118.960938 294.71875 123.621094 294.511719 125.878906 L 295.820312 131.308594 L 289.648438 129.179688 Z M 276.421875 123.828125 "/>
<path style=" stroke:none;fill-rule:nonzero;fill:rgb(100%,60.392157%,42.352941%);fill-opacity:1;" d="M 295.238281 119 C 291.710938 118.511719 288.394531 117.019531 285.691406 114.699219 C 285.691406 114.699219 287.300781 120.78125 295.03125 121.121094 Z M 295.238281 119 "/>
<path style=" stroke:none;fill-rule:nonzero;fill:rgb(14.901961%,19.607843%,21.960784%);fill-opacity:1;" d="M 302.070312 99.199219 C 302.011719 99.808594 301.46875 100.257812 300.859375 100.199219 C 300.574219 100.183594 300.308594 100.054688 300.121094 99.839844 C 299.933594 99.625 299.839844 99.34375 299.859375 99.058594 C 299.917969 98.453125 300.453125 98.007812 301.058594 98.058594 C 301.347656 98.074219 301.617188 98.199219 301.804688 98.417969 C 301.996094 98.632812 302.09375 98.914062 302.070312 99.199219 Z M 302.070312 99.199219 "/>
<path style=" stroke:none;fill-rule:nonzero;fill:rgb(14.901961%,19.607843%,21.960784%);fill-opacity:1;" d="M 303.53125 96 C 303.378906 96.128906 302.628906 95.398438 301.460938 95.25 C 300.289062 95.101562 299.339844 95.558594 299.230469 95.398438 C 299.121094 95.238281 299.351562 95.089844 299.761719 94.871094 C 300.316406 94.582031 300.949219 94.480469 301.570312 94.570312 C 302.183594 94.648438 302.753906 94.921875 303.199219 95.351562 C 303.519531 95.691406 303.609375 96 303.53125 96 Z M 303.53125 96 "/>
<path style=" stroke:none;fill-rule:nonzero;fill:rgb(14.901961%,19.607843%,21.960784%);fill-opacity:1;" d="M 291.859375 97.78125 C 291.835938 98.070312 291.695312 98.34375 291.46875 98.53125 C 291.242188 98.71875 290.953125 98.808594 290.660156 98.78125 C 290.375 98.765625 290.109375 98.636719 289.921875 98.421875 C 289.730469 98.207031 289.636719 97.925781 289.660156 97.640625 C 289.71875 97.03125 290.257812 96.582031 290.871094 96.640625 C 291.152344 96.65625 291.417969 96.789062 291.605469 97.003906 C 291.789062 97.21875 291.882812 97.496094 291.859375 97.78125 Z M 291.859375 97.78125 "/>
<path style=" stroke:none;fill-rule:nonzero;fill:rgb(14.901961%,19.607843%,21.960784%);fill-opacity:1;" d="M 292 94.730469 C 291.839844 94.859375 291.101562 94.128906 289.921875 93.980469 C 288.738281 93.828125 287.808594 94.289062 287.699219 94.128906 C 287.589844 93.96875 287.808594 93.820312 288.230469 93.601562 C 288.785156 93.316406 289.414062 93.210938 290.03125 93.300781 C 290.640625 93.382812 291.210938 93.65625 291.660156 94.078125 C 292 94.410156 292.050781 94.679688 292 94.730469 Z M 292 94.730469 "/>
<path style=" stroke:none;fill-rule:nonzero;fill:rgb(14.901961%,19.607843%,21.960784%);fill-opacity:1;" d="M 295 104.328125 C 295.644531 104.226562 296.300781 104.203125 296.949219 104.25 C 297.261719 104.25 297.550781 104.25 297.628906 104.039062 C 297.699219 103.730469 297.671875 103.410156 297.550781 103.121094 C 297.359375 102.359375 297.171875 101.558594 296.96875 100.71875 C 296.410156 98.671875 296.015625 96.582031 295.789062 94.46875 C 296.515625 96.46875 297.074219 98.523438 297.46875 100.609375 C 297.660156 101.449219 297.839844 102.25 298.011719 103.019531 C 298.15625 103.40625 298.15625 103.832031 298.011719 104.21875 C 297.894531 104.421875 297.691406 104.558594 297.460938 104.589844 C 297.289062 104.621094 297.113281 104.621094 296.941406 104.589844 C 296.285156 104.59375 295.632812 104.507812 295 104.328125 Z M 295 104.328125 "/>
<path style=" stroke:none;fill-rule:nonzero;fill:rgb(14.901961%,19.607843%,21.960784%);fill-opacity:1;" d="M 292.851562 91.109375 C 292.648438 91.390625 291.558594 90.921875 290.171875 90.699219 C 288.78125 90.480469 287.601562 90.539062 287.5 90.210938 C 287.5 90.058594 287.730469 89.820312 288.25 89.640625 C 289.644531 89.222656 291.152344 89.480469 292.328125 90.328125 C 292.769531 90.660156 293 91 292.851562 91.109375 Z M 292.851562 91.109375 "/>
<path style=" stroke:none;fill-rule:nonzero;fill:rgb(14.901961%,19.607843%,21.960784%);fill-opacity:1;" d="M 304.050781 92.578125 C 303.78125 92.808594 302.851562 92.421875 301.699219 92.269531 C 300.550781 92.121094 299.550781 92.191406 299.359375 91.878906 C 299.28125 91.738281 299.460938 91.488281 299.921875 91.289062 C 300.554688 91.03125 301.246094 90.960938 301.921875 91.078125 C 302.582031 91.167969 303.207031 91.429688 303.730469 91.839844 C 304.078125 92.171875 304.179688 92.460938 304.050781 92.578125 Z M 304.050781 92.578125 "/>
<path style=" stroke:none;fill-rule:nonzero;fill:rgb(100%,74.901961%,61.568627%);fill-opacity:1;" d="M 278.898438 97.378906 C 278.769531 97.300781 273.898438 95.109375 273.308594 100.378906 C 272.71875 105.648438 278.148438 105.089844 278.179688 104.941406 C 278.210938 104.789062 278.898438 97.378906 278.898438 97.378906 Z M 278.898438 97.378906 "/>
<path style=" stroke:none;fill-rule:nonzero;fill:rgb(100%,60.392157%,42.352941%);fill-opacity:1;" d="M 276.78125 102.769531 C 276.78125 102.769531 276.679688 102.769531 276.519531 102.878906 C 276.289062 102.941406 276.046875 102.921875 275.828125 102.820312 C 275.183594 102.3125 274.867188 101.492188 275 100.679688 C 275.027344 100.230469 275.164062 99.789062 275.390625 99.398438 C 275.515625 99.070312 275.804688 98.832031 276.148438 98.769531 C 276.371094 98.734375 276.585938 98.859375 276.660156 99.070312 C 276.71875 99.230469 276.660156 99.328125 276.660156 99.339844 C 276.660156 99.351562 276.78125 99.261719 276.761719 99.039062 C 276.742188 98.910156 276.683594 98.785156 276.589844 98.691406 C 276.453125 98.574219 276.28125 98.507812 276.101562 98.511719 C 275.667969 98.5625 275.289062 98.828125 275.101562 99.21875 C 274.832031 99.652344 274.671875 100.144531 274.628906 100.648438 C 274.472656 101.601562 274.910156 102.554688 275.730469 103.058594 C 276 103.1875 276.3125 103.1875 276.578125 103.058594 C 276.761719 102.890625 276.800781 102.78125 276.78125 102.769531 Z M 276.78125 102.769531 "/>
<path style=" stroke:none;fill-rule:nonzero;fill:rgb(14.901961%,19.607843%,21.960784%);fill-opacity:1;" d="M 291.191406 104.71875 C 291.378906 104.71875 291.269531 105.929688 292.191406 106.878906 C 293.109375 107.828125 294.441406 107.808594 294.441406 107.980469 C 294.441406 108.148438 294.128906 108.191406 293.578125 108.160156 C 292.871094 108.109375 292.207031 107.808594 291.699219 107.308594 C 291.214844 106.828125 290.933594 106.183594 290.910156 105.5 C 291 105 291.109375 104.699219 291.191406 104.71875 Z M 291.191406 104.71875 "/>
<path style=" stroke:none;fill-rule:nonzero;fill:rgb(14.901961%,19.607843%,21.960784%);fill-opacity:1;" d="M 316.871094 87 C 316.808594 86.679688 316.628906 86.394531 316.359375 86.210938 C 315.777344 85.863281 315.109375 85.679688 314.429688 85.679688 C 312.761719 85.472656 311.164062 84.890625 309.761719 83.96875 C 310.304688 83.773438 310.8125 83.488281 311.269531 83.128906 C 312.257812 82.394531 312.757812 81.167969 312.558594 79.949219 C 312.53125 79.726562 312.402344 79.527344 312.210938 79.410156 C 311.878906 79.269531 311.539062 79.570312 311.28125 79.808594 C 310.574219 80.582031 309.503906 80.90625 308.488281 80.660156 C 307.792969 80.542969 307.128906 80.269531 306.550781 79.859375 C 306.53125 79.835938 306.515625 79.808594 306.5 79.78125 L 305.78125 78.890625 C 304.425781 77.050781 302.726562 75.492188 300.78125 74.300781 C 297.851562 72.871094 294.585938 72.265625 291.339844 72.550781 C 288.535156 72.90625 286.195312 74.855469 285.339844 77.550781 C 283.839844 76.207031 281.730469 75.785156 279.828125 76.441406 L 279.78125 76.441406 C 277.671875 76.960938 276.289062 78.980469 275.46875 80.988281 L 275.351562 81.320312 C 274.554688 82.34375 273.527344 83.164062 272.351562 83.710938 C 272.140625 83.800781 271.898438 83.921875 271.851562 84.140625 C 271.847656 84.371094 271.960938 84.589844 272.148438 84.71875 C 272.601562 85.117188 273.140625 85.414062 273.71875 85.578125 C 273.480469 86.050781 273.203125 86.503906 272.890625 86.929688 C 272.621094 87.300781 272.300781 87.730469 272.460938 88.160156 C 272.617188 88.488281 272.960938 88.679688 273.320312 88.640625 C 273.671875 88.605469 274.011719 88.496094 274.320312 88.320312 C 274.03125 88.828125 273.75 89.320312 273.46875 89.871094 C 274.191406 90.074219 274.953125 90.105469 275.691406 89.960938 C 275.921875 91.960938 275.871094 95.570312 276.230469 96.960938 C 277.050781 96.957031 277.867188 97.082031 278.648438 97.320312 C 279.53125 97.71875 279.011719 99.320312 280.238281 98.960938 C 280.871094 98.789062 282.039062 96.609375 282.300781 96.019531 C 284.074219 92.070312 284.96875 87.789062 284.929688 83.460938 C 285.875 82.652344 286.964844 82.03125 288.140625 81.628906 L 288.039062 81.699219 C 290.261719 81.179688 292.769531 80.699219 294.699219 81.929688 C 296.191406 82.871094 296.949219 84.609375 297.988281 86.039062 C 299.746094 88.671875 302.550781 90.421875 305.691406 90.839844 C 305.738281 93.191406 305.429688 96.988281 305.320312 99.160156 L 307.621094 95.03125 C 307.792969 94.796875 307.949219 94.554688 308.089844 94.300781 L 308.140625 94.230469 C 308.378906 93.839844 308.601562 93.449219 308.878906 93.058594 C 309.359375 93.546875 310.125 93.597656 310.667969 93.179688 C 311.207031 92.761719 311.347656 92.007812 311 91.421875 C 310.847656 91.148438 310.652344 90.902344 310.421875 90.691406 C 310.910156 91.273438 311.667969 91.554688 312.421875 91.429688 C 313.167969 91.285156 313.726562 90.660156 313.78125 89.898438 C 313.777344 89.386719 313.496094 88.917969 313.050781 88.671875 C 313.996094 88.839844 314.96875 88.730469 315.851562 88.351562 C 316.398438 88.101562 317 87.648438 316.871094 87 Z M 316.871094 87 "/>
<path style=" stroke:none;fill-rule:nonzero;fill:rgb(27.058824%,35.294118%,39.215686%);fill-opacity:1;" d="M 287.628906 78.660156 C 287.332031 78.851562 287.050781 79.0625 286.78125 79.289062 C 286.101562 79.960938 285.605469 80.792969 285.339844 81.710938 C 285.136719 82.339844 285 82.992188 284.929688 83.648438 C 284.859375 84.351562 284.828125 85.121094 284.800781 85.921875 C 284.785156 86.765625 284.71875 87.613281 284.601562 88.449219 C 284.53125 88.894531 284.421875 89.332031 284.28125 89.761719 C 284.167969 90.222656 283.9375 90.644531 283.609375 90.988281 C 283.304688 91.265625 282.875 91.363281 282.480469 91.238281 C 282.113281 91.128906 281.796875 90.898438 281.570312 90.589844 C 281.21875 89.980469 281.03125 89.292969 281.03125 88.589844 L 281.191406 88.589844 C 280.902344 89.144531 280.53125 89.65625 280.089844 90.101562 C 279.667969 90.515625 279.101562 90.75 278.511719 90.761719 C 278.234375 90.761719 277.964844 90.683594 277.730469 90.539062 C 277.515625 90.394531 277.347656 90.191406 277.25 89.949219 C 277.152344 89.730469 277.121094 89.488281 277.160156 89.25 C 277.191406 89.03125 277.296875 88.828125 277.460938 88.679688 L 277.539062 88.761719 C 277.027344 89.234375 276.421875 89.597656 275.761719 89.828125 C 275.585938 89.886719 275.410156 89.933594 275.230469 89.96875 L 275 90 C 275 90 275.058594 90 275.179688 89.941406 C 275.355469 89.894531 275.53125 89.839844 275.699219 89.769531 C 276.339844 89.523438 276.925781 89.152344 277.421875 88.679688 L 277.5 88.761719 C 277.207031 89.066406 277.140625 89.523438 277.328125 89.898438 C 277.417969 90.113281 277.566406 90.292969 277.761719 90.421875 C 277.972656 90.550781 278.21875 90.617188 278.46875 90.609375 C 279.039062 90.613281 279.589844 90.394531 280 90 C 280.398438 89.550781 280.734375 89.050781 281 88.511719 L 281.140625 88.269531 L 281.140625 88.539062 C 281.136719 89.21875 281.3125 89.890625 281.648438 90.480469 C 281.851562 90.761719 282.140625 90.96875 282.46875 91.070312 C 282.816406 91.1875 283.199219 91.109375 283.46875 90.859375 C 283.769531 90.53125 283.980469 90.132812 284.089844 89.699219 C 284.226562 89.28125 284.332031 88.855469 284.398438 88.421875 C 284.527344 87.589844 284.597656 86.75 284.621094 85.910156 C 284.621094 85.109375 284.679688 84.351562 284.769531 83.628906 C 284.839844 82.949219 284.984375 82.277344 285.199219 81.628906 C 285.480469 80.699219 286.003906 79.859375 286.71875 79.199219 C 286.992188 78.96875 287.296875 78.785156 287.628906 78.660156 Z M 287.628906 78.660156 "/>
<path style=" stroke:none;fill-rule:nonzero;fill:rgb(27.058824%,35.294118%,39.215686%);fill-opacity:1;" d="M 310.609375 88.640625 L 310.539062 88.640625 L 310.328125 88.761719 L 310 89 C 309.835938 89.078125 309.671875 89.144531 309.5 89.199219 C 308.421875 89.558594 307.269531 89.640625 306.148438 89.441406 C 304.484375 89.148438 302.941406 88.386719 301.699219 87.238281 C 300.203125 85.832031 299.011719 84.128906 298.199219 82.238281 C 297.738281 81.238281 297.378906 80.238281 296.96875 79.320312 C 296.605469 78.410156 296.113281 77.5625 295.5 76.800781 C 294.953125 76.109375 294.242188 75.566406 293.429688 75.21875 C 293.0625 75.078125 292.675781 74.992188 292.28125 74.96875 C 291.914062 74.949219 291.546875 74.976562 291.191406 75.058594 C 290.570312 75.199219 289.988281 75.46875 289.480469 75.851562 C 289.09375 76.128906 288.757812 76.464844 288.480469 76.851562 C 288.273438 77.210938 288.113281 77.597656 288 78 C 287.996094 77.972656 287.996094 77.945312 288 77.921875 C 288 77.851562 288 77.78125 288.058594 77.691406 C 288.152344 77.394531 288.285156 77.113281 288.449219 76.851562 C 289.074219 75.882812 290.046875 75.191406 291.171875 74.929688 C 291.535156 74.84375 291.914062 74.8125 292.289062 74.828125 C 292.703125 74.84375 293.105469 74.929688 293.488281 75.078125 C 294.332031 75.429688 295.070312 75.980469 295.640625 76.691406 C 296.261719 77.464844 296.765625 78.328125 297.140625 79.25 C 297.558594 80.191406 297.910156 81.191406 298.371094 82.171875 C 299.171875 84.050781 300.34375 85.753906 301.820312 87.171875 C 303.035156 88.300781 304.546875 89.066406 306.179688 89.371094 C 307.28125 89.570312 308.417969 89.503906 309.488281 89.179688 C 309.875 89.023438 310.246094 88.839844 310.609375 88.640625 Z M 310.609375 88.640625 "/>
<path style=" stroke:none;fill-rule:nonzero;fill:rgb(27.058824%,35.294118%,39.215686%);fill-opacity:1;" d="M 311.660156 85.339844 C 311.574219 85.40625 311.472656 85.460938 311.371094 85.5 C 311.089844 85.628906 310.804688 85.738281 310.511719 85.828125 C 310.074219 85.964844 309.625 86.0625 309.171875 86.121094 C 308.613281 86.171875 308.054688 86.171875 307.5 86.121094 C 306.941406 86.082031 306.386719 85.984375 305.851562 85.828125 C 305.410156 85.714844 304.980469 85.554688 304.570312 85.359375 C 304.289062 85.230469 304.019531 85.078125 303.761719 84.910156 C 303.664062 84.847656 303.574219 84.777344 303.488281 84.699219 C 303.488281 84.699219 303.910156 84.941406 304.621094 85.238281 C 305.03125 85.414062 305.457031 85.558594 305.890625 85.671875 C 306.421875 85.8125 306.960938 85.902344 307.511719 85.941406 C 308.054688 85.984375 308.605469 85.984375 309.148438 85.941406 C 309.59375 85.890625 310.035156 85.8125 310.46875 85.699219 C 311.210938 85.511719 311.648438 85.308594 311.660156 85.339844 Z M 311.660156 85.339844 "/>
<path style=" stroke:none;fill-rule:nonzero;fill:rgb(14.901961%,19.607843%,21.960784%);fill-opacity:1;" d="M 394.761719 188.800781 L 396.640625 204.351562 C 396.640625 204.351562 413.070312 207.660156 413.691406 210.5 L 383.691406 215.21875 L 379.769531 191.121094 Z M 394.761719 188.800781 "/>
<path style=" stroke:none;fill-rule:nonzero;fill:rgb(87.843137%,87.843137%,87.843137%);fill-opacity:1;" d="M 387.148438 204.511719 C 386.585938 204.789062 386.316406 205.445312 386.53125 206.039062 C 386.785156 206.617188 387.449219 206.894531 388.039062 206.671875 C 388.640625 206.378906 388.921875 205.675781 388.691406 205.050781 C 388.367188 204.464844 387.640625 204.25 387.050781 204.558594 "/>
<path style=" stroke:none;fill-rule:nonzero;fill:rgb(27.058824%,35.294118%,39.215686%);fill-opacity:1;" d="M 383.691406 215.21875 L 383.390625 212.78125 L 412.269531 209.160156 C 412.269531 209.160156 413.699219 209.53125 413.691406 210.5 Z M 383.691406 215.21875 "/>
<path style=" stroke:none;fill-rule:nonzero;fill:rgb(100%,100%,100%);fill-opacity:1;" d="M 397.101562 204.121094 C 397.101562 204.269531 396.390625 204.449219 395.75 205.03125 C 395.109375 205.609375 394.808594 206.289062 394.671875 206.261719 C 394.53125 206.230469 394.609375 205.339844 395.410156 204.640625 C 396.210938 203.941406 397.109375 204 397.101562 204.121094 Z M 397.101562 204.121094 "/>
<path style=" stroke:none;fill-rule:nonzero;fill:rgb(100%,100%,100%);fill-opacity:1;" d="M 400.449219 204.921875 C 400.511719 205.058594 399.910156 205.410156 399.511719 206.109375 C 399.109375 206.808594 399.070312 207.480469 398.921875 207.5 C 398.769531 207.519531 398.550781 206.699219 399.070312 205.851562 C 399.589844 205 400.429688 204.789062 400.449219 204.921875 Z M 400.449219 204.921875 "/>
<path style=" stroke:none;fill-rule:nonzero;fill:rgb(100%,100%,100%);fill-opacity:1;" d="M 402.828125 208.410156 C 402.699219 208.460938 402.378906 207.761719 402.628906 206.898438 C 402.878906 206.039062 403.519531 205.609375 403.628906 205.71875 C 403.738281 205.828125 403.351562 206.328125 403.160156 207.039062 C 402.96875 207.75 403 208.371094 402.828125 208.410156 Z M 402.828125 208.410156 "/>
<path style=" stroke:none;fill-rule:nonzero;fill:rgb(100%,100%,100%);fill-opacity:1;" d="M 396.28125 200.621094 C 396.28125 200.769531 395.53125 200.621094 394.710938 200.859375 C 393.890625 201.101562 393.289062 201.410156 393.191406 201.289062 C 393.089844 201.171875 393.640625 200.558594 394.601562 200.351562 C 395.558594 200.140625 396.328125 200.5 396.28125 200.621094 Z M 396.28125 200.621094 "/>
<path style=" stroke:none;fill-rule:nonzero;fill:rgb(14.901961%,19.607843%,21.960784%);fill-opacity:1;" d="M 324.460938 182.519531 C 324.789062 181.691406 355.859375 144.378906 364.121094 140.601562 C 374.320312 135.929688 380.769531 139.699219 384.121094 145.261719 C 387.46875 150.820312 397.5 198.738281 397.5 198.738281 L 379.359375 201.910156 C 379.359375 201.910156 373.238281 182.050781 371.359375 176.851562 C 369.480469 171.648438 370.441406 168.46875 370.441406 168.46875 C 369.363281 171.296875 368.023438 174.011719 366.441406 176.589844 C 364.351562 179.589844 353.871094 198.449219 353.871094 198.449219 Z M 324.460938 182.519531 "/>
<path style=" stroke:none;fill-rule:nonzero;fill:rgb(14.901961%,19.607843%,21.960784%);fill-opacity:1;" d="M 302.941406 198.21875 C 302.941406 198.21875 309.160156 213.058594 313.878906 214.410156 C 318.601562 215.761719 378.730469 214.410156 378.730469 214.410156 L 362.621094 192.300781 L 342.828125 187.171875 L 325.570312 176.539062 Z M 302.941406 198.21875 "/>
<path style=" stroke:none;fill-rule:nonzero;fill:rgb(14.901961%,19.607843%,21.960784%);fill-opacity:1;" d="M 398.320312 210.738281 C 398.988281 227.808594 401.46875 271.03125 401.46875 271.03125 L 382.121094 273.28125 C 382.121094 273.28125 378.070312 239.03125 377.320312 233.550781 C 376.570312 228.070312 376.808594 217.550781 376.808594 217.550781 L 332 213.78125 C 332 213.78125 351.128906 190.359375 353.089844 190.53125 C 355.628906 190.738281 378.320312 195.128906 390.550781 200.230469 C 395.210938 202.171875 398.121094 205.710938 398.320312 210.738281 Z M 398.320312 210.738281 "/>
<path style=" stroke:none;fill-rule:nonzero;fill:rgb(14.901961%,19.607843%,21.960784%);fill-opacity:1;" d="M 399.28125 258.058594 L 400.03125 276.058594 C 400.03125 276.058594 418.589844 281.351562 419.03125 284.660156 L 384.160156 287.371094 L 381.839844 259.371094 Z M 399.28125 258.058594 "/>
<path style=" stroke:none;fill-rule:nonzero;fill:rgb(87.843137%,87.843137%,87.843137%);fill-opacity:1;" d="M 389.128906 275.398438 C 388.453125 275.664062 388.082031 276.398438 388.269531 277.101562 C 388.5 277.824219 389.273438 278.230469 390 278 C 390.714844 277.710938 391.101562 276.933594 390.898438 276.191406 C 390.574219 275.496094 389.757812 275.183594 389.050781 275.480469 "/>
<path style=" stroke:none;fill-rule:nonzero;fill:rgb(27.058824%,35.294118%,39.215686%);fill-opacity:1;" d="M 384.179688 287.378906 L 384.058594 284.550781 L 417.539062 283 C 417.539062 283 419.140625 283.550781 419.050781 284.660156 Z M 384.179688 287.378906 "/>
<path style=" stroke:none;fill-rule:nonzero;fill:rgb(100%,100%,100%);fill-opacity:1;" d="M 400.578125 275.851562 C 400.578125 276.019531 399.738281 276.160156 398.949219 276.78125 C 398.160156 277.398438 397.761719 278.140625 397.601562 278.078125 C 397.441406 278.019531 397.601562 277.03125 398.601562 276.300781 C 399.601562 275.570312 400.609375 275.691406 400.578125 275.851562 Z M 400.578125 275.851562 "/>
<path style=" stroke:none;fill-rule:nonzero;fill:rgb(100%,100%,100%);fill-opacity:1;" d="M 404.359375 277.078125 C 404.410156 277.238281 403.691406 277.589844 403.171875 278.351562 C 402.648438 279.109375 402.539062 279.890625 402.371094 279.898438 C 402.199219 279.910156 402.019531 278.949219 402.679688 278.011719 C 403.339844 277.070312 404.339844 276.921875 404.359375 277.078125 Z M 404.359375 277.078125 "/>
<path style=" stroke:none;fill-rule:nonzero;fill:rgb(100%,100%,100%);fill-opacity:1;" d="M 406.769531 281.289062 C 406.621094 281.289062 406.320312 280.511719 406.679688 279.539062 C 407.039062 278.570312 407.820312 278.140625 407.898438 278.28125 C 407.980469 278.421875 407.53125 278.949219 407.238281 279.75 C 406.949219 280.550781 406.941406 281.261719 406.769531 281.289062 Z M 406.769531 281.289062 "/>
<path style=" stroke:none;fill-rule:nonzero;fill:rgb(100%,100%,100%);fill-opacity:1;" d="M 400 271.761719 C 399.941406 271.929688 399.140625 271.761719 398.191406 271.890625 C 397.238281 272.019531 396.5 272.390625 396.398438 272.25 C 396.300781 272.109375 396.980469 271.449219 398.109375 271.300781 C 399.238281 271.148438 400 271.621094 400 271.761719 Z M 400 271.761719 "/>
<path style=" stroke:none;fill-rule:nonzero;fill:rgb(27.058824%,35.294118%,39.215686%);fill-opacity:1;" d="M 398.539062 210.828125 C 398.40625 210.007812 398.222656 209.199219 397.988281 208.398438 C 397.261719 206.246094 395.980469 204.324219 394.269531 202.828125 C 393.71875 202.324219 393.121094 201.875 392.480469 201.488281 C 391.773438 201.109375 391.042969 200.773438 390.289062 200.488281 C 388.730469 199.839844 387.019531 199.238281 385.210938 198.628906 C 383.398438 198.019531 381.488281 197.410156 379.5 196.800781 C 378.5 196.5 377.5 196.179688 376.5 195.898438 L 373.328125 195.109375 L 351.421875 189.539062 L 344.789062 187.800781 L 343 187.300781 C 342.789062 187.246094 342.582031 187.175781 342.378906 187.089844 C 342.597656 187.097656 342.8125 187.132812 343.019531 187.191406 L 344.839844 187.601562 L 351.511719 189.179688 L 373.511719 194.601562 L 376.679688 195.398438 C 377.679688 195.691406 378.679688 196.011719 379.679688 196.308594 C 381.679688 196.929688 383.578125 197.550781 385.390625 198.171875 C 387.199219 198.789062 388.921875 199.421875 390.488281 200.089844 C 391.257812 200.40625 392.003906 200.773438 392.71875 201.191406 C 393.375 201.59375 393.988281 202.0625 394.550781 202.589844 C 396.277344 204.148438 397.546875 206.152344 398.21875 208.378906 C 398.460938 209.171875 398.570312 210 398.539062 210.828125 Z M 398.539062 210.828125 "/>
<path style=" stroke:none;fill-rule:nonzero;fill:rgb(27.058824%,35.294118%,39.215686%);fill-opacity:1;" d="M 297.671875 125.910156 L 319.230469 141.738281 L 316.460938 153.289062 Z M 297.671875 125.910156 "/>
<path style=" stroke:none;fill-rule:nonzero;fill:rgb(27.058824%,35.294118%,39.215686%);fill-opacity:1;" d="M 274.621094 164.339844 C 275.621094 165.25 287.71875 184.121094 292 189.761719 C 295.308594 194.121094 299.851562 199.539062 303.488281 204.238281 C 304.917969 206.035156 307.296875 206.777344 309.488281 206.109375 C 315.691406 204.671875 337.058594 184.988281 337.058594 173.949219 C 336.359375 172.386719 334.769531 171.421875 333.058594 171.519531 C 331.058594 171.519531 327.609375 165.71875 327.609375 165.71875 C 327.609375 165.71875 314.75 148.921875 313.300781 146.179688 C 311.851562 143.441406 296 123.25 296 123.25 C 296 123.25 281.339844 118 280 118 C 279.191406 118 273.671875 119.230469 273.671875 119.230469 L 268.820312 150.46875 Z M 274.621094 164.339844 "/>
<path style=" stroke:none;fill-rule:nonzero;fill:rgb(14.901961%,19.607843%,21.960784%);fill-opacity:1;" d="M 331.570312 177.679688 C 331.441406 178.09375 331.277344 178.496094 331.070312 178.878906 C 330.71875 179.640625 330.160156 180.71875 329.410156 182.019531 C 325.476562 188.808594 320.148438 194.6875 313.78125 199.269531 C 312.558594 200.140625 311.539062 200.808594 310.78125 201.269531 C 310.417969 201.511719 310.035156 201.71875 309.628906 201.878906 C 309.933594 201.585938 310.269531 201.324219 310.628906 201.101562 C 311.320312 200.628906 312.300781 199.921875 313.480469 199.011719 C 319.671875 194.304688 324.941406 188.492188 329.019531 181.871094 C 329.800781 180.601562 330.410156 179.558594 330.808594 178.871094 C 331.019531 178.445312 331.273438 178.046875 331.570312 177.679688 Z M 331.570312 177.679688 "/>
<path style=" stroke:none;fill-rule:nonzero;fill:rgb(14.901961%,19.607843%,21.960784%);fill-opacity:1;" d="M 330.261719 173.308594 C 329.300781 175.46875 328.1875 177.558594 326.929688 179.558594 C 325.8125 181.648438 324.550781 183.652344 323.148438 185.558594 C 324.097656 183.390625 325.210938 181.296875 326.480469 179.300781 C 327.589844 177.210938 328.851562 175.210938 330.261719 173.308594 Z M 330.261719 173.308594 "/>
<path style=" stroke:none;fill-rule:nonzero;fill:rgb(14.901961%,19.607843%,21.960784%);fill-opacity:1;" d="M 298.410156 126.429688 C 298.746094 126.726562 299.042969 127.0625 299.300781 127.429688 C 299.851562 128.089844 300.621094 129.058594 301.558594 130.269531 C 303.429688 132.679688 305.929688 136.078125 308.660156 139.859375 L 315.660156 149.539062 L 317.78125 152.46875 C 318.058594 152.8125 318.304688 153.1875 318.511719 153.578125 C 318.179688 153.28125 317.878906 152.945312 317.621094 152.578125 C 317.070312 151.921875 316.300781 150.949219 315.371094 149.738281 C 313.5 147.328125 310.988281 143.929688 308.269531 140.148438 L 301.269531 130.46875 L 299.148438 127.539062 C 298.871094 127.191406 298.621094 126.820312 298.410156 126.429688 Z M 298.410156 126.429688 "/>
<path style=" stroke:none;fill-rule:nonzero;fill:rgb(100%,74.901961%,61.568627%);fill-opacity:1;" d="M 254.570312 213.230469 C 255.335938 212.410156 256.296875 211.792969 257.359375 211.429688 C 258.941406 210.980469 267.730469 207.839844 267.730469 207.839844 L 267.53125 204.308594 L 278.101562 203 L 277.601562 209.71875 C 277.960938 210.550781 277.300781 213.03125 276.851562 213.101562 C 276.398438 213.171875 271.269531 213.25 271.269531 213.25 Z M 254.570312 213.230469 "/>
<path style=" stroke:none;fill-rule:nonzero;fill:rgb(100%,60.392157%,42.352941%);fill-opacity:1;" d="M 275.140625 209.46875 C 275.199219 209.46875 275.140625 209.828125 274.699219 210.191406 C 274.183594 210.59375 273.621094 210.929688 273.019531 211.191406 C 272.476562 211.421875 272.035156 211.839844 271.769531 212.371094 C 271.589844 212.769531 271.660156 213.070312 271.578125 213.089844 C 271.5 213.109375 271.300781 212.808594 271.421875 212.25 C 271.628906 211.570312 272.125 211.011719 272.78125 210.730469 C 273.480469 210.378906 274.089844 210.160156 274.480469 209.910156 C 274.871094 209.660156 275.078125 209.429688 275.140625 209.46875 Z M 275.140625 209.46875 "/>
<path style=" stroke:none;fill-rule:nonzero;fill:rgb(100%,60.392157%,42.352941%);fill-opacity:1;" d="M 267.191406 210.601562 C 266.144531 211.3125 264.964844 211.796875 263.71875 212.03125 C 262.71875 212.320312 261.871094 212.640625 261.25 212.851562 C 260.933594 212.9375 260.714844 213.222656 260.710938 213.550781 C 260.710938 213.550781 260.558594 213.488281 260.558594 213.25 C 260.59375 212.929688 260.796875 212.652344 261.089844 212.519531 C 261.882812 212.109375 262.714844 211.777344 263.570312 211.519531 C 264.753906 211.132812 265.964844 210.828125 267.191406 210.601562 Z M 267.191406 210.601562 "/>
<path style=" stroke:none;fill-rule:nonzero;fill:rgb(100%,74.901961%,61.568627%);fill-opacity:1;" d="M 267.628906 205.449219 C 267.539062 204.511719 263.410156 172.660156 263.421875 171.851562 C 263.429688 171.039062 265.898438 139.539062 265.898438 139.539062 L 283 141 L 280.078125 167.75 L 278 205.449219 Z M 267.628906 205.449219 "/>
<path style=" stroke:none;fill-rule:nonzero;fill:rgb(27.058824%,35.294118%,39.215686%);fill-opacity:1;" d="M 284.601562 161.179688 C 284.601562 161.179688 287.230469 140.390625 288.039062 134.058594 C 288.78125 128.210938 286.46875 119.960938 281.730469 118.511719 C 280.765625 118.171875 279.753906 117.988281 278.730469 117.960938 C 273.191406 118.210938 267.320312 122.289062 266 127.679688 C 265.070312 132.152344 264.433594 136.675781 264.089844 141.230469 L 262.75 157 Z M 284.601562 161.179688 "/>
<path style=" stroke:none;fill-rule:nonzero;fill:rgb(14.901961%,19.607843%,21.960784%);fill-opacity:1;" d="M 284.601562 161.179688 C 284.476562 161.195312 284.351562 161.195312 284.230469 161.179688 L 283.101562 160.980469 L 278.738281 160.199219 L 262.738281 157.261719 L 262.558594 157.261719 L 262.558594 157 C 262.980469 152.101562 263.449219 146.488281 263.960938 140.390625 C 264.210938 137.328125 264.621094 134.171875 265.160156 130.921875 C 265.375 129.253906 265.773438 127.613281 266.339844 126.03125 C 267.03125 124.425781 268.054688 122.984375 269.339844 121.800781 C 270.832031 120.414062 272.574219 119.328125 274.480469 118.609375 C 275.410156 118.261719 276.375 118.003906 277.359375 117.851562 C 277.851562 117.761719 278.359375 117.75 278.839844 117.699219 C 279.339844 117.699219 279.835938 117.757812 280.320312 117.871094 C 281.28125 118.046875 282.203125 118.386719 283.050781 118.871094 C 283.871094 119.367188 284.589844 120.019531 285.160156 120.789062 C 286.242188 122.265625 287.046875 123.925781 287.539062 125.691406 C 288.476562 128.9375 288.660156 132.359375 288.070312 135.691406 L 286.929688 144.328125 L 285.261719 156.769531 C 285.058594 158.199219 284.910156 159.320312 284.800781 160.128906 C 284.738281 160.480469 284.699219 160.761719 284.671875 160.988281 C 284.640625 161.21875 284.621094 161.269531 284.609375 161.261719 L 284.609375 160.941406 L 284.699219 160.039062 C 284.789062 159.230469 284.929688 158.039062 285.089844 156.628906 C 285.449219 153.628906 285.949219 149.398438 286.570312 144.171875 C 286.890625 141.550781 287.238281 138.691406 287.570312 135.621094 C 288.121094 132.371094 287.929688 129.035156 287.011719 125.871094 C 286.53125 124.171875 285.746094 122.570312 284.699219 121.148438 C 284.15625 120.425781 283.476562 119.8125 282.699219 119.351562 C 281.894531 118.910156 281.023438 118.605469 280.121094 118.449219 C 279.675781 118.34375 279.21875 118.289062 278.761719 118.289062 C 278.300781 118.339844 277.820312 118.351562 277.351562 118.441406 C 276.402344 118.589844 275.46875 118.835938 274.570312 119.171875 C 272.71875 119.863281 271.019531 120.914062 269.570312 122.261719 C 268.339844 123.378906 267.355469 124.742188 266.679688 126.261719 C 266.121094 127.804688 265.730469 129.410156 265.519531 131.039062 C 264.988281 134.269531 264.519531 137.421875 264.308594 140.460938 C 263.761719 146.558594 263.308594 152.160156 262.828125 157.070312 L 262.671875 156.851562 L 278.648438 160 L 283.039062 160.890625 L 284.199219 161.140625 Z M 284.601562 161.179688 "/>
</g>
</svg>
