<?xml version="1.0" encoding="UTF-8"?>
<svg xmlns="http://www.w3.org/2000/svg" xmlns:xlink="http://www.w3.org/1999/xlink" width="500px" height="500px" viewBox="0 0 500 500" version="1.1">
<defs>
<filter id="alpha" filterUnits="objectBoundingBox" x="0%" y="0%" width="100%" height="100%">
  <feColorMatrix type="matrix" in="SourceGraphic" values="0 0 0 0 1 0 0 0 0 1 0 0 0 0 1 0 0 0 1 0"/>
</filter>
<mask id="mask0">
  <g filter="url(#alpha)">
<rect x="0" y="0" width="500" height="500" style="fill:rgb(0%,0%,0%);fill-opacity:0.701961;stroke:none;"/>
  </g>
</mask>
<clipPath id="clip1">
  <rect x="0" y="0" width="500" height="500"/>
</clipPath>
<g id="surface5" clip-path="url(#clip1)">
<path style=" stroke:none;fill-rule:nonzero;fill:rgb(100%,100%,100%);fill-opacity:1;" d="M 354.21875 89.898438 C 354.21875 89.898438 291.351562 53.511719 220.070312 80.199219 C 148.789062 106.890625 104.070312 177.511719 66.371094 233.730469 C 28.671875 289.949219 35.371094 355.351562 80.921875 392.921875 C 126.46875 430.488281 166.808594 394.699219 237.121094 405.410156 C 307.429688 416.121094 324.679688 429.808594 388.960938 399.898438 C 453.238281 369.988281 478.378906 276.28125 443.398438 197.171875 C 408.421875 118.058594 354.21875 89.898438 354.21875 89.898438 Z M 354.21875 89.898438 "/>
</g>
</defs>
<g id="surface1">
<path style=" stroke:none;fill-rule:nonzero;fill:rgb(57.254902%,89.019608%,66.27451%);fill-opacity:1;" d="M 354.21875 89.898438 C 354.21875 89.898438 291.351562 53.511719 220.070312 80.199219 C 148.789062 106.890625 104.070312 177.511719 66.371094 233.730469 C 28.671875 289.949219 35.371094 355.351562 80.921875 392.921875 C 126.46875 430.488281 166.808594 394.699219 237.121094 405.410156 C 307.429688 416.121094 324.679688 429.808594 388.960938 399.898438 C 453.238281 369.988281 478.378906 276.28125 443.398438 197.171875 C 408.421875 118.058594 354.21875 89.898438 354.21875 89.898438 Z M 354.21875 89.898438 "/>
<use xlink:href="#surface5" mask="url(#mask0)"/>
<path style="fill:none;stroke-width:1;stroke-linecap:round;stroke-linejoin:round;stroke:rgb(56.078431%,56.078431%,56.078431%);stroke-opacity:1;stroke-miterlimit:4;" d="M 36.410156 410 L 456.121094 410 "/>
<path style="fill:none;stroke-width:1;stroke-linecap:round;stroke-linejoin:round;stroke:rgb(56.078431%,56.078431%,56.078431%);stroke-opacity:1;stroke-miterlimit:4;" d="M 35.601562 400 L 470.589844 400 "/>
<path style="fill:none;stroke-width:1;stroke-linecap:round;stroke-linejoin:round;stroke:rgb(56.078431%,56.078431%,56.078431%);stroke-opacity:1;stroke-miterlimit:4;" d="M 54.5 390 L 475.019531 390 "/>
<path style="fill:none;stroke-width:1;stroke-linecap:round;stroke-linejoin:round;stroke:rgb(56.078431%,56.078431%,56.078431%);stroke-opacity:1;stroke-miterlimit:4;" d="M 39.621094 380 L 467.78125 380 "/>
<path style="fill:none;stroke-width:1;stroke-linecap:round;stroke-linejoin:round;stroke:rgb(56.078431%,56.078431%,56.078431%);stroke-opacity:1;stroke-miterlimit:4;" d="M 45.648438 371 L 481 371 "/>
<path style="fill:none;stroke-width:1;stroke-linecap:round;stroke-linejoin:round;stroke:rgb(56.078431%,56.078431%,56.078431%);stroke-opacity:1;stroke-miterlimit:4;" d="M 33.988281 362 L 466.980469 362 "/>
<path style="fill:none;stroke-width:1;stroke-linecap:round;stroke-linejoin:round;stroke:rgb(56.078431%,56.078431%,56.078431%);stroke-opacity:1;stroke-miterlimit:4;" d="M 42.441406 355 L 456.929688 355 "/>
<path style="fill:none;stroke-width:1;stroke-linecap:round;stroke-linejoin:round;stroke:rgb(56.078431%,56.078431%,56.078431%);stroke-opacity:1;stroke-miterlimit:4;" d="M 33.589844 350 L 465.769531 350 "/>
<path style="fill:none;stroke-width:1;stroke-linecap:round;stroke-linejoin:round;stroke:rgb(56.078431%,56.078431%,56.078431%);stroke-opacity:1;stroke-miterlimit:4;" d="M 41.628906 345 L 473.011719 345 "/>
<path style="fill:none;stroke-width:1;stroke-linecap:round;stroke-linejoin:round;stroke:rgb(56.078431%,56.078431%,56.078431%);stroke-opacity:1;stroke-miterlimit:4;" d="M 29 420 L 474.609375 420 "/>
<path style="fill:none;stroke-width:1;stroke-linecap:round;stroke-linejoin:round;stroke:rgb(56.078431%,56.078431%,56.078431%);stroke-opacity:1;stroke-miterlimit:4;" d="M 351.830156 336.669063 L 394.080156 336.669063 L 394.080156 344.719844 L 351.830156 344.719844 Z M 351.830156 336.669063 " transform="matrix(-1,0.000000000000000122,-0.000000000000000122,-1,745.92,681.38)"/>
<path style="fill:none;stroke-width:1;stroke-linecap:round;stroke-linejoin:round;stroke:rgb(56.078431%,56.078431%,56.078431%);stroke-opacity:1;stroke-miterlimit:4;" d="M 357.041094 331.219063 L 388.88875 331.219063 L 388.88875 336.719063 L 357.041094 336.719063 Z M 357.041094 331.219063 " transform="matrix(-1,0.000000000000000122,-0.000000000000000122,-1,745.92,667.93)"/>
<path style="fill:none;stroke-width:1;stroke-linecap:round;stroke-linejoin:round;stroke:rgb(56.078431%,56.078431%,56.078431%);stroke-opacity:1;stroke-miterlimit:4;" d="M 360.171875 83.769531 L 360.171875 331.261719 L 385.75 331.261719 L 385.75 83.769531 "/>
<path style="fill:none;stroke-width:1;stroke-linecap:round;stroke-linejoin:round;stroke:rgb(56.078431%,56.078431%,56.078431%);stroke-opacity:1;stroke-miterlimit:4;" d="M 381.589844 289.269531 L 381.589844 331.390625 "/>
<path style="fill:none;stroke-width:1;stroke-linecap:round;stroke-linejoin:round;stroke:rgb(56.078431%,56.078431%,56.078431%);stroke-opacity:1;stroke-miterlimit:4;" d="M 381.589844 137.089844 L 381.589844 273.921875 "/>
<path style="fill:none;stroke-width:1;stroke-linecap:round;stroke-linejoin:round;stroke:rgb(56.078431%,56.078431%,56.078431%);stroke-opacity:1;stroke-miterlimit:4;" d="M 376.25 321.199219 L 376.25 331.390625 "/>
<path style="fill:none;stroke-width:1;stroke-linecap:round;stroke-linejoin:round;stroke:rgb(56.078431%,56.078431%,56.078431%);stroke-opacity:1;stroke-miterlimit:4;" d="M 376.25 188.128906 L 376.25 311.808594 "/>
<path style="fill:none;stroke-width:1;stroke-linecap:round;stroke-linejoin:round;stroke:rgb(56.078431%,56.078431%,56.078431%);stroke-opacity:1;stroke-miterlimit:4;" d="M 376.25 98.578125 L 376.25 179.679688 "/>
<path style="fill:none;stroke-width:1;stroke-linecap:round;stroke-linejoin:round;stroke:rgb(56.078431%,56.078431%,56.078431%);stroke-opacity:1;stroke-miterlimit:4;" d="M 376.25 84.328125 L 376.25 92.941406 "/>
<path style="fill:none;stroke-width:1;stroke-linecap:round;stroke-linejoin:round;stroke:rgb(56.078431%,56.078431%,56.078431%);stroke-opacity:1;stroke-miterlimit:4;" d="M 364.921875 84.328125 L 364.921875 331.390625 "/>
<path style="fill:none;stroke-width:1;stroke-linecap:round;stroke-linejoin:round;stroke:rgb(56.078431%,56.078431%,56.078431%);stroke-opacity:1;stroke-miterlimit:4;" d="M 419.290937 336.669063 L 461.540937 336.669063 L 461.540937 344.719844 L 419.290937 344.719844 Z M 419.290937 336.669063 " transform="matrix(-1,0.000000000000000122,-0.000000000000000122,-1,880.83,681.38)"/>
<path style="fill:none;stroke-width:1;stroke-linecap:round;stroke-linejoin:round;stroke:rgb(56.078431%,56.078431%,56.078431%);stroke-opacity:1;stroke-miterlimit:4;" d="M 424.490156 331.219063 L 456.341719 331.219063 L 456.341719 336.719063 L 424.490156 336.719063 Z M 424.490156 331.219063 " transform="matrix(-1,0.000000000000000122,-0.000000000000000122,-1,880.83,667.93)"/>
<path style="fill:none;stroke-width:1;stroke-linecap:round;stroke-linejoin:round;stroke:rgb(56.078431%,56.078431%,56.078431%);stroke-opacity:1;stroke-miterlimit:4;" d="M 427.621094 83.769531 L 427.621094 331.261719 L 453.210938 331.261719 L 453.210938 83.769531 "/>
<path style="fill:none;stroke-width:1;stroke-linecap:round;stroke-linejoin:round;stroke:rgb(56.078431%,56.078431%,56.078431%);stroke-opacity:1;stroke-miterlimit:4;" d="M 449.039062 289.269531 L 449.039062 331.390625 "/>
<path style="fill:none;stroke-width:1;stroke-linecap:round;stroke-linejoin:round;stroke:rgb(56.078431%,56.078431%,56.078431%);stroke-opacity:1;stroke-miterlimit:4;" d="M 449.039062 137.089844 L 449.039062 273.921875 "/>
<path style="fill:none;stroke-width:1;stroke-linecap:round;stroke-linejoin:round;stroke:rgb(56.078431%,56.078431%,56.078431%);stroke-opacity:1;stroke-miterlimit:4;" d="M 443.710938 321.199219 L 443.710938 331.390625 "/>
<path style="fill:none;stroke-width:1;stroke-linecap:round;stroke-linejoin:round;stroke:rgb(56.078431%,56.078431%,56.078431%);stroke-opacity:1;stroke-miterlimit:4;" d="M 443.710938 188.128906 L 443.710938 311.808594 "/>
<path style="fill:none;stroke-width:1;stroke-linecap:round;stroke-linejoin:round;stroke:rgb(56.078431%,56.078431%,56.078431%);stroke-opacity:1;stroke-miterlimit:4;" d="M 443.710938 98.578125 L 443.710938 179.679688 "/>
<path style="fill:none;stroke-width:1;stroke-linecap:round;stroke-linejoin:round;stroke:rgb(56.078431%,56.078431%,56.078431%);stroke-opacity:1;stroke-miterlimit:4;" d="M 443.710938 84.328125 L 443.710938 92.941406 "/>
<path style="fill:none;stroke-width:1;stroke-linecap:round;stroke-linejoin:round;stroke:rgb(56.078431%,56.078431%,56.078431%);stroke-opacity:1;stroke-miterlimit:4;" d="M 432.378906 84.328125 L 432.378906 331.390625 "/>
<path style="fill:none;stroke-width:1;stroke-linecap:round;stroke-linejoin:round;stroke:rgb(56.078431%,56.078431%,56.078431%);stroke-opacity:1;stroke-miterlimit:4;" d="M 51.381094 336.669062 L 93.631094 336.669062 L 93.631094 344.719844 L 51.381094 344.719844 Z M 51.381094 336.669062 " transform="matrix(-1,0.000000000000000122,-0.000000000000000122,-1,145.01,681.38)"/>
<path style="fill:none;stroke-width:1;stroke-linecap:round;stroke-linejoin:round;stroke:rgb(56.078431%,56.078431%,56.078431%);stroke-opacity:1;stroke-miterlimit:4;" d="M 56.580312 331.219062 L 88.431875 331.219062 L 88.431875 336.719062 L 56.580312 336.719062 Z M 56.580312 331.219062 " transform="matrix(-1,0.000000000000000122,-0.000000000000000122,-1,145.01,667.93)"/>
<path style="fill:none;stroke-width:1;stroke-linecap:round;stroke-linejoin:round;stroke:rgb(56.078431%,56.078431%,56.078431%);stroke-opacity:1;stroke-miterlimit:4;" d="M 59.710938 83.769531 L 59.710938 331.261719 L 85.300781 331.261719 L 85.300781 83.769531 "/>
<path style="fill:none;stroke-width:1;stroke-linecap:round;stroke-linejoin:round;stroke:rgb(56.078431%,56.078431%,56.078431%);stroke-opacity:1;stroke-miterlimit:4;" d="M 81.128906 289.269531 L 81.128906 331.390625 "/>
<path style="fill:none;stroke-width:1;stroke-linecap:round;stroke-linejoin:round;stroke:rgb(56.078431%,56.078431%,56.078431%);stroke-opacity:1;stroke-miterlimit:4;" d="M 81.128906 137.089844 L 81.128906 273.921875 "/>
<path style="fill:none;stroke-width:1;stroke-linecap:round;stroke-linejoin:round;stroke:rgb(56.078431%,56.078431%,56.078431%);stroke-opacity:1;stroke-miterlimit:4;" d="M 75.800781 321.199219 L 75.800781 331.390625 "/>
<path style="fill:none;stroke-width:1;stroke-linecap:round;stroke-linejoin:round;stroke:rgb(56.078431%,56.078431%,56.078431%);stroke-opacity:1;stroke-miterlimit:4;" d="M 75.800781 188.128906 L 75.800781 311.808594 "/>
<path style="fill:none;stroke-width:1;stroke-linecap:round;stroke-linejoin:round;stroke:rgb(56.078431%,56.078431%,56.078431%);stroke-opacity:1;stroke-miterlimit:4;" d="M 75.800781 98.578125 L 75.800781 179.679688 "/>
<path style="fill:none;stroke-width:1;stroke-linecap:round;stroke-linejoin:round;stroke:rgb(56.078431%,56.078431%,56.078431%);stroke-opacity:1;stroke-miterlimit:4;" d="M 75.800781 84.328125 L 75.800781 92.941406 "/>
<path style="fill:none;stroke-width:1;stroke-linecap:round;stroke-linejoin:round;stroke:rgb(56.078431%,56.078431%,56.078431%);stroke-opacity:1;stroke-miterlimit:4;" d="M 64.460938 84.328125 L 64.460938 331.390625 "/>
<path style="fill:none;stroke-width:1;stroke-linecap:round;stroke-linejoin:round;stroke:rgb(56.078431%,56.078431%,56.078431%);stroke-opacity:1;stroke-miterlimit:4;" d="M 303.828125 336.671875 L 346.078125 336.671875 L 346.078125 344.71875 L 303.828125 344.71875 Z M 303.828125 336.671875 "/>
<path style="fill:none;stroke-width:1;stroke-linecap:round;stroke-linejoin:round;stroke:rgb(56.078431%,56.078431%,56.078431%);stroke-opacity:1;stroke-miterlimit:4;" d="M 309.039062 331.21875 L 340.890625 331.21875 L 340.890625 336.71875 L 309.039062 336.71875 Z M 309.039062 331.21875 "/>
<path style="fill:none;stroke-width:1;stroke-linecap:round;stroke-linejoin:round;stroke:rgb(56.078431%,56.078431%,56.078431%);stroke-opacity:1;stroke-miterlimit:4;" d="M 337.75 83.769531 L 337.75 331.261719 L 312.171875 331.261719 L 312.171875 83.769531 "/>
<path style="fill:none;stroke-width:1;stroke-linecap:round;stroke-linejoin:round;stroke:rgb(56.078431%,56.078431%,56.078431%);stroke-opacity:1;stroke-miterlimit:4;" d="M 316.328125 289.269531 L 316.328125 331.390625 "/>
<path style="fill:none;stroke-width:1;stroke-linecap:round;stroke-linejoin:round;stroke:rgb(56.078431%,56.078431%,56.078431%);stroke-opacity:1;stroke-miterlimit:4;" d="M 316.328125 137.089844 L 316.328125 273.921875 "/>
<path style="fill:none;stroke-width:1;stroke-linecap:round;stroke-linejoin:round;stroke:rgb(56.078431%,56.078431%,56.078431%);stroke-opacity:1;stroke-miterlimit:4;" d="M 316.328125 84.328125 L 316.328125 127.378906 "/>
<path style="fill:none;stroke-width:1;stroke-linecap:round;stroke-linejoin:round;stroke:rgb(56.078431%,56.078431%,56.078431%);stroke-opacity:1;stroke-miterlimit:4;" d="M 321.671875 321.199219 L 321.671875 331.390625 "/>
<path style="fill:none;stroke-width:1;stroke-linecap:round;stroke-linejoin:round;stroke:rgb(56.078431%,56.078431%,56.078431%);stroke-opacity:1;stroke-miterlimit:4;" d="M 321.671875 188.128906 L 321.671875 311.808594 "/>
<path style="fill:none;stroke-width:1;stroke-linecap:round;stroke-linejoin:round;stroke:rgb(56.078431%,56.078431%,56.078431%);stroke-opacity:1;stroke-miterlimit:4;" d="M 321.671875 98.578125 L 321.671875 179.679688 "/>
<path style="fill:none;stroke-width:1;stroke-linecap:round;stroke-linejoin:round;stroke:rgb(56.078431%,56.078431%,56.078431%);stroke-opacity:1;stroke-miterlimit:4;" d="M 321.671875 84.328125 L 321.671875 92.941406 "/>
<path style="fill:none;stroke-width:1;stroke-linecap:round;stroke-linejoin:round;stroke:rgb(56.078431%,56.078431%,56.078431%);stroke-opacity:1;stroke-miterlimit:4;" d="M 333 84.328125 L 333 331.390625 "/>
<path style="fill:none;stroke-width:1;stroke-linecap:round;stroke-linejoin:round;stroke:rgb(56.078431%,56.078431%,56.078431%);stroke-opacity:1;stroke-miterlimit:4;" d="M 161.581875 336.669062 L 203.831875 336.669062 L 203.831875 344.719844 L 161.581875 344.719844 Z M 161.581875 336.669062 " transform="matrix(-1,0.000000000000000122,-0.000000000000000122,-1,365.41,681.38)"/>
<path style="fill:none;stroke-width:1;stroke-linecap:round;stroke-linejoin:round;stroke:rgb(56.078431%,56.078431%,56.078431%);stroke-opacity:1;stroke-miterlimit:4;" d="M 166.781094 331.219062 L 198.620937 331.219062 L 198.620937 336.719062 L 166.781094 336.719062 Z M 166.781094 331.219062 " transform="matrix(-1,0.000000000000000122,-0.000000000000000122,-1,365.41,667.93)"/>
<path style="fill:none;stroke-width:1;stroke-linecap:round;stroke-linejoin:round;stroke:rgb(56.078431%,56.078431%,56.078431%);stroke-opacity:1;stroke-miterlimit:4;" d="M 169.910156 83.769531 L 169.910156 331.261719 L 195.5 331.261719 L 195.5 83.769531 "/>
<path style="fill:none;stroke-width:1;stroke-linecap:round;stroke-linejoin:round;stroke:rgb(56.078431%,56.078431%,56.078431%);stroke-opacity:1;stroke-miterlimit:4;" d="M 191.328125 289.269531 L 191.328125 331.390625 "/>
<path style="fill:none;stroke-width:1;stroke-linecap:round;stroke-linejoin:round;stroke:rgb(56.078431%,56.078431%,56.078431%);stroke-opacity:1;stroke-miterlimit:4;" d="M 191.328125 137.089844 L 191.328125 273.921875 "/>
<path style="fill:none;stroke-width:1;stroke-linecap:round;stroke-linejoin:round;stroke:rgb(56.078431%,56.078431%,56.078431%);stroke-opacity:1;stroke-miterlimit:4;" d="M 191.328125 84.328125 L 191.328125 127.378906 "/>
<path style="fill:none;stroke-width:1;stroke-linecap:round;stroke-linejoin:round;stroke:rgb(56.078431%,56.078431%,56.078431%);stroke-opacity:1;stroke-miterlimit:4;" d="M 186 321.199219 L 186 331.390625 "/>
<path style="fill:none;stroke-width:1;stroke-linecap:round;stroke-linejoin:round;stroke:rgb(56.078431%,56.078431%,56.078431%);stroke-opacity:1;stroke-miterlimit:4;" d="M 186 188.128906 L 186 311.808594 "/>
<path style="fill:none;stroke-width:1;stroke-linecap:round;stroke-linejoin:round;stroke:rgb(56.078431%,56.078431%,56.078431%);stroke-opacity:1;stroke-miterlimit:4;" d="M 186 98.578125 L 186 179.679688 "/>
<path style="fill:none;stroke-width:1;stroke-linecap:round;stroke-linejoin:round;stroke:rgb(56.078431%,56.078431%,56.078431%);stroke-opacity:1;stroke-miterlimit:4;" d="M 174.671875 84.328125 L 174.671875 331.390625 "/>
<path style="fill:none;stroke-width:1;stroke-linecap:round;stroke-linejoin:round;stroke:rgb(56.078431%,56.078431%,56.078431%);stroke-opacity:1;stroke-miterlimit:4;" d="M 113.578125 336.671875 L 155.828125 336.671875 L 155.828125 344.71875 L 113.578125 344.71875 Z M 113.578125 336.671875 "/>
<path style="fill:none;stroke-width:1;stroke-linecap:round;stroke-linejoin:round;stroke:rgb(56.078431%,56.078431%,56.078431%);stroke-opacity:1;stroke-miterlimit:4;" d="M 118.78125 331.21875 L 150.621094 331.21875 L 150.621094 336.71875 L 118.78125 336.71875 Z M 118.78125 331.21875 "/>
<path style="fill:none;stroke-width:1;stroke-linecap:round;stroke-linejoin:round;stroke:rgb(56.078431%,56.078431%,56.078431%);stroke-opacity:1;stroke-miterlimit:4;" d="M 147.5 83.769531 L 147.5 331.261719 L 121.910156 331.261719 L 121.910156 83.769531 "/>
<path style="fill:none;stroke-width:1;stroke-linecap:round;stroke-linejoin:round;stroke:rgb(56.078431%,56.078431%,56.078431%);stroke-opacity:1;stroke-miterlimit:4;" d="M 126.078125 289.269531 L 126.078125 331.390625 "/>
<path style="fill:none;stroke-width:1;stroke-linecap:round;stroke-linejoin:round;stroke:rgb(56.078431%,56.078431%,56.078431%);stroke-opacity:1;stroke-miterlimit:4;" d="M 126.078125 137.089844 L 126.078125 273.921875 "/>
<path style="fill:none;stroke-width:1;stroke-linecap:round;stroke-linejoin:round;stroke:rgb(56.078431%,56.078431%,56.078431%);stroke-opacity:1;stroke-miterlimit:4;" d="M 126.078125 84.328125 L 126.078125 127.378906 "/>
<path style="fill:none;stroke-width:1;stroke-linecap:round;stroke-linejoin:round;stroke:rgb(56.078431%,56.078431%,56.078431%);stroke-opacity:1;stroke-miterlimit:4;" d="M 131.410156 321.199219 L 131.410156 331.390625 "/>
<path style="fill:none;stroke-width:1;stroke-linecap:round;stroke-linejoin:round;stroke:rgb(56.078431%,56.078431%,56.078431%);stroke-opacity:1;stroke-miterlimit:4;" d="M 131.410156 188.128906 L 131.410156 311.808594 "/>
<path style="fill:none;stroke-width:1;stroke-linecap:round;stroke-linejoin:round;stroke:rgb(56.078431%,56.078431%,56.078431%);stroke-opacity:1;stroke-miterlimit:4;" d="M 131.410156 98.578125 L 131.410156 179.679688 "/>
<path style="fill:none;stroke-width:1;stroke-linecap:round;stroke-linejoin:round;stroke:rgb(56.078431%,56.078431%,56.078431%);stroke-opacity:1;stroke-miterlimit:4;" d="M 131.410156 84.328125 L 131.410156 92.941406 "/>
<path style="fill:none;stroke-width:1;stroke-linecap:round;stroke-linejoin:round;stroke:rgb(56.078431%,56.078431%,56.078431%);stroke-opacity:1;stroke-miterlimit:4;" d="M 142.75 84.328125 L 142.75 331.390625 "/>
<path style="fill:none;stroke-width:1;stroke-linecap:round;stroke-linejoin:round;stroke:rgb(56.078431%,56.078431%,56.078431%);stroke-opacity:1;stroke-miterlimit:4;" d="M 210.640625 156 L 296 156 L 296 345 L 210.640625 345 Z M 210.640625 156 "/>
<path style="fill:none;stroke-width:1;stroke-linecap:round;stroke-linejoin:round;stroke:rgb(56.078431%,56.078431%,56.078431%);stroke-opacity:1;stroke-miterlimit:4;" d="M 255.46875 229.359375 L 288.300781 229.359375 L 288.300781 249.261719 L 255.46875 249.261719 Z M 255.46875 229.359375 "/>
<path style="fill:none;stroke-width:1;stroke-linecap:round;stroke-linejoin:round;stroke:rgb(56.078431%,56.078431%,56.078431%);stroke-opacity:1;stroke-miterlimit:4;" d="M 255.46875 253.230469 L 288.300781 253.230469 L 288.300781 273.128906 L 255.46875 273.128906 Z M 255.46875 253.230469 "/>
<path style="fill:none;stroke-width:1;stroke-linecap:round;stroke-linejoin:round;stroke:rgb(56.078431%,56.078431%,56.078431%);stroke-opacity:1;stroke-miterlimit:4;" d="M 255.46875 205.480469 L 288.300781 205.480469 L 288.300781 225.378906 L 255.46875 225.378906 Z M 255.46875 205.480469 "/>
<path style="fill:none;stroke-width:1;stroke-linecap:round;stroke-linejoin:round;stroke:rgb(56.078431%,56.078431%,56.078431%);stroke-opacity:1;stroke-miterlimit:4;" d="M 255.46875 181.609375 L 288.300781 181.609375 L 288.300781 201.511719 L 255.46875 201.511719 Z M 255.46875 181.609375 "/>
<path style="fill:none;stroke-width:1;stroke-linecap:round;stroke-linejoin:round;stroke:rgb(56.078431%,56.078431%,56.078431%);stroke-opacity:1;stroke-miterlimit:4;" d="M 255.46875 277.101562 L 288.300781 277.101562 L 288.300781 297 L 255.46875 297 Z M 255.46875 277.101562 "/>
<path style="fill:none;stroke-width:1;stroke-linecap:round;stroke-linejoin:round;stroke:rgb(56.078431%,56.078431%,56.078431%);stroke-opacity:1;stroke-miterlimit:4;" d="M 255.46875 300.980469 L 288.300781 300.980469 L 288.300781 320.878906 L 255.46875 320.878906 Z M 255.46875 300.980469 "/>
<path style="fill:none;stroke-width:1;stroke-linecap:round;stroke-linejoin:round;stroke:rgb(56.078431%,56.078431%,56.078431%);stroke-opacity:1;stroke-miterlimit:4;" d="M 255.46875 163.449219 L 288.300781 163.449219 L 288.300781 177.628906 L 255.46875 177.628906 Z M 255.46875 163.449219 "/>
<path style="fill:none;stroke-width:1;stroke-linecap:round;stroke-linejoin:round;stroke:rgb(56.078431%,56.078431%,56.078431%);stroke-opacity:1;stroke-miterlimit:4;" d="M 218.351562 163.449219 L 251.488281 163.449219 L 251.488281 177.628906 L 218.351562 177.628906 Z M 218.351562 163.449219 "/>
<path style="fill:none;stroke-width:1;stroke-linecap:round;stroke-linejoin:round;stroke:rgb(56.078431%,56.078431%,56.078431%);stroke-opacity:1;stroke-miterlimit:4;" d="M 218.351562 277.101562 L 251.488281 277.101562 L 251.488281 297 L 218.351562 297 Z M 218.351562 277.101562 "/>
<path style="fill:none;stroke-width:1;stroke-linecap:round;stroke-linejoin:round;stroke:rgb(56.078431%,56.078431%,56.078431%);stroke-opacity:1;stroke-miterlimit:4;" d="M 218.351562 300.980469 L 251.488281 300.980469 L 251.488281 320.878906 L 218.351562 320.878906 Z M 218.351562 300.980469 "/>
<path style="fill:none;stroke-width:1;stroke-linecap:round;stroke-linejoin:round;stroke:rgb(56.078431%,56.078431%,56.078431%);stroke-opacity:1;stroke-miterlimit:4;" d="M 218.351562 205.480469 L 251.488281 205.480469 L 251.488281 225.378906 L 218.351562 225.378906 Z M 218.351562 205.480469 "/>
<path style="fill:none;stroke-width:1;stroke-linecap:round;stroke-linejoin:round;stroke:rgb(56.078431%,56.078431%,56.078431%);stroke-opacity:1;stroke-miterlimit:4;" d="M 255.46875 324.851562 L 288.300781 324.851562 L 288.300781 339.519531 L 255.46875 339.519531 Z M 255.46875 324.851562 "/>
<path style="fill:none;stroke-width:1;stroke-linecap:round;stroke-linejoin:round;stroke:rgb(56.078431%,56.078431%,56.078431%);stroke-opacity:1;stroke-miterlimit:4;" d="M 218.351562 324.851562 L 251.488281 324.851562 L 251.488281 339.519531 L 218.351562 339.519531 Z M 218.351562 324.851562 "/>
<path style="fill:none;stroke-width:1;stroke-linecap:round;stroke-linejoin:round;stroke:rgb(56.078431%,56.078431%,56.078431%);stroke-opacity:1;stroke-miterlimit:4;" d="M 218.351562 181.609375 L 251.488281 181.609375 L 251.488281 201.511719 L 218.351562 201.511719 Z M 218.351562 181.609375 "/>
<path style="fill:none;stroke-width:1;stroke-linecap:round;stroke-linejoin:round;stroke:rgb(56.078431%,56.078431%,56.078431%);stroke-opacity:1;stroke-miterlimit:4;" d="M 218.351562 253.230469 L 251.488281 253.230469 L 251.488281 273.128906 L 218.351562 273.128906 Z M 218.351562 253.230469 "/>
<path style="fill:none;stroke-width:1;stroke-linecap:round;stroke-linejoin:round;stroke:rgb(56.078431%,56.078431%,56.078431%);stroke-opacity:1;stroke-miterlimit:4;" d="M 218.351562 229.359375 L 251.488281 229.359375 L 251.488281 249.261719 L 218.351562 249.261719 Z M 218.351562 229.359375 "/>
<path style="fill:none;stroke-width:1;stroke-linecap:round;stroke-linejoin:round;stroke:rgb(56.078431%,56.078431%,56.078431%);stroke-opacity:1;stroke-miterlimit:4;" d="M 202.75 136.578125 L 304.21875 136.578125 L 304.21875 152.988281 L 202.75 152.988281 Z M 202.75 136.578125 "/>
<path style="fill:none;stroke-width:1;stroke-linecap:round;stroke-linejoin:round;stroke:rgb(56.078431%,56.078431%,56.078431%);stroke-opacity:1;stroke-miterlimit:4;" d="M 202.75 140.769531 L 304.21875 140.769531 L 304.21875 148.820312 L 202.75 148.820312 Z M 202.75 140.769531 "/>
<path style="fill-rule:nonzero;fill:rgb(14.901961%,19.607843%,21.960784%);fill-opacity:1;stroke-width:1;stroke-linecap:round;stroke-linejoin:round;stroke:rgb(14.901961%,19.607843%,21.960784%);stroke-opacity:1;stroke-miterlimit:4;" d="M 410.730469 219.390625 C 410.730469 219.390625 407.238281 220.300781 405.261719 218.628906 C 403.28125 216.960938 403.261719 212.398438 405.570312 209.210938 C 407.878906 206.019531 418.019531 200.210938 424.699219 199.789062 C 431.378906 199.371094 440.351562 202.789062 441.261719 206.929688 C 442.171875 211.070312 436.550781 230.171875 436.550781 230.171875 L 432.148438 232.898438 C 428.925781 230.539062 425.832031 228.003906 422.878906 225.308594 C 420.445312 222.925781 417.621094 220.976562 414.53125 219.539062 C 413.292969 219.191406 411.992188 219.140625 410.730469 219.390625 Z M 410.730469 219.390625 "/>
<path style="fill-rule:nonzero;fill:rgb(100%,100%,100%);fill-opacity:1;stroke-width:1;stroke-linecap:round;stroke-linejoin:round;stroke:rgb(14.901961%,19.607843%,21.960784%);stroke-opacity:1;stroke-miterlimit:4;" d="M 427.710938 359.730469 C 428.335938 361.183594 428.808594 362.699219 429.121094 364.25 C 429.5625 366.164062 430.128906 368.046875 430.808594 369.890625 C 430.808594 369.890625 432.371094 398.660156 432.078125 404.441406 C 431.789062 410.21875 431.800781 413.050781 431.378906 413.441406 C 430.960938 413.828125 425.589844 415.269531 422.628906 416.261719 C 419.671875 417.25 415.851562 418.941406 417.261719 419.648438 C 418.671875 420.359375 439.988281 419.648438 439.988281 419.648438 C 439.988281 419.648438 441.398438 420.488281 441.679688 418.089844 C 441.960938 415.691406 439.988281 414.28125 440.550781 410.898438 C 441.109375 407.519531 444.648438 397.351562 445.488281 389.898438 C 446.328125 382.449219 444.929688 366.640625 444.929688 363.960938 C 444.929688 361.28125 445.210938 358.171875 445.210938 358.171875 Z M 427.710938 359.730469 "/>
<path style="fill-rule:nonzero;fill:rgb(57.254902%,89.019608%,66.27451%);fill-opacity:1;stroke-width:1;stroke-linecap:round;stroke-linejoin:round;stroke:rgb(14.901961%,19.607843%,21.960784%);stroke-opacity:1;stroke-miterlimit:4;" d="M 441.679688 418.128906 C 441.746094 417.535156 441.6875 416.933594 441.511719 416.359375 C 439.621094 416.53125 435.191406 416.859375 435.191406 416.859375 C 434.644531 416.105469 434.175781 415.300781 433.78125 414.460938 C 433.601562 414.003906 433.242188 413.640625 432.792969 413.453125 C 432.339844 413.261719 431.828125 413.265625 431.378906 413.460938 C 430.960938 413.878906 425.589844 415.289062 422.628906 416.28125 C 419.671875 417.269531 415.851562 418.960938 417.261719 419.671875 C 418.671875 420.378906 439.988281 419.671875 439.988281 419.671875 C 439.988281 419.671875 441.398438 420.53125 441.679688 418.128906 Z M 441.679688 418.128906 "/>
<path style="fill-rule:nonzero;fill:rgb(100%,100%,100%);fill-opacity:1;stroke-width:1;stroke-linecap:round;stroke-linejoin:round;stroke:rgb(14.901961%,19.607843%,21.960784%);stroke-opacity:1;stroke-miterlimit:4;" d="M 424.75 359.730469 C 425.382812 361.179688 425.855469 362.695312 426.160156 364.25 C 426.601562 366.164062 427.171875 368.050781 427.859375 369.890625 C 427.859375 369.890625 429.410156 398.660156 429.128906 404.441406 C 428.851562 410.21875 428.851562 413.050781 428.421875 413.441406 C 427.988281 413.828125 422.640625 415.269531 419.671875 416.261719 C 416.699219 417.25 412.898438 418.941406 414.308594 419.648438 C 415.71875 420.359375 437.03125 419.648438 437.03125 419.648438 C 437.03125 419.648438 438.441406 420.488281 438.730469 418.089844 C 439.019531 415.691406 437.03125 414.28125 437.601562 410.898438 C 438.171875 407.519531 441.691406 397.351562 442.539062 389.898438 C 443.390625 382.449219 442 366.648438 442 364 C 442 361.351562 442.28125 358.210938 442.28125 358.210938 Z M 424.75 359.730469 "/>
<path style="fill-rule:nonzero;fill:rgb(57.254902%,89.019608%,66.27451%);fill-opacity:1;stroke-width:1;stroke-linecap:round;stroke-linejoin:round;stroke:rgb(14.901961%,19.607843%,21.960784%);stroke-opacity:1;stroke-miterlimit:4;" d="M 438.730469 418.128906 C 438.785156 417.535156 438.730469 416.933594 438.558594 416.359375 C 436.660156 416.53125 432.230469 416.859375 432.230469 416.859375 C 431.6875 416.105469 431.214844 415.300781 430.820312 414.460938 C 430.640625 414.003906 430.285156 413.640625 429.832031 413.453125 C 429.378906 413.261719 428.871094 413.265625 428.421875 413.460938 C 428 413.878906 422.640625 415.289062 419.671875 416.28125 C 416.699219 417.269531 412.898438 418.960938 414.308594 419.671875 C 415.71875 420.378906 437.03125 419.671875 437.03125 419.671875 C 437.03125 419.671875 438.441406 420.53125 438.730469 418.128906 Z M 438.730469 418.128906 "/>
<path style="fill-rule:nonzero;fill:rgb(57.254902%,89.019608%,66.27451%);fill-opacity:1;stroke-width:1;stroke-linecap:round;stroke-linejoin:round;stroke:rgb(14.901961%,19.607843%,21.960784%);stroke-opacity:1;stroke-miterlimit:4;" d="M 385.328125 265.851562 C 385.328125 265.851562 390.101562 265.988281 393.5 259.320312 C 393.5 259.320312 404.660156 286.128906 408.609375 290.488281 C 410.957031 293.089844 413.503906 295.5 416.230469 297.699219 C 416.230469 297.699219 415.410156 303.550781 412.230469 306.140625 C 409.050781 308.730469 406.789062 305.320312 406.789062 305.320312 C 406.789062 305.320312 398.351562 289.671875 393.71875 284.320312 C 389.089844 278.96875 381.199219 268.53125 381.199219 268.53125 C 382.421875 267.417969 383.816406 266.511719 385.328125 265.851562 Z M 385.328125 265.851562 "/>
<path style="fill-rule:nonzero;fill:rgb(100%,100%,100%);fill-opacity:1;stroke-width:1;stroke-linecap:round;stroke-linejoin:round;stroke:rgb(14.901961%,19.607843%,21.960784%);stroke-opacity:1;stroke-miterlimit:4;" d="M 423.851562 276.601562 C 423.851562 276.601562 409.148438 281.5 408.738281 281.769531 C 408.328125 282.039062 403.839844 278.238281 403.03125 277.960938 C 402.21875 277.679688 399.078125 279.191406 399.21875 280.550781 C 399.359375 281.910156 402.621094 280.550781 402.621094 280.550781 C 403.277344 281.640625 403.738281 282.839844 403.980469 284.089844 C 404.121094 285.589844 403.839844 286.269531 405.070312 286.949219 C 406.300781 287.628906 421.671875 285.308594 423.171875 285.039062 C 424.671875 284.769531 426.441406 281.769531 426.441406 278.640625 C 426.441406 275.511719 423.851562 276.601562 423.851562 276.601562 Z M 423.851562 276.601562 "/>
<path style="fill-rule:nonzero;fill:rgb(14.901961%,19.607843%,21.960784%);fill-opacity:1;stroke-width:1;stroke-linecap:round;stroke-linejoin:round;stroke:rgb(14.901961%,19.607843%,21.960784%);stroke-opacity:1;stroke-miterlimit:4;" d="M 424.398438 261.308594 C 424.398438 261.308594 419.238281 269.050781 419.078125 272.238281 C 418.921875 275.429688 422.730469 278.019531 422.730469 278.019531 C 422.730469 278.019531 420.730469 284.550781 418.628906 293.511719 C 416.53125 302.46875 412.101562 319.179688 412.710938 331.328125 C 413.320312 343.480469 416.351562 361.558594 416.351562 361.558594 L 447.789062 361.558594 C 447.789062 361.558594 448.699219 344.699219 448.699219 335.890625 C 448.699219 327.078125 454.78125 316.441406 454.78125 309.148438 C 454.683594 304.277344 454.015625 299.433594 452.78125 294.71875 C 452.78125 294.71875 451.71875 257.359375 450.511719 251.890625 C 449.300781 246.421875 446.710938 242.621094 445.039062 241.410156 C 443.371094 240.199219 436.230469 240.191406 433.488281 243.839844 C 430.75 247.488281 429.390625 256.449219 428.488281 257.359375 C 427.589844 258.269531 424.398438 261.308594 424.398438 261.308594 Z M 424.398438 261.308594 "/>
<path style="fill:none;stroke-width:1;stroke-linecap:round;stroke-linejoin:round;stroke:rgb(14.901961%,19.607843%,21.960784%);stroke-opacity:1;stroke-miterlimit:4;" d="M 448.699219 335.890625 C 448.699219 327.078125 454.78125 316.441406 454.78125 309.148438 C 454.683594 304.277344 454.015625 299.433594 452.78125 294.71875 C 452.78125 294.71875 452.78125 294.039062 452.730469 292.851562 C 438.960938 298.050781 424.640625 295.03125 418.660156 293.308594 C 418.636719 293.375 418.621094 293.441406 418.609375 293.511719 C 416.480469 302.511719 412.078125 319.179688 412.691406 331.328125 C 413.300781 343.480469 416.328125 361.558594 416.328125 361.558594 L 447.769531 361.558594 C 447.769531 361.558594 448.699219 344.699219 448.699219 335.890625 Z M 448.699219 335.890625 "/>
<path style="fill:none;stroke-width:1;stroke-linecap:round;stroke-linejoin:round;stroke:rgb(100%,100%,100%);stroke-opacity:1;stroke-miterlimit:4;" d="M 436.699219 317.511719 C 424.550781 308.390625 429.871094 299.128906 429.871094 299.128906 "/>
<path style="fill:none;stroke-width:1;stroke-linecap:round;stroke-linejoin:round;stroke:rgb(100%,100%,100%);stroke-opacity:1;stroke-miterlimit:4;" d="M 439.890625 296.550781 C 439.890625 296.550781 437.769531 318.71875 434.269531 328.75 C 430.769531 338.78125 432.601562 360.800781 432.601562 360.800781 "/>
<path style="fill-rule:nonzero;fill:rgb(100%,100%,100%);fill-opacity:1;stroke-width:1;stroke-linecap:round;stroke-linejoin:round;stroke:rgb(14.901961%,19.607843%,21.960784%);stroke-opacity:1;stroke-miterlimit:4;" d="M 420.449219 208.601562 C 420.449219 208.601562 410.121094 215 410 217 C 409.996094 220.128906 410.40625 223.242188 411.21875 226.261719 C 411.980469 228.839844 413.039062 230.96875 412.28125 232.179688 C 411.519531 233.390625 410.761719 233.859375 412.28125 234.609375 C 412.980469 235.019531 413.753906 235.277344 414.558594 235.371094 C 414.558594 235.371094 418.359375 242.660156 419.421875 243.121094 C 420.480469 243.578125 425.800781 240.390625 425.800781 240.390625 L 429.601562 242.660156 L 424 262.828125 C 424 262.828125 427 266.171875 430.828125 260.699219 C 434.660156 255.230469 434.828125 247.488281 437.058594 245.058594 C 439.289062 242.628906 445.410156 242.46875 445.410156 242.46875 L 436.75 228.46875 L 433.558594 226.46875 C 433.558594 226.46875 436.300781 218.730469 434.628906 216.148438 C 432.960938 213.570312 429.460938 216.148438 428.550781 218.421875 C 427.640625 220.691406 427.179688 222.21875 427.179688 222.21875 C 425.289062 221.871094 423.480469 221.152344 421.871094 220.101562 C 419.441406 218.421875 415.488281 219.941406 416.699219 215.230469 C 417.242188 212.6875 418.550781 210.375 420.449219 208.601562 Z M 420.449219 208.601562 "/>
<path style="fill:none;stroke-width:1;stroke-linecap:round;stroke-linejoin:round;stroke:rgb(14.901961%,19.607843%,21.960784%);stroke-opacity:1;stroke-miterlimit:4;" d="M 433.511719 226.519531 L 430.929688 227.28125 C 430.929688 227.28125 432.148438 230.78125 431.238281 232.75 C 430.527344 234.089844 429.496094 235.238281 428.238281 236.089844 "/>
<path style="fill:none;stroke-width:1;stroke-linecap:round;stroke-linejoin:round;stroke:rgb(14.901961%,19.607843%,21.960784%);stroke-opacity:1;stroke-miterlimit:4;" d="M 417.78125 226 C 418.871094 228.359375 418.671875 230.769531 417.339844 231.390625 C 416.011719 232.011719 414.039062 230.589844 412.949219 228.230469 C 411.859375 225.871094 412.050781 223.449219 413.390625 222.839844 C 414.730469 222.230469 416.679688 223.660156 417.78125 226 Z M 417.78125 226 "/>
<path style="fill:none;stroke-width:1;stroke-linecap:round;stroke-linejoin:round;stroke:rgb(14.901961%,19.607843%,21.960784%);stroke-opacity:1;stroke-miterlimit:4;" d="M 417.78125 226.019531 L 427.738281 219.390625 "/>
<path style="fill-rule:nonzero;fill:rgb(57.254902%,89.019608%,66.27451%);fill-opacity:1;stroke-width:1;stroke-linecap:round;stroke-linejoin:round;stroke:rgb(14.901961%,19.607843%,21.960784%);stroke-opacity:1;stroke-miterlimit:4;" d="M 376.078125 271.699219 L 391.871094 286.128906 L 395.808594 289.398438 L 406.160156 313.488281 L 413.921875 307.640625 C 413.921875 307.640625 406.839844 297.429688 402.070312 291.980469 C 397.300781 286.53125 382.46875 259.039062 382.339844 258.640625 C 382.210938 258.238281 375.941406 271.160156 376.078125 271.699219 Z M 376.078125 271.699219 "/>
<path style="fill-rule:nonzero;fill:rgb(100%,100%,100%);fill-opacity:1;stroke-width:1;stroke-linecap:round;stroke-linejoin:round;stroke:rgb(14.901961%,19.607843%,21.960784%);stroke-opacity:1;stroke-miterlimit:4;" d="M 445.359375 246.570312 C 445.359375 246.570312 438.53125 247.640625 437.160156 253.570312 C 435.789062 259.5 437.011719 285.320312 437.011719 285.320312 L 407.539062 285.921875 C 407.539062 285.921875 402.980469 281.21875 401.160156 280.460938 C 399.339844 279.699219 395.851562 280.300781 395.851562 280.300781 L 397.671875 281.671875 C 397.671875 281.671875 391.589844 284.859375 391.289062 285.769531 C 390.988281 286.679688 390.828125 286.988281 391.898438 287.898438 C 392.71875 288.523438 393.644531 288.988281 394.628906 289.269531 C 395.183594 290.101562 395.6875 290.964844 396.148438 291.851562 C 396.300781 292.300781 394.328125 292.609375 396 293.519531 C 397.671875 294.429688 400.859375 291.851562 403 290.941406 C 404.308594 290.378906 405.695312 290.019531 407.109375 289.871094 C 407.109375 289.871094 423.359375 293.671875 431.710938 293.820312 C 440.058594 293.96875 449.789062 295.820312 451 294.890625 C 452.210938 293.960938 452.371094 292.761719 452.371094 290.941406 C 452.371094 289.121094 453.890625 261.941406 452.519531 255.550781 C 451.148438 249.160156 451 246.121094 445.359375 246.570312 Z M 445.359375 246.570312 "/>
<path style="fill-rule:nonzero;fill:rgb(100%,100%,100%);fill-opacity:1;stroke-width:1;stroke-linecap:round;stroke-linejoin:round;stroke:rgb(14.901961%,19.607843%,21.960784%);stroke-opacity:1;stroke-miterlimit:4;" d="M 248.898438 273.28125 C 248.898438 273.28125 244.621094 289.511719 244.320312 290.988281 C 244.019531 292.46875 245.648438 295.121094 248.160156 295.269531 C 250.671875 295.421875 253.769531 293.789062 255.828125 290.398438 C 257.890625 287.011719 260.410156 277.710938 260.410156 277.710938 Z M 248.898438 273.28125 "/>
<path style="fill-rule:nonzero;fill:rgb(100%,100%,100%);fill-opacity:1;stroke-width:1;stroke-linecap:round;stroke-linejoin:round;stroke:rgb(14.901961%,19.607843%,21.960784%);stroke-opacity:1;stroke-miterlimit:4;" d="M 315.898438 270.480469 C 315.898438 270.480469 321.359375 287.890625 321.648438 288.769531 C 321.941406 289.648438 319.730469 292.019531 315.898438 291.429688 C 312.070312 290.839844 312.5 291.730469 310.898438 288.921875 C 309.300781 286.109375 304.550781 276.820312 304.550781 276.820312 C 306.011719 275.402344 307.59375 274.117188 309.28125 272.980469 C 311.328125 271.777344 313.566406 270.929688 315.898438 270.480469 Z M 315.898438 270.480469 "/>
<path style="fill-rule:nonzero;fill:rgb(100%,100%,100%);fill-opacity:1;stroke-width:1;stroke-linecap:round;stroke-linejoin:round;stroke:rgb(14.901961%,19.607843%,21.960784%);stroke-opacity:1;stroke-miterlimit:4;" d="M 307 366 C 306.339844 367.515625 305.847656 369.097656 305.53125 370.71875 C 305.066406 372.722656 304.476562 374.695312 303.761719 376.621094 C 303.761719 376.621094 302.128906 397.71875 302.429688 403.769531 C 302.730469 409.820312 302.71875 412.769531 303.171875 413.21875 C 303.621094 413.671875 309.21875 415.140625 312.320312 416.171875 C 315.421875 417.199219 319.398438 418.96875 317.921875 419.710938 C 316.441406 420.449219 294.160156 419.710938 294.160156 419.710938 C 294.160156 419.710938 292.691406 420.601562 292.390625 418.089844 C 292.089844 415.578125 294.160156 414.089844 293.570312 410.558594 C 292.980469 407.03125 289.289062 396.398438 288.410156 388.558594 C 287.53125 380.71875 289 373.21875 289 370.410156 C 289 367.601562 288.699219 364.359375 288.699219 364.359375 Z M 307 366 "/>
<path style="fill-rule:nonzero;fill:rgb(14.901961%,19.607843%,21.960784%);fill-opacity:1;stroke-width:1;stroke-linecap:round;stroke-linejoin:round;stroke:rgb(14.901961%,19.607843%,21.960784%);stroke-opacity:1;stroke-miterlimit:4;" d="M 292.429688 418.050781 C 292.367188 417.425781 292.425781 416.792969 292.609375 416.191406 C 294.609375 416.371094 299.21875 416.71875 299.21875 416.71875 C 299.789062 415.929688 300.285156 415.089844 300.699219 414.210938 C 300.894531 413.742188 301.273438 413.371094 301.746094 413.183594 C 302.21875 412.992188 302.746094 413.003906 303.210938 413.210938 C 303.648438 413.648438 309.261719 415.128906 312.359375 416.160156 C 315.460938 417.191406 319.441406 418.960938 317.960938 419.699219 C 316.480469 420.441406 294.199219 419.699219 294.199219 419.699219 C 294.199219 419.699219 292.730469 420.558594 292.429688 418.050781 Z M 292.429688 418.050781 "/>
<path style="fill-rule:nonzero;fill:rgb(100%,100%,100%);fill-opacity:1;stroke-width:1;stroke-linecap:round;stroke-linejoin:round;stroke:rgb(14.901961%,19.607843%,21.960784%);stroke-opacity:1;stroke-miterlimit:4;" d="M 260.890625 366 C 261.542969 367.515625 262.039062 369.097656 262.359375 370.71875 C 262.824219 372.722656 263.414062 374.695312 264.128906 376.621094 C 264.128906 376.621094 265.761719 397.71875 265.460938 403.769531 C 265.160156 409.820312 265.171875 412.769531 264.71875 413.21875 C 264.269531 413.671875 258.671875 415.140625 255.570312 416.171875 C 252.46875 417.199219 248.488281 418.96875 249.96875 419.710938 C 251.449219 420.449219 273.730469 419.710938 273.730469 419.710938 C 273.730469 419.710938 275.199219 420.601562 275.5 418.089844 C 275.800781 415.578125 273.730469 414.089844 274.320312 410.558594 C 274.910156 407.03125 278.601562 396.398438 279.480469 388.558594 C 280.359375 380.71875 278.890625 373.21875 278.890625 370.410156 C 278.890625 367.601562 279.191406 364.359375 279.191406 364.359375 Z M 260.890625 366 "/>
<path style="fill-rule:nonzero;fill:rgb(14.901961%,19.607843%,21.960784%);fill-opacity:1;stroke-width:1;stroke-linecap:round;stroke-linejoin:round;stroke:rgb(14.901961%,19.607843%,21.960784%);stroke-opacity:1;stroke-miterlimit:4;" d="M 275.5 418.050781 C 275.5625 417.425781 275.503906 416.792969 275.320312 416.191406 C 273.320312 416.371094 268.710938 416.71875 268.710938 416.71875 C 268.140625 415.929688 267.644531 415.089844 267.230469 414.210938 C 267.035156 413.742188 266.65625 413.371094 266.183594 413.183594 C 265.714844 412.992188 265.183594 413.003906 264.71875 413.210938 C 264.28125 413.648438 258.671875 415.128906 255.570312 416.160156 C 252.46875 417.191406 248.488281 418.960938 249.96875 419.699219 C 251.449219 420.441406 273.730469 419.699219 273.730469 419.699219 C 273.730469 419.699219 275.199219 420.558594 275.5 418.050781 Z M 275.5 418.050781 "/>
<path style="fill-rule:nonzero;fill:rgb(14.901961%,19.607843%,21.960784%);fill-opacity:1;stroke-width:1;stroke-linecap:round;stroke-linejoin:round;stroke:rgb(14.901961%,19.607843%,21.960784%);stroke-opacity:1;stroke-miterlimit:4;" d="M 314 327.589844 C 314 328.179688 314.441406 341.898438 313 350.761719 C 311.558594 359.621094 310.628906 368.761719 310.628906 368.761719 L 285.050781 368.761719 L 283.730469 357 L 282.839844 368.808594 L 259.519531 368.808594 C 259.519531 368.808594 251.699219 344.898438 255.101562 323.949219 L 313 324 Z M 314 327.589844 "/>
<path style="fill:none;stroke-width:1;stroke-linecap:round;stroke-linejoin:round;stroke:rgb(14.901961%,19.607843%,21.960784%);stroke-opacity:1;stroke-miterlimit:4;" d="M 283.730469 356.949219 L 283.730469 340.429688 "/>
<path style="fill-rule:nonzero;fill:rgb(14.901961%,19.607843%,21.960784%);fill-opacity:1;stroke-width:1;stroke-linecap:round;stroke-linejoin:round;stroke:rgb(14.901961%,19.607843%,21.960784%);stroke-opacity:1;stroke-miterlimit:4;" d="M 266.460938 207.460938 C 266.070312 207.660156 261.589844 213.808594 262.03125 218.378906 C 262.46875 222.949219 266.160156 226.5 266.160156 232.699219 C 266.265625 236.035156 265.664062 239.355469 264.390625 242.441406 C 266.871094 243.453125 269.59375 243.707031 272.21875 243.171875 C 274.6875 242.703125 277.109375 242.015625 279.449219 241.109375 L 279.148438 235.210938 C 279.148438 235.210938 273.988281 235.941406 270.890625 229.601562 C 267.789062 223.261719 269 216.460938 270.300781 214 C 271.046875 212.644531 271.640625 211.207031 272.070312 209.71875 C 272.070312 209.71875 271 205.101562 266.460938 207.460938 Z M 266.460938 207.460938 "/>
<path style="fill-rule:nonzero;fill:rgb(57.254902%,89.019608%,66.27451%);fill-opacity:1;stroke-width:1;stroke-linecap:round;stroke-linejoin:round;stroke:rgb(14.901961%,19.607843%,21.960784%);stroke-opacity:1;stroke-miterlimit:4;" d="M 288.449219 244.800781 C 288.449219 244.800781 304.390625 252.179688 307.191406 253.058594 C 309.988281 253.941406 316.929688 259.410156 317.371094 264.71875 C 317.808594 270.03125 316.191406 272.839844 315.011719 273.71875 C 313.828125 274.601562 305.570312 278.441406 305.570312 278.441406 L 301.878906 282.578125 C 303.609375 288.597656 305.679688 294.507812 308.078125 300.289062 C 311.910156 309.429688 313.679688 317.289062 313.980469 321.089844 C 314.28125 324.890625 314.269531 329.210938 314.269531 329.210938 C 314.269531 329.210938 298.929688 330.089844 279.269531 329.800781 C 259.609375 329.511719 253.269531 328.910156 253.269531 328.910156 C 253.269531 328.910156 252.378906 317.851562 255.179688 308.988281 C 257.980469 300.128906 263.179688 295.710938 263.601562 293.351562 C 264.019531 290.988281 264.601562 283.761719 264.191406 282.578125 C 263.804688 281.734375 263.25 280.980469 262.558594 280.359375 L 248.25 274.898438 C 248.25 274.898438 244.558594 270.898438 248.988281 263.828125 C 253.421875 256.761719 255.480469 257.191406 261.53125 254.089844 C 267.578125 250.988281 274.960938 244.941406 276.140625 244.351562 C 277.320312 243.761719 280.179688 240.21875 288.449219 244.800781 Z M 288.449219 244.800781 "/>
<path style="fill:none;stroke-width:1;stroke-linecap:round;stroke-linejoin:round;stroke:rgb(14.901961%,19.607843%,21.960784%);stroke-opacity:1;stroke-miterlimit:4;" d="M 262.621094 263.390625 C 262.621094 263.390625 260.410156 269 260.410156 273.128906 C 260.410156 277.261719 263.800781 281.25 263.800781 281.25 "/>
<path style="fill:none;stroke-width:1;stroke-linecap:round;stroke-linejoin:round;stroke:rgb(14.901961%,19.607843%,21.960784%);stroke-opacity:1;stroke-miterlimit:4;" d="M 303.058594 262.359375 C 303.351562 262.949219 306.160156 269.878906 305.570312 273.128906 C 305.269531 275.285156 304.773438 277.414062 304.089844 279.480469 "/>
<path style="fill-rule:nonzero;fill:rgb(100%,100%,100%);fill-opacity:1;stroke-width:1;stroke-linecap:round;stroke-linejoin:round;stroke:rgb(14.901961%,19.607843%,21.960784%);stroke-opacity:1;stroke-miterlimit:4;" d="M 286.53125 243.171875 C 286.53125 243.171875 289.53125 243.910156 290.371094 245.238281 C 291.210938 246.570312 290.511719 260 290.511719 260 L 278.410156 253.800781 L 269.710938 261.328125 C 269.710938 261.328125 269.710938 251.589844 271.328125 247.449219 C 272.949219 243.308594 277.679688 241.988281 277.679688 241.988281 Z M 286.53125 243.171875 "/>
<path style="fill-rule:nonzero;fill:rgb(100%,100%,100%);fill-opacity:1;stroke-width:1;stroke-linecap:round;stroke-linejoin:round;stroke:rgb(14.901961%,19.607843%,21.960784%);stroke-opacity:1;stroke-miterlimit:4;" d="M 275.609375 237 C 275.609375 237 276.199219 241.570312 275.460938 244.078125 C 274.71875 246.589844 274.28125 245.699219 274.28125 248.078125 C 274.28125 250.460938 277.089844 259 279.738281 262.25 C 282.390625 265.5 285.5 251.328125 286.378906 247.351562 C 287.261719 243.371094 287.378906 231.699219 287.378906 231.699219 C 287.378906 231.699219 282.949219 234.210938 281.769531 234.800781 C 280.589844 235.390625 275.609375 237 275.609375 237 Z M 275.609375 237 "/>
<path style="fill-rule:nonzero;fill:rgb(100%,100%,100%);fill-opacity:1;stroke-width:1;stroke-linecap:round;stroke-linejoin:round;stroke:rgb(14.901961%,19.607843%,21.960784%);stroke-opacity:1;stroke-miterlimit:4;" d="M 268.820312 211.589844 C 268.820312 211.589844 272.359375 214.539062 276.5 217.351562 C 279.601562 219.378906 282.800781 221.253906 286.089844 222.960938 C 286.089844 222.960938 287.089844 232.109375 286.230469 233.429688 C 285.371094 234.75 274.578125 240.960938 272.359375 239.429688 C 270.140625 237.898438 269.121094 235.601562 267.199219 227.039062 C 266.085938 221.847656 266.652344 216.4375 268.820312 211.589844 Z M 268.820312 211.589844 "/>
<path style=" stroke:none;fill-rule:nonzero;fill:rgb(14.901961%,19.607843%,21.960784%);fill-opacity:1;" d="M 274.871094 223.628906 C 274.871094 224.53125 275.261719 225.25 275.75 225.25 C 276.238281 225.25 276.621094 224.53125 276.621094 223.628906 C 276.621094 222.730469 276.230469 222.011719 275.75 222.011719 C 275.269531 222.011719 274.871094 222.738281 274.871094 223.628906 Z M 274.871094 223.628906 "/>
<path style=" stroke:none;fill-rule:nonzero;fill:rgb(14.901961%,19.607843%,21.960784%);fill-opacity:1;" d="M 269.140625 223.628906 C 269.140625 224.53125 269.53125 225.25 270.011719 225.25 C 270.488281 225.25 270.890625 224.53125 270.890625 223.628906 C 270.890625 222.730469 270.5 222 270 222 C 269.5 222 269.140625 222.738281 269.140625 223.628906 Z M 269.140625 223.628906 "/>
<path style="fill:none;stroke-width:1;stroke-linecap:round;stroke-linejoin:round;stroke:rgb(14.901961%,19.607843%,21.960784%);stroke-opacity:1;stroke-miterlimit:4;" d="M 271.628906 222.511719 C 271.640625 223.890625 271.34375 225.257812 270.761719 226.511719 C 269.890625 227.878906 269.140625 228.378906 270.390625 229.128906 C 271.355469 229.652344 272.5625 229.320312 273.128906 228.378906 "/>
<path style="fill:none;stroke-width:1;stroke-linecap:round;stroke-linejoin:round;stroke:rgb(14.901961%,19.607843%,21.960784%);stroke-opacity:1;stroke-miterlimit:4;" d="M 272.511719 231.730469 C 274.167969 232.355469 276.039062 231.910156 277.238281 230.609375 "/>
<path style="fill:none;stroke-width:1;stroke-linecap:round;stroke-linejoin:round;stroke:rgb(14.901961%,19.607843%,21.960784%);stroke-opacity:1;stroke-miterlimit:4;" d="M 278.109375 221 C 277.867188 220.449219 277.410156 220.019531 276.847656 219.808594 C 276.28125 219.59375 275.65625 219.617188 275.109375 219.871094 "/>
<path style="fill:none;stroke-width:1;stroke-linecap:round;stroke-linejoin:round;stroke:rgb(14.901961%,19.607843%,21.960784%);stroke-opacity:1;stroke-miterlimit:4;" d="M 271.511719 220.519531 C 271.183594 220.058594 270.632812 219.804688 270.066406 219.855469 C 269.503906 219.90625 269.007812 220.253906 268.769531 220.769531 "/>
<path style="fill-rule:nonzero;fill:rgb(14.901961%,19.607843%,21.960784%);fill-opacity:1;stroke-width:1;stroke-linecap:round;stroke-linejoin:round;stroke:rgb(14.901961%,19.607843%,21.960784%);stroke-opacity:1;stroke-miterlimit:4;" d="M 266.609375 209.53125 C 266.609375 209.53125 264.101562 207.460938 266.761719 204.070312 C 269.421875 200.679688 286.089844 199.640625 291.988281 203.070312 C 297.890625 206.5 302.320312 219.601562 302.171875 231.699219 C 302.019531 243.800781 298.929688 243.699219 295.679688 244.539062 C 292.429688 245.378906 284.171875 244.25 284.171875 244.25 C 285.417969 240.789062 286.113281 237.148438 286.230469 233.46875 C 286.230469 233.46875 285.230469 223.46875 284.460938 222.550781 C 283.691406 221.628906 269.710938 213.070312 266.609375 209.53125 Z M 266.609375 209.53125 "/>
<path style="fill-rule:nonzero;fill:rgb(14.901961%,19.607843%,21.960784%);fill-opacity:1;stroke-width:1;stroke-linecap:round;stroke-linejoin:round;stroke:rgb(14.901961%,19.607843%,21.960784%);stroke-opacity:1;stroke-miterlimit:4;" d="M 264.839844 252.179688 L 306.160156 301.46875 L 304.53125 306.191406 L 261.589844 254.089844 Z M 264.839844 252.179688 "/>
<path style="fill-rule:nonzero;fill:rgb(100%,100%,100%);fill-opacity:1;stroke-width:1;stroke-linecap:round;stroke-linejoin:round;stroke:rgb(14.901961%,19.607843%,21.960784%);stroke-opacity:1;stroke-miterlimit:4;" d="M 249.660156 284.578125 L 277.269531 277.738281 C 279.449219 276.429688 281.535156 274.976562 283.519531 273.390625 C 286.121094 271.210938 285.960938 274.171875 287.519531 275.871094 C 289.078125 277.570312 291.519531 279.289062 290.71875 280.070312 C 289.921875 280.851562 288.28125 281.160156 287.980469 281.621094 C 286.460938 283.042969 284.539062 283.96875 282.480469 284.269531 C 279.28125 284.890625 277.761719 283.328125 277.761719 283.328125 C 277.761719 283.328125 251.21875 297.46875 248.320312 297.628906 C 245.421875 297.789062 243.898438 294.210938 244.320312 290.628906 C 244.738281 287.050781 246.148438 285.808594 246.148438 285.808594 "/>
<path style="fill-rule:nonzero;fill:rgb(100%,100%,100%);fill-opacity:1;stroke-width:1;stroke-linecap:round;stroke-linejoin:round;stroke:rgb(14.901961%,19.607843%,21.960784%);stroke-opacity:1;stroke-miterlimit:4;" d="M 293.910156 284.351562 C 293.910156 284.351562 287.421875 289.808594 287.710938 290.691406 C 287.863281 291.433594 288.445312 292.015625 289.191406 292.171875 L 290.660156 292.460938 C 290.660156 292.460938 293.171875 296.738281 294.5 296.890625 C 295.828125 297.039062 301.289062 294.96875 301.289062 294.96875 C 301.289062 294.96875 313.539062 295.269531 316.289062 294.679688 C 319.039062 294.089844 321.601562 291.28125 321.601562 288.769531 C 321.601562 286.261719 317.601562 283.171875 314.21875 284.199219 C 310.839844 285.230469 299.910156 288.769531 298.730469 288.769531 C 297.550781 288.769531 296.421875 283.171875 293.910156 284.351562 Z M 293.910156 284.351562 "/>
<path style="fill-rule:nonzero;fill:rgb(14.901961%,19.607843%,21.960784%);fill-opacity:1;stroke-width:1;stroke-linecap:round;stroke-linejoin:round;stroke:rgb(14.901961%,19.607843%,21.960784%);stroke-opacity:1;stroke-miterlimit:4;" d="M 302.910156 297.78125 L 315.449219 298.21875 C 315.449219 298.21875 324.160156 327.289062 324.601562 328.46875 C 325.039062 329.648438 322.390625 332.46875 319.601562 333.46875 C 316.808594 334.46875 308.679688 335.390625 307.5 333.761719 C 306.320312 332.128906 305.71875 328.160156 305.71875 326.679688 C 305.71875 325.199219 302.910156 297.78125 302.910156 297.78125 Z M 302.910156 297.78125 "/>
<path style="fill-rule:nonzero;fill:rgb(100%,100%,100%);fill-opacity:1;stroke-width:1;stroke-linecap:round;stroke-linejoin:round;stroke:rgb(14.901961%,19.607843%,21.960784%);stroke-opacity:1;stroke-miterlimit:4;" d="M 350.230469 411.53125 C 347.261719 412.964844 344.175781 414.148438 341.011719 415.070312 C 336.078125 416.460938 333.929688 418.5 336.289062 419.359375 C 338.648438 420.21875 353.289062 420 355.480469 419.898438 C 357.671875 419.800781 358.808594 419.46875 358.808594 418.289062 C 358.847656 417.375 358.699219 416.464844 358.378906 415.609375 C 358.171875 415.28125 350.230469 411.53125 350.230469 411.53125 Z M 350.230469 411.53125 "/>
<path style="fill-rule:nonzero;fill:rgb(57.254902%,89.019608%,66.27451%);fill-opacity:1;stroke-width:1;stroke-linecap:round;stroke-linejoin:round;stroke:rgb(14.901961%,19.607843%,21.960784%);stroke-opacity:1;stroke-miterlimit:4;" d="M 357.089844 320.058594 C 357.089844 320.058594 354.839844 337.539062 357.519531 353.839844 C 360.199219 370.140625 361.171875 382.148438 359.671875 391.261719 C 358.171875 400.371094 357.519531 407.890625 357.671875 409.820312 C 357.820312 411.75 358.308594 415.179688 358.308594 415.179688 C 356.78125 415.796875 355.058594 415.714844 353.589844 414.960938 C 351.238281 413.679688 349.308594 412.710938 349.308594 412.710938 C 349.308594 412.710938 351.308594 401.769531 350.160156 394.910156 C 349.011719 388.050781 347.800781 384.398438 347.269531 376.910156 C 346.738281 369.421875 344.269531 355.25 343.839844 343.339844 C 343.410156 331.429688 341.910156 323.289062 342.761719 316.960938 C 343.609375 310.628906 357.519531 316.308594 357.089844 320.058594 Z M 357.089844 320.058594 "/>
<path style="fill-rule:nonzero;fill:rgb(100%,100%,100%);fill-opacity:1;stroke-width:1;stroke-linecap:round;stroke-linejoin:round;stroke:rgb(14.901961%,19.607843%,21.960784%);stroke-opacity:1;stroke-miterlimit:4;" d="M 339.609375 411.53125 C 336.640625 412.96875 333.558594 414.152344 330.390625 415.070312 C 325.460938 416.460938 323.320312 418.5 325.671875 419.359375 C 328.019531 420.21875 342.71875 420 344.871094 419.898438 C 347.019531 419.800781 348.191406 419.46875 348.191406 418.289062 C 348.230469 417.375 348.085938 416.464844 347.761719 415.609375 C 347.550781 415.28125 339.609375 411.53125 339.609375 411.53125 Z M 339.609375 411.53125 "/>
<path style="fill-rule:nonzero;fill:rgb(57.254902%,89.019608%,66.27451%);fill-opacity:1;stroke-width:1;stroke-linecap:round;stroke-linejoin:round;stroke:rgb(14.901961%,19.607843%,21.960784%);stroke-opacity:1;stroke-miterlimit:4;" d="M 327.601562 311 C 326.484375 321.398438 326.152344 331.863281 326.601562 342.308594 C 327.351562 359.898438 333.140625 383.308594 336.039062 390.890625 C 338.941406 398.46875 339.25 410.398438 339.25 411.050781 C 339.25 411.699219 337.429688 411.050781 340.75 413.941406 C 342.929688 415.75 345.5 417.035156 348.261719 417.691406 C 348.261719 417.691406 347.398438 405.25 348.371094 397.320312 C 349.320312 389.457031 349.53125 381.523438 349.011719 373.621094 C 348.46875 366.761719 348.691406 352.621094 348.898438 344.988281 C 349.234375 338.761719 350.203125 332.582031 351.800781 326.550781 C 352.121094 325.898438 357.910156 324.078125 358.878906 320.011719 C 359.527344 316.613281 359.886719 313.167969 359.949219 309.710938 Z M 327.601562 311 "/>
<path style="fill-rule:nonzero;fill:rgb(100%,100%,100%);fill-opacity:1;stroke-width:1;stroke-linecap:round;stroke-linejoin:round;stroke:rgb(14.901961%,19.607843%,21.960784%);stroke-opacity:1;stroke-miterlimit:4;" d="M 342.398438 237.601562 C 342.398438 237.601562 337.898438 258.410156 336.398438 266.339844 C 334.898438 274.269531 328 288 327.5 297.871094 C 327 307.738281 326.320312 313.421875 326.320312 313.421875 C 326.320312 313.421875 330.179688 314.921875 339.511719 314.699219 C 348.839844 314.480469 362.671875 313.199219 362.671875 313.199219 C 362.671875 313.199219 363.210938 307.949219 364.058594 297.441406 C 364.910156 286.929688 367.390625 274.171875 367.28125 262.160156 C 367.171875 250.148438 367.390625 250.789062 364.378906 243.160156 C 362.796875 239 360.859375 234.988281 358.589844 231.160156 C 358.589844 231.160156 348 228.601562 342.398438 237.601562 Z M 342.398438 237.601562 "/>
<path style="fill-rule:nonzero;fill:rgb(14.901961%,19.607843%,21.960784%);fill-opacity:1;stroke-width:1;stroke-linecap:round;stroke-linejoin:round;stroke:rgb(14.901961%,19.607843%,21.960784%);stroke-opacity:1;stroke-miterlimit:4;" d="M 343.050781 237 C 343.050781 237 338.648438 241.828125 338.21875 245 C 337.789062 248.171875 338.539062 250.261719 339.289062 248.859375 C 340.039062 247.460938 343.289062 242.109375 345.828125 241.570312 C 348.371094 241.03125 350.980469 242.859375 352.269531 245.109375 C 353.558594 247.359375 352.378906 251.109375 350.550781 263.980469 C 348.71875 276.851562 348.621094 283.179688 346.550781 285.859375 C 344.480469 288.539062 342.800781 288.21875 340.980469 287.140625 C 339.160156 286.058594 338.191406 286.5 338.980469 288.648438 C 339.769531 290.800781 343.808594 294.539062 349.921875 296.898438 C 356.03125 299.261719 361.390625 300.980469 367.71875 297.21875 C 374.050781 293.460938 378.441406 284.460938 375.980469 272.558594 C 373.519531 260.660156 369.109375 251.21875 366.21875 244.359375 C 364.425781 240.144531 362.269531 236.085938 359.78125 232.238281 L 358.929688 232.140625 C 358.929688 232.140625 361.390625 237.601562 362.929688 241.679688 C 364.46875 245.761719 362.078125 246.828125 358.859375 246.828125 C 355.640625 246.828125 352.75 239.109375 350.28125 237.28125 C 347.808594 235.449219 344.761719 235 343.050781 237 Z M 343.050781 237 "/>
<path style="fill-rule:nonzero;fill:rgb(100%,100%,100%);fill-opacity:1;stroke-width:1;stroke-linecap:round;stroke-linejoin:round;stroke:rgb(14.901961%,19.607843%,21.960784%);stroke-opacity:1;stroke-miterlimit:4;" d="M 336.078125 200 C 336.078125 200 332.859375 208.898438 333.5 210.398438 C 334.140625 211.898438 334.898438 211.679688 334.359375 213.398438 C 333.820312 215.121094 331.140625 214.898438 331.789062 216.621094 C 332.050781 217.503906 332.574219 218.289062 333.289062 218.871094 C 333.289062 218.871094 332.859375 224.019531 334.789062 226.871094 C 336.71875 229.71875 337.039062 230.871094 339.398438 229.980469 C 340.96875 229.378906 342.476562 228.625 343.898438 227.730469 C 343.898438 227.730469 344.550781 233.628906 344.980469 233.628906 C 345.410156 233.628906 356.238281 229.339844 356.238281 229.339844 C 356.238281 229.339844 355.699219 221.941406 356.128906 220.441406 C 356.558594 218.941406 360.421875 217.328125 361.378906 211.96875 C 362.339844 206.609375 351.519531 195.019531 344.761719 194.601562 C 340.976562 194.230469 337.417969 196.445312 336.078125 200 Z M 336.078125 200 "/>
<path style="fill-rule:nonzero;fill:rgb(14.901961%,19.607843%,21.960784%);fill-opacity:1;stroke-width:1;stroke-linecap:round;stroke-linejoin:round;stroke:rgb(14.901961%,19.607843%,21.960784%);stroke-opacity:1;stroke-miterlimit:4;" d="M 340 186.238281 C 340 186.238281 333.25 187.53125 332.28125 192.140625 C 331.308594 196.75 335.820312 201.46875 337.640625 202.21875 C 338.496094 202.507812 339.292969 202.945312 340 203.511719 C 340 203.511719 336.679688 206.71875 338.820312 208.511719 C 340.960938 210.300781 343.109375 210.441406 343.328125 211.191406 C 343.550781 211.941406 344.328125 213.550781 345.148438 213.871094 C 345.96875 214.191406 345.691406 219.121094 347.511719 220.621094 C 349.328125 222.121094 351.160156 222.339844 354.800781 221.480469 C 358.441406 220.621094 366.488281 215.148438 367.351562 208.179688 C 368.210938 201.210938 364.019531 191.128906 356.199219 187.808594 C 348.378906 184.488281 340 186.238281 340 186.238281 Z M 340 186.238281 "/>
<path style="fill-rule:nonzero;fill:rgb(100%,100%,100%);fill-opacity:1;stroke-width:1;stroke-linecap:round;stroke-linejoin:round;stroke:rgb(14.901961%,19.607843%,21.960784%);stroke-opacity:1;stroke-miterlimit:4;" d="M 341.121094 212.300781 C 341.121094 212.300781 341.648438 208.441406 343.050781 209.941406 C 345.011719 211.816406 345.828125 214.59375 345.191406 217.230469 C 344.441406 220.878906 343.191406 219.050781 342.621094 217.769531 "/>
<path style="fill-rule:nonzero;fill:rgb(100%,100%,100%);fill-opacity:1;stroke-width:1;stroke-linecap:round;stroke-linejoin:round;stroke:rgb(14.901961%,19.607843%,21.960784%);stroke-opacity:1;stroke-miterlimit:4;" d="M 340.148438 234.820312 C 340.148438 234.820312 339.941406 239.75 340.261719 239.75 C 340.578125 239.75 349.589844 235.351562 353.128906 234.070312 C 355.335938 233.285156 357.648438 232.847656 359.988281 232.78125 L 358.058594 227.628906 C 355.195312 227.644531 352.355469 228.1875 349.691406 229.238281 C 346.34375 230.796875 343.148438 232.667969 340.148438 234.820312 Z M 340.148438 234.820312 "/>
<path style="fill-rule:nonzero;fill:rgb(100%,100%,100%);fill-opacity:1;stroke-width:1;stroke-linecap:round;stroke-linejoin:round;stroke:rgb(14.901961%,19.607843%,21.960784%);stroke-opacity:1;stroke-miterlimit:4;" d="M 335.75 274.171875 C 333.183594 277.449219 331.058594 281.054688 329.429688 284.890625 C 326.53125 291.539062 316.988281 302.800781 315.488281 304.519531 C 313.988281 306.238281 309.378906 310.949219 309.050781 312.238281 C 308.71875 313.53125 307.871094 316.628906 308.730469 317.601562 C 309.65625 318.390625 310.761719 318.941406 311.949219 319.210938 C 312.378906 319.308594 312.949219 319.101562 312.589844 318.460938 L 311.949219 317.171875 C 312.648438 316.074219 313.515625 315.09375 314.519531 314.269531 C 316.117188 312.964844 317.402344 311.316406 318.28125 309.449219 C 318.808594 308.050781 319.351562 306.550781 319.351562 306.550781 C 319.351562 306.550781 337.679688 292.398438 340.578125 289.398438 C 343.480469 286.398438 345.828125 283.28125 346.261719 281.78125 C 346.601562 279.402344 346.78125 277.003906 346.800781 274.601562 Z M 335.75 274.171875 "/>
<path style="fill-rule:nonzero;fill:rgb(100%,100%,100%);fill-opacity:1;stroke-width:1;stroke-linecap:round;stroke-linejoin:round;stroke:rgb(14.901961%,19.607843%,21.960784%);stroke-opacity:1;stroke-miterlimit:4;" d="M 351.730469 266 C 351.730469 266 355.730469 252 353.019531 245.089844 C 350.308594 238.179688 346.578125 238 342.398438 241 C 338.21875 244 337.398438 255.261719 336.609375 258 C 335.820312 260.738281 332.609375 274 332.609375 274 C 332.609375 274 337.871094 276.46875 340.871094 277.539062 C 343.871094 278.609375 349.238281 280.21875 349.238281 280.21875 Z M 351.730469 266 "/>
<path style="fill-rule:nonzero;fill:rgb(14.901961%,19.607843%,21.960784%);fill-opacity:1;stroke-width:1;stroke-linecap:round;stroke-linejoin:round;stroke:rgb(14.901961%,19.607843%,21.960784%);stroke-opacity:1;stroke-miterlimit:4;" d="M 230.339844 337.148438 C 230.339844 337.148438 227.339844 359.53125 229.449219 369.238281 C 231.558594 378.949219 234.101562 400.480469 233.25 405.96875 C 232.398438 411.460938 231.558594 415.679688 231.558594 415.679688 C 228.625 416.136719 225.667969 416.421875 222.699219 416.53125 C 219.320312 416.53125 222.269531 385.710938 220.589844 365.019531 C 218.910156 344.328125 227.839844 332.929688 230.339844 337.148438 Z M 230.339844 337.148438 "/>
<path style="fill-rule:nonzero;fill:rgb(100%,100%,100%);fill-opacity:1;stroke-width:1;stroke-linecap:round;stroke-linejoin:round;stroke:rgb(14.901961%,19.607843%,21.960784%);stroke-opacity:1;stroke-miterlimit:4;" d="M 219.441406 411.441406 C 217.558594 412.296875 215.628906 413.046875 213.660156 413.691406 C 209.488281 415.128906 203.878906 417.378906 204.199219 418.820312 C 204.519531 420.261719 229.390625 420.101562 230.671875 419.820312 C 231.949219 419.539062 232.121094 412.921875 232.121094 412.921875 Z M 219.441406 411.441406 "/>
<path style="fill-rule:nonzero;fill:rgb(100%,100%,100%);fill-opacity:1;stroke-width:1;stroke-linecap:round;stroke-linejoin:round;stroke:rgb(14.901961%,19.607843%,21.960784%);stroke-opacity:1;stroke-miterlimit:4;" d="M 212.691406 411.441406 C 210.804688 412.292969 208.875 413.046875 206.910156 413.691406 C 202.738281 415.128906 197.121094 417.378906 197.441406 418.820312 C 197.761719 420.261719 222.628906 420.101562 223.921875 419.820312 C 225.210938 419.539062 225.359375 412.921875 225.359375 412.921875 Z M 212.691406 411.441406 "/>
<path style="fill-rule:nonzero;fill:rgb(14.901961%,19.607843%,21.960784%);fill-opacity:1;stroke-width:1;stroke-linecap:round;stroke-linejoin:round;stroke:rgb(14.901961%,19.607843%,21.960784%);stroke-opacity:1;stroke-miterlimit:4;" d="M 199.210938 309.390625 C 199.210938 309.390625 197.441406 338.269531 199.210938 354.640625 C 200.980469 371.011719 211.878906 404.058594 212.359375 405.640625 C 212.652344 406.683594 212.707031 407.78125 212.519531 408.851562 C 212.15625 409.597656 211.992188 410.429688 212.039062 411.261719 C 212.199219 412.378906 217.179688 413.988281 219.578125 414.628906 C 221.320312 415.050781 223.09375 415.316406 224.878906 415.429688 C 226.53125 411.808594 227.664062 407.976562 228.25 404.039062 C 229.53125 396.660156 228.089844 381.898438 227.449219 374.039062 C 226.808594 366.179688 230.339844 337.140625 230.339844 337.140625 C 233.679688 334.78125 236.066406 331.3125 237.070312 327.351562 C 239 320.449219 238.359375 309.699219 238.359375 309.699219 C 238.359375 309.699219 220.550781 311.628906 210.601562 309.378906 C 200.648438 307.128906 198.601562 306.808594 198.601562 306.808594 Z M 199.210938 309.390625 "/>
<path style="fill:none;stroke-width:1;stroke-linecap:round;stroke-linejoin:round;stroke:rgb(100%,100%,100%);stroke-opacity:1;stroke-miterlimit:4;" d="M 226.921875 411 C 226.921875 411 229.921875 394.949219 227.761719 384.398438 C 225.601562 373.851562 226.070312 355.691406 227.761719 347.660156 "/>
<path style="fill:none;stroke-width:1;stroke-linecap:round;stroke-linejoin:round;stroke:rgb(100%,100%,100%);stroke-opacity:1;stroke-miterlimit:4;" d="M 217 323.351562 C 215.683594 333.777344 215.253906 344.300781 215.710938 354.800781 C 216.359375 373.730469 220.371094 389.460938 220.53125 397.800781 C 220.691406 406.140625 220.210938 412.558594 220.210938 412.558594 "/>
<path style="fill:none;stroke-width:1;stroke-linecap:round;stroke-linejoin:round;stroke:rgb(100%,100%,100%);stroke-opacity:1;stroke-miterlimit:4;" d="M 207.230469 322.070312 C 207.230469 322.070312 207.550781 329.609375 208.671875 332.660156 C 209.789062 335.710938 214.609375 337.46875 214.609375 337.46875 "/>
<path style="fill-rule:nonzero;fill:rgb(57.254902%,89.019608%,66.27451%);fill-opacity:1;stroke-width:1;stroke-linecap:round;stroke-linejoin:round;stroke:rgb(14.901961%,19.607843%,21.960784%);stroke-opacity:1;stroke-miterlimit:4;" d="M 198.238281 310.671875 C 198.238281 310.671875 197.441406 315.671875 198.078125 316.929688 C 198.71875 318.191406 208.988281 322.871094 220.871094 321.578125 C 232.75 320.289062 237.871094 320.140625 238.679688 317.25 C 239.214844 314.71875 239.484375 312.136719 239.480469 309.550781 C 239.480469 309.550781 224.71875 313.550781 211.878906 311.960938 C 199.039062 310.371094 198.238281 310.671875 198.238281 310.671875 Z M 198.238281 310.671875 "/>
<path style="fill-rule:nonzero;fill:rgb(57.254902%,89.019608%,66.27451%);fill-opacity:1;stroke-width:1;stroke-linecap:round;stroke-linejoin:round;stroke:rgb(14.901961%,19.607843%,21.960784%);stroke-opacity:1;stroke-miterlimit:4;" d="M 213.808594 254.519531 C 213.808594 254.519531 208.671875 266.519531 206.429688 272.648438 C 204.191406 278.78125 198.890625 295.429688 196.800781 300.238281 C 194.710938 305.050781 195.519531 310.191406 198.730469 312.238281 C 201.941406 314.289062 216.378906 316 228.570312 315 C 240.761719 314 242.050781 311 242.371094 308.101562 C 242.691406 305.199219 240.441406 282.738281 235.148438 266.859375 C 229.859375 250.980469 228.890625 247.449219 226.640625 247.449219 C 224.390625 247.449219 213.808594 254.519531 213.808594 254.519531 Z M 213.808594 254.519531 "/>
<path style="fill-rule:nonzero;fill:rgb(100%,100%,100%);fill-opacity:1;stroke-width:1;stroke-linecap:round;stroke-linejoin:round;stroke:rgb(14.901961%,19.607843%,21.960784%);stroke-opacity:1;stroke-miterlimit:4;" d="M 203.058594 213.601562 C 203.058594 213.601562 200.648438 220.339844 200.648438 221.460938 C 200.648438 222.578125 202.101562 225.148438 202.101562 225.148438 C 202.101562 225.148438 197.601562 230.929688 198.398438 232.210938 C 199.199219 233.488281 202.738281 234.78125 202.738281 234.78125 C 202.738281 234.78125 204.179688 243.28125 206.109375 244.089844 C 208.039062 244.898438 214.289062 241.199219 214.289062 241.199219 L 215.730469 250.199219 L 225.519531 245.710938 L 225.519531 237 C 229.050781 234.808594 231.714844 231.460938 233.058594 227.53125 C 235.308594 220.949219 234.058594 218.21875 234.058594 218.21875 Z M 203.058594 213.601562 "/>
<path style="fill-rule:nonzero;fill:rgb(14.901961%,19.607843%,21.960784%);fill-opacity:1;stroke-width:1;stroke-linecap:round;stroke-linejoin:round;stroke:rgb(14.901961%,19.607843%,21.960784%);stroke-opacity:1;stroke-miterlimit:4;" d="M 233.058594 227.558594 C 235.308594 220.980469 234.058594 218.25 234.058594 218.25 L 215.160156 215.410156 L 214.800781 216.488281 C 214.800781 216.488281 212.390625 219.378906 213.199219 220.339844 C 214.261719 221.25 215.453125 222.007812 216.730469 222.578125 C 216.730469 222.578125 216.078125 226.28125 216.570312 226.578125 C 217.058594 226.878906 218.171875 228.5 218.488281 227.21875 C 218.675781 225.609375 219.109375 224.035156 219.78125 222.558594 C 220.898438 220.160156 225.550781 220.480469 225.710938 224.171875 C 225.78125 226.8125 224.660156 229.34375 222.660156 231.070312 L 222.019531 231.390625 C 222.019531 231.390625 222.820312 236.390625 225.550781 237.011719 C 229.066406 234.816406 231.71875 231.480469 233.058594 227.558594 Z M 233.058594 227.558594 "/>
<path style="fill:none;stroke-width:1;stroke-linecap:round;stroke-linejoin:round;stroke:rgb(14.901961%,19.607843%,21.960784%);stroke-opacity:1;stroke-miterlimit:4;" d="M 203.859375 221.621094 C 203.859375 221.621094 206.269531 219.699219 208.511719 223.070312 "/>
<path style=" stroke:none;fill-rule:nonzero;fill:rgb(14.901961%,19.607843%,21.960784%);fill-opacity:1;" d="M 207.039062 225.46875 C 207.039062 224.492188 206.644531 223.699219 206.160156 223.699219 C 205.675781 223.699219 205.28125 224.492188 205.28125 225.46875 C 205.28125 226.449219 205.675781 227.238281 206.160156 227.238281 C 206.644531 227.238281 207.039062 226.449219 207.039062 225.46875 Z M 207.039062 225.46875 "/>
<path style="fill:none;stroke-width:1;stroke-linecap:round;stroke-linejoin:round;stroke:rgb(14.901961%,19.607843%,21.960784%);stroke-opacity:1;stroke-miterlimit:4;" d="M 206.109375 235.101562 C 206.109375 235.101562 208.988281 236.21875 210.921875 232.851562 "/>
<path style="fill-rule:nonzero;fill:rgb(100%,100%,100%);fill-opacity:1;stroke-width:1;stroke-linecap:round;stroke-linejoin:round;stroke:rgb(14.901961%,19.607843%,21.960784%);stroke-opacity:1;stroke-miterlimit:4;" d="M 203.378906 212.320312 C 203.378906 212.320312 206.910156 204.128906 208.671875 201.398438 C 209.875 199.5 212.050781 198.445312 214.289062 198.679688 C 215.730469 198.679688 231.78125 202.53125 233.21875 205.261719 C 234.660156 207.988281 234.671875 221 234.671875 221 Z M 203.378906 212.320312 "/>
<path style="fill-rule:nonzero;fill:rgb(14.901961%,19.607843%,21.960784%);fill-opacity:1;stroke-width:1;stroke-linecap:round;stroke-linejoin:round;stroke:rgb(14.901961%,19.607843%,21.960784%);stroke-opacity:1;stroke-miterlimit:4;" d="M 203.378906 212.320312 L 234.671875 221 C 234.671875 221 234.671875 217.570312 234.46875 213.871094 L 206 206.558594 C 204.609375 209.460938 203.378906 212.320312 203.378906 212.320312 Z M 203.378906 212.320312 "/>
<path style="fill-rule:nonzero;fill:rgb(100%,100%,100%);fill-opacity:1;stroke-width:1;stroke-linecap:round;stroke-linejoin:round;stroke:rgb(14.901961%,19.607843%,21.960784%);stroke-opacity:1;stroke-miterlimit:4;" d="M 194.230469 212.800781 L 240.121094 224.511719 C 238.871094 222.082031 237.058594 219.988281 234.828125 218.410156 C 230.828125 215.410156 211.078125 209.910156 204.660156 209.75 C 200.945312 209.601562 197.28125 210.671875 194.230469 212.800781 Z M 194.230469 212.800781 "/>
<path style="fill-rule:nonzero;fill:rgb(100%,100%,100%);fill-opacity:1;stroke-width:1;stroke-linecap:round;stroke-linejoin:round;stroke:rgb(14.901961%,19.607843%,21.960784%);stroke-opacity:1;stroke-miterlimit:4;" d="M 187.328125 281.308594 L 196.320312 281.308594 L 196.320312 294.949219 L 187.328125 294.949219 Z M 187.328125 281.308594 "/>
<path style="fill-rule:nonzero;fill:rgb(14.901961%,19.607843%,21.960784%);fill-opacity:1;stroke-width:1;stroke-linecap:round;stroke-linejoin:round;stroke:rgb(14.901961%,19.607843%,21.960784%);stroke-opacity:1;stroke-miterlimit:4;" d="M 184.769531 284.519531 L 187.5 284.519531 L 187.5 291.101562 L 184.769531 291.101562 Z M 184.769531 284.519531 "/>
<path style="fill:none;stroke-width:2;stroke-linecap:round;stroke-linejoin:round;stroke:rgb(14.901961%,19.607843%,21.960784%);stroke-opacity:1;stroke-miterlimit:4;" d="M 225.839844 248.421875 L 191.511719 281.46875 "/>
<path style="fill-rule:nonzero;fill:rgb(100%,100%,100%);fill-opacity:1;stroke-width:1;stroke-linecap:round;stroke-linejoin:round;stroke:rgb(14.901961%,19.607843%,21.960784%);stroke-opacity:1;stroke-miterlimit:4;" d="M 217.5 290.300781 C 217.5 290.300781 203.21875 287.410156 202.261719 286.769531 C 201.300781 286.128906 198.398438 282.109375 196.960938 281.628906 C 195.519531 281.148438 191.960938 281.46875 191.511719 281.46875 C 191.058594 281.46875 190.378906 283.078125 191.671875 283.398438 C 192.960938 283.71875 194.550781 283.878906 195.199219 284.519531 C 195.871094 285.398438 196.261719 286.464844 196.320312 287.570312 C 196.320312 288.371094 193.75 290.300781 192.320312 290.78125 C 190.890625 291.261719 187.5 291.421875 187.320312 292.21875 C 187.191406 293.054688 187.589844 293.882812 188.320312 294.308594 C 189.71875 295.15625 191.230469 295.804688 192.808594 296.230469 C 194.570312 296.550781 201.46875 294.628906 201.46875 294.628906 C 201.46875 294.628906 215.109375 301.050781 218.800781 302.488281 C 222.488281 303.929688 227.148438 305.699219 229.871094 302.648438 C 232.589844 299.601562 229.710938 289.980469 229.710938 289.980469 Z M 217.5 290.300781 "/>
<path style="fill-rule:nonzero;fill:rgb(57.254902%,89.019608%,66.27451%);fill-opacity:1;stroke-width:1;stroke-linecap:round;stroke-linejoin:round;stroke:rgb(14.901961%,19.607843%,21.960784%);stroke-opacity:1;stroke-miterlimit:4;" d="M 220.230469 258.050781 C 220.230469 258.050781 216.859375 262.21875 216.859375 266.871094 L 216.859375 290.621094 L 234.191406 293.671875 C 234.191406 293.671875 234.511719 274.410156 234.351562 269.601562 C 234.191406 264.789062 232.578125 261.738281 231.78125 261.089844 "/>
<path style="fill-rule:nonzero;fill:rgb(57.254902%,89.019608%,66.27451%);fill-opacity:1;stroke-width:1;stroke-linecap:round;stroke-linejoin:round;stroke:rgb(14.901961%,19.607843%,21.960784%);stroke-opacity:1;stroke-miterlimit:4;" d="M 212.359375 249.859375 L 211.878906 257.238281 L 230.339844 247.941406 L 228.410156 242 Z M 212.359375 249.859375 "/>
<path style="fill-rule:nonzero;fill:rgb(14.901961%,19.607843%,21.960784%);fill-opacity:1;stroke-width:1;stroke-linecap:round;stroke-linejoin:round;stroke:rgb(14.901961%,19.607843%,21.960784%);stroke-opacity:1;stroke-miterlimit:4;" d="M 108.371094 194.351562 C 108.371094 194.351562 99.640625 196.351562 95.371094 204.199219 C 91.101562 212.050781 92.699219 217.578125 95.511719 220.390625 C 97.972656 222.886719 101.296875 224.347656 104.800781 224.46875 C 107.621094 224.46875 109.871094 210.960938 112.96875 209.691406 C 116.070312 208.421875 119.300781 212.089844 122.96875 212.511719 C 126.640625 212.929688 130.710938 211.949219 129.308594 205.511719 C 127.910156 199.070312 115.410156 191.671875 108.371094 194.351562 Z M 108.371094 194.351562 "/>
<path style="fill-rule:nonzero;fill:rgb(100%,100%,100%);fill-opacity:1;stroke-width:1;stroke-linecap:round;stroke-linejoin:round;stroke:rgb(14.901961%,19.607843%,21.960784%);stroke-opacity:1;stroke-miterlimit:4;" d="M 98.800781 338.070312 C 98.800781 338.070312 99.078125 349.621094 98.660156 353.980469 C 98.238281 358.339844 96.550781 365.238281 96.550781 372.980469 C 96.550781 380.71875 95.699219 408.878906 95.699219 408.878906 C 94.078125 410.859375 92.335938 412.738281 90.488281 414.511719 C 88.660156 416.058594 83.738281 416.621094 83.738281 418.171875 C 83.738281 419.71875 85.738281 420 85.738281 420 L 101.898438 420 C 101.898438 420 103.019531 419.441406 103.019531 416.621094 C 103.019531 413.800781 102.601562 410.988281 102.601562 409.621094 C 102.601562 408.25 108.371094 372.621094 108.648438 366.691406 C 108.929688 360.761719 113.160156 339.238281 113.160156 339.238281 Z M 98.800781 338.070312 "/>
<path style="fill-rule:nonzero;fill:rgb(100%,100%,100%);fill-opacity:1;stroke-width:1;stroke-linecap:round;stroke-linejoin:round;stroke:rgb(14.901961%,19.607843%,21.960784%);stroke-opacity:1;stroke-miterlimit:4;" d="M 90.488281 414.511719 C 88.660156 416.058594 83.738281 416.621094 83.738281 418.171875 C 83.738281 419.71875 85.738281 420 85.738281 420 L 101.898438 420 C 101.898438 420 103.019531 419.441406 103.019531 416.621094 C 103.019531 415.28125 102.929688 413.949219 102.828125 412.769531 L 98.941406 412.679688 C 98.726562 411.644531 98.390625 410.636719 97.941406 409.679688 C 97.378906 408.679688 95.691406 408.839844 95.691406 408.839844 C 94.070312 410.832031 92.335938 412.726562 90.488281 414.511719 Z M 90.488281 414.511719 "/>
<path style="fill-rule:nonzero;fill:rgb(57.254902%,89.019608%,66.27451%);fill-opacity:1;stroke-width:1;stroke-linecap:round;stroke-linejoin:round;stroke:rgb(14.901961%,19.607843%,21.960784%);stroke-opacity:1;stroke-miterlimit:4;" d="M 102.851562 418.308594 L 83.761719 418.308594 C 83.878906 419.730469 85.710938 420 85.710938 420 L 101.898438 420 C 101.898438 420 102.539062 419.679688 102.851562 418.308594 Z M 102.851562 418.308594 "/>
<path style="fill-rule:nonzero;fill:rgb(100%,100%,100%);fill-opacity:1;stroke-width:1;stroke-linecap:round;stroke-linejoin:round;stroke:rgb(14.901961%,19.607843%,21.960784%);stroke-opacity:1;stroke-miterlimit:4;" d="M 138.359375 338.070312 C 138.359375 338.070312 138.070312 349.621094 138.5 353.980469 C 138.929688 358.339844 140.609375 365.238281 140.609375 372.980469 C 140.609375 380.71875 141.449219 408.878906 141.449219 408.878906 C 143.074219 410.859375 144.8125 412.738281 146.660156 414.511719 C 148.488281 416.058594 153.421875 416.621094 153.421875 418.171875 C 153.421875 419.71875 151.421875 420 151.421875 420 L 135.261719 420 C 135.261719 420 134.128906 419.441406 134.128906 416.621094 C 134.128906 413.800781 134.550781 410.988281 134.550781 409.621094 C 134.550781 408.25 128.78125 372.621094 128.5 366.691406 C 128.21875 360.761719 124 339.199219 124 339.199219 Z M 138.359375 338.070312 "/>
<path style="fill-rule:nonzero;fill:rgb(100%,100%,100%);fill-opacity:1;stroke-width:1;stroke-linecap:round;stroke-linejoin:round;stroke:rgb(14.901961%,19.607843%,21.960784%);stroke-opacity:1;stroke-miterlimit:4;" d="M 146.660156 414.511719 C 148.488281 416.058594 153.421875 416.621094 153.421875 418.171875 C 153.421875 419.71875 151.421875 420 151.421875 420 L 135.261719 420 C 135.261719 420 134.128906 419.441406 134.128906 416.621094 C 134.128906 415.28125 134.230469 413.949219 134.328125 412.769531 L 138.210938 412.679688 C 138.429688 411.644531 138.765625 410.640625 139.210938 409.679688 C 139.769531 408.679688 141.460938 408.839844 141.460938 408.839844 C 143.078125 410.832031 144.816406 412.726562 146.660156 414.511719 Z M 146.660156 414.511719 "/>
<path style="fill-rule:nonzero;fill:rgb(57.254902%,89.019608%,66.27451%);fill-opacity:1;stroke-width:1;stroke-linecap:round;stroke-linejoin:round;stroke:rgb(14.901961%,19.607843%,21.960784%);stroke-opacity:1;stroke-miterlimit:4;" d="M 134.300781 418.308594 L 153.390625 418.308594 C 153.269531 419.730469 151.449219 420 151.449219 420 L 135.261719 420 C 135.261719 420 134.621094 419.679688 134.300781 418.308594 Z M 134.300781 418.308594 "/>
<path style="fill-rule:nonzero;fill:rgb(14.901961%,19.607843%,21.960784%);fill-opacity:1;stroke-width:1;stroke-linecap:round;stroke-linejoin:round;stroke:rgb(14.901961%,19.607843%,21.960784%);stroke-opacity:1;stroke-miterlimit:4;" d="M 100.628906 288.800781 L 100.460938 289.640625 L 90.351562 340.890625 L 143.839844 340.320312 L 133.429688 289.230469 Z M 100.628906 288.800781 "/>
<path style="fill-rule:nonzero;fill:rgb(100%,100%,100%);fill-opacity:1;stroke-width:1;stroke-linecap:round;stroke-linejoin:round;stroke:rgb(14.901961%,19.607843%,21.960784%);stroke-opacity:1;stroke-miterlimit:4;" d="M 142.808594 335.261719 L 91.441406 335.390625 L 90.351562 340.890625 L 143.851562 340.328125 Z M 142.808594 335.261719 "/>
<path style="fill:none;stroke-width:1;stroke-linecap:round;stroke-linejoin:round;stroke:rgb(100%,100%,100%);stroke-opacity:1;stroke-miterlimit:4;" d="M 119.671875 333.699219 L 119.769531 316.390625 L 122.730469 315.550781 "/>
<path style="fill:none;stroke-width:1;stroke-linecap:round;stroke-linejoin:round;stroke:rgb(100%,100%,100%);stroke-opacity:1;stroke-miterlimit:4;" d="M 121.460938 307.101562 L 121.460938 292.460938 L 123.71875 292.460938 L 124.28125 305.421875 "/>
<path style="fill-rule:nonzero;fill:rgb(100%,100%,100%);fill-opacity:1;stroke-width:1;stroke-linecap:round;stroke-linejoin:round;stroke:rgb(14.901961%,19.607843%,21.960784%);stroke-opacity:1;stroke-miterlimit:4;" d="M 129.488281 245 C 131.941406 245.457031 133.972656 247.164062 134.839844 249.5 C 136.238281 253.441406 142.160156 275.679688 142.160156 275.679688 C 142.160156 275.679688 156.371094 255.128906 157.078125 253.300781 C 157.601562 251.648438 159.023438 250.441406 160.738281 250.199219 C 162.289062 250.058594 165.808594 249.5 165.949219 250.910156 C 166.089844 252.320312 167.210938 257.910156 164.820312 259.070312 C 162.429688 260.230469 157.078125 260.480469 157.078125 260.480469 C 157.078125 260.480469 142.441406 288.070312 140.328125 288.480469 C 138.21875 288.890625 129.910156 271.03125 129.910156 271.03125 L 127.519531 244.558594 Z M 129.488281 245 "/>
<path style="fill:none;stroke-width:2;stroke-linecap:round;stroke-linejoin:round;stroke:rgb(14.901961%,19.607843%,21.960784%);stroke-opacity:1;stroke-miterlimit:4;" d="M 148.488281 136.210938 L 163.410156 272.328125 "/>
<path style="fill-rule:nonzero;fill:rgb(100%,100%,100%);fill-opacity:1;stroke-width:1;stroke-linecap:round;stroke-linejoin:round;stroke:rgb(14.901961%,19.607843%,21.960784%);stroke-opacity:1;stroke-miterlimit:4;" d="M 157.078125 253.328125 C 157.078125 253.328125 158.628906 250.519531 159.75 250.230469 C 160.871094 249.941406 163.269531 250.371094 163.269531 251.230469 C 163.269531 252.089844 164.539062 256.019531 163.410156 256.441406 C 162.28125 256.859375 161.71875 253.898438 161.71875 253.898438 C 161.71875 253.898438 161.019531 256.441406 158.910156 256.578125 "/>
<path style="fill-rule:nonzero;fill:rgb(57.254902%,89.019608%,66.27451%);fill-opacity:1;stroke-width:1;stroke-linecap:round;stroke-linejoin:round;stroke:rgb(14.901961%,19.607843%,21.960784%);stroke-opacity:1;stroke-miterlimit:4;" d="M 148.910156 139.589844 C 148.910156 139.589844 145.109375 147.898438 137.230469 150.011719 C 129.351562 152.121094 128.808594 149.570312 123.039062 153.371094 C 117.269531 157.171875 116.558594 162.371094 116.558594 162.371094 L 120.058594 186.460938 C 120.058594 186.460938 122.730469 174.460938 131.878906 174.070312 C 141.03125 173.679688 145.390625 175.191406 148.769531 173.511719 C 152.148438 171.828125 152.289062 170.828125 152.289062 170.828125 Z M 148.910156 139.589844 "/>
<path style="fill-rule:nonzero;fill:rgb(14.901961%,19.607843%,21.960784%);fill-opacity:1;stroke-width:1;stroke-linecap:round;stroke-linejoin:round;stroke:rgb(14.901961%,19.607843%,21.960784%);stroke-opacity:1;stroke-miterlimit:4;" d="M 132.699219 276.800781 L 140.519531 269.609375 C 138.660156 262.71875 135.769531 252.128906 134.839844 249.53125 C 133.972656 247.195312 131.941406 245.484375 129.488281 245.03125 L 127.488281 244.601562 L 129.878906 271.070312 C 129.878906 271.070312 131.101562 273.628906 132.699219 276.800781 Z M 132.699219 276.800781 "/>
<path style="fill-rule:nonzero;fill:rgb(57.254902%,89.019608%,66.27451%);fill-opacity:1;stroke-width:1;stroke-linecap:butt;stroke-linejoin:miter;stroke:rgb(0%,0%,0%);stroke-opacity:1;stroke-miterlimit:10;" d="M 109.21875 241.511719 L 95 245.871094 C 95 245.871094 91.621094 248.261719 92.46875 253.609375 C 93.320312 258.960938 99.78125 288.519531 100.46875 289.609375 C 101.066406 290.605469 102.121094 291.238281 103.28125 291.300781 C 104.691406 291.578125 131.160156 290.589844 132.558594 290.589844 C 133.960938 290.589844 134.558594 290.449219 134.679688 287.921875 C 134.800781 285.390625 132.679688 271.03125 132.679688 271.03125 C 132.679688 271.03125 135.679688 270.179688 135.21875 264.269531 C 134.761719 258.359375 130.429688 246.269531 129.449219 244.988281 C 128.46875 243.710938 120.300781 241.609375 120.300781 241.609375 Z M 109.21875 241.511719 "/>
<path style="fill-rule:nonzero;fill:rgb(100%,100%,100%);fill-opacity:1;stroke-width:1;stroke-linecap:round;stroke-linejoin:round;stroke:rgb(14.901961%,19.607843%,21.960784%);stroke-opacity:1;stroke-miterlimit:4;" d="M 109.078125 229.261719 L 109.359375 240.941406 L 107.101562 242.769531 C 107.101562 242.769531 113.441406 254.601562 117.238281 252.769531 C 121.039062 250.941406 121.460938 242.210938 121.460938 242.210938 L 119.351562 239.820312 L 119.351562 231.371094 Z M 109.078125 229.261719 "/>
<path style="fill-rule:nonzero;fill:rgb(14.901961%,19.607843%,21.960784%);fill-opacity:1;stroke-width:1;stroke-linecap:round;stroke-linejoin:round;stroke:rgb(14.901961%,19.607843%,21.960784%);stroke-opacity:1;stroke-miterlimit:4;" d="M 97.808594 220.25 C 97.808594 220.25 91.621094 220.109375 90.210938 224.328125 C 88.800781 228.550781 92.890625 233.480469 97.949219 233.480469 C 103.011719 233.480469 106.679688 228.128906 104.429688 223.910156 C 103.164062 221.464844 100.554688 220.023438 97.808594 220.25 Z M 97.808594 220.25 "/>
<path style="fill-rule:nonzero;fill:rgb(100%,100%,100%);fill-opacity:1;stroke-width:1;stroke-linecap:round;stroke-linejoin:round;stroke:rgb(14.901961%,19.607843%,21.960784%);stroke-opacity:1;stroke-miterlimit:4;" d="M 111.46875 201.25 C 111.46875 201.25 105.980469 207.160156 103.46875 209.828125 C 100.960938 212.5 99.25 214.199219 99.25 214.199219 L 101.25 221.199219 C 101.25 221.199219 96.890625 217.820312 96.609375 221.058594 C 96.328125 224.300781 98.71875 225.980469 100.550781 226.691406 C 101.550781 227.121094 102.691406 227.070312 103.648438 226.550781 C 103.648438 226.550781 109.28125 232.460938 113.5 234.429688 C 117.71875 236.398438 120.960938 235.429688 124.199219 230.628906 C 127.441406 225.828125 126.449219 219.789062 125.460938 215 C 124.46875 210.210938 124.898438 209.089844 121.800781 206.421875 C 118.699219 203.75 111.46875 201.25 111.46875 201.25 Z M 111.46875 201.25 "/>
<path style="fill:none;stroke-width:1;stroke-linecap:round;stroke-linejoin:round;stroke:rgb(14.901961%,19.607843%,21.960784%);stroke-opacity:1;stroke-miterlimit:4;" d="M 116.820312 214.621094 C 116.820312 214.621094 116.820312 218 117.238281 218.28125 C 117.660156 218.558594 119.351562 218.28125 118.929688 219.550781 C 118.511719 220.820312 116.109375 221.101562 116.109375 221.101562 "/>
<path style="fill:none;stroke-width:1;stroke-linecap:round;stroke-linejoin:round;stroke:rgb(14.901961%,19.607843%,21.960784%);stroke-opacity:1;stroke-miterlimit:4;" d="M 112.308594 223.769531 C 114.707031 225.15625 117.664062 225.15625 120.058594 223.769531 "/>
<path style="fill:none;stroke-width:1;stroke-linecap:round;stroke-linejoin:round;stroke:rgb(14.901961%,19.607843%,21.960784%);stroke-opacity:1;stroke-miterlimit:4;" d="M 106.121094 217 C 106.121094 217 107.949219 215.449219 110.910156 217.570312 "/>
<path style="fill:none;stroke-width:1;stroke-linecap:round;stroke-linejoin:round;stroke:rgb(14.901961%,19.607843%,21.960784%);stroke-opacity:1;stroke-miterlimit:4;" d="M 118.929688 216.171875 C 119.472656 214.835938 120.917969 214.113281 122.308594 214.480469 "/>
<path style="fill:none;stroke-width:1;stroke-linecap:round;stroke-linejoin:round;stroke:rgb(14.901961%,19.607843%,21.960784%);stroke-opacity:1;stroke-miterlimit:4;" d="M 105.128906 212.230469 C 105.914062 210.253906 107.960938 209.082031 110.058594 209.410156 "/>
<path style="fill:none;stroke-width:1;stroke-linecap:round;stroke-linejoin:round;stroke:rgb(14.901961%,19.607843%,21.960784%);stroke-opacity:1;stroke-miterlimit:4;" d="M 117.101562 208.570312 C 117.101562 208.570312 118.929688 206.878906 121.320312 209.828125 "/>
<path style="fill-rule:nonzero;fill:rgb(100%,100%,100%);fill-opacity:1;stroke-width:1;stroke-linecap:round;stroke-linejoin:round;stroke:rgb(14.901961%,19.607843%,21.960784%);stroke-opacity:1;stroke-miterlimit:4;" d="M 98.800781 252.058594 C 98.800781 251.359375 96.410156 245.308594 95 245.871094 C 93.589844 246.429688 75 276 75 276 L 55.300781 258.261719 C 55.230469 256.414062 54.996094 254.574219 54.601562 252.769531 C 54.039062 250.769531 51.601562 250.769531 50.660156 248.96875 C 49.71875 247.171875 48.121094 247.558594 48.121094 248.539062 C 48.121094 249.519531 48.828125 250.089844 49.53125 250.941406 C 50 251.515625 50.421875 252.128906 50.800781 252.769531 C 50.800781 252.769531 46.71875 251.921875 46.289062 251.921875 C 45.859375 251.921875 42.628906 247.980469 42.351562 249.671875 C 42.070312 251.359375 44.890625 254.738281 46.429688 256.988281 C 47.96875 259.238281 52.351562 261.351562 52.351562 261.351562 C 52.351562 261.351562 72.621094 284.71875 74.171875 285.570312 C 75.71875 286.421875 95.421875 265.859375 95.421875 265.859375 C 95.421875 265.859375 96.96875 270.648438 99.21875 268.859375 C 101.46875 267.070312 98.800781 252.058594 98.800781 252.058594 Z M 98.800781 252.058594 "/>
<path style="fill-rule:nonzero;fill:rgb(14.901961%,19.607843%,21.960784%);fill-opacity:1;stroke-width:1;stroke-linecap:round;stroke-linejoin:round;stroke:rgb(14.901961%,19.607843%,21.960784%);stroke-opacity:1;stroke-miterlimit:4;" d="M 84.148438 277.21875 C 89.679688 271.851562 95.421875 265.859375 95.421875 265.859375 C 95.421875 265.859375 96.96875 270.648438 99.21875 268.859375 C 101.46875 267.070312 98.800781 252.101562 98.800781 252.101562 C 98.800781 251.398438 96.410156 245.351562 95 245.910156 C 94 246.300781 84.859375 260.519531 79.289062 269.28125 C 80.898438 271.871094 82.910156 275.191406 84.148438 277.21875 Z M 84.148438 277.21875 "/>
</g>
</svg>
