<?xml version="1.0" encoding="UTF-8"?>
<svg xmlns="http://www.w3.org/2000/svg" xmlns:xlink="http://www.w3.org/1999/xlink" width="500px" height="500px" viewBox="0 0 500 500" version="1.1">
<defs>
<filter id="alpha" filterUnits="objectBoundingBox" x="0%" y="0%" width="100%" height="100%">
  <feColorMatrix type="matrix" in="SourceGraphic" values="0 0 0 0 1 0 0 0 0 1 0 0 0 0 1 0 0 0 1 0"/>
</filter>
<mask id="mask0">
  <g filter="url(#alpha)">
<rect x="0" y="0" width="500" height="500" style="fill:rgb(0%,0%,0%);fill-opacity:0.2;stroke:none;"/>
  </g>
</mask>
<clipPath id="clip1">
  <rect x="0" y="0" width="500" height="500"/>
</clipPath>
<g id="surface5" clip-path="url(#clip1)">
<path style=" stroke:none;fill-rule:nonzero;fill:rgb(0%,0%,0%);fill-opacity:1;" d="M 116.320312 148.550781 L 122.25 153.898438 C 121.960938 154.878906 121.761719 155.882812 121.648438 156.898438 C 119.371094 156.5 116.289062 153.898438 116.109375 151.488281 C 115.996094 150.503906 116.070312 149.507812 116.320312 148.550781 Z M 116.320312 148.550781 "/>
</g>
<mask id="mask1">
  <g filter="url(#alpha)">
<rect x="0" y="0" width="500" height="500" style="fill:rgb(0%,0%,0%);fill-opacity:0.2;stroke:none;"/>
  </g>
</mask>
<clipPath id="clip2">
  <rect x="0" y="0" width="500" height="500"/>
</clipPath>
<g id="surface8" clip-path="url(#clip2)">
<path style=" stroke:none;fill-rule:nonzero;fill:rgb(0%,0%,0%);fill-opacity:1;" d="M 117.621094 267.261719 L 118.96875 244.960938 L 126.660156 234.371094 Z M 117.621094 267.261719 "/>
</g>
<mask id="mask2">
  <g filter="url(#alpha)">
<rect x="0" y="0" width="500" height="500" style="fill:rgb(0%,0%,0%);fill-opacity:0.2;stroke:none;"/>
  </g>
</mask>
<clipPath id="clip3">
  <rect x="0" y="0" width="500" height="500"/>
</clipPath>
<g id="surface11" clip-path="url(#clip3)">
<path style=" stroke:none;fill-rule:nonzero;fill:rgb(0%,0%,0%);fill-opacity:1;" d="M 249.210938 388.289062 L 249.449219 398.828125 L 258.261719 398.96875 L 258.011719 388.429688 Z M 249.210938 388.289062 "/>
</g>
<mask id="mask3">
  <g filter="url(#alpha)">
<rect x="0" y="0" width="500" height="500" style="fill:rgb(0%,0%,0%);fill-opacity:0.2;stroke:none;"/>
  </g>
</mask>
<clipPath id="clip4">
  <rect x="0" y="0" width="500" height="500"/>
</clipPath>
<g id="surface14" clip-path="url(#clip4)">
<path style=" stroke:none;fill-rule:nonzero;fill:rgb(0%,0%,0%);fill-opacity:1;" d="M 265.390625 293.660156 C 271.128906 270.730469 276.519531 254.78125 279.390625 241.421875 C 259.199219 248.679688 260.921875 273.800781 265.390625 293.660156 Z M 265.390625 293.660156 "/>
</g>
<mask id="mask4">
  <g filter="url(#alpha)">
<rect x="0" y="0" width="500" height="500" style="fill:rgb(0%,0%,0%);fill-opacity:0.2;stroke:none;"/>
  </g>
</mask>
<clipPath id="clip5">
  <rect x="0" y="0" width="500" height="500"/>
</clipPath>
<g id="surface17" clip-path="url(#clip5)">
<path style=" stroke:none;fill-rule:nonzero;fill:rgb(0%,0%,0%);fill-opacity:1;" d="M 296.660156 388.289062 L 298.148438 398.828125 L 306.980469 398.96875 L 305.480469 388.429688 Z M 296.660156 388.289062 "/>
</g>
<mask id="mask5">
  <g filter="url(#alpha)">
<rect x="0" y="0" width="500" height="500" style="fill:rgb(0%,0%,0%);fill-opacity:0.701961;stroke:none;"/>
  </g>
</mask>
<clipPath id="clip6">
  <rect x="0" y="0" width="500" height="500"/>
</clipPath>
<g id="surface20" clip-path="url(#clip6)">
<path style=" stroke:none;fill-rule:nonzero;fill:rgb(100%,100%,100%);fill-opacity:1;" d="M 258.410156 185.941406 L 254.230469 186.738281 L 255.890625 195.390625 L 260.058594 194.601562 C 262.058594 194.21875 263.308594 191.96875 262.851562 189.601562 C 262.390625 187.230469 260.410156 185.558594 258.410156 185.941406 Z M 258.410156 185.941406 "/>
</g>
<mask id="mask6">
  <g filter="url(#alpha)">
<rect x="0" y="0" width="500" height="500" style="fill:rgb(0%,0%,0%);fill-opacity:0.2;stroke:none;"/>
  </g>
</mask>
<clipPath id="clip7">
  <rect x="0" y="0" width="500" height="500"/>
</clipPath>
<g id="surface23" clip-path="url(#clip7)">
<path style=" stroke:none;fill-rule:nonzero;fill:rgb(0%,0%,0%);fill-opacity:1;" d="M 268 114.621094 C 268 114.199219 267.890625 113.789062 267.828125 113.378906 L 260.371094 120.308594 C 261.035156 122.101562 261.375 124 261.371094 125.910156 C 265.089844 123.429688 268.480469 118.601562 268 114.621094 Z M 268 114.621094 "/>
</g>
<mask id="mask7">
  <g filter="url(#alpha)">
<rect x="0" y="0" width="500" height="500" style="fill:rgb(0%,0%,0%);fill-opacity:0.2;stroke:none;"/>
  </g>
</mask>
<clipPath id="clip8">
  <rect x="0" y="0" width="500" height="500"/>
</clipPath>
<g id="surface26" clip-path="url(#clip8)">
<path style=" stroke:none;fill-rule:nonzero;fill:rgb(0%,0%,0%);fill-opacity:1;" d="M 260.75 103 C 261.875 102.429688 263.179688 102.332031 264.378906 102.71875 C 263.199219 103.042969 261.964844 103.140625 260.75 103 Z M 260.75 103 "/>
</g>
<mask id="mask8">
  <g filter="url(#alpha)">
<rect x="0" y="0" width="500" height="500" style="fill:rgb(0%,0%,0%);fill-opacity:0.2;stroke:none;"/>
  </g>
</mask>
<clipPath id="clip9">
  <rect x="0" y="0" width="500" height="500"/>
</clipPath>
<g id="surface29" clip-path="url(#clip9)">
<path style=" stroke:none;fill-rule:nonzero;fill:rgb(0%,0%,0%);fill-opacity:1;" d="M 260.871094 103.890625 C 261.984375 103.589844 263.175781 103.804688 264.121094 104.46875 C 263.007812 104.507812 261.902344 104.308594 260.871094 103.890625 Z M 260.871094 103.890625 "/>
</g>
<mask id="mask9">
  <g filter="url(#alpha)">
<rect x="0" y="0" width="500" height="500" style="fill:rgb(0%,0%,0%);fill-opacity:0.2;stroke:none;"/>
  </g>
</mask>
<clipPath id="clip10">
  <rect x="0" y="0" width="500" height="500"/>
</clipPath>
<g id="surface32" clip-path="url(#clip10)">
<path style=" stroke:none;fill-rule:nonzero;fill:rgb(0%,0%,0%);fill-opacity:1;" d="M 368.839844 247.378906 C 358.679688 261.289062 363.25 287.460938 367.421875 305.949219 C 367.582031 285.558594 369.3125 265.207031 372.601562 245.078125 Z M 368.839844 247.378906 "/>
</g>
<mask id="mask10">
  <g filter="url(#alpha)">
<rect x="0" y="0" width="500" height="500" style="fill:rgb(0%,0%,0%);fill-opacity:0.2;stroke:none;"/>
  </g>
</mask>
<clipPath id="clip11">
  <rect x="0" y="0" width="500" height="500"/>
</clipPath>
<g id="surface35" clip-path="url(#clip11)">
<path style=" stroke:none;fill-rule:nonzero;fill:rgb(0%,0%,0%);fill-opacity:1;" d="M 370.910156 128.710938 L 362.269531 134.199219 C 362.570312 135.339844 362.757812 136.503906 362.828125 137.679688 C 365.960938 138.25 370.640625 135.558594 371.101562 132.800781 C 371.292969 131.4375 371.226562 130.050781 370.910156 128.710938 Z M 370.910156 128.710938 "/>
</g>
</defs>
<g id="surface1">
<path style=" stroke:none;fill-rule:nonzero;fill:rgb(92.156863%,92.156863%,92.156863%);fill-opacity:1;" d="M 0 382.398438 L 500 382.398438 L 500 382.648438 L 0 382.648438 Z M 0 382.398438 "/>
<path style=" stroke:none;fill-rule:nonzero;fill:rgb(92.156863%,92.156863%,92.156863%);fill-opacity:1;" d="M 333.328125 389.210938 L 407.121094 389.210938 L 407.121094 389.460938 L 333.328125 389.460938 Z M 333.328125 389.210938 "/>
<path style=" stroke:none;fill-rule:nonzero;fill:rgb(92.156863%,92.156863%,92.156863%);fill-opacity:1;" d="M 103.621094 390.890625 L 112.308594 390.890625 L 112.308594 391.140625 L 103.621094 391.140625 Z M 103.621094 390.890625 "/>
<path style=" stroke:none;fill-rule:nonzero;fill:rgb(92.156863%,92.156863%,92.156863%);fill-opacity:1;" d="M 408.121094 398.488281 L 427.308594 398.488281 L 427.308594 398.738281 L 408.121094 398.738281 Z M 408.121094 398.488281 "/>
<path style=" stroke:none;fill-rule:nonzero;fill:rgb(92.156863%,92.156863%,92.156863%);fill-opacity:1;" d="M 200 395.109375 L 248.671875 395.109375 L 248.671875 395.359375 L 200 395.359375 Z M 200 395.109375 "/>
<path style=" stroke:none;fill-rule:nonzero;fill:rgb(92.156863%,92.156863%,92.156863%);fill-opacity:1;" d="M 166.71875 395.109375 L 191.101562 395.109375 L 191.101562 395.359375 L 166.71875 395.359375 Z M 166.71875 395.109375 "/>
<path style=" stroke:none;fill-rule:nonzero;fill:rgb(92.156863%,92.156863%,92.156863%);fill-opacity:1;" d="M 52.460938 390.890625 L 85.609375 390.890625 L 85.609375 391.140625 L 52.460938 391.140625 Z M 52.460938 390.890625 "/>
<path style=" stroke:none;fill-rule:nonzero;fill:rgb(92.156863%,92.156863%,92.156863%);fill-opacity:1;" d="M 237 337.800781 L 43.910156 337.800781 C 40.761719 337.792969 38.210938 335.238281 38.210938 332.089844 L 38.210938 60.660156 C 38.238281 57.53125 40.78125 55.003906 43.910156 55 L 237 55 C 240.152344 55 242.710938 57.554688 242.710938 60.710938 L 242.710938 332.089844 C 242.710938 335.242188 240.152344 337.800781 237 337.800781 Z M 43.910156 55.199219 C 40.898438 55.207031 38.460938 57.648438 38.460938 60.660156 L 38.460938 332.089844 C 38.460938 335.101562 40.898438 337.542969 43.910156 337.550781 L 237 337.550781 C 240.011719 337.542969 242.453125 335.101562 242.460938 332.089844 L 242.460938 60.660156 C 242.453125 57.648438 240.011719 55.207031 237 55.199219 Z M 43.910156 55.199219 "/>
<path style=" stroke:none;fill-rule:nonzero;fill:rgb(92.156863%,92.156863%,92.156863%);fill-opacity:1;" d="M 453.308594 337.800781 L 260.210938 337.800781 C 257.058594 337.792969 254.503906 335.242188 254.5 332.089844 L 254.5 60.660156 C 254.53125 57.527344 257.078125 55.003906 260.210938 55 L 453.308594 55 C 456.4375 55.011719 458.972656 57.535156 459 60.660156 L 459 332.089844 C 459 335.234375 456.457031 337.789062 453.308594 337.800781 Z M 260.210938 55.199219 C 257.195312 55.207031 254.753906 57.648438 254.75 60.660156 L 254.75 332.089844 C 254.753906 335.101562 257.195312 337.542969 260.210938 337.550781 L 453.308594 337.550781 C 456.324219 337.542969 458.765625 335.101562 458.769531 332.089844 L 458.769531 60.660156 C 458.765625 57.648438 456.324219 55.207031 453.308594 55.199219 Z M 260.210938 55.199219 "/>
<path style=" stroke:none;fill-rule:nonzero;fill:rgb(92.156863%,92.156863%,92.156863%);fill-opacity:1;" d="M 46.140625 328.601562 L 50.429688 328.601562 L 50.429688 382.390625 L 46.140625 382.390625 Z M 46.140625 328.601562 "/>
<path style=" stroke:none;fill-rule:nonzero;fill:rgb(96.078431%,96.078431%,96.078431%);fill-opacity:1;" d="M 60.609375 328.601562 C 60.609375 344.308594 48.289062 357.050781 48.289062 357.050781 C 48.289062 357.050781 36 344.308594 36 328.601562 C 36 312.890625 48.320312 300.160156 48.320312 300.160156 C 48.320312 300.160156 60.609375 312.890625 60.609375 328.601562 Z M 60.609375 328.601562 "/>
<path style=" stroke:none;fill-rule:nonzero;fill:rgb(96.078431%,96.078431%,96.078431%);fill-opacity:1;" d="M 62.96875 313.53125 L 68.460938 313.53125 L 68.460938 382.398438 L 62.96875 382.398438 Z M 62.96875 313.53125 "/>
<path style=" stroke:none;fill-rule:nonzero;fill:rgb(90.196078%,90.196078%,90.196078%);fill-opacity:1;" d="M 81.5 313.53125 C 81.5 333.640625 65.71875 349.941406 65.71875 349.941406 C 65.71875 349.941406 50 333.640625 50 313.53125 C 50 293.421875 65.769531 277.109375 65.769531 277.109375 C 65.769531 277.109375 81.5 293.410156 81.5 313.53125 Z M 81.5 313.53125 "/>
<path style=" stroke:none;fill-rule:nonzero;fill:rgb(92.156863%,92.156863%,92.156863%);fill-opacity:1;" d="M 111.558594 97.378906 L 111.558594 382.378906 L 172.199219 382.378906 L 172.199219 254.570312 C 172.199219 200.9375 215.675781 157.460938 269.308594 157.460938 L 269.308594 97.378906 Z M 111.558594 97.378906 "/>
<path style=" stroke:none;fill-rule:nonzero;fill:rgb(96.078431%,96.078431%,96.078431%);fill-opacity:1;" d="M 133.359375 97.378906 L 133.359375 254.570312 C 133.898438 201.320312 177.222656 158.433594 230.476562 158.433594 C 283.726562 158.433594 327.050781 201.320312 327.589844 254.570312 L 327.589844 97.378906 Z M 133.359375 97.378906 "/>
<path style=" stroke:none;fill-rule:nonzero;fill:rgb(96.078431%,96.078431%,96.078431%);fill-opacity:1;" d="M 72.730469 97.378906 L 133.359375 97.378906 L 133.359375 382.398438 L 72.730469 382.398438 Z M 72.730469 97.378906 "/>
<path style=" stroke:none;fill-rule:nonzero;fill:rgb(92.156863%,92.156863%,92.156863%);fill-opacity:1;" d="M 102.570312 296 L 103.570312 296 C 114.332031 296.042969 123.027344 304.796875 123 315.558594 L 123 382.398438 L 83 382.398438 L 83 315.558594 C 82.988281 310.367188 85.042969 305.382812 88.71875 301.710938 C 92.390625 298.039062 97.375 295.984375 102.570312 296 Z M 102.570312 296 "/>
<path style=" stroke:none;fill-rule:nonzero;fill:rgb(100%,100%,100%);fill-opacity:1;" d="M 80.171875 161.929688 L 125.921875 161.929688 L 125.921875 205.171875 L 80.171875 205.171875 Z M 80.171875 161.929688 "/>
<path style=" stroke:none;fill-rule:nonzero;fill:rgb(87.843137%,87.843137%,87.843137%);fill-opacity:1;" d="M 70.949219 250.070312 L 174 250.070312 L 174 257.019531 L 70.949219 257.019531 Z M 70.949219 250.070312 "/>
<path style=" stroke:none;fill-rule:nonzero;fill:rgb(96.078431%,96.078431%,96.078431%);fill-opacity:1;" d="M 327.578125 97.378906 L 388.210938 97.378906 L 388.210938 382.398438 L 327.578125 382.398438 Z M 327.578125 97.378906 "/>
<path style=" stroke:none;fill-rule:nonzero;fill:rgb(92.156863%,92.156863%,92.156863%);fill-opacity:1;" d="M 357.421875 296 L 358.421875 296 C 369.195312 296 377.929688 304.734375 377.929688 315.511719 L 377.929688 382.398438 L 337.929688 382.398438 L 337.929688 315.558594 C 337.917969 310.378906 339.964844 305.40625 343.621094 301.738281 C 347.277344 298.070312 352.242188 296.003906 357.421875 296 Z M 357.421875 296 "/>
<path style=" stroke:none;fill-rule:nonzero;fill:rgb(92.156863%,92.156863%,92.156863%);fill-opacity:1;" d="M 427.078125 382.398438 L 388.210938 382.398438 L 388.210938 97.378906 L 427.078125 97.378906 Z M 427.078125 382.398438 "/>
<path style=" stroke:none;fill-rule:nonzero;fill:rgb(100%,100%,100%);fill-opacity:1;" d="M 335.019531 161.929688 L 380.769531 161.929688 L 380.769531 205.171875 L 335.019531 205.171875 Z M 335.019531 161.929688 "/>
<path style=" stroke:none;fill-rule:nonzero;fill:rgb(87.843137%,87.843137%,87.843137%);fill-opacity:1;" d="M 325.808594 250.070312 L 428.859375 250.070312 L 428.859375 257.019531 L 325.808594 257.019531 Z M 325.808594 250.070312 "/>
<path style=" stroke:none;fill-rule:nonzero;fill:rgb(87.843137%,87.843137%,87.843137%);fill-opacity:1;" d="M 70.949219 134.46875 L 428.859375 134.46875 L 428.859375 141.421875 L 70.949219 141.421875 Z M 70.949219 134.46875 "/>
<path style=" stroke:none;fill-rule:nonzero;fill:rgb(87.843137%,87.843137%,87.843137%);fill-opacity:1;" d="M 70.949219 93.898438 L 428.859375 93.898438 L 428.859375 100.851562 L 70.949219 100.851562 Z M 70.949219 93.898438 "/>
<path style=" stroke:none;fill-rule:nonzero;fill:rgb(92.156863%,92.156863%,92.156863%);fill-opacity:1;" d="M 95.828125 117.660156 C 95.835938 121.34375 92.851562 124.335938 89.167969 124.339844 C 85.480469 124.34375 82.492188 121.359375 82.488281 117.671875 C 82.488281 113.988281 85.476562 111 89.160156 111 C 92.839844 111 95.824219 113.980469 95.828125 117.660156 Z M 95.828125 117.660156 "/>
<path style=" stroke:none;fill-rule:nonzero;fill:rgb(92.156863%,92.156863%,92.156863%);fill-opacity:1;" d="M 142.929688 117.660156 C 142.929688 121.34375 139.945312 124.328125 136.261719 124.328125 C 132.578125 124.328125 129.589844 121.34375 129.589844 117.660156 C 129.589844 113.976562 132.578125 110.988281 136.261719 110.988281 C 139.945312 110.988281 142.929688 113.976562 142.929688 117.660156 Z M 142.929688 117.660156 "/>
<path style=" stroke:none;fill-rule:nonzero;fill:rgb(92.156863%,92.156863%,92.156863%);fill-opacity:1;" d="M 190 117.660156 C 190 121.34375 187.015625 124.328125 183.328125 124.328125 C 179.644531 124.328125 176.660156 121.34375 176.660156 117.660156 C 176.660156 113.976562 179.644531 110.988281 183.328125 110.988281 C 187.015625 110.988281 190 113.976562 190 117.660156 Z M 190 117.660156 "/>
<path style=" stroke:none;fill-rule:nonzero;fill:rgb(92.156863%,92.156863%,92.156863%);fill-opacity:1;" d="M 237.140625 117.660156 C 237.140625 121.34375 234.152344 124.328125 230.46875 124.328125 C 226.785156 124.328125 223.800781 121.34375 223.800781 117.660156 C 223.800781 113.976562 226.785156 110.988281 230.46875 110.988281 C 234.152344 110.988281 237.140625 113.976562 237.140625 117.660156 Z M 237.140625 117.660156 "/>
<path style=" stroke:none;fill-rule:nonzero;fill:rgb(92.156863%,92.156863%,92.156863%);fill-opacity:1;" d="M 284.238281 117.660156 C 284.238281 121.34375 281.253906 124.328125 277.570312 124.328125 C 273.886719 124.328125 270.898438 121.34375 270.898438 117.660156 C 270.898438 113.976562 273.886719 110.988281 277.570312 110.988281 C 281.253906 110.988281 284.238281 113.976562 284.238281 117.660156 Z M 284.238281 117.660156 "/>
<path style=" stroke:none;fill-rule:nonzero;fill:rgb(92.156863%,92.156863%,92.156863%);fill-opacity:1;" d="M 331.351562 117.660156 C 331.351562 121.34375 328.363281 124.328125 324.679688 124.328125 C 320.996094 124.328125 318.011719 121.34375 318.011719 117.660156 C 318.011719 113.976562 320.996094 110.988281 324.679688 110.988281 C 328.363281 110.988281 331.351562 113.976562 331.351562 117.660156 Z M 331.351562 117.660156 "/>
<path style=" stroke:none;fill-rule:nonzero;fill:rgb(92.156863%,92.156863%,92.156863%);fill-opacity:1;" d="M 378.449219 117.660156 C 378.449219 121.34375 375.464844 124.328125 371.78125 124.328125 C 368.097656 124.328125 365.109375 121.34375 365.109375 117.660156 C 365.109375 113.976562 368.097656 110.988281 371.78125 110.988281 C 375.464844 110.988281 378.449219 113.976562 378.449219 117.660156 Z M 378.449219 117.660156 "/>
<path style=" stroke:none;fill-rule:nonzero;fill:rgb(90.196078%,90.196078%,90.196078%);fill-opacity:1;" d="M 206.300781 346.699219 L 209.148438 346.699219 L 209.148438 382.398438 L 206.300781 382.398438 Z M 206.300781 346.699219 "/>
<path style=" stroke:none;fill-rule:nonzero;fill:rgb(96.078431%,96.078431%,96.078431%);fill-opacity:1;" d="M 215.898438 346.699219 C 215.898438 357.121094 207.71875 365.578125 207.71875 365.578125 C 207.71875 365.578125 199.539062 357.121094 199.539062 346.699219 C 199.539062 336.28125 207.71875 327.820312 207.71875 327.820312 C 207.71875 327.820312 215.898438 336.28125 215.898438 346.699219 Z M 215.898438 346.699219 "/>
<path style=" stroke:none;fill-rule:nonzero;fill:rgb(92.156863%,92.156863%,92.156863%);fill-opacity:1;" d="M 230.261719 336.691406 L 233.910156 336.691406 L 233.910156 382.390625 L 230.261719 382.390625 Z M 230.261719 336.691406 "/>
<path style=" stroke:none;fill-rule:nonzero;fill:rgb(94.117647%,94.117647%,94.117647%);fill-opacity:1;" d="M 242.550781 336.691406 C 242.550781 350.039062 232.089844 360.859375 232.089844 360.859375 C 232.089844 360.859375 221.621094 350 221.621094 336.691406 C 221.621094 323.378906 232.089844 312.53125 232.089844 312.53125 C 232.089844 312.53125 242.550781 323.351562 242.550781 336.691406 Z M 242.550781 336.691406 "/>
<path style=" stroke:none;fill-rule:nonzero;fill:rgb(92.156863%,92.156863%,92.156863%);fill-opacity:1;" d="M 294 382.398438 L 291.601562 382.398438 L 291.601562 352.308594 L 294 352.308594 Z M 294 382.398438 "/>
<path style=" stroke:none;fill-rule:nonzero;fill:rgb(94.117647%,94.117647%,94.117647%);fill-opacity:1;" d="M 285.898438 352.300781 C 285.898438 361.089844 292.789062 368.21875 292.789062 368.21875 C 292.789062 368.21875 299.691406 361.089844 299.691406 352.300781 C 299.691406 343.511719 292.789062 336.390625 292.789062 336.390625 C 292.789062 336.390625 285.898438 343.519531 285.898438 352.300781 Z M 285.898438 352.300781 "/>
<path style=" stroke:none;fill-rule:nonzero;fill:rgb(90.196078%,90.196078%,90.196078%);fill-opacity:1;" d="M 273.789062 382.398438 L 270.71875 382.398438 L 270.71875 343.871094 L 273.789062 343.871094 Z M 273.789062 382.398438 "/>
<path style=" stroke:none;fill-rule:nonzero;fill:rgb(96.078431%,96.078431%,96.078431%);fill-opacity:1;" d="M 263.429688 343.871094 C 263.429688 355.121094 272.25 364.238281 272.25 364.238281 C 272.25 364.238281 281.078125 355.121094 281.078125 343.871094 C 281.078125 332.621094 272.25 323.5 272.25 323.5 C 272.25 323.5 263.429688 332.621094 263.429688 343.871094 Z M 263.429688 343.871094 "/>
<path style=" stroke:none;fill-rule:nonzero;fill:rgb(92.156863%,92.156863%,92.156863%);fill-opacity:1;" d="M 448.378906 382.398438 L 445.179688 382.398438 L 445.179688 342.300781 L 448.378906 342.300781 Z M 448.378906 382.398438 "/>
<path style=" stroke:none;fill-rule:nonzero;fill:rgb(94.117647%,94.117647%,94.117647%);fill-opacity:1;" d="M 437.601562 342.289062 C 437.601562 354 446.78125 363.5 446.78125 363.5 C 446.78125 363.5 456 354 456 342.289062 C 456 330.578125 446.808594 321.089844 446.808594 321.089844 C 446.808594 321.089844 437.601562 330.578125 437.601562 342.289062 Z M 437.601562 342.289062 "/>
<path style=" stroke:none;fill-rule:nonzero;fill:rgb(87.843137%,87.843137%,87.843137%);fill-opacity:1;" d="M 421.460938 382.398438 L 417.359375 382.398438 L 417.359375 331.058594 L 421.460938 331.058594 Z M 421.460938 382.398438 "/>
<path style=" stroke:none;fill-rule:nonzero;fill:rgb(98.039216%,98.039216%,98.039216%);fill-opacity:1;" d="M 407.648438 331.050781 C 407.648438 346.050781 419.410156 358.199219 419.410156 358.199219 C 419.410156 358.199219 431.171875 346.050781 431.171875 331.050781 C 431.171875 316.050781 419.410156 303.910156 419.410156 303.910156 C 419.410156 303.910156 407.648438 316.058594 407.648438 331.050781 Z M 407.648438 331.050781 "/>
<path style=" stroke:none;fill-rule:nonzero;fill:rgb(96.078431%,96.078431%,96.078431%);fill-opacity:1;" d="M 443.890625 416.238281 C 443.890625 409.988281 357.082031 404.921875 250 404.921875 C 142.917969 404.921875 56.109375 409.988281 56.109375 416.238281 C 56.109375 422.492188 142.917969 427.558594 250 427.558594 C 357.082031 427.558594 443.890625 422.492188 443.890625 416.238281 Z M 443.890625 416.238281 "/>
<path style=" stroke:none;fill-rule:nonzero;fill:rgb(14.901961%,19.607843%,21.960784%);fill-opacity:1;" d="M 106.550781 122 C 101.050781 129 93.121094 146.699219 101.421875 152.710938 C 109.71875 158.71875 130.421875 157.070312 136.308594 152.710938 C 142.199219 148.351562 138.628906 126.359375 127.589844 119.851562 C 116.550781 113.339844 105.101562 118.089844 106.550781 122 Z M 106.550781 122 "/>
<path style=" stroke:none;fill-rule:nonzero;fill:rgb(100%,70.980392%,45.098039%);fill-opacity:1;" d="M 134.609375 217.320312 C 134.609375 217.320312 134.21875 266.21875 131.148438 306.390625 C 124.53125 346.148438 127.890625 400.730469 127.890625 400.730469 L 121.550781 400.730469 C 121.550781 400.730469 106 328.300781 113 305 C 108.820312 275.121094 110.121094 218.128906 110.121094 218.128906 Z M 134.609375 217.320312 "/>
<path style=" stroke:none;fill-rule:nonzero;fill:rgb(100%,70.980392%,45.098039%);fill-opacity:1;" d="M 142.179688 171.371094 C 142.460938 171.738281 142.878906 172.269531 143.25 172.71875 L 144.421875 174.128906 C 145.21875 175.058594 146.050781 175.96875 146.898438 176.859375 C 148.566406 178.625 150.351562 180.277344 152.238281 181.800781 C 154.046875 183.253906 155.996094 184.523438 158.050781 185.601562 C 159.941406 186.605469 161.992188 187.28125 164.109375 187.601562 L 164.628906 187.671875 C 164.390625 187.628906 164.144531 187.671875 163.929688 187.789062 C 163.839844 187.859375 163.988281 187.789062 164.199219 187.640625 C 164.808594 187.070312 165.332031 186.414062 165.75 185.691406 C 166.863281 183.773438 167.8125 181.765625 168.589844 179.691406 C 169.441406 177.539062 170.199219 175.300781 170.929688 173.03125 C 171.660156 170.761719 172.351562 168.449219 173.011719 166.191406 L 173.011719 166.140625 C 173.328125 164.996094 174.457031 164.28125 175.628906 164.480469 C 176.796875 164.683594 177.621094 165.738281 177.539062 166.921875 C 177.390625 169.460938 177.078125 171.921875 176.71875 174.390625 C 176.359375 176.859375 175.851562 179.390625 175.21875 181.820312 C 174.589844 184.417969 173.695312 186.941406 172.558594 189.359375 C 171.875 190.816406 170.980469 192.164062 169.898438 193.359375 C 169.148438 194.195312 168.234375 194.875 167.21875 195.359375 C 165.882812 195.976562 164.386719 196.160156 162.941406 195.890625 L 163.46875 195.96875 C 160.296875 195.773438 157.183594 195 154.289062 193.679688 C 151.566406 192.460938 148.996094 190.929688 146.628906 189.109375 C 144.332031 187.378906 142.175781 185.472656 140.171875 183.410156 C 139.171875 182.410156 138.230469 181.339844 137.300781 180.25 C 136.839844 179.710938 136.390625 179.160156 135.949219 178.601562 C 135.488281 178.011719 135.101562 177.5 134.601562 176.789062 C 133.171875 174.71875 133.65625 171.886719 135.6875 170.40625 C 137.722656 168.925781 140.566406 169.335938 142.101562 171.328125 Z M 142.179688 171.371094 "/>
<path style=" stroke:none;fill-rule:nonzero;fill:rgb(100%,70.980392%,45.098039%);fill-opacity:1;" d="M 182.109375 161.199219 L 179.941406 158 C 179.59375 157.492188 179.050781 157.152344 178.441406 157.066406 C 177.832031 156.980469 177.210938 157.15625 176.738281 157.550781 C 175.230469 158.800781 174.175781 160.519531 173.738281 162.429688 L 172.398438 168.429688 L 173.871094 172.429688 C 177.628906 172.140625 179.988281 166.820312 179.988281 166.820312 L 182.101562 163.609375 C 182.59375 162.882812 182.597656 161.929688 182.109375 161.199219 Z M 182.109375 161.199219 "/>
<path style=" stroke:none;fill-rule:nonzero;fill:rgb(14.901961%,19.607843%,21.960784%);fill-opacity:1;" d="M 148 173.160156 C 148.832031 174.175781 149.738281 175.125 150.710938 176.011719 C 150.710938 176.011719 148.28125 186.179688 142.460938 189.390625 C 141.324219 189.003906 140.417969 188.125 140 187 Z M 148 173.160156 "/>
<path style=" stroke:none;fill-rule:nonzero;fill:rgb(25.098039%,48.235294%,100%);fill-opacity:1;" d="M 134.640625 165.339844 C 143.101562 166.289062 145.769531 170.710938 149.351562 173.558594 C 149.589844 179.558594 140.699219 188.21875 140.699219 188.21875 C 140.699219 188.21875 122.828125 164 134.640625 165.339844 Z M 134.640625 165.339844 "/>
<path style=" stroke:none;fill-rule:nonzero;fill:rgb(25.098039%,48.235294%,100%);fill-opacity:1;" d="M 142.929688 173 C 143.929688 186.648438 135.640625 197 134.929688 211.390625 L 100.480469 210.550781 C 101.480469 196.550781 101.050781 197.929688 96.128906 170.820312 C 95.855469 169.308594 96.222656 167.75 97.136719 166.515625 C 98.050781 165.28125 99.433594 164.480469 100.960938 164.300781 C 103.519531 164.011719 106.691406 163.730469 110.019531 163.671875 C 115.601562 163.425781 121.191406 163.582031 126.75 164.140625 C 130.339844 164.570312 134.171875 165.261719 137.101562 165.839844 C 140.519531 166.488281 142.671875 169.5 142.929688 173 Z M 142.929688 173 "/>
<path style=" stroke:none;fill-rule:nonzero;fill:rgb(100%,100%,100%);fill-opacity:1;" d="M 126.769531 164.109375 L 110 163.640625 C 110 163.640625 110.480469 170.101562 125.71875 177.308594 C 132.761719 169.070312 126.769531 164.109375 126.769531 164.109375 Z M 126.769531 164.109375 "/>
<path style=" stroke:none;fill-rule:nonzero;fill:rgb(14.901961%,19.607843%,21.960784%);fill-opacity:1;" d="M 125.890625 171.460938 C 128.199219 172.050781 131.570312 176.109375 132.558594 180.160156 C 139.480469 169.800781 126.769531 164.160156 126.769531 164.160156 Z M 125.890625 171.460938 "/>
<path style=" stroke:none;fill-rule:nonzero;fill:rgb(14.901961%,19.607843%,21.960784%);fill-opacity:1;" d="M 121.808594 172 C 119.539062 172.738281 115.238281 176.910156 114.519531 181 C 106.929688 171.121094 110.039062 163.570312 110.039062 163.570312 Z M 121.808594 172 "/>
<path style=" stroke:none;fill-rule:nonzero;fill:rgb(100%,70.980392%,45.098039%);fill-opacity:1;" d="M 112.230469 144.851562 C 113.140625 150.261719 113.910156 160.148438 110.039062 163.640625 C 110.039062 163.640625 116.859375 171.03125 124.628906 172.980469 C 126.945312 170.65625 127.769531 167.234375 126.769531 164.109375 C 120.769531 162.511719 121.089844 158.058594 122.25 153.910156 Z M 112.230469 144.851562 "/>
<use xlink:href="#surface5" mask="url(#mask0)"/>
<path style=" stroke:none;fill-rule:nonzero;fill:rgb(100%,70.980392%,45.098039%);fill-opacity:1;" d="M 106.828125 134.820312 C 108.699219 143.628906 109.300781 147.398438 114.46875 151.289062 C 122.238281 157.160156 132.648438 152.941406 133.46875 143.75 C 134.191406 135.480469 131.019531 122.460938 121.800781 120.210938 C 117.664062 119.175781 113.289062 120.363281 110.238281 123.339844 C 107.1875 126.316406 105.898438 130.660156 106.828125 134.820312 Z M 106.828125 134.820312 "/>
<path style=" stroke:none;fill-rule:nonzero;fill:rgb(14.901961%,19.607843%,21.960784%);fill-opacity:1;" d="M 120.160156 135.609375 C 120.269531 136.328125 120.738281 136.859375 121.21875 136.789062 C 121.699219 136.71875 121.980469 136.078125 121.878906 135.351562 C 121.78125 134.621094 121.300781 134.101562 120.878906 134.171875 C 120.460938 134.238281 120.058594 134.878906 120.160156 135.609375 Z M 120.160156 135.609375 "/>
<path style=" stroke:none;fill-rule:nonzero;fill:rgb(14.901961%,19.607843%,21.960784%);fill-opacity:1;" d="M 129.441406 134.261719 C 129.539062 134.988281 130.019531 135.519531 130.488281 135.449219 C 130.960938 135.378906 131.261719 134.730469 131.148438 134.011719 C 131.039062 133.289062 130.570312 132.761719 130.101562 132.828125 C 129.628906 132.898438 129.328125 133.539062 129.441406 134.261719 Z M 129.441406 134.261719 "/>
<path style=" stroke:none;fill-rule:nonzero;fill:rgb(14.901961%,19.607843%,21.960784%);fill-opacity:1;" d="M 129.898438 132.898438 L 131.558594 132.140625 C 131.558594 132.140625 130.871094 133.628906 129.898438 132.898438 Z M 129.898438 132.898438 "/>
<path style=" stroke:none;fill-rule:nonzero;fill:rgb(92.941176%,53.72549%,24.313725%);fill-opacity:1;" d="M 126.371094 136 C 127.261719 137.554688 128.355469 138.980469 129.628906 140.238281 C 128.964844 140.882812 128.050781 141.195312 127.128906 141.101562 Z M 126.371094 136 "/>
<path style=" stroke:none;fill-rule:nonzero;fill:rgb(14.901961%,19.607843%,21.960784%);fill-opacity:1;" d="M 124.871094 144.078125 C 125.28125 144.089844 125.691406 144.066406 126.101562 144.011719 C 126.21875 143.988281 126.296875 143.878906 126.28125 143.761719 C 126.277344 143.703125 126.246094 143.648438 126.199219 143.617188 C 126.15625 143.582031 126.097656 143.566406 126.039062 143.578125 C 124.222656 143.882812 122.367188 143.308594 121.039062 142.03125 C 121 141.988281 120.945312 141.96875 120.890625 141.96875 C 120.832031 141.96875 120.78125 141.988281 120.738281 142.03125 C 120.65625 142.117188 120.65625 142.253906 120.738281 142.339844 C 121.839844 143.433594 123.320312 144.054688 124.871094 144.078125 Z M 124.871094 144.078125 "/>
<path style=" stroke:none;fill-rule:nonzero;fill:rgb(100%,70.980392%,45.098039%);fill-opacity:1;" d="M 105.46875 139.769531 C 106.097656 141.394531 107.339844 142.707031 108.929688 143.421875 C 111.050781 144.339844 112.421875 142.519531 112.101562 140.359375 C 111.808594 138.359375 110.359375 135.589844 108.101562 135.578125 C 107.113281 135.621094 106.207031 136.144531 105.683594 136.984375 C 105.15625 137.820312 105.078125 138.863281 105.46875 139.769531 Z M 105.46875 139.769531 "/>
<path style=" stroke:none;fill-rule:nonzero;fill:rgb(14.901961%,19.607843%,21.960784%);fill-opacity:1;" d="M 116.671875 132.21875 C 116.789062 132.214844 116.902344 132.160156 116.980469 132.070312 C 117.65625 131.210938 118.707031 130.730469 119.800781 130.78125 C 119.914062 130.792969 120.027344 130.761719 120.121094 130.691406 C 120.210938 130.617188 120.265625 130.515625 120.28125 130.398438 C 120.292969 130.285156 120.261719 130.171875 120.191406 130.085938 C 120.117188 129.996094 120.011719 129.941406 119.898438 129.929688 C 118.519531 129.84375 117.183594 130.4375 116.320312 131.519531 C 116.246094 131.605469 116.207031 131.71875 116.21875 131.832031 C 116.226562 131.945312 116.28125 132.046875 116.371094 132.121094 C 116.453125 132.195312 116.558594 132.230469 116.671875 132.21875 Z M 116.671875 132.21875 "/>
<path style=" stroke:none;fill-rule:nonzero;fill:rgb(14.901961%,19.607843%,21.960784%);fill-opacity:1;" d="M 131.089844 129.800781 C 131.195312 129.769531 131.28125 129.695312 131.328125 129.601562 C 131.441406 129.390625 131.359375 129.128906 131.148438 129.019531 C 129.941406 128.34375 128.480469 128.296875 127.230469 128.890625 C 127.019531 129.007812 126.945312 129.269531 127.058594 129.480469 C 127.175781 129.691406 127.441406 129.765625 127.648438 129.648438 C 128.644531 129.191406 129.796875 129.238281 130.75 129.78125 C 130.855469 129.832031 130.976562 129.839844 131.089844 129.800781 Z M 131.089844 129.800781 "/>
<path style=" stroke:none;fill-rule:nonzero;fill:rgb(14.901961%,19.607843%,21.960784%);fill-opacity:1;" d="M 120.621094 134.238281 L 122.289062 133.480469 C 122.289062 133.480469 121.601562 135 120.621094 134.238281 Z M 120.621094 134.238281 "/>
<path style=" stroke:none;fill-rule:nonzero;fill:rgb(100%,70.980392%,45.098039%);fill-opacity:1;" d="M 120.789062 217.78125 C 120.789062 217.78125 116.121094 266.78125 109.558594 307.109375 C 99.480469 347 98.089844 400.730469 98.089844 400.730469 L 91.75 400.730469 C 91.75 400.730469 82.550781 329.078125 91.609375 305.730469 C 90.058594 275.730469 96.339844 218.609375 96.339844 218.609375 Z M 120.789062 217.78125 "/>
<path style=" stroke:none;fill-rule:nonzero;fill:rgb(14.901961%,19.607843%,21.960784%);fill-opacity:1;" d="M 111.609375 414.46875 C 110.5 413.230469 106.039062 411.601562 106.039062 411.601562 C 106.039062 411.601562 102.039062 409.039062 99.601562 398.328125 C 99.542969 398.070312 99.34375 397.867188 99.089844 397.800781 L 91.390625 395.921875 C 90.945312 395.824219 90.503906 396.097656 90.390625 396.539062 C 90.183594 397.347656 90.050781 398.167969 90 399 C 89.910156 400 89.761719 401.578125 89.691406 402.589844 C 89.429688 406.320312 89.109375 414.710938 89.109375 414.710938 L 90 414.710938 C 90.226562 412.152344 90.605469 409.613281 91.128906 407.101562 C 91.78125 404.640625 93.261719 407.550781 93.988281 410.328125 C 94.71875 413.109375 98.371094 416.070312 104.039062 416.210938 C 110.679688 416.371094 112.769531 415.761719 111.609375 414.46875 Z M 111.609375 414.46875 "/>
<path style=" stroke:none;fill-rule:nonzero;fill:rgb(14.901961%,19.607843%,21.960784%);fill-opacity:1;" d="M 135 211.359375 C 142.308594 234.441406 135.410156 270.578125 131.941406 314.820312 C 115.941406 317.21875 100.558594 317.078125 85.941406 313.46875 C 96.519531 262.691406 80.941406 225.019531 100.589844 210.46875 Z M 135 211.359375 "/>
<path style=" stroke:none;fill-rule:nonzero;fill:rgb(100%,100%,100%);fill-opacity:1;" d="M 86.929688 307.859375 C 86.769531 308.738281 86.609375 309.640625 86.429688 310.539062 C 101.011719 314.019531 116.300781 314.191406 132.121094 311.890625 L 132.359375 309.019531 C 116.628906 311.339844 101.421875 311.230469 86.929688 307.859375 Z M 86.929688 307.859375 "/>
<use xlink:href="#surface8" mask="url(#mask1)"/>
<path style=" stroke:none;fill-rule:nonzero;fill:rgb(100%,70.980392%,45.098039%);fill-opacity:1;" d="M 103.488281 174.589844 C 102.609375 175.648438 101.828125 176.53125 100.960938 177.441406 C 100.089844 178.351562 99.25 179.230469 98.371094 180.089844 C 96.621094 181.839844 94.75 183.46875 92.820312 185.089844 C 88.917969 188.378906 84.585938 191.121094 79.941406 193.238281 C 78.710938 193.777344 77.453125 194.246094 76.171875 194.640625 L 75.171875 194.921875 C 74.789062 195.011719 74.371094 195.121094 74.019531 195.179688 C 73.316406 195.3125 72.605469 195.40625 71.890625 195.460938 C 69.347656 195.628906 66.796875 195.59375 64.261719 195.359375 C 59.449219 194.917969 54.683594 194.105469 50 192.921875 C 48.855469 192.65625 48.09375 191.574219 48.226562 190.410156 C 48.359375 189.242188 49.347656 188.363281 50.519531 188.359375 L 50.578125 188.359375 C 55.21875 188.300781 59.921875 188.261719 64.441406 188.03125 C 66.609375 187.9375 68.769531 187.710938 70.910156 187.351562 C 71.398438 187.25 71.910156 187.160156 72.269531 187.039062 C 72.488281 186.980469 72.640625 186.910156 72.828125 186.859375 L 73.53125 186.601562 C 74.484375 186.238281 75.414062 185.820312 76.320312 185.351562 C 78.199219 184.375 80.003906 183.253906 81.710938 182 C 83.488281 180.75 85.230469 179.390625 86.910156 177.949219 C 88.589844 176.511719 90.210938 174.949219 91.820312 173.390625 C 92.621094 172.609375 93.398438 171.808594 94.171875 171 C 94.941406 170.191406 95.730469 169.339844 96.378906 168.609375 L 96.441406 168.53125 C 98.167969 166.925781 100.824219 166.875 102.617188 168.410156 C 104.40625 169.941406 104.761719 172.578125 103.441406 174.53125 Z M 103.488281 174.589844 "/>
<path style=" stroke:none;fill-rule:nonzero;fill:rgb(14.901961%,19.607843%,21.960784%);fill-opacity:1;" d="M 91.648438 171.351562 C 90.902344 172.429688 90.082031 173.457031 89.191406 174.421875 C 89.191406 174.421875 92.480469 184.351562 98.550781 187.050781 C 99.632812 186.539062 100.429688 185.570312 100.71875 184.410156 Z M 91.648438 171.351562 "/>
<path style=" stroke:none;fill-rule:nonzero;fill:rgb(25.098039%,48.235294%,100%);fill-opacity:1;" d="M 101.390625 164.21875 C 94.859375 164.609375 92.730469 168.320312 90.46875 172.308594 C 92.46875 178 100.78125 187.140625 100.78125 187.140625 C 100.78125 187.140625 113.25 163.519531 101.390625 164.21875 Z M 101.390625 164.21875 "/>
<path style=" stroke:none;fill-rule:nonzero;fill:rgb(100%,70.980392%,45.098039%);fill-opacity:1;" d="M 53.429688 189.558594 L 46.339844 182.789062 L 45.769531 192 C 45.769531 192 50.691406 195.121094 53.980469 193.269531 Z M 53.429688 189.558594 "/>
<path style=" stroke:none;fill-rule:nonzero;fill:rgb(100%,70.980392%,45.098039%);fill-opacity:1;" d="M 40.398438 183.929688 L 39.488281 188.179688 C 39.261719 189.265625 39.925781 190.339844 41 190.621094 L 45.769531 192 L 46.339844 182.789062 L 42.148438 182.589844 C 41.316406 182.550781 40.578125 183.117188 40.398438 183.929688 Z M 40.398438 183.929688 "/>
<path style=" stroke:none;fill-rule:nonzero;fill:rgb(14.901961%,19.607843%,21.960784%);fill-opacity:1;" d="M 142.609375 414.46875 C 141.398438 413.230469 136.789062 411.601562 136.789062 411.601562 C 136.789062 411.601562 132.609375 409.039062 129.191406 398.328125 C 129.109375 398.070312 128.902344 397.871094 128.640625 397.800781 L 120.769531 395.921875 C 120.554688 395.851562 120.320312 395.882812 120.128906 396.003906 C 119.9375 396.121094 119.804688 396.316406 119.769531 396.539062 C 119.644531 397.351562 119.59375 398.175781 119.621094 399 C 119.621094 400 119.621094 401.578125 119.621094 402.589844 C 119.691406 406.320312 120.101562 414.710938 120.101562 414.710938 L 121 414.710938 C 121.003906 412.167969 121.160156 409.625 121.46875 407.101562 C 121.898438 404.640625 123.640625 407.550781 124.609375 410.328125 C 125.578125 413.109375 129.488281 416.070312 135.171875 416.210938 C 141.851562 416.371094 143.878906 415.761719 142.609375 414.46875 Z M 142.609375 414.46875 "/>
<path style=" stroke:none;fill-rule:nonzero;fill:rgb(25.098039%,48.235294%,100%);fill-opacity:1;" d="M 189.578125 142.46875 C 188.617188 142.050781 187.609375 141.738281 186.578125 141.539062 L 186.769531 140.539062 C 187.878906 140.753906 188.957031 141.089844 189.988281 141.539062 Z M 189.578125 142.46875 "/>
<path style=" stroke:none;fill-rule:nonzero;fill:rgb(25.098039%,48.235294%,100%);fill-opacity:1;" d="M 195 143.578125 L 195 142.578125 C 199.855469 142.738281 204.296875 139.863281 206.140625 135.371094 L 207.070312 135.738281 C 205.082031 140.621094 200.265625 143.746094 195 143.578125 Z M 195 143.578125 "/>
<path style=" stroke:none;fill-rule:nonzero;fill:rgb(25.098039%,48.235294%,100%);fill-opacity:1;" d="M 193.808594 131.191406 C 190.375 128.609375 186.074219 127.464844 181.808594 128 L 180.269531 138.441406 C 182.421875 137.269531 187.410156 137.640625 191.050781 139.28125 C 194.691406 140.921875 201.5 140.328125 203.839844 134.449219 C 199.21875 137.101562 197.191406 133.738281 193.808594 131.191406 Z M 193.808594 131.191406 "/>
<path style=" stroke:none;fill-rule:nonzero;fill:rgb(14.901961%,19.607843%,21.960784%);fill-opacity:1;" d="M 175.128906 173.679688 L 175.050781 173.679688 C 174.90625 173.65625 174.773438 173.578125 174.6875 173.460938 C 174.601562 173.34375 174.566406 173.195312 174.589844 173.050781 L 181.488281 126.199219 C 181.53125 125.898438 181.808594 125.6875 182.109375 125.730469 C 182.410156 125.78125 182.617188 126.058594 182.578125 126.359375 L 175.671875 173.210938 C 175.632812 173.480469 175.402344 173.683594 175.128906 173.679688 Z M 175.128906 173.679688 "/>
<path style=" stroke:none;fill-rule:nonzero;fill:rgb(100%,70.980392%,45.098039%);fill-opacity:1;" d="M 173.371094 166 C 173.859375 162.480469 176.800781 160.378906 178.148438 157.878906 C 178.371094 157.460938 179.078125 157.621094 179.269531 158.050781 C 179.628906 158.898438 178.621094 160.910156 178.179688 161.421875 C 177.558594 162.140625 177.449219 166.898438 174.671875 168.269531 C 173.847656 167.816406 173.347656 166.941406 173.371094 166 Z M 173.371094 166 "/>
<path style=" stroke:none;fill-rule:nonzero;fill:rgb(100%,100%,100%);fill-opacity:1;" d="M 100 208.429688 C 99.777344 209.082031 99.609375 209.75 99.5 210.429688 C 99.476562 210.574219 99.511719 210.71875 99.597656 210.835938 C 99.6875 210.953125 99.816406 211.03125 99.960938 211.050781 C 103.640625 211.519531 125.230469 214.121094 135.011719 212.46875 C 135.261719 212.421875 135.445312 212.207031 135.449219 211.949219 C 135.449219 211.339844 135.53125 210.390625 135.570312 209.789062 C 135.582031 209.644531 135.53125 209.5 135.433594 209.394531 C 135.335938 209.285156 135.195312 209.222656 135.050781 209.21875 C 131.648438 209.21875 113.78125 209.011719 100.53125 208.101562 C 100.300781 208.085938 100.089844 208.21875 100 208.429688 Z M 100 208.429688 "/>
<path style=" stroke:none;fill-rule:nonzero;fill:rgb(87.843137%,87.843137%,87.843137%);fill-opacity:1;" d="M 119.851562 208.429688 C 122.332031 208.234375 124.832031 208.363281 127.28125 208.808594 C 127.820312 209.128906 127.578125 213.101562 127.109375 213.351562 C 126.171875 213.839844 120.800781 213.570312 119.828125 213.28125 C 118.859375 212.988281 119.171875 208.640625 119.851562 208.429688 Z M 119.851562 208.429688 "/>
<path style=" stroke:none;fill-rule:nonzero;fill:rgb(14.901961%,19.607843%,21.960784%);fill-opacity:1;" d="M 109 120.710938 C 116.101562 121.320312 112.480469 136.710938 103.570312 147.238281 C 100.5 140.339844 100.519531 128 109 120.710938 Z M 109 120.710938 "/>
<path style=" stroke:none;fill-rule:nonzero;fill:rgb(14.901961%,19.607843%,21.960784%);fill-opacity:1;" d="M 109.410156 122.289062 C 116.179688 126.871094 132.648438 129.800781 130.609375 125.46875 C 128.570312 121.140625 112.21875 111.621094 109.410156 122.289062 Z M 109.410156 122.289062 "/>
<path style=" stroke:none;fill-rule:nonzero;fill:rgb(100%,54.509804%,48.235294%);fill-opacity:1;" d="M 258.488281 408.871094 L 249.691406 408.730469 L 249.199219 388.289062 L 258 388.429688 Z M 258.488281 408.871094 "/>
<path style=" stroke:none;fill-rule:nonzero;fill:rgb(14.901961%,19.607843%,21.960784%);fill-opacity:1;" d="M 249.351562 406.070312 L 258.960938 406.21875 C 259.316406 406.214844 259.621094 406.476562 259.671875 406.828125 L 260.910156 414.691406 C 260.960938 415.082031 260.839844 415.480469 260.578125 415.777344 C 260.316406 416.074219 259.9375 416.242188 259.539062 416.238281 C 256.070312 416.121094 251.078125 415.839844 246.71875 415.769531 C 241.621094 415.691406 242.121094 415.898438 236.148438 415.769531 C 232.53125 415.710938 231.761719 412.039062 233.300781 411.769531 C 240.300781 410.371094 240.988281 410.300781 247.179688 406.769531 C 247.824219 406.339844 248.574219 406.097656 249.351562 406.070312 Z M 249.351562 406.070312 "/>
<use xlink:href="#surface11" mask="url(#mask2)"/>
<path style=" stroke:none;fill-rule:nonzero;fill:rgb(25.098039%,48.235294%,100%);fill-opacity:1;" d="M 247.789062 406.851562 C 247.867188 406.828125 247.917969 406.757812 247.921875 406.679688 C 247.929688 406.59375 247.886719 406.511719 247.808594 406.46875 C 247.398438 406.261719 243.808594 404.398438 242.738281 404.980469 C 242.546875 405.097656 242.421875 405.304688 242.410156 405.53125 C 242.394531 405.910156 242.554688 406.277344 242.839844 406.53125 C 243.839844 407.398438 246.351562 407.089844 247.761719 406.828125 Z M 243 405.320312 C 243.660156 405.101562 245.609375 405.859375 247 406.550781 C 245.058594 406.839844 243.609375 406.738281 243.050781 406.25 C 242.855469 406.082031 242.75 405.828125 242.769531 405.570312 C 242.765625 405.476562 242.816406 405.390625 242.898438 405.351562 Z M 243 405.320312 "/>
<path style=" stroke:none;fill-rule:nonzero;fill:rgb(25.098039%,48.235294%,100%);fill-opacity:1;" d="M 247.789062 406.851562 C 247.789062 406.851562 247.789062 406.851562 247.839844 406.851562 C 247.898438 406.8125 247.929688 406.742188 247.921875 406.671875 C 247.921875 406.570312 247.589844 404.191406 246.441406 403.25 C 246.117188 402.972656 245.695312 402.835938 245.269531 402.871094 C 244.699219 402.921875 244.539062 403.210938 244.511719 403.441406 C 244.378906 404.441406 246.558594 406.378906 247.640625 406.871094 C 247.691406 406.882812 247.746094 406.875 247.789062 406.851562 Z M 245.109375 403.300781 L 245.320312 403.300781 C 245.632812 403.265625 245.945312 403.367188 246.179688 403.578125 C 246.863281 404.34375 247.300781 405.296875 247.441406 406.308594 C 246.328125 405.640625 244.851562 404.121094 244.929688 403.53125 C 244.929688 403.449219 244.941406 403.359375 245.109375 403.300781 Z M 245.300781 403.050781 Z M 245.300781 403.050781 "/>
<path style=" stroke:none;fill-rule:nonzero;fill:rgb(25.098039%,48.235294%,100%);fill-opacity:1;" d="M 263.808594 300.070312 C 274.558594 255.070312 284.75 235.570312 280.710938 213.25 L 249.640625 213.621094 C 249.640625 213.621094 237.390625 274.808594 240 301.199219 C 242.699219 328.628906 246.671875 392.488281 246.671875 392.488281 L 260.851562 392.691406 C 260.851562 392.691406 269.109375 330.710938 263.808594 300.070312 Z M 263.808594 300.070312 "/>
<use xlink:href="#surface14" mask="url(#mask3)"/>
<path style=" stroke:none;fill-rule:nonzero;fill:rgb(14.901961%,19.607843%,21.960784%);fill-opacity:1;" d="M 244.5 389.339844 L 245.691406 395.421875 L 261.289062 395.691406 L 261.921875 389.949219 Z M 244.5 389.339844 "/>
<path style=" stroke:none;fill-rule:nonzero;fill:rgb(100%,54.509804%,48.235294%);fill-opacity:1;" d="M 308.378906 408.871094 L 299.558594 408.730469 L 296.648438 388.289062 L 305.46875 388.429688 Z M 308.378906 408.871094 "/>
<path style=" stroke:none;fill-rule:nonzero;fill:rgb(14.901961%,19.607843%,21.960784%);fill-opacity:1;" d="M 298.929688 406.070312 L 308.539062 406.21875 C 308.890625 406.21875 309.183594 406.480469 309.21875 406.828125 L 310.058594 414.691406 C 310.085938 415.089844 309.949219 415.488281 309.671875 415.78125 C 309.398438 416.074219 309.011719 416.242188 308.609375 416.238281 C 305.148438 416.121094 304.058594 415.839844 299.710938 415.769531 C 294.609375 415.691406 296.960938 415.898438 290.988281 415.769531 C 287.378906 415.710938 286.800781 412.058594 288.351562 411.769531 C 293.238281 410.769531 294.53125 408.769531 296.730469 406.769531 C 297.339844 406.253906 298.132812 406 298.929688 406.070312 Z M 298.929688 406.070312 "/>
<use xlink:href="#surface17" mask="url(#mask4)"/>
<path style=" stroke:none;fill-rule:nonzero;fill:rgb(25.098039%,48.235294%,100%);fill-opacity:1;" d="M 300.671875 406.730469 C 300.746094 406.734375 300.820312 406.695312 300.859375 406.628906 C 300.910156 406.558594 300.910156 406.460938 300.859375 406.390625 C 300.570312 406.050781 297.859375 403.101562 296.691406 403.28125 C 296.457031 403.304688 296.257812 403.457031 296.171875 403.671875 C 295.992188 404.011719 295.992188 404.417969 296.171875 404.761719 C 296.761719 405.910156 299.25 406.488281 300.671875 406.761719 Z M 296.800781 403.730469 C 297.5 403.730469 299.03125 405.121094 300.101562 406.238281 C 298.171875 405.851562 296.839844 405.238281 296.511719 404.609375 C 296.390625 404.386719 296.390625 404.113281 296.511719 403.890625 C 296.542969 403.800781 296.625 403.738281 296.71875 403.730469 Z M 296.800781 403.730469 "/>
<path style=" stroke:none;fill-rule:nonzero;fill:rgb(25.098039%,48.235294%,100%);fill-opacity:1;" d="M 300.671875 406.730469 L 300.730469 406.730469 C 300.800781 406.707031 300.855469 406.652344 300.878906 406.578125 C 300.878906 406.480469 301.539062 404.179688 300.820312 402.921875 C 300.617188 402.554688 300.273438 402.285156 299.871094 402.171875 C 299.308594 402.019531 299.050781 402.230469 298.929688 402.441406 C 298.421875 403.308594 299.710938 405.839844 300.53125 406.671875 C 300.566406 406.707031 300.617188 406.730469 300.671875 406.730469 Z M 299.539062 402.539062 C 299.613281 402.527344 299.6875 402.527344 299.761719 402.539062 C 300.058594 402.617188 300.3125 402.816406 300.460938 403.089844 C 300.796875 404.039062 300.835938 405.070312 300.570312 406.039062 C 299.789062 405.039062 298.988281 403.128906 299.289062 402.609375 C 299.351562 402.539062 299.449219 402.511719 299.539062 402.539062 Z M 299.808594 402.371094 Z M 299.808594 402.371094 "/>
<path style=" stroke:none;fill-rule:nonzero;fill:rgb(25.098039%,48.235294%,100%);fill-opacity:1;" d="M 296.660156 300.070312 C 301.480469 255.070312 307.160156 235.070312 300.179688 212.75 L 267.789062 213.621094 C 267.789062 213.621094 266.910156 274.808594 272.988281 301.199219 C 279.308594 328.628906 294.070312 392.488281 294.070312 392.488281 L 308.28125 392.691406 C 308.28125 392.691406 306 330.710938 296.660156 300.070312 Z M 296.660156 300.070312 "/>
<path style=" stroke:none;fill-rule:nonzero;fill:rgb(14.901961%,19.607843%,21.960784%);fill-opacity:1;" d="M 292 389.339844 L 292.929688 395.421875 L 308.859375 395.691406 L 309.761719 389.949219 Z M 292 389.339844 "/>
<path style=" stroke:none;fill-rule:nonzero;fill:rgb(100%,54.509804%,48.235294%);fill-opacity:1;" d="M 258.179688 143.78125 C 257.050781 147.199219 255.78125 150.398438 254.5 153.679688 C 253.21875 156.960938 251.808594 160.160156 250.300781 163.359375 C 248.789062 166.558594 247.210938 169.761719 245.378906 172.929688 C 244.46875 174.519531 243.53125 176.121094 242.429688 177.699219 C 241.277344 179.421875 239.984375 181.046875 238.570312 182.558594 L 239.078125 181.921875 C 238.417969 182.828125 237.625 183.632812 236.730469 184.308594 C 236.121094 184.785156 235.445312 185.171875 234.730469 185.460938 C 233.859375 185.796875 232.933594 185.980469 232 186 C 230.367188 186.046875 228.757812 185.613281 227.371094 184.75 C 226.488281 184.203125 225.695312 183.527344 225.011719 182.75 C 224.039062 181.667969 223.214844 180.460938 222.558594 179.160156 C 222 178.078125 221.5 176.964844 221.058594 175.828125 C 220.25 173.71875 219.582031 171.550781 219.058594 169.351562 C 218.535156 167.203125 218.144531 165.027344 217.890625 162.828125 C 217.683594 161.226562 218.65625 159.703125 220.195312 159.210938 C 221.738281 158.722656 223.410156 159.402344 224.171875 160.828125 L 224.238281 160.960938 C 225.171875 162.699219 226.121094 164.558594 227.078125 166.300781 C 228.039062 168.039062 229.011719 169.769531 230.078125 171.300781 C 230.589844 172.070312 231.078125 172.820312 231.609375 173.441406 C 232 173.953125 232.453125 174.414062 232.960938 174.808594 C 233.109375 174.910156 233.210938 174.898438 233.039062 174.761719 C 232.558594 174.425781 231.984375 174.265625 231.398438 174.300781 C 230.988281 174.300781 230.578125 174.375 230.191406 174.519531 C 230.039062 174.566406 229.894531 174.632812 229.761719 174.710938 C 229.667969 174.753906 229.574219 174.804688 229.488281 174.859375 C 229.199219 175.050781 229.199219 175.058594 229.238281 174.949219 L 229.730469 174.339844 C 230.566406 173.28125 231.324219 172.167969 232 171 C 232.75 169.691406 233.5 168.300781 234.210938 166.871094 C 234.921875 165.441406 235.609375 163.96875 236.28125 162.480469 C 236.949219 160.988281 237.628906 159.480469 238.28125 157.949219 C 239.570312 154.898438 240.820312 151.800781 242.050781 148.679688 C 243.28125 145.558594 244.46875 142.390625 245.628906 139.351562 L 245.628906 139.269531 C 246.921875 135.871094 250.695312 134.128906 254.121094 135.351562 C 257.546875 136.574219 259.363281 140.3125 258.210938 143.761719 Z M 258.179688 143.78125 "/>
<path style=" stroke:none;fill-rule:nonzero;fill:rgb(100%,54.509804%,48.235294%);fill-opacity:1;" d="M 220.660156 166.921875 L 211.140625 164.191406 L 218 156 C 218 156 226 158.371094 224.738281 163.351562 Z M 220.660156 166.921875 "/>
<path style=" stroke:none;fill-rule:nonzero;fill:rgb(100%,54.509804%,48.235294%);fill-opacity:1;" d="M 208.070312 158.171875 L 210.398438 154.390625 C 210.800781 153.746094 211.445312 153.292969 212.183594 153.132812 C 212.925781 152.972656 213.699219 153.121094 214.328125 153.539062 L 218 156 L 211.109375 164.179688 L 208.480469 161.640625 C 207.554688 160.71875 207.382812 159.28125 208.070312 158.171875 Z M 208.070312 158.171875 "/>
<path style=" stroke:none;fill-rule:nonzero;fill:rgb(14.901961%,19.607843%,21.960784%);fill-opacity:1;" d="M 248.71875 131.191406 C 240.511719 137.191406 237.378906 154.859375 237.378906 154.859375 L 255.699219 163.308594 C 255.699219 163.308594 259.210938 158.851562 260.878906 149.390625 C 261.390625 146.519531 257.070312 125.121094 248.71875 131.191406 Z M 248.71875 131.191406 "/>
<path style=" stroke:none;fill-rule:nonzero;fill:rgb(14.901961%,19.607843%,21.960784%);fill-opacity:1;" d="M 253.738281 128.941406 C 263.472656 127.019531 273.429688 126.5 283.308594 127.398438 C 288.800781 127.804688 293.394531 131.722656 294.660156 137.078125 C 297.578125 149.519531 302.570312 174.078125 300.851562 213.25 C 296.339844 215.140625 282.699219 216.25 271.800781 216.410156 C 270.609375 216.410156 267.480469 213.910156 267.480469 213.910156 C 267.480469 213.910156 265.089844 216.398438 263.570312 216.351562 C 256.320312 216.109375 250.488281 215.351562 249.050781 214.078125 C 245.488281 207.300781 242.050781 189.621094 248.488281 172.96875 C 247.738281 163.410156 244.921875 152.820312 243.871094 142.578125 C 243.1875 136.179688 247.445312 130.292969 253.738281 128.941406 Z M 253.738281 128.941406 "/>
<path style=" stroke:none;fill-rule:nonzero;fill:rgb(100%,100%,100%);fill-opacity:1;" d="M 265.199219 180.523438 L 267.644531 180.054688 C 268.320312 179.925781 268.976562 180.371094 269.105469 181.050781 L 269.210938 181.609375 C 269.34375 182.289062 268.898438 182.941406 268.21875 183.070312 L 265.773438 183.539062 C 265.09375 183.667969 264.441406 183.222656 264.3125 182.546875 L 264.203125 181.984375 C 264.074219 181.308594 264.519531 180.652344 265.199219 180.523438 Z M 265.199219 180.523438 "/>
<path style=" stroke:none;fill-rule:nonzero;fill:rgb(25.098039%,48.235294%,100%);fill-opacity:1;" d="M 250.308594 184.441406 L 270.207031 180.640625 C 271.222656 180.445312 272.203125 181.113281 272.394531 182.125 L 274.46875 192.980469 C 274.664062 193.996094 273.996094 194.972656 272.984375 195.167969 L 253.082031 198.96875 C 252.066406 199.160156 251.089844 198.496094 250.894531 197.480469 L 248.820312 186.628906 C 248.628906 185.613281 249.292969 184.632812 250.308594 184.441406 Z M 250.308594 184.441406 "/>
<path style=" stroke:none;fill-rule:nonzero;fill:rgb(14.901961%,19.607843%,21.960784%);fill-opacity:1;" d="M 251.144531 184.960938 L 266.09375 182.105469 C 267.109375 181.914062 268.089844 182.578125 268.28125 183.59375 L 270.105469 193.140625 C 270.296875 194.15625 269.632812 195.132812 268.617188 195.328125 L 253.667969 198.183594 C 252.652344 198.375 251.675781 197.710938 251.480469 196.695312 L 249.65625 187.148438 C 249.464844 186.132812 250.128906 185.15625 251.144531 184.960938 Z M 251.144531 184.960938 "/>
<path style=" stroke:none;fill-rule:nonzero;fill:rgb(100%,100%,100%);fill-opacity:1;" d="M 264.558594 183.558594 L 266.199219 183.246094 C 266.496094 183.191406 266.785156 183.386719 266.84375 183.683594 L 266.957031 184.285156 C 267.011719 184.582031 266.816406 184.871094 266.519531 184.925781 L 264.878906 185.238281 C 264.582031 185.296875 264.292969 185.101562 264.234375 184.804688 L 264.121094 184.203125 C 264.0625 183.90625 264.257812 183.617188 264.558594 183.558594 Z M 264.558594 183.558594 "/>
<path style=" stroke:none;fill-rule:nonzero;fill:rgb(25.098039%,48.235294%,100%);fill-opacity:1;" d="M 261.890625 184.089844 L 262.773438 183.917969 C 263.074219 183.863281 263.363281 184.058594 263.417969 184.355469 L 263.53125 184.957031 C 263.589844 185.253906 263.394531 185.542969 263.09375 185.597656 L 262.210938 185.769531 C 261.914062 185.824219 261.625 185.628906 261.566406 185.332031 L 261.453125 184.730469 C 261.398438 184.433594 261.59375 184.144531 261.890625 184.089844 Z M 261.890625 184.089844 "/>
<use xlink:href="#surface20" mask="url(#mask5)"/>
<path style=" stroke:none;fill-rule:nonzero;fill:rgb(100%,100%,100%);fill-opacity:1;" d="M 258.679688 190.378906 C 259.140625 192.769531 257.890625 195.011719 255.890625 195.378906 C 253.890625 195.75 251.890625 194.140625 251.441406 191.75 C 250.988281 189.359375 252.238281 187.109375 254.230469 186.75 C 256.21875 186.390625 258.21875 188 258.679688 190.378906 Z M 258.679688 190.378906 "/>
<path style=" stroke:none;fill-rule:nonzero;fill:rgb(25.098039%,48.235294%,100%);fill-opacity:1;" d="M 257.578125 190.589844 C 257.59375 192.128906 256.40625 193.414062 254.871094 193.519531 C 253.335938 193.628906 251.984375 192.519531 251.785156 190.996094 C 251.585938 189.46875 252.609375 188.050781 254.121094 187.761719 C 255.851562 187.601562 257.390625 188.859375 257.578125 190.589844 Z M 257.578125 190.589844 "/>
<path style=" stroke:none;fill-rule:nonzero;fill:rgb(100%,100%,100%);fill-opacity:1;" d="M 262.230469 155.328125 C 259.480469 155.328125 257.449219 153.191406 256.378906 149.140625 C 254.378906 141.46875 256.269531 129.140625 259.039062 127.589844 C 259.101562 127.554688 259.179688 127.546875 259.25 127.566406 C 259.316406 127.585938 259.375 127.636719 259.410156 127.699219 C 259.445312 127.761719 259.457031 127.835938 259.4375 127.90625 C 259.417969 127.976562 259.371094 128.035156 259.308594 128.070312 C 256.96875 129.410156 254.839844 141.191406 256.910156 149 C 257.609375 151.640625 259.101562 154.78125 262.230469 154.78125 C 267.488281 154.78125 271.738281 146.449219 273.320312 142.871094 C 276.269531 136.179688 277.71875 128.738281 276.320312 127.238281 C 276.246094 127.125 276.265625 126.972656 276.367188 126.882812 C 276.46875 126.789062 276.621094 126.785156 276.730469 126.871094 C 278.429688 128.738281 276.589844 136.761719 273.789062 143.089844 C 272.199219 146.769531 267.820312 155.328125 262.230469 155.328125 Z M 262.230469 155.328125 "/>
<path style=" stroke:none;fill-rule:nonzero;fill:rgb(14.901961%,19.607843%,21.960784%);fill-opacity:1;" d="M 250.890625 86.75 C 252.269531 82.75 258.378906 79 258.378906 79 C 258.378906 79 272.878906 79.238281 279.710938 90.589844 C 281.339844 94.53125 278.25 101.109375 278.25 101.109375 Z M 250.890625 86.75 "/>
<path style=" stroke:none;fill-rule:nonzero;fill:rgb(25.098039%,48.235294%,100%);fill-opacity:1;" d="M 266.34375 86.78125 C 253.605469 81.851562 241.644531 82.082031 239.625 87.292969 C 237.605469 92.507812 246.296875 100.730469 259.035156 105.660156 C 271.773438 110.59375 283.734375 110.363281 285.753906 105.148438 C 287.769531 99.9375 279.082031 91.714844 266.34375 86.78125 Z M 266.34375 86.78125 "/>
<path style=" stroke:none;fill-rule:nonzero;fill:rgb(100%,54.509804%,48.235294%);fill-opacity:1;" d="M 270 111.421875 C 270.878906 117.96875 272.21875 125.578125 276.851562 129.289062 C 274.871094 134.492188 269.972656 138.007812 264.410156 138.21875 C 257.410156 138.578125 258.46875 132.980469 259.628906 130.019531 C 262.628906 126.671875 261.179688 122.949219 260.429688 120.308594 Z M 270 111.421875 "/>
<use xlink:href="#surface23" mask="url(#mask6)"/>
<path style=" stroke:none;fill-rule:nonzero;fill:rgb(100%,54.509804%,48.235294%);fill-opacity:1;" d="M 272.429688 101.890625 C 271.328125 110.558594 271.121094 115.691406 266.429688 119.828125 C 259.371094 126.058594 248.878906 121.269531 247.371094 112.429688 C 246.011719 104.429688 248.039062 91.628906 256.789062 88.800781 C 260.734375 87.5 265.066406 88.328125 268.253906 90.992188 C 271.4375 93.660156 273.015625 97.78125 272.429688 101.890625 Z M 272.429688 101.890625 "/>
<use xlink:href="#surface26" mask="url(#mask7)"/>
<use xlink:href="#surface29" mask="url(#mask8)"/>
<path style=" stroke:none;fill-rule:nonzero;fill:rgb(87.843137%,87.843137%,87.843137%);fill-opacity:1;" d="M 270 110.308594 C 268.132812 110.441406 266.300781 109.738281 265 108.390625 C 265 108.390625 269.160156 105.28125 268.429688 101.941406 C 267.699219 98.601562 266.238281 96.488281 267.519531 94.941406 C 261.25 95.941406 248.210938 96.101562 245.101562 92.941406 C 246.980469 93.351562 248.71875 91.878906 250 92.339844 C 250.5 90.828125 254.878906 85.960938 265 88.761719 C 271.769531 90.628906 274.109375 97.191406 273.601562 99.570312 C 274.769531 100.519531 277.519531 107.46875 270 110.308594 Z M 270 110.308594 "/>
<path style=" stroke:none;fill-rule:nonzero;fill:rgb(87.843137%,87.843137%,87.843137%);fill-opacity:1;" d="M 243.691406 113.558594 C 243.691406 113.558594 246.179688 119.308594 250.921875 116.558594 C 255.25 118.488281 259.328125 115.839844 261.050781 112.441406 C 258.371094 113.578125 255.949219 109.878906 252.109375 110.160156 C 251.667969 110.214844 251.261719 110.421875 250.960938 110.75 C 250.566406 110.519531 250.125 110.390625 249.671875 110.371094 C 246.941406 110.550781 247.390625 113.589844 243.691406 113.558594 Z M 243.691406 113.558594 "/>
<path style=" stroke:none;fill-rule:nonzero;fill:rgb(100%,54.509804%,48.235294%);fill-opacity:1;" d="M 274.808594 110.929688 C 273.636719 112.78125 271.769531 114.082031 269.628906 114.550781 C 266.78125 115.148438 265.519531 112.550781 266.449219 109.960938 C 267.28125 107.628906 269.769531 104.511719 272.570312 105.070312 C 275.371094 105.628906 276.230469 108.648438 274.808594 110.929688 Z M 274.808594 110.929688 "/>
<path style=" stroke:none;fill-rule:nonzero;fill:rgb(14.901961%,19.607843%,21.960784%);fill-opacity:1;" d="M 258.550781 103.628906 C 258.5 104.339844 258.089844 104.890625 257.628906 104.859375 C 257.171875 104.828125 256.820312 104.21875 256.871094 103.511719 C 256.921875 102.800781 257.328125 102.25 257.789062 102.289062 C 258.25 102.328125 258.601562 102.929688 258.550781 103.628906 Z M 258.550781 103.628906 "/>
<path style=" stroke:none;fill-rule:nonzero;fill:rgb(14.901961%,19.607843%,21.960784%);fill-opacity:1;" d="M 249.691406 103.25 C 249.640625 103.960938 249.230469 104.511719 248.769531 104.46875 C 248.308594 104.429688 247.960938 103.828125 248.011719 103.128906 C 248.058594 102.429688 248.46875 101.871094 248.929688 101.898438 C 249.390625 101.929688 249.738281 102.539062 249.691406 103.25 Z M 249.691406 103.25 "/>
<path style=" stroke:none;fill-rule:nonzero;fill:rgb(14.901961%,19.607843%,21.960784%);fill-opacity:1;" d="M 250.46875 103.339844 C 250.683594 103.34375 250.855469 103.515625 250.859375 103.730469 L 250.859375 107 C 250.855469 107.214844 250.683594 107.382812 250.46875 107.390625 L 245.238281 107.390625 C 245.023438 107.390625 244.851562 107.214844 244.851562 107 L 244.851562 103.738281 C 244.851562 103.523438 245.023438 103.351562 245.238281 103.351562 L 250.46875 103.351562 M 250.46875 102.800781 L 245.238281 102.800781 C 244.734375 102.828125 244.328125 103.234375 244.300781 103.738281 L 244.300781 107 C 244.328125 107.507812 244.734375 107.910156 245.238281 107.941406 L 250.46875 107.941406 C 250.988281 107.941406 251.410156 107.519531 251.410156 107 L 251.410156 103.738281 C 251.410156 103.222656 250.988281 102.800781 250.46875 102.800781 Z M 250.46875 102.800781 "/>
<path style=" stroke:none;fill-rule:nonzero;fill:rgb(14.901961%,19.607843%,21.960784%);fill-opacity:1;" d="M 261.101562 103.339844 C 261.207031 103.335938 261.308594 103.378906 261.382812 103.449219 C 261.457031 103.523438 261.5 103.625 261.5 103.730469 L 261.5 107 C 261.5 107.105469 261.457031 107.207031 261.382812 107.28125 C 261.308594 107.351562 261.207031 107.394531 261.101562 107.390625 L 254.320312 107.390625 C 254.214844 107.394531 254.113281 107.351562 254.042969 107.277344 C 253.96875 107.207031 253.925781 107.105469 253.929688 107 L 253.929688 103.738281 C 253.925781 103.636719 253.96875 103.535156 254.042969 103.460938 C 254.113281 103.386719 254.214844 103.347656 254.320312 103.351562 L 261.101562 103.351562 M 261.101562 102.800781 L 254.320312 102.800781 C 253.800781 102.800781 253.378906 103.222656 253.378906 103.738281 L 253.378906 107 C 253.378906 107.519531 253.800781 107.941406 254.320312 107.941406 L 261.101562 107.941406 C 261.601562 107.917969 262 107.503906 262 107 L 262 103.738281 C 262 103.222656 261.578125 102.800781 261.058594 102.800781 Z M 261.101562 102.800781 "/>
<path style=" stroke:none;fill-rule:nonzero;fill:rgb(14.901961%,19.607843%,21.960784%);fill-opacity:1;" d="M 251.308594 104.441406 L 250.929688 104.050781 C 251.738281 103.367188 252.90625 103.308594 253.78125 103.910156 L 253.511719 104.390625 C 252.847656 103.917969 251.953125 103.9375 251.308594 104.441406 Z M 251.308594 104.441406 "/>
<path style=" stroke:none;fill-rule:nonzero;fill:rgb(100%,33.72549%,32.156863%);fill-opacity:1;" d="M 252.261719 104.148438 C 251.148438 106.1875 249.757812 108.0625 248.128906 109.71875 C 249.230469 111.050781 251.410156 110.808594 251.410156 110.808594 Z M 252.261719 104.148438 "/>
<path style=" stroke:none;fill-rule:nonzero;fill:rgb(14.901961%,19.607843%,21.960784%);fill-opacity:1;" d="M 260.160156 98.921875 C 260.230469 98.910156 260.300781 98.886719 260.359375 98.851562 C 260.546875 98.71875 260.601562 98.464844 260.480469 98.269531 C 259.777344 97.109375 258.554688 96.363281 257.199219 96.269531 C 256.96875 96.269531 256.78125 96.457031 256.78125 96.691406 C 256.78125 96.921875 256.96875 97.109375 257.199219 97.109375 C 258.265625 97.195312 259.222656 97.789062 259.78125 98.699219 C 259.851562 98.839844 260 98.925781 260.160156 98.921875 Z M 260.160156 98.921875 "/>
<path style=" stroke:none;fill-rule:nonzero;fill:rgb(14.901961%,19.607843%,21.960784%);fill-opacity:1;" d="M 247 99.640625 C 247.136719 99.667969 247.277344 99.621094 247.371094 99.519531 C 248.09375 98.753906 249.144531 98.382812 250.191406 98.519531 C 250.296875 98.539062 250.410156 98.515625 250.5 98.453125 C 250.589844 98.394531 250.652344 98.296875 250.671875 98.191406 C 250.710938 97.964844 250.566406 97.746094 250.339844 97.699219 C 249.011719 97.523438 247.679688 98.003906 246.769531 98.988281 C 246.691406 99.066406 246.644531 99.171875 246.644531 99.285156 C 246.644531 99.394531 246.691406 99.503906 246.769531 99.578125 C 246.839844 99.625 246.917969 99.644531 247 99.640625 Z M 247 99.640625 "/>
<path style=" stroke:none;fill-rule:nonzero;fill:rgb(100%,54.509804%,48.235294%);fill-opacity:1;" d="M 294.488281 135.53125 C 295.570312 137 296.488281 138.300781 297.390625 139.71875 C 298.289062 141.140625 299.179688 142.519531 300.039062 143.941406 C 301.78125 146.769531 303.371094 149.691406 304.871094 152.691406 C 308.050781 158.835938 310.40625 165.375 311.871094 172.140625 C 312.050781 173.019531 312.179688 173.949219 312.308594 174.859375 L 312.460938 176.269531 C 312.460938 176.429688 312.519531 176.929688 312.539062 177.269531 C 312.558594 177.609375 312.539062 178.078125 312.539062 178.480469 C 312.417969 180.117188 311.953125 181.707031 311.171875 183.148438 C 310.476562 184.390625 309.585938 185.507812 308.53125 186.460938 C 306.871094 187.917969 304.976562 189.09375 302.929688 189.929688 C 301.207031 190.628906 299.429688 191.195312 297.621094 191.621094 C 290.988281 193.058594 284.183594 193.519531 277.421875 192.988281 C 275.753906 192.890625 274.421875 191.566406 274.308594 189.902344 C 274.191406 188.238281 275.332031 186.746094 276.96875 186.421875 L 277.160156 186.421875 C 278.601562 186.128906 280.160156 185.828125 281.660156 185.511719 C 283.160156 185.191406 284.660156 184.800781 286.128906 184.441406 C 289 183.734375 291.820312 182.851562 294.578125 181.800781 C 295.820312 181.328125 297.023438 180.75 298.171875 180.078125 C 299.042969 179.628906 299.824219 179.023438 300.480469 178.289062 C 300.671875 178.039062 300.75 177.851562 300.710938 177.808594 C 300.671875 177.769531 300.621094 177.859375 300.589844 177.910156 C 300.558594 177.960938 300.589844 177.910156 300.589844 177.910156 C 300.589844 177.910156 300.589844 177.980469 300.539062 177.75 L 300.359375 176.75 C 300.210938 176.101562 300.089844 175.449219 299.890625 174.75 C 298.230469 169.179688 295.953125 163.8125 293.101562 158.75 C 291.691406 156.089844 290.101562 153.480469 288.570312 150.871094 C 287.78125 149.570312 286.980469 148.28125 286.148438 147.011719 C 285.320312 145.738281 284.46875 144.410156 283.699219 143.289062 L 283.628906 143.191406 C 281.660156 140.183594 282.425781 136.15625 285.363281 134.078125 C 288.296875 132.003906 292.347656 132.621094 294.53125 135.480469 Z M 294.488281 135.53125 "/>
<path style=" stroke:none;fill-rule:nonzero;fill:rgb(14.901961%,19.607843%,21.960784%);fill-opacity:1;" d="M 286.441406 128.050781 C 296.390625 130.050781 304.660156 147.238281 304.660156 147.238281 L 293.410156 164.078125 C 288.570312 160.210938 284.542969 155.425781 281.558594 150 C 280.199219 147.441406 276.339844 126 286.441406 128.050781 Z M 286.441406 128.050781 "/>
<path style=" stroke:none;fill-rule:nonzero;fill:rgb(100%,54.509804%,48.235294%);fill-opacity:1;" d="M 281 186 L 272.109375 185.378906 L 274.378906 195.828125 C 274.378906 195.828125 282.511719 195.421875 282.980469 191.058594 Z M 281 186 "/>
<path style=" stroke:none;fill-rule:nonzero;fill:rgb(100%,54.509804%,48.235294%);fill-opacity:1;" d="M 265.089844 191.371094 L 266.511719 194.898438 C 267.074219 196.304688 268.574219 197.089844 270.050781 196.761719 L 274.398438 195.761719 L 272.128906 185.308594 L 266.871094 187.308594 C 266.085938 187.601562 265.457031 188.199219 265.121094 188.964844 C 264.785156 189.730469 264.773438 190.597656 265.089844 191.371094 Z M 265.089844 191.371094 "/>
<path style=" stroke:none;fill-rule:nonzero;fill:rgb(25.098039%,48.235294%,100%);fill-opacity:1;" d="M 274.359375 126.050781 C 274.570312 128.050781 272.160156 135.191406 263.75 138.230469 C 266.988281 138.230469 268.410156 142.378906 268.410156 142.378906 C 268.410156 142.378906 279.570312 136.429688 278.25 129.25 C 277.871094 127.398438 276.25 126.0625 274.359375 126.050781 Z M 274.359375 126.050781 "/>
<path style=" stroke:none;fill-rule:nonzero;fill:rgb(25.098039%,48.235294%,100%);fill-opacity:1;" d="M 261.140625 126.601562 C 261.339844 128.601562 259.058594 132.699219 263.75 138.230469 C 260.5 138.230469 258.550781 141.488281 258.550781 141.488281 C 256.003906 137.511719 255.660156 132.511719 257.628906 128.21875 C 258.605469 127.332031 259.832031 126.765625 261.140625 126.601562 Z M 261.140625 126.601562 "/>
<path style=" stroke:none;fill-rule:nonzero;fill:rgb(100%,100%,100%);fill-opacity:1;" d="M 265.320312 174.449219 L 256.851562 174.449219 C 256.40625 174.457031 255.980469 174.277344 255.675781 173.949219 C 255.375 173.621094 255.226562 173.183594 255.269531 172.738281 L 256.441406 157.640625 C 256.527344 156.683594 257.320312 155.945312 258.28125 155.929688 L 266.75 155.929688 C 267.195312 155.921875 267.621094 156.105469 267.921875 156.429688 C 268.226562 156.757812 268.371094 157.199219 268.328125 157.640625 L 267.160156 172.738281 C 267.078125 173.699219 266.28125 174.4375 265.320312 174.449219 Z M 265.320312 174.449219 "/>
<path style=" stroke:none;fill-rule:nonzero;fill:rgb(25.098039%,48.235294%,100%);fill-opacity:1;" d="M 262.890625 157.570312 L 261.300781 157.570312 C 261.21875 157.570312 261.136719 157.535156 261.082031 157.476562 C 261.023438 157.414062 260.996094 157.332031 261 157.25 L 261.21875 154.410156 C 261.234375 154.226562 261.386719 154.089844 261.570312 154.089844 L 263.160156 154.089844 C 263.242188 154.085938 263.324219 154.121094 263.382812 154.179688 C 263.441406 154.242188 263.46875 154.328125 263.460938 154.410156 L 263.238281 157.25 C 263.21875 157.429688 263.070312 157.566406 262.890625 157.570312 Z M 262.890625 157.570312 "/>
<path style=" stroke:none;fill-rule:nonzero;fill:rgb(14.901961%,19.607843%,21.960784%);fill-opacity:1;" d="M 393.101562 159.148438 C 402.800781 169.441406 411.800781 173.289062 411.199219 186.039062 C 415.699219 193.21875 413.808594 213.039062 406 217.128906 C 398.191406 221.21875 376.058594 218.308594 376.058594 218.308594 Z M 393.101562 159.148438 "/>
<path style=" stroke:none;fill-rule:nonzero;fill:rgb(100%,100%,100%);fill-opacity:1;" d="M 401.710938 222.941406 L 410.171875 222.941406 C 410.613281 222.949219 411.042969 222.765625 411.34375 222.4375 C 411.644531 222.113281 411.792969 221.671875 411.75 221.230469 L 410.578125 206.128906 C 410.496094 205.171875 409.703125 204.433594 408.738281 204.421875 L 400.269531 204.421875 C 399.824219 204.414062 399.398438 204.59375 399.097656 204.921875 C 398.796875 205.246094 398.648438 205.6875 398.691406 206.128906 L 399.859375 221.230469 C 399.953125 222.1875 400.746094 222.925781 401.710938 222.941406 Z M 401.710938 222.941406 "/>
<path style=" stroke:none;fill-rule:nonzero;fill:rgb(25.098039%,48.235294%,100%);fill-opacity:1;" d="M 410.171875 223.191406 L 401.710938 223.191406 C 400.613281 223.171875 399.707031 222.332031 399.609375 221.238281 L 398.441406 206.148438 C 398.394531 205.632812 398.570312 205.121094 398.921875 204.738281 C 399.269531 204.363281 399.757812 204.152344 400.269531 204.160156 L 408.738281 204.160156 C 409.851562 204.1875 410.757812 205.050781 410.839844 206.160156 L 412.011719 221.261719 C 412.0625 221.777344 411.890625 222.289062 411.539062 222.671875 C 411.1875 223.054688 410.6875 223.269531 410.171875 223.261719 Z M 400.269531 204.671875 C 399.898438 204.664062 399.539062 204.820312 399.289062 205.09375 C 399.035156 205.371094 398.914062 205.738281 398.949219 206.109375 L 400.121094 221.210938 C 400.195312 222.035156 400.882812 222.667969 401.710938 222.679688 L 410.171875 222.679688 C 410.542969 222.6875 410.90625 222.535156 411.160156 222.257812 C 411.414062 221.984375 411.539062 221.613281 411.5 221.238281 L 410.328125 206.148438 C 410.257812 205.320312 409.570312 204.683594 408.738281 204.671875 Z M 400.269531 204.671875 "/>
<path style=" stroke:none;fill-rule:nonzero;fill:rgb(25.098039%,48.235294%,100%);fill-opacity:1;" d="M 404.128906 206.050781 L 405.730469 206.050781 C 405.8125 206.050781 405.890625 206.015625 405.945312 205.953125 C 406 205.894531 406.027344 205.8125 406.019531 205.730469 L 405.800781 202.890625 C 405.785156 202.710938 405.636719 202.574219 405.460938 202.570312 L 403.859375 202.570312 C 403.777344 202.570312 403.699219 202.605469 403.644531 202.664062 C 403.589844 202.726562 403.5625 202.808594 403.570312 202.890625 L 403.789062 205.730469 C 403.804688 205.90625 403.953125 206.046875 404.128906 206.050781 Z M 404.128906 206.050781 "/>
<path style=" stroke:none;fill-rule:nonzero;fill:rgb(14.901961%,19.607843%,21.960784%);fill-opacity:1;" d="M 369 273.378906 C 368 284.21875 367.328125 296.039062 367.421875 308 C 368.148438 320.191406 367.96875 335.761719 367.421875 350.691406 L 348.210938 350.691406 C 347.628906 335.929688 347.019531 321.140625 346.46875 311.25 C 345.050781 285.25 340.949219 223.148438 340.949219 223.148438 L 356.429688 223.390625 L 376.601562 223.71875 C 373.078125 240.105469 370.539062 256.691406 369 273.378906 Z M 369 273.378906 "/>
<use xlink:href="#surface32" mask="url(#mask9)"/>
<path style=" stroke:none;fill-rule:nonzero;fill:rgb(14.901961%,19.607843%,21.960784%);fill-opacity:1;" d="M 399.070312 306 C 394.210938 267.570312 392.410156 232.519531 386.648438 223.929688 L 356.429688 223.441406 C 356.429688 223.441406 362.859375 248.648438 369.011719 273.441406 C 372.421875 287.128906 375.730469 300.691406 377.828125 309.808594 C 380.171875 319.988281 383.339844 335.5 386.328125 350.75 L 405.21875 350.75 C 403.351562 334.851562 402.570312 317.441406 399.070312 306 Z M 399.070312 306 "/>
<path style=" stroke:none;fill-rule:nonzero;fill:rgb(49.803922%,24.313725%,23.137255%);fill-opacity:1;" d="M 363.660156 402 C 363.660156 402 365.441406 377.339844 366.25 350.691406 L 349.410156 350.691406 C 350.28125 376.261719 352.679688 401.808594 352.679688 401.808594 Z M 363.660156 402 "/>
<path style=" stroke:none;fill-rule:nonzero;fill:rgb(49.803922%,24.313725%,23.137255%);fill-opacity:1;" d="M 395.929688 399.25 L 407.679688 399.441406 C 407.679688 399.441406 406.679688 375.820312 404.140625 350.691406 L 388 350.691406 C 392.148438 375.289062 395.929688 399.25 395.929688 399.25 Z M 395.929688 399.25 "/>
<path style=" stroke:none;fill-rule:nonzero;fill:rgb(25.098039%,48.235294%,100%);fill-opacity:1;" d="M 347.621094 354.769531 L 346.621094 346.339844 L 368.808594 345.898438 L 367.628906 354.148438 C 361.171875 356.355469 354.203125 356.570312 347.621094 354.769531 Z M 347.621094 354.769531 "/>
<path style=" stroke:none;fill-rule:nonzero;fill:rgb(25.098039%,48.235294%,100%);fill-opacity:1;" d="M 386.558594 354.769531 L 385 346.339844 L 406.410156 345.898438 L 405.769531 354.148438 C 405.769531 354.148438 397.761719 357.789062 386.558594 354.769531 Z M 386.558594 354.769531 "/>
<path style=" stroke:none;fill-rule:nonzero;fill:rgb(49.803922%,24.313725%,23.137255%);fill-opacity:1;" d="M 354.679688 157.078125 C 354.371094 159.941406 353.980469 162.75 353.558594 165.578125 C 353.140625 168.410156 352.691406 171.21875 352.179688 174.03125 C 351.671875 176.839844 351.179688 179.648438 350.609375 182.460938 C 350.039062 185.269531 349.460938 188.089844 348.828125 190.910156 L 348.671875 191.621094 C 348.636719 191.765625 348.59375 191.910156 348.539062 192.050781 C 347.441406 194.828125 346.210938 197.480469 344.960938 200.050781 C 343.710938 202.621094 342.359375 205.199219 340.960938 207.730469 C 339.558594 210.261719 338.160156 212.730469 336.671875 215.179688 C 335.179688 217.628906 333.671875 220.03125 331.988281 222.410156 C 330.882812 224.050781 328.738281 224.636719 326.949219 223.78125 C 325.164062 222.929688 324.269531 220.894531 324.851562 219 L 324.851562 218.941406 C 325.621094 216.261719 326.488281 213.570312 327.328125 210.941406 L 329.921875 202.941406 L 332.480469 195.058594 C 333.320312 192.449219 334.101562 189.851562 334.839844 187.308594 L 334.550781 188.460938 L 335.480469 180.070312 C 335.789062 177.269531 336.121094 174.460938 336.480469 171.660156 C 336.839844 168.859375 337.179688 166.050781 337.558594 163.238281 C 337.941406 160.429688 338.339844 157.628906 338.808594 154.859375 C 339.640625 150.710938 343.558594 147.929688 347.75 148.507812 C 351.941406 149.089844 354.957031 152.832031 354.628906 157.050781 Z M 354.679688 157.078125 "/>
<path style=" stroke:none;fill-rule:nonzero;fill:rgb(49.803922%,24.313725%,23.137255%);fill-opacity:1;" d="M 325.609375 217.75 L 321.261719 225.21875 L 331.328125 227.71875 C 331.328125 227.71875 334.441406 220.46875 330.859375 218.191406 Z M 325.609375 217.75 "/>
<path style=" stroke:none;fill-rule:nonzero;fill:rgb(49.803922%,24.313725%,23.137255%);fill-opacity:1;" d="M 323.480469 233.929688 L 327.160156 234.210938 C 328.625 234.320312 329.953125 233.355469 330.300781 231.929688 L 331.300781 227.71875 L 321.230469 225.21875 L 320.699219 230.648438 C 320.621094 231.457031 320.875 232.257812 321.398438 232.875 C 321.921875 233.496094 322.671875 233.875 323.480469 233.929688 Z M 323.480469 233.929688 "/>
<path style=" stroke:none;fill-rule:nonzero;fill:rgb(25.098039%,48.235294%,100%);fill-opacity:1;" d="M 381.519531 146.28125 C 370.59375 144.695312 359.527344 144.328125 348.519531 145.179688 C 343.339844 145.617188 339.277344 149.808594 339 155 C 338.449219 166.53125 338.070312 189.53125 340.878906 223.121094 C 345.539062 228.421875 366.410156 230.488281 386.609375 223.859375 C 388.546875 204.457031 391.480469 185.164062 395.390625 166.058594 C 396.371094 161.574219 395.433594 156.882812 392.796875 153.125 C 390.160156 149.367188 386.070312 146.882812 381.519531 146.28125 Z M 381.519531 146.28125 "/>
<path style=" stroke:none;fill-rule:nonzero;fill:rgb(100%,100%,100%);fill-opacity:1;" d="M 352.859375 144.878906 C 352.683594 145.074219 352.519531 145.28125 352.371094 145.5 C 350.910156 147.710938 350.609375 150.03125 351.550781 151.859375 C 352.699219 154.078125 355.441406 155.28125 359.679688 155.410156 L 360.75 155.410156 C 366.292969 155.449219 371.722656 153.835938 376.339844 150.769531 C 377.992188 149.714844 378.972656 147.871094 378.929688 145.910156 C 370.285156 144.816406 361.5625 144.472656 352.859375 144.878906 Z M 352.859375 144.878906 "/>
<path style=" stroke:none;fill-rule:nonzero;fill:rgb(49.803922%,24.313725%,23.137255%);fill-opacity:1;" d="M 376.871094 124.929688 L 362.261719 134.199219 C 363.429688 138.890625 363.480469 143.800781 356.308594 145.261719 C 355.429688 145.425781 354.648438 145.9375 354.148438 146.679688 C 352.390625 149.328125 352.148438 153.039062 359.75 153.289062 C 365.222656 153.53125 370.628906 152.03125 375.191406 149 C 376.679688 148.066406 377.230469 146.164062 376.46875 144.578125 C 373.75 139.28125 375.390625 130.199219 376.871094 124.929688 Z M 376.871094 124.929688 "/>
<use xlink:href="#surface35" mask="url(#mask10)"/>
<path style=" stroke:none;fill-rule:nonzero;fill:rgb(14.901961%,19.607843%,21.960784%);fill-opacity:1;" d="M 359.878906 103 C 356.519531 105.75 354.878906 108.128906 355.511719 113.769531 C 356.140625 119.410156 360.941406 117.769531 360.941406 117.769531 Z M 359.878906 103 "/>
<path style=" stroke:none;fill-rule:nonzero;fill:rgb(49.803922%,24.313725%,23.137255%);fill-opacity:1;" d="M 379.800781 116.871094 C 377.800781 125.121094 377.109375 130.050781 372.160156 133.558594 C 364.710938 138.828125 355.078125 133.128906 354.539062 124.449219 C 354.050781 116.628906 357.339844 104.449219 366.070312 102.628906 C 370.003906 101.808594 374.082031 103.0625 376.871094 105.957031 C 379.660156 108.847656 380.765625 112.96875 379.800781 116.871094 Z M 379.800781 116.871094 "/>
<path style=" stroke:none;fill-rule:nonzero;fill:rgb(14.901961%,19.607843%,21.960784%);fill-opacity:1;" d="M 384 122.171875 C 384.449219 123.679688 381.851562 128.46875 378.46875 127.390625 C 374.78125 122.390625 372.25 117 375.648438 112.730469 C 370.800781 111.628906 353.808594 109.578125 357.769531 104.480469 C 358.671875 101.789062 365.769531 98.289062 372.980469 99.480469 C 380.191406 100.671875 388.269531 110.898438 384 122.171875 Z M 384 122.171875 "/>
<path style=" stroke:none;fill-rule:nonzero;fill:rgb(25.098039%,48.235294%,100%);fill-opacity:1;" d="M 384 122.171875 C 383.191406 115.488281 376 107.378906 366.820312 105.828125 C 361.089844 104.828125 357.820312 104.480469 357.820312 104.480469 C 357.820312 104.480469 356.398438 101.941406 359.710938 100.480469 C 359.851562 97.609375 385.808594 89.988281 389.589844 107.570312 C 390.949219 114 387.089844 109.5 387.089844 109.5 C 387.089844 109.5 390.089844 121.058594 384 122.171875 Z M 384 122.171875 "/>
<path style=" stroke:none;fill-rule:nonzero;fill:rgb(49.803922%,24.313725%,23.137255%);fill-opacity:1;" d="M 382.328125 125.761719 C 381.015625 127.433594 379.085938 128.511719 376.96875 128.761719 C 374.160156 129.058594 373.199219 126.429688 374.351562 124.019531 C 375.351562 121.851562 378.089844 119.078125 380.730469 119.898438 C 383.371094 120.71875 383.921875 123.699219 382.328125 125.761719 Z M 382.328125 125.761719 "/>
<path style=" stroke:none;fill-rule:nonzero;fill:rgb(14.901961%,19.607843%,21.960784%);fill-opacity:1;" d="M 367 116 C 366.878906 116.679688 366.429688 117.160156 366 117.078125 C 365.570312 117 365.300781 116.378906 365.410156 115.710938 C 365.519531 115.039062 365.988281 114.539062 366.410156 114.621094 C 366.828125 114.699219 367.128906 115.359375 367 116 Z M 367 116 "/>
<path style=" stroke:none;fill-rule:nonzero;fill:rgb(14.901961%,19.607843%,21.960784%);fill-opacity:1;" d="M 358.851562 115.109375 C 358.730469 115.789062 358.28125 116.269531 357.851562 116.191406 C 357.421875 116.109375 357.140625 115.488281 357.261719 114.820312 C 357.378906 114.148438 357.839844 113.648438 358.261719 113.730469 C 358.679688 113.808594 359 114.429688 358.851562 115.109375 Z M 358.851562 115.109375 "/>
<path style=" stroke:none;fill-rule:nonzero;fill:rgb(38.823529%,5.882353%,5.882353%);fill-opacity:1;" d="M 361.460938 116.269531 C 360.292969 118.195312 358.859375 119.949219 357.210938 121.480469 C 358.03125 122.320312 359.179688 122.761719 360.351562 122.679688 Z M 361.460938 116.269531 "/>
<path style=" stroke:none;fill-rule:nonzero;fill:rgb(14.901961%,19.607843%,21.960784%);fill-opacity:1;" d="M 362.890625 125 C 364.449219 125.105469 365.976562 124.554688 367.109375 123.480469 C 367.1875 123.398438 367.1875 123.269531 367.109375 123.191406 C 367.03125 123.113281 366.90625 123.113281 366.828125 123.191406 C 365.546875 124.363281 363.78125 124.847656 362.078125 124.488281 C 361.96875 124.472656 361.859375 124.546875 361.839844 124.660156 C 361.832031 124.714844 361.84375 124.765625 361.875 124.8125 C 361.910156 124.855469 361.957031 124.882812 362.011719 124.890625 C 362.300781 124.949219 362.59375 124.984375 362.890625 125 Z M 362.890625 125 "/>
<path style=" stroke:none;fill-rule:nonzero;fill:rgb(14.901961%,19.607843%,21.960784%);fill-opacity:1;" d="M 369.628906 115.179688 C 369.699219 115.195312 369.769531 115.195312 369.839844 115.179688 C 370.050781 115.109375 370.164062 114.882812 370.101562 114.671875 C 369.746094 113.40625 368.792969 112.398438 367.550781 111.96875 C 367.402344 111.902344 367.230469 111.929688 367.109375 112.035156 C 366.988281 112.140625 366.941406 112.308594 366.988281 112.464844 C 367.035156 112.617188 367.167969 112.730469 367.328125 112.75 C 368.304688 113.109375 369.046875 113.910156 369.328125 114.910156 C 369.378906 115.046875 369.492188 115.148438 369.628906 115.179688 Z M 369.628906 115.179688 "/>
<path style=" stroke:none;fill-rule:nonzero;fill:rgb(14.901961%,19.607843%,21.960784%);fill-opacity:1;" d="M 356 111.550781 C 356.132812 111.574219 356.269531 111.527344 356.359375 111.429688 C 357.03125 110.644531 358.042969 110.238281 359.070312 110.339844 C 359.289062 110.371094 359.492188 110.21875 359.53125 110 C 359.558594 109.78125 359.414062 109.582031 359.199219 109.539062 C 357.902344 109.398438 356.621094 109.898438 355.761719 110.878906 C 355.605469 111.039062 355.605469 111.292969 355.761719 111.449219 C 355.824219 111.511719 355.910156 111.546875 356 111.550781 Z M 356 111.550781 "/>
<path style=" stroke:none;fill-rule:nonzero;fill:rgb(49.803922%,24.313725%,23.137255%);fill-opacity:1;" d="M 396.21875 155.210938 L 396.789062 156.210938 L 397.289062 157.128906 C 397.621094 157.730469 397.921875 158.339844 398.21875 158.941406 C 398.820312 160.148438 399.359375 161.371094 399.890625 162.609375 C 400.941406 165.097656 401.855469 167.640625 402.628906 170.230469 C 404.324219 175.65625 405.15625 181.316406 405.089844 187 C 405.089844 187.769531 405.03125 188.46875 404.96875 189.148438 C 404.96875 189.449219 404.910156 189.96875 404.851562 190.488281 L 404.730469 191.378906 L 404.53125 192.308594 C 404.175781 193.777344 403.546875 195.160156 402.671875 196.390625 C 401.707031 197.722656 400.449219 198.820312 399 199.601562 C 397.808594 200.242188 396.515625 200.675781 395.179688 200.878906 C 394.128906 201.042969 393.0625 201.082031 392 201 C 390.332031 200.882812 388.683594 200.582031 387.078125 200.101562 C 384.390625 199.257812 381.796875 198.128906 379.351562 196.730469 C 377.015625 195.425781 374.792969 193.941406 372.699219 192.28125 C 371.199219 191.101562 370.742188 189.03125 371.601562 187.328125 C 372.460938 185.628906 374.402344 184.769531 376.238281 185.28125 L 376.488281 185.351562 C 380.898438 186.539062 385.648438 187.871094 389.488281 188.109375 C 390.328125 188.1875 391.171875 188.152344 392 188 C 392.578125 187.898438 392.761719 187.609375 392.140625 187.808594 C 391.75 187.972656 391.40625 188.226562 391.140625 188.550781 C 390.960938 188.761719 390.808594 188.992188 390.679688 189.238281 C 390.664062 189.070312 390.664062 188.898438 390.679688 188.730469 C 390.679688 188.191406 390.679688 187.660156 390.589844 187.199219 C 390.121094 183.054688 389.140625 178.984375 387.671875 175.078125 C 386.949219 173.019531 386.109375 170.960938 385.230469 168.921875 C 384.789062 167.921875 384.320312 166.921875 383.851562 165.921875 L 383.140625 164.429688 L 382.488281 163.089844 L 382.28125 162.671875 C 380.617188 158.835938 382.1875 154.371094 385.878906 152.417969 C 389.570312 150.464844 394.144531 151.679688 396.378906 155.210938 Z M 396.21875 155.210938 "/>
<path style=" stroke:none;fill-rule:nonzero;fill:rgb(14.901961%,19.607843%,21.960784%);fill-opacity:1;" d="M 391.578125 151.871094 C 392.023438 151.691406 392.335938 151.292969 392.40625 150.824219 C 392.476562 150.351562 392.292969 149.878906 391.921875 149.578125 C 388.570312 146.96875 383.351562 145.449219 380.828125 145.53125 C 375.328125 145.710938 368.410156 157.640625 365.28125 186.378906 C 362.441406 212.441406 383.78125 212.058594 387.78125 211.761719 C 388.152344 211.730469 388.453125 211.441406 388.5 211.070312 L 388.589844 210.230469 C 388.617188 210.011719 388.554688 209.792969 388.410156 209.628906 C 388.265625 209.460938 388.058594 209.363281 387.839844 209.359375 C 384.628906 209.289062 370.050781 207.839844 368.96875 198.078125 C 372 185.601562 375 159.058594 391.578125 151.871094 Z M 391.578125 151.871094 "/>
<path style=" stroke:none;fill-rule:nonzero;fill:rgb(49.803922%,24.313725%,23.137255%);fill-opacity:1;" d="M 378.839844 187 L 372.128906 181.53125 L 368.128906 191.078125 C 368.128906 191.078125 374.800781 195.300781 377.609375 192.078125 Z M 378.839844 187 "/>
<path style=" stroke:none;fill-rule:nonzero;fill:rgb(49.803922%,24.313725%,23.137255%);fill-opacity:1;" d="M 363.191406 182.398438 L 362.328125 185.988281 C 361.992188 187.417969 362.734375 188.882812 364.089844 189.449219 L 368.089844 191.121094 L 372.089844 181.570312 L 366.820312 180.191406 C 366.046875 180 365.226562 180.125 364.546875 180.542969 C 363.863281 180.957031 363.378906 181.625 363.191406 182.398438 Z M 363.191406 182.398438 "/>
<path style=" stroke:none;fill-rule:nonzero;fill:rgb(25.098039%,48.235294%,100%);fill-opacity:1;" d="M 366.199219 412.378906 L 364.890625 412.039062 L 331.230469 411.300781 C 330.160156 412.449219 331.429688 416.238281 336.289062 416.238281 C 341.148438 416.238281 348.609375 416.058594 353.609375 416.058594 C 358.609375 416.058594 360.199219 416.238281 364.890625 416.238281 C 366.25 416.238281 367.078125 414.261719 366.199219 412.378906 Z M 366.199219 412.378906 "/>
<path style=" stroke:none;fill-rule:nonzero;fill:rgb(14.901961%,19.607843%,21.960784%);fill-opacity:1;" d="M 365.28125 400.398438 L 366.429688 412.238281 C 366.460938 412.699219 366.300781 413.152344 365.984375 413.488281 C 365.671875 413.824219 365.230469 414.019531 364.769531 414.019531 C 359.601562 414.019531 356.320312 413.851562 351.308594 413.769531 C 345.460938 413.679688 341.789062 414.210938 334.921875 414.101562 C 330.769531 414.039062 330.148438 409.980469 331.921875 409.46875 C 340.269531 406.96875 344.921875 405.269531 349.171875 400.269531 C 349.171875 400.269531 345 396.441406 347.378906 394.339844 C 349.761719 392.238281 358.03125 391.820312 358.519531 394.339844 C 358.804688 395.925781 358.734375 397.554688 358.308594 399.109375 C 358.308594 399.109375 363 397.550781 365.28125 400.398438 Z M 365.28125 400.398438 "/>
<path style=" stroke:none;fill-rule:nonzero;fill:rgb(25.098039%,48.235294%,100%);fill-opacity:1;" d="M 347.121094 402 C 347.960938 400.859375 348.25 400.28125 349.699219 400.179688 C 351.148438 400.078125 356.441406 400.640625 357.039062 402.121094 C 357.222656 402.738281 357.09375 403.40625 356.695312 403.914062 C 356.300781 404.421875 355.683594 404.707031 355.039062 404.679688 C 354.128906 404.398438 346.230469 403.238281 347.121094 402 Z M 347.121094 402 "/>
<path style=" stroke:none;fill-rule:nonzero;fill:rgb(25.098039%,48.235294%,100%);fill-opacity:1;" d="M 342.878906 404.871094 C 343.398438 403.878906 344.453125 403.28125 345.570312 403.351562 C 346.808594 403.429688 351.28125 404.550781 351.699219 405.980469 C 352.121094 407.410156 350.589844 408.578125 349.839844 408.101562 C 349.089844 407.621094 342.308594 406 342.878906 404.871094 Z M 342.878906 404.871094 "/>
<path style=" stroke:none;fill-rule:nonzero;fill:rgb(25.098039%,48.235294%,100%);fill-opacity:1;" d="M 410.578125 412.378906 L 409.269531 412.039062 L 379.101562 411.300781 C 378.03125 412.449219 379.300781 416.238281 384.101562 416.238281 C 388.898438 416.238281 392.941406 416.058594 397.941406 416.058594 C 402.941406 416.058594 404.53125 416.238281 409.21875 416.238281 C 410.621094 416.238281 411.449219 414.261719 410.578125 412.378906 Z M 410.578125 412.378906 "/>
<path style=" stroke:none;fill-rule:nonzero;fill:rgb(14.901961%,19.607843%,21.960784%);fill-opacity:1;" d="M 407.371094 398.800781 C 408.71875 399.203125 409.683594 400.394531 409.789062 401.800781 L 410.789062 412.21875 C 410.820312 412.679688 410.660156 413.132812 410.34375 413.46875 C 410.03125 413.804688 409.589844 414 409.128906 414 C 403.960938 414 407.011719 413.828125 402 413.75 C 396.148438 413.660156 389.640625 414.191406 382.769531 414.078125 C 378.621094 414.019531 378.019531 410.03125 379.769531 409.449219 C 390.671875 405.738281 393.21875 400.890625 395.699219 400.25 C 395.699219 400.25 392.46875 395.820312 394.851562 393.710938 C 397.230469 391.601562 403.960938 392 405.058594 394.320312 C 406.460938 397.320312 404.851562 399.089844 404.851562 399.089844 C 405.621094 398.675781 406.523438 398.574219 407.371094 398.800781 Z M 407.371094 398.800781 "/>
<path style=" stroke:none;fill-rule:nonzero;fill:rgb(25.098039%,48.235294%,100%);fill-opacity:1;" d="M 392.441406 401.25 C 393.25 400.140625 393.511719 399.578125 395.101562 399.398438 C 396.691406 399.21875 402.578125 399.398438 403.398438 400.699219 C 404.21875 402 402.460938 403.441406 401.46875 403.191406 C 400.480469 402.941406 391.589844 402.421875 392.441406 401.25 Z M 392.441406 401.25 "/>
<path style=" stroke:none;fill-rule:nonzero;fill:rgb(25.098039%,48.235294%,100%);fill-opacity:1;" d="M 389 404.410156 C 389.539062 403.460938 390.511719 402.839844 391.601562 402.75 C 393.078125 402.75 399.070312 403.199219 399.808594 404.550781 C 400.0625 405.121094 399.992188 405.785156 399.617188 406.285156 C 399.246094 406.789062 398.628906 407.050781 398.011719 406.96875 C 397.109375 406.671875 388.238281 405.539062 389 404.410156 Z M 389 404.410156 "/>
<path style=" stroke:none;fill-rule:nonzero;fill:rgb(14.901961%,19.607843%,21.960784%);fill-opacity:1;" d="M 331.941406 225 C 330.96875 224.941406 330.027344 224.652344 329.191406 224.160156 C 325.988281 222.5 324.089844 220.558594 324.101562 218.96875 C 324.097656 218.296875 324.488281 217.683594 325.101562 217.398438 C 325.234375 217.339844 325.390625 217.390625 325.460938 217.519531 C 325.523438 217.652344 325.472656 217.8125 325.339844 217.878906 C 324.894531 218.058594 324.597656 218.488281 324.601562 218.96875 C 324.601562 220.039062 325.851562 221.839844 329.398438 223.679688 C 331.210938 224.621094 332.46875 224.730469 333.058594 223.988281 C 333.507812 223.234375 333.507812 222.296875 333.058594 221.539062 C 333.011719 221.492188 332.984375 221.425781 332.984375 221.355469 C 332.984375 221.285156 333.011719 221.21875 333.058594 221.171875 C 333.164062 221.066406 333.335938 221.066406 333.441406 221.171875 C 334.050781 222.125 334.050781 223.347656 333.441406 224.300781 C 333.078125 224.753906 332.523438 225.015625 331.941406 225 Z M 331.941406 225 "/>
</g>
</svg>
