<?xml version="1.0" encoding="UTF-8"?>
<svg xmlns="http://www.w3.org/2000/svg" xmlns:xlink="http://www.w3.org/1999/xlink" width="500px" height="500px" viewBox="0 0 500 500" version="1.1">
<defs>
<filter id="alpha" filterUnits="objectBoundingBox" x="0%" y="0%" width="100%" height="100%">
  <feColorMatrix type="matrix" in="SourceGraphic" values="0 0 0 0 1 0 0 0 0 1 0 0 0 0 1 0 0 0 1 0"/>
</filter>
<mask id="mask0">
  <g filter="url(#alpha)">
<rect x="0" y="0" width="500" height="500" style="fill:rgb(0%,0%,0%);fill-opacity:0.8;stroke:none;"/>
  </g>
</mask>
<clipPath id="clip1">
  <rect x="0" y="0" width="500" height="500"/>
</clipPath>
<g id="surface5" clip-path="url(#clip1)">
<path style=" stroke:none;fill-rule:nonzero;fill:rgb(100%,100%,100%);fill-opacity:1;" d="M 384 366.910156 C 384 366.910156 388.351562 360.539062 392.308594 358.761719 C 396.269531 356.980469 396.910156 350.210938 399.058594 349.839844 C 401.210938 349.46875 403.578125 355.710938 407.339844 357.53125 C 411.101562 359.351562 416.789062 366.871094 416.789062 366.871094 Z M 384 366.910156 "/>
</g>
<mask id="mask1">
  <g filter="url(#alpha)">
<rect x="0" y="0" width="500" height="500" style="fill:rgb(0%,0%,0%);fill-opacity:0.2;stroke:none;"/>
  </g>
</mask>
<clipPath id="clip2">
  <rect x="0" y="0" width="500" height="500"/>
</clipPath>
<g id="surface8" clip-path="url(#clip2)">
<path style=" stroke:none;fill-rule:nonzero;fill:rgb(100%,100%,100%);fill-opacity:1;" d="M 378.058594 364.488281 L 421.53125 364.488281 L 421.53125 369.320312 L 378.058594 369.320312 Z M 378.058594 364.488281 "/>
</g>
<mask id="mask2">
  <g filter="url(#alpha)">
<rect x="0" y="0" width="500" height="500" style="fill:rgb(0%,0%,0%);fill-opacity:0.4;stroke:none;"/>
  </g>
</mask>
<clipPath id="clip3">
  <rect x="0" y="0" width="500" height="500"/>
</clipPath>
<g id="surface11" clip-path="url(#clip3)">
<path style=" stroke:none;fill-rule:nonzero;fill:rgb(100%,100%,100%);fill-opacity:1;" d="M 364.800781 389.460938 C 357 391.890625 351 377.351562 351 377.351562 L 358.140625 375.351562 C 358.140625 375.351562 359.371094 377.449219 360.75 376.929688 C 362.128906 376.410156 361.570312 374 361.570312 374 L 368.570312 371.191406 C 368.570312 371.191406 372.789062 387 364.800781 389.460938 Z M 364.800781 389.460938 "/>
</g>
<mask id="mask3">
  <g filter="url(#alpha)">
<rect x="0" y="0" width="500" height="500" style="fill:rgb(0%,0%,0%);fill-opacity:0.8;stroke:none;"/>
  </g>
</mask>
<clipPath id="clip4">
  <rect x="0" y="0" width="500" height="500"/>
</clipPath>
<g id="surface14" clip-path="url(#clip4)">
<path style=" stroke:none;fill-rule:nonzero;fill:rgb(100%,100%,100%);fill-opacity:1;" d="M 424.671875 416.648438 C 420.738281 414.699219 416.71875 412.859375 415.429688 412.769531 C 412.671875 412.589844 411.078125 411.359375 409.109375 409.011719 C 407.140625 406.660156 406.339844 403.941406 402.78125 400.160156 C 399.21875 396.378906 403.171875 394.859375 395.648438 393.890625 C 388.128906 392.921875 391.039062 393.53125 386.421875 390.199219 C 381.800781 386.871094 382.738281 386.878906 377.328125 384.5 C 371.921875 382.121094 375.078125 381.21875 368.75 380.691406 C 364.378906 380.320312 357.46875 382.621094 353.878906 385.179688 C 352.289062 386.308594 351.480469 388.179688 349.878906 389.179688 C 348.109375 390.308594 345.359375 388.179688 345.648438 391.988281 C 345.84375 392.960938 345.886719 393.957031 345.78125 394.941406 C 345.269531 397.078125 336.460938 397.070312 334.21875 397.738281 C 333.6875 397.835938 333.207031 398.128906 332.878906 398.558594 C 332.371094 399.46875 333.140625 401.078125 332.148438 401.410156 C 331.839844 401.519531 331.488281 401.410156 331.148438 401.460938 C 329.960938 401.691406 330.269531 403.828125 329.148438 404.320312 C 328.03125 404.808594 326.738281 403.808594 325.5 404.320312 C 324.550781 404.679688 324.230469 405.960938 323.398438 406.46875 C 321.949219 407.351562 320.449219 408 319.019531 408.941406 C 316.539062 410.558594 314.390625 412.550781 311.730469 413.941406 L 304.609375 415.878906 L 302.480469 416.628906 Z M 424.671875 416.648438 "/>
</g>
<mask id="mask4">
  <g filter="url(#alpha)">
<rect x="0" y="0" width="500" height="500" style="fill:rgb(0%,0%,0%);fill-opacity:0.6;stroke:none;"/>
  </g>
</mask>
<clipPath id="clip5">
  <rect x="0" y="0" width="500" height="500"/>
</clipPath>
<g id="surface17" clip-path="url(#clip5)">
<path style=" stroke:none;fill-rule:nonzero;fill:rgb(100%,100%,100%);fill-opacity:1;" d="M 340.75 398.449219 C 340.757812 405.351562 336.851562 411.660156 330.671875 414.730469 C 330.253906 414.394531 329.914062 413.976562 329.671875 413.5 C 333.03125 403.699219 329.671875 398.449219 329.671875 398.449219 L 329.671875 398.351562 L 329.910156 396.78125 L 329.910156 396.488281 C 330.429688 393.578125 331.738281 388.128906 334.578125 384.828125 C 338.496094 388.273438 340.742188 393.234375 340.75 398.449219 Z M 340.75 398.449219 "/>
</g>
<mask id="mask5">
  <g filter="url(#alpha)">
<rect x="0" y="0" width="500" height="500" style="fill:rgb(0%,0%,0%);fill-opacity:0.6;stroke:none;"/>
  </g>
</mask>
<clipPath id="clip6">
  <rect x="0" y="0" width="500" height="500"/>
</clipPath>
<g id="surface20" clip-path="url(#clip6)">
<path style=" stroke:none;fill-rule:nonzero;fill:rgb(100%,100%,100%);fill-opacity:1;" d="M 308.589844 395.300781 C 308.589844 395.300781 305.398438 398.488281 306.339844 406.738281 C 302.421875 399.089844 304.390625 389.742188 311.058594 384.320312 C 309.296875 387.703125 308.445312 391.488281 308.589844 395.300781 Z M 308.589844 395.300781 "/>
</g>
<mask id="mask6">
  <g filter="url(#alpha)">
<rect x="0" y="0" width="500" height="500" style="fill:rgb(0%,0%,0%);fill-opacity:0.2;stroke:none;"/>
  </g>
</mask>
<clipPath id="clip7">
  <rect x="0" y="0" width="500" height="500"/>
</clipPath>
<g id="surface23" clip-path="url(#clip7)">
<path style=" stroke:none;fill-rule:nonzero;fill:rgb(100%,100%,100%);fill-opacity:1;" d="M 334.628906 384.828125 C 330.628906 389.46875 329.628906 398.449219 329.628906 398.449219 C 318.628906 401.140625 308.558594 395.300781 308.558594 395.300781 C 308.414062 391.480469 309.265625 387.691406 311.03125 384.300781 C 317.949219 378.671875 327.929688 378.886719 334.601562 384.808594 Z M 334.628906 384.828125 "/>
</g>
<mask id="mask7">
  <g filter="url(#alpha)">
<rect x="0" y="0" width="500" height="500" style="fill:rgb(0%,0%,0%);fill-opacity:0.2;stroke:none;"/>
  </g>
</mask>
<clipPath id="clip8">
  <rect x="0" y="0" width="500" height="500"/>
</clipPath>
<g id="surface26" clip-path="url(#clip8)">
<path style=" stroke:none;fill-rule:nonzero;fill:rgb(100%,100%,100%);fill-opacity:1;" d="M 330.660156 414.730469 C 323.523438 418.300781 314.886719 416.789062 309.390625 411 C 312.800781 413 319.769531 415.871094 329.660156 413.488281 C 329.902344 413.96875 330.242188 414.390625 330.660156 414.730469 Z M 330.660156 414.730469 "/>
</g>
<mask id="mask8">
  <g filter="url(#alpha)">
<rect x="0" y="0" width="500" height="500" style="fill:rgb(0%,0%,0%);fill-opacity:0.2;stroke:none;"/>
  </g>
</mask>
<clipPath id="clip9">
  <rect x="0" y="0" width="500" height="500"/>
</clipPath>
<g id="surface29" clip-path="url(#clip9)">
<path style=" stroke:none;fill-rule:nonzero;fill:rgb(0%,0%,0%);fill-opacity:1;" d="M 330.359375 382 C 329.882812 382.667969 329.445312 383.363281 329.050781 384.078125 C 328.308594 385.457031 327.671875 386.890625 327.140625 388.359375 C 326.578125 389.828125 326.140625 391.359375 325.738281 392.851562 C 325.339844 394.339844 325 395.910156 324.738281 397.460938 C 324.84375 395.882812 325.066406 394.316406 325.398438 392.769531 C 325.738281 391.21875 326.171875 389.6875 326.699219 388.191406 C 327.246094 386.703125 327.914062 385.265625 328.699219 383.890625 C 329.136719 383.199219 329.609375 382.53125 330.121094 381.890625 Z M 330.359375 382 "/>
<path style=" stroke:none;fill-rule:nonzero;fill:rgb(0%,0%,0%);fill-opacity:1;" d="M 324.28125 380.320312 C 324.03125 380.769531 323.800781 381.230469 323.578125 381.691406 C 322.84375 383.242188 322.242188 384.851562 321.769531 386.5 C 321.238281 388.140625 320.839844 389.820312 320.460938 391.5 C 320.078125 393.179688 319.761719 394.878906 319.460938 396.578125 C 319.5625 394.847656 319.769531 393.125 320.078125 391.421875 C 320.378906 389.710938 320.78125 388.019531 321.28125 386.359375 C 321.777344 384.6875 322.429688 383.0625 323.230469 381.511719 C 323.449219 381.101562 323.679688 380.691406 323.921875 380.300781 Z M 324.28125 380.320312 "/>
<path style=" stroke:none;fill-rule:nonzero;fill:rgb(0%,0%,0%);fill-opacity:1;" d="M 318.128906 380.78125 L 317.820312 381.589844 C 317.269531 383.074219 316.816406 384.59375 316.46875 386.140625 C 316.078125 387.679688 315.78125 389.238281 315.46875 390.808594 C 315.160156 392.378906 314.941406 393.949219 314.710938 395.53125 C 314.746094 393.929688 314.875 392.335938 315.101562 390.75 C 315.320312 389.152344 315.617188 387.566406 316 386 C 316.367188 384.433594 316.855469 382.898438 317.46875 381.410156 C 317.550781 381.230469 317.628906 381.039062 317.71875 380.859375 Z M 318.128906 380.78125 "/>
<path style=" stroke:none;fill-rule:nonzero;fill:rgb(0%,0%,0%);fill-opacity:1;" d="M 313.109375 382.878906 C 312.769531 384 312.449219 385.121094 312.21875 386.261719 C 311.988281 387.398438 311.71875 388.820312 311.519531 390.109375 C 311.320312 391.398438 311.179688 392.699219 311.058594 394.011719 C 310.992188 392.695312 311.019531 391.378906 311.140625 390.070312 C 311.265625 388.757812 311.464844 387.453125 311.730469 386.160156 C 311.953125 385.171875 312.226562 384.199219 312.550781 383.238281 C 312.730469 383.109375 312.917969 382.992188 313.109375 382.878906 Z M 313.109375 382.878906 "/>
<path style=" stroke:none;fill-rule:nonzero;fill:rgb(0%,0%,0%);fill-opacity:1;" d="M 334.78125 404.519531 C 334.832031 406.402344 334.585938 408.285156 334.050781 410.089844 C 333.78125 410.992188 333.449219 411.871094 333.050781 412.71875 C 332.921875 413.011719 332.769531 413.300781 332.621094 413.578125 C 332.542969 413.640625 332.457031 413.695312 332.371094 413.738281 C 332.917969 412.535156 333.347656 411.277344 333.660156 409.988281 C 334.128906 408.210938 334.332031 406.371094 334.261719 404.53125 C 334.230469 402.691406 333.949219 400.863281 333.421875 399.101562 C 332.902344 397.316406 332.164062 395.609375 331.21875 394.011719 C 332.335938 395.527344 333.203125 397.214844 333.78125 399.011719 C 334.390625 400.785156 334.726562 402.644531 334.78125 404.519531 Z M 334.78125 404.519531 "/>
<path style=" stroke:none;fill-rule:nonzero;fill:rgb(0%,0%,0%);fill-opacity:1;" d="M 338.371094 404 L 338.320312 405.511719 L 338.109375 407.011719 C 338.066406 407.417969 337.996094 407.820312 337.898438 408.21875 C 337.75 408.449219 337.601562 408.679688 337.429688 408.910156 C 337.578125 408.269531 337.679688 407.617188 337.730469 406.960938 L 337.878906 405.480469 L 337.878906 404 C 337.914062 403.503906 337.914062 403.007812 337.878906 402.511719 C 337.828125 402.019531 337.828125 401.511719 337.738281 401.039062 C 337.511719 399.070312 337.015625 397.144531 336.269531 395.308594 C 335.546875 393.457031 334.558594 391.714844 333.328125 390.148438 C 334.714844 391.609375 335.828125 393.300781 336.621094 395.148438 C 337.4375 397 337.984375 398.960938 338.238281 400.96875 C 338.320312 401.46875 338.308594 401.96875 338.351562 402.480469 C 338.390625 402.984375 338.398438 403.492188 338.371094 404 Z M 338.371094 404 "/>
<path style=" stroke:none;fill-rule:nonzero;fill:rgb(0%,0%,0%);fill-opacity:1;" d="M 340.75 398.449219 C 340.753906 398.523438 340.753906 398.597656 340.75 398.671875 L 340.691406 398.328125 C 340.265625 396.257812 339.59375 394.242188 338.691406 392.328125 C 337.804688 390.394531 336.640625 388.597656 335.230469 387 C 336.785156 388.488281 338.070312 390.234375 339.03125 392.160156 C 339.664062 393.410156 340.195312 394.710938 340.609375 396.050781 C 340.714844 396.84375 340.761719 397.648438 340.75 398.449219 Z M 340.75 398.449219 "/>
<path style=" stroke:none;fill-rule:nonzero;fill:rgb(0%,0%,0%);fill-opacity:1;" d="M 307.699219 392.421875 C 306.898438 393.332031 306.207031 394.339844 305.648438 395.421875 C 305.128906 396.382812 304.691406 397.386719 304.339844 398.421875 C 304.339844 397.910156 304.339844 397.421875 304.410156 396.898438 C 304.675781 396.320312 304.980469 395.761719 305.320312 395.21875 C 305.945312 394.15625 306.75 393.207031 307.699219 392.421875 Z M 307.699219 392.421875 "/>
<path style=" stroke:none;fill-rule:nonzero;fill:rgb(0%,0%,0%);fill-opacity:1;" d="M 308.558594 387.578125 C 307.800781 388.441406 307.058594 389.289062 306.339844 390.148438 C 306.605469 389.625 306.898438 389.113281 307.21875 388.621094 C 307.648438 388.25 308.09375 387.902344 308.558594 387.578125 Z M 308.558594 387.578125 "/>
<path style=" stroke:none;fill-rule:nonzero;fill:rgb(0%,0%,0%);fill-opacity:1;" d="M 308.558594 399.160156 C 310.21875 399.800781 311.898438 400.359375 313.558594 400.859375 C 315.257812 401.363281 316.980469 401.773438 318.71875 402.089844 C 322.183594 402.835938 325.773438 402.792969 329.21875 401.960938 C 327.542969 402.589844 325.769531 402.925781 323.980469 402.960938 C 322.1875 402.996094 320.394531 402.855469 318.628906 402.539062 C 316.875 402.207031 315.144531 401.753906 313.449219 401.179688 C 311.769531 400.632812 310.136719 399.957031 308.558594 399.160156 Z M 308.558594 399.160156 "/>
<path style=" stroke:none;fill-rule:nonzero;fill:rgb(0%,0%,0%);fill-opacity:1;" d="M 308.558594 403.511719 C 310.230469 404.171875 311.941406 404.734375 313.679688 405.191406 C 315.414062 405.648438 317.179688 405.980469 318.960938 406.191406 C 320.734375 406.433594 322.53125 406.515625 324.320312 406.441406 L 325.660156 406.378906 L 327 406.21875 C 327.898438 406.160156 328.761719 405.898438 329.660156 405.769531 C 327.9375 406.339844 326.148438 406.695312 324.339844 406.828125 C 322.527344 406.957031 320.703125 406.910156 318.898438 406.691406 C 317.097656 406.453125 315.320312 406.070312 313.578125 405.550781 C 311.84375 405.03125 310.164062 404.351562 308.558594 403.511719 Z M 308.558594 403.511719 "/>
<path style=" stroke:none;fill-rule:nonzero;fill:rgb(0%,0%,0%);fill-opacity:1;" d="M 309 407.269531 C 310.574219 408.003906 312.203125 408.613281 313.871094 409.089844 C 315.53125 409.566406 317.230469 409.902344 318.949219 410.089844 C 319.808594 410.230469 320.671875 410.25 321.53125 410.308594 C 322.390625 410.371094 323.261719 410.308594 324.128906 410.261719 C 325.863281 410.164062 327.582031 409.914062 329.269531 409.519531 C 327.617188 410.101562 325.902344 410.480469 324.160156 410.648438 C 322.40625 410.824219 320.640625 410.804688 318.890625 410.589844 C 317.144531 410.375 315.425781 409.984375 313.761719 409.429688 C 312.097656 408.894531 310.5 408.171875 309 407.269531 Z M 309 407.269531 "/>
<path style=" stroke:none;fill-rule:nonzero;fill:rgb(0%,0%,0%);fill-opacity:1;" d="M 309.75 410.101562 C 311.234375 410.785156 312.769531 411.359375 314.339844 411.808594 C 315.902344 412.277344 317.5 412.613281 319.121094 412.808594 C 320.734375 413.050781 322.371094 413.113281 324 413 L 325.21875 412.910156 L 326.421875 412.710938 C 327.238281 412.628906 328.011719 412.351562 328.820312 412.191406 C 327.285156 412.808594 325.675781 413.214844 324.03125 413.390625 C 322.371094 413.589844 320.691406 413.589844 319.03125 413.390625 C 317.386719 413.179688 315.769531 412.808594 314.199219 412.28125 C 312.636719 411.726562 311.144531 410.996094 309.75 410.101562 Z M 309.75 410.101562 "/>
</g>
<mask id="mask9">
  <g filter="url(#alpha)">
<rect x="0" y="0" width="500" height="500" style="fill:rgb(0%,0%,0%);fill-opacity:0.301961;stroke:none;"/>
  </g>
</mask>
<clipPath id="clip10">
  <rect x="0" y="0" width="500" height="500"/>
</clipPath>
<g id="surface32" clip-path="url(#clip10)">
<path style=" stroke:none;fill-rule:nonzero;fill:rgb(0%,0%,0%);fill-opacity:1;" d="M 60.078125 412.058594 C 62.269531 408.410156 86.800781 410.78125 92.339844 408.601562 L 95.339844 413.75 C 95.339844 413.75 91.109375 416.089844 84.089844 415.261719 C 77.070312 414.429688 66.460938 414.210938 63.691406 416.648438 Z M 60.078125 412.058594 "/>
</g>
<mask id="mask10">
  <g filter="url(#alpha)">
<rect x="0" y="0" width="500" height="500" style="fill:rgb(0%,0%,0%);fill-opacity:0.101961;stroke:none;"/>
  </g>
</mask>
<clipPath id="clip11">
  <rect x="0" y="0" width="500" height="500"/>
</clipPath>
<g id="surface35" clip-path="url(#clip11)">
<path style=" stroke:none;fill-rule:nonzero;fill:rgb(100%,100%,100%);fill-opacity:1;" d="M 163.398438 400.929688 C 163.199219 401.800781 162.980469 402.648438 162.730469 403.480469 C 160.730469 410.289062 157.648438 415.800781 155.410156 416.648438 L 91.820312 416.648438 C 90.046875 416.648438 88.375 415.832031 87.289062 414.429688 L 87.238281 414.359375 C 87.003906 414.050781 86.808594 413.714844 86.648438 413.359375 C 82.261719 404.191406 77.828125 385.851562 84.058594 377.488281 C 84.710938 376.617188 85.464844 375.828125 86.300781 375.128906 L 86.480469 374.988281 C 87.800781 373.914062 89.257812 373.023438 90.820312 372.339844 L 90.871094 372.339844 C 95.25 370.339844 100.628906 369.449219 105.871094 369.058594 C 107.398438 368.941406 108.871094 368.871094 110.410156 368.839844 C 114.308594 368.730469 117.949219 368.839844 120.851562 368.910156 C 131.070312 369.171875 139.109375 372.210938 144.589844 371.679688 C 146.601562 371.46875 148.636719 371.632812 150.589844 372.160156 C 151.152344 372.316406 151.707031 372.503906 152.25 372.71875 C 154.742188 373.773438 157.0625 375.199219 159.128906 376.949219 C 165.390625 381.921875 165.480469 392.109375 163.398438 400.929688 Z M 163.398438 400.929688 "/>
</g>
<mask id="mask11">
  <g filter="url(#alpha)">
<rect x="0" y="0" width="500" height="500" style="fill:rgb(0%,0%,0%);fill-opacity:0.2;stroke:none;"/>
  </g>
</mask>
<clipPath id="clip12">
  <rect x="0" y="0" width="500" height="500"/>
</clipPath>
<g id="surface38" clip-path="url(#clip12)">
<path style=" stroke:none;fill-rule:nonzero;fill:rgb(0%,0%,0%);fill-opacity:1;" d="M 153.660156 400.300781 C 149.109375 400.300781 140.011719 402.46875 126.558594 399.511719 C 120.289062 398.019531 113.761719 397.972656 107.46875 399.371094 C 107.320312 397.371094 107.160156 395.140625 106.980469 392.71875 C 105.789062 376.46875 96.519531 369.648438 90.871094 372.351562 L 90.820312 372.351562 C 89.285156 373.082031 87.832031 373.972656 86.480469 375 L 86.300781 375.140625 C 85.464844 375.835938 84.710938 376.628906 84.058594 377.5 C 77.828125 385.859375 82.261719 404.199219 86.648438 413.371094 C 86.808594 413.726562 87.003906 414.0625 87.238281 414.371094 L 87.289062 414.441406 C 88.382812 415.679688 89.957031 416.390625 91.609375 416.390625 L 103 416.390625 C 107.648438 416.390625 108.199219 412.128906 107.679688 402.980469 C 108.46875 402.53125 109.441406 401.980469 110.519531 401.238281 C 113.351562 399.398438 124.359375 400.308594 129.109375 402.089844 C 133.859375 403.871094 146.320312 404.660156 152.351562 403.679688 C 155.78125 403.171875 159.261719 403.105469 162.710938 403.488281 C 162.960938 402.660156 163.179688 401.808594 163.378906 400.941406 C 161.320312 400.710938 157 400.300781 153.660156 400.300781 Z M 153.660156 400.300781 "/>
</g>
<mask id="mask12">
  <g filter="url(#alpha)">
<rect x="0" y="0" width="500" height="500" style="fill:rgb(0%,0%,0%);fill-opacity:0.2;stroke:none;"/>
  </g>
</mask>
<clipPath id="clip13">
  <rect x="0" y="0" width="500" height="500"/>
</clipPath>
<g id="surface41" clip-path="url(#clip13)">
<path style=" stroke:none;fill-rule:nonzero;fill:rgb(0%,0%,0%);fill-opacity:1;" d="M 112.320312 377.351562 C 115.089844 387.441406 116.988281 391 117.71875 391.988281 C 118.449219 392.980469 138.589844 395.371094 142.371094 395.359375 C 146.734375 395.320312 151.082031 394.894531 155.371094 394.078125 C 157.941406 393.429688 158.769531 380.488281 152.289062 372.730469 C 151.746094 372.515625 151.191406 372.328125 150.628906 372.171875 C 154.160156 380.089844 154.238281 389.789062 153.820312 391.171875 C 153.21875 393.089844 147.289062 392.808594 144.519531 392.75 C 141.75 392.691406 124.519531 391.621094 122.761719 390.921875 C 121.0625 390.214844 119.613281 389.011719 118.609375 387.46875 C 117.21875 385.691406 117.03125 379.558594 114.519531 374.269531 C 113.453125 372.261719 112.066406 370.4375 110.410156 368.878906 C 108.921875 368.878906 107.410156 368.980469 105.871094 369.101562 C 109.066406 370.84375 111.402344 373.828125 112.320312 377.351562 Z M 112.320312 377.351562 "/>
</g>
<mask id="mask13">
  <g filter="url(#alpha)">
<rect x="0" y="0" width="500" height="500" style="fill:rgb(0%,0%,0%);fill-opacity:0.101961;stroke:none;"/>
  </g>
</mask>
<clipPath id="clip14">
  <rect x="0" y="0" width="500" height="500"/>
</clipPath>
<g id="surface44" clip-path="url(#clip14)">
<path style=" stroke:none;fill-rule:nonzero;fill:rgb(100%,100%,100%);fill-opacity:1;" d="M 92.339844 386.640625 L 86.800781 388 C 86.800781 388 82.871094 399.28125 85.21875 404 C 87.570312 408.71875 69.21875 415.289062 60.078125 412 L 63.660156 416.589844 C 63.660156 416.589844 85.421875 415.21875 89.570312 406.941406 C 93.71875 398.660156 87.789062 397.378906 87.398438 395.050781 C 87.011719 392.71875 92.339844 386.640625 92.339844 386.640625 Z M 92.339844 386.640625 "/>
</g>
<mask id="mask14">
  <g filter="url(#alpha)">
<rect x="0" y="0" width="500" height="500" style="fill:rgb(0%,0%,0%);fill-opacity:0.6;stroke:none;"/>
  </g>
</mask>
<clipPath id="clip15">
  <rect x="0" y="0" width="500" height="500"/>
</clipPath>
<g id="surface47" clip-path="url(#clip15)">
<path style=" stroke:none;fill-rule:nonzero;fill:rgb(100%,100%,100%);fill-opacity:1;" d="M 143.351562 180.71875 L 131.488281 172 L 129.941406 170.859375 L 123.25 166 L 118.25 162.308594 L 121.941406 155.640625 L 124 151.800781 L 128.25 144.109375 L 132.351562 146.390625 L 135.890625 148.390625 L 150.03125 156.25 C 150.496094 157.347656 150.78125 158.511719 150.878906 159.699219 C 151.351562 163.691406 150.671875 171.050781 143.351562 180.71875 Z M 143.351562 180.71875 "/>
</g>
<mask id="mask15">
  <g filter="url(#alpha)">
<rect x="0" y="0" width="500" height="500" style="fill:rgb(0%,0%,0%);fill-opacity:0.2;stroke:none;"/>
  </g>
</mask>
<clipPath id="clip16">
  <rect x="0" y="0" width="500" height="500"/>
</clipPath>
<g id="surface50" clip-path="url(#clip16)">
<path style=" stroke:none;fill-rule:nonzero;fill:rgb(0%,0%,0%);fill-opacity:1;" d="M 143.351562 180.71875 L 131.488281 172 C 135.558594 163.578125 146.089844 160.609375 150.898438 159.660156 C 151.351562 163.691406 150.671875 171.050781 143.351562 180.71875 Z M 143.351562 180.71875 "/>
</g>
<mask id="mask16">
  <g filter="url(#alpha)">
<rect x="0" y="0" width="500" height="500" style="fill:rgb(0%,0%,0%);fill-opacity:0.2;stroke:none;"/>
  </g>
</mask>
<clipPath id="clip17">
  <rect x="0" y="0" width="500" height="500"/>
</clipPath>
<g id="surface53" clip-path="url(#clip17)">
<path style=" stroke:none;fill-rule:nonzero;fill:rgb(100%,100%,100%);fill-opacity:1;" d="M 135.910156 148.351562 L 132.371094 150.410156 L 132.371094 146.390625 Z M 135.910156 148.351562 "/>
<path style=" stroke:none;fill-rule:nonzero;fill:rgb(100%,100%,100%);fill-opacity:1;" d="M 128.210938 153.039062 L 123.769531 159.269531 L 121.929688 155.589844 L 124.019531 151.800781 Z M 128.210938 153.039062 "/>
<path style=" stroke:none;fill-rule:nonzero;fill:rgb(100%,100%,100%);fill-opacity:1;" d="M 131.488281 162.410156 L 129.941406 170.859375 L 123.25 165.949219 Z M 131.488281 162.410156 "/>
<path style=" stroke:none;fill-rule:nonzero;fill:rgb(100%,100%,100%);fill-opacity:1;" d="M 134.558594 157.589844 L 137.03125 163.921875 L 142.160156 156.941406 Z M 134.558594 157.589844 "/>
</g>
<mask id="mask17">
  <g filter="url(#alpha)">
<rect x="0" y="0" width="500" height="500" style="fill:rgb(0%,0%,0%);fill-opacity:0.2;stroke:none;"/>
  </g>
</mask>
<clipPath id="clip18">
  <rect x="0" y="0" width="500" height="500"/>
</clipPath>
<g id="surface56" clip-path="url(#clip18)">
<path style=" stroke:none;fill-rule:nonzero;fill:rgb(0%,0%,0%);fill-opacity:1;" d="M 152.269531 293.699219 L 170 296.101562 C 169.539062 302.378906 169 309.628906 168.351562 316.640625 L 151.910156 319 C 152.058594 312.199219 152.191406 301.488281 152.269531 293.699219 Z M 152.269531 293.699219 "/>
</g>
<mask id="mask18">
  <g filter="url(#alpha)">
<rect x="0" y="0" width="500" height="500" style="fill:rgb(0%,0%,0%);fill-opacity:0.2;stroke:none;"/>
  </g>
</mask>
<clipPath id="clip19">
  <rect x="0" y="0" width="500" height="500"/>
</clipPath>
<g id="surface59" clip-path="url(#clip19)">
<path style=" stroke:none;fill-rule:nonzero;fill:rgb(0%,0%,0%);fill-opacity:1;" d="M 201.121094 317 L 185.660156 321.761719 C 184.328125 314.480469 183.078125 304.910156 182.21875 297.761719 L 200.289062 300.21875 C 200.679688 305.628906 201 311.5 201.121094 317 Z M 201.121094 317 "/>
</g>
<mask id="mask19">
  <g filter="url(#alpha)">
<rect x="0" y="0" width="500" height="500" style="fill:rgb(0%,0%,0%);fill-opacity:0.2;stroke:none;"/>
  </g>
</mask>
<clipPath id="clip20">
  <rect x="0" y="0" width="500" height="500"/>
</clipPath>
<g id="surface62" clip-path="url(#clip20)">
<path style=" stroke:none;fill-rule:nonzero;fill:rgb(100%,100%,100%);fill-opacity:1;" d="M 171.851562 312.269531 C 171.929688 311.589844 172.011719 310.878906 172.089844 310.078125 C 173.089844 299.839844 174.179688 287.550781 175.089844 275.710938 C 178.539062 284.988281 180.03125 298.039062 181.828125 312.269531 L 202.828125 312.269531 C 201.089844 275.441406 196.53125 245.480469 194.109375 232.699219 L 149.570312 232.699219 C 149.511719 237.28125 149 281.699219 147.851562 312.269531 Z M 171.851562 312.269531 "/>
</g>
<mask id="mask20">
  <g filter="url(#alpha)">
<rect x="0" y="0" width="500" height="500" style="fill:rgb(0%,0%,0%);fill-opacity:0.2;stroke:none;"/>
  </g>
</mask>
<clipPath id="clip21">
  <rect x="0" y="0" width="500" height="500"/>
</clipPath>
<g id="surface65" clip-path="url(#clip21)">
<path style=" stroke:none;fill-rule:nonzero;fill:rgb(0%,0%,0%);fill-opacity:1;" d="M 173.449219 148.21875 C 172.96875 148.574219 172.460938 148.886719 171.929688 149.160156 C 169.109375 150.664062 165.761719 150.8125 162.820312 149.558594 C 163.195312 148.5625 163.695312 147.613281 164.308594 146.738281 C 167.433594 146.347656 170.609375 146.863281 173.449219 148.21875 Z M 173.449219 148.21875 "/>
</g>
<mask id="mask21">
  <g filter="url(#alpha)">
<rect x="0" y="0" width="500" height="500" style="fill:rgb(0%,0%,0%);fill-opacity:0.2;stroke:none;"/>
  </g>
</mask>
<clipPath id="clip22">
  <rect x="0" y="0" width="500" height="500"/>
</clipPath>
<g id="surface68" clip-path="url(#clip22)">
<path style=" stroke:none;fill-rule:nonzero;fill:rgb(0%,0%,0%);fill-opacity:1;" d="M 175.128906 275.660156 C 174.179688 287.5 173.128906 299.820312 172.128906 310.058594 C 170.609375 295.269531 168.75 284.730469 168.75 284.730469 C 168.75 284.730469 167.011719 283.300781 162.21875 275.660156 C 157.429688 268.019531 162.21875 253.738281 162.21875 253.738281 C 162 267 175.128906 275.660156 175.128906 275.660156 Z M 175.128906 275.660156 "/>
</g>
<mask id="mask22">
  <g filter="url(#alpha)">
<rect x="0" y="0" width="500" height="500" style="fill:rgb(0%,0%,0%);fill-opacity:0.501961;stroke:none;"/>
  </g>
</mask>
<clipPath id="clip23">
  <rect x="0" y="0" width="500" height="500"/>
</clipPath>
<g id="surface71" clip-path="url(#clip23)">
<path style=" stroke:none;fill-rule:nonzero;fill:rgb(100%,100%,100%);fill-opacity:1;" d="M 176.050781 156.589844 C 176.050781 156.589844 172.410156 150.839844 163.238281 150.429688 C 154.070312 150.019531 153.371094 156.328125 153.371094 156.328125 Z M 176.050781 156.589844 "/>
</g>
<mask id="mask23">
  <g filter="url(#alpha)">
<rect x="0" y="0" width="500" height="500" style="fill:rgb(0%,0%,0%);fill-opacity:0.6;stroke:none;"/>
  </g>
</mask>
<clipPath id="clip24">
  <rect x="0" y="0" width="500" height="500"/>
</clipPath>
<g id="surface74" clip-path="url(#clip24)">
<path style=" stroke:none;fill-rule:nonzero;fill:rgb(100%,100%,100%);fill-opacity:1;" d="M 195.890625 187.679688 C 195.914062 188.160156 195.914062 188.640625 195.890625 189.121094 C 195.847656 189.863281 195.757812 190.601562 195.621094 191.328125 C 195.292969 193.046875 194.78125 194.722656 194.089844 196.328125 C 191.953125 201.03125 189.164062 205.40625 185.808594 209.328125 C 184.109375 211.410156 182.308594 213.410156 180.53125 215.269531 C 176.21875 219.816406 171.609375 224.070312 166.730469 228 C 160.671875 223.988281 154.230469 220.589844 147.5 217.851562 C 145.449219 217.03125 143.320312 216.261719 141.148438 215.609375 C 136.222656 214.015625 131.042969 213.335938 125.871094 213.609375 C 120.933594 213.9375 116.058594 214.894531 111.359375 216.449219 C 110.550781 216.730469 109.800781 217.03125 109.109375 217.320312 L 108.488281 217.589844 C 106.988281 218.242188 105.554688 219.042969 104.210938 219.980469 C 104.058594 220.078125 103.921875 220.191406 103.789062 220.289062 C 103.660156 220.390625 103.320312 220.648438 103.140625 220.808594 L 102.898438 221.019531 C 102.839844 221.066406 102.78125 221.121094 102.730469 221.179688 L 102.539062 221.371094 C 102.539062 221.320312 102.660156 221.109375 102.839844 220.75 L 103.121094 220.199219 C 103.398438 219.640625 103.789062 218.890625 104.300781 217.980469 L 104.519531 217.578125 L 104.910156 216.890625 C 105.039062 216.648438 105.179688 216.398438 105.328125 216.148438 C 105.910156 215.148438 106.589844 213.988281 107.328125 212.761719 C 111.441406 206.109375 116.304688 199.953125 121.828125 194.421875 C 123.800781 192.460938 125.882812 190.621094 128.070312 188.910156 C 131.851562 185.902344 136.003906 183.398438 140.429688 181.460938 C 139.28125 177.070312 138.761719 172.539062 138.878906 168 C 138.910156 166.570312 139.027344 165.144531 139.230469 163.730469 C 139.6875 159.902344 141.019531 156.230469 143.121094 153 C 145.578125 153.714844 148.085938 154.246094 150.621094 154.589844 C 153.933594 155.09375 157.273438 155.429688 160.621094 155.589844 C 167.355469 155.890625 174.101562 155.652344 180.800781 154.878906 C 183.078125 154.632812 185.449219 154.300781 187.910156 153.878906 L 188.140625 154.441406 C 189.730469 158.433594 191.101562 162.507812 192.25 166.648438 C 192.691406 168.238281 193.128906 169.941406 193.550781 171.71875 C 193.96875 173.5 194.289062 175.089844 194.609375 176.859375 C 195.269531 180.433594 195.699219 184.050781 195.890625 187.679688 Z M 195.890625 187.679688 "/>
</g>
<mask id="mask24">
  <g filter="url(#alpha)">
<rect x="0" y="0" width="500" height="500" style="fill:rgb(0%,0%,0%);fill-opacity:0.2;stroke:none;"/>
  </g>
</mask>
<clipPath id="clip25">
  <rect x="0" y="0" width="500" height="500"/>
</clipPath>
<g id="surface77" clip-path="url(#clip25)">
<path style=" stroke:none;fill-rule:nonzero;fill:rgb(100%,100%,100%);fill-opacity:1;" d="M 189 201.308594 L 185.839844 209.390625 C 184.140625 211.46875 182.339844 213.46875 180.558594 215.328125 L 174.128906 203.328125 Z M 189 201.308594 "/>
<path style=" stroke:none;fill-rule:nonzero;fill:rgb(100%,100%,100%);fill-opacity:1;" d="M 134.558594 193.589844 L 121.859375 194.320312 C 123.828125 192.363281 125.914062 190.523438 128.101562 188.808594 Z M 134.558594 193.589844 "/>
<path style=" stroke:none;fill-rule:nonzero;fill:rgb(100%,100%,100%);fill-opacity:1;" d="M 149.210938 161.601562 L 147.851562 174.800781 L 138.851562 167.988281 C 138.878906 166.5625 138.996094 165.136719 139.199219 163.71875 Z M 149.210938 161.601562 "/>
<path style=" stroke:none;fill-rule:nonzero;fill:rgb(100%,100%,100%);fill-opacity:1;" d="M 153.371094 196.378906 L 149.210938 183.699219 L 161.859375 181.359375 Z M 153.371094 196.378906 "/>
<path style=" stroke:none;fill-rule:nonzero;fill:rgb(100%,100%,100%);fill-opacity:1;" d="M 175.128906 184.300781 L 175.128906 193.789062 L 184.210938 190.53125 Z M 175.128906 184.300781 "/>
<path style=" stroke:none;fill-rule:nonzero;fill:rgb(100%,100%,100%);fill-opacity:1;" d="M 151.769531 211.789062 L 147.5 217.789062 C 145.449219 216.96875 143.320312 216.199219 141.148438 215.550781 L 137.929688 208.210938 Z M 151.769531 211.789062 "/>
<path style=" stroke:none;fill-rule:nonzero;fill:rgb(100%,100%,100%);fill-opacity:1;" d="M 119.328125 202.691406 L 125.859375 205.460938 L 119.328125 209.910156 Z M 119.328125 202.691406 "/>
<path style=" stroke:none;fill-rule:nonzero;fill:rgb(100%,100%,100%);fill-opacity:1;" d="M 111.351562 216.359375 C 104.851562 218.628906 102.519531 221.289062 102.519531 221.289062 C 103.972656 218.332031 105.582031 215.453125 107.351562 212.671875 Z M 111.351562 216.359375 "/>
<path style=" stroke:none;fill-rule:nonzero;fill:rgb(100%,100%,100%);fill-opacity:1;" d="M 164.710938 204.078125 L 159.089844 209.910156 L 167.589844 211.398438 Z M 164.710938 204.078125 "/>
<path style=" stroke:none;fill-rule:nonzero;fill:rgb(100%,100%,100%);fill-opacity:1;" d="M 164.710938 167.480469 L 171.320312 176.378906 L 176.050781 166.300781 Z M 164.710938 167.480469 "/>
<path style=" stroke:none;fill-rule:nonzero;fill:rgb(100%,100%,100%);fill-opacity:1;" d="M 194.640625 176.898438 L 186.191406 171.339844 L 192.28125 166.691406 C 193.140625 169.769531 194 173.238281 194.640625 176.898438 Z M 194.640625 176.898438 "/>
<path style=" stroke:none;fill-rule:nonzero;fill:rgb(100%,100%,100%);fill-opacity:1;" d="M 195.878906 189.121094 C 195.699219 191.621094 195.089844 194.074219 194.078125 196.371094 L 190.539062 187.660156 Z M 195.878906 189.121094 "/>
<path style=" stroke:none;fill-rule:nonzero;fill:rgb(100%,100%,100%);fill-opacity:1;" d="M 188.171875 154.480469 L 182.820312 160 L 180.820312 154.921875 C 183.101562 154.671875 185.46875 154.339844 187.929688 153.921875 Z M 188.171875 154.480469 "/>
<path style=" stroke:none;fill-rule:nonzero;fill:rgb(100%,100%,100%);fill-opacity:1;" d="M 160.648438 155.601562 L 156.71875 163.921875 L 150.621094 154.628906 C 153.945312 155.125 157.292969 155.449219 160.648438 155.601562 Z M 160.648438 155.601562 "/>
</g>
<mask id="mask25">
  <g filter="url(#alpha)">
<rect x="0" y="0" width="500" height="500" style="fill:rgb(0%,0%,0%);fill-opacity:0.2;stroke:none;"/>
  </g>
</mask>
<clipPath id="clip26">
  <rect x="0" y="0" width="500" height="500"/>
</clipPath>
<g id="surface80" clip-path="url(#clip26)">
<path style=" stroke:none;fill-rule:nonzero;fill:rgb(0%,0%,0%);fill-opacity:1;" d="M 195.890625 187.679688 C 195.914062 188.160156 195.914062 188.640625 195.890625 189.121094 C 195.847656 189.863281 195.757812 190.601562 195.621094 191.328125 C 188.621094 180.230469 190.28125 170.191406 190.28125 170.191406 L 193.589844 171.761719 C 193.96875 173.410156 194.328125 175.128906 194.648438 176.898438 C 195.296875 180.460938 195.710938 184.0625 195.890625 187.679688 Z M 195.890625 187.679688 "/>
</g>
<mask id="mask26">
  <g filter="url(#alpha)">
<rect x="0" y="0" width="500" height="500" style="fill:rgb(0%,0%,0%);fill-opacity:0.2;stroke:none;"/>
  </g>
</mask>
<clipPath id="clip27">
  <rect x="0" y="0" width="500" height="500"/>
</clipPath>
<g id="surface83" clip-path="url(#clip27)">
<path style=" stroke:none;fill-rule:nonzero;fill:rgb(0%,0%,0%);fill-opacity:1;" d="M 165.550781 127.53125 C 159.480469 133.328125 154.019531 134.25 150.621094 132.011719 C 150.027344 131.59375 149.523438 131.0625 149.140625 130.449219 C 146.941406 127.140625 146.300781 121.03125 146.300781 121.03125 C 152.101562 128.03125 158.820312 120.800781 159.75 115.921875 C 160.308594 113.570312 159.734375 111.09375 158.199219 109.230469 C 162.199219 110.089844 166.578125 112.648438 168.839844 114.101562 C 169.839844 114.710938 170.378906 115.101562 170.378906 115.101562 C 170.378906 115.101562 171.621094 121.730469 165.550781 127.53125 Z M 165.550781 127.53125 "/>
</g>
<mask id="mask27">
  <g filter="url(#alpha)">
<rect x="0" y="0" width="500" height="500" style="fill:rgb(0%,0%,0%);fill-opacity:0.6;stroke:none;"/>
  </g>
</mask>
<clipPath id="clip28">
  <rect x="0" y="0" width="500" height="500"/>
</clipPath>
<g id="surface86" clip-path="url(#clip28)">
<path style=" stroke:none;fill-rule:nonzero;fill:rgb(100%,100%,100%);fill-opacity:1;" d="M 165.550781 127.53125 C 159.480469 133.328125 154.019531 134.25 150.621094 132.011719 C 150.027344 131.59375 149.523438 131.0625 149.140625 130.449219 C 155.21875 132.261719 162.460938 129.25 166.351562 123.839844 C 168.414062 121.039062 169.304688 117.546875 168.839844 114.101562 C 169.839844 114.710938 170.378906 115.101562 170.378906 115.101562 C 170.378906 115.101562 171.621094 121.730469 165.550781 127.53125 Z M 165.550781 127.53125 "/>
</g>
<mask id="mask28">
  <g filter="url(#alpha)">
<rect x="0" y="0" width="500" height="500" style="fill:rgb(0%,0%,0%);fill-opacity:0.6;stroke:none;"/>
  </g>
</mask>
<clipPath id="clip29">
  <rect x="0" y="0" width="500" height="500"/>
</clipPath>
<g id="surface89" clip-path="url(#clip29)">
<path style=" stroke:none;fill-rule:nonzero;fill:rgb(100%,100%,100%);fill-opacity:1;" d="M 219.75 160 L 213.199219 164.808594 L 203.511719 171.941406 L 194.640625 178.460938 C 194.058594 177.699219 193.53125 176.949219 193.03125 176.21875 C 192.015625 174.730469 191.09375 173.183594 190.269531 171.578125 C 188.242188 167.855469 187.121094 163.707031 187 159.46875 C 186.933594 157.570312 187.273438 155.675781 188 153.921875 L 193.578125 150.820312 L 203.191406 145.488281 L 207.410156 143.140625 L 209.789062 141.820312 Z M 219.75 160 "/>
</g>
<mask id="mask29">
  <g filter="url(#alpha)">
<rect x="0" y="0" width="500" height="500" style="fill:rgb(0%,0%,0%);fill-opacity:0.2;stroke:none;"/>
  </g>
</mask>
<clipPath id="clip30">
  <rect x="0" y="0" width="500" height="500"/>
</clipPath>
<g id="surface92" clip-path="url(#clip30)">
<path style=" stroke:none;fill-rule:nonzero;fill:rgb(100%,100%,100%);fill-opacity:1;" d="M 213.199219 164.78125 L 203.511719 171.910156 L 199.238281 162.410156 Z M 213.199219 164.78125 "/>
<path style=" stroke:none;fill-rule:nonzero;fill:rgb(100%,100%,100%);fill-opacity:1;" d="M 212.300781 149.5 L 203.359375 153.039062 L 203.128906 145.488281 L 207.351562 143.140625 Z M 212.300781 149.5 "/>
<path style=" stroke:none;fill-rule:nonzero;fill:rgb(100%,100%,100%);fill-opacity:1;" d="M 196.71875 156.941406 L 187 159.46875 C 186.933594 157.570312 187.273438 155.675781 188 153.921875 L 193.578125 150.820312 Z M 196.71875 156.941406 "/>
<path style=" stroke:none;fill-rule:nonzero;fill:rgb(100%,100%,100%);fill-opacity:1;" d="M 194.640625 169.070312 L 193 176.191406 C 191.984375 174.703125 191.0625 173.152344 190.238281 171.550781 Z M 194.640625 169.070312 "/>
</g>
<mask id="mask30">
  <g filter="url(#alpha)">
<rect x="0" y="0" width="500" height="500" style="fill:rgb(0%,0%,0%);fill-opacity:0.101961;stroke:none;"/>
  </g>
</mask>
<clipPath id="clip31">
  <rect x="0" y="0" width="500" height="500"/>
</clipPath>
<g id="surface95" clip-path="url(#clip31)">
<path style=" stroke:none;fill-rule:nonzero;fill:rgb(100%,100%,100%);fill-opacity:1;" d="M 241.421875 412.121094 C 241.289062 413.757812 242.15625 415.316406 243.617188 416.0625 C 245.082031 416.8125 246.851562 416.601562 248.101562 415.535156 C 249.351562 414.46875 249.835938 412.753906 249.328125 411.191406 C 248.820312 409.628906 247.417969 408.527344 245.78125 408.398438 C 244.707031 408.300781 243.636719 408.640625 242.816406 409.339844 C 241.992188 410.039062 241.492188 411.042969 241.421875 412.121094 Z M 241.421875 412.121094 "/>
</g>
<mask id="mask31">
  <g filter="url(#alpha)">
<rect x="0" y="0" width="500" height="500" style="fill:rgb(0%,0%,0%);fill-opacity:0.2;stroke:none;"/>
  </g>
</mask>
<clipPath id="clip32">
  <rect x="0" y="0" width="500" height="500"/>
</clipPath>
<g id="surface98" clip-path="url(#clip32)">
<path style=" stroke:none;fill-rule:nonzero;fill:rgb(100%,100%,100%);fill-opacity:1;" d="M 230.5 411.269531 C 230.324219 413.507812 231.996094 415.460938 234.230469 415.636719 C 236.46875 415.808594 238.421875 414.136719 238.59375 411.902344 C 238.769531 409.664062 237.097656 407.710938 234.859375 407.539062 C 232.628906 407.375 230.679688 409.039062 230.5 411.269531 Z M 230.5 411.269531 "/>
</g>
<mask id="mask32">
  <g filter="url(#alpha)">
<rect x="0" y="0" width="500" height="500" style="fill:rgb(0%,0%,0%);fill-opacity:0.2;stroke:none;"/>
  </g>
</mask>
<clipPath id="clip33">
  <rect x="0" y="0" width="500" height="500"/>
</clipPath>
<g id="surface101" clip-path="url(#clip33)">
<path style=" stroke:none;fill-rule:nonzero;fill:rgb(100%,100%,100%);fill-opacity:1;" d="M 248.511719 410.089844 L 240.753906 409.480469 C 239.273438 409.367188 238.167969 408.070312 238.28125 406.589844 L 245.652344 312.546875 C 245.765625 311.066406 247.0625 309.960938 248.542969 310.078125 L 256.300781 310.683594 C 257.78125 310.800781 258.886719 312.09375 258.769531 313.574219 L 251.402344 407.617188 C 251.285156 409.097656 249.992188 410.207031 248.511719 410.089844 Z M 248.511719 410.089844 "/>
</g>
<mask id="mask33">
  <g filter="url(#alpha)">
<rect x="0" y="0" width="500" height="500" style="fill:rgb(0%,0%,0%);fill-opacity:0.2;stroke:none;"/>
  </g>
</mask>
<clipPath id="clip34">
  <rect x="0" y="0" width="500" height="500"/>
</clipPath>
<g id="surface104" clip-path="url(#clip34)">
<path style=" stroke:none;fill-rule:nonzero;fill:rgb(100%,100%,100%);fill-opacity:1;" d="M 259.871094 261.503906 L 246.824219 260.460938 C 245.71875 260.371094 244.894531 259.40625 244.980469 258.300781 L 245.082031 257.070312 C 245.167969 255.964844 246.136719 255.140625 247.242188 255.230469 L 260.289062 256.273438 C 261.394531 256.363281 262.21875 257.328125 262.128906 258.433594 L 262.03125 259.664062 C 261.945312 260.769531 260.976562 261.59375 259.871094 261.503906 Z M 259.871094 261.503906 "/>
</g>
<mask id="mask34">
  <g filter="url(#alpha)">
<rect x="0" y="0" width="500" height="500" style="fill:rgb(0%,0%,0%);fill-opacity:0.2;stroke:none;"/>
  </g>
</mask>
<clipPath id="clip35">
  <rect x="0" y="0" width="500" height="500"/>
</clipPath>
<g id="surface107" clip-path="url(#clip35)">
<path style=" stroke:none;fill-rule:nonzero;fill:rgb(0%,0%,0%);fill-opacity:1;" d="M 248.207031 261.84375 L 247.121094 261.757812 C 246.019531 261.671875 245.199219 260.710938 245.285156 259.609375 L 245.378906 258.382812 C 245.464844 257.28125 246.429688 256.460938 247.53125 256.546875 L 248.617188 256.628906 C 249.71875 256.714844 250.539062 257.679688 250.453125 258.78125 L 250.359375 260.007812 C 250.273438 261.105469 249.308594 261.929688 248.207031 261.84375 Z M 248.207031 261.84375 "/>
</g>
<mask id="mask35">
  <g filter="url(#alpha)">
<rect x="0" y="0" width="500" height="500" style="fill:rgb(0%,0%,0%);fill-opacity:0.2;stroke:none;"/>
  </g>
</mask>
<clipPath id="clip36">
  <rect x="0" y="0" width="500" height="500"/>
</clipPath>
<g id="surface110" clip-path="url(#clip36)">
<path style=" stroke:none;fill-rule:nonzero;fill:rgb(100%,100%,100%);fill-opacity:1;" d="M 287.539062 320.640625 L 280.878906 405.640625 C 280.636719 408.765625 277.90625 411.101562 274.78125 410.859375 L 243.78125 408.429688 C 241.59375 408.246094 239.964844 406.328125 240.128906 404.140625 L 247 315.769531 C 247.179688 313.582031 249.089844 311.949219 251.28125 312.109375 L 282.28125 314.539062 C 283.789062 314.648438 285.191406 315.351562 286.179688 316.496094 C 287.164062 317.640625 287.65625 319.132812 287.539062 320.640625 Z M 287.539062 320.640625 "/>
</g>
<mask id="mask36">
  <g filter="url(#alpha)">
<rect x="0" y="0" width="500" height="500" style="fill:rgb(0%,0%,0%);fill-opacity:0.2;stroke:none;"/>
  </g>
</mask>
<clipPath id="clip37">
  <rect x="0" y="0" width="500" height="500"/>
</clipPath>
<g id="surface113" clip-path="url(#clip37)">
<path style=" stroke:none;fill-rule:nonzero;fill:rgb(0%,0%,0%);fill-opacity:1;" d="M 266.21875 313.28125 L 266.21875 313.398438 L 265.109375 313.308594 C 262.917969 313.148438 261.003906 314.789062 260.828125 316.980469 L 253.910156 405.320312 C 253.78125 407.144531 254.90625 408.824219 256.640625 409.398438 L 243.75 408.398438 C 241.5625 408.21875 239.929688 406.308594 240.089844 404.121094 L 247 315.78125 C 247.175781 313.589844 249.085938 311.949219 251.28125 312.109375 Z M 266.21875 313.28125 "/>
</g>
<mask id="mask37">
  <g filter="url(#alpha)">
<rect x="0" y="0" width="500" height="500" style="fill:rgb(0%,0%,0%);fill-opacity:0.2;stroke:none;"/>
  </g>
</mask>
<clipPath id="clip38">
  <rect x="0" y="0" width="500" height="500"/>
</clipPath>
<g id="surface116" clip-path="url(#clip38)">
<path style=" stroke:none;fill-rule:nonzero;fill:rgb(0%,0%,0%);fill-opacity:1;" d="M 265.5 316.339844 L 265.957031 316.375 C 266.558594 316.421875 267.007812 316.949219 266.960938 317.546875 L 260.171875 404.152344 C 260.125 404.753906 259.601562 405.203125 259 405.15625 L 258.542969 405.117188 C 257.941406 405.070312 257.496094 404.546875 257.542969 403.945312 L 264.328125 317.34375 C 264.375 316.742188 264.898438 316.292969 265.5 316.339844 Z M 265.5 316.339844 "/>
</g>
<mask id="mask38">
  <g filter="url(#alpha)">
<rect x="0" y="0" width="500" height="500" style="fill:rgb(0%,0%,0%);fill-opacity:0.2;stroke:none;"/>
  </g>
</mask>
<clipPath id="clip39">
  <rect x="0" y="0" width="500" height="500"/>
</clipPath>
<g id="surface119" clip-path="url(#clip39)">
<path style=" stroke:none;fill-rule:nonzero;fill:rgb(0%,0%,0%);fill-opacity:1;" d="M 271.707031 317.253906 L 272.167969 317.289062 C 272.765625 317.335938 273.214844 317.859375 273.167969 318.460938 L 266.382812 405.066406 C 266.335938 405.664062 265.8125 406.113281 265.210938 406.066406 L 264.753906 406.03125 C 264.152344 405.984375 263.703125 405.460938 263.75 404.859375 L 270.535156 318.253906 C 270.582031 317.652344 271.109375 317.207031 271.707031 317.253906 Z M 271.707031 317.253906 "/>
</g>
<mask id="mask39">
  <g filter="url(#alpha)">
<rect x="0" y="0" width="500" height="500" style="fill:rgb(0%,0%,0%);fill-opacity:0.2;stroke:none;"/>
  </g>
</mask>
<clipPath id="clip40">
  <rect x="0" y="0" width="500" height="500"/>
</clipPath>
<g id="surface122" clip-path="url(#clip40)">
<path style=" stroke:none;fill-rule:nonzero;fill:rgb(0%,0%,0%);fill-opacity:1;" d="M 277.921875 317.625 L 278.378906 317.660156 C 278.980469 317.707031 279.425781 318.234375 279.378906 318.832031 L 272.59375 405.4375 C 272.546875 406.039062 272.023438 406.488281 271.421875 406.441406 L 270.964844 406.402344 C 270.363281 406.355469 269.917969 405.832031 269.964844 405.230469 L 276.75 318.628906 C 276.796875 318.027344 277.320312 317.578125 277.921875 317.625 Z M 277.921875 317.625 "/>
</g>
<mask id="mask40">
  <g filter="url(#alpha)">
<rect x="0" y="0" width="500" height="500" style="fill:rgb(0%,0%,0%);fill-opacity:0.2;stroke:none;"/>
  </g>
</mask>
<clipPath id="clip41">
  <rect x="0" y="0" width="500" height="500"/>
</clipPath>
<g id="surface125" clip-path="url(#clip41)">
<path style=" stroke:none;fill-rule:nonzero;fill:rgb(0%,0%,0%);fill-opacity:1;" d="M 284.113281 317.988281 L 284.570312 318.023438 C 285.171875 318.070312 285.621094 318.597656 285.574219 319.195312 L 278.789062 405.800781 C 278.742188 406.402344 278.214844 406.851562 277.617188 406.804688 L 277.15625 406.765625 C 276.558594 406.71875 276.109375 406.195312 276.15625 405.59375 L 282.941406 318.992188 C 282.988281 318.390625 283.511719 317.941406 284.113281 317.988281 Z M 284.113281 317.988281 "/>
</g>
</defs>
<g id="surface1">
<path style=" stroke:none;fill-rule:nonzero;fill:rgb(92.156863%,92.156863%,92.156863%);fill-opacity:1;" d="M 0 382.398438 L 500 382.398438 L 500 382.648438 L 0 382.648438 Z M 0 382.398438 "/>
<path style=" stroke:none;fill-rule:nonzero;fill:rgb(92.156863%,92.156863%,92.156863%);fill-opacity:1;" d="M 416.78125 398.488281 L 449.898438 398.488281 L 449.898438 398.738281 L 416.78125 398.738281 Z M 416.78125 398.488281 "/>
<path style=" stroke:none;fill-rule:nonzero;fill:rgb(92.156863%,92.156863%,92.156863%);fill-opacity:1;" d="M 322.53125 401.210938 L 331.21875 401.210938 L 331.21875 401.460938 L 322.53125 401.460938 Z M 322.53125 401.210938 "/>
<path style=" stroke:none;fill-rule:nonzero;fill:rgb(92.156863%,92.156863%,92.156863%);fill-opacity:1;" d="M 396.589844 389.210938 L 415.78125 389.210938 L 415.78125 389.460938 L 396.589844 389.460938 Z M 396.589844 389.210938 "/>
<path style=" stroke:none;fill-rule:nonzero;fill:rgb(92.156863%,92.156863%,92.156863%);fill-opacity:1;" d="M 52.460938 390.890625 L 95.648438 390.890625 L 95.648438 391.140625 L 52.460938 391.140625 Z M 52.460938 390.890625 "/>
<path style=" stroke:none;fill-rule:nonzero;fill:rgb(92.156863%,92.156863%,92.156863%);fill-opacity:1;" d="M 104.558594 390.890625 L 110.890625 390.890625 L 110.890625 391.140625 L 104.558594 391.140625 Z M 104.558594 390.890625 "/>
<path style=" stroke:none;fill-rule:nonzero;fill:rgb(92.156863%,92.156863%,92.156863%);fill-opacity:1;" d="M 131.46875 395.109375 L 225.148438 395.109375 L 225.148438 395.359375 L 131.46875 395.359375 Z M 131.46875 395.109375 "/>
<path style=" stroke:none;fill-rule:nonzero;fill:rgb(92.156863%,92.156863%,92.156863%);fill-opacity:1;" d="M 237 337.800781 L 43.910156 337.800781 C 40.761719 337.792969 38.210938 335.238281 38.210938 332.089844 L 38.210938 60.660156 C 38.238281 57.53125 40.78125 55.003906 43.910156 55 L 237 55 C 240.152344 55 242.710938 57.554688 242.710938 60.710938 L 242.710938 332.089844 C 242.710938 335.242188 240.152344 337.800781 237 337.800781 Z M 43.910156 55.199219 C 40.898438 55.207031 38.460938 57.648438 38.460938 60.660156 L 38.460938 332.089844 C 38.460938 335.101562 40.898438 337.542969 43.910156 337.550781 L 237 337.550781 C 240.011719 337.542969 242.453125 335.101562 242.460938 332.089844 L 242.460938 60.660156 C 242.453125 57.648438 240.011719 55.207031 237 55.199219 Z M 43.910156 55.199219 "/>
<path style=" stroke:none;fill-rule:nonzero;fill:rgb(92.156863%,92.156863%,92.156863%);fill-opacity:1;" d="M 453.308594 337.800781 L 260.210938 337.800781 C 257.058594 337.792969 254.503906 335.242188 254.5 332.089844 L 254.5 60.660156 C 254.53125 57.527344 257.078125 55.003906 260.210938 55 L 453.308594 55 C 456.4375 55.011719 458.972656 57.535156 459 60.660156 L 459 332.089844 C 459 335.234375 456.457031 337.789062 453.308594 337.800781 Z M 260.210938 55.199219 C 257.195312 55.207031 254.753906 57.648438 254.75 60.660156 L 254.75 332.089844 C 254.753906 335.101562 257.195312 337.542969 260.210938 337.550781 L 453.308594 337.550781 C 456.324219 337.542969 458.765625 335.101562 458.769531 332.089844 L 458.769531 60.660156 C 458.765625 57.648438 456.324219 55.207031 453.308594 55.199219 Z M 260.210938 55.199219 "/>
<path style=" stroke:none;fill-rule:nonzero;fill:rgb(96.078431%,96.078431%,96.078431%);fill-opacity:1;" d="M 376.949219 148.289062 C 376.949219 171.238281 358.347656 189.839844 335.398438 189.839844 C 312.453125 189.839844 293.851562 171.238281 293.851562 148.289062 C 293.851562 125.34375 312.453125 106.738281 335.398438 106.738281 C 358.347656 106.738281 376.949219 125.34375 376.949219 148.289062 Z M 376.949219 148.289062 "/>
<path style=" stroke:none;fill-rule:nonzero;fill:rgb(92.156863%,92.156863%,92.156863%);fill-opacity:1;" d="M 409.550781 140.101562 C 409.550781 136.359375 406.519531 133.328125 402.78125 133.328125 C 402.121094 133.328125 401.46875 133.425781 400.839844 133.621094 C 400.9375 132.929688 400.984375 132.234375 400.988281 131.539062 C 400.996094 127.269531 399.097656 123.21875 395.808594 120.492188 C 392.519531 117.769531 388.183594 116.65625 383.988281 117.460938 C 381.085938 112.691406 375.378906 110.421875 369.996094 111.886719 C 364.609375 113.355469 360.84375 118.207031 360.761719 123.789062 L 360.550781 123.789062 C 354.304688 123.972656 349.339844 129.089844 349.339844 135.335938 C 349.339844 141.582031 354.304688 146.695312 360.550781 146.878906 L 403 146.878906 C 406.65625 146.761719 409.558594 143.757812 409.550781 140.101562 Z M 409.550781 140.101562 "/>
<path style=" stroke:none;fill-rule:nonzero;fill:rgb(92.156863%,92.156863%,92.156863%);fill-opacity:1;" d="M 302.609375 177.339844 C 302.609375 173.605469 299.585938 170.574219 295.851562 170.570312 C 295.171875 170.5625 294.496094 170.660156 293.851562 170.859375 C 294.472656 166.738281 293.261719 162.546875 290.535156 159.394531 C 287.808594 156.238281 283.839844 154.433594 279.671875 154.449219 C 278.785156 154.453125 277.902344 154.535156 277.03125 154.699219 C 274.117188 149.980469 268.445312 147.742188 263.09375 149.195312 C 257.738281 150.652344 253.984375 155.453125 253.859375 161 L 253.648438 161 C 247.40625 161.183594 242.441406 166.296875 242.441406 172.546875 C 242.441406 178.792969 247.40625 183.90625 253.648438 184.089844 L 296 184.089844 C 299.671875 184.007812 302.605469 181.011719 302.609375 177.339844 Z M 302.609375 177.339844 "/>
<path style=" stroke:none;fill-rule:nonzero;fill:rgb(92.156863%,92.156863%,92.156863%);fill-opacity:1;" d="M 116 190.148438 C 116 186.414062 112.976562 183.386719 109.238281 183.378906 C 108.5625 183.375 107.890625 183.46875 107.238281 183.660156 C 107.34375 182.976562 107.398438 182.28125 107.398438 181.589844 C 107.390625 177.324219 105.484375 173.285156 102.199219 170.5625 C 98.917969 167.839844 94.59375 166.71875 90.398438 167.5 C 87.5 162.726562 81.789062 160.449219 76.402344 161.921875 C 71.011719 163.390625 67.25 168.253906 67.179688 173.839844 L 66.96875 173.839844 C 60.726562 174.023438 55.761719 179.136719 55.761719 185.386719 C 55.761719 191.632812 60.726562 196.746094 66.96875 196.929688 L 109.359375 196.929688 C 113.054688 196.871094 116.015625 193.847656 116 190.148438 Z M 116 190.148438 "/>
<path style=" stroke:none;fill-rule:nonzero;fill:rgb(92.156863%,92.156863%,92.156863%);fill-opacity:1;" d="M 405.640625 222.441406 C 405.640625 220.179688 403.808594 218.351562 401.550781 218.351562 C 401.152344 218.351562 400.753906 218.40625 400.371094 218.519531 C 400.734375 216.03125 399.996094 213.507812 398.351562 211.601562 C 396.707031 209.699219 394.316406 208.601562 391.800781 208.601562 C 391.265625 208.597656 390.734375 208.648438 390.210938 208.75 C 388.441406 205.902344 385.011719 204.554688 381.78125 205.441406 C 378.546875 206.324219 376.28125 209.230469 376.210938 212.578125 L 376 212.578125 C 372.132812 212.578125 369 215.714844 369 219.578125 C 369 223.445312 372.132812 226.578125 376 226.578125 L 401.621094 226.578125 C 403.875 226.546875 405.671875 224.695312 405.640625 222.441406 Z M 405.640625 222.441406 "/>
<path style=" stroke:none;fill-rule:nonzero;fill:rgb(92.156863%,92.156863%,92.156863%);fill-opacity:1;" d="M 158.429688 90.910156 C 158.441406 89.613281 157.832031 88.394531 156.792969 87.621094 C 155.753906 86.847656 154.40625 86.617188 153.171875 87 C 153.53125 84.511719 152.796875 81.984375 151.152344 80.082031 C 149.507812 78.179688 147.117188 77.082031 144.601562 77.078125 C 144.0625 77.078125 143.527344 77.128906 143 77.230469 C 141.234375 74.382812 137.804688 73.035156 134.570312 73.921875 C 131.339844 74.804688 129.070312 77.710938 129 81.058594 L 128.878906 81.058594 C 125.015625 81.058594 121.878906 84.195312 121.878906 88.058594 C 121.878906 91.925781 125.015625 95.058594 128.878906 95.058594 L 154.5 95.058594 C 156.71875 94.972656 158.464844 93.132812 158.429688 90.910156 Z M 158.429688 90.910156 "/>
<path style=" stroke:none;fill-rule:nonzero;fill:rgb(92.156863%,92.156863%,92.156863%);fill-opacity:1;" d="M 89.859375 243.660156 L 116.941406 366.671875 L 121.859375 364.359375 L 93.421875 242.96875 Z M 89.859375 243.660156 "/>
<path style=" stroke:none;fill-rule:nonzero;fill:rgb(90.196078%,90.196078%,90.196078%);fill-opacity:1;" d="M 400.78125 366.078125 C 400.78125 366.078125 384 250.5 421.71875 131 L 415.808594 126.441406 C 415.808594 126.441406 371.648438 216.839844 378.078125 369.359375 Z M 400.78125 366.078125 "/>
<path style=" stroke:none;fill-rule:nonzero;fill:rgb(87.843137%,87.843137%,87.843137%);fill-opacity:1;" d="M 432 99.578125 C 445.820312 90.519531 466.269531 104.929688 469.078125 127.449219 C 467.046875 126.277344 464.925781 125.277344 462.730469 124.449219 C 461.660156 118.78125 460.628906 113.769531 460.628906 113.769531 L 461.371094 123.941406 C 460.148438 123.5 458.820312 123.070312 457.371094 122.679688 L 456.371094 117.210938 L 455.921875 122.320312 C 453.960938 121.863281 451.980469 121.527344 449.980469 121.320312 L 447.398438 105.320312 L 446.101562 121 C 444.054688 120.941406 442.003906 121.035156 439.96875 121.269531 L 438.390625 110.410156 L 438.390625 121.488281 C 436.640625 121.773438 434.910156 122.171875 433.210938 122.679688 L 431.320312 106.480469 C 431.320312 106.480469 431.371094 115.589844 431.269531 123.320312 C 426.378906 125.09375 421.859375 127.75 417.929688 131.160156 L 417.78125 129.160156 C 417.78125 129.160156 419.371094 107.839844 432 99.578125 Z M 432 99.578125 "/>
<path style=" stroke:none;fill-rule:nonzero;fill:rgb(87.843137%,87.843137%,87.843137%);fill-opacity:1;" d="M 412.890625 92.339844 C 401.890625 79.988281 378.410156 88.550781 369.820312 109.550781 C 372.085938 108.941406 374.394531 108.523438 376.730469 108.300781 C 379.238281 103.109375 381.550781 98.539062 381.550781 98.539062 L 378.179688 108.160156 C 379.46875 108.058594 380.859375 108 382.351562 108 L 384.699219 103 L 383.800781 108.050781 C 385.808594 108.105469 387.8125 108.285156 389.800781 108.589844 L 396.46875 93.851562 L 393.648438 109.351562 C 395.644531 109.824219 397.597656 110.445312 399.5 111.210938 L 403.871094 101.140625 L 401 111.800781 C 402.621094 112.523438 404.1875 113.363281 405.691406 114.308594 L 411.761719 99.160156 C 411.761719 99.160156 409.320312 107.941406 407.398438 115.421875 C 411.65625 118.414062 415.324219 122.167969 418.21875 126.488281 L 418.890625 124.601562 C 418.890625 124.601562 422.898438 103.621094 412.890625 92.339844 Z M 412.890625 92.339844 "/>
<path style=" stroke:none;fill-rule:nonzero;fill:rgb(87.843137%,87.843137%,87.843137%);fill-opacity:1;" d="M 402.320312 121.628906 C 413.320312 110.898438 421.578125 120.238281 421.578125 120.238281 C 417.449219 121.308594 413.761719 123.960938 410.578125 127.328125 L 409.089844 125.390625 L 409.328125 128.699219 C 408.570312 129.578125 407.828125 130.5 407.121094 131.449219 L 404.601562 125.71875 L 405.679688 133.480469 C 404.679688 134.960938 403.679688 136.480469 402.851562 138 L 401.738281 132.320312 L 401.828125 139.851562 C 400.910156 141.550781 400.089844 143.21875 399.359375 144.789062 L 398.160156 134.359375 L 398 147.851562 C 396.238281 152.011719 395.320312 154.929688 395.320312 154.929688 C 395.320312 154.929688 391.320312 132.371094 402.320312 121.628906 Z M 402.320312 121.628906 "/>
<path style=" stroke:none;fill-rule:nonzero;fill:rgb(87.843137%,87.843137%,87.843137%);fill-opacity:1;" d="M 432 147 L 429.730469 148.308594 C 429.398438 146.558594 429.011719 144.730469 428.578125 142.871094 L 430.121094 140.039062 L 428.179688 141.238281 C 428.03125 140.621094 427.859375 140.011719 427.699219 139.390625 L 429.699219 133.851562 L 426.699219 136.058594 C 425.101562 131.058594 423.058594 126.671875 420.511719 124.570312 C 420.511719 124.570312 445.730469 132.628906 431.511719 159.820312 C 431.511719 159.820312 431.050781 155.519531 430.039062 149.871094 Z M 432 147 "/>
<path style=" stroke:none;fill-rule:nonzero;fill:rgb(87.843137%,87.843137%,87.843137%);fill-opacity:1;" d="M 407.199219 124.75 L 403.199219 117.148438 L 404.859375 125.070312 C 404.460938 125.128906 404.050781 125.210938 403.640625 125.289062 L 398.410156 118.78125 L 399.699219 126.269531 C 397.914062 126.8125 396.160156 127.460938 394.449219 128.210938 C 392.585938 129.046875 390.765625 129.976562 389 131 L 386.449219 124.351562 L 387.640625 131.789062 C 385.910156 132.789062 384.21875 133.921875 382.640625 135.058594 L 381.378906 129.199219 L 381.5 135.871094 C 379.5 137.308594 377.640625 138.769531 375.921875 140.199219 L 376.078125 129.578125 L 374.53125 141.371094 C 372.769531 142.871094 371.179688 144.308594 369.828125 145.589844 L 369.640625 138.21875 L 367.769531 147.578125 C 365.828125 149.511719 364.71875 150.738281 364.71875 150.738281 C 365.71875 124.949219 375.71875 114.738281 392.261719 111.941406 C 408.800781 109.140625 420.71875 126.351562 420.71875 126.351562 C 420.71875 126.351562 415.578125 123.910156 407.199219 124.75 Z M 407.199219 124.75 "/>
<path style=" stroke:none;fill-rule:nonzero;fill:rgb(87.843137%,87.843137%,87.843137%);fill-opacity:1;" d="M 455.441406 156.269531 L 453.929688 164 C 453.199219 162.089844 452.210938 159.640625 450.929688 156.910156 L 452.289062 145.660156 L 449.808594 154.53125 C 447.871094 150.496094 445.625 146.617188 443.089844 142.929688 L 445.449219 135.128906 L 441.628906 140.921875 C 440.859375 139.921875 440.070312 138.921875 439.25 138 L 440.589844 133.089844 L 438.519531 137.199219 C 437.960938 136.578125 437.378906 135.988281 436.789062 135.421875 L 438.421875 128.871094 L 435.828125 134.539062 C 434.21875 133.066406 432.445312 131.78125 430.539062 130.710938 L 433.171875 122.710938 L 429.050781 129.96875 C 426.460938 128.753906 423.621094 128.164062 420.761719 128.238281 C 420.761719 128.238281 425.761719 120.238281 434.949219 117.488281 C 444.140625 114.738281 463.949219 131.378906 455.351562 168.089844 C 455.351562 168.089844 455.089844 167.261719 454.570312 165.828125 Z M 455.441406 156.269531 "/>
<path style=" stroke:none;fill-rule:nonzero;fill:rgb(87.843137%,87.843137%,87.843137%);fill-opacity:1;" d="M 440.28125 84.941406 L 441.851562 89.601562 C 441.269531 89.632812 440.695312 89.714844 440.128906 89.851562 L 438.238281 83.78125 L 439.5 90 C 438.300781 90.359375 437.15625 90.878906 436.101562 91.550781 L 433.5 83.359375 L 435 92.289062 C 434.578125 92.601562 434.160156 92.941406 433.730469 93.289062 L 430.789062 85.601562 L 433 94 C 430.828125 96.175781 428.972656 98.644531 427.488281 101.339844 L 426.71875 90 L 425.421875 105.390625 C 423.265625 110.203125 421.523438 115.191406 420.21875 120.300781 C 420.21875 120.300781 418.621094 79.300781 428.488281 74.699219 C 438.359375 70.101562 444.230469 89.789062 444.230469 89.789062 C 443.789062 89.660156 443.335938 89.585938 442.878906 89.570312 Z M 440.28125 84.941406 "/>
<path style=" stroke:none;fill-rule:nonzero;fill:rgb(87.843137%,87.843137%,87.843137%);fill-opacity:1;" d="M 426.179688 130.550781 L 425.300781 138.320312 L 422.300781 130.828125 L 418.300781 136.691406 L 416.71875 131.230469 L 412.101562 135.109375 C 412.101562 135.109375 412.671875 125.199219 415.621094 120.671875 C 418.570312 116.140625 427.429688 119.320312 426.179688 130.550781 Z M 426.179688 130.550781 "/>
<path style=" stroke:none;fill-rule:nonzero;fill:rgb(92.156863%,92.156863%,92.156863%);fill-opacity:1;" d="M 303 255.488281 L 303 201.308594 C 303 201.308594 292 213 284.730469 211.398438 C 277.460938 209.800781 268 215.328125 268 215.328125 C 268 215.328125 277.53125 213.941406 281.070312 217.808594 C 284.609375 221.679688 300.410156 222.089844 300.410156 222.089844 L 300.410156 257.46875 Z M 303 255.488281 "/>
<path style=" stroke:none;fill-rule:nonzero;fill:rgb(87.843137%,87.843137%,87.843137%);fill-opacity:1;" d="M 351.5 238.878906 L 349 238.878906 L 349 242.289062 L 340.761719 242.289062 L 340.761719 238.878906 L 332.660156 238.878906 L 332.660156 242.289062 L 324.421875 242.289062 L 324.421875 238.878906 L 316.328125 238.878906 L 316.328125 242.289062 L 308.078125 242.289062 L 308.078125 238.878906 L 299.988281 238.878906 L 299.988281 242.289062 L 291.75 242.289062 L 291.75 238.878906 L 283.648438 238.878906 L 283.648438 242.289062 L 275.410156 242.289062 L 275.410156 238.878906 L 267.308594 238.878906 L 267.308594 242.289062 L 259.070312 242.289062 L 259.070312 238.878906 L 256.300781 238.878906 L 248.269531 303.078125 L 359.800781 302.621094 Z M 351.5 238.878906 "/>
<path style=" stroke:none;fill-rule:nonzero;fill:rgb(92.156863%,92.156863%,92.156863%);fill-opacity:1;" d="M 369.238281 285.480469 L 365.808594 285.480469 L 365.808594 290.160156 L 354.488281 290.160156 L 354.488281 285.480469 L 343.371094 285.480469 L 343.371094 290.160156 L 332.039062 290.160156 L 332.039062 285.480469 L 320.921875 285.480469 L 320.921875 290.160156 L 309.601562 290.160156 L 309.601562 285.480469 L 298.480469 285.480469 L 298.480469 290.160156 L 287.148438 290.160156 L 287.148438 285.480469 L 276.03125 285.480469 L 276.03125 290.160156 L 264.699219 290.160156 L 264.699219 285.480469 L 253.578125 285.480469 L 253.578125 290.160156 L 242.261719 290.160156 L 242.261719 285.480469 L 238.449219 285.480469 L 227.410156 373.691406 L 380.660156 373.050781 Z M 369.238281 285.480469 "/>
<path style=" stroke:none;fill-rule:nonzero;fill:rgb(96.078431%,96.078431%,96.078431%);fill-opacity:1;" d="M 425.851562 363.300781 C 423.480469 360.628906 421.25 357.898438 418.769531 355.300781 C 418.640625 355.171875 418.523438 355.03125 418.421875 354.878906 C 417.601562 354.351562 416.75 353.878906 415.871094 353.46875 C 415.710938 353.421875 415.191406 353.210938 414.660156 353.011719 C 413.660156 352.648438 412.660156 352.261719 411.660156 351.859375 C 405.449219 349.359375 399.871094 346.460938 395.179688 341.53125 C 392.609375 338.828125 390.558594 335.679688 387.898438 333.058594 C 387.828125 333.148438 387.308594 332.871094 387.058594 332.671875 L 385.058594 332.410156 C 383.988281 332.410156 382.910156 332.410156 381.839844 332.480469 C 380.308594 332.550781 378.78125 332.671875 377.25 332.808594 C 371.25 341.53125 363.75 353.441406 360.429688 355.011719 C 355.28125 357.449219 307.820312 370.011719 304.320312 369.238281 C 300.820312 368.46875 282.5 369.980469 277.898438 369.808594 C 273.300781 369.640625 264.96875 367.601562 252.898438 362.050781 C 240.828125 356.5 234.25 356.46875 219.71875 351.839844 C 205.191406 347.210938 195.449219 345.449219 186.949219 352.570312 C 178.449219 359.691406 155.101562 344.660156 147.820312 342.519531 C 140.539062 340.378906 126.621094 328.050781 117.121094 333.800781 C 107.621094 339.550781 99.71875 342.289062 87.851562 352.570312 C 75.980469 362.851562 52.429688 382.71875 52.429688 382.71875 L 453.429688 382.71875 L 448.820312 374.671875 C 439.945312 374.128906 431.660156 370.03125 425.851562 363.300781 Z M 425.851562 363.300781 "/>
<path style=" stroke:none;fill-rule:nonzero;fill:rgb(87.843137%,87.843137%,87.843137%);fill-opacity:1;" d="M 43.179688 265 C 43.179688 265 54.851562 244 86.46875 225.878906 C 86.46875 225.878906 112.210938 223.691406 141.269531 236.359375 C 141.269531 236.359375 147.160156 246.140625 140.460938 250 C 133.761719 253.859375 128.210938 246.101562 128.210938 246.101562 C 128.210938 246.101562 126.96875 257.921875 118.210938 258.261719 C 109.449219 258.601562 106.910156 250 106.910156 250 C 106.910156 250 106.050781 260.851562 95.621094 263.589844 C 86.601562 266 81 258.261719 81 258.261719 C 81 258.261719 79.199219 267.179688 71.089844 269.75 C 64.570312 271.808594 60.089844 266.199219 60.089844 266.199219 C 60.089844 266.199219 58.21875 275.878906 51.300781 275.878906 C 45.351562 275.878906 43.179688 265 43.179688 265 Z M 43.179688 265 "/>
<path style=" stroke:none;fill-rule:nonzero;fill:rgb(96.078431%,96.078431%,96.078431%);fill-opacity:1;" d="M 443.890625 416.238281 C 443.890625 409.988281 357.082031 404.921875 250 404.921875 C 142.917969 404.921875 56.109375 409.988281 56.109375 416.238281 C 56.109375 422.492188 142.917969 427.558594 250 427.558594 C 357.082031 427.558594 443.890625 422.492188 443.890625 416.238281 Z M 443.890625 416.238281 "/>
<path style=" stroke:none;fill-rule:nonzero;fill:rgb(25.098039%,48.235294%,100%);fill-opacity:1;" d="M 384 366.910156 C 384 366.910156 388.351562 360.539062 392.308594 358.761719 C 396.269531 356.980469 396.910156 350.210938 399.058594 349.839844 C 401.210938 349.46875 403.578125 355.710938 407.339844 357.53125 C 411.101562 359.351562 416.789062 366.871094 416.789062 366.871094 Z M 384 366.910156 "/>
<use xlink:href="#surface5" mask="url(#mask0)"/>
<path style=" stroke:none;fill-rule:nonzero;fill:rgb(25.098039%,48.235294%,100%);fill-opacity:1;" d="M 415.621094 412.769531 L 383.980469 412.769531 L 379.980469 366.871094 L 419.621094 366.871094 Z M 415.621094 412.769531 "/>
<path style=" stroke:none;fill-rule:nonzero;fill:rgb(25.098039%,48.235294%,100%);fill-opacity:1;" d="M 378.058594 364.488281 L 421.53125 364.488281 L 421.53125 369.320312 L 378.058594 369.320312 Z M 378.058594 364.488281 "/>
<use xlink:href="#surface8" mask="url(#mask1)"/>
<path style=" stroke:none;fill-rule:nonzero;fill:rgb(14.901961%,19.607843%,21.960784%);fill-opacity:1;" d="M 397.929688 367.890625 C 400.808594 372.410156 413.140625 391.058594 420.78125 392.421875 L 421.71875 390.160156 C 421.71875 390.160156 414.878906 390.980469 399.71875 366.75 C 399.421875 366.261719 398.792969 366.089844 398.289062 366.359375 C 398.03125 366.507812 397.84375 366.753906 397.773438 367.046875 C 397.707031 367.335938 397.761719 367.644531 397.929688 367.890625 Z M 397.929688 367.890625 "/>
<path style=" stroke:none;fill-rule:nonzero;fill:rgb(25.098039%,48.235294%,100%);fill-opacity:1;" d="M 352.910156 353.410156 C 353.566406 353.203125 354.277344 353.269531 354.886719 353.59375 C 355.492188 353.921875 355.941406 354.476562 356.128906 355.140625 L 361.53125 374.03125 L 368.53125 371.21875 C 368.53125 371.21875 372.761719 386.96875 364.769531 389.460938 C 357 391.890625 351 377.351562 351 377.351562 L 358.140625 375.351562 L 351.320312 356.691406 C 351.089844 356.042969 351.125 355.332031 351.425781 354.714844 C 351.722656 354.097656 352.257812 353.628906 352.910156 353.410156 Z M 352.910156 353.410156 "/>
<use xlink:href="#surface11" mask="url(#mask2)"/>
<path style=" stroke:none;fill-rule:nonzero;fill:rgb(25.098039%,48.235294%,100%);fill-opacity:1;" d="M 424.671875 416.648438 C 420.738281 414.699219 416.71875 412.859375 415.429688 412.769531 C 412.671875 412.589844 411.078125 411.359375 409.109375 409.011719 C 407.140625 406.660156 406.339844 403.941406 402.78125 400.160156 C 399.21875 396.378906 403.171875 394.859375 395.648438 393.890625 C 388.128906 392.921875 391.039062 393.53125 386.421875 390.199219 C 381.800781 386.871094 382.738281 386.878906 377.328125 384.5 C 371.921875 382.121094 375.078125 381.21875 368.75 380.691406 C 364.378906 380.320312 357.46875 382.621094 353.878906 385.179688 C 352.289062 386.308594 351.480469 388.179688 349.878906 389.179688 C 348.109375 390.308594 345.359375 388.179688 345.648438 391.988281 C 345.84375 392.960938 345.886719 393.957031 345.78125 394.941406 C 345.269531 397.078125 336.460938 397.070312 334.21875 397.738281 C 333.6875 397.835938 333.207031 398.128906 332.878906 398.558594 C 332.371094 399.46875 333.140625 401.078125 332.148438 401.410156 C 331.839844 401.519531 331.488281 401.410156 331.148438 401.460938 C 329.960938 401.691406 330.269531 403.828125 329.148438 404.320312 C 328.03125 404.808594 326.738281 403.808594 325.5 404.320312 C 324.550781 404.679688 324.230469 405.960938 323.398438 406.46875 C 321.949219 407.351562 320.449219 408 319.019531 408.941406 C 316.539062 410.558594 314.390625 412.550781 311.730469 413.941406 L 304.609375 415.878906 L 302.480469 416.628906 Z M 424.671875 416.648438 "/>
<use xlink:href="#surface14" mask="url(#mask3)"/>
<path style=" stroke:none;fill-rule:nonzero;fill:rgb(25.098039%,48.235294%,100%);fill-opacity:1;" d="M 340.75 398.449219 C 340.753906 398.523438 340.753906 398.597656 340.75 398.671875 C 340.722656 402.058594 339.738281 405.367188 337.910156 408.21875 C 337.761719 408.449219 337.609375 408.679688 337.441406 408.910156 C 336.390625 410.402344 335.121094 411.726562 333.679688 412.839844 C 333.359375 413.101562 333.027344 413.34375 332.679688 413.570312 C 332.601562 413.628906 332.519531 413.683594 332.429688 413.730469 L 332.101562 413.941406 C 331.929688 414.054688 331.753906 414.164062 331.570312 414.261719 C 331.289062 414.421875 331 414.578125 330.710938 414.71875 C 323.5625 418.320312 314.898438 416.808594 309.390625 411 C 308.167969 409.734375 307.136719 408.296875 306.339844 406.730469 C 305.023438 404.164062 304.335938 401.324219 304.339844 398.441406 L 304.339844 398.378906 C 304.339844 397.871094 304.339844 397.378906 304.410156 396.859375 C 304.605469 394.515625 305.261719 392.230469 306.339844 390.140625 C 306.605469 389.613281 306.898438 389.105469 307.21875 388.609375 C 308.269531 386.984375 309.5625 385.535156 311.058594 384.308594 C 311.535156 383.921875 312.03125 383.558594 312.550781 383.230469 C 312.730469 383.101562 312.917969 382.980469 313.109375 382.871094 C 314.542969 381.988281 316.089844 381.316406 317.710938 380.871094 L 318.128906 380.761719 C 319.574219 380.402344 321.058594 380.21875 322.550781 380.21875 C 323.015625 380.21875 323.476562 380.238281 323.929688 380.28125 L 324.28125 380.28125 C 326.300781 380.472656 328.277344 381.007812 330.121094 381.859375 L 330.351562 381.96875 C 335.910156 384.601562 339.761719 389.871094 340.578125 395.96875 C 340.695312 396.792969 340.753906 397.621094 340.75 398.449219 Z M 340.75 398.449219 "/>
<use xlink:href="#surface17" mask="url(#mask4)"/>
<use xlink:href="#surface20" mask="url(#mask5)"/>
<use xlink:href="#surface23" mask="url(#mask6)"/>
<use xlink:href="#surface26" mask="url(#mask7)"/>
<use xlink:href="#surface29" mask="url(#mask8)"/>
<path style=" stroke:none;fill-rule:nonzero;fill:rgb(14.901961%,19.607843%,21.960784%);fill-opacity:1;" d="M 113.789062 369.839844 C 113.789062 369.839844 117.351562 364.488281 123.679688 364.101562 C 130.011719 363.710938 135.351562 371.78125 135.351562 371.78125 L 133.351562 371.78125 C 133.351562 371.78125 128.238281 366.269531 124.578125 366.269531 C 120.921875 366.269531 117.359375 370.820312 117.359375 370.820312 Z M 113.789062 369.839844 "/>
<path style=" stroke:none;fill-rule:nonzero;fill:rgb(14.901961%,19.607843%,21.960784%);fill-opacity:1;" d="M 60.078125 412.058594 C 62.269531 408.410156 86.800781 410.78125 92.339844 408.601562 L 95.339844 413.75 C 95.339844 413.75 91.109375 416.089844 84.089844 415.261719 C 77.070312 414.429688 66.460938 414.210938 63.691406 416.648438 Z M 60.078125 412.058594 "/>
<use xlink:href="#surface32" mask="url(#mask9)"/>
<path style=" stroke:none;fill-rule:nonzero;fill:rgb(14.901961%,19.607843%,21.960784%);fill-opacity:1;" d="M 163.398438 400.929688 C 163.199219 401.800781 162.980469 402.648438 162.730469 403.480469 C 160.730469 410.289062 157.648438 415.800781 155.410156 416.648438 L 91.820312 416.648438 C 90.046875 416.648438 88.375 415.832031 87.289062 414.429688 L 87.238281 414.359375 C 87.003906 414.050781 86.808594 413.714844 86.648438 413.359375 C 82.261719 404.191406 77.828125 385.851562 84.058594 377.488281 C 84.710938 376.617188 85.464844 375.828125 86.300781 375.128906 L 86.480469 374.988281 C 87.800781 373.914062 89.257812 373.023438 90.820312 372.339844 L 90.871094 372.339844 C 95.25 370.339844 100.628906 369.449219 105.871094 369.058594 C 107.398438 368.941406 108.871094 368.871094 110.410156 368.839844 C 114.308594 368.730469 117.949219 368.839844 120.851562 368.910156 C 131.070312 369.171875 139.109375 372.210938 144.589844 371.679688 C 146.601562 371.46875 148.636719 371.632812 150.589844 372.160156 C 151.152344 372.316406 151.707031 372.503906 152.25 372.71875 C 154.742188 373.773438 157.0625 375.199219 159.128906 376.949219 C 165.390625 381.921875 165.480469 392.109375 163.398438 400.929688 Z M 163.398438 400.929688 "/>
<use xlink:href="#surface35" mask="url(#mask10)"/>
<use xlink:href="#surface38" mask="url(#mask11)"/>
<use xlink:href="#surface41" mask="url(#mask12)"/>
<path style=" stroke:none;fill-rule:nonzero;fill:rgb(14.901961%,19.607843%,21.960784%);fill-opacity:1;" d="M 92.339844 386.640625 L 86.800781 388 C 86.800781 388 82.871094 399.28125 85.21875 404 C 87.570312 408.71875 69.21875 415.289062 60.078125 412 L 63.660156 416.589844 C 63.660156 416.589844 85.421875 415.21875 89.570312 406.941406 C 93.71875 398.660156 87.789062 397.378906 87.398438 395.050781 C 87.011719 392.71875 92.339844 386.640625 92.339844 386.640625 Z M 92.339844 386.640625 "/>
<use xlink:href="#surface44" mask="url(#mask13)"/>
<path style=" stroke:none;fill-rule:nonzero;fill:rgb(89.411765%,53.72549%,48.235294%);fill-opacity:1;" d="M 141.269531 154 C 141.269531 154 119.871094 142 115.441406 138.921875 C 111.011719 135.839844 87.308594 112.570312 85.988281 111.921875 C 85.988281 111.921875 86.871094 109.261719 84.878906 107.710938 C 82.890625 106.160156 75.128906 101.070312 74.03125 101.070312 C 72.929688 101.070312 70.03125 111.921875 70.480469 114.578125 C 70.929688 117.238281 81.78125 117.898438 81.78125 117.898438 C 81.78125 117.898438 104.371094 144.199219 107.910156 147.898438 C 111.449219 151.601562 135.589844 167.308594 135.589844 167.308594 Z M 141.269531 154 "/>
<path style=" stroke:none;fill-rule:nonzero;fill:rgb(25.098039%,48.235294%,100%);fill-opacity:1;" d="M 150.050781 156.210938 C 150.050781 156.210938 154.738281 165.679688 143.351562 180.71875 L 118.238281 162.261719 L 128.238281 144.109375 Z M 150.050781 156.210938 "/>
<use xlink:href="#surface47" mask="url(#mask14)"/>
<use xlink:href="#surface50" mask="url(#mask15)"/>
<use xlink:href="#surface53" mask="url(#mask16)"/>
<path style=" stroke:none;fill-rule:nonzero;fill:rgb(89.411765%,53.72549%,48.235294%);fill-opacity:1;" d="M 196.71875 151.730469 C 196.71875 151.730469 218.121094 139.730469 222.550781 136.648438 C 226.980469 133.570312 250.679688 110.300781 252.011719 109.648438 C 252.011719 109.648438 251.121094 106.988281 253.109375 105.441406 C 255.101562 103.890625 262.859375 98.800781 263.960938 98.800781 C 265.058594 98.800781 267.960938 109.648438 267.511719 112.308594 C 267.058594 114.96875 256.210938 115.628906 256.210938 115.628906 C 256.210938 115.628906 233.621094 141.941406 230.078125 145.628906 C 226.539062 149.320312 202.398438 165 202.398438 165 Z M 196.71875 151.730469 "/>
<path style=" stroke:none;fill-rule:nonzero;fill:rgb(89.411765%,53.72549%,48.235294%);fill-opacity:1;" d="M 171.148438 278.449219 C 171.148438 278.449219 170.691406 286 170 296.101562 C 169.539062 302.378906 169 309.628906 168.351562 316.640625 C 167.511719 326.058594 166.558594 335.039062 165.609375 340.640625 C 164.738281 345.769531 153.191406 409.480469 153.191406 409.480469 L 145.449219 409.480469 C 147.890625 350.070312 151.671875 327.03125 151.808594 323.570312 C 151.808594 322.441406 151.898438 320.871094 151.949219 319 C 152.101562 312.21875 152.230469 301.511719 152.308594 293.71875 C 152.371094 288.101562 152.398438 284.011719 152.398438 284.011719 Z M 171.148438 278.449219 "/>
<path style=" stroke:none;fill-rule:nonzero;fill:rgb(89.411765%,53.72549%,48.235294%);fill-opacity:1;" d="M 201 326.519531 C 200.730469 331.710938 197.640625 409.199219 197.640625 409.199219 L 189.128906 409.199219 C 184.78125 347.480469 186.429688 326.050781 185.648438 321.769531 C 184.320312 314.488281 183.070312 304.921875 182.210938 297.769531 C 181.519531 292.058594 181.089844 287.949219 181.089844 287.949219 L 198.441406 280.449219 C 198.441406 280.449219 199.488281 289.449219 200.28125 300.230469 C 200.671875 305.628906 201.011719 311.5 201.109375 316.960938 C 201.191406 320.378906 201.171875 323.640625 201 326.519531 Z M 201 326.519531 "/>
<use xlink:href="#surface56" mask="url(#mask17)"/>
<use xlink:href="#surface59" mask="url(#mask18)"/>
<path style=" stroke:none;fill-rule:nonzero;fill:rgb(25.098039%,48.235294%,100%);fill-opacity:1;" d="M 155 407.078125 L 144.769531 407.078125 C 144.425781 407.085938 144.128906 407.324219 144.050781 407.660156 L 142.398438 415.140625 C 142.257812 415.808594 142.683594 416.464844 143.351562 416.609375 C 143.441406 416.621094 143.535156 416.621094 143.628906 416.609375 C 146.929688 416.558594 149.339844 416.351562 153.480469 416.351562 C 156.039062 416.351562 163.75 416.621094 167.269531 416.621094 C 170.789062 416.621094 171.269531 413.140625 169.820312 412.808594 C 163.339844 411.398438 158.460938 409.449219 156.390625 407.589844 C 156.007812 407.25 155.511719 407.066406 155 407.078125 Z M 155 407.078125 "/>
<path style=" stroke:none;fill-rule:nonzero;fill:rgb(25.098039%,48.235294%,100%);fill-opacity:1;" d="M 198.28125 406.820312 L 188.070312 406.820312 C 187.726562 406.816406 187.425781 407.054688 187.351562 407.390625 L 185.691406 414.878906 C 185.625 415.207031 185.695312 415.546875 185.882812 415.824219 C 186.070312 416.101562 186.363281 416.289062 186.691406 416.351562 L 186.960938 416.351562 C 190.269531 416.300781 192.671875 416.101562 196.820312 416.101562 C 199.371094 416.101562 207.078125 416.359375 210.609375 416.359375 C 214.140625 416.359375 214.609375 412.878906 213.148438 412.558594 C 206.671875 411.148438 201.800781 409.191406 199.730469 407.328125 C 199.332031 406.972656 198.8125 406.789062 198.28125 406.820312 Z M 198.28125 406.820312 "/>
<path style=" stroke:none;fill-rule:nonzero;fill:rgb(14.901961%,19.607843%,21.960784%);fill-opacity:1;" d="M 171.851562 312.269531 C 171.929688 311.589844 172.011719 310.878906 172.089844 310.078125 C 173.089844 299.839844 174.179688 287.550781 175.089844 275.710938 C 178.539062 284.988281 180.03125 298.039062 181.828125 312.269531 L 202.828125 312.269531 C 201.089844 275.441406 196.53125 245.480469 194.109375 232.699219 L 149.570312 232.699219 C 149.511719 237.28125 149 281.699219 147.851562 312.269531 Z M 171.851562 312.269531 "/>
<use xlink:href="#surface62" mask="url(#mask19)"/>
<path style=" stroke:none;fill-rule:nonzero;fill:rgb(89.411765%,53.72549%,48.235294%);fill-opacity:1;" d="M 178 141.488281 C 177.902344 141.894531 177.78125 142.289062 177.640625 142.679688 C 176.84375 144.902344 175.394531 146.835938 173.480469 148.21875 C 173 148.574219 172.492188 148.886719 171.960938 149.160156 C 167.792969 151.390625 162.652344 150.570312 159.378906 147.160156 C 155.171875 142.910156 155.28125 138 154.800781 129.691406 C 154.671875 127.90625 154.964844 126.113281 155.648438 124.460938 C 158.0625 118.65625 164.726562 115.90625 170.53125 118.320312 C 178.648438 121.640625 179.769531 134 178 141.488281 Z M 178 141.488281 "/>
<use xlink:href="#surface65" mask="url(#mask20)"/>
<path style=" stroke:none;fill-rule:nonzero;fill:rgb(89.411765%,53.72549%,48.235294%);fill-opacity:1;" d="M 156.71875 159 C 160.820312 162.71875 170.851562 161.351562 170.851562 161.351562 C 170.851562 161.351562 177.109375 159.628906 175.789062 157.679688 C 172.109375 157.070312 170.320312 155.351562 169.578125 153.140625 C 169.179688 151.773438 169.054688 150.34375 169.210938 148.929688 C 169.269531 148.140625 169.371094 147.355469 169.519531 146.578125 L 157.121094 137.398438 C 158.738281 143.460938 160.730469 154.609375 156.71875 159 Z M 156.71875 159 "/>
<path style=" stroke:none;fill-rule:nonzero;fill:rgb(14.901961%,19.607843%,21.960784%);fill-opacity:1;" d="M 173.449219 133.929688 L 175.238281 134.601562 L 174.351562 130.941406 C 174.351562 130.941406 176.96875 126.941406 174.351562 123.46875 C 174.351562 123.46875 181.589844 121.269531 177.5 117.46875 C 175.980469 116.050781 174.089844 117.46875 169.089844 115.300781 C 166.378906 114.109375 157.898438 114.019531 157.480469 117.46875 C 157.480469 117.46875 151.371094 117.46875 150.710938 127.871094 C 150.320312 134.039062 152.691406 140.0625 157.179688 144.308594 C 157.179688 144.308594 164.558594 146.050781 168.179688 143.089844 C 171.800781 140.128906 173.449219 133.929688 173.449219 133.929688 Z M 173.449219 133.929688 "/>
<path style=" stroke:none;fill-rule:nonzero;fill:rgb(89.411765%,53.72549%,48.235294%);fill-opacity:1;" d="M 168.730469 134.519531 C 169.046875 136.101562 170.058594 137.460938 171.488281 138.210938 C 173.179688 138.929688 174.300781 136.550781 174.050781 134.050781 C 173.820312 131.828125 172.671875 128.710938 170.859375 129.128906 C 169.050781 129.550781 168.140625 132.28125 168.730469 134.519531 Z M 168.730469 134.519531 "/>
<use xlink:href="#surface68" mask="url(#mask21)"/>
<path style=" stroke:none;fill-rule:nonzero;fill:rgb(25.098039%,48.235294%,100%);fill-opacity:1;" d="M 204.378906 310.539062 L 203.460938 314.011719 L 181.101562 314.011719 L 181.101562 310.800781 Z M 204.378906 310.539062 "/>
<path style=" stroke:none;fill-rule:nonzero;fill:rgb(25.098039%,48.235294%,100%);fill-opacity:1;" d="M 172.929688 311.019531 L 172.261719 314.230469 L 146.941406 314.230469 L 145.410156 311.019531 Z M 172.929688 311.019531 "/>
<path style=" stroke:none;fill-rule:nonzero;fill:rgb(25.098039%,48.235294%,100%);fill-opacity:1;" d="M 176.050781 156.589844 C 176.050781 156.589844 172.410156 150.839844 163.238281 150.429688 C 154.070312 150.019531 153.371094 156.328125 153.371094 156.328125 Z M 176.050781 156.589844 "/>
<use xlink:href="#surface71" mask="url(#mask22)"/>
<path style=" stroke:none;fill-rule:nonzero;fill:rgb(25.098039%,48.235294%,100%);fill-opacity:1;" d="M 143.121094 153 C 145.886719 184.132812 145.550781 215.464844 142.121094 246.53125 L 195.851562 243.25 C 195.25 188.421875 187.898438 153.878906 187.898438 153.878906 C 187.898438 153.878906 174.050781 156.789062 162.78125 156.371094 C 156.113281 156.058594 149.507812 154.929688 143.121094 153 Z M 143.121094 153 "/>
<path style=" stroke:none;fill-rule:nonzero;fill:rgb(25.098039%,48.235294%,100%);fill-opacity:1;" d="M 187.941406 153.921875 C 187.941406 153.921875 195.121094 170.699219 195.890625 187.679688 C 196.660156 204.660156 166.730469 228 166.730469 228 C 166.730469 228 143.660156 212.121094 125.859375 213.558594 C 108.058594 215 102.519531 221.328125 102.519531 221.328125 C 102.519531 221.328125 116.359375 191.71875 140.460938 181.398438 C 140.460938 181.398438 135.460938 164.351562 143.121094 153.078125 C 143.121094 153 159.78125 158.460938 187.941406 153.921875 Z M 187.941406 153.921875 "/>
<use xlink:href="#surface74" mask="url(#mask23)"/>
<use xlink:href="#surface77" mask="url(#mask24)"/>
<use xlink:href="#surface80" mask="url(#mask25)"/>
<path style=" stroke:none;fill-rule:nonzero;fill:rgb(25.098039%,48.235294%,100%);fill-opacity:1;" d="M 167.53125 109.730469 C 179.398438 105.640625 182.378906 121.449219 170.589844 132.140625 C 158.800781 142.828125 145.261719 144.140625 143.71875 138.71875 C 142.179688 133.300781 149.410156 116 167.53125 109.730469 Z M 167.53125 109.730469 "/>
<path style=" stroke:none;fill-rule:nonzero;fill:rgb(25.098039%,48.235294%,100%);fill-opacity:1;" d="M 155.640625 108.929688 C 161.730469 108.929688 170.378906 115.128906 170.378906 115.128906 C 170.378906 115.128906 171.621094 121.730469 165.550781 127.53125 C 159.480469 133.328125 154 134.25 150.621094 132 C 147.238281 129.75 146.300781 121 146.300781 121 C 146.925781 118.898438 148.539062 117.238281 150.621094 116.550781 C 150.621094 116.550781 151.621094 109 155.640625 108.929688 Z M 155.640625 108.929688 "/>
<use xlink:href="#surface83" mask="url(#mask26)"/>
<use xlink:href="#surface86" mask="url(#mask27)"/>
<path style=" stroke:none;fill-rule:nonzero;fill:rgb(25.098039%,48.235294%,100%);fill-opacity:1;" d="M 187.941406 153.921875 C 187.941406 153.921875 183.25 163.398438 194.640625 178.429688 L 219.75 160 L 209.75 141.851562 Z M 187.941406 153.921875 "/>
<use xlink:href="#surface89" mask="url(#mask28)"/>
<use xlink:href="#surface92" mask="url(#mask29)"/>
<path style=" stroke:none;fill-rule:nonzero;fill:rgb(14.901961%,19.607843%,21.960784%);fill-opacity:1;" d="M 256.441406 324.609375 L 241 323.390625 L 246.101562 258.28125 L 261.589844 259.488281 Z M 244.171875 320.609375 L 253.679688 321.351562 L 258.308594 262.21875 L 248.808594 261.480469 Z M 244.171875 320.609375 "/>
<path style=" stroke:none;fill-rule:nonzero;fill:rgb(14.901961%,19.607843%,21.960784%);fill-opacity:1;" d="M 245.769531 408.539062 L 247.769531 408.699219 C 249.289062 408.679688 250.6875 409.519531 251.382812 410.867188 C 252.078125 412.21875 251.949219 413.84375 251.050781 415.070312 C 250.152344 416.292969 248.636719 416.902344 247.140625 416.640625 L 245.140625 416.480469 C 243.621094 416.503906 242.21875 415.667969 241.519531 414.316406 C 240.820312 412.96875 240.949219 411.339844 241.847656 410.113281 C 242.746094 408.890625 244.261719 408.277344 245.761719 408.539062 Z M 245.769531 408.539062 "/>
<use xlink:href="#surface95" mask="url(#mask30)"/>
<path style=" stroke:none;fill-rule:nonzero;fill:rgb(14.901961%,19.607843%,21.960784%);fill-opacity:1;" d="M 234.851562 407.691406 L 236.851562 407.839844 C 238.371094 407.816406 239.773438 408.652344 240.46875 410.003906 C 241.167969 411.351562 241.039062 412.980469 240.140625 414.207031 C 239.242188 415.429688 237.726562 416.039062 236.230469 415.78125 L 234.230469 415.628906 C 232.710938 415.65625 231.308594 414.816406 230.609375 413.46875 C 229.910156 412.117188 230.039062 410.488281 230.9375 409.265625 C 231.835938 408.039062 233.351562 407.429688 234.851562 407.691406 Z M 234.851562 407.691406 "/>
<use xlink:href="#surface98" mask="url(#mask31)"/>
<path style=" stroke:none;fill-rule:nonzero;fill:rgb(14.901961%,19.607843%,21.960784%);fill-opacity:1;" d="M 248.503906 410.101562 L 233.03125 408.890625 C 231.550781 408.773438 230.441406 407.480469 230.558594 406 L 237.925781 311.957031 C 238.042969 310.476562 239.335938 309.367188 240.820312 309.484375 L 256.292969 310.695312 C 257.773438 310.8125 258.878906 312.109375 258.761719 313.589844 L 251.394531 407.628906 C 251.277344 409.113281 249.984375 410.21875 248.503906 410.101562 Z M 248.503906 410.101562 "/>
<use xlink:href="#surface101" mask="url(#mask32)"/>
<path style=" stroke:none;fill-rule:nonzero;fill:rgb(14.901961%,19.607843%,21.960784%);fill-opacity:1;" d="M 259.871094 261.503906 L 246.824219 260.460938 C 245.71875 260.371094 244.894531 259.40625 244.980469 258.300781 L 245.082031 257.070312 C 245.167969 255.964844 246.136719 255.140625 247.242188 255.230469 L 260.289062 256.273438 C 261.394531 256.363281 262.21875 257.328125 262.128906 258.433594 L 262.03125 259.664062 C 261.945312 260.769531 260.976562 261.59375 259.871094 261.503906 Z M 259.871094 261.503906 "/>
<use xlink:href="#surface104" mask="url(#mask33)"/>
<use xlink:href="#surface107" mask="url(#mask34)"/>
<path style=" stroke:none;fill-rule:nonzero;fill:rgb(25.098039%,48.235294%,100%);fill-opacity:1;" d="M 287.539062 320.640625 L 280.878906 405.640625 C 280.636719 408.765625 277.90625 411.101562 274.78125 410.859375 L 243.78125 408.429688 C 241.59375 408.246094 239.964844 406.328125 240.128906 404.140625 L 247 315.769531 C 247.179688 313.582031 249.089844 311.949219 251.28125 312.109375 L 282.28125 314.539062 C 283.789062 314.648438 285.191406 315.351562 286.179688 316.496094 C 287.164062 317.640625 287.65625 319.132812 287.539062 320.640625 Z M 287.539062 320.640625 "/>
<use xlink:href="#surface110" mask="url(#mask35)"/>
<use xlink:href="#surface113" mask="url(#mask36)"/>
<use xlink:href="#surface116" mask="url(#mask37)"/>
<use xlink:href="#surface119" mask="url(#mask38)"/>
<use xlink:href="#surface122" mask="url(#mask39)"/>
<use xlink:href="#surface125" mask="url(#mask40)"/>
</g>
</svg>
